<svg width="311" height="311" viewBox="0 0 311 311" fill="none" xmlns="http://www.w3.org/2000/svg">
<rect width="311" height="311" fill="#F57B41"/>
<mask id="mask0_418_63" style="mask-type:luminance" maskUnits="userSpaceOnUse" x="0" y="0" width="532" height="311">
<path d="M531.701 311L531.701 6.10352e-05L6.10352e-05 3.77938e-05L4.74409e-05 311L531.701 311Z" fill="white"/>
</mask>
<g mask="url(#mask0_418_63)">
<path d="M0.0639135 40.2423L0.0639153 5.9865e-05L26.8331 6.10352e-05C24.3912 4.90072 21.786 9.73745 18.9607 14.5103C13.4959 23.6706 7.1682 32.2872 0.0639135 40.2423Z" fill="#F26522"/>
<path d="M0.0638998 92.3952L0.0639016 51.0663C9.85951 41.2256 18.4871 30.2866 25.7754 18.4663C29.4383 12.4222 32.8102 6.25017 35.9266 5.96739e-05L67.0686 6.10352e-05C61.6354 14.4685 55.0257 28.4669 47.3058 41.8545C35.3516 61.8265 19.4079 79.4049 0.0638998 92.3952Z" fill="#F26522"/>
<path d="M0.0639895 134.591L0.063991 100.67C0.347942 100.52 0.610599 100.329 0.866153 100.179C23.0425 86.6849 40.8106 67.5581 54.1065 45.7964C62.7858 31.1923 70.1979 15.8708 76.2615 5.97822e-05L104.926 6.10352e-05C97.3731 24.0275 88.3791 47.437 75.6511 69.2059C63.0225 90.2858 46.2766 108.731 25.1011 121.913C17.1709 126.914 8.78834 131.159 0.0639895 134.591Z" fill="#F26522"/>
<path d="M0.0639116 170.678L0.0639129 141.814C10.2337 138.171 20.0011 133.49 29.2112 127.843C51.0537 114.111 69.3059 95.3624 82.4516 73.1548C96.5496 49.9797 106.147 25.1142 114.296 5.98374e-05L141.697 6.10352e-05C131.83 33.3814 121.544 66.507 103.996 96.5501C91.3675 117.63 74.6217 136.082 53.4462 149.257C37.4386 159.584 19.0885 166.431 0.0639116 170.678Z" fill="#F26522"/>
<path d="M0.0639407 202.553L0.0639418 177.283C20.2456 173.022 40.0084 166.033 57.5635 155.18C79.4055 141.448 97.6575 122.699 110.804 100.492C129.963 68.8934 140.86 34.1342 151.21 5.98579e-05L178.142 6.10352e-05C165.315 42.3517 154.759 85.6692 132.341 123.894C119.713 144.981 102.967 163.426 82.1463 176.601C61.3258 189.776 37.0553 197.347 12.4654 200.97C8.35522 201.68 4.20959 202.149 0.0639407 202.553Z" fill="#F26522"/>
<path d="M0.0639852 231.361L0.0639862 208.633C4.52907 208.321 8.99416 207.831 13.4947 207.213C38.7591 203.612 64.0518 196.026 85.9016 182.532C107.743 168.798 125.994 150.049 139.142 127.843C163.341 87.5656 174.529 42.6145 187.832 5.98433e-05L215.098 6.10352e-05C213.615 4.37514 212.259 8.77863 210.917 13.175C195.875 59.9656 185.653 108.738 160.715 151.239C148.086 172.326 131.34 190.771 110.52 203.953C89.6994 217.135 65.4289 224.692 40.839 228.321C27.3514 230.452 13.7503 231.077 0.0923666 231.361" fill="#F26522"/>
<path d="M0.0638772 259.635L0.0638782 237.156C13.8141 236.972 27.7488 236.567 41.8398 234.585C67.1041 230.956 92.3968 223.392 114.247 209.869C136.089 196.137 154.341 177.388 167.487 155.18C193.802 111.373 204.748 61.9472 219.755 16.1509C221.494 10.7247 223.304 5.33396 225.221 5.97791e-05L253.956 6.10352e-05C248.306 13.2272 243.391 26.7566 239.234 40.5264C224.546 87.3099 213.976 136.082 189.032 178.59C176.403 199.67 159.657 218.122 138.837 231.297C118.016 244.472 93.7101 252.036 69.1556 255.687C46.3404 259.373 23.2341 258.478 0.0638772 259.657" fill="#F26522"/>
<path d="M0.0638912 289.025L0.0638922 264.998C23.0424 264.096 46.5959 265.31 70.1849 261.93C95.4493 258.3 120.742 250.736 142.592 237.22C164.768 223.726 182.898 204.286 195.832 182.532C222.197 138.717 233.093 89.2915 248.107 43.5023C252.956 28.5872 258.4 13.9208 264.974 5.96568e-05L296.506 6.10352e-05C296.418 0.105158 296.342 0.219463 296.279 0.340976C283.295 21.4209 274.727 44.802 267.579 68.1831C252.892 114.654 242.322 163.426 217.384 205.97C204.748 227.05 188.009 245.502 167.182 258.677C146.354 271.852 122.091 279.416 97.5079 283.045C72.9179 287.015 47.9802 285.68 23.0424 287.306C15.3616 287.74 7.6808 288.265 0.0638912 289.039" fill="#F26522"/>
<path d="M380.967 177.596C366.769 222.461 356.441 269.742 333.27 310.943L296.023 310.943C300.867 304.916 305.282 298.555 309.234 291.909C335.549 248.101 346.481 198.675 361.843 152.886C369.005 129.818 377.879 107.431 390.188 87.6508C396.328 77.4162 403.846 68.8933 412.038 60.6119C420.911 53.3888 430.132 46.7835 440.738 42.5079C461.565 32.9552 484.097 31.3145 507.331 30.6327C524.472 30.6043 541.55 28.5444 558.207 24.4962L558.207 45.2068C550.747 46.2966 543.215 46.8237 535.676 46.7836L517.929 47.7779C511.959 47.8007 506.009 48.4675 500.182 49.7666C494.042 50.7538 487.902 51.7197 482.088 53.7013L472.859 56.3363L464.341 59.9656C453.061 64.9373 442.811 72.4871 433.263 80.7401C424.361 89.6323 416.162 99.2064 410.029 109.725C397.045 130.812 388.527 154.186 381.009 177.596" fill="#F26522"/>
<path d="M286.192 310.943L239.844 310.943C256.369 298.257 270.303 282.512 280.889 264.565C307.204 220.757 318.136 171.331 333.143 125.535C340.66 102.474 349.534 80.0796 361.843 60.3065C367.983 50.072 375.529 41.5136 383.693 33.2677C392.566 26.0446 401.794 19.0984 412.393 15.1637C423.935 9.8937 434.541 4.15496 445.657 5.61154e-05L558.207 6.10352e-05L558.207 12.7134C541.57 16.9393 524.494 19.1968 507.331 19.4393L489.584 20.4337C483.614 20.4501 477.664 21.1145 471.837 22.4152C465.668 23.4096 459.528 24.3684 453.714 26.3571L444.486 28.9921L435.967 32.6143C424.333 37.586 414.437 45.1429 404.889 53.3888C395.988 62.2881 387.789 71.855 381.655 82.3808C368.672 103.461 359.798 126.842 352.636 150.251C337.906 196.694 327.357 245.466 302.412 287.974C297.68 296.087 292.25 303.773 286.185 310.943" fill="#F26522"/>
<path d="M227.507 310.943L154.39 310.943C170.135 306.682 185.397 300.496 199.254 291.909C221.43 278.414 239.553 258.982 252.494 237.22C278.816 193.406 289.748 143.987 304.755 98.1908C312.272 75.1222 321.146 52.7354 333.455 32.9552C339.631 22.7277 347.134 14.2049 355.347 5.92346C357.825 3.90638 360.316 1.8893 362.9 5.84662e-05L421.671 6.10352e-05L416.112 1.64072L407.594 5.27004C395.959 10.2417 385.737 17.7987 376.516 26.0446C367.614 34.9439 359.415 44.5108 353.282 55.0366C340.298 76.1165 331.425 99.4976 324.255 122.9C309.582 169.35 299.012 218.115 274.074 260.658C262.503 280.502 246.687 298.024 227.507 310.979" fill="#F26522"/>
<path d="M121.864 310.943L0.0639207 310.943L0.0639215 294.359C7.77315 293.649 15.5817 293.209 23.3974 292.903C47.9802 291.255 73.2374 293.244 98.5301 289.274C123.794 285.644 149.087 278.08 170.937 264.565C193.106 251.07 211.236 231.638 224.177 209.876C250.499 166.068 261.424 116.65 276.438 70.8536C283.956 47.7779 292.843 25.3627 305.152 5.61096C306.309 3.68621 307.495 1.83248 308.78 5.93689e-05L346.9 6.10352e-05C338.509 8.52294 330.765 17.6424 324.624 27.6994C311.641 48.7723 303.122 72.1463 295.924 95.5558C281.237 141.998 270.667 190.771 245.729 233.278C233.42 254.365 216.355 272.81 195.527 285.985C174.699 299.16 150.436 306.731 125.853 310.354C124.533 310.574 123.184 310.759 121.864 310.943Z" fill="#F26522"/>
</g>
<path d="M58.7695 116.174C60.0619 116.583 61.0744 117.272 61.8068 118.242C62.5392 119.189 62.9054 120.363 62.9054 121.764C62.9054 123.745 62.1299 125.275 60.5789 126.352C59.0495 127.407 56.8092 127.935 53.8581 127.935H42.1613V105.317H53.2119C55.9691 105.317 58.0802 105.845 59.545 106.9C61.0313 107.956 61.7745 109.388 61.7745 111.198C61.7745 112.296 61.5052 113.276 60.9667 114.138C60.4497 115 59.7173 115.678 58.7695 116.174ZM47.3634 109.259V114.59H52.5656C53.8581 114.59 54.8382 114.364 55.506 113.912C56.1738 113.459 56.5077 112.792 56.5077 111.908C56.5077 111.025 56.1738 110.368 55.506 109.937C54.8382 109.485 53.8581 109.259 52.5656 109.259H47.3634ZM53.4704 123.993C54.849 123.993 55.883 123.767 56.5723 123.314C57.2831 122.862 57.6386 122.162 57.6386 121.214C57.6386 119.34 56.2492 118.403 53.4704 118.403H47.3634V123.993H53.4704ZM77.822 128.323C75.474 128.323 73.3522 127.817 71.4566 126.804C69.5825 125.792 68.107 124.402 67.0299 122.636C65.9744 120.848 65.4466 118.845 65.4466 116.626C65.4466 114.407 65.9744 112.415 67.0299 110.648C68.107 108.86 69.5825 107.46 71.4566 106.448C73.3522 105.435 75.474 104.929 77.822 104.929C80.17 104.929 82.281 105.435 84.1551 106.448C86.0292 107.46 87.5047 108.86 88.5818 110.648C89.6589 112.415 90.1974 114.407 90.1974 116.626C90.1974 118.845 89.6589 120.848 88.5818 122.636C87.5047 124.402 86.0292 125.792 84.1551 126.804C82.281 127.817 80.17 128.323 77.822 128.323ZM77.822 123.864C79.1576 123.864 80.3639 123.562 81.4409 122.959C82.518 122.334 83.3581 121.473 83.9612 120.374C84.5859 119.276 84.8983 118.026 84.8983 116.626C84.8983 115.226 84.5859 113.976 83.9612 112.878C83.3581 111.779 82.518 110.928 81.4409 110.325C80.3639 109.7 79.1576 109.388 77.822 109.388C76.4865 109.388 75.2802 109.7 74.2031 110.325C73.126 110.928 72.2752 111.779 71.6505 112.878C71.0473 113.976 70.7458 115.226 70.7458 116.626C70.7458 118.026 71.0473 119.276 71.6505 120.374C72.2752 121.473 73.126 122.334 74.2031 122.959C75.2802 123.562 76.4865 123.864 77.822 123.864ZM94.1313 105.317H104.406C106.862 105.317 109.027 105.791 110.901 106.739C112.797 107.665 114.262 108.979 115.295 110.681C116.351 112.382 116.879 114.364 116.879 116.626C116.879 118.888 116.351 120.87 115.295 122.571C114.262 124.273 112.797 125.598 110.901 126.546C109.027 127.472 106.862 127.935 104.406 127.935H94.1313V105.317ZM104.148 123.638C106.41 123.638 108.208 123.013 109.544 121.764C110.901 120.493 111.58 118.78 111.58 116.626C111.58 114.472 110.901 112.77 109.544 111.521C108.208 110.25 106.41 109.614 104.148 109.614H99.3658V123.638H104.148ZM130.705 119.922V127.935H125.47V119.857L116.714 105.317H122.272L128.314 115.366L134.356 105.317H139.494L130.705 119.922ZM158.266 128.323C156.478 128.323 154.744 128.086 153.064 127.612C151.405 127.116 150.07 126.481 149.057 125.706L150.835 121.764C151.804 122.474 152.956 123.045 154.292 123.476C155.627 123.907 156.963 124.122 158.299 124.122C159.785 124.122 160.884 123.907 161.594 123.476C162.305 123.024 162.661 122.431 162.661 121.699C162.661 121.16 162.445 120.719 162.014 120.374C161.605 120.008 161.067 119.717 160.399 119.502C159.753 119.286 158.869 119.049 157.749 118.791C156.026 118.382 154.615 117.972 153.516 117.563C152.418 117.154 151.47 116.497 150.673 115.592C149.898 114.687 149.51 113.481 149.51 111.973C149.51 110.659 149.865 109.474 150.576 108.419C151.287 107.342 152.353 106.491 153.775 105.866C155.218 105.241 156.974 104.929 159.042 104.929C160.485 104.929 161.896 105.101 163.275 105.446C164.653 105.791 165.86 106.286 166.893 106.932L165.278 110.907C163.188 109.722 161.099 109.13 159.009 109.13C157.545 109.13 156.457 109.367 155.746 109.841C155.057 110.314 154.712 110.939 154.712 111.715C154.712 112.49 155.11 113.072 155.908 113.459C156.726 113.826 157.965 114.192 159.623 114.558C161.347 114.967 162.758 115.377 163.856 115.786C164.955 116.195 165.892 116.841 166.667 117.725C167.464 118.608 167.863 119.803 167.863 121.311C167.863 122.604 167.497 123.788 166.764 124.865C166.053 125.921 164.976 126.761 163.533 127.386C162.09 128.01 160.334 128.323 158.266 128.323ZM188.953 123.735V127.935H171.44V105.317H188.532V109.517H176.642V114.429H187.143V118.5H176.642V123.735H188.953ZM207.528 127.935L203.166 121.634H202.908H198.352V127.935H193.117V105.317H202.908C204.911 105.317 206.645 105.651 208.11 106.319C209.596 106.986 210.738 107.934 211.535 109.162C212.332 110.39 212.731 111.844 212.731 113.524C212.731 115.204 212.321 116.658 211.503 117.886C210.706 119.092 209.564 120.019 208.078 120.665L213.151 127.935H207.528ZM207.432 113.524C207.432 112.253 207.022 111.284 206.204 110.616C205.385 109.927 204.19 109.582 202.617 109.582H198.352V117.466H202.617C204.19 117.466 205.385 117.121 206.204 116.432C207.022 115.743 207.432 114.773 207.432 113.524ZM226.927 128.323C223.696 128.323 221.175 127.429 219.366 125.641C217.578 123.853 216.684 121.3 216.684 117.983V105.317H221.919V117.789C221.919 121.839 223.599 123.864 226.959 123.864C228.596 123.864 229.846 123.379 230.707 122.41C231.569 121.419 232 119.879 232 117.789V105.317H237.17V117.983C237.17 121.3 236.265 123.853 234.455 125.641C232.668 127.429 230.158 128.323 226.927 128.323ZM262.925 127.935L262.893 114.364L256.236 125.544H253.878L247.254 114.655V127.935H242.342V105.317H246.672L255.138 119.372L263.474 105.317H267.772L267.836 127.935H262.925Z" fill="white"/>
<path d="M130.628 208.632C129.685 208.632 128.833 208.425 128.07 208.012C127.316 207.59 126.723 207.016 126.292 206.289C125.862 205.553 125.646 204.727 125.646 203.812C125.646 202.896 125.862 202.075 126.292 201.348C126.723 200.612 127.32 200.037 128.083 199.625C128.846 199.203 129.699 198.992 130.641 198.992C131.377 198.992 132.05 199.118 132.661 199.369C133.271 199.611 133.791 199.975 134.222 200.459L133.347 201.308C132.638 200.563 131.754 200.19 130.695 200.19C129.995 200.19 129.362 200.347 128.797 200.661C128.231 200.975 127.787 201.411 127.464 201.967C127.15 202.515 126.993 203.13 126.993 203.812C126.993 204.494 127.15 205.113 127.464 205.67C127.787 206.217 128.231 206.648 128.797 206.962C129.362 207.276 129.995 207.433 130.695 207.433C131.745 207.433 132.629 207.056 133.347 206.302L134.222 207.151C133.791 207.635 133.266 208.003 132.647 208.255C132.037 208.506 131.364 208.632 130.628 208.632ZM135.954 198.534H137.247V208.524H135.954V198.534ZM139.715 201.388H141.007V208.524H139.715V201.388ZM140.361 200.015C140.11 200.015 139.899 199.934 139.728 199.773C139.567 199.611 139.486 199.414 139.486 199.18C139.486 198.947 139.567 198.75 139.728 198.588C139.899 198.417 140.11 198.332 140.361 198.332C140.612 198.332 140.819 198.413 140.98 198.574C141.151 198.727 141.236 198.92 141.236 199.153C141.236 199.396 141.151 199.602 140.98 199.773C140.819 199.934 140.612 200.015 140.361 200.015ZM146.585 208.605C145.858 208.605 145.207 208.448 144.633 208.133C144.067 207.819 143.623 207.388 143.3 206.841C142.977 206.284 142.815 205.656 142.815 204.956C142.815 204.256 142.977 203.632 143.3 203.085C143.623 202.528 144.067 202.097 144.633 201.792C145.207 201.478 145.858 201.321 146.585 201.321C147.231 201.321 147.806 201.451 148.308 201.711C148.82 201.972 149.215 202.349 149.493 202.842L148.51 203.475C148.286 203.134 148.007 202.878 147.675 202.708C147.343 202.537 146.975 202.452 146.571 202.452C146.105 202.452 145.683 202.555 145.306 202.762C144.938 202.968 144.646 203.264 144.431 203.65C144.224 204.027 144.121 204.462 144.121 204.956C144.121 205.459 144.224 205.903 144.431 206.289C144.646 206.666 144.938 206.958 145.306 207.164C145.683 207.37 146.105 207.474 146.571 207.474C146.975 207.474 147.343 207.388 147.675 207.218C148.007 207.047 148.286 206.792 148.51 206.45L149.493 207.07C149.215 207.563 148.82 207.945 148.308 208.214C147.806 208.474 147.231 208.605 146.585 208.605ZM153.848 205.198L152.367 206.572V208.524H151.074V198.534H152.367V204.943L156.258 201.388H157.819L154.817 204.337L158.115 208.524H156.527L153.848 205.198ZM171.912 201.321C172.81 201.321 173.519 201.581 174.039 202.102C174.569 202.622 174.834 203.394 174.834 204.418V208.524H173.541V204.566C173.541 203.875 173.38 203.354 173.056 203.004C172.742 202.654 172.289 202.479 171.697 202.479C171.041 202.479 170.521 202.685 170.135 203.098C169.749 203.502 169.556 204.085 169.556 204.848V208.524H168.264V204.566C168.264 203.875 168.102 203.354 167.779 203.004C167.465 202.654 167.012 202.479 166.419 202.479C165.764 202.479 165.243 202.685 164.857 203.098C164.471 203.502 164.278 204.085 164.278 204.848V208.524H162.986V201.388H164.225V202.452C164.485 202.084 164.826 201.806 165.248 201.617C165.67 201.42 166.15 201.321 166.688 201.321C167.245 201.321 167.739 201.433 168.169 201.658C168.6 201.882 168.932 202.21 169.166 202.64C169.435 202.228 169.807 201.904 170.283 201.671C170.768 201.438 171.311 201.321 171.912 201.321ZM183.7 204.996C183.7 205.095 183.691 205.225 183.673 205.387H177.884C177.965 206.015 178.239 206.522 178.705 206.908C179.181 207.285 179.769 207.474 180.469 207.474C181.322 207.474 182.008 207.186 182.529 206.612L183.242 207.447C182.919 207.824 182.515 208.111 182.031 208.308C181.555 208.506 181.021 208.605 180.429 208.605C179.675 208.605 179.006 208.452 178.423 208.147C177.839 207.833 177.386 207.397 177.063 206.841C176.749 206.284 176.592 205.656 176.592 204.956C176.592 204.265 176.744 203.641 177.049 203.085C177.363 202.528 177.79 202.097 178.328 201.792C178.876 201.478 179.491 201.321 180.173 201.321C180.855 201.321 181.461 201.478 181.99 201.792C182.529 202.097 182.946 202.528 183.242 203.085C183.548 203.641 183.7 204.278 183.7 204.996ZM180.173 202.412C179.553 202.412 179.033 202.6 178.611 202.977C178.198 203.354 177.956 203.848 177.884 204.458H182.461C182.39 203.857 182.143 203.367 181.721 202.99C181.308 202.604 180.792 202.412 180.173 202.412Z" fill="white"/>
<path d="M125 209.87H184.266V210.543H125V209.87Z" fill="white"/>
</svg>
