<svg width="320" height="320" viewBox="0 0 320 320" fill="none" xmlns="http://www.w3.org/2000/svg">
<rect width="320" height="320" fill="#F26522"/>
<path d="M75.6157 65V45.4H85.1917C87.6557 45.4 89.5037 45.8667 90.7357 46.8C91.9864 47.7333 92.6117 48.9653 92.6117 50.496C92.6117 51.5227 92.3597 52.4187 91.8557 53.184C91.3517 53.9307 90.6611 54.5093 89.7837 54.92C88.9064 55.3307 87.8984 55.536 86.7597 55.536L87.2917 54.388C88.5237 54.388 89.6157 54.5933 90.5677 55.004C91.5197 55.396 92.2571 55.984 92.7797 56.768C93.3211 57.552 93.5917 58.5133 93.5917 59.652C93.5917 61.332 92.9291 62.648 91.6037 63.6C90.2784 64.5333 88.3277 65 85.7517 65H75.6157ZM80.1237 61.584H85.4157C86.5917 61.584 87.4784 61.3973 88.0757 61.024C88.6917 60.632 88.9997 60.016 88.9997 59.176C88.9997 58.3547 88.6917 57.748 88.0757 57.356C87.4784 56.9453 86.5917 56.74 85.4157 56.74H79.7877V53.436H84.6317C85.7331 53.436 86.5731 53.2493 87.1517 52.876C87.7491 52.484 88.0477 51.896 88.0477 51.112C88.0477 50.3467 87.7491 49.7773 87.1517 49.404C86.5731 49.012 85.7331 48.816 84.6317 48.816H80.1237V61.584ZM103.046 65.224C101.441 65.224 100.013 64.888 98.7619 64.216C97.5299 63.544 96.5499 62.6293 95.8219 61.472C95.1125 60.296 94.7579 58.9613 94.7579 57.468C94.7579 55.956 95.1125 54.6213 95.8219 53.464C96.5499 52.288 97.5299 51.3733 98.7619 50.72C100.013 50.048 101.441 49.712 103.046 49.712C104.633 49.712 106.051 50.048 107.302 50.72C108.553 51.3733 109.533 52.2787 110.242 53.436C110.951 54.5933 111.306 55.9373 111.306 57.468C111.306 58.9613 110.951 60.296 110.242 61.472C109.533 62.6293 108.553 63.544 107.302 64.216C106.051 64.888 104.633 65.224 103.046 65.224ZM103.046 61.64C103.774 61.64 104.427 61.472 105.006 61.136C105.585 60.8 106.042 60.324 106.378 59.708C106.714 59.0733 106.882 58.3267 106.882 57.468C106.882 56.5907 106.714 55.844 106.378 55.228C106.042 54.612 105.585 54.136 105.006 53.8C104.427 53.464 103.774 53.296 103.046 53.296C102.318 53.296 101.665 53.464 101.086 53.8C100.507 54.136 100.041 54.612 99.6859 55.228C99.3499 55.844 99.1819 56.5907 99.1819 57.468C99.1819 58.3267 99.3499 59.0733 99.6859 59.708C100.041 60.324 100.507 60.8 101.086 61.136C101.665 61.472 102.318 61.64 103.046 61.64ZM119.854 65.224C118.435 65.224 117.156 64.9067 116.018 64.272C114.879 63.6187 113.974 62.7133 113.302 61.556C112.648 60.3987 112.322 59.036 112.322 57.468C112.322 55.8813 112.648 54.5093 113.302 53.352C113.974 52.1947 114.879 51.2987 116.018 50.664C117.156 50.0293 118.435 49.712 119.854 49.712C121.123 49.712 122.234 49.992 123.186 50.552C124.138 51.112 124.875 51.9613 125.398 53.1C125.92 54.2387 126.182 55.6947 126.182 57.468C126.182 59.2227 125.93 60.6787 125.426 61.836C124.922 62.9747 124.194 63.824 123.242 64.384C122.308 64.944 121.179 65.224 119.854 65.224ZM120.61 61.64C121.319 61.64 121.963 61.472 122.542 61.136C123.12 60.8 123.578 60.324 123.914 59.708C124.268 59.0733 124.446 58.3267 124.446 57.468C124.446 56.5907 124.268 55.844 123.914 55.228C123.578 54.612 123.12 54.136 122.542 53.8C121.963 53.464 121.319 53.296 120.61 53.296C119.882 53.296 119.228 53.464 118.65 53.8C118.071 54.136 117.604 54.612 117.25 55.228C116.914 55.844 116.746 56.5907 116.746 57.468C116.746 58.3267 116.914 59.0733 117.25 59.708C117.604 60.324 118.071 60.8 118.65 61.136C119.228 61.472 119.882 61.64 120.61 61.64ZM124.558 65V61.92L124.642 57.44L124.362 52.988V44.224H128.73V65H124.558ZM133.836 70.656C133.052 70.656 132.278 70.5347 131.512 70.292C130.747 70.0493 130.122 69.7133 129.636 69.284L131.232 66.176C131.568 66.4747 131.951 66.708 132.38 66.876C132.828 67.044 133.267 67.128 133.696 67.128C134.312 67.128 134.798 66.9787 135.152 66.68C135.526 66.4 135.862 65.924 136.16 65.252L136.944 63.404L137.28 62.928L142.684 49.936H146.884L140.08 65.924C139.595 67.1373 139.035 68.0893 138.4 68.78C137.784 69.4707 137.094 69.956 136.328 70.236C135.582 70.516 134.751 70.656 133.836 70.656ZM136.412 65.588L129.692 49.936H134.2L139.408 62.536L136.412 65.588ZM161.664 65.336C160.096 65.336 158.594 65.1307 157.156 64.72C155.719 64.2907 154.562 63.74 153.684 63.068L155.224 59.652C156.064 60.2493 157.054 60.744 158.192 61.136C159.35 61.5093 160.516 61.696 161.692 61.696C162.588 61.696 163.307 61.612 163.848 61.444C164.408 61.2573 164.819 61.0053 165.08 60.688C165.342 60.3707 165.472 60.0067 165.472 59.596C165.472 59.0733 165.267 58.6627 164.856 58.364C164.446 58.0467 163.904 57.7947 163.232 57.608C162.56 57.4027 161.814 57.216 160.992 57.048C160.19 56.8613 159.378 56.6373 158.556 56.376C157.754 56.1147 157.016 55.7787 156.344 55.368C155.672 54.9573 155.122 54.416 154.692 53.744C154.282 53.072 154.076 52.2133 154.076 51.168C154.076 50.048 154.375 49.0307 154.972 48.116C155.588 47.1827 156.503 46.4453 157.716 45.904C158.948 45.344 160.488 45.064 162.336 45.064C163.568 45.064 164.782 45.2133 165.976 45.512C167.171 45.792 168.226 46.2213 169.14 46.8L167.74 50.244C166.826 49.7213 165.911 49.3387 164.996 49.096C164.082 48.8347 163.186 48.704 162.308 48.704C161.431 48.704 160.712 48.8067 160.152 49.012C159.592 49.2173 159.191 49.488 158.948 49.824C158.706 50.1413 158.584 50.5147 158.584 50.944C158.584 51.448 158.79 51.8587 159.2 52.176C159.611 52.4747 160.152 52.7173 160.824 52.904C161.496 53.0907 162.234 53.2773 163.036 53.464C163.858 53.6507 164.67 53.8653 165.472 54.108C166.294 54.3507 167.04 54.6773 167.712 55.088C168.384 55.4987 168.926 56.04 169.336 56.712C169.766 57.384 169.98 58.2333 169.98 59.26C169.98 60.3613 169.672 61.3693 169.056 62.284C168.44 63.1987 167.516 63.936 166.284 64.496C165.071 65.056 163.531 65.336 161.664 65.336ZM179.408 65.224C177.69 65.224 176.178 64.888 174.872 64.216C173.584 63.544 172.585 62.6293 171.876 61.472C171.166 60.296 170.812 58.9613 170.812 57.468C170.812 55.956 171.157 54.6213 171.848 53.464C172.557 52.288 173.518 51.3733 174.732 50.72C175.945 50.048 177.317 49.712 178.848 49.712C180.322 49.712 181.648 50.0293 182.824 50.664C184.018 51.28 184.961 52.176 185.652 53.352C186.342 54.5093 186.688 55.9 186.688 57.524C186.688 57.692 186.678 57.888 186.66 58.112C186.641 58.3173 186.622 58.5133 186.604 58.7H174.368V56.152H184.308L182.628 56.908C182.628 56.124 182.469 55.4427 182.152 54.864C181.834 54.2853 181.396 53.8373 180.836 53.52C180.276 53.184 179.622 53.016 178.876 53.016C178.129 53.016 177.466 53.184 176.888 53.52C176.328 53.8373 175.889 54.2947 175.572 54.892C175.254 55.4707 175.096 56.1613 175.096 56.964V57.636C175.096 58.4573 175.273 59.1853 175.628 59.82C176.001 60.436 176.514 60.912 177.168 61.248C177.84 61.5653 178.624 61.724 179.52 61.724C180.322 61.724 181.022 61.6027 181.62 61.36C182.236 61.1173 182.796 60.7533 183.3 60.268L185.624 62.788C184.933 63.572 184.065 64.1787 183.02 64.608C181.974 65.0187 180.77 65.224 179.408 65.224ZM188.756 65V49.936H192.928V54.192L192.34 52.96C192.788 51.896 193.507 51.0933 194.496 50.552C195.485 49.992 196.689 49.712 198.108 49.712V53.744C197.921 53.7253 197.753 53.716 197.604 53.716C197.455 53.6973 197.296 53.688 197.128 53.688C195.933 53.688 194.963 54.0333 194.216 54.724C193.488 55.396 193.124 56.4507 193.124 57.888V65H188.756ZM206.33 65.224C205.08 65.224 203.96 64.9813 202.97 64.496C202 64.0107 201.244 63.2733 200.702 62.284C200.161 61.276 199.89 59.9973 199.89 58.448V49.936H204.258V57.804C204.258 59.0547 204.52 59.9787 205.042 60.576C205.584 61.1547 206.34 61.444 207.31 61.444C207.982 61.444 208.58 61.304 209.102 61.024C209.625 60.7253 210.036 60.2773 210.334 59.68C210.633 59.064 210.782 58.2987 210.782 57.384V49.936H215.15V65H211.006V60.856L211.762 62.06C211.258 63.1053 210.512 63.8987 209.522 64.44C208.552 64.9627 207.488 65.224 206.33 65.224ZM237.649 49.712C238.844 49.712 239.898 49.9547 240.813 50.44C241.746 50.9067 242.474 51.6347 242.997 52.624C243.538 53.5947 243.809 54.8453 243.809 56.376V65H239.441V57.048C239.441 55.8347 239.189 54.9387 238.685 54.36C238.181 53.7813 237.472 53.492 236.557 53.492C235.922 53.492 235.353 53.6413 234.849 53.94C234.345 54.22 233.953 54.6493 233.673 55.228C233.393 55.8067 233.253 56.544 233.253 57.44V65H228.885V57.048C228.885 55.8347 228.633 54.9387 228.129 54.36C227.644 53.7813 226.944 53.492 226.029 53.492C225.394 53.492 224.825 53.6413 224.321 53.94C223.817 54.22 223.425 54.6493 223.145 55.228C222.865 55.8067 222.725 56.544 222.725 57.44V65H218.357V49.936H222.529V54.052L221.745 52.848C222.268 51.8213 223.005 51.0467 223.957 50.524C224.928 49.9827 226.029 49.712 227.261 49.712C228.642 49.712 229.846 50.0667 230.873 50.776C231.918 51.4667 232.609 52.5307 232.945 53.968L231.405 53.548C231.909 52.372 232.712 51.4387 233.813 50.748C234.933 50.0573 236.212 49.712 237.649 49.712Z" fill="#C1F539"/>
<path d="M61.0354 107V97.3367H61.8775L68.5452 105.73H68.1034V97.3367H69.1112V107H68.2691L61.6152 98.6067H62.057V107H61.0354ZM72.9554 107V97.3367H73.977V107H72.9554ZM76.2652 107L80.6827 97.3367H81.6905L86.108 107H85.0312L80.9726 97.9303H81.3868L77.3282 107H76.2652ZM78.0046 104.419L78.3083 103.59H83.9268L84.2305 104.419H78.0046ZM92.4586 107.083C91.7315 107.083 91.0597 106.963 90.4431 106.724C89.8265 106.475 89.2927 106.13 88.8417 105.689C88.3908 105.247 88.0364 104.727 87.7788 104.129C87.5303 103.53 87.406 102.877 87.406 102.168C87.406 101.46 87.5303 100.806 87.7788 100.208C88.0364 99.6099 88.3908 99.0899 88.8417 98.6482C89.3019 98.2064 89.8403 97.8659 90.4569 97.6266C91.0735 97.3781 91.7453 97.2539 92.4724 97.2539C93.1718 97.2539 93.8298 97.3735 94.4464 97.6128C95.063 97.8429 95.583 98.1926 96.0064 98.662L95.3575 99.3108C94.9618 98.9058 94.5247 98.616 94.0461 98.4411C93.5675 98.257 93.0522 98.165 92.5 98.165C91.9202 98.165 91.3818 98.2662 90.8848 98.4687C90.3878 98.662 89.9553 98.9427 89.5872 99.3108C89.2191 99.6697 88.9292 100.093 88.7175 100.581C88.515 101.059 88.4138 101.589 88.4138 102.168C88.4138 102.748 88.515 103.282 88.7175 103.77C88.9292 104.248 89.2191 104.672 89.5872 105.04C89.9553 105.399 90.3878 105.679 90.8848 105.882C91.3818 106.075 91.9202 106.172 92.5 106.172C93.0522 106.172 93.5675 106.08 94.0461 105.896C94.5247 105.712 94.9618 105.417 95.3575 105.012L96.0064 105.661C95.583 106.13 95.063 106.485 94.4464 106.724C93.8298 106.963 93.1672 107.083 92.4586 107.083ZM98.8743 107V97.3367H99.8958V107H98.8743ZM103.73 107V97.3367H104.572L111.24 105.73H110.798V97.3367H111.806V107H110.964L104.31 98.6067H104.752V107H103.73ZM114.104 107L118.522 97.3367H119.529L123.947 107H122.87L118.811 97.9303H119.226L115.167 107H114.104ZM115.843 104.419L116.147 103.59H121.766L122.069 104.419H115.843ZM126.236 107V97.3367H127.078L131.495 104.874H131.053L135.43 97.3367H136.272V107H135.291V98.869H135.526L131.495 105.771H131.012L126.953 98.869H127.216V107H126.236ZM140.11 107V97.3367H141.132V107H140.11ZM144.966 107V97.3367H148.901C149.931 97.3367 150.833 97.5438 151.606 97.9579C152.389 98.3629 152.996 98.9289 153.429 99.6559C153.861 100.383 154.077 101.22 154.077 102.168C154.077 103.116 153.861 103.954 153.429 104.681C152.996 105.408 152.389 105.978 151.606 106.393C150.833 106.798 149.931 107 148.901 107H144.966ZM145.988 106.116H148.845C149.701 106.116 150.442 105.951 151.068 105.62C151.703 105.279 152.195 104.814 152.545 104.225C152.895 103.627 153.07 102.941 153.07 102.168C153.07 101.386 152.895 100.7 152.545 100.111C152.195 99.5225 151.703 99.0623 151.068 98.731C150.442 98.3905 149.701 98.2202 148.845 98.2202H145.988V106.116ZM157.973 101.658H163.08V102.527H157.973V101.658ZM158.083 106.116H163.895V107H157.062V97.3367H163.688V98.2202H158.083V106.116ZM173.25 105.095V99.2418H174.12V105.095H173.25ZM170.682 102.582V101.768H176.687V102.582H170.682ZM186.971 107L182.691 97.3367H183.795L187.799 106.434H187.191L191.222 97.3367H192.258L187.978 107H186.971ZM194.35 107V97.3367H195.372V107H194.35ZM201.084 107V98.2202H197.688V97.3367H205.501V98.2202H202.105V107H201.084ZM205.792 107L210.21 97.3367H211.217L215.635 107H214.558L210.499 97.9303H210.914L206.855 107H205.792ZM207.531 104.419L207.835 103.59H213.454L213.757 104.419H207.531ZM217.924 107V97.3367H218.766L223.183 104.874H222.741L227.117 97.3367H227.96V107H226.979V98.869H227.214L223.183 105.771H222.7L218.641 98.869H218.904V107H217.924ZM231.798 107V97.3367H232.82V107H231.798ZM236.654 107V97.3367H237.496L244.164 105.73H243.722V97.3367H244.73V107H243.888L237.234 98.6067H237.676V107H236.654ZM253.789 101.658H258.896V102.527H253.789V101.658ZM253.899 106.116H259.711V107H252.877V97.3367H259.504V98.2202H253.899V106.116Z" fill="#FFE3D6"/>
<path d="M99.1 219V205H101.1V219H99.1ZM106.291 219V205H112.191C113.685 205 114.998 205.293 116.131 205.88C117.278 206.467 118.165 207.287 118.791 208.34C119.431 209.393 119.751 210.613 119.751 212C119.751 213.387 119.431 214.607 118.791 215.66C118.165 216.713 117.278 217.533 116.131 218.12C114.998 218.707 113.685 219 112.191 219H106.291ZM108.291 217.26H112.071C113.231 217.26 114.231 217.04 115.071 216.6C115.925 216.16 116.585 215.547 117.051 214.76C117.518 213.96 117.751 213.04 117.751 212C117.751 210.947 117.518 210.027 117.051 209.24C116.585 208.453 115.925 207.84 115.071 207.4C114.231 206.96 113.231 206.74 112.071 206.74H108.291V217.26ZM123.815 219V205H129.275C130.502 205 131.548 205.193 132.415 205.58C133.282 205.967 133.948 206.527 134.415 207.26C134.882 207.993 135.115 208.867 135.115 209.88C135.115 210.893 134.882 211.767 134.415 212.5C133.948 213.22 133.282 213.773 132.415 214.16C131.548 214.547 130.502 214.74 129.275 214.74H124.915L125.815 213.82V219H123.815ZM133.175 219L129.615 213.92H131.755L135.355 219H133.175ZM125.815 214.02L124.915 213.04H129.215C130.495 213.04 131.462 212.767 132.115 212.22C132.782 211.66 133.115 210.88 133.115 209.88C133.115 208.88 132.782 208.107 132.115 207.56C131.462 207.013 130.495 206.74 129.215 206.74H124.915L125.815 205.74V214.02ZM146.937 219V205.8L147.797 206.74H143.777V205H148.917V219H146.937ZM155.34 219V205.8L156.2 206.74H152.18V205H157.32V219H155.34ZM165.922 204.84C167.189 204.84 168.255 205.113 169.122 205.66C170.002 206.207 170.669 207 171.122 208.04C171.575 209.067 171.802 210.327 171.802 211.82C171.802 213.407 171.522 214.747 170.962 215.84C170.402 216.933 169.629 217.76 168.642 218.32C167.655 218.88 166.502 219.16 165.182 219.16C164.529 219.16 163.895 219.093 163.282 218.96C162.682 218.827 162.155 218.62 161.702 218.34L162.462 216.78C162.835 217.02 163.249 217.193 163.702 217.3C164.169 217.393 164.655 217.44 165.162 217.44C166.575 217.44 167.702 217 168.542 216.12C169.382 215.227 169.802 213.907 169.802 212.16C169.802 211.88 169.789 211.547 169.762 211.16C169.735 210.773 169.675 210.393 169.582 210.02L170.242 210.7C170.055 211.313 169.742 211.833 169.302 212.26C168.875 212.673 168.355 212.987 167.742 213.2C167.142 213.4 166.482 213.5 165.762 213.5C164.842 213.5 164.022 213.327 163.302 212.98C162.582 212.633 162.015 212.147 161.602 211.52C161.189 210.88 160.982 210.127 160.982 209.26C160.982 208.353 161.195 207.573 161.622 206.92C162.062 206.253 162.655 205.74 163.402 205.38C164.162 205.02 165.002 204.84 165.922 204.84ZM166.002 206.46C165.402 206.46 164.869 206.573 164.402 206.8C163.935 207.027 163.569 207.34 163.302 207.74C163.049 208.14 162.922 208.62 162.922 209.18C162.922 210.007 163.209 210.667 163.782 211.16C164.355 211.64 165.129 211.88 166.102 211.88C166.742 211.88 167.302 211.76 167.782 211.52C168.275 211.28 168.655 210.953 168.922 210.54C169.202 210.127 169.342 209.667 169.342 209.16C169.342 208.667 169.215 208.22 168.962 207.82C168.709 207.42 168.335 207.093 167.842 206.84C167.349 206.587 166.735 206.46 166.002 206.46ZM174.591 221.96L175.591 217.92L175.851 219.08C175.465 219.08 175.138 218.96 174.871 218.72C174.618 218.48 174.491 218.153 174.491 217.74C174.491 217.34 174.618 217.013 174.871 216.76C175.138 216.507 175.458 216.38 175.831 216.38C176.218 216.38 176.531 216.513 176.771 216.78C177.011 217.033 177.131 217.353 177.131 217.74C177.131 217.873 177.118 218.007 177.091 218.14C177.078 218.26 177.045 218.407 176.991 218.58C176.951 218.74 176.885 218.94 176.791 219.18L175.851 221.96H174.591ZM185.508 219.16C184.415 219.16 183.435 218.88 182.568 218.32C181.715 217.76 181.035 216.947 180.528 215.88C180.035 214.813 179.788 213.52 179.788 212C179.788 210.48 180.035 209.187 180.528 208.12C181.035 207.053 181.715 206.24 182.568 205.68C183.435 205.12 184.415 204.84 185.508 204.84C186.588 204.84 187.561 205.12 188.428 205.68C189.295 206.24 189.975 207.053 190.468 208.12C190.961 209.187 191.208 210.48 191.208 212C191.208 213.52 190.961 214.813 190.468 215.88C189.975 216.947 189.295 217.76 188.428 218.32C187.561 218.88 186.588 219.16 185.508 219.16ZM185.508 217.38C186.241 217.38 186.881 217.18 187.428 216.78C187.988 216.38 188.421 215.78 188.728 214.98C189.048 214.18 189.208 213.187 189.208 212C189.208 210.813 189.048 209.82 188.728 209.02C188.421 208.22 187.988 207.62 187.428 207.22C186.881 206.82 186.241 206.62 185.508 206.62C184.775 206.62 184.128 206.82 183.568 207.22C183.008 207.62 182.568 208.22 182.248 209.02C181.941 209.82 181.788 210.813 181.788 212C181.788 213.187 181.941 214.18 182.248 214.98C182.568 215.78 183.008 216.38 183.568 216.78C184.128 217.18 184.775 217.38 185.508 217.38ZM199.848 219.16C198.755 219.16 197.775 218.88 196.908 218.32C196.055 217.76 195.375 216.947 194.868 215.88C194.375 214.813 194.128 213.52 194.128 212C194.128 210.48 194.375 209.187 194.868 208.12C195.375 207.053 196.055 206.24 196.908 205.68C197.775 205.12 198.755 204.84 199.848 204.84C200.928 204.84 201.901 205.12 202.768 205.68C203.635 206.24 204.315 207.053 204.808 208.12C205.301 209.187 205.548 210.48 205.548 212C205.548 213.52 205.301 214.813 204.808 215.88C204.315 216.947 203.635 217.76 202.768 218.32C201.901 218.88 200.928 219.16 199.848 219.16ZM199.848 217.38C200.581 217.38 201.221 217.18 201.768 216.78C202.328 216.38 202.761 215.78 203.068 214.98C203.388 214.18 203.548 213.187 203.548 212C203.548 210.813 203.388 209.82 203.068 209.02C202.761 208.22 202.328 207.62 201.768 207.22C201.221 206.82 200.581 206.62 199.848 206.62C199.115 206.62 198.468 206.82 197.908 207.22C197.348 207.62 196.908 208.22 196.588 209.02C196.281 209.82 196.128 210.813 196.128 212C196.128 213.187 196.281 214.18 196.588 214.98C196.908 215.78 197.348 216.38 197.908 216.78C198.468 217.18 199.115 217.38 199.848 217.38ZM214.188 219.16C213.094 219.16 212.114 218.88 211.248 218.32C210.394 217.76 209.714 216.947 209.208 215.88C208.714 214.813 208.468 213.52 208.468 212C208.468 210.48 208.714 209.187 209.208 208.12C209.714 207.053 210.394 206.24 211.248 205.68C212.114 205.12 213.094 204.84 214.188 204.84C215.268 204.84 216.241 205.12 217.108 205.68C217.974 206.24 218.654 207.053 219.148 208.12C219.641 209.187 219.888 210.48 219.888 212C219.888 213.52 219.641 214.813 219.148 215.88C218.654 216.947 217.974 217.76 217.108 218.32C216.241 218.88 215.268 219.16 214.188 219.16ZM214.188 217.38C214.921 217.38 215.561 217.18 216.108 216.78C216.668 216.38 217.101 215.78 217.408 214.98C217.728 214.18 217.888 213.187 217.888 212C217.888 210.813 217.728 209.82 217.408 209.02C217.101 208.22 216.668 207.62 216.108 207.22C215.561 206.82 214.921 206.62 214.188 206.62C213.454 206.62 212.808 206.82 212.248 207.22C211.688 207.62 211.248 208.22 210.928 209.02C210.621 209.82 210.468 210.813 210.468 212C210.468 213.187 210.621 214.18 210.928 214.98C211.248 215.78 211.688 216.38 212.248 216.78C212.808 217.18 213.454 217.38 214.188 217.38Z" fill="#C1F539"/>
<path d="M128.661 271.112C127.914 271.112 127.2 271 126.519 270.776C125.838 270.543 125.301 270.244 124.909 269.88L125.427 268.788C125.8 269.115 126.276 269.385 126.855 269.6C127.434 269.815 128.036 269.922 128.661 269.922C129.23 269.922 129.692 269.857 130.047 269.726C130.402 269.595 130.663 269.418 130.831 269.194C130.999 268.961 131.083 268.699 131.083 268.41C131.083 268.074 130.971 267.803 130.747 267.598C130.532 267.393 130.248 267.229 129.893 267.108C129.548 266.977 129.165 266.865 128.745 266.772C128.325 266.679 127.9 266.571 127.471 266.45C127.051 266.319 126.664 266.156 126.309 265.96C125.964 265.764 125.684 265.503 125.469 265.176C125.254 264.84 125.147 264.411 125.147 263.888C125.147 263.384 125.278 262.922 125.539 262.502C125.81 262.073 126.22 261.732 126.771 261.48C127.331 261.219 128.04 261.088 128.899 261.088C129.468 261.088 130.033 261.163 130.593 261.312C131.153 261.461 131.638 261.676 132.049 261.956L131.587 263.076C131.167 262.796 130.724 262.595 130.257 262.474C129.79 262.343 129.338 262.278 128.899 262.278C128.348 262.278 127.896 262.348 127.541 262.488C127.186 262.628 126.925 262.815 126.757 263.048C126.598 263.281 126.519 263.543 126.519 263.832C126.519 264.177 126.626 264.453 126.841 264.658C127.065 264.863 127.35 265.027 127.695 265.148C128.05 265.269 128.437 265.381 128.857 265.484C129.277 265.577 129.697 265.685 130.117 265.806C130.546 265.927 130.934 266.086 131.279 266.282C131.634 266.478 131.918 266.739 132.133 267.066C132.348 267.393 132.455 267.813 132.455 268.326C132.455 268.821 132.32 269.283 132.049 269.712C131.778 270.132 131.358 270.473 130.789 270.734C130.229 270.986 129.52 271.112 128.661 271.112ZM138.308 271.084C137.515 271.084 136.815 270.921 136.208 270.594C135.611 270.267 135.144 269.819 134.808 269.25C134.482 268.681 134.318 268.027 134.318 267.29C134.318 266.553 134.477 265.899 134.794 265.33C135.121 264.761 135.564 264.317 136.124 264C136.694 263.673 137.333 263.51 138.042 263.51C138.761 263.51 139.396 263.669 139.946 263.986C140.497 264.303 140.926 264.751 141.234 265.33C141.552 265.899 141.71 266.567 141.71 267.332C141.71 267.388 141.706 267.453 141.696 267.528C141.696 267.603 141.692 267.673 141.682 267.738H135.368V266.772H140.982L140.436 267.108C140.446 266.632 140.348 266.207 140.142 265.834C139.937 265.461 139.652 265.171 139.288 264.966C138.934 264.751 138.518 264.644 138.042 264.644C137.576 264.644 137.16 264.751 136.796 264.966C136.432 265.171 136.148 265.465 135.942 265.848C135.737 266.221 135.634 266.651 135.634 267.136V267.36C135.634 267.855 135.746 268.298 135.97 268.69C136.204 269.073 136.526 269.371 136.936 269.586C137.347 269.801 137.818 269.908 138.35 269.908C138.789 269.908 139.186 269.833 139.54 269.684C139.904 269.535 140.222 269.311 140.492 269.012L141.234 269.88C140.898 270.272 140.478 270.571 139.974 270.776C139.48 270.981 138.924 271.084 138.308 271.084ZM147.581 271.084C146.787 271.084 146.087 270.921 145.481 270.594C144.883 270.267 144.417 269.819 144.081 269.25C143.754 268.681 143.591 268.027 143.591 267.29C143.591 266.553 143.749 265.899 144.067 265.33C144.393 264.761 144.837 264.317 145.397 264C145.966 263.673 146.605 263.51 147.315 263.51C148.033 263.51 148.668 263.669 149.219 263.986C149.769 264.303 150.199 264.751 150.507 265.33C150.824 265.899 150.983 266.567 150.983 267.332C150.983 267.388 150.978 267.453 150.969 267.528C150.969 267.603 150.964 267.673 150.955 267.738H144.641V266.772H150.255L149.709 267.108C149.718 266.632 149.62 266.207 149.415 265.834C149.209 265.461 148.925 265.171 148.561 264.966C148.206 264.751 147.791 264.644 147.315 264.644C146.848 264.644 146.433 264.751 146.069 264.966C145.705 265.171 145.42 265.465 145.215 265.848C145.009 266.221 144.907 266.651 144.907 267.136V267.36C144.907 267.855 145.019 268.298 145.243 268.69C145.476 269.073 145.798 269.371 146.209 269.586C146.619 269.801 147.091 269.908 147.623 269.908C148.061 269.908 148.458 269.833 148.813 269.684C149.177 269.535 149.494 269.311 149.765 269.012L150.507 269.88C150.171 270.272 149.751 270.571 149.247 270.776C148.752 270.981 148.197 271.084 147.581 271.084ZM167.291 263.51C167.888 263.51 168.415 263.627 168.873 263.86C169.33 264.093 169.685 264.448 169.937 264.924C170.198 265.4 170.329 266.002 170.329 266.73V271H168.985V266.884C168.985 266.165 168.817 265.624 168.481 265.26C168.145 264.896 167.673 264.714 167.067 264.714C166.619 264.714 166.227 264.807 165.891 264.994C165.555 265.181 165.293 265.456 165.107 265.82C164.929 266.184 164.841 266.637 164.841 267.178V271H163.497V266.884C163.497 266.165 163.329 265.624 162.993 265.26C162.666 264.896 162.195 264.714 161.579 264.714C161.14 264.714 160.753 264.807 160.417 264.994C160.081 265.181 159.819 265.456 159.633 265.82C159.446 266.184 159.353 266.637 159.353 267.178V271H158.009V263.58H159.297V265.554L159.087 265.05C159.32 264.565 159.679 264.187 160.165 263.916C160.65 263.645 161.215 263.51 161.859 263.51C162.568 263.51 163.179 263.687 163.693 264.042C164.206 264.387 164.542 264.915 164.701 265.624L164.155 265.4C164.379 264.831 164.771 264.373 165.331 264.028C165.891 263.683 166.544 263.51 167.291 263.51ZM176.68 271.084C175.933 271.084 175.27 270.921 174.692 270.594C174.113 270.267 173.656 269.819 173.32 269.25C172.984 268.671 172.816 268.018 172.816 267.29C172.816 266.553 172.984 265.899 173.32 265.33C173.656 264.761 174.113 264.317 174.692 264C175.27 263.673 175.933 263.51 176.68 263.51C177.417 263.51 178.075 263.673 178.654 264C179.242 264.317 179.699 264.761 180.026 265.33C180.362 265.89 180.53 266.543 180.53 267.29C180.53 268.027 180.362 268.681 180.026 269.25C179.699 269.819 179.242 270.267 178.654 270.594C178.075 270.921 177.417 271.084 176.68 271.084ZM176.68 269.908C177.156 269.908 177.58 269.801 177.954 269.586C178.336 269.371 178.635 269.068 178.85 268.676C179.064 268.275 179.172 267.813 179.172 267.29C179.172 266.758 179.064 266.301 178.85 265.918C178.635 265.526 178.336 265.223 177.954 265.008C177.58 264.793 177.156 264.686 176.68 264.686C176.204 264.686 175.779 264.793 175.406 265.008C175.032 265.223 174.734 265.526 174.51 265.918C174.286 266.301 174.174 266.758 174.174 267.29C174.174 267.813 174.286 268.275 174.51 268.676C174.734 269.068 175.032 269.371 175.406 269.586C175.779 269.801 176.204 269.908 176.68 269.908ZM183.088 271V263.58H184.376V265.596L184.25 265.092C184.456 264.579 184.801 264.187 185.286 263.916C185.772 263.645 186.369 263.51 187.078 263.51V264.812C187.022 264.803 186.966 264.798 186.91 264.798C186.864 264.798 186.817 264.798 186.77 264.798C186.052 264.798 185.482 265.013 185.062 265.442C184.642 265.871 184.432 266.492 184.432 267.304V271H183.088ZM192.671 271.084C191.877 271.084 191.177 270.921 190.571 270.594C189.973 270.267 189.507 269.819 189.171 269.25C188.844 268.681 188.681 268.027 188.681 267.29C188.681 266.553 188.839 265.899 189.157 265.33C189.483 264.761 189.927 264.317 190.487 264C191.056 263.673 191.695 263.51 192.405 263.51C193.123 263.51 193.758 263.669 194.309 263.986C194.859 264.303 195.289 264.751 195.597 265.33C195.914 265.899 196.073 266.567 196.073 267.332C196.073 267.388 196.068 267.453 196.059 267.528C196.059 267.603 196.054 267.673 196.045 267.738H189.731V266.772H195.345L194.799 267.108C194.808 266.632 194.71 266.207 194.505 265.834C194.299 265.461 194.015 265.171 193.651 264.966C193.296 264.751 192.881 264.644 192.405 264.644C191.938 264.644 191.523 264.751 191.159 264.966C190.795 265.171 190.51 265.465 190.305 265.848C190.099 266.221 189.997 266.651 189.997 267.136V267.36C189.997 267.855 190.109 268.298 190.333 268.69C190.566 269.073 190.888 269.371 191.299 269.586C191.709 269.801 192.181 269.908 192.713 269.908C193.151 269.908 193.548 269.833 193.903 269.684C194.267 269.535 194.584 269.311 194.855 269.012L195.597 269.88C195.261 270.272 194.841 270.571 194.337 270.776C193.842 270.981 193.287 271.084 192.671 271.084Z" fill="white"/>
<g clip-path="url(#clip0_938_60)">
<path d="M105.128 140.33L110.345 143.548L108.96 137.483L113.569 133.402L107.5 132.876L105.128 127.155L102.757 132.876L96.6881 133.402L101.297 137.483L99.9123 143.548L105.128 140.33Z" fill="white"/>
</g>
<g clip-path="url(#clip1_938_60)">
<path d="M132.288 140.33L137.504 143.548L136.12 137.483L140.728 133.402L134.659 132.876L132.288 127.155L129.916 132.876L123.847 133.402L128.456 137.483L127.072 143.548L132.288 140.33Z" fill="white"/>
</g>
<g clip-path="url(#clip2_938_60)">
<path d="M159.447 140.33L164.663 143.548L163.279 137.483L167.887 133.402L161.819 132.876L159.447 127.155L157.075 132.876L151.006 133.402L155.615 137.483L154.231 143.548L159.447 140.33Z" fill="white"/>
</g>
<g clip-path="url(#clip3_938_60)">
<path d="M186.606 140.33L191.822 143.548L190.438 137.483L195.046 133.402L188.978 132.876L186.606 127.155L184.234 132.876L178.166 133.402L182.774 137.483L181.39 143.548L186.606 140.33Z" fill="white"/>
</g>
<g clip-path="url(#clip4_938_60)">
<path d="M214.128 140.33L219.345 143.548L217.96 137.483L222.569 133.402L216.5 132.876L214.128 127.155L211.757 132.876L205.688 133.402L210.297 137.483L208.912 143.548L214.128 140.33Z" fill="white"/>
</g>
<defs>
<clipPath id="clip0_938_60">
<rect width="20.2569" height="20.707" fill="white" transform="translate(95 125.43)"/>
</clipPath>
<clipPath id="clip1_938_60">
<rect width="20.2569" height="20.707" fill="white" transform="translate(122.159 125.43)"/>
</clipPath>
<clipPath id="clip2_938_60">
<rect width="20.2569" height="20.707" fill="white" transform="translate(149.318 125.43)"/>
</clipPath>
<clipPath id="clip3_938_60">
<rect width="20.2569" height="20.707" fill="white" transform="translate(176.478 125.43)"/>
</clipPath>
<clipPath id="clip4_938_60">
<rect width="20.2569" height="20.707" fill="white" transform="translate(204 125.43)"/>
</clipPath>
</defs>
</svg>
