<svg width="320" height="320" viewBox="0 0 320 320" fill="none" xmlns="http://www.w3.org/2000/svg">
<rect width="320" height="320" fill="#F26522"/>
<g clip-path="url(#clip0_1117_285)">
<path d="M104.664 160.709L111.417 164.75L109.625 157.134L115.591 152.01L107.735 151.349L104.664 144.167L101.593 151.349L93.7363 152.01L99.7028 157.134L97.9106 164.75L104.664 160.709Z" fill="white"/>
</g>
<g clip-path="url(#clip1_1117_285)">
<path d="M132.397 160.709L139.15 164.75L137.358 157.134L143.325 152.01L135.468 151.349L132.397 144.167L129.327 151.349L121.47 152.01L127.436 157.134L125.644 164.75L132.397 160.709Z" fill="white"/>
</g>
<g clip-path="url(#clip2_1117_285)">
<path d="M160.13 160.709L166.884 164.75L165.092 157.134L171.058 152.01L163.201 151.349L160.13 144.167L157.06 151.349L149.203 152.01L155.169 157.134L153.377 164.75L160.13 160.709Z" fill="white"/>
</g>
<g clip-path="url(#clip3_1117_285)">
<path d="M187.864 160.709L194.617 164.75L192.825 157.134L198.791 152.01L190.934 151.349L187.864 144.167L184.793 151.349L176.936 152.01L182.903 157.134L181.111 164.75L187.864 160.709Z" fill="white"/>
</g>
<g clip-path="url(#clip4_1117_285)">
<path d="M215.597 160.709L222.35 164.75L220.558 157.134L226.525 152.01L218.668 151.349L215.597 144.167L212.527 151.349L204.67 152.01L210.636 157.134L208.844 164.75L215.597 160.709Z" fill="white"/>
</g>
<path d="M92.992 70V53.2H101.2C103.312 53.2 104.896 53.6 105.952 54.4C107.024 55.2 107.56 56.256 107.56 57.568C107.56 58.448 107.344 59.216 106.912 59.872C106.48 60.512 105.888 61.008 105.136 61.36C104.384 61.712 103.52 61.888 102.544 61.888L103 60.904C104.056 60.904 104.992 61.08 105.808 61.432C106.624 61.768 107.256 62.272 107.704 62.944C108.168 63.616 108.4 64.44 108.4 65.416C108.4 66.856 107.832 67.984 106.696 68.8C105.56 69.6 103.888 70 101.68 70H92.992ZM96.856 67.072H101.392C102.4 67.072 103.16 66.912 103.672 66.592C104.2 66.256 104.464 65.728 104.464 65.008C104.464 64.304 104.2 63.784 103.672 63.448C103.16 63.096 102.4 62.92 101.392 62.92H96.568V60.088H100.72C101.664 60.088 102.384 59.928 102.88 59.608C103.392 59.272 103.648 58.768 103.648 58.096C103.648 57.44 103.392 56.952 102.88 56.632C102.384 56.296 101.664 56.128 100.72 56.128H96.856V67.072ZM116.504 70.192C115.128 70.192 113.904 69.904 112.832 69.328C111.776 68.752 110.936 67.968 110.312 66.976C109.704 65.968 109.4 64.824 109.4 63.544C109.4 62.248 109.704 61.104 110.312 60.112C110.936 59.104 111.776 58.32 112.832 57.76C113.904 57.184 115.128 56.896 116.504 56.896C117.864 56.896 119.08 57.184 120.152 57.76C121.224 58.32 122.064 59.096 122.672 60.088C123.28 61.08 123.584 62.232 123.584 63.544C123.584 64.824 123.28 65.968 122.672 66.976C122.064 67.968 121.224 68.752 120.152 69.328C119.08 69.904 117.864 70.192 116.504 70.192ZM116.504 67.12C117.128 67.12 117.688 66.976 118.184 66.688C118.68 66.4 119.072 65.992 119.36 65.464C119.648 64.92 119.792 64.28 119.792 63.544C119.792 62.792 119.648 62.152 119.36 61.624C119.072 61.096 118.68 60.688 118.184 60.4C117.688 60.112 117.128 59.968 116.504 59.968C115.88 59.968 115.32 60.112 114.824 60.4C114.328 60.688 113.928 61.096 113.624 61.624C113.336 62.152 113.192 62.792 113.192 63.544C113.192 64.28 113.336 64.92 113.624 65.464C113.928 65.992 114.328 66.4 114.824 66.688C115.32 66.976 115.88 67.12 116.504 67.12ZM130.91 70.192C129.694 70.192 128.598 69.92 127.622 69.376C126.646 68.816 125.87 68.04 125.294 67.048C124.734 66.056 124.454 64.888 124.454 63.544C124.454 62.184 124.734 61.008 125.294 60.016C125.87 59.024 126.646 58.256 127.622 57.712C128.598 57.168 129.694 56.896 130.91 56.896C131.998 56.896 132.95 57.136 133.766 57.616C134.582 58.096 135.214 58.824 135.662 59.8C136.11 60.776 136.334 62.024 136.334 63.544C136.334 65.048 136.118 66.296 135.686 67.288C135.254 68.264 134.63 68.992 133.814 69.472C133.014 69.952 132.046 70.192 130.91 70.192ZM131.558 67.12C132.166 67.12 132.718 66.976 133.214 66.688C133.71 66.4 134.102 65.992 134.39 65.464C134.694 64.92 134.846 64.28 134.846 63.544C134.846 62.792 134.694 62.152 134.39 61.624C134.102 61.096 133.71 60.688 133.214 60.4C132.718 60.112 132.166 59.968 131.558 59.968C130.934 59.968 130.374 60.112 129.878 60.4C129.382 60.688 128.982 61.096 128.678 61.624C128.39 62.152 128.246 62.792 128.246 63.544C128.246 64.28 128.39 64.92 128.678 65.464C128.982 65.992 129.382 66.4 129.878 66.688C130.374 66.976 130.934 67.12 131.558 67.12ZM134.942 70V67.36L135.014 63.52L134.774 59.704V52.192H138.518V70H134.942ZM142.895 74.848C142.223 74.848 141.559 74.744 140.903 74.536C140.247 74.328 139.711 74.04 139.295 73.672L140.663 71.008C140.951 71.264 141.279 71.464 141.647 71.608C142.031 71.752 142.407 71.824 142.775 71.824C143.303 71.824 143.719 71.696 144.023 71.44C144.343 71.2 144.631 70.792 144.887 70.216L145.559 68.632L145.847 68.224L150.479 57.088H154.079L148.247 70.792C147.831 71.832 147.351 72.648 146.807 73.24C146.279 73.832 145.687 74.248 145.031 74.488C144.391 74.728 143.679 74.848 142.895 74.848ZM145.103 70.504L139.343 57.088H143.207L147.671 67.888L145.103 70.504ZM165.26 70L159.764 53.2H163.796L168.572 68.08H166.556L171.548 53.2H175.148L179.948 68.08H178.004L182.9 53.2H186.62L181.124 70H176.948L172.7 56.944H173.804L169.436 70H165.26ZM194.766 70V67.48L194.526 66.928V62.416C194.526 61.616 194.278 60.992 193.782 60.544C193.302 60.096 192.558 59.872 191.55 59.872C190.862 59.872 190.182 59.984 189.51 60.208C188.854 60.416 188.294 60.704 187.83 61.072L186.486 58.456C187.19 57.96 188.038 57.576 189.03 57.304C190.022 57.032 191.03 56.896 192.054 56.896C194.022 56.896 195.55 57.36 196.638 58.288C197.726 59.216 198.27 60.664 198.27 62.632V70H194.766ZM190.83 70.192C189.822 70.192 188.958 70.024 188.238 69.688C187.518 69.336 186.966 68.864 186.582 68.272C186.198 67.68 186.006 67.016 186.006 66.28C186.006 65.512 186.19 64.84 186.558 64.264C186.942 63.688 187.542 63.24 188.358 62.92C189.174 62.584 190.238 62.416 191.55 62.416H194.982V64.6H191.958C191.078 64.6 190.47 64.744 190.134 65.032C189.814 65.32 189.654 65.68 189.654 66.112C189.654 66.592 189.838 66.976 190.206 67.264C190.59 67.536 191.11 67.672 191.766 67.672C192.39 67.672 192.95 67.528 193.446 67.24C193.942 66.936 194.302 66.496 194.526 65.92L195.102 67.648C194.83 68.48 194.334 69.112 193.614 69.544C192.894 69.976 191.966 70.192 190.83 70.192ZM205.282 70.192C204.178 70.192 203.114 70.064 202.09 69.808C201.082 69.536 200.282 69.2 199.69 68.8L200.938 66.112C201.53 66.48 202.226 66.784 203.026 67.024C203.842 67.248 204.642 67.36 205.426 67.36C206.29 67.36 206.898 67.256 207.25 67.048C207.618 66.84 207.802 66.552 207.802 66.184C207.802 65.88 207.658 65.656 207.37 65.512C207.098 65.352 206.73 65.232 206.266 65.152C205.802 65.072 205.29 64.992 204.73 64.912C204.186 64.832 203.634 64.728 203.074 64.6C202.514 64.456 202.002 64.248 201.538 63.976C201.074 63.704 200.698 63.336 200.41 62.872C200.138 62.408 200.002 61.808 200.002 61.072C200.002 60.256 200.234 59.536 200.698 58.912C201.178 58.288 201.866 57.8 202.762 57.448C203.658 57.08 204.73 56.896 205.978 56.896C206.858 56.896 207.754 56.992 208.666 57.184C209.578 57.376 210.338 57.656 210.946 58.024L209.698 60.688C209.074 60.32 208.442 60.072 207.802 59.944C207.178 59.8 206.57 59.728 205.978 59.728C205.146 59.728 204.538 59.84 204.154 60.064C203.77 60.288 203.578 60.576 203.578 60.928C203.578 61.248 203.714 61.488 203.986 61.648C204.274 61.808 204.65 61.936 205.114 62.032C205.578 62.128 206.082 62.216 206.626 62.296C207.186 62.36 207.746 62.464 208.306 62.608C208.866 62.752 209.37 62.96 209.818 63.232C210.282 63.488 210.658 63.848 210.946 64.312C211.234 64.76 211.378 65.352 211.378 66.088C211.378 66.888 211.138 67.6 210.658 68.224C210.178 68.832 209.482 69.312 208.57 69.664C207.674 70.016 206.578 70.192 205.282 70.192ZM220.816 56.896C221.84 56.896 222.752 57.104 223.552 57.52C224.368 57.92 225.008 58.544 225.472 59.392C225.936 60.224 226.168 61.296 226.168 62.608V70H222.424V63.184C222.424 62.144 222.192 61.376 221.728 60.88C221.28 60.384 220.64 60.136 219.808 60.136C219.216 60.136 218.68 60.264 218.2 60.52C217.736 60.76 217.368 61.136 217.096 61.648C216.84 62.16 216.712 62.816 216.712 63.616V70H212.968V52.192H216.712V60.664L215.872 59.584C216.336 58.72 217 58.056 217.864 57.592C218.728 57.128 219.712 56.896 220.816 56.896Z" fill="white"/>
<path d="M129.07 272.06C128.55 272.06 128.05 271.977 127.57 271.81C127.097 271.637 126.73 271.417 126.47 271.15L126.76 270.58C127.007 270.82 127.337 271.023 127.75 271.19C128.17 271.35 128.61 271.43 129.07 271.43C129.51 271.43 129.867 271.377 130.14 271.27C130.42 271.157 130.623 271.007 130.75 270.82C130.883 270.633 130.95 270.427 130.95 270.2C130.95 269.927 130.87 269.707 130.71 269.54C130.557 269.373 130.353 269.243 130.1 269.15C129.847 269.05 129.567 268.963 129.26 268.89C128.953 268.817 128.647 268.74 128.34 268.66C128.033 268.573 127.75 268.46 127.49 268.32C127.237 268.18 127.03 267.997 126.87 267.77C126.717 267.537 126.64 267.233 126.64 266.86C126.64 266.513 126.73 266.197 126.91 265.91C127.097 265.617 127.38 265.383 127.76 265.21C128.14 265.03 128.627 264.94 129.22 264.94C129.613 264.94 130.003 264.997 130.39 265.11C130.777 265.217 131.11 265.367 131.39 265.56L131.14 266.15C130.84 265.95 130.52 265.803 130.18 265.71C129.847 265.617 129.523 265.57 129.21 265.57C128.79 265.57 128.443 265.627 128.17 265.74C127.897 265.853 127.693 266.007 127.56 266.2C127.433 266.387 127.37 266.6 127.37 266.84C127.37 267.113 127.447 267.333 127.6 267.5C127.76 267.667 127.967 267.797 128.22 267.89C128.48 267.983 128.763 268.067 129.07 268.14C129.377 268.213 129.68 268.293 129.98 268.38C130.287 268.467 130.567 268.58 130.82 268.72C131.08 268.853 131.287 269.033 131.44 269.26C131.6 269.487 131.68 269.783 131.68 270.15C131.68 270.49 131.587 270.807 131.4 271.1C131.213 271.387 130.927 271.62 130.54 271.8C130.16 271.973 129.67 272.06 129.07 272.06ZM135.952 268.13H139.652V268.76H135.952V268.13ZM136.032 271.36H140.242V272H135.292V265H140.092V265.64H136.032V271.36ZM144.642 268.13H148.342V268.76H144.642V268.13ZM144.722 271.36H148.932V272H143.982V265H148.782V265.64H144.722V271.36ZM157.288 272V265H157.898L161.098 270.46H160.778L163.948 265H164.558V272H163.848V266.11H164.018L161.098 271.11H160.748L157.808 266.11H157.998V272H157.288ZM171.899 272.06C171.373 272.06 170.883 271.973 170.429 271.8C169.983 271.62 169.593 271.37 169.259 271.05C168.933 270.723 168.676 270.347 168.489 269.92C168.309 269.487 168.219 269.013 168.219 268.5C168.219 267.987 168.309 267.517 168.489 267.09C168.676 266.657 168.933 266.28 169.259 265.96C169.593 265.633 169.983 265.383 170.429 265.21C170.876 265.03 171.366 264.94 171.899 264.94C172.426 264.94 172.913 265.03 173.359 265.21C173.806 265.383 174.193 265.63 174.519 265.95C174.853 266.27 175.109 266.647 175.289 267.08C175.476 267.513 175.569 267.987 175.569 268.5C175.569 269.013 175.476 269.487 175.289 269.92C175.109 270.353 174.853 270.73 174.519 271.05C174.193 271.37 173.806 271.62 173.359 271.8C172.913 271.973 172.426 272.06 171.899 272.06ZM171.899 271.4C172.319 271.4 172.706 271.33 173.059 271.19C173.419 271.043 173.729 270.84 173.989 270.58C174.256 270.313 174.463 270.007 174.609 269.66C174.756 269.307 174.829 268.92 174.829 268.5C174.829 268.08 174.756 267.697 174.609 267.35C174.463 266.997 174.256 266.69 173.989 266.43C173.729 266.163 173.419 265.96 173.059 265.82C172.706 265.673 172.319 265.6 171.899 265.6C171.479 265.6 171.089 265.673 170.729 265.82C170.369 265.96 170.056 266.163 169.789 266.43C169.529 266.69 169.323 266.997 169.169 267.35C169.023 267.697 168.949 268.08 168.949 268.5C168.949 268.913 169.023 269.297 169.169 269.65C169.323 270.003 169.529 270.313 169.789 270.58C170.056 270.84 170.369 271.043 170.729 271.19C171.089 271.33 171.479 271.4 171.899 271.4ZM179.228 272V265H181.848C182.441 265 182.951 265.097 183.378 265.29C183.805 265.477 184.131 265.75 184.358 266.11C184.591 266.463 184.708 266.893 184.708 267.4C184.708 267.893 184.591 268.32 184.358 268.68C184.131 269.033 183.805 269.307 183.378 269.5C182.951 269.687 182.441 269.78 181.848 269.78H179.638L179.968 269.44V272H179.228ZM184.008 272L182.208 269.46H183.008L184.818 272H184.008ZM179.968 269.5L179.638 269.15H181.828C182.528 269.15 183.058 268.997 183.418 268.69C183.785 268.383 183.968 267.953 183.968 267.4C183.968 266.84 183.785 266.407 183.418 266.1C183.058 265.793 182.528 265.64 181.828 265.64H179.638L179.968 265.29V269.5ZM189.114 268.13H192.814V268.76H189.114V268.13ZM189.194 271.36H193.404V272H188.454V265H193.254V265.64H189.194V271.36Z" fill="white"/>
<path d="M43.365 111V101.9H46.914C47.7113 101.9 48.3917 102.026 48.955 102.277C49.5183 102.528 49.9517 102.892 50.255 103.369C50.5583 103.846 50.71 104.413 50.71 105.072C50.71 105.731 50.5583 106.298 50.255 106.775C49.9517 107.243 49.5183 107.607 48.955 107.867C48.3917 108.118 47.7113 108.244 46.914 108.244H44.08L44.665 107.633V111H43.365ZM44.665 107.763L44.08 107.113H46.875C47.707 107.113 48.3353 106.935 48.76 106.58C49.1933 106.225 49.41 105.722 49.41 105.072C49.41 104.422 49.1933 103.919 48.76 103.564C48.3353 103.209 47.707 103.031 46.875 103.031H44.08L44.665 102.381V107.763ZM52.7349 111L56.8559 101.9H58.1429L62.2769 111H60.9119L57.2329 102.628H57.7529L54.0739 111H52.7349ZM54.4899 108.725L54.8409 107.685H59.9629L60.3399 108.725H54.4899ZM65.5843 111V101.9H66.6503L72.6693 109.375H72.1103V101.9H73.4103V111H72.3443L66.3253 103.525H66.8843V111H65.5843ZM79.8911 111V103.031H76.7711V101.9H84.2981V103.031H81.1781V111H79.8911ZM94.19 101.9H95.49V111H94.19V101.9ZM88.964 111H87.664V101.9H88.964V111ZM94.307 106.944H88.834V105.813H94.307V106.944ZM101.347 105.826H106.027V106.931H101.347V105.826ZM101.464 109.869H106.768V111H100.164V101.9H106.586V103.031H101.464V109.869ZM110.823 111V101.9H111.889L117.908 109.375H117.349V101.9H118.649V111H117.583L111.564 103.525H112.123V111H110.823ZM127.431 111.104C126.737 111.104 126.092 110.987 125.494 110.753C124.904 110.519 124.393 110.194 123.96 109.778C123.526 109.353 123.188 108.859 122.946 108.296C122.703 107.733 122.582 107.117 122.582 106.45C122.582 105.783 122.703 105.167 122.946 104.604C123.188 104.041 123.526 103.551 123.96 103.135C124.393 102.71 124.904 102.381 125.494 102.147C126.083 101.913 126.729 101.796 127.431 101.796C128.124 101.796 128.761 101.913 129.342 102.147C129.931 102.372 130.442 102.697 130.876 103.122C131.318 103.538 131.656 104.028 131.89 104.591C132.132 105.154 132.254 105.774 132.254 106.45C132.254 107.126 132.132 107.746 131.89 108.309C131.656 108.872 131.318 109.366 130.876 109.791C130.442 110.207 129.931 110.532 129.342 110.766C128.761 110.991 128.124 111.104 127.431 111.104ZM127.431 109.947C127.933 109.947 128.397 109.86 128.822 109.687C129.255 109.514 129.628 109.271 129.94 108.959C130.26 108.638 130.507 108.266 130.681 107.841C130.863 107.416 130.954 106.953 130.954 106.45C130.954 105.947 130.863 105.484 130.681 105.059C130.507 104.634 130.26 104.266 129.94 103.954C129.628 103.633 129.255 103.386 128.822 103.213C128.397 103.04 127.933 102.953 127.431 102.953C126.919 102.953 126.447 103.04 126.014 103.213C125.589 103.386 125.216 103.633 124.896 103.954C124.575 104.266 124.324 104.634 124.142 105.059C123.968 105.484 123.882 105.947 123.882 106.45C123.882 106.953 123.968 107.416 124.142 107.841C124.324 108.266 124.575 108.638 124.896 108.959C125.216 109.271 125.589 109.514 126.014 109.687C126.447 109.86 126.919 109.947 127.431 109.947ZM136.191 111V101.9H137.491V109.869H142.418V111H136.191ZM153.173 109.297V103.603H154.265V109.297H153.173ZM150.807 106.97V105.943H156.631V106.97H150.807ZM166.258 111V101.9H167.324L173.343 109.375H172.784V101.9H174.084V111H173.018L166.999 103.525H167.558V111H166.258ZM178.758 111V101.9H180.058V111H178.758ZM183.354 111L187.475 101.9H188.762L192.896 111H191.531L187.852 102.628H188.372L184.693 111H183.354ZM185.109 108.725L185.46 107.685H190.582L190.959 108.725H185.109ZM200.146 111.104C199.453 111.104 198.811 110.991 198.222 110.766C197.641 110.532 197.134 110.207 196.701 109.791C196.276 109.366 195.943 108.872 195.7 108.309C195.457 107.746 195.336 107.126 195.336 106.45C195.336 105.774 195.457 105.154 195.7 104.591C195.943 104.028 196.281 103.538 196.714 103.122C197.147 102.697 197.654 102.372 198.235 102.147C198.824 101.913 199.466 101.796 200.159 101.796C200.861 101.796 201.507 101.917 202.096 102.16C202.694 102.394 203.201 102.745 203.617 103.213L202.772 104.032C202.425 103.668 202.035 103.399 201.602 103.226C201.169 103.044 200.705 102.953 200.211 102.953C199.7 102.953 199.223 103.04 198.781 103.213C198.348 103.386 197.971 103.629 197.65 103.941C197.329 104.253 197.078 104.626 196.896 105.059C196.723 105.484 196.636 105.947 196.636 106.45C196.636 106.953 196.723 107.421 196.896 107.854C197.078 108.279 197.329 108.647 197.65 108.959C197.971 109.271 198.348 109.514 198.781 109.687C199.223 109.86 199.7 109.947 200.211 109.947C200.705 109.947 201.169 109.86 201.602 109.687C202.035 109.505 202.425 109.228 202.772 108.855L203.617 109.674C203.201 110.142 202.694 110.497 202.096 110.74C201.507 110.983 200.857 111.104 200.146 111.104ZM207.421 111V101.9H208.721V111H207.421ZM213.396 111V101.9H214.462L220.481 109.375H219.922V101.9H221.222V111H220.156L214.137 103.525H214.696V111H213.396ZM224.518 111L228.639 101.9H229.926L234.06 111H232.695L229.016 102.628H229.536L225.857 111H224.518ZM226.273 108.725L226.624 107.685H231.746L232.123 108.725H226.273ZM237.367 111V101.9H238.433L242.515 108.777H241.943L245.973 101.9H247.039L247.052 111H245.804L245.791 103.863H246.09L242.502 109.895H241.904L238.29 103.863H238.615V111H237.367ZM251.733 111V101.9H253.033V111H251.733ZM257.708 111V101.9H261.543C262.513 101.9 263.367 102.091 264.104 102.472C264.849 102.853 265.425 103.386 265.833 104.071C266.249 104.756 266.457 105.549 266.457 106.45C266.457 107.351 266.249 108.144 265.833 108.829C265.425 109.514 264.849 110.047 264.104 110.428C263.367 110.809 262.513 111 261.543 111H257.708ZM259.008 109.869H261.465C262.219 109.869 262.869 109.726 263.415 109.44C263.969 109.154 264.398 108.755 264.702 108.244C265.005 107.724 265.157 107.126 265.157 106.45C265.157 105.765 265.005 105.167 264.702 104.656C264.398 104.145 263.969 103.746 263.415 103.46C262.869 103.174 262.219 103.031 261.465 103.031H259.008V109.869ZM271.581 105.826H276.261V106.931H271.581V105.826ZM271.698 109.869H277.002V111H270.398V101.9H276.82V103.031H271.698V109.869Z" fill="#E6F614"/>
<path d="M115.222 209V199.9H116.912V209H115.222ZM121.323 209V199.9H125.301C126.289 199.9 127.156 200.091 127.901 200.472C128.647 200.853 129.227 201.382 129.643 202.058C130.059 202.734 130.267 203.531 130.267 204.45C130.267 205.36 130.059 206.157 129.643 206.842C129.227 207.518 128.647 208.047 127.901 208.428C127.156 208.809 126.289 209 125.301 209H121.323ZM123.013 207.57H125.223C125.908 207.57 126.497 207.44 126.991 207.18C127.494 206.92 127.88 206.556 128.148 206.088C128.426 205.62 128.564 205.074 128.564 204.45C128.564 203.817 128.426 203.271 128.148 202.812C127.88 202.344 127.494 201.98 126.991 201.72C126.497 201.46 125.908 201.33 125.223 201.33H123.013V207.57ZM134.014 209V199.9H137.758C138.564 199.9 139.253 200.03 139.825 200.29C140.405 200.55 140.852 200.923 141.164 201.408C141.476 201.893 141.632 202.47 141.632 203.137C141.632 203.804 141.476 204.381 141.164 204.866C140.852 205.343 140.405 205.711 139.825 205.971C139.253 206.222 138.564 206.348 137.758 206.348H134.95L135.704 205.581V209H134.014ZM139.968 209L137.667 205.698H139.474L141.788 209H139.968ZM135.704 205.763L134.95 204.957H137.68C138.425 204.957 138.984 204.797 139.357 204.476C139.738 204.155 139.929 203.709 139.929 203.137C139.929 202.556 139.738 202.11 139.357 201.798C138.984 201.486 138.425 201.33 137.68 201.33H134.95L135.704 200.498V205.763ZM153.433 199.77C154.265 199.77 154.971 199.948 155.552 200.303C156.141 200.65 156.592 201.157 156.904 201.824C157.216 202.491 157.372 203.315 157.372 204.294C157.372 205.334 157.181 206.214 156.8 206.933C156.427 207.652 155.907 208.198 155.24 208.571C154.573 208.944 153.797 209.13 152.913 209.13C152.454 209.13 152.016 209.082 151.6 208.987C151.184 208.892 150.824 208.744 150.521 208.545L151.145 207.271C151.396 207.436 151.669 207.553 151.964 207.622C152.259 207.683 152.562 207.713 152.874 207.713C153.732 207.713 154.412 207.449 154.915 206.92C155.418 206.391 155.669 205.611 155.669 204.58C155.669 204.415 155.665 204.225 155.656 204.008C155.647 203.783 155.617 203.557 155.565 203.332L156.085 203.904C155.938 204.259 155.725 204.558 155.448 204.801C155.171 205.035 154.846 205.213 154.473 205.334C154.1 205.455 153.689 205.516 153.238 205.516C152.649 205.516 152.116 205.403 151.639 205.178C151.171 204.944 150.798 204.619 150.521 204.203C150.244 203.778 150.105 203.284 150.105 202.721C150.105 202.114 150.252 201.594 150.547 201.161C150.842 200.719 151.24 200.377 151.743 200.134C152.254 199.891 152.818 199.77 153.433 199.77ZM153.524 201.096C153.177 201.096 152.87 201.161 152.601 201.291C152.332 201.412 152.12 201.59 151.964 201.824C151.817 202.049 151.743 202.322 151.743 202.643C151.743 203.12 151.908 203.497 152.237 203.774C152.566 204.051 153.008 204.19 153.563 204.19C153.927 204.19 154.248 204.125 154.525 203.995C154.802 203.856 155.019 203.67 155.175 203.436C155.331 203.193 155.409 202.925 155.409 202.63C155.409 202.344 155.335 202.088 155.188 201.863C155.041 201.629 154.828 201.443 154.551 201.304C154.274 201.165 153.931 201.096 153.524 201.096ZM164.119 209.13C163.365 209.13 162.71 209.017 162.156 208.792C161.601 208.567 161.172 208.25 160.869 207.843C160.565 207.427 160.414 206.942 160.414 206.387C160.414 205.832 160.561 205.364 160.856 204.983C161.15 204.602 161.575 204.311 162.13 204.112C162.684 203.913 163.347 203.813 164.119 203.813C164.89 203.813 165.553 203.913 166.108 204.112C166.671 204.311 167.1 204.606 167.395 204.996C167.698 205.377 167.85 205.841 167.85 206.387C167.85 206.942 167.694 207.427 167.382 207.843C167.078 208.25 166.645 208.567 166.082 208.792C165.527 209.017 164.873 209.13 164.119 209.13ZM164.119 207.804C164.743 207.804 165.237 207.674 165.601 207.414C165.965 207.154 166.147 206.794 166.147 206.335C166.147 205.884 165.965 205.529 165.601 205.269C165.237 205.009 164.743 204.879 164.119 204.879C163.495 204.879 163.005 205.009 162.65 205.269C162.294 205.529 162.117 205.884 162.117 206.335C162.117 206.794 162.294 207.154 162.65 207.414C163.005 207.674 163.495 207.804 164.119 207.804ZM164.119 204.697C163.417 204.697 162.814 204.606 162.312 204.424C161.809 204.233 161.419 203.96 161.142 203.605C160.873 203.241 160.739 202.808 160.739 202.305C160.739 201.785 160.877 201.339 161.155 200.966C161.441 200.585 161.839 200.29 162.351 200.082C162.862 199.874 163.451 199.77 164.119 199.77C164.795 199.77 165.388 199.874 165.9 200.082C166.411 200.29 166.81 200.585 167.096 200.966C167.382 201.339 167.525 201.785 167.525 202.305C167.525 202.808 167.386 203.241 167.109 203.605C166.84 203.96 166.45 204.233 165.939 204.424C165.427 204.606 164.821 204.697 164.119 204.697ZM164.119 203.657C164.656 203.657 165.081 203.544 165.393 203.319C165.705 203.085 165.861 202.773 165.861 202.383C165.861 201.976 165.7 201.659 165.38 201.434C165.059 201.209 164.639 201.096 164.119 201.096C163.599 201.096 163.183 201.209 162.871 201.434C162.559 201.659 162.403 201.976 162.403 202.383C162.403 202.773 162.554 203.085 162.858 203.319C163.17 203.544 163.59 203.657 164.119 203.657ZM171.088 210.963L171.842 208.09L172.063 209.052C171.76 209.052 171.504 208.961 171.296 208.779C171.097 208.588 170.997 208.333 170.997 208.012C170.997 207.683 171.097 207.423 171.296 207.232C171.504 207.033 171.755 206.933 172.05 206.933C172.353 206.933 172.605 207.033 172.804 207.232C173.003 207.431 173.103 207.691 173.103 208.012C173.103 208.099 173.094 208.194 173.077 208.298C173.06 208.393 173.029 208.506 172.986 208.636C172.951 208.766 172.891 208.931 172.804 209.13L172.141 210.963H171.088ZM179.79 209.13C179.071 209.13 178.421 208.948 177.84 208.584C177.268 208.22 176.818 207.691 176.488 206.998C176.159 206.296 175.994 205.447 175.994 204.45C175.994 203.453 176.159 202.608 176.488 201.915C176.818 201.213 177.268 200.68 177.84 200.316C178.421 199.952 179.071 199.77 179.79 199.77C180.518 199.77 181.168 199.952 181.74 200.316C182.312 200.68 182.763 201.213 183.092 201.915C183.43 202.608 183.599 203.453 183.599 204.45C183.599 205.447 183.43 206.296 183.092 206.998C182.763 207.691 182.312 208.22 181.74 208.584C181.168 208.948 180.518 209.13 179.79 209.13ZM179.79 207.661C180.215 207.661 180.583 207.548 180.895 207.323C181.207 207.089 181.45 206.734 181.623 206.257C181.805 205.78 181.896 205.178 181.896 204.45C181.896 203.713 181.805 203.111 181.623 202.643C181.45 202.166 181.207 201.815 180.895 201.59C180.583 201.356 180.215 201.239 179.79 201.239C179.383 201.239 179.019 201.356 178.698 201.59C178.386 201.815 178.139 202.166 177.957 202.643C177.784 203.111 177.697 203.713 177.697 204.45C177.697 205.178 177.784 205.78 177.957 206.257C178.139 206.734 178.386 207.089 178.698 207.323C179.019 207.548 179.383 207.661 179.79 207.661ZM190.488 209.13C189.768 209.13 189.118 208.948 188.538 208.584C187.966 208.22 187.515 207.691 187.186 206.998C186.856 206.296 186.692 205.447 186.692 204.45C186.692 203.453 186.856 202.608 187.186 201.915C187.515 201.213 187.966 200.68 188.538 200.316C189.118 199.952 189.768 199.77 190.488 199.77C191.216 199.77 191.866 199.952 192.438 200.316C193.01 200.68 193.46 201.213 193.79 201.915C194.128 202.608 194.297 203.453 194.297 204.45C194.297 205.447 194.128 206.296 193.79 206.998C193.46 207.691 193.01 208.22 192.438 208.584C191.866 208.948 191.216 209.13 190.488 209.13ZM190.488 207.661C190.912 207.661 191.281 207.548 191.593 207.323C191.905 207.089 192.147 206.734 192.321 206.257C192.503 205.78 192.594 205.178 192.594 204.45C192.594 203.713 192.503 203.111 192.321 202.643C192.147 202.166 191.905 201.815 191.593 201.59C191.281 201.356 190.912 201.239 190.488 201.239C190.08 201.239 189.716 201.356 189.396 201.59C189.084 201.815 188.837 202.166 188.655 202.643C188.481 203.111 188.395 203.713 188.395 204.45C188.395 205.178 188.481 205.78 188.655 206.257C188.837 206.734 189.084 207.089 189.396 207.323C189.716 207.548 190.08 207.661 190.488 207.661ZM201.185 209.13C200.465 209.13 199.815 208.948 199.235 208.584C198.663 208.22 198.212 207.691 197.883 206.998C197.553 206.296 197.389 205.447 197.389 204.45C197.389 203.453 197.553 202.608 197.883 201.915C198.212 201.213 198.663 200.68 199.235 200.316C199.815 199.952 200.465 199.77 201.185 199.77C201.913 199.77 202.563 199.952 203.135 200.316C203.707 200.68 204.157 201.213 204.487 201.915C204.825 202.608 204.994 203.453 204.994 204.45C204.994 205.447 204.825 206.296 204.487 206.998C204.157 207.691 203.707 208.22 203.135 208.584C202.563 208.948 201.913 209.13 201.185 209.13ZM201.185 207.661C201.609 207.661 201.978 207.548 202.29 207.323C202.602 207.089 202.844 206.734 203.018 206.257C203.2 205.78 203.291 205.178 203.291 204.45C203.291 203.713 203.2 203.111 203.018 202.643C202.844 202.166 202.602 201.815 202.29 201.59C201.978 201.356 201.609 201.239 201.185 201.239C200.777 201.239 200.413 201.356 200.093 201.59C199.781 201.815 199.534 202.166 199.352 202.643C199.178 203.111 199.092 203.713 199.092 204.45C199.092 205.178 199.178 205.78 199.352 206.257C199.534 206.734 199.781 207.089 200.093 207.323C200.413 207.548 200.777 207.661 201.185 207.661Z" fill="#E6F614"/>
<defs>
<clipPath id="clip0_1117_285">
<rect width="26.2261" height="26" fill="white" transform="translate(91.5508 142)"/>
</clipPath>
<clipPath id="clip1_1117_285">
<rect width="26.2261" height="26" fill="white" transform="translate(119.284 142)"/>
</clipPath>
<clipPath id="clip2_1117_285">
<rect width="26.2261" height="26" fill="white" transform="translate(147.017 142)"/>
</clipPath>
<clipPath id="clip3_1117_285">
<rect width="26.2261" height="26" fill="white" transform="translate(174.751 142)"/>
</clipPath>
<clipPath id="clip4_1117_285">
<rect width="26.2261" height="26" fill="white" transform="translate(202.484 142)"/>
</clipPath>
</defs>
</svg>
