<svg width="311" height="311" viewBox="0 0 311 311" fill="none" xmlns="http://www.w3.org/2000/svg">
<rect width="311" height="311" fill="#F26522"/>
<mask id="mask0_418_64" style="mask-type:luminance" maskUnits="userSpaceOnUse" x="-1" y="0" width="534" height="311">
<path d="M532.74 311L532.74 0L-6.10352e-05 -2.32868e-05L-7.46294e-05 311L532.74 311Z" fill="white"/>
</mask>
<g mask="url(#mask0_418_64)">
<path d="M438.854 1062.15C423.803 1062.15 421.293 1060.53 415.062 1051.13C412.248 1046.81 409.211 1042.64 405.965 1038.64C397.288 1027.92 387.23 1023.35 378.382 1026.01C367.002 1029.47 359.086 1044.22 365.58 1058.77L366.874 1061.7L313.594 1061.7L313.594 1059.46C313.323 1030.6 307.541 1024.92 293.558 1011.22C284.672 1002.74 276.389 993.653 268.77 984.021C236.707 943.351 184.891 905.469 161.327 894.841C135.452 883.153 95.963 892.949 41.317 906.522C-41.5307 927.081 -154.991 955.231 -311.148 934.131C-437.147 917.058 -501.694 889.363 -544.441 871.017C-583.61 854.185 -601.491 846.509 -630.844 861.854C-633.938 863.476 -639.002 866.677 -643.903 869.779C-650.027 873.663 -656.357 877.668 -660.127 879.425C-669.245 883.694 -678.833 884.725 -687.154 882.427C-695.761 880.037 -702.091 874.367 -704.637 866.876C-713.343 840.86 -681.486 829.172 -641.15 814.297L-632.167 810.982C-595.338 797.295 -555.671 814.674 -500.762 838.726C-395.866 884.682 -237.34 954.114 51.5091 867.957L52.8677 867.552C139.193 841.814 201.564 823.204 308.21 955.623L310.614 958.603C327.051 979.027 332.584 985.907 342.62 991.427C348.645 994.728 355.423 994.706 360.715 991.384C374.606 982.684 374.278 955.879 340.714 917.591C302.086 873.485 267.76 850.55 242.695 833.768C205.987 809.204 185.795 795.673 192.296 747.924C194.935 728.638 181.819 721.602 169.123 714.752C167.117 713.67 165.147 712.618 163.291 711.529C59.5037 651.025 50.4351 568.404 87.4918 513.37C110.963 478.469 153.568 473.326 194.743 468.353C225.099 464.69 256.494 460.898 281.715 445.532C300.016 434.391 300.919 427.334 299.81 424.119C298.295 419.68 291.701 417.894 287.903 417.226C277.298 415.362 258.855 419.708 237.482 424.731C197.616 434.114 148.005 445.781 110.878 426.993C76.7943 409.749 60.3785 370.402 60.6915 306.711C60.8551 274.961 51.9501 258.535 42.5331 241.148C34.4105 226.145 26.0106 210.637 23.1656 184.6C15.3417 113.041 21.6078 53.7459 77.4772 -3.03751C88.8573 -14.5763 103.73 -20.2959 118.346 -18.6882C129.243 -17.5073 138.048 -12.1291 141.313 -4.65237C146.171 6.49518 138.667 19.5706 120.722 31.2375C78.5441 58.6332 80.379 90.0484 84.035 152.644C84.4759 160.106 84.9383 167.996 85.3436 176.333C86.7662 205.408 98.1463 223.712 107.329 238.417L108.694 240.601C120.565 259.737 121.291 286.301 121.988 311.996C122.87 344.165 123.709 374.549 145.203 388.172C154.45 394.006 166.911 396.375 183.327 395.443C200.155 394.475 255.676 389.631 263.699 367.919C268.607 354.637 272.526 338.346 276.665 321.102C288.045 273.688 302.271 214.67 347.941 166.082C362.685 150.432 367.856 142.272 377.216 127.51C391.249 105.386 414.742 68.358 492.767 -30.419C515.84 -59.5933 546.887 -70.4278 592.727 -79.2704C772.569 -113.958 770.677 -134.759 769.831 -137.028C768.572 -140.543 760.222 -142.193 754.148 -141.24C736.366 -138.394 721.707 -134.475 704.744 -129.922C683.406 -124.181 659.145 -117.679 621.576 -111.425C607.77 -109.142 595.38 -107.157 584.213 -105.35C483.926 -89.23 483.926 -89.2299 449.003 -33.8764C438.021 -16.4686 422.985 7.38444 400.332 38.7213C353.716 103.231 348.14 122.154 345.465 131.245C343.787 136.936 343.026 139.519 335.173 146.184C329.682 150.837 321.923 152.715 314.419 151.207C305.493 149.393 298.935 143.061 297.313 134.731C293.693 115.872 324.569 71.8652 360.331 20.908C381.818 -9.6819 404.045 -41.3816 420.339 -69.9299C446.599 -115.886 493.535 -122.794 558.495 -132.319L563.942 -133.123C652.544 -146.198 688.626 -157.261 712.503 -164.581C731.217 -170.315 742.511 -173.779 765.044 -174.256C778.664 -174.54 781.026 -175.558 799.362 -183.504C809.704 -187.971 825.323 -194.723 850.672 -204.625C881.335 -216.605 897.402 -236.496 899.799 -265.442L899.97 -267.576L954.566 -267.576L953.983 -264.98C945.263 -225.853 914.999 -179.292 856.213 -165.797C815.6 -156.485 812.592 -147.066 812.641 -144.406C812.705 -140.358 818.46 -136.744 828.026 -134.716C830.992 -134.09 834.214 -133.55 837.592 -132.988C855.594 -129.986 877.999 -126.251 892.886 -105.578C910.966 -80.4656 914.672 -40.0798 882.217 -6.48062C848.482 28.3777 803.729 38.4154 729.63 55.0763C722.774 56.6129 715.661 58.2159 708.293 59.8853C653.761 72.292 616.853 109.597 587.201 139.561C566.71 160.291 550.521 176.661 534.24 178.155C528.701 178.668 523.144 177.381 518.394 174.484C500.747 163.984 516.971 149.777 525.649 142.144C547.527 122.936 564.163 107.677 577.535 95.3981C635.445 42.2072 635.445 42.2072 746.765 11.3327L762.412 6.99316C822.407 -9.68188 861.341 -28.9037 856.498 -68.564C854.236 -86.9393 839.598 -92.7869 809.035 -100.925C799.604 -103.444 795.173 -101.637 780.471 -95.6183C756.85 -85.9646 712.902 -68.002 594.121 -46.2476C549.312 -38.0452 536.26 -20.3599 523.614 -3.24379L520.904 0.370073C497.49 31.5149 480.939 52.5793 468.847 67.9525C449.302 92.8513 439.494 105.301 426.03 127.574C409.799 154.408 396.953 170.806 385.609 185.268C374.997 198.821 365.829 210.523 356.838 227.241C335.913 266.197 334.341 293.685 332.954 317.943C332.008 334.49 331.119 350.12 324.113 366.852C322.065 371.746 320.18 376.527 319.725 381.243C319.106 387.539 322.079 392.028 328.324 394.205C338.054 397.598 354.121 394.874 365.701 387.845C372.692 383.577 387.92 371.547 378.375 351.329C353.197 297.975 387.885 234.91 403.981 210.26C404.557 209.378 466.465 116.726 466.948 116.149L481.671 98.4429C548.487 18.0553 570.991 -9.04875 634.706 -25.3397C728.336 -49.3492 756.843 -57.6227 779.077 -70.1575C792.371 -77.6485 802.869 -75.6779 807.947 -73.8354C817.414 -70.4065 823.261 -62.2254 822.506 -53.4682C821.618 -43.2526 812.385 -35.1071 797.179 -31.1446C759.944 -21.4412 730.32 -14.185 706.5 -8.38004C606.768 16.0421 606.768 16.0421 557.072 72.0075C547.42 82.8776 535.407 96.4011 520.527 112.486C502.547 131.907 492.731 148.482 483.236 164.51C477.304 174.519 471.707 183.981 464.366 193.791C406.164 271.582 410.674 326.822 427.9 344.919C431.4 348.583 437.431 352.852 446.059 352.339C508.535 348.498 623.71 290.448 699.914 252.033C732.241 235.735 757.775 222.866 770.748 218.363C809.476 204.939 843.204 199.66 872.963 195.007C911.947 188.911 945.611 183.625 981.75 162.881C1053.12 121.862 1085.7 96.3585 1130.8 61.0591C1148.55 47.1656 1168.66 31.4225 1193.85 12.6203C1208.6 1.60796 1206.48 -4.78038 1192.71 -46.3542C1187.39 -62.4317 1180.09 -84.4565 1171.6 -113.801C1154.76 -171.965 1198.85 -222.645 1231.05 -259.587L1237.97 -267.576L1239.78 -267.576C1341.33 -267.576 1427.21 -267.648 1495.71 -267.712C1557.66 -267.768 1605.4 -267.811 1637.64 -267.768C1667.33 -267.768 1680.12 -267.719 1685.64 -267.235C1685.73 -267.235 1685.8 -267.235 1685.85 -267.235L1685.85 -267.199C1689.82 -266.829 1689.82 -266.196 1689.84 -265.108C1689.87 -264.019 1689.84 -263.493 1685.96 -263.038L1685.92 -262.91C1685.75 -262.91 1685.51 -262.91 1685.21 -262.952C1678.09 -262.241 1660.11 -261.949 1614.88 -261.174C1566.28 -260.349 1492.33 -259.203 1390.97 -257.617L1362.52 -257.176C1352.6 -257.026 1343.92 -256.991 1336.27 -256.962C1294.31 -256.806 1285.53 -256.77 1272.97 -239.064C1218.66 -162.439 1222.28 -147.856 1242.38 -66.9064C1245.52 -54.2649 1249.06 -40.0228 1252.83 -23.6963C1256.39 -8.46537 1264.33 -2.91652 1408.3 12.4425C1416.17 13.2819 1423.9 14.0289 1431.37 13.8226C1443.51 13.5167 1449.69 7.60501 1449.53 1.91388C1449.33 -5.20008 1439.37 -12.314 1417.52 -12.314L1416.88 -12.314C1366.06 -12.314 1304.34 -30.1771 1288.48 -69.5101C1276.82 -98.4211 1272.49 -143.758 1289.12 -179.869C1314.21 -234.383 1375.18 -236.197 1601.99 -242.948L1636.68 -243.987C1662.18 -244.755 1709.65 -246.185 1712.63 -265.471L1712.94 -267.484L1747.02 -267.484L1745.95 -264.638C1745.28 -262.86 1744.67 -261.081 1744.06 -259.303C1739.85 -246.889 1735.53 -234.063 1710.07 -227.077C1681.02 -219.102 1635.43 -218.028 1587.16 -216.89C1558.55 -216.214 1528.98 -215.524 1502.64 -213.333C1490.06 -212.265 1478.36 -211.348 1467.47 -210.487C1386.64 -204.17 1353.18 -201.559 1340.57 -168.835C1330.44 -142.982 1328.35 -114.667 1334.6 -87.6079C1341.12 -58.7467 1370.07 -52.2659 1413.89 -42.4487L1419.03 -41.2962C1437.94 -37.0279 1449.28 -40.7911 1451.8 -46.0839C1454.32 -51.3767 1448.59 -58.9957 1430.19 -63.4703C1428.64 -63.8474 1426.79 -64.1818 1424.73 -64.6299C1410.35 -67.4755 1386.27 -72.3059 1376.15 -94.3022C1363.72 -121.335 1370.1 -166.644 1423.26 -182.842C1462.43 -194.772 1513.38 -197.155 1572.37 -199.916C1617.71 -202.05 1664.58 -204.248 1712.61 -211.035C1724.54 -212.736 1736.69 -210.447 1747.19 -204.526C1762.27 -196.081 1772.35 -181.206 1772.86 -166.615C1773.63 -143.979 1759.09 -108.765 1724.3 -101.359L1721.91 -100.854C1700.4 -96.23 1699.99 -96.1518 1555 -100.143C1534.11 -100.719 1527.44 -106.318 1525.31 -109.604C1523.07 -113.09 1523.94 -117.074 1527.64 -120.275C1532.32 -124.309 1542.58 -127.816 1557.36 -125.518C1590.48 -120.368 1622.93 -121.25 1687.57 -122.993L1692.03 -123.114C1714.03 -123.704 1725.79 -132.817 1731.78 -140.358C1740.68 -151.569 1742.16 -166.48 1735.24 -175.045C1725.99 -186.428 1712.67 -184.813 1697.19 -182.97C1694.98 -182.707 1692.76 -182.444 1690.55 -182.216C1653.39 -178.439 1617.29 -177.08 1582.34 -175.757C1500.41 -172.669 1435.7 -170.236 1422.62 -137.583C1414.09 -116.242 1418.99 -98.5634 1435.76 -90.3682C1445.27 -85.7228 1455.31 -85.8579 1460.3 -88.3905C1464.2 -90.3753 1465.28 -93.7188 1463.41 -98.0725C1462.73 -99.5848 1461.97 -101.062 1461.15 -102.497C1460.05 -104.395 1459.1 -106.373 1458.3 -108.416C1452.23 -124.949 1459.84 -138.508 1480.29 -147.607C1511.59 -161.557 1543.69 -161.244 1580.85 -160.931C1592.55 -160.825 1604.65 -160.718 1617.35 -161.059C1664.47 -162.304 1684.73 -166.203 1695.59 -168.308C1705.14 -170.144 1708.7 -170.827 1715.4 -165.541C1720.83 -161.273 1722.16 -155.212 1718.85 -149.798C1715.02 -143.523 1706.22 -139.618 1695.32 -139.333C1658.18 -138.38 1643.63 -137.768 1634.93 -137.405C1627.6 -137.1 1623.92 -136.943 1614.44 -136.872C1595.85 -136.715 1581.99 -137.135 1570.86 -137.462C1548.45 -138.124 1537.2 -138.458 1518.94 -133.557C1505.86 -130.035 1498.61 -122.886 1499.03 -113.873C1499.48 -104.511 1508.37 -96.0878 1520.65 -93.4769C1559.88 -85.0113 1619.62 -82.6851 1651.74 -82.0946C1663.29 -81.867 1673.72 -81.6038 1683.15 -81.3832C1752.74 -79.6688 1765.27 -79.3558 1773.48 -100.719C1775.99 -107.257 1777.98 -113.638 1779.88 -119.806C1784.66 -135.108 1789.18 -149.556 1800.3 -161.102C1810.7 -171.915 1826.07 -176.632 1841.37 -173.765C1858.57 -170.528 1877.96 -156.805 1880.83 -127.994C1882.16 -114.627 1879.25 -102.448 1876.17 -89.5785C1872.87 -75.7205 1869.44 -61.4002 1871.57 -45.0808C1877.37 -0.576004 1864.15 23.647 1831.15 28.9682C1810.17 32.3544 1790.06 22.7221 1766.77 11.5675C1729.79 -6.16756 1566.43 -26.2787 1521.93 -29.9424C1489.17 -32.6385 1481.79 -32.5745 1478.25 -25.674C1477.19 -23.6038 1477.88 -21.0997 1480.15 -18.7877C1484.01 -14.875 1491.53 -12.4705 1500.2 -12.3852C1505.24 -12.3282 1510.62 -12.3852 1516.33 -12.4563C1537.76 -12.7124 1564.43 -13.0325 1594.52 -6.76513C1669.06 8.69346 1722.89 19.8623 1778.36 49.2073C1786.18 53.3405 1793.02 57.0327 1799.09 60.298C1837.31 80.8573 1842.69 83.2262 1855.99 76.6245C1904.62 52.4371 1911.77 22.2598 1907.67 -21.6261C1901.59 -86.7614 1906.87 -115.153 1909.7 -130.405C1912.91 -147.642 1913.26 -149.442 1892.1 -171.481C1880.68 -183.397 1880.87 -190.988 1881.21 -204.774C1881.29 -208.331 1881.39 -212.315 1881.31 -216.946C1881.21 -222.502 1877.18 -226.906 1870.81 -228.329C1867.72 -229.031 1864.51 -228.979 1861.44 -228.177C1858.38 -227.374 1855.55 -225.845 1853.2 -223.719C1850.84 -221.585 1848.45 -219.059 1845.95 -216.477C1835.83 -205.984 1824.36 -194.096 1807.61 -193.371C1796.31 -192.937 1784.79 -197.54 1772.24 -207.599C1749.85 -225.569 1755.56 -239.113 1763.49 -257.866C1764.57 -260.434 1765.7 -263.102 1766.8 -265.905L1767.46 -267.562L1803.49 -267.562L1800.15 -260.775C1794.79 -250.105 1788.13 -236.766 1793.28 -230.05C1794.84 -228.03 1797.45 -226.721 1801.29 -226.045C1809.74 -224.537 1814.68 -230.1 1822.01 -239.27C1829.99 -249.229 1839.92 -261.665 1861.02 -262.312C1873.06 -262.71 1881.1 -259.573 1888.24 -256.834C1897.97 -253.099 1906.36 -249.87 1923.63 -255.504C1946.87 -263.08 2000.63 -260.157 2052.63 -257.332C2087.92 -255.412 2121.27 -253.605 2142.52 -255.198C2188.51 -258.599 2246.66 -258.15 2315.36 -253.868C2357.37 -251.243 2384.74 -251.534 2434.45 -252.089C2461.25 -252.374 2494.61 -252.744 2540.43 -252.801L2540.58 -252.801C2580.34 -252.801 2616.29 -240.23 2644.55 -216.448C2694.84 -174.128 2709.58 -108.096 2698.15 -64.7437C2696.88 -59.9489 2695.61 -55.3391 2694.37 -50.8786C2685.19 -17.7348 2678.56 6.21785 2697.43 32.0841C2704.4 41.6168 2706.18 49.6626 2702.75 56.0154C2700 61.0947 2694.06 64.9149 2685.1 67.3977C2673.98 70.4425 2664.89 70.5563 2657.36 67.7534C2642.72 62.3255 2637.72 46.9523 2632.88 32.013C2631.81 28.6979 2630.75 25.3899 2629.56 22.2171C2620.85 -1.37987 2626.32 -24.1302 2632.11 -48.2109C2641.89 -88.8813 2652.02 -130.939 2599.34 -186.221C2578.19 -208.438 2551.16 -208.175 2525.08 -207.954L2522.85 -207.954C2344.37 -206.432 2294.87 -210.437 2262.09 -213.091C2235.27 -215.268 2220.49 -216.463 2154.91 -212.884C2112.67 -210.551 2066.71 -215.246 2026.08 -219.372C1980.06 -224.053 1940.31 -228.094 1925.41 -219.621C1921.52 -217.423 1919.45 -214.385 1919.08 -210.373C1918.12 -200.086 1924.83 -187.986 1934.05 -183.39C1938.14 -181.304 1942.89 -180.903 1947.27 -182.273C1950.52 -183.241 1953.67 -184.237 1956.69 -185.211C1970.56 -189.65 1983.72 -193.833 2002.02 -192.859C2048.25 -190.39 2069.9 -179.435 2085.7 -171.439C2101.35 -163.528 2109.17 -159.544 2129.8 -168.415C2184.99 -192.076 2249.72 -181.277 2299.88 -169.198C2333.17 -161.194 2373.25 -163.023 2411.99 -164.801C2482.21 -168.003 2554.83 -171.332 2577.33 -111.745C2585.87 -89.116 2581.21 -65.7752 2575.32 -36.2239C2573.39 -26.5632 2571.4 -16.5752 2569.63 -5.53438C2563.74 30.9245 2599.1 68.8632 2637.07 87.5017C2662.75 100.093 2688.28 103.565 2707.11 96.9704C2729.6 89.145 2742.38 67.5898 2744.09 34.7305L2744.93 17.7851C2746.81 -19.5488 2746.81 -19.5488 2749.9 -35.3489C2751.73 -44.661 2754.46 -58.7324 2759.23 -88.5683C2769.57 -153.255 2736.6 -192.112 2710.12 -223.335C2697.46 -238.274 2686.52 -251.15 2681.53 -264.738L2680.5 -267.583L2753.97 -267.583L2754.34 -265.627C2755.8 -258.015 2763.39 -248.611 2772.19 -237.719C2777.88 -230.641 2783.82 -223.32 2789 -215.367C2820.65 -166.807 2815.5 -115.338 2809.52 -55.7303C2806.76 -28.2065 2803.91 0.256343 2804.03 31.8422C2804.24 85.7446 2772.98 125.184 2720.44 137.335C2666.45 149.813 2603.62 129.659 2556.44 84.7344C2508.08 38.6716 2516.84 -6.28136 2523.87 -42.3917C2528.43 -65.7325 2532.35 -85.8863 2521.7 -102.376C2506.66 -125.682 2463.29 -123.163 2413.06 -120.24C2374.57 -118.006 2330.96 -115.466 2293.1 -124.508C2287.06 -125.931 2281.17 -127.446 2275.37 -128.919C2236.91 -138.693 2203.68 -147.13 2155.94 -133.315C2136.97 -127.823 2128.13 -121.933 2129.17 -103.095C2131.37 -63.4632 2153.25 -41.346 2176.42 -17.9198C2188.43 -5.78339 2200.84 6.76559 2211.52 22.4305C2215.73 28.5983 2223.67 32.8168 2235.1 34.9652C2266.45 40.8627 2282.05 33.0587 2298.57 24.7852C2301.6 23.277 2304.63 21.7547 2307.77 20.3177C2333.95 8.30222 2359.37 7.9892 2379.79 7.74021C2407.8 7.39875 2424.7 7.19245 2428.69 -19.2927C2429.8 -26.6699 2427.17 -32.859 2421.3 -36.7148C2415.61 -40.4567 2407.33 -41.8155 2397.4 -40.6061C2385.06 -39.1122 2372.22 -36.103 2358.61 -32.9159C2316.61 -23.0632 2268.99 -11.8943 2221.69 -44.2485C2215.03 -48.7943 2209.39 -52.6144 2204.62 -55.8584C2185.24 -68.9623 2179.4 -72.9319 2174.91 -79.0783C2165.74 -91.6344 2174.2 -104.852 2186.79 -110.913C2197.42 -116.021 2215.15 -117.807 2230.17 -106.033C2233.89 -102.96 2237.4 -99.6502 2240.69 -96.1233C2247.97 -88.6821 2256.22 -80.2379 2269.63 -73.003C2295.78 -58.8889 2318.7 -64.9998 2350.36 -73.4369L2356.64 -75.1087C2413.97 -90.2258 2451.37 -85.6729 2471.01 -61.1867C2493.25 -33.4424 2482.52 -14.9888 2472.15 2.8387C2459.35 24.7781 2447.33 45.5223 2495.08 84.1155C2562.67 138.822 2607.75 168.174 2666.3 176.782C2701.57 181.961 2751.47 186.279 2785.79 182.857C2803.31 181.107 2813.53 173.388 2818.84 157.837C2834.69 111.689 2849.73 60.9667 2852.45 3.19442C2853.95 -28.612 2855.97 -52.6784 2857.6 -72.007C2862.74 -133.037 2864.67 -155.873 2837.37 -264.937L2836.71 -267.576L2899.7 -267.576L2899.94 -264.581C2908.74 -151.512 2924.26 117.508 2878.27 173.509C2863.04 192.048 2869.52 200.613 2879.34 213.582C2886.41 222.923 2895.21 234.554 2897.22 253C2898.64 266.175 2900.78 298.572 2902.8 329.909C2904.14 350.54 2905.41 370.103 2906.35 381.763C2907.78 399.548 2911.76 410.218 2914.67 418.044C2916.15 422.02 2917.33 425.158 2917.79 428.174C2919.58 439.926 2913.52 450.227 2901.67 455.762C2892.14 460.194 2880.48 460.742 2871.21 457.106C2864.72 454.581 2853.92 447.858 2854.55 430.977C2854.89 422.12 2842.85 286.77 2834.91 260.442C2822.54 219.387 2808.11 221.158 2776.51 225.085C2762.93 226.757 2746.04 228.87 2725.73 227.717C2599.17 220.603 2546.28 187.637 2437.92 102.078C2421.42 89.0454 2415.88 76.0767 2411.37 65.6619C2405.91 52.9351 2402.62 45.2591 2384.06 44.4268C2365.86 43.6158 2341.04 47.1514 2329.46 56.8691C2324.02 61.4362 2322.35 66.8286 2324.52 72.9537C2337.06 108.338 2341.47 109.633 2360.08 115.104C2372.03 118.618 2390.09 123.925 2418.79 140.429C2455.87 161.771 2470.71 171.496 2489.46 183.824C2501.37 191.65 2514.88 200.549 2536.73 214.13C2596.74 251.435 2646.73 260.669 2686.89 268.089C2742.29 278.319 2778.88 285.077 2794.51 355.107C2796.11 362.278 2797.92 369.42 2799.74 376.57C2804.71 396.36 2809.94 416.813 2810.37 437.493C2810.65 451.365 2824.66 458.97 2842.37 468.595C2868.91 483.001 2901.94 500.928 2905.4 548.606C2906.36 561.781 2910.76 571.15 2914.3 578.676C2919.35 589.411 2923 597.173 2909.09 604.856C2899.34 610.248 2884.76 611.628 2872.82 608.285C2861.34 605.069 2854.01 598.325 2852.19 589.248C2850.82 582.518 2849.65 576.386 2848.58 570.752C2842.74 540.162 2839.81 524.76 2823.32 511.265C2806.83 497.77 2793.92 487.789 2778.67 482.809C2771.71 480.547 2764.58 481.073 2759.6 484.232C2754.61 487.39 2753.02 492.356 2755.42 497.193C2761.19 508.818 2767 516.529 2773.71 525.457C2782.39 536.989 2792.2 550.057 2804.13 574.913C2818.44 604.792 2839.05 615.797 2858.98 626.447C2890.27 643.164 2917.3 657.606 2906.57 737.616C2904.98 749.518 2906.33 775.704 2908.05 808.862C2910.39 853.993 2913.59 915.806 2911.5 980.529C2909.66 1037.9 2902.41 1049.42 2898.93 1054.96C2897.76 1056.82 2897.41 1057.38 2897.78 1059.09L2898.36 1061.68L2838.14 1061.68L2839.61 1058.7C2840.95 1055.97 2842.35 1053.26 2843.73 1050.55C2846.71 1044.75 2849.79 1038.76 2852.27 1032.77C2875.26 977.754 2854.4 809.517 2846.76 769.259C2844.46 757.165 2846.8 744.922 2849.27 731.975C2854.7 703.519 2860.32 674.167 2812.92 646.366C2773.42 623.188 2760.5 601.548 2745.54 576.464C2737.78 563.446 2728.97 548.72 2715.42 531.973C2705.58 519.88 2702.66 510.753 2700.09 502.728C2696.91 492.769 2694.4 484.943 2679.62 474.713C2658.43 460.023 2653.14 445.987 2648.04 432.421C2640.21 411.691 2632.85 392.113 2572.07 368.659C2492.01 337.77 2436.01 297.157 2395.13 267.484C2357.99 240.544 2331.19 221.201 2306.66 221.813C2295.21 222.154 2284.13 227.07 2272.79 236.837C2243.58 261.999 2240.93 273.261 2246.23 286.365C2256.95 312.829 2275.67 333.694 2303.44 350.155C2371.34 390.392 2415.44 414.48 2444.68 430.394C2510.55 466.333 2510.55 466.333 2558.33 525.969L2559.75 527.741C2566.86 536.619 2574.02 545.63 2581.23 554.774C2638.41 627.044 2697.53 701.783 2777.7 750.037C2811.41 770.326 2813.65 790.131 2820.32 848.921C2822.03 864.038 2823.97 881.175 2826.82 901.72C2838.29 984.541 2836.61 1035.53 2716.91 1045.25C2687.95 1047.59 2626.17 1049.93 2578.34 1043.79C2542.78 1039.22 2526.02 1026.98 2505.79 1004.55C2482.63 978.871 2412.13 900.739 2344.59 869.459C2224.38 813.771 2104.65 802.829 2025.44 795.587C2008.99 794.086 1994.79 792.785 1982.51 791.269C1952.11 787.513 1928.61 783.871 1909.74 780.947C1876.62 775.811 1856.63 772.716 1834.45 774.231C1819.76 775.242 1809.25 780.164 1806.34 787.399C1804.14 792.891 1807.05 798.554 1813.89 802.196C1838.59 815.272 1965.61 821.66 2033.84 825.089C2048.57 825.8 2061.21 826.462 2070.57 827.031C2144.92 831.577 2220.28 848.48 2307.7 880.215C2355.55 897.594 2363.95 904.637 2395.19 930.859L2400.32 935.17C2423 954.164 2497.24 1019.24 2500.74 1059.24L2500.95 1061.63L2497.54 1061.63C2489.85 1061.63 2483.74 1061.7 2478.88 1061.76C2459.82 1061.99 2456.92 1062.03 2455.5 1054.34C2454.54 1049.14 2452.75 1039.48 2434.55 1020.64L2431.4 1017.37C2405 989.99 2350.06 933.022 2311.98 917.442C2167.21 858.211 2071.63 856.902 1939.34 855.103C1924.85 854.903 1909.89 854.697 1894.35 854.391C1833.07 853.274 1809.56 844.695 1794.01 839.025C1780.87 834.223 1774.27 831.812 1753.93 837.538C1739.7 841.543 1575.84 868.271 1486.58 875C1377.85 883.203 1326.84 884.96 1289.56 886.248C1248.36 887.67 1223.49 888.531 1154.56 897.068C1118.41 901.557 1054.7 896.356 1037.14 877.967C1030.02 870.497 1030.81 861.811 1039.53 852.15C1053 837.254 1072.68 842.902 1088.32 849.547C1109.95 858.688 1132.27 858.041 1158.16 857.287C1191.32 856.326 1216.69 855.643 1236.81 855.103C1295.29 853.538 1309.19 853.175 1341.37 850.422C1356.31 849.141 1371.68 847.839 1387.37 846.516C1539.53 833.711 1728.91 817.698 1756.36 797.266C1761.29 793.603 1763.01 789.078 1761.08 784.867C1758.42 779.076 1749.18 774.701 1735.74 772.866C1721.76 770.952 1710.01 774.459 1693.74 779.311C1685.14 781.872 1675.38 784.788 1663.55 787.392C1636.19 793.418 1591.62 796.178 1548.52 798.846C1523.54 800.389 1499.93 801.848 1480.24 803.875C1451.12 806.884 1422.63 810.726 1395.13 814.432C1341.17 821.71 1290.17 828.582 1240.35 828.582L1239.02 828.582C1209.77 828.511 1190.81 827.764 1175.58 827.159C1155.82 826.391 1143.9 825.921 1126.5 827.764C1109.47 829.585 1095.25 825.63 1088.43 817.214C1082.42 809.801 1083.62 800.34 1091.43 793.681C1096.8 789.1 1113.29 779.368 1150.46 788.032C1210.53 802.033 1270.58 792.379 1346.62 780.136C1399.96 771.542 1460.51 761.803 1532.51 758.794C1560.8 757.606 1580.4 757.507 1596.14 757.435C1621.61 757.307 1635.64 757.243 1657.74 752.569C1677.42 748.408 1689.17 741.991 1689.97 734.955C1690.51 730.282 1686.02 725.608 1678.53 723.047C1651.28 713.735 1469.89 721.012 1392.35 737.374C1259.35 765.46 1191.64 777.013 1166.41 766.577C1159.95 763.902 1155.96 759.861 1154.22 754.22C1153.01 750.321 1154.05 746.658 1157.3 743.328C1166.7 733.696 1191.64 730.232 1199.06 729.399C1285.74 719.703 1323.6 709.246 1354.02 700.851C1400.4 688.046 1433.9 678.798 1594.9 680.391C1629.64 680.733 1652.13 682.576 1668.56 683.948C1694.16 686.047 1703.73 686.794 1721.8 679.061C1795.33 647.454 1839.71 628.374 1942.96 653.778C2008.67 669.941 2059.94 681.871 2101.14 691.482C2246.7 725.337 2272.93 731.441 2394.61 798.824C2443.37 825.857 2477.41 856.931 2507.44 884.377C2554.54 927.409 2591.72 961.456 2661.01 957.038C2690.24 955.196 2708.47 945.222 2720.54 938.613C2723.99 936.728 2726.94 935.056 2729.6 933.989C2738.04 930.432 2746.89 930.567 2753.89 934.331C2762.78 939.118 2766.54 948.438 2763.06 957.003C2758.32 968.598 2724.68 982.392 2688.08 987.756C2660.39 991.811 2590.45 996.549 2539.22 953.083C2525.49 941.445 2512.37 929.507 2499.68 917.961C2426.25 851.14 2350.32 782.035 2118.95 737.822C1969.94 709.367 1950.85 704.92 1935.51 701.363C1928.99 699.848 1922.83 698.418 1907.66 695.359C1845.35 682.803 1771.38 698.205 1749.76 713.855C1743.5 718.408 1741.23 723.765 1743.5 728.546C1746.79 735.439 1758.94 740.398 1777.74 742.496C1787.7 743.62 1796.95 740.824 1807.56 737.58C1823.16 732.843 1842.57 726.91 1872.29 731.178C1895.32 734.436 1907.35 736.869 1921.26 739.715C1947.11 745.015 1979.28 751.602 2098.45 767.459C2354.11 801.485 2443.29 891.675 2502.29 951.361C2533.38 982.805 2555.84 1005.52 2589.63 1009.43C2630.1 1014.09 2661.78 1016.5 2730.72 1007.63C2789.04 1000.13 2790.87 960.674 2786.75 937.852C2780.25 901.663 2776.02 874.979 2772.61 853.531C2761.85 785.735 2761.85 785.735 2732.24 763.895C2715.4 751.481 2689.97 732.722 2648.57 692.371C2579.92 625.451 2548.28 583.002 2525.2 551.999C2500.82 519.275 2486.08 499.52 2446.78 477.851C2377.08 439.435 2337.33 418.094 2313.57 405.288C2282.15 388.4 2274.69 384.381 2257.38 373.169C2218.66 348.085 2210.3 327.014 2204.19 311.626C2201.73 305.423 2199.61 300.073 2196.04 295.648C2194.45 293.636 2192.4 292.041 2190.06 290.999C2187.71 289.956 2185.15 289.499 2182.6 289.666C2175.03 290.156 2167.96 295.677 2163.68 304.427C2137.37 358.258 2224.05 401.176 2355.22 466.127C2365.65 471.306 2376.38 476.629 2387.4 482.098C2447.14 511.869 2469.82 538.646 2501.2 575.71C2512.03 588.515 2524.31 603.006 2539.52 619.276C2632.9 719.127 2675.51 751.595 2698.39 769.01C2714.6 781.345 2721.3 786.453 2728.8 802.445C2730.71 806.522 2732.46 810.015 2733.99 813.116C2739.74 824.655 2742.91 831.015 2741.16 840.484C2739.88 847.398 2730 853.609 2719.11 854.334C2708.67 855.046 2700.14 850.557 2696.29 842.376C2695.19 840.043 2694.63 837.055 2693.99 833.583C2691.72 821.575 2688.29 803.406 2659.77 781.651C2639.43 766.15 2626.52 754.938 2555.37 688.103C2514.51 649.666 2490.84 622.762 2471.84 601.128C2427.75 550.953 2409.49 530.181 2254.49 460.599C2149.62 413.526 2072.98 370.964 2117.93 288.371C2125.75 273.958 2123.62 265.457 2121.17 255.647C2119.81 250.761 2118.9 245.76 2118.46 240.707C2115.33 196.082 2172.19 150.695 2226.25 127.397C2232.78 124.551 2238.97 122.31 2244.43 120.283C2265.35 112.593 2275.84 108.737 2269.43 90.2121C2263.61 73.3663 2250.72 66.9993 2224.92 68.3438C2209.6 69.1264 2203.64 74.3267 2178.6 96.202C2170.26 103.48 2159.89 112.564 2146.46 123.776C2142.06 127.454 2137.21 131.16 2132.1 135.087C2111.31 151.008 2087.76 169.063 2079.54 195.719C2073.1 216.634 2071.5 234.725 2070.08 250.681C2069.32 259.218 2068.61 267.285 2067.24 274.975C2064.61 289.737 2061.96 302.72 2059.63 314.102C2041.81 401.29 2041.81 401.29 2204.25 474.407C2235.73 488.578 2271.4 504.635 2314.54 524.682C2386.77 558.252 2412.37 584.083 2458.83 630.964C2498 670.489 2551.63 724.612 2660.86 810.577C2668.55 816.623 2671.14 823.51 2667.97 829.464C2665.3 834.444 2658.92 838.001 2651.34 838.712C2647.19 839.111 2643 838.592 2639.08 837.192C2635.16 835.791 2631.59 833.544 2628.63 830.609C2608.44 810.434 2570.3 777.44 2529.88 742.503C2485.67 704.28 2439.95 664.748 2419.63 643.285C2360.32 580.633 2262.62 541.905 2176.43 507.729C2115.17 483.449 2057.32 460.514 2018.1 431.724C1972.67 398.359 1980.22 367.079 1993.91 310.282C1999.89 285.525 2007.32 254.715 2011.99 216.556C2018.39 164.019 2048.26 139.974 2107.68 92.0617C2118.08 83.6815 2129.42 74.5401 2141.76 64.3529L2143.9 62.5958C2153.81 54.5215 2162.39 47.5498 2152.29 36.1035C2144.18 26.8553 2136.64 18.9802 2129.32 11.347C2096.6 -22.8355 2075.03 -45.4152 2079 -112.436C2080.28 -133.834 2036.8 -151.719 1997.09 -153.412C1986.93 -153.817 1953.66 -153.76 1951.48 -134.624C1946.57 -91.6558 1950.14 -57.8574 1953.01 -30.7035C1958.03 16.8674 1961.35 48.2968 1917.63 83.9447C1907.79 91.9692 1897.85 97.0699 1889.09 101.566C1874 109.313 1863.09 114.919 1862.06 130.833L1862.01 131.708C1860.94 148.859 1860.72 152.423 1847.92 206.006C1806.19 380.688 1728.57 416.123 1638.68 457.128C1622.89 464.334 1606.56 471.789 1590.18 480.17C1569.84 490.556 1546.68 487.732 1534.31 479.579C1524.65 473.177 1518.9 461.382 1531.74 447.339C1541.52 436.632 1563.2 427.768 1590.66 416.543C1641.56 395.734 1711.25 367.25 1744.29 307.756C1788.85 227.447 1808.62 151.499 1812.85 122.566C1814.16 113.581 1805.94 109.05 1795.55 103.359C1782.57 96.2447 1771.58 90.0769 1762.05 84.7628C1726.31 64.8438 1711.52 56.5631 1689.73 49.3283C1574.51 11.0553 1570.89 11.1406 1510.22 12.101L1502 12.2291C1492.9 12.3642 1484.22 15.9212 1480.86 20.8796C1478.07 25.0057 1479.28 29.5942 1484.35 34.14C1511.52 58.491 1543.31 76.3257 1571.36 92.0546C1620.03 119.351 1658.46 140.913 1648.71 180.851C1635.52 234.874 1574.83 266.453 1510.56 299.881C1450.99 330.877 1389.38 362.925 1355.55 416.059C1351.04 423.173 1346.96 429.96 1343.03 436.511C1324.43 467.521 1308.37 494.298 1263.17 521.004C1255.28 525.67 1247.52 530.102 1240.04 534.413C1202.88 555.755 1170.77 574.166 1147.83 603.696C1124.2 634.094 1099.58 649.773 1073.52 666.377C1055.53 677.838 1036.92 689.689 1016.13 707.481C855.495 845.008 868.874 862.209 933.178 944.674C938.669 951.724 944.523 959.229 950.654 967.325C956.785 975.421 965.697 975.961 981.715 976.772C989.581 977.171 998.5 977.619 1009.26 979.092C1168.25 1000.87 1201.41 992.807 1243.37 982.584C1270.83 975.904 1301.95 968.357 1372.49 967.119C1390.35 966.813 1406.57 966.649 1421.66 966.5C1472.01 966.002 1508.39 965.639 1552.22 960.681C1582.15 957.294 1606.28 954.022 1625.62 951.39C1665.38 945.997 1689.37 942.739 1716.59 944.439C1740.89 945.955 1759.2 948.359 1776.91 950.686C1812.19 955.317 1842.66 959.336 1906.36 953.41C2068.53 938.343 2161.93 960.659 2223.71 975.463C2236.87 978.608 2249.32 981.574 2260.57 983.765C2295.1 990.453 2313.4 989.001 2332.77 987.472C2340.68 986.846 2348.88 986.191 2358.33 986.099C2369.71 986.099 2379.22 990.268 2382.85 997.303C2386.64 1004.64 2383.16 1012.73 2373.99 1017.93C2361.75 1024.88 2351.81 1024.07 2318.85 1021.39C2310.98 1020.76 2301.73 1019.97 2290.73 1019.21C2236.77 1015.33 2207.98 1010.08 2180.13 1004.98C2122.56 994.493 2072.83 985.444 1814.66 994.308C1786.06 995.325 1759.45 992.124 1733.74 989.065C1704.92 985.629 1677.69 982.399 1648.7 984.797C1632.57 986.134 1614.84 988.091 1596.07 990.154C1563.88 993.711 1530.59 997.367 1499.6 998.605C1467.53 999.885 1443.29 1000.38 1423.83 1000.78C1382.57 1001.64 1359.81 1002.11 1319.35 1008.54C1308.45 1010.28 1298.58 1011.96 1289.3 1013.52C1227.33 1024.12 1189.93 1030.52 1041.23 1016.87C1027.91 1015.65 1016.29 1014.38 1006.15 1013.32C959.922 1008.27 948.847 1007.7 944.196 1023.61C941.728 1032.05 942.659 1037.9 947.041 1041.47C951.422 1045.04 959.63 1046.57 972.07 1046.14C1034.11 1043.95 1078.85 1045.71 1118.33 1047.26C1174.97 1049.5 1223.88 1051.42 1302.55 1040.6C1356.76 1033.14 1377.8 1032.57 1428.64 1031.2C1466.47 1030.18 1518.26 1028.79 1611.12 1023.97C1666.88 1021.07 1697.7 1023.93 1730.35 1026.96C1766.04 1030.28 1802.94 1033.71 1876.31 1029.34C2035.17 1019.89 2133.54 1029.69 2212.6 1037.57C2281.45 1044.43 2331.2 1049.38 2390.33 1038.64C2402.62 1036.42 2412.45 1037.04 2419.55 1040.52C2426.64 1044 2430.89 1050.29 2432.11 1059.2L2432.45 1061.67L906.613 1061.67L906.086 1059.86C905.482 1057.77 904.813 1055.68 904.138 1053.58C902.52 1048.89 901.225 1044.1 900.261 1039.24C898.32 1027.93 902.146 1019.43 905.525 1011.94C910.077 1001.82 913.676 993.832 902.253 982.015C835.167 912.64 799 870.817 835.736 818.103C866.654 773.712 943.044 695.985 1023.7 639.38C1057.46 615.683 1072.72 599.869 1087.48 584.602C1104.41 567.045 1120.41 550.455 1162.4 524.525C1167.01 521.68 1171.47 518.943 1175.78 516.316C1215.61 491.95 1241.93 475.859 1262.5 441.754C1294.46 388.784 1322 343.169 1402.45 300.422C1416.14 293.144 1431.93 285.483 1448.68 277.323C1516.81 244.158 1601.6 202.883 1590.35 163.5C1584.36 142.507 1532.33 109.121 1507.14 96.7213C1479.35 83.0626 1466.12 70.0014 1455.48 59.5154C1452.1 56.0556 1448.54 52.7717 1444.82 49.6768C1438.16 44.3485 1422.28 44.1706 1398.25 43.9074C1367.24 43.5731 1320.37 43.0609 1259.96 30.1918C1241.39 26.2293 1232.93 34.012 1223.16 42.9968C1220.77 45.2022 1218.36 47.4288 1215.76 49.5132L1203.02 59.7786C1152.08 100.84 1103.97 139.625 1044.52 176.81C988.657 211.754 948.648 219.181 902.31 227.767C848.773 237.705 788.082 248.988 682.773 303.616C627.856 332.114 570.138 358.479 511.203 382.019C490.142 390.413 469.722 394.753 448.776 395.293C428.377 395.805 419.194 401.938 405.296 411.221C401.029 414.067 396.15 417.332 390.502 420.669C372.607 431.24 365.011 439.962 357.663 448.413C348.887 458.486 340.593 468.005 316.766 479.437C269.112 502.28 232.66 508.497 200.468 513.989C190.511 515.69 181.143 517.283 172.075 519.282C145.16 525.208 127.82 542.203 124.499 565.914C119.37 602.551 148.66 652.846 214.622 678.094C229.317 683.721 240.697 679.751 257.81 669.92C708.819 410.652 802.577 363.295 837.87 345.46C849.926 339.371 855.978 336.312 866.982 329.582C881.918 320.462 897.637 322.134 906.577 326.331C916.4 330.941 920.34 338.88 916.62 346.549C911.542 357.027 909.095 358.308 879.109 373.994C838.161 395.414 742.262 445.582 509.773 586.637C400.858 652.718 340.387 684.283 304.219 703.135C266.637 722.755 260.833 725.764 259.595 737.58C255.327 777.283 276.345 791.646 308.139 813.401C334.597 831.499 367.528 854.021 396.27 899.579C414.806 928.967 417.694 947.605 420.019 962.58C422.516 978.657 424.323 990.275 444.949 1006.89C464.153 1022.35 474.111 1041.74 481.935 1058.72L483.286 1061.67L478.883 1061.67C466.792 1061.67 457.474 1061.85 450.227 1061.99C445.767 1062.07 442.012 1062.15 438.846 1062.15M383.511 1020.74C390.844 1020.74 401.228 1023.65 411.541 1036.39C414.87 1040.52 417.985 1044.81 420.873 1049.26C426.648 1057.95 426.627 1057.95 450.034 1057.5C456.436 1057.38 464.395 1057.22 474.452 1057.19C466.771 1040.78 457.496 1023.84 440.113 1009.85C418.156 992.181 416.164 979.341 413.639 963.078C411.363 948.409 408.533 930.162 390.395 901.414C362.166 856.653 329.725 834.465 303.658 816.63C271.764 794.819 248.72 779.055 253.158 737.26C254.645 723.395 261.622 719.76 300.357 699.556C336.418 680.74 396.775 649.24 505.513 583.265C738.244 442.074 834.278 391.836 875.282 370.387C904.956 354.865 906.115 354.26 910.553 345.097C913.313 339.406 910.347 333.516 903.014 330.073C895.958 326.75 883.39 325.52 871.206 332.975C859.983 339.84 853.852 342.935 841.625 349.11C806.375 366.894 712.731 414.223 261.871 673.398C246.515 682.227 231.116 689.533 211.549 682.035C143.162 655.855 112.777 603.561 118.118 565.43C121.675 539.82 140.665 521.438 170.147 514.921C179.393 512.88 188.91 511.265 198.953 509.55C230.604 504.151 266.523 498.033 313.139 475.652C335.835 464.761 343.78 455.648 352.187 445.994C359.797 437.251 367.678 428.209 386.37 417.169C391.868 413.925 396.448 410.866 400.872 407.92C414.749 398.672 425.709 391.331 448.527 390.747C468.406 390.242 487.867 386.095 508.016 378.063C566.717 354.644 624.222 328.38 678.932 299.988C785.237 244.826 846.568 233.451 900.667 223.421C946.187 214.976 985.541 207.685 1040.21 173.488C1099.36 136.495 1147.34 97.8097 1198.11 56.8619L1210.88 46.5965C1213.38 44.5832 1215.7 42.4348 1217.99 40.3149C1228.29 30.832 1238.9 21.029 1261.78 25.8949C1321.33 38.5791 1365.82 39.0699 1398.34 39.4114C1424.09 39.6889 1441.1 39.8738 1449.63 46.7032C1453.47 49.9172 1457.15 53.3244 1460.64 56.9117C1470.99 67.1202 1483.87 79.8186 1510.75 93.0363C1537.51 106.197 1590.17 140.116 1596.59 162.611C1608.68 204.875 1525.59 245.317 1452.29 281.001C1435.63 289.104 1419.9 296.765 1406.3 303.986C1327.22 346.015 1300 391.117 1268.49 443.341C1247.23 478.548 1219.03 495.799 1179.99 519.688C1175.68 522.32 1171.23 525.037 1166.63 527.883C1125.22 553.465 1109.48 569.827 1092.78 587.099C1077.84 602.572 1062.42 618.557 1028.22 642.588C948.058 698.845 872.181 776.038 841.483 820.109C806.318 870.618 841.81 911.523 907.566 979.525C920.731 993.134 916.315 1002.94 911.642 1013.32C908.306 1020.73 904.856 1028.39 906.663 1038.73C907.599 1043.44 908.858 1048.09 910.432 1052.63C910.916 1054.15 911.407 1055.67 911.855 1057.2L2425.28 1057.2C2423.91 1050.99 2420.74 1046.63 2415.85 1044.23C2410.37 1041.55 2402.34 1041.13 2391.94 1043.02C2331.55 1053.99 2278.66 1048.72 2211.69 1042.05C2132.95 1034.22 2034.97 1024.44 1876.86 1033.85C1802.79 1038.26 1765.54 1034.8 1729.5 1031.45C1697.2 1028.45 1666.67 1025.62 1611.59 1028.48C1518.64 1033.31 1466.76 1034.71 1428.88 1035.73C1378.38 1037.08 1357.5 1037.65 1303.77 1045.04C1224.31 1055.98 1175.03 1054.04 1117.96 1051.78C1078.64 1050.24 1034.08 1048.49 972.376 1050.66C957.823 1051.2 947.923 1049.14 942.162 1044.43C936.4 1039.72 935.049 1032.63 937.894 1022.73C943.94 1002.01 962.44 1004.03 1007.11 1008.9C1017.21 1010 1028.78 1011.26 1042.04 1012.46C1189.55 1025.97 1226.52 1019.68 1287.76 1009.2C1297.07 1007.61 1306.96 1005.92 1317.91 1004.18C1358.97 997.645 1381.92 997.168 1423.61 996.307C1443.04 995.909 1467.23 995.404 1499.21 994.173C1529.89 992.949 1563.02 989.3 1595.05 985.771C1613.87 983.694 1631.66 981.731 1647.92 980.386C1677.79 977.896 1705.48 981.204 1734.77 984.655C1760.14 987.685 1786.36 990.78 1814.31 989.848C2073.46 980.92 2123.63 990.054 2181.71 1000.63C2209.33 1005.66 2237.9 1010.87 2291.36 1014.72C2302.38 1015.51 2311.65 1016.26 2319.56 1016.9C2351.25 1019.48 2359.78 1020.17 2369.92 1014.42C2376.93 1010.44 2379.63 1004.32 2376.78 998.769C2374.07 993.526 2367.13 990.445 2358.39 990.538C2349.25 990.637 2341.21 991.249 2333.45 991.882C2313.45 993.476 2294.56 994.97 2258.83 988.041C2247.37 985.821 2234.86 982.833 2221.61 979.668C2156.73 964.159 2067.88 942.931 1907.16 957.849C1842.44 963.86 1811.5 959.791 1775.69 955.082C1758.12 952.777 1739.97 950.394 1715.94 948.9C1689.62 947.25 1665.96 950.465 1626.77 955.786C1607.35 958.426 1583.19 961.698 1553.17 965.098C1508.87 970.078 1470.39 970.498 1421.68 970.974C1406.61 971.124 1390.38 971.287 1372.57 971.593C1303.03 972.781 1272.41 980.237 1245.4 986.81C1202.53 997.253 1168.66 1005.5 1007.95 983.488C997.576 982.065 988.863 981.624 981.174 981.24C964.701 980.408 952.795 979.817 944.9 969.409C938.868 961.356 933.001 953.865 927.488 946.865C863.063 864.173 847.756 844.531 1011.16 704.721C1032.26 686.68 1051.04 674.715 1069.21 663.147C1095.97 646.074 1119.09 631.376 1142.2 601.64C1165.74 571.349 1198.29 552.668 1235.98 531.027C1243.47 526.759 1251.16 522.32 1259.03 517.674C1303.05 491.659 1318.06 466.596 1337.11 434.868C1341.06 428.288 1345.15 421.458 1349.7 414.323C1384.21 360.115 1446.5 327.711 1506.74 296.367C1569.94 263.493 1629.63 232.441 1642.39 180.196C1651.5 142.869 1614.37 122.04 1567.34 95.6685C1539.02 79.783 1506.89 61.7776 1479.29 37.0069C1472.72 31.1166 1471.22 24.7354 1475.07 19.0442C1479.48 12.5136 1490.26 8.0105 1501.87 7.83264L1510.07 7.69751C1570.94 6.73001 1575.89 6.6304 1692.48 45.3587C1714.97 52.7927 1729.93 61.1801 1766.06 81.3125C1775.58 86.6266 1786.56 92.7517 1799.49 99.887C1810.49 105.948 1820.88 111.668 1819.21 123.114C1814.94 152.281 1795.03 228.72 1750.22 309.499C1716.4 370.451 1645.58 399.398 1593.87 420.534C1567.17 431.453 1546.06 440.076 1537.12 449.864C1528.02 459.824 1528.58 469.748 1538.69 476.406C1549.13 483.3 1568.86 485.598 1586.34 476.634C1602.86 468.19 1619.26 460.706 1635.12 453.464C1723.74 413.014 1800.27 378.056 1841.53 205.337C1854.27 152.032 1854.49 148.518 1855.54 131.587L1855.6 130.719C1856.72 112.642 1869.93 105.863 1885.21 97.9947C1893.7 93.6339 1903.32 88.7039 1912.69 81.0636C1954.65 46.8242 1951.43 16.1417 1946.52 -30.3123C1943.64 -57.6227 1940.05 -91.6131 1944.99 -134.887C1946.79 -150.538 1966.37 -159.075 1997.4 -157.808C2035.15 -156.201 2086.86 -138.053 2085.33 -112.158C2081.45 -46.6459 2102.58 -24.55 2134.57 8.89267C2141.91 16.5686 2149.5 24.5006 2157.67 33.7914C2170.21 48.0193 2158.77 57.3599 2148.68 65.5836L2146.54 67.3052C2134.18 77.5137 2122.82 86.6693 2112.4 95.0496C2052.19 143.702 2024.65 165.876 2018.41 216.975C2013.72 255.319 2006.26 286.23 2000.27 311.071C1986.47 368.232 1979.55 396.922 2022.76 428.651C2061.32 456.957 2118.78 479.736 2179.61 503.852C2266.43 538.276 2364.84 577.282 2424.99 640.838C2445.15 662.116 2490.76 701.563 2534.88 739.722C2575.35 774.722 2613.58 807.774 2633.9 828.077C2636.05 830.271 2638.66 831.966 2641.53 833.041C2644.41 834.117 2647.49 834.547 2650.55 834.302C2655.76 833.839 2660.14 831.406 2661.99 827.956C2664.33 823.552 2662.24 818.473 2656.1 813.643C2546.62 727.472 2492.86 673.214 2453.59 633.603C2407.58 587.17 2382.24 561.596 2311.03 528.502C2267.93 508.469 2232.28 492.427 2200.83 478.263C2036.46 404.278 2035.1 402.742 2053.31 313.533C2055.64 302.151 2058.29 289.196 2060.9 274.477C2062.24 266.922 2062.96 258.926 2063.71 250.461C2065.13 234.34 2066.75 216.072 2073.31 194.823C2081.88 166.979 2107.12 147.643 2127.4 132.106C2132.47 128.222 2137.26 124.551 2141.56 120.944C2154.96 109.74 2165.31 100.705 2173.62 93.4418C2199.43 70.8978 2206.37 64.8438 2224.48 63.9119C2253.33 62.4891 2269.14 70.2361 2275.69 89.209C2283.28 111.141 2268.25 116.669 2247.44 124.323C2242.07 126.294 2235.98 128.535 2229.65 131.267C2177.08 153.889 2121.88 197.725 2124.86 240.508C2125.29 245.374 2126.17 250.189 2127.49 254.893C2130.01 264.952 2132.4 274.449 2123.93 290.021C2080.64 369.598 2152.18 409.372 2257.97 456.864C2414.18 526.965 2432.66 547.987 2477.32 598.78C2496.26 620.321 2519.83 647.155 2560.6 685.442C2631.57 752.107 2644.42 763.269 2664.58 778.635C2694.5 801.4 2698.21 821.205 2700.43 833.021C2701.03 836.258 2701.56 839.061 2702.47 840.989C2705.39 847.213 2711.08 850.336 2718.59 849.881C2726.5 849.355 2733.95 844.795 2734.85 839.922C2736.4 831.506 2733.77 826.22 2727.99 814.624C2726.45 811.508 2724.69 807.987 2722.76 803.882C2715.7 788.829 2709.72 784.269 2693.73 772.097C2670.71 754.569 2627.87 721.944 2534.21 621.794C2518.92 605.432 2506.6 590.884 2495.74 578.05C2464.77 541.456 2442.4 515.021 2383.75 485.804C2372.77 480.326 2362.05 475.005 2351.59 469.84C2218.05 403.681 2129.84 360.03 2157.68 303.011C2162.88 292.376 2171.77 285.895 2182.08 285.226C2189.9 284.736 2197.05 287.723 2201.69 293.479C2205.65 298.38 2207.87 303.979 2210.44 310.467C2216.67 326.16 2224.43 345.695 2261.8 369.904C2278.87 380.98 2286.32 384.971 2317.54 401.76C2341.31 414.565 2381.1 435.907 2450.81 474.322C2491.23 496.589 2506.18 516.664 2530.96 549.922C2553.97 580.804 2585.47 623.089 2653.85 689.746C2694.99 729.855 2720.24 748.472 2736.96 760.8C2768.06 783.736 2768.06 783.736 2779.07 853.033C2782.47 874.467 2786.7 901.137 2793.2 937.29C2800.66 978.843 2778.34 1006.09 2731.96 1012.05C2661.98 1021.04 2629.79 1018.61 2588.66 1013.86C2552.19 1009.65 2527.87 985.06 2497.09 953.93C2438.68 894.841 2350.4 805.561 2097.32 771.877C1977.83 755.977 1945.52 749.347 1919.51 744.026C1905.73 741.18 1893.83 738.761 1871.06 735.546C1843.28 731.619 1825.67 736.969 1810.12 741.699C1799.04 745.079 1788.58 748.244 1776.74 746.935C1748.03 743.72 1739.75 734.927 1737.42 729.969C1734.4 723.637 1737.29 716.452 1745.15 710.761C1767.81 694.285 1844.89 678.037 1909.42 691.034C1924.71 694.121 1930.93 695.558 1937.51 697.088C1952.78 700.645 1971.78 705.034 2120.63 733.483C2354.07 778.094 2430.67 847.804 2504.75 915.215C2517.41 926.733 2530.5 938.642 2544.14 950.223C2591.39 990.303 2653.77 988.169 2686.75 983.353C2724.19 977.868 2753.23 964.664 2756.87 955.765C2759.61 949.042 2756.71 941.537 2749.96 937.902C2746.52 936.052 2740.77 934.537 2732.89 937.845C2730.59 938.812 2727.76 940.363 2724.48 942.163C2711.82 949.092 2692.7 959.564 2661.58 961.52C2588.77 966.101 2550.62 931.25 2502.34 887.108C2472.54 859.876 2438.76 829.016 2390.63 802.353C2269.83 735.482 2243.77 729.392 2099.11 695.751C2057.89 686.168 2006.59 674.238 1940.83 658.047C1840.46 633.361 1799.51 650.933 1725.15 682.945C1705.19 691.525 1693.47 690.564 1667.81 688.466C1651.52 687.136 1629.22 685.321 1594.81 684.973C1435.07 683.422 1402.05 692.507 1356.37 705.12C1325.66 713.599 1287.44 724.156 1200.06 733.931C1186.09 735.496 1168.91 739.473 1162.59 745.953C1160.35 748.251 1159.66 750.677 1160.45 753.352C1161.81 757.763 1164.72 760.758 1169.64 762.785C1192.65 772.304 1262.06 760.274 1390.47 733.156C1465.27 717.363 1650.08 708.413 1681.31 719.091C1691.19 722.463 1697.08 728.866 1696.34 735.404C1695.73 740.675 1690.14 750.492 1659.55 756.959C1636.57 761.818 1622.21 761.889 1596.14 762.017C1580.5 762.088 1560.98 762.188 1532.84 763.369C1461.37 766.363 1401.14 776.06 1348.01 784.611C1270.98 797.003 1210.16 806.792 1148.38 792.393C1124.91 786.916 1105.94 788.459 1096.37 796.662C1090.24 801.897 1089.26 809.31 1093.99 815.115C1099.53 821.945 1111.02 824.989 1125.52 823.446C1143.57 821.532 1155.75 822.023 1175.92 822.798C1191.07 823.396 1209.94 824.143 1239.03 824.221L1240.31 824.221C1289.53 824.221 1340.23 817.385 1393.9 810.15C1421.49 806.429 1450.02 802.58 1479.28 799.564C1499.13 797.515 1522.83 796.05 1547.91 794.499C1590.67 791.853 1634.88 789.114 1661.58 783.238C1673.11 780.691 1682.71 777.831 1691.18 775.306C1707.84 770.326 1720.99 766.406 1736.92 768.583C1758.57 771.542 1765.14 779.254 1767.13 783.622C1769.77 789.363 1767.46 795.666 1760.98 800.489C1731.93 822.101 1549.26 837.481 1388.09 851.119C1372.41 852.442 1357.01 853.737 1342.1 855.017C1309.65 857.792 1295.71 858.169 1237.01 859.741C1216.89 860.275 1191.54 860.957 1158.37 861.925C1132.59 862.636 1108.23 863.348 1084.95 853.53C1064.64 844.944 1053.42 845.271 1044.9 854.697C1037.66 862.715 1036.82 869.743 1042.42 875.598C1058.31 892.216 1119.74 896.94 1153.38 892.778C1222.69 884.192 1247.71 883.324 1289.17 881.894C1326.34 880.606 1377.25 878.849 1485.78 870.661C1575.69 863.888 1740.21 836.656 1751.43 833.498C1774.51 827.01 1783.44 830.254 1796.87 835.169C1811.9 840.654 1834.61 848.942 1894.42 850.03C1909.94 850.315 1924.89 850.521 1939.36 850.742C2072.62 852.563 2168.89 853.879 2315.1 913.7C2354.44 929.799 2409.94 987.337 2436.61 1014.99L2439.76 1018.25C2458.82 1037.98 2460.73 1048.34 2461.75 1053.9C2462.46 1057.61 2462.43 1057.62 2478.66 1057.4C2482.79 1057.35 2487.82 1057.29 2493.94 1057.27C2487.9 1018.45 2417.2 956.547 2395.3 938.201L2390.16 933.89C2358.8 907.568 2351.35 901.308 2304.65 884.355C2218 852.89 2143.41 836.144 2069.93 831.655C2060.61 831.093 2048 830.453 2033.31 829.713C1959.57 826.014 1836.16 819.81 1809.98 805.924C1800.94 801.143 1797.17 793.631 1800.1 786.325C1803.76 777.234 1816.35 771.094 1833.77 769.892C1856.95 768.327 1877.33 771.464 1911.07 776.693C1929.89 779.61 1953.3 783.238 1983.57 786.98C1995.71 788.481 2009.84 789.775 2026.24 791.248C2106.04 798.547 2226.62 809.566 2348.1 865.823C2409.67 894.343 2470.66 957.344 2511.18 1002.25C2530.44 1023.6 2546.29 1035.21 2579.47 1039.47C2626.64 1045.55 2689.5 1043.03 2716.14 1040.9C2826.18 1031.98 2832.51 989.77 2820.4 902.275C2817.55 881.695 2815.6 864.571 2813.89 849.397C2807.38 791.981 2805.19 772.645 2773.48 753.558C2692.48 704.707 2633.09 629.584 2575.62 557.022C2568.41 547.909 2561.26 538.874 2554.15 529.989L2552.73 528.217C2505.58 469.371 2505.58 469.371 2440.73 433.986C2411.49 418.03 2367.28 393.906 2299.29 353.599C2270.51 336.525 2251.13 314.956 2240.06 287.603C2233.31 270.935 2240.06 257.916 2267.8 234.006C2280.37 223.186 2292.98 217.729 2306.38 217.324C2333.76 216.499 2361.42 236.589 2399.73 264.368C2442.59 295.463 2495.94 334.156 2575.13 364.725C2638.33 389.111 2646.4 410.546 2654.21 431.276C2659.33 444.863 2664.17 457.697 2684.08 471.519C2700.18 482.681 2703.02 491.516 2706.3 501.753C2708.77 509.465 2711.57 518.208 2720.93 529.761C2734.69 546.714 2743.57 561.603 2751.41 574.735C2766.65 600.274 2778.68 620.449 2816.98 642.915C2867.09 672.317 2861.24 702.957 2855.58 732.551C2853.16 745.192 2850.87 757.137 2853.06 768.64C2860.75 809.104 2881.64 978.309 2858.37 1033.99C2855.82 1040.09 2852.68 1046.15 2849.71 1052L2847.1 1057.12L2891.2 1057.12C2891.38 1055.62 2892.1 1054.49 2892.98 1053.08C2896.04 1048.22 2903.19 1036.84 2905.01 980.358C2907.09 915.77 2903.89 854.036 2901.56 808.962C2899.77 774.338 2898.47 749.326 2900.1 737.111C2910.47 659.569 2884.77 645.846 2855.01 629.939C2835.28 619.39 2812.91 607.438 2797.97 576.258C2786.23 551.75 2776.53 538.853 2767.96 527.47C2761.41 518.756 2755.22 510.532 2749.28 498.581C2746.01 492.007 2748.3 485.199 2755.22 480.796C2762.15 476.392 2771.93 475.574 2781.3 478.662C2797.72 484.033 2811.07 494.312 2828.12 508.27C2845.84 522.775 2848.85 538.582 2854.86 570.083C2855.93 575.703 2857.11 581.821 2858.47 588.544C2859.97 595.935 2865.9 601.441 2875.15 604.031C2885.04 606.805 2897.06 605.681 2905.07 601.242C2915.44 595.501 2913.16 590.642 2908.16 580.007C2904.69 572.637 2899.94 562.542 2898.91 548.762C2895.61 503.141 2863.87 485.918 2838.37 472.081C2820.02 462.122 2804.17 453.521 2803.84 437.479C2803.43 417.169 2798.28 396.93 2793.31 377.274C2791.49 370.096 2789.67 362.918 2788.06 355.719C2773.08 288.606 2739.98 282.488 2685.14 272.357C2644.32 264.817 2593.52 255.433 2532.37 217.416C2510.44 203.793 2496.9 194.887 2484.96 187.026C2466.28 174.74 2451.53 165.036 2414.62 143.816C2386.64 127.731 2369.1 122.573 2357.5 119.152C2336.48 112.977 2331.03 110.138 2318.21 73.9425C2315.56 66.4729 2317.72 59.5368 2324.45 53.8955C2337.47 42.9684 2364.62 38.9562 2384.39 39.8454C2407.38 40.8769 2411.82 51.2277 2417.43 64.2676C2421.7 74.2271 2427.08 86.712 2442.64 98.9978C2549.83 183.632 2602.02 216.264 2726.26 223.207C2745.74 224.289 2761.51 222.346 2775.42 220.625C2810.61 216.264 2828.14 216.086 2841.22 259.481C2849.55 287.119 2861.34 421.964 2861 431.069C2860.58 441.804 2865.32 449.637 2874.34 453.123C2881.5 455.904 2890.63 455.463 2898.14 451.963C2908.14 447.318 2912.98 438.802 2911.43 428.601C2911.03 425.919 2909.9 422.91 2908.49 419.132C2905.51 411.165 2901.42 400.238 2899.95 381.99C2899.02 370.323 2897.75 350.753 2896.4 330.059C2894.36 298.757 2892.26 266.403 2890.83 253.292C2888.93 235.785 2880.83 225.078 2873.68 215.638C2863.63 202.385 2855.71 191.913 2872.71 171.219C2918.89 115.018 2900.56 -173.722 2893.64 -263.123L2844.33 -263.123C2871.06 -155.802 2869.12 -132.71 2863.98 -71.758C2862.36 -52.4508 2860.33 -28.4128 2858.84 3.32959C2856.11 61.5074 2841 112.472 2825.07 158.876C2819.11 176.241 2806.91 185.276 2786.66 187.332C2751.53 190.832 2700.76 186.457 2664.95 181.199C2604.62 172.335 2558.75 142.549 2490.16 87.082C2439.83 46.3831 2453.17 23.398 2466.13 1.16694C2476.39 -16.4472 2486.05 -33.0938 2465.34 -58.9601C2447.56 -81.184 2412.7 -85.0896 2358.83 -70.8759L2352.57 -69.2113C2320.2 -60.5821 2294.63 -53.774 2265.64 -69.4176C2251.41 -77.0864 2242.5 -86.2278 2235.32 -93.5623C2231.71 -97.2615 2228.59 -100.456 2225.32 -103.017C2220.47 -106.925 2214.62 -109.388 2208.43 -110.124C2202.24 -110.86 2195.98 -109.839 2190.34 -107.178C2180 -102.199 2173.05 -91.3783 2180.55 -81.1058C2184.55 -75.6138 2190.22 -71.7794 2209 -59.0526C2213.81 -55.8015 2219.45 -51.9813 2226.12 -47.4213C2270.62 -16.9878 2314.32 -27.2319 2356.53 -37.1345C2370.37 -40.3785 2383.44 -43.4517 2396.27 -45.0025C2408.07 -46.4253 2418.5 -44.6397 2425.63 -39.9587C2433.01 -35.1142 2436.34 -27.5876 2435.02 -18.7734C2430.44 11.6671 2406.99 11.9588 2379.85 12.286C2359.22 12.5421 2335.86 12.8267 2311.24 24.1307C2308.18 25.5535 2305.21 27.019 2302.25 28.4987C2285.25 37.0354 2267.66 45.7998 2233.39 39.3617C2220.05 36.8575 2210.73 31.828 2205.68 24.4224C2195.22 9.07761 2182.92 -3.32199 2171.1 -15.309C2147.38 -39.2829 2124.98 -61.9266 2122.73 -102.867C2121.55 -124.102 2132.62 -131.394 2153.46 -137.42C2203.49 -151.904 2239.46 -142.769 2277.52 -133.094C2283.29 -131.636 2289.14 -130.149 2295.13 -128.719C2331.73 -119.976 2374.64 -122.473 2412.49 -124.672C2465.12 -127.738 2510.59 -130.363 2527.51 -104.183C2538.89 -86.5123 2534.87 -65.7681 2530.19 -41.7372C2522.95 -4.58824 2514.74 37.5263 2561.57 82.1164C2607.04 125.426 2667.13 144.954 2718.38 133.116C2768.17 121.606 2797.77 83.7669 2797.57 31.8992C2797.45 0.156763 2800.31 -28.3915 2803.08 -56.0006C2808.99 -114.989 2814.1 -165.932 2783.12 -213.446C2778.05 -221.229 2772.21 -228.464 2766.55 -235.457C2758.13 -245.893 2750.76 -255.013 2748.41 -263.03L2688.83 -263.03C2694.02 -251.036 2704.08 -239.185 2715.59 -225.611C2742.57 -193.812 2776.14 -154.237 2765.57 -88.0418C2760.79 -58.1633 2758.04 -44.0492 2756.22 -34.6873C2753.19 -19.1149 2753.19 -19.1149 2751.32 17.9985L2750.44 34.8586C2748.2 78.5879 2727.18 94.95 2709.9 100.968C2688.9 108.296 2661 104.725 2633.33 91.1583C2593.8 71.7657 2557.02 32.1481 2563.18 -6.0537C2564.96 -17.1515 2566.97 -27.1679 2568.87 -36.8571C2574.67 -65.9104 2579.25 -88.8599 2571 -110.607C2549.85 -166.615 2483.03 -163.563 2412.28 -160.327C2372.89 -158.52 2332.17 -156.663 2297.67 -164.965C2248.81 -176.717 2185.94 -187.281 2133.03 -164.552C2108.79 -154.123 2097.47 -159.843 2081.82 -167.754C2066.63 -175.437 2045.84 -185.965 2001.4 -188.341C1984.72 -189.209 1972.9 -185.453 1959.23 -181.085C1956.13 -180.089 1952.96 -179.079 1949.65 -178.097C1943.21 -176.099 1936.25 -176.667 1930.21 -179.684C1917.91 -185.809 1911.57 -200.229 1912.54 -210.636C1913.04 -215.915 1915.96 -220.112 1921.24 -223.107C1938.31 -232.803 1977.43 -228.841 2026.88 -223.818C2067.13 -219.728 2112.77 -215.097 2154.28 -217.359C2220.49 -220.98 2235.48 -219.764 2262.7 -217.551C2295.31 -214.919 2344.59 -210.921 2522.64 -212.443L2524.88 -212.443C2551.4 -212.657 2581.46 -212.963 2604.54 -188.711C2658.59 -131.935 2647.82 -87.0459 2638.29 -47.4426C2632.6 -23.8385 2627.26 -1.55058 2635.63 21.1215C2636.81 24.3371 2637.91 27.6806 2639 31.0384C2643.51 44.9461 2648.18 59.3163 2660.21 63.7625C2666.02 65.8967 2673.35 65.7259 2682.63 63.1863C2689.84 61.2157 2694.54 58.2705 2696.62 54.429C2699.38 49.3141 2697.7 42.4918 2691.6 34.1329C2671.68 6.89367 2678.52 -17.6992 2687.95 -51.7323C2689.18 -56.1785 2690.45 -60.7741 2691.71 -65.5547C2702.87 -107.875 2688.52 -172.306 2639.5 -213.525C2612.47 -236.247 2578.24 -248.255 2540.45 -248.255L2540.31 -248.255C2494.53 -248.219 2461.2 -247.856 2434.42 -247.543C2384.5 -246.996 2357 -246.704 2314.66 -249.343C2246.38 -253.612 2188.64 -254.053 2143.06 -250.681C2121.22 -249.059 2087.58 -250.894 2052.02 -252.815C2000.85 -255.589 1947.94 -258.47 1926.22 -251.392C1906.02 -244.805 1895.36 -248.895 1885.05 -252.85C1878.02 -255.547 1871.36 -258.029 1861.19 -257.788C1843.65 -257.247 1835.44 -246.974 1827.49 -237.036C1820.18 -227.888 1813.27 -219.251 1799.61 -221.642C1794.01 -222.63 1789.94 -224.729 1787.52 -227.888C1781.03 -236.346 1788.23 -250.702 1793.98 -262.227L1794.38 -263.023L1772.22 -263.023C1771.32 -260.79 1770.41 -258.634 1769.53 -256.557C1761.92 -238.537 1756.89 -226.629 1776.97 -210.523C1787.96 -201.708 1798.13 -197.376 1807.1 -197.824C1820.7 -198.415 1831.24 -209.335 1840.53 -218.96C1843.1 -221.62 1845.57 -224.181 1847.98 -226.408C1854.33 -232.263 1863.83 -234.625 1872.71 -232.562C1881.76 -230.47 1887.47 -224.494 1887.65 -216.961C1887.73 -212.273 1887.65 -208.232 1887.55 -204.646C1887.22 -191.351 1887.05 -184.678 1897.35 -173.95C1919.11 -151.256 1919.46 -148.446 1915.99 -129.772C1913.19 -114.669 1907.97 -86.5622 1914 -21.868C1918.13 22.4589 1910.48 55.0194 1859.63 80.3379C1841.98 89.1308 1832.98 84.2862 1795.14 63.919C1789.08 60.6537 1782.23 56.9757 1774.44 52.8568C1719.9 23.9955 1666.54 12.9262 1592.69 -2.39718C1563.53 -8.45114 1537.38 -8.13812 1516.39 -7.88913C1510.61 -7.81799 1505.15 -7.76111 1500.03 -7.81802C1489.11 -7.95319 1479.92 -10.9979 1474.82 -16.184C1471.35 -19.6983 1470.39 -23.6892 1472.15 -27.1466C1477.75 -38.0878 1491.82 -36.9282 1522.65 -34.3886C1569.16 -30.5897 1731.92 -10.6209 1770.44 7.82557C1792.49 18.3898 1811.49 27.5098 1829.74 24.5646C1859.07 19.8339 1870.67 -2.81691 1865.21 -44.6895C1863.01 -61.5851 1866.51 -76.2043 1869.89 -90.3397C1872.9 -102.967 1875.75 -114.883 1874.47 -127.723C1871.83 -154.201 1854.12 -166.758 1839.74 -169.461C1833.61 -170.678 1827.27 -170.325 1821.31 -168.433C1815.35 -166.541 1809.96 -163.173 1805.65 -158.641C1795.22 -147.799 1791.03 -134.403 1786.18 -118.895C1784.24 -112.677 1782.24 -106.246 1779.68 -99.602C1770.18 -74.7886 1753.44 -75.2083 1682.95 -76.9441C1673.54 -77.1718 1663.13 -77.435 1651.59 -77.6555C1619.15 -78.2958 1558.75 -80.6576 1518.79 -89.2797C1503.94 -92.481 1493.18 -102.576 1492.64 -113.823C1492.11 -124.686 1501.09 -133.671 1516.65 -137.854C1536.15 -143.09 1548.58 -142.72 1571.14 -142.058C1582.19 -141.738 1595.95 -141.347 1614.37 -141.468C1623.7 -141.539 1627.32 -141.695 1634.55 -141.994C1643.27 -142.364 1657.87 -142.976 1695.09 -143.936C1703.44 -144.142 1710.12 -147.038 1712.95 -151.669C1715.26 -155.468 1714.37 -159.679 1710.6 -162.653C1706.55 -165.847 1706.55 -165.854 1697.29 -164.076C1686.17 -161.941 1665.44 -157.936 1617.58 -156.663C1604.71 -156.329 1592.54 -156.435 1580.76 -156.542C1544.63 -156.855 1513.42 -157.147 1483.71 -143.915C1465.58 -135.84 1459.12 -124.316 1464.51 -109.64C1465.25 -107.77 1466.14 -105.96 1467.16 -104.226C1468.02 -102.654 1468.89 -101.082 1469.58 -99.474C1472.23 -93.2991 1470.23 -87.9708 1464.09 -84.8548C1456 -80.743 1442.86 -81.5469 1432.13 -86.7827C1424.96 -90.2828 1402.67 -104.39 1416.48 -138.899C1430.79 -174.661 1497.56 -177.172 1582.02 -180.359C1616.81 -181.668 1652.79 -183.027 1689.65 -186.762C1691.79 -186.983 1693.98 -187.246 1696.14 -187.473C1711.74 -189.337 1729.41 -191.45 1740.84 -177.336C1748.79 -167.519 1747.31 -150.709 1737.41 -138.209C1727.81 -126.116 1711.81 -119.187 1692.31 -118.653L1687.85 -118.539C1622.64 -116.782 1589.93 -115.893 1555.99 -121.171C1544.08 -123.021 1535.96 -120.346 1532.65 -117.479C1530.45 -115.58 1529.93 -113.467 1531.23 -111.511C1533.76 -107.584 1542.76 -105.037 1555.32 -104.689C1699.23 -100.698 1699.61 -100.79 1720.1 -105.186L1722.51 -105.706C1753.72 -112.343 1767.21 -145.935 1766.5 -166.544C1766.04 -179.854 1756.92 -193.399 1743.25 -201.047C1734.36 -206.094 1724.07 -208.067 1713.95 -206.66C1665.5 -199.816 1618.41 -197.604 1572.87 -195.469C1514.46 -192.731 1464.05 -190.362 1425.88 -178.745C1376.41 -163.67 1370.63 -121.122 1382.32 -95.7107C1391.39 -76.0051 1412.55 -71.7794 1426.55 -68.9908C1428.74 -68.5497 1430.71 -68.1513 1432.36 -67.7529C1454.88 -62.2681 1461.41 -51.9529 1457.97 -44.6895C1454.52 -37.4262 1440.19 -31.8347 1417.15 -37.0421L1412.02 -38.1874C1367.59 -48.1469 1335.49 -55.3391 1328.35 -86.9392C1321.96 -114.621 1324.09 -143.59 1334.46 -170.037C1348.21 -205.714 1385.39 -208.623 1466.85 -214.983C1477.71 -215.837 1489.4 -216.747 1501.96 -217.829C1528.57 -220.084 1558.29 -220.781 1587.03 -221.457C1634.74 -222.581 1679.79 -223.641 1707.82 -231.338C1730.12 -237.463 1733.73 -248.098 1737.91 -260.413C1738.21 -261.288 1738.5 -262.163 1738.81 -263.038L1718.66 -263.038C1712.5 -241.824 1663.66 -240.351 1637.04 -239.562L1602.34 -238.523C1379.05 -231.879 1319.04 -230.093 1295.31 -178.56C1279.18 -143.531 1283.71 -98.1721 1294.73 -70.8048C1310.71 -31.2015 1376.53 -16.8812 1417.07 -16.8812L1417.64 -16.8812C1443.81 -16.8812 1455.78 -7.51212 1456.05 1.7929C1456.26 9.48309 1447.8 17.8775 1431.71 18.283C1423.63 18.4822 1415.62 17.721 1407.44 16.8602C1258.5 0.953449 1250.68 -4.97957 1246.5 -23.0347C1242.73 -39.3399 1239.2 -53.5607 1236.06 -66.195C1216.15 -146.462 1211.97 -163.158 1267.21 -241.113C1281.52 -261.302 1294.21 -261.345 1336.21 -261.501C1343.82 -261.501 1352.47 -261.565 1362.33 -261.714L1390.78 -262.156C1414.19 -262.516 1436.18 -262.855 1456.76 -263.173C1396.01 -263.13 1323.97 -263.073 1241.56 -263.073L1236.5 -257.247C1204.88 -220.902 1161.55 -171.126 1177.85 -114.691C1186.33 -85.4097 1193.61 -63.4277 1198.93 -47.3715C1212.72 -5.73363 1215.59 2.93114 1198.5 15.6936C1173.36 34.4672 1153.27 50.189 1135.55 64.0683C1090.3 99.51 1057.57 125.12 985.812 166.345C948.492 187.794 912.481 193.421 874.357 199.383C843.51 204.206 811.624 209.2 773.586 222.382C761.082 226.714 735.74 239.455 703.655 255.668C626.882 294.375 510.854 352.851 446.62 356.821C442.161 357.171 437.68 356.506 433.514 354.876C429.348 353.245 425.605 350.693 422.566 347.409C400.211 323.891 405.424 262.853 458.683 191.692C465.881 182.06 471.436 172.698 477.311 162.781C486.913 146.562 496.85 129.794 515.143 110.024C529.987 93.9753 541.986 80.473 551.631 69.6172C602.514 12.3429 602.514 12.3429 704.381 -12.5986C728.172 -18.4249 757.775 -25.674 794.945 -35.3632C807.662 -38.6783 815.38 -45.3796 816.098 -53.7456C816.696 -60.639 812.129 -67.2621 804.995 -69.8445C798.63 -72.1423 790.856 -71.0112 783.096 -66.6503C760.136 -53.7101 731.309 -45.3085 636.904 -21.1211C575.373 -5.37797 554.938 19.2078 487.219 100.705L472.475 118.426C471.28 120.112 410.318 211.362 409.799 212.152C394.03 236.339 360.011 298.11 384.464 349.928C392.046 365.977 386.733 381.037 369.904 391.26C356.262 399.54 337.556 402.478 325.458 398.246C316.837 395.229 312.527 389.09 313.316 380.952C313.821 375.78 315.799 370.743 317.947 365.6C324.739 349.401 325.614 334.035 326.539 317.78C327.961 293.18 329.54 265.307 350.835 225.668C359.982 208.645 369.25 196.807 379.997 183.113C391.256 168.736 404.023 152.452 420.126 125.824C433.725 103.337 443.598 90.7883 463.236 65.7899C475.306 50.4309 491.842 29.3808 515.229 -1.7285L517.896 -5.32106C530.57 -22.4657 544.938 -41.8938 592.485 -50.6013C710.412 -72.1921 753.891 -89.9627 777.249 -99.5025C792.186 -105.62 799.042 -108.402 811.326 -105.137C840.75 -97.3114 860.246 -90.5389 862.892 -68.9481C868.689 -21.7827 815.287 -2.85962 764.781 11.1762L749.133 15.5228C639.429 45.9278 639.429 45.9278 582.642 98.1298C569.249 110.423 552.584 125.732 530.663 144.954C517.69 156.336 511.807 164.667 522.547 171.055C525.778 173.1 529.592 174.028 533.401 173.694C546.865 172.456 563.125 156.03 581.938 137.007C612.145 106.482 649.735 68.486 706.33 55.6098C713.698 53.9309 720.811 52.3256 727.667 50.7937C800.472 34.4316 844.413 24.5646 876.875 -8.99893C907.893 -41.0899 904.394 -79.6119 887.16 -103.55C873.611 -122.36 853.688 -125.682 836.113 -128.613C832.599 -129.196 829.256 -129.758 826.155 -130.413C813.765 -133.03 806.311 -138.238 806.24 -144.349C806.084 -153.796 823.125 -162.937 854.229 -170.08C908.996 -182.643 937.894 -225.853 947.048 -263.073L906.016 -263.073C902.879 -233.614 885.78 -213.197 853.809 -200.712C828.588 -190.853 813.033 -184.137 802.741 -179.691C783.971 -171.581 780.585 -170.115 765.25 -169.795C743.962 -169.347 733.094 -166.011 715.085 -160.49C690.966 -153.099 654.522 -141.93 565.273 -128.755L559.825 -127.951C494.467 -118.333 451.294 -111.98 426.328 -68.2438C409.969 -39.5391 387.664 -7.77538 366.12 22.907C332.279 71.1395 300.336 116.626 303.714 134.133C304.273 137.27 305.769 140.164 308.007 142.431C310.245 144.698 313.118 146.233 316.247 146.832C318.704 147.338 321.243 147.281 323.675 146.665C326.107 146.049 328.367 144.89 330.287 143.275C337.115 137.491 337.649 135.691 339.235 130.328C341.966 121.044 347.663 101.722 394.663 36.6725C417.224 5.41386 432.218 -18.3609 443.171 -35.7189C479.054 -92.6304 480.356 -93.292 582.812 -109.768C593.965 -111.561 606.348 -113.553 620.132 -115.829C657.288 -121.99 681.3 -128.435 702.489 -134.126C719.673 -138.736 734.495 -142.72 752.761 -145.622C762.007 -147.102 773.849 -144.37 776.09 -138.124C779.603 -128.293 760.691 -107.001 594.434 -74.9309C549.177 -66.2021 520.463 -56.1715 498.414 -28.2279C420.496 70.3499 397.074 107.264 383.084 129.324C373.581 144.299 368.347 152.551 353.31 168.544C308.373 216.335 294.276 274.833 283.003 321.835C278.835 339.178 274.894 355.562 269.915 369.029C261.075 392.946 206.784 398.594 183.853 399.903C165.51 400.963 151.491 398.203 140.9 391.494C117.343 376.555 116.49 345.254 115.579 312.067C114.868 286.813 114.157 260.698 102.777 242.351L101.425 240.174C92.0438 225.121 80.3719 206.383 78.9068 176.454C78.4942 168.117 78.0321 160.242 77.5982 152.786C73.9779 90.8309 71.9791 56.7054 116.326 27.8868C132.429 17.4791 139.293 6.08258 135.146 -3.35049C132.571 -9.24796 125.9 -13.31 117.365 -14.2562C105.273 -15.5438 92.6625 -10.5498 82.7618 -0.483583C27.9593 55.2114 21.8639 113.645 29.5668 184.251C32.3336 209.641 40.5699 224.843 48.5289 239.541C58.1666 257.325 67.2706 274.136 67.107 306.725C66.8014 367.99 82.7975 407.223 114.633 423.336C149.094 440.78 196.969 429.511 235.434 420.434C257.76 415.184 277.035 410.652 289.454 412.829C298.316 414.394 304.39 418.115 306.04 423.045C307.797 428.188 305.727 436.846 285.911 448.904C259.339 465.088 227.048 468.987 195.824 472.757C154.45 477.737 115.366 482.475 93.2884 515.27C57.2916 568.738 66.2608 649.076 167.388 708.022C169.18 709.068 171.079 710.092 173.021 711.138C185.781 717.996 201.656 726.54 198.676 748.301C192.445 793.88 210.717 806.109 247.119 830.474C272.44 847.412 307.107 870.618 346.177 915.187C381.853 955.9 381.327 984.455 364.975 994.685C357.393 999.437 347.065 999.53 338.659 994.913C327.606 988.852 321.909 981.773 305.002 960.766L302.598 957.785C198.754 828.866 141.732 845.883 55.3643 871.643L53.9984 872.048C-237.938 959.123 -398.163 888.929 -504.183 842.49C-557.272 819.234 -595.637 802.438 -629.18 814.895L-638.192 818.231C-677.553 832.708 -705.989 843.173 -698.407 865.795C-696.387 871.827 -691.429 876.345 -684.815 878.187C-678.413 879.959 -671.123 879.069 -663.704 875.619C-660.333 874.047 -654.181 870.156 -648.227 866.371C-642.993 863.056 -638.042 859.926 -634.714 858.176C-601.875 841.01 -580.295 850.286 -541.119 867.111C-498.806 885.287 -434.864 912.768 -310.002 929.642C-155.552 950.522 -43.0456 922.593 39.0977 902.211C95.472 888.211 136.213 878.109 164.727 890.985C188.846 901.87 241.75 940.463 274.311 981.773C281.82 991.263 289.981 1000.22 298.736 1008.57C312.769 1022.32 319.362 1028.79 319.945 1057.17L358.296 1057.17C353.474 1042.32 361.141 1026.31 375.829 1021.85C378.321 1021.11 380.909 1020.74 383.511 1020.74ZM2737.19 460.422C2730.59 460.422 2724.15 458.472 2719.47 454.858C2705.35 443.953 2700.83 436.533 2684.05 403.51C2662.71 361.538 2625.97 347.616 2570.36 326.544L2566.73 325.164C2506.07 302.172 2466.62 272.073 2431.82 245.488C2393.78 216.463 2363.73 193.556 2319.89 189.928C2263.17 185.297 2236.8 217.907 2219.35 239.512C2212.95 247.48 2207.84 253.74 2202.46 257.02C2196.44 260.758 2189.22 262.073 2182.27 260.698C2175.61 259.275 2170.56 255.149 2168.45 249.465C2150.94 202.399 2237.38 161.871 2278.92 142.393C2296.37 134.219 2314.95 133.856 2334.15 141.404C2391.26 163.82 2428.96 189.757 2465.35 214.841C2513.61 248.07 2559.19 279.457 2645.64 301.219C2658.91 304.562 2670.12 306.654 2680.02 308.503C2718.57 315.703 2734.52 318.676 2748.05 374.57C2759.93 423.657 2761.43 430.401 2760.92 443.355C2760.63 450.832 2754.68 456.978 2745.41 459.383C2742.73 460.078 2739.97 460.427 2737.19 460.422ZM2308.86 184.998C2312.64 184.998 2316.56 185.155 2320.64 185.496C2366.87 189.295 2399.14 213.952 2436.57 242.472C2471.03 268.793 2510.1 298.572 2569.81 321.216L2573.43 322.582C2630.33 344.151 2667.97 358.401 2690.12 402.002C2706.79 434.804 2710.83 441.477 2724.26 451.799C2729.12 455.548 2736.55 456.85 2743.23 455.136C2750.09 453.35 2754.33 448.89 2754.55 443.192C2755.04 430.664 2753.56 423.984 2741.75 375.289C2728.94 322.247 2716.18 319.871 2678.38 312.814C2668.37 310.943 2657.04 308.823 2643.49 305.423C2555.72 283.32 2509.65 251.599 2460.88 218.014C2424.75 193.115 2387.4 167.42 2331.04 145.324C2313.88 138.594 2298.01 138.857 2282.51 146.128C2242.19 165.029 2158.32 204.348 2174.68 248.327C2175.45 250.373 2176.72 252.189 2178.39 253.602C2180.05 255.015 2182.05 255.979 2184.2 256.401C2188.64 257.375 2193.77 256.351 2198.29 253.612C2202.8 250.873 2207.9 244.577 2213.79 237.293C2230.86 216.164 2256.05 184.963 2308.88 184.963M1815.79 -3.09435C1812.2 -3.12648 1808.65 -3.70952 1805.24 -4.82302C1798.78 -6.88607 1793.94 -9.34749 1788.81 -11.937C1777.54 -17.6281 1765.88 -23.5825 1734.15 -26.8122C1732.93 -26.9331 1727.98 -27.4667 1720.25 -28.3061C1681.69 -32.4607 1564.38 -45.1164 1508.53 -50.1175C1495.65 -51.2699 1484.45 -55.7446 1480.01 -61.4998C1477.53 -64.7295 1477.36 -68.0873 1479.53 -71.2103C1485.62 -79.9605 1491.87 -79.0356 1515.09 -75.4218C1533.06 -72.6473 1563.14 -68.0019 1614.74 -63.9825C1788.69 -50.4234 1788.99 -51.5047 1805.99 -108.004C1807.29 -112.322 1808.68 -116.953 1810.26 -121.918C1817.06 -143.467 1829.26 -144.185 1834.15 -143.474C1845.47 -141.873 1852.85 -129.196 1849.64 -116.882C1847.51 -108.679 1845.55 -101.615 1843.82 -95.3621C1836.63 -69.2753 1833.34 -57.3737 1837.08 -36.5441C1840.58 -17.0946 1833.53 -8.97756 1826.95 -5.59844C1823.5 -3.87663 1819.69 -3.00814 1815.83 -3.06587M1493.32 -73.5437C1488.65 -73.5437 1487.41 -72.1992 1485.34 -69.2326C1484.1 -67.447 1484.22 -65.5618 1485.7 -63.6411C1489.08 -59.2447 1498.82 -55.5099 1509.38 -54.5637C1565.31 -49.5839 1682.7 -36.8927 1721.27 -32.7381C1728.97 -31.9058 1733.91 -31.3722 1735.11 -31.2513C1768.42 -27.8579 1781.28 -21.2918 1792.61 -15.6006C1797.47 -13.1321 1802.07 -10.7988 1807.94 -8.92778C1813.82 -7.05681 1819.15 -7.19197 1823.15 -9.25502C1830.35 -12.9685 1833.11 -22.7217 1830.72 -36.0176C1826.84 -57.5587 1830.19 -69.6808 1837.52 -96.2442C1839.25 -102.49 1841.2 -109.547 1843.33 -117.721C1846.09 -128.357 1839.88 -138.11 1832.89 -139.099C1827.96 -139.81 1821.08 -135.399 1816.53 -120.979C1814.97 -116 1813.58 -111.418 1812.26 -107.114C1794.11 -46.6886 1790.39 -45.8064 1614.01 -59.5505C1562.09 -63.5984 1531.8 -68.2723 1513.72 -71.0609C1503.16 -72.69 1497.11 -73.5792 1493.32 -73.5792" fill="#F57B41"/>
<path d="M198.043 367.834C193.656 367.824 189.284 367.316 185.012 366.318C158.852 360.279 163.881 342.693 166.882 332.171C167.459 330.301 167.933 328.402 168.305 326.48C169.315 320.391 170.033 314.735 170.709 309.364C173.554 286.863 175.794 269.092 196.314 246.761C237.482 201.944 233.172 182.629 227.709 158.214C223.157 137.847 217.993 114.769 236.401 72.1356C248.947 42.9969 267.497 15.5869 285.414 -10.9196C301.915 -35.3275 317.506 -58.3838 325.109 -78.623C327.243 -84.3141 329.042 -89.7705 330.763 -94.985C340.401 -124.152 348.012 -147.223 400.161 -163.549C441.962 -176.639 493.144 -181.334 547.335 -186.314C613.389 -192.368 681.691 -198.621 731.209 -221.385C741.786 -226.244 751.836 -229.993 761.559 -233.614C785.109 -242.379 803.701 -249.301 810.522 -265.954L811.183 -267.583L861.412 -267.583L860.367 -264.773C852.408 -243.332 833.054 -226.621 802.847 -215.111L797.442 -213.048C760.3 -198.877 721.892 -184.222 680.34 -175.543C630.125 -165.057 582.478 -159.814 540.443 -155.197C459.622 -146.312 401.228 -139.888 388.105 -103.401C370.658 -54.8838 343.566 -14.5477 319.661 21.0362C292.469 61.5288 268.984 96.5009 272.106 127.745C273.088 137.591 275.356 146.434 277.554 154.985C283.586 178.461 289.283 200.677 265.413 235.97C263.073 239.434 260.783 242.728 258.571 245.929C240.348 272.108 227.183 291.024 232.048 341.519C232.887 350.212 228.228 357.995 219.245 362.861C213.214 366.148 205.845 367.841 198.028 367.841M815.977 -263.073C807.883 -245.751 787.762 -238.26 764.567 -229.638C754.98 -226.081 745.058 -222.374 734.73 -217.629C683.982 -194.303 614.94 -187.971 548.167 -181.853C494.453 -176.93 443.719 -172.278 402.778 -159.459C353.545 -144.043 346.589 -123.042 337.015 -94.0104C335.28 -88.7532 333.459 -83.2613 331.325 -77.5203C323.573 -56.8899 307.854 -33.6344 291.225 -9.02731C273.408 17.3298 254.95 44.5833 242.56 73.3663C224.58 115.047 229.622 137.584 234.075 157.474C239.523 181.833 244.225 202.868 201.734 249.152C182.068 270.572 179.884 287.866 177.124 309.748C176.413 315.155 175.702 320.86 174.699 326.978C174.302 329.022 173.796 331.043 173.184 333.032C169.4 346.264 167.835 357.575 187.039 362.014C197.417 364.405 207.737 363.437 215.34 359.276C222.595 355.327 226.351 348.953 225.661 341.782C220.682 290.092 234.16 270.721 252.817 243.916C255.022 240.743 257.298 237.471 259.63 234.028C282.618 200.03 277.348 179.521 271.252 155.774C269.026 147.102 266.729 138.132 265.719 128.03C262.461 95.6543 286.281 60.1984 313.857 19.1368C337.634 -16.2622 364.584 -56.3919 381.882 -104.482C396.043 -143.858 456.194 -150.467 539.447 -159.629C581.283 -164.225 628.703 -169.44 678.512 -179.84C719.41 -188.377 757.519 -202.925 794.376 -216.982L799.782 -219.052C827.023 -229.431 844.918 -244.235 853.027 -263.073L815.977 -263.073Z" fill="#F57B41"/>
<path d="M-989.809 318.413C-994.07 318.457 -998.29 317.568 -1002.17 315.809C-1010.71 311.761 -1014.37 304.057 -1012.13 294.667C-1009.28 282.672 -1010.37 261.772 -1011.62 237.563C-1013.87 193.393 -1016.69 138.423 -997.626 104.269C-987.668 86.3847 -974.197 73.6792 -909.572 12.7484L-907.908 11.1762C-871.634 -23.0134 -864.18 -53.9306 -854.706 -93.0786C-850.132 -111.973 -844.947 -133.386 -835.786 -157.872C-819.427 -201.538 -804.093 -226.237 -791.752 -246.085C-787.485 -252.986 -783.402 -259.509 -779.718 -266.139L-778.921 -267.562L-776.73 -267.562C-633.284 -267.562 -424.394 -267.811 -203.242 -268.074C31.7576 -268.359 274.766 -268.643 460.682 -268.658C561.311 -268.658 635.332 -268.601 687.126 -268.437C744.446 -268.266 765.364 -268.209 772.946 -267.462C773.057 -267.456 773.169 -267.456 773.28 -267.462L773.28 -267.391C777.285 -266.964 777.292 -266.324 777.299 -265.328C777.306 -264.332 777.299 -263.756 773.344 -263.287L773.295 -263.159C773.145 -263.159 772.925 -263.159 772.647 -263.208C763.614 -262.291 737.084 -262.035 659.266 -261.273C38.2371 -253.932 -309.263 -254.266 -495.982 -254.444C-734.069 -254.657 -734.254 -254.401 -743.031 -240.266C-793.9 -158.527 -806.511 -110.081 -816.639 -71.2103C-826.213 -34.4597 -833.126 -7.89628 -868.298 27.1825C-885.816 44.6615 -900.575 58.7969 -912.396 70.1578C-947.048 103.351 -961.387 117.11 -967.874 139.874C-978.465 177.208 -970.115 258.485 -964.403 291.992C-962.547 302.897 -967.312 311.64 -977.476 315.994C-981.371 317.622 -985.553 318.452 -989.774 318.434M-774.554 -263.073C-778.068 -256.856 -781.873 -250.738 -785.884 -244.285C-798.132 -224.58 -813.381 -200.058 -829.598 -156.727C-838.688 -132.433 -843.823 -111.127 -848.397 -92.3245C-858.013 -52.586 -865.609 -21.1851 -902.773 13.8581L-904.437 15.4303C-968.635 75.9841 -981.964 88.5759 -991.666 105.913C-1010.24 139.199 -1007.46 193.649 -1005.22 237.407C-1003.96 261.85 -1002.88 282.936 -1005.81 295.392C-1007.6 302.976 -1004.96 309.058 -998.572 312.074C-993.408 314.514 -986.481 314.536 -980.848 312.131C-972.91 308.738 -969.247 301.581 -970.797 292.504C-977.604 252.524 -984.546 175.48 -974.19 138.978C-967.44 115.196 -952.852 101.224 -917.595 67.4545C-905.76 56.1149 -891.023 41.9938 -873.54 24.5575C-839.179 -9.7317 -832.365 -35.8754 -822.941 -72.064C-812.756 -111.191 -800.074 -159.886 -749.048 -241.881C-738.258 -259.217 -738.273 -259.239 -495.961 -258.954C-324.548 -258.784 -17.4971 -258.492 512.433 -264.133C320.024 -264.211 48.9913 -263.856 -203.25 -263.557C-423.285 -263.294 -631.178 -263.052 -774.554 -263.045" fill="#F57B41"/>
<path d="M-163.312 825.722C-170.064 825.722 -176.982 825.513 -184.067 825.096C-231.529 822.251 -265.748 807.966 -299.49 792.372C-312.214 786.475 -324.135 781.125 -335.202 776.159C-423.462 736.563 -459.992 720.173 -418.697 642.858C-360.715 534.3 -351.725 428.494 -350.508 408.383C-350.437 407.223 -350.437 407.223 -350.337 406.96C-347.492 399.32 -339.846 393.949 -328.779 391.836C-316.162 389.417 -301.268 391.971 -292.562 398.039C-285.449 403.019 -283.003 409.792 -285.791 417.069C-287.967 422.76 -289.937 432.876 -292.662 446.855C-301.04 489.873 -316.645 569.926 -367.927 659.178C-391.861 700.823 -372.131 710.398 -298.729 746.025C-285.407 752.484 -270.278 759.812 -253.542 768.291C-201.379 794.67 -155.552 800.503 -109.278 786.638C-89.3127 780.655 -67.8469 769.088 -78.9212 747.967C-86.9869 732.594 -100.828 720.422 -115.473 707.538C-141.619 684.546 -168.646 660.764 -158.86 618.28C-153.39 594.484 -147.65 574.23 -142.586 556.388C-131.362 516.785 -123.254 488.18 -127.031 454.296C-130.587 422.54 -141.619 393.494 -153.347 362.754C-159.187 347.409 -165.225 331.545 -170.496 314.835C-219.48 159.616 -215.419 142.813 -200.29 80.3095C-197.765 69.8805 -194.906 58.0572 -191.94 44.1138C-188.633 28.5201 -186.058 14.1428 -183.782 1.43019C-170.268 -74.1341 -164.066 -108.622 -49.8378 -131.152C5.37009 -142.044 190.795 -174.967 259.14 -141.396C274.873 -133.671 283.579 -122.9 285.016 -109.384C287.583 -85.1606 276.694 -67.6248 256.921 -35.7828C241.081 -10.2722 219.388 24.6857 193.619 80.2242C178.725 112.379 185.262 153.206 189.586 180.218C191.898 194.623 193.562 205.031 191.869 210.651C187.68 224.573 168.519 229.859 152.615 227.76C137.863 225.782 124.477 217.168 128.034 202.335C131.419 188.029 130.58 173.815 129.335 159.296C123.439 90.767 160.631 27.4388 190.504 -23.4401C213.812 -63.2212 232.247 -94.6151 216.628 -109.227C207.019 -118.205 183.796 -121.179 145.666 -118.304C86.4038 -113.844 -16.9776 -96.1303 -53.8635 -85.6586C-92.8903 -74.5822 -99.4908 -56.3492 -115.437 -12.2926C-118.282 -4.36055 -121.476 4.39671 -125.189 14.093C-168.575 127.553 -135.587 222.119 -103.666 313.59C-88.4094 357.262 -73.9993 398.551 -67.5624 441.534C-61.346 483.044 -73.1814 523.152 -83.6226 558.537C-96.1408 600.964 -106.952 637.601 -83.2172 663.46C-79.3906 667.629 -74.4118 672.474 -68.6506 678.079C-36.4591 709.381 17.4117 761.789 -38.3652 796.918C-60.4996 810.854 -105.33 825.722 -163.305 825.722M-318.786 395.379C-321.571 395.372 -324.35 395.627 -327.087 396.14C-335.835 397.819 -341.888 402.052 -344.157 408.063L-344.157 408.54C-345.373 428.764 -354.42 535.203 -412.743 644.409C-452.218 718.309 -419.429 733.02 -331.802 772.339C-320.707 777.319 -308.764 782.676 -296.012 788.58C-262.988 803.875 -229.537 817.84 -183.576 820.593C-117.635 824.556 -66.4742 808.499 -42.7466 793.56C8.74145 761.135 -41.0253 712.731 -73.9566 680.697C-79.7676 675.006 -84.7891 670.162 -88.7081 665.886C-113.865 638.483 -102.812 601.007 -90.0026 557.619C-79.6609 522.555 -67.9536 482.809 -74.042 441.989C-80.4433 399.306 -94.7894 358.18 -109.989 314.65C-142.102 222.645 -175.311 127.553 -131.476 12.9334C-127.778 3.2727 -124.612 -5.47032 -121.746 -13.3881C-105.145 -59.0454 -98.3101 -77.8973 -56.2747 -89.8274C-19.019 -100.406 85.2658 -118.283 145.012 -122.779C186.144 -125.881 210.547 -122.423 221.792 -111.93C239.573 -95.2909 221.486 -64.4377 196.421 -21.7257C166.797 28.7264 129.933 91.5211 135.744 159.025C137.01 173.808 137.878 188.299 134.364 203.075C131.37 215.716 143.006 221.884 153.881 223.314C166.805 225.05 182.331 220.831 185.667 209.698C187.146 204.796 185.447 194.161 183.284 180.701C178.903 153.299 172.274 111.888 187.595 78.8156C213.385 23.0495 235.164 -12.0009 251.082 -37.5968C271.075 -69.7945 281.104 -85.9716 278.657 -109.071C277.37 -121.164 269.581 -130.839 255.506 -137.754C189.458 -170.201 6.46542 -137.626 -48.0597 -126.87C-158.219 -105.144 -163.831 -73.7926 -177.402 1.9495C-179.678 14.6621 -182.26 29.075 -185.582 44.7114C-188.547 58.6974 -191.414 70.5492 -193.946 80.9925C-208.882 142.813 -212.929 159.431 -164.215 313.789C-158.973 330.407 -152.956 346.229 -147.145 361.523C-135.367 392.469 -124.25 421.7 -120.665 453.877C-116.817 488.372 -124.997 517.248 -136.313 557.199C-141.37 575.027 -147.102 595.245 -152.551 618.948C-161.861 659.498 -136.903 681.437 -110.458 704.686C-96.1337 717.291 -81.2968 730.296 -72.904 746.366C-62.9037 765.439 -74.9239 781.189 -106.753 790.736C-155.296 805.284 -203.128 799.273 -257.298 771.898C-274.02 763.44 -289.084 756.127 -302.377 749.674C-375.196 714.332 -399.727 702.43 -373.88 657.456C-322.89 568.745 -307.356 489.027 -299.013 446.172C-296.261 432.037 -294.269 421.828 -291.986 415.838C-289.212 408.582 -293.231 403.851 -297.093 401.155C-302.413 397.449 -310.607 395.343 -318.793 395.343" fill="#F57B41"/>
<path d="M-934.73 192.567C-937.872 192.572 -940.976 191.871 -943.812 190.519C-954.175 185.539 -959.055 172.734 -948.329 157.93C-913.634 109.975 -881.399 79.4985 -855.502 55.0123C-823.56 24.7994 -800.48 2.97384 -793.993 -32.3611C-785.223 -80.3873 -767.442 -145.836 -733.031 -185.14C-699.331 -223.598 -654.693 -223.69 -466.835 -224.075L-462.311 -224.075C-449.203 -223.833 -436.756 -223.669 -424.793 -223.513C-352.955 -222.559 -296.282 -221.805 -220.661 -205.571C-186.101 -198.151 -163.725 -195.704 -107.984 -205.194C56.1535 -233.195 183.191 -223.619 259.097 -217.9C287.455 -215.765 309.852 -214.065 324.355 -215.054C336.944 -215.915 350.842 -218.455 366.938 -221.407C387.237 -225.12 410.247 -229.325 439.437 -231.992C466.187 -234.432 546.126 -237.997 589.043 -239.903C605.032 -240.614 616.576 -241.134 618.318 -241.269C659.906 -244.605 676.698 -247.323 684.771 -248.625C692.538 -249.877 694.217 -250.048 700.853 -248.625C710.526 -246.555 715.725 -241.468 714.416 -235.371C712.766 -227.639 700.81 -219.657 683.662 -219.657C683.569 -219.657 683.455 -219.657 683.363 -219.657C674.714 -219.657 671.769 -219.372 663.206 -218.526C652.537 -217.48 632.757 -215.524 582.087 -212.251C449.33 -203.679 423.056 -199.78 368.368 -186.833C321.354 -175.714 296.182 -177.848 258.066 -181.028C221.486 -184.094 171.385 -188.299 76.3604 -181.782C-5.24231 -176.191 -49.5325 -168.977 -85.1309 -163.193C-108.439 -159.402 -128.575 -156.129 -153.348 -154.209C-189.722 -151.363 -217.845 -158.299 -256.765 -167.846C-269.148 -170.884 -283.188 -174.334 -298.829 -177.77C-381.249 -195.911 -533.701 -187.089 -624.784 -181.818L-629.052 -181.569C-661.315 -179.705 -685.241 -177.073 -699.068 -160.163C-720.235 -134.304 -735.044 -102.54 -744.333 -63.0008C-747.384 -50.0036 -749.71 -39.3398 -751.659 -30.3976C-761.901 16.5543 -761.901 16.5543 -801.61 54.7206C-819.015 71.4455 -845.324 96.6929 -883.924 137.242C-898.861 152.893 -904.779 163.72 -909.11 171.624C-912.666 178.183 -915.511 183.362 -921.6 188.093C-925.35 191.001 -929.963 192.575 -934.708 192.567M-462.383 -219.586L-466.792 -219.586C-651.762 -219.209 -695.711 -219.116 -727.54 -182.792C-761.382 -144.157 -778.886 -79.3558 -787.606 -31.7991C-794.306 4.70254 -817.806 26.9265 -850.324 57.68C-876.079 82.0382 -908.136 112.344 -942.589 159.957C-951.544 172.335 -948.023 183.028 -940.164 186.798C-935.605 188.989 -930.583 188.356 -926.372 185.076C-921.109 180.965 -918.591 176.369 -915.099 170.009C-910.654 161.906 -904.565 150.801 -889.266 134.738C-850.588 94.1318 -824.235 68.8205 -806.76 52.06C-767.975 14.7972 -767.975 14.7972 -757.968 -31.0806C-756.019 -40.0441 -753.7 -50.7221 -750.627 -63.7335C-741.21 -103.799 -726.153 -136.075 -704.595 -162.404C-687.994 -182.679 -658.277 -184.4 -629.543 -186.058L-625.275 -186.307C-527.833 -191.948 -380.495 -200.463 -296.873 -182.074C-281.133 -178.609 -267.042 -175.152 -254.61 -172.114C-216.493 -162.76 -188.961 -156.008 -154.016 -158.705C-129.62 -160.597 -109.655 -163.841 -86.5463 -167.597C-50.77 -173.416 -6.25226 -180.658 75.763 -186.285C171.498 -192.844 221.998 -188.604 258.862 -185.517C296.104 -182.394 320.742 -180.331 366.405 -191.151C421.677 -204.234 448.15 -208.175 581.596 -216.761C632.095 -220.02 651.819 -221.962 662.402 -223.007C671.065 -223.861 674.358 -224.188 683.462 -224.188C683.559 -224.199 683.657 -224.199 683.754 -224.188C697.268 -224.188 706.941 -230.349 708.165 -236.062C709.004 -239.967 705.768 -242.912 699.068 -244.349C693.854 -245.473 693.427 -245.402 686.265 -244.25C678.085 -242.926 661.051 -240.173 619.101 -236.808C617.202 -236.659 606.184 -236.168 589.505 -235.421C546.645 -233.515 466.856 -229.965 440.319 -227.539C411.534 -224.914 388.731 -220.738 368.61 -217.06C352.251 -214.058 338.125 -211.476 325.031 -210.579C309.881 -209.562 287.192 -211.291 258.464 -213.425C182.978 -219.116 56.6443 -228.627 -106.412 -200.826C-163.689 -191.052 -186.784 -193.598 -222.489 -201.26C-297.271 -217.316 -350.8 -218.028 -424.885 -219.009C-436.848 -219.166 -449.302 -219.33 -462.404 -219.571" fill="#F57B41"/>
<path d="M648.582 1058.09C635.317 1058.09 615.409 1052.93 555.308 1034.53C493.222 1015.53 477.069 969.594 459.999 920.963C448.961 889.52 437.545 857.009 413.39 828.411C343.986 746.273 357.201 738.185 483.748 660.821C515.257 641.571 554.44 617.618 601.248 587.128C669.529 542.644 728.037 506.356 775.051 477.196C917.801 388.656 971.209 355.548 960.69 307.842C959.659 303.153 956.92 299.746 952.34 297.427C941.55 291.977 922.154 293.365 904.614 295.442C835.622 303.623 739.488 355.384 654.678 401.041C603.553 428.572 555.265 454.574 515.271 470.267C482.738 483.072 465.618 494.156 441.933 509.536C414.28 527.499 379.862 549.843 304.703 585.655C286.289 594.441 214.7 620.961 190.503 615.811C170.396 611.493 162.245 595.536 164.791 582.724C167.195 570.737 179.144 557.733 205.561 557.377C268.393 556.474 325.899 521.053 376.626 489.795L379.542 488.016C434.721 454.047 456.82 444.216 500.847 424.624C537.683 408.262 588.14 385.782 685.12 337.122L697.176 331.069C774.226 292.269 820.743 268.907 887.708 259.694C909.223 256.742 925.547 257.98 939.943 259.075C958.912 260.498 972.604 261.558 989.019 252.31C994.52 249.208 1000.03 246.126 1005.54 243.062C1039.96 223.854 1075.55 203.935 1106.13 180.893L1129.44 163.301C1249.27 72.797 1249.27 72.797 1340.15 71.5307C1352.78 71.36 1367.1 71.1608 1383.8 70.6842C1387.03 70.5988 1390.99 70.1862 1395.18 69.7451C1405.53 68.6709 1418.43 67.3335 1429.86 69.8732C1439.82 72.0856 1445.86 79.0004 1444.63 86.6905C1443.29 95.0138 1432.54 105.272 1406.65 106.787C1389.58 107.783 1374.83 108.559 1361.92 109.227C1276.57 113.674 1273.21 113.852 1226.07 148.148C1206.54 162.376 1190.09 174.469 1175.68 185.14C1120.92 225.64 1095.89 244.122 1042.78 271.07C1026.79 279.179 1017.12 284.693 1019.7 295.257C1035.34 359.574 978.045 401.319 857.337 482.247C719.922 574.372 542.171 693.068 475.747 735.354C471.123 738.299 470.291 738.825 468.975 739.864C451.727 753.587 451.72 768.547 468.975 789.903C491.736 818.096 498.734 845.911 506.16 875.356C511.231 895.481 516.48 916.297 527.227 937.496C557.328 996.855 605.822 1009.03 641.235 1017.92C651.847 1020.58 661.015 1022.9 668 1026.11C677.516 1030.51 682.175 1036.61 680.802 1042.87C679.38 1049.36 671.556 1054.59 659.891 1056.86C656.196 1057.64 652.431 1058.05 648.654 1058.08M929.864 289.132C939.921 289.132 949.203 290.313 956.074 293.777C962.034 296.794 965.719 301.297 967.013 307.159C978.087 357.269 923.932 390.84 779.305 480.561C732.312 509.728 673.825 546.009 605.615 590.421C558.736 620.954 519.51 644.935 488.002 664.207C359.904 742.517 352.258 747.205 418.938 826.12C443.583 855.287 455.106 888.125 466.258 919.889C482.952 967.41 498.699 1012.31 557.883 1030.4C637.544 1054.78 644.863 1055.13 658.099 1052.54C667.246 1050.76 673.341 1046.85 674.394 1042.18C675.383 1037.75 671.748 1033.26 664.436 1029.88C658.099 1026.95 649.272 1024.73 639.044 1022.17C604.484 1013.49 552.271 1000.38 521.153 939.011C510.228 917.463 504.929 896.463 499.816 876.153C492.49 847.092 485.59 819.661 463.363 792.13C450.881 776.65 439.686 756.389 464.174 736.904C465.718 735.681 466.706 735.055 471.443 732.031C537.804 689.782 715.533 571.114 852.892 479.01C971.935 399.199 1028.49 358.08 1013.37 296.025C1009.99 282.182 1024.09 275.025 1039.01 267.484C1091.65 240.786 1116.54 222.396 1171.02 182.117C1185.45 171.446 1201.9 159.295 1221.44 145.082C1270.31 109.548 1275.46 109.284 1361.46 104.803C1374.36 104.127 1389.1 103.38 1406.13 102.363C1428.13 101.075 1437.16 93.1927 1438.26 86.2495C1439.17 80.6295 1435.01 75.792 1427.94 74.2198C1417.91 71.9931 1406.34 73.1954 1396.13 74.2198C1391.76 74.6751 1387.64 75.1019 1384.04 75.2086C1367.27 75.6782 1352.92 75.8702 1340.26 76.0481C1252.1 77.2503 1252.1 77.2503 1134.14 166.345L1110.82 183.952C1079.91 207.229 1044.13 227.233 1009.53 246.555C1004.02 249.638 998.519 252.72 993.024 255.803C974.531 266.225 958.172 264.987 939.231 263.543C925.283 262.483 909.472 261.288 888.924 264.098C823.325 273.104 777.256 296.274 700.896 334.668L688.804 340.722C591.724 389.502 541.189 411.99 504.289 428.409C460.547 447.872 438.583 457.64 383.781 491.381L380.85 493.188C329.291 524.945 270.854 560.934 205.674 561.88C183.32 562.2 173.191 573.191 171.171 583.364C168.988 594.341 175.688 607.943 192.402 611.528C212.09 615.797 278.401 592.79 301.118 581.963C375.872 546.35 410.09 524.098 437.58 506.242C460.689 491.232 478.947 479.38 512.113 466.34C551.702 450.81 599.811 424.908 650.752 397.477C740.321 349.252 832.941 299.376 903.519 291.01C912.248 289.876 921.034 289.249 929.836 289.132" fill="#F57B41"/>
</g>
<path d="M66.5585 116.174C67.851 116.583 68.8634 117.272 69.5958 118.242C70.3282 119.189 70.6944 120.363 70.6944 121.764C70.6944 123.745 69.919 125.275 68.368 126.352C66.8386 127.407 64.5983 127.935 61.6472 127.935H49.9503V105.317H61.0009C63.7582 105.317 65.8692 105.845 67.334 106.9C68.8204 107.956 69.5635 109.388 69.5635 111.198C69.5635 112.296 69.2943 113.276 68.7557 114.138C68.2387 115 67.5063 115.678 66.5585 116.174ZM55.1525 109.259V114.59H60.3547C61.6472 114.59 62.6273 114.364 63.2951 113.912C63.9628 113.459 64.2967 112.792 64.2967 111.908C64.2967 111.025 63.9628 110.368 63.2951 109.937C62.6273 109.485 61.6472 109.259 60.3547 109.259H55.1525ZM61.2594 123.993C62.6381 123.993 63.672 123.767 64.3613 123.314C65.0722 122.862 65.4276 122.162 65.4276 121.214C65.4276 119.34 64.0382 118.403 61.2594 118.403H55.1525V123.993H61.2594ZM85.6111 128.323C83.2631 128.323 81.1413 127.817 79.2457 126.804C77.3716 125.792 75.896 124.402 74.819 122.636C73.7635 120.848 73.2357 118.845 73.2357 116.626C73.2357 114.407 73.7635 112.415 74.819 110.648C75.896 108.86 77.3716 107.46 79.2457 106.448C81.1413 105.435 83.2631 104.929 85.6111 104.929C87.9591 104.929 90.0701 105.435 91.9442 106.448C93.8182 107.46 95.2938 108.86 96.3709 110.648C97.4479 112.415 97.9865 114.407 97.9865 116.626C97.9865 118.845 97.4479 120.848 96.3709 122.636C95.2938 124.402 93.8182 125.792 91.9442 126.804C90.0701 127.817 87.9591 128.323 85.6111 128.323ZM85.6111 123.864C86.9466 123.864 88.1529 123.562 89.23 122.959C90.307 122.334 91.1471 121.473 91.7503 120.374C92.375 119.276 92.6873 118.026 92.6873 116.626C92.6873 115.226 92.375 113.976 91.7503 112.878C91.1471 111.779 90.307 110.928 89.23 110.325C88.1529 109.7 86.9466 109.388 85.6111 109.388C84.2755 109.388 83.0692 109.7 81.9922 110.325C80.9151 110.928 80.0642 111.779 79.4395 112.878C78.8364 113.976 78.5348 115.226 78.5348 116.626C78.5348 118.026 78.8364 119.276 79.4395 120.374C80.0642 121.473 80.9151 122.334 81.9922 122.959C83.0692 123.562 84.2755 123.864 85.6111 123.864ZM101.92 105.317H112.196C114.651 105.317 116.816 105.791 118.69 106.739C120.586 107.665 122.051 108.979 123.085 110.681C124.14 112.382 124.668 114.364 124.668 116.626C124.668 118.888 124.14 120.87 123.085 122.571C122.051 124.273 120.586 125.598 118.69 126.546C116.816 127.472 114.651 127.935 112.196 127.935H101.92V105.317ZM111.937 123.638C114.199 123.638 115.998 123.013 117.333 121.764C118.69 120.493 119.369 118.78 119.369 116.626C119.369 114.472 118.69 112.77 117.333 111.521C115.998 110.25 114.199 109.614 111.937 109.614H107.155V123.638H111.937ZM138.494 119.922V127.935H133.259V119.857L124.503 105.317H130.061L136.103 115.366L142.145 105.317H147.283L138.494 119.922ZM192.809 105.317L185.41 127.935H179.788L174.812 112.619L169.674 127.935H164.084L156.653 105.317H162.081L167.186 121.214L172.518 105.317H177.364L182.534 121.343L187.801 105.317H192.809ZM209.87 123.088H199.369L197.365 127.935H192.002L202.083 105.317H207.253L217.366 127.935H211.873L209.87 123.088ZM208.222 119.114L204.635 110.454L201.049 119.114H208.222ZM227.145 128.323C225.357 128.323 223.623 128.086 221.942 127.612C220.284 127.116 218.948 126.481 217.936 125.706L219.713 121.764C220.682 122.474 221.835 123.045 223.17 123.476C224.506 123.907 225.841 124.122 227.177 124.122C228.663 124.122 229.762 123.907 230.473 123.476C231.184 123.024 231.539 122.431 231.539 121.699C231.539 121.16 231.324 120.719 230.893 120.374C230.484 120.008 229.945 119.717 229.277 119.502C228.631 119.286 227.748 119.049 226.628 118.791C224.904 118.382 223.493 117.972 222.395 117.563C221.296 117.154 220.348 116.497 219.551 115.592C218.776 114.687 218.388 113.481 218.388 111.973C218.388 110.659 218.744 109.474 219.454 108.419C220.165 107.342 221.232 106.491 222.653 105.866C224.097 105.241 225.852 104.929 227.92 104.929C229.363 104.929 230.774 105.101 232.153 105.446C233.532 105.791 234.738 106.286 235.772 106.932L234.156 110.907C232.067 109.722 229.977 109.13 227.888 109.13C226.423 109.13 225.335 109.367 224.624 109.841C223.935 110.314 223.59 110.939 223.59 111.715C223.59 112.49 223.989 113.072 224.786 113.459C225.604 113.826 226.843 114.192 228.502 114.558C230.225 114.967 231.636 115.377 232.735 115.786C233.833 116.195 234.77 116.841 235.546 117.725C236.343 118.608 236.741 119.803 236.741 121.311C236.741 122.604 236.375 123.788 235.643 124.865C234.932 125.921 233.855 126.761 232.411 127.386C230.968 128.01 229.213 128.323 227.145 128.323ZM261.062 105.317V127.935H255.828V118.662H245.552V127.935H240.318V105.317H245.552V114.235H255.828V105.317H261.062Z" fill="white"/>
<path d="M130.628 208.632C129.685 208.632 128.833 208.425 128.07 208.012C127.316 207.59 126.723 207.016 126.292 206.289C125.862 205.553 125.646 204.727 125.646 203.812C125.646 202.896 125.862 202.075 126.292 201.348C126.723 200.612 127.32 200.037 128.083 199.625C128.846 199.203 129.699 198.992 130.641 198.992C131.377 198.992 132.05 199.118 132.661 199.369C133.271 199.611 133.791 199.975 134.222 200.459L133.347 201.308C132.638 200.563 131.754 200.19 130.695 200.19C129.995 200.19 129.362 200.347 128.797 200.661C128.231 200.975 127.787 201.411 127.464 201.967C127.15 202.515 126.993 203.13 126.993 203.812C126.993 204.494 127.15 205.113 127.464 205.67C127.787 206.217 128.231 206.648 128.797 206.962C129.362 207.276 129.995 207.433 130.695 207.433C131.745 207.433 132.629 207.056 133.347 206.302L134.222 207.151C133.791 207.635 133.266 208.003 132.647 208.255C132.037 208.506 131.364 208.632 130.628 208.632ZM135.954 198.534H137.247V208.524H135.954V198.534ZM139.715 201.388H141.007V208.524H139.715V201.388ZM140.361 200.015C140.11 200.015 139.899 199.934 139.728 199.773C139.567 199.611 139.486 199.414 139.486 199.18C139.486 198.947 139.567 198.75 139.728 198.588C139.899 198.417 140.11 198.332 140.361 198.332C140.612 198.332 140.819 198.413 140.98 198.574C141.151 198.727 141.236 198.92 141.236 199.153C141.236 199.396 141.151 199.602 140.98 199.773C140.819 199.934 140.612 200.015 140.361 200.015ZM146.585 208.605C145.858 208.605 145.207 208.448 144.633 208.133C144.067 207.819 143.623 207.388 143.3 206.841C142.977 206.284 142.815 205.656 142.815 204.956C142.815 204.256 142.977 203.632 143.3 203.085C143.623 202.528 144.067 202.097 144.633 201.792C145.207 201.478 145.858 201.321 146.585 201.321C147.231 201.321 147.806 201.451 148.308 201.711C148.82 201.972 149.215 202.349 149.493 202.842L148.51 203.475C148.286 203.134 148.007 202.878 147.675 202.708C147.343 202.537 146.975 202.452 146.571 202.452C146.105 202.452 145.683 202.555 145.306 202.762C144.938 202.968 144.646 203.264 144.431 203.65C144.224 204.027 144.121 204.462 144.121 204.956C144.121 205.459 144.224 205.903 144.431 206.289C144.646 206.666 144.938 206.958 145.306 207.164C145.683 207.37 146.105 207.474 146.571 207.474C146.975 207.474 147.343 207.388 147.675 207.218C148.007 207.047 148.286 206.792 148.51 206.45L149.493 207.07C149.215 207.563 148.82 207.945 148.308 208.214C147.806 208.474 147.231 208.605 146.585 208.605ZM153.848 205.198L152.367 206.572V208.524H151.074V198.534H152.367V204.943L156.258 201.388H157.819L154.817 204.337L158.115 208.524H156.527L153.848 205.198ZM171.912 201.321C172.81 201.321 173.519 201.581 174.039 202.102C174.569 202.622 174.834 203.394 174.834 204.418V208.524H173.541V204.566C173.541 203.875 173.38 203.354 173.056 203.004C172.742 202.654 172.289 202.479 171.697 202.479C171.041 202.479 170.521 202.685 170.135 203.098C169.749 203.502 169.556 204.085 169.556 204.848V208.524H168.264V204.566C168.264 203.875 168.102 203.354 167.779 203.004C167.465 202.654 167.012 202.479 166.419 202.479C165.764 202.479 165.243 202.685 164.857 203.098C164.471 203.502 164.278 204.085 164.278 204.848V208.524H162.986V201.388H164.225V202.452C164.485 202.084 164.826 201.806 165.248 201.617C165.67 201.42 166.15 201.321 166.688 201.321C167.245 201.321 167.739 201.433 168.169 201.658C168.6 201.882 168.932 202.21 169.166 202.64C169.435 202.228 169.807 201.904 170.283 201.671C170.768 201.438 171.311 201.321 171.912 201.321ZM183.7 204.996C183.7 205.095 183.691 205.225 183.673 205.387H177.884C177.965 206.015 178.239 206.522 178.705 206.908C179.181 207.285 179.769 207.474 180.469 207.474C181.322 207.474 182.008 207.186 182.529 206.612L183.242 207.447C182.919 207.824 182.515 208.111 182.031 208.308C181.555 208.506 181.021 208.605 180.429 208.605C179.675 208.605 179.006 208.452 178.423 208.147C177.839 207.833 177.386 207.397 177.063 206.841C176.749 206.284 176.592 205.656 176.592 204.956C176.592 204.265 176.744 203.641 177.049 203.085C177.363 202.528 177.79 202.097 178.328 201.792C178.876 201.478 179.491 201.321 180.173 201.321C180.855 201.321 181.461 201.478 181.99 201.792C182.529 202.097 182.946 202.528 183.242 203.085C183.548 203.641 183.7 204.278 183.7 204.996ZM180.173 202.412C179.553 202.412 179.033 202.6 178.611 202.977C178.198 203.354 177.956 203.848 177.884 204.458H182.461C182.39 203.857 182.143 203.367 181.721 202.99C181.308 202.604 180.792 202.412 180.173 202.412Z" fill="white"/>
<path d="M125 209.87H184.266V210.543H125V209.87Z" fill="white"/>
</svg>
