<svg width="320" height="320" viewBox="0 0 320 320" fill="none" xmlns="http://www.w3.org/2000/svg">
<rect width="320" height="320" fill="#F26522"/>
<g clip-path="url(#clip0_1117_286)">
<path d="M104.113 160.709L110.866 164.75L109.074 157.134L115.041 152.01L107.184 151.349L104.113 144.167L101.042 151.349L93.1855 152.01L99.152 157.134L97.3599 164.75L104.113 160.709Z" fill="white"/>
</g>
<g clip-path="url(#clip1_1117_286)">
<path d="M131.846 160.709L138.6 164.75L136.808 157.134L142.774 152.01L134.917 151.349L131.846 144.167L128.776 151.349L120.919 152.01L126.885 157.134L125.093 164.75L131.846 160.709Z" fill="white"/>
</g>
<g clip-path="url(#clip2_1117_286)">
<path d="M159.58 160.709L166.333 164.75L164.541 157.134L170.507 152.01L162.65 151.349L159.58 144.167L156.509 151.349L148.652 152.01L154.619 157.134L152.826 164.75L159.58 160.709Z" fill="white"/>
</g>
<g clip-path="url(#clip3_1117_286)">
<path d="M187.313 160.709L194.066 164.75L192.274 157.134L198.241 152.01L190.384 151.349L187.313 144.167L184.242 151.349L176.385 152.01L182.352 157.134L180.56 164.75L187.313 160.709Z" fill="white"/>
</g>
<g clip-path="url(#clip4_1117_286)">
<path d="M215.046 160.709L221.8 164.75L220.008 157.134L225.974 152.01L218.117 151.349L215.046 144.167L211.976 151.349L204.119 152.01L210.085 157.134L208.293 164.75L215.046 160.709Z" fill="white"/>
</g>
<path d="M88.0992 70V53.2H96.3072C98.4192 53.2 100.003 53.6 101.059 54.4C102.131 55.2 102.667 56.256 102.667 57.568C102.667 58.448 102.451 59.216 102.019 59.872C101.587 60.512 100.995 61.008 100.243 61.36C99.4912 61.712 98.6272 61.888 97.6512 61.888L98.1072 60.904C99.1632 60.904 100.099 61.08 100.915 61.432C101.731 61.768 102.363 62.272 102.811 62.944C103.275 63.616 103.507 64.44 103.507 65.416C103.507 66.856 102.939 67.984 101.803 68.8C100.667 69.6 98.9952 70 96.7872 70H88.0992ZM91.9632 67.072H96.4992C97.5072 67.072 98.2672 66.912 98.7792 66.592C99.3072 66.256 99.5712 65.728 99.5712 65.008C99.5712 64.304 99.3072 63.784 98.7792 63.448C98.2672 63.096 97.5072 62.92 96.4992 62.92H91.6752V60.088H95.8272C96.7712 60.088 97.4912 59.928 97.9872 59.608C98.4992 59.272 98.7552 58.768 98.7552 58.096C98.7552 57.44 98.4992 56.952 97.9872 56.632C97.4912 56.296 96.7712 56.128 95.8272 56.128H91.9632V67.072ZM111.611 70.192C110.235 70.192 109.011 69.904 107.939 69.328C106.883 68.752 106.043 67.968 105.419 66.976C104.811 65.968 104.507 64.824 104.507 63.544C104.507 62.248 104.811 61.104 105.419 60.112C106.043 59.104 106.883 58.32 107.939 57.76C109.011 57.184 110.235 56.896 111.611 56.896C112.971 56.896 114.187 57.184 115.259 57.76C116.331 58.32 117.171 59.096 117.779 60.088C118.387 61.08 118.691 62.232 118.691 63.544C118.691 64.824 118.387 65.968 117.779 66.976C117.171 67.968 116.331 68.752 115.259 69.328C114.187 69.904 112.971 70.192 111.611 70.192ZM111.611 67.12C112.235 67.12 112.795 66.976 113.291 66.688C113.787 66.4 114.179 65.992 114.467 65.464C114.755 64.92 114.899 64.28 114.899 63.544C114.899 62.792 114.755 62.152 114.467 61.624C114.179 61.096 113.787 60.688 113.291 60.4C112.795 60.112 112.235 59.968 111.611 59.968C110.987 59.968 110.427 60.112 109.931 60.4C109.435 60.688 109.035 61.096 108.731 61.624C108.443 62.152 108.299 62.792 108.299 63.544C108.299 64.28 108.443 64.92 108.731 65.464C109.035 65.992 109.435 66.4 109.931 66.688C110.427 66.976 110.987 67.12 111.611 67.12ZM126.017 70.192C124.801 70.192 123.705 69.92 122.729 69.376C121.753 68.816 120.977 68.04 120.401 67.048C119.841 66.056 119.561 64.888 119.561 63.544C119.561 62.184 119.841 61.008 120.401 60.016C120.977 59.024 121.753 58.256 122.729 57.712C123.705 57.168 124.801 56.896 126.017 56.896C127.105 56.896 128.057 57.136 128.873 57.616C129.689 58.096 130.321 58.824 130.769 59.8C131.217 60.776 131.441 62.024 131.441 63.544C131.441 65.048 131.225 66.296 130.793 67.288C130.361 68.264 129.737 68.992 128.921 69.472C128.121 69.952 127.153 70.192 126.017 70.192ZM126.665 67.12C127.273 67.12 127.825 66.976 128.321 66.688C128.817 66.4 129.209 65.992 129.497 65.464C129.801 64.92 129.953 64.28 129.953 63.544C129.953 62.792 129.801 62.152 129.497 61.624C129.209 61.096 128.817 60.688 128.321 60.4C127.825 60.112 127.273 59.968 126.665 59.968C126.041 59.968 125.481 60.112 124.985 60.4C124.489 60.688 124.089 61.096 123.785 61.624C123.497 62.152 123.353 62.792 123.353 63.544C123.353 64.28 123.497 64.92 123.785 65.464C124.089 65.992 124.489 66.4 124.985 66.688C125.481 66.976 126.041 67.12 126.665 67.12ZM130.049 70V67.36L130.121 63.52L129.881 59.704V52.192H133.625V70H130.049ZM138.002 74.848C137.33 74.848 136.666 74.744 136.01 74.536C135.354 74.328 134.818 74.04 134.402 73.672L135.77 71.008C136.058 71.264 136.386 71.464 136.754 71.608C137.138 71.752 137.514 71.824 137.882 71.824C138.41 71.824 138.826 71.696 139.13 71.44C139.45 71.2 139.738 70.792 139.994 70.216L140.666 68.632L140.954 68.224L145.586 57.088H149.186L143.354 70.792C142.938 71.832 142.458 72.648 141.914 73.24C141.386 73.832 140.794 74.248 140.138 74.488C139.498 74.728 138.786 74.848 138.002 74.848ZM140.21 70.504L134.45 57.088H138.314L142.778 67.888L140.21 70.504ZM161.855 70.288C160.511 70.288 159.223 70.112 157.991 69.76C156.759 69.392 155.767 68.92 155.015 68.344L156.335 65.416C157.055 65.928 157.903 66.352 158.879 66.688C159.871 67.008 160.871 67.168 161.879 67.168C162.647 67.168 163.263 67.096 163.727 66.952C164.207 66.792 164.559 66.576 164.783 66.304C165.007 66.032 165.119 65.72 165.119 65.368C165.119 64.92 164.943 64.568 164.591 64.312C164.239 64.04 163.775 63.824 163.199 63.664C162.623 63.488 161.983 63.328 161.279 63.184C160.591 63.024 159.895 62.832 159.191 62.608C158.503 62.384 157.871 62.096 157.295 61.744C156.719 61.392 156.247 60.928 155.879 60.352C155.527 59.776 155.351 59.04 155.351 58.144C155.351 57.184 155.607 56.312 156.119 55.528C156.647 54.728 157.431 54.096 158.471 53.632C159.527 53.152 160.847 52.912 162.431 52.912C163.487 52.912 164.527 53.04 165.551 53.296C166.575 53.536 167.479 53.904 168.263 54.4L167.063 57.352C166.279 56.904 165.495 56.576 164.711 56.368C163.927 56.144 163.159 56.032 162.407 56.032C161.655 56.032 161.039 56.12 160.559 56.296C160.079 56.472 159.735 56.704 159.527 56.992C159.319 57.264 159.215 57.584 159.215 57.952C159.215 58.384 159.391 58.736 159.743 59.008C160.095 59.264 160.559 59.472 161.135 59.632C161.711 59.792 162.343 59.952 163.031 60.112C163.735 60.272 164.431 60.456 165.119 60.664C165.823 60.872 166.463 61.152 167.039 61.504C167.615 61.856 168.079 62.32 168.431 62.896C168.799 63.472 168.983 64.2 168.983 65.08C168.983 66.024 168.719 66.888 168.191 67.672C167.663 68.456 166.871 69.088 165.815 69.568C164.775 70.048 163.455 70.288 161.855 70.288ZM177.064 70.192C175.592 70.192 174.296 69.904 173.176 69.328C172.072 68.752 171.216 67.968 170.608 66.976C170 65.968 169.696 64.824 169.696 63.544C169.696 62.248 169.992 61.104 170.584 60.112C171.192 59.104 172.016 58.32 173.056 57.76C174.096 57.184 175.272 56.896 176.584 56.896C177.848 56.896 178.984 57.168 179.992 57.712C181.016 58.24 181.824 59.008 182.416 60.016C183.008 61.008 183.304 62.2 183.304 63.592C183.304 63.736 183.296 63.904 183.28 64.096C183.264 64.272 183.248 64.44 183.232 64.6H172.744V62.416H181.264L179.824 63.064C179.824 62.392 179.688 61.808 179.416 61.312C179.144 60.816 178.768 60.432 178.288 60.16C177.808 59.872 177.248 59.728 176.608 59.728C175.968 59.728 175.4 59.872 174.904 60.16C174.424 60.432 174.048 60.824 173.776 61.336C173.504 61.832 173.368 62.424 173.368 63.112V63.688C173.368 64.392 173.52 65.016 173.824 65.56C174.144 66.088 174.584 66.496 175.144 66.784C175.72 67.056 176.392 67.192 177.16 67.192C177.848 67.192 178.448 67.088 178.96 66.88C179.488 66.672 179.968 66.36 180.4 65.944L182.392 68.104C181.8 68.776 181.056 69.296 180.16 69.664C179.264 70.016 178.232 70.192 177.064 70.192ZM185.076 70V57.088H188.652V60.736L188.148 59.68C188.532 58.768 189.148 58.08 189.996 57.616C190.844 57.136 191.876 56.896 193.092 56.896V60.352C192.932 60.336 192.788 60.328 192.66 60.328C192.532 60.312 192.396 60.304 192.252 60.304C191.228 60.304 190.396 60.6 189.756 61.192C189.132 61.768 188.82 62.672 188.82 63.904V70H185.076ZM200.14 70.192C199.068 70.192 198.108 69.984 197.26 69.568C196.428 69.152 195.78 68.52 195.316 67.672C194.852 66.808 194.62 65.712 194.62 64.384V57.088H198.364V63.832C198.364 64.904 198.588 65.696 199.036 66.208C199.5 66.704 200.148 66.952 200.98 66.952C201.556 66.952 202.068 66.832 202.516 66.592C202.964 66.336 203.316 65.952 203.572 65.44C203.828 64.912 203.956 64.256 203.956 63.472V57.088H207.7V70H204.148V66.448L204.796 67.48C204.364 68.376 203.724 69.056 202.876 69.52C202.044 69.968 201.132 70.192 200.14 70.192ZM226.985 56.896C228.009 56.896 228.913 57.104 229.697 57.52C230.497 57.92 231.121 58.544 231.569 59.392C232.033 60.224 232.265 61.296 232.265 62.608V70H228.521V63.184C228.521 62.144 228.305 61.376 227.873 60.88C227.441 60.384 226.833 60.136 226.049 60.136C225.505 60.136 225.017 60.264 224.585 60.52C224.153 60.76 223.817 61.128 223.577 61.624C223.337 62.12 223.217 62.752 223.217 63.52V70H219.473V63.184C219.473 62.144 219.257 61.376 218.825 60.88C218.409 60.384 217.809 60.136 217.025 60.136C216.481 60.136 215.993 60.264 215.561 60.52C215.129 60.76 214.793 61.128 214.553 61.624C214.313 62.12 214.193 62.752 214.193 63.52V70H210.449V57.088H214.025V60.616L213.353 59.584C213.801 58.704 214.433 58.04 215.249 57.592C216.081 57.128 217.025 56.896 218.081 56.896C219.265 56.896 220.297 57.2 221.177 57.808C222.073 58.4 222.665 59.312 222.953 60.544L221.633 60.184C222.065 59.176 222.753 58.376 223.697 57.784C224.657 57.192 225.753 56.896 226.985 56.896Z" fill="white"/>
<path d="M129.07 272.06C128.55 272.06 128.05 271.977 127.57 271.81C127.097 271.637 126.73 271.417 126.47 271.15L126.76 270.58C127.007 270.82 127.337 271.023 127.75 271.19C128.17 271.35 128.61 271.43 129.07 271.43C129.51 271.43 129.867 271.377 130.14 271.27C130.42 271.157 130.623 271.007 130.75 270.82C130.883 270.633 130.95 270.427 130.95 270.2C130.95 269.927 130.87 269.707 130.71 269.54C130.557 269.373 130.353 269.243 130.1 269.15C129.847 269.05 129.567 268.963 129.26 268.89C128.953 268.817 128.647 268.74 128.34 268.66C128.033 268.573 127.75 268.46 127.49 268.32C127.237 268.18 127.03 267.997 126.87 267.77C126.717 267.537 126.64 267.233 126.64 266.86C126.64 266.513 126.73 266.197 126.91 265.91C127.097 265.617 127.38 265.383 127.76 265.21C128.14 265.03 128.627 264.94 129.22 264.94C129.613 264.94 130.003 264.997 130.39 265.11C130.777 265.217 131.11 265.367 131.39 265.56L131.14 266.15C130.84 265.95 130.52 265.803 130.18 265.71C129.847 265.617 129.523 265.57 129.21 265.57C128.79 265.57 128.443 265.627 128.17 265.74C127.897 265.853 127.693 266.007 127.56 266.2C127.433 266.387 127.37 266.6 127.37 266.84C127.37 267.113 127.447 267.333 127.6 267.5C127.76 267.667 127.967 267.797 128.22 267.89C128.48 267.983 128.763 268.067 129.07 268.14C129.377 268.213 129.68 268.293 129.98 268.38C130.287 268.467 130.567 268.58 130.82 268.72C131.08 268.853 131.287 269.033 131.44 269.26C131.6 269.487 131.68 269.783 131.68 270.15C131.68 270.49 131.587 270.807 131.4 271.1C131.213 271.387 130.927 271.62 130.54 271.8C130.16 271.973 129.67 272.06 129.07 272.06ZM135.952 268.13H139.652V268.76H135.952V268.13ZM136.032 271.36H140.242V272H135.292V265H140.092V265.64H136.032V271.36ZM144.642 268.13H148.342V268.76H144.642V268.13ZM144.722 271.36H148.932V272H143.982V265H148.782V265.64H144.722V271.36ZM157.288 272V265H157.898L161.098 270.46H160.778L163.948 265H164.558V272H163.848V266.11H164.018L161.098 271.11H160.748L157.808 266.11H157.998V272H157.288ZM171.899 272.06C171.373 272.06 170.883 271.973 170.429 271.8C169.983 271.62 169.593 271.37 169.259 271.05C168.933 270.723 168.676 270.347 168.489 269.92C168.309 269.487 168.219 269.013 168.219 268.5C168.219 267.987 168.309 267.517 168.489 267.09C168.676 266.657 168.933 266.28 169.259 265.96C169.593 265.633 169.983 265.383 170.429 265.21C170.876 265.03 171.366 264.94 171.899 264.94C172.426 264.94 172.913 265.03 173.359 265.21C173.806 265.383 174.193 265.63 174.519 265.95C174.853 266.27 175.109 266.647 175.289 267.08C175.476 267.513 175.569 267.987 175.569 268.5C175.569 269.013 175.476 269.487 175.289 269.92C175.109 270.353 174.853 270.73 174.519 271.05C174.193 271.37 173.806 271.62 173.359 271.8C172.913 271.973 172.426 272.06 171.899 272.06ZM171.899 271.4C172.319 271.4 172.706 271.33 173.059 271.19C173.419 271.043 173.729 270.84 173.989 270.58C174.256 270.313 174.463 270.007 174.609 269.66C174.756 269.307 174.829 268.92 174.829 268.5C174.829 268.08 174.756 267.697 174.609 267.35C174.463 266.997 174.256 266.69 173.989 266.43C173.729 266.163 173.419 265.96 173.059 265.82C172.706 265.673 172.319 265.6 171.899 265.6C171.479 265.6 171.089 265.673 170.729 265.82C170.369 265.96 170.056 266.163 169.789 266.43C169.529 266.69 169.323 266.997 169.169 267.35C169.023 267.697 168.949 268.08 168.949 268.5C168.949 268.913 169.023 269.297 169.169 269.65C169.323 270.003 169.529 270.313 169.789 270.58C170.056 270.84 170.369 271.043 170.729 271.19C171.089 271.33 171.479 271.4 171.899 271.4ZM179.228 272V265H181.848C182.441 265 182.951 265.097 183.378 265.29C183.805 265.477 184.131 265.75 184.358 266.11C184.591 266.463 184.708 266.893 184.708 267.4C184.708 267.893 184.591 268.32 184.358 268.68C184.131 269.033 183.805 269.307 183.378 269.5C182.951 269.687 182.441 269.78 181.848 269.78H179.638L179.968 269.44V272H179.228ZM184.008 272L182.208 269.46H183.008L184.818 272H184.008ZM179.968 269.5L179.638 269.15H181.828C182.528 269.15 183.058 268.997 183.418 268.69C183.785 268.383 183.968 267.953 183.968 267.4C183.968 266.84 183.785 266.407 183.418 266.1C183.058 265.793 182.528 265.64 181.828 265.64H179.638L179.968 265.29V269.5ZM189.114 268.13H192.814V268.76H189.114V268.13ZM189.194 271.36H193.404V272H188.454V265H193.254V265.64H189.194V271.36Z" fill="white"/>
<path d="M57.365 111V101.9H60.914C61.7113 101.9 62.3917 102.026 62.955 102.277C63.5183 102.528 63.9517 102.892 64.255 103.369C64.5583 103.846 64.71 104.413 64.71 105.072C64.71 105.731 64.5583 106.298 64.255 106.775C63.9517 107.243 63.5183 107.607 62.955 107.867C62.3917 108.118 61.7113 108.244 60.914 108.244H58.08L58.665 107.633V111H57.365ZM58.665 107.763L58.08 107.113H60.875C61.707 107.113 62.3353 106.935 62.76 106.58C63.1933 106.225 63.41 105.722 63.41 105.072C63.41 104.422 63.1933 103.919 62.76 103.564C62.3353 103.209 61.707 103.031 60.875 103.031H58.08L58.665 102.381V107.763ZM66.7349 111L70.8559 101.9H72.1429L76.2769 111H74.9119L71.2329 102.628H71.7529L68.0739 111H66.7349ZM68.4899 108.725L68.8409 107.685H73.9629L74.3399 108.725H68.4899ZM79.5843 111V101.9H80.6503L86.6693 109.375H86.1103V101.9H87.4103V111H86.3443L80.3253 103.525H80.8843V111H79.5843ZM93.8911 111V103.031H90.7711V101.9H98.2981V103.031H95.1781V111H93.8911ZM108.19 101.9H109.49V111H108.19V101.9ZM102.964 111H101.664V101.9H102.964V111ZM108.307 106.944H102.834V105.813H108.307V106.944ZM115.347 105.826H120.027V106.931H115.347V105.826ZM115.464 109.869H120.768V111H114.164V101.9H120.586V103.031H115.464V109.869ZM124.823 111V101.9H125.889L131.908 109.375H131.349V101.9H132.649V111H131.583L125.564 103.525H126.123V111H124.823ZM141.431 111.104C140.737 111.104 140.092 110.987 139.494 110.753C138.904 110.519 138.393 110.194 137.96 109.778C137.526 109.353 137.188 108.859 136.946 108.296C136.703 107.733 136.582 107.117 136.582 106.45C136.582 105.783 136.703 105.167 136.946 104.604C137.188 104.041 137.526 103.551 137.96 103.135C138.393 102.71 138.904 102.381 139.494 102.147C140.083 101.913 140.729 101.796 141.431 101.796C142.124 101.796 142.761 101.913 143.342 102.147C143.931 102.372 144.442 102.697 144.876 103.122C145.318 103.538 145.656 104.028 145.89 104.591C146.132 105.154 146.254 105.774 146.254 106.45C146.254 107.126 146.132 107.746 145.89 108.309C145.656 108.872 145.318 109.366 144.876 109.791C144.442 110.207 143.931 110.532 143.342 110.766C142.761 110.991 142.124 111.104 141.431 111.104ZM141.431 109.947C141.933 109.947 142.397 109.86 142.822 109.687C143.255 109.514 143.628 109.271 143.94 108.959C144.26 108.638 144.507 108.266 144.681 107.841C144.863 107.416 144.954 106.953 144.954 106.45C144.954 105.947 144.863 105.484 144.681 105.059C144.507 104.634 144.26 104.266 143.94 103.954C143.628 103.633 143.255 103.386 142.822 103.213C142.397 103.04 141.933 102.953 141.431 102.953C140.919 102.953 140.447 103.04 140.014 103.213C139.589 103.386 139.216 103.633 138.896 103.954C138.575 104.266 138.324 104.634 138.142 105.059C137.968 105.484 137.882 105.947 137.882 106.45C137.882 106.953 137.968 107.416 138.142 107.841C138.324 108.266 138.575 108.638 138.896 108.959C139.216 109.271 139.589 109.514 140.014 109.687C140.447 109.86 140.919 109.947 141.431 109.947ZM150.191 111V101.9H151.491V109.869H156.418V111H150.191ZM167.173 109.297V103.603H168.265V109.297H167.173ZM164.807 106.97V105.943H170.631V106.97H164.807ZM182.884 111L178.88 101.9H180.284L183.963 110.298H183.157L186.862 101.9H188.162L184.171 111H182.884ZM191.273 111V101.9H192.573V111H191.273ZM199.054 111V103.031H195.934V101.9H203.461V103.031H200.341V111H199.054ZM204.992 111L209.113 101.9H210.4L214.534 111H213.169L209.49 102.628H210.01L206.331 111H204.992ZM206.747 108.725L207.098 107.685H212.22L212.597 108.725H206.747ZM217.841 111V101.9H218.907L222.989 108.777H222.417L226.447 101.9H227.513L227.526 111H226.278L226.265 103.863H226.564L222.976 109.895H222.378L218.764 103.863H219.089V111H217.841ZM232.207 111V101.9H233.507V111H232.207ZM238.182 111V101.9H239.248L245.267 109.375H244.708V101.9H246.008V111H244.942L238.923 103.525H239.482V111H238.182ZM257.306 105.826H261.986V106.931H257.306V105.826ZM257.423 109.869H262.727V111H256.123V101.9H262.545V103.031H257.423V109.869Z" fill="#E6F614"/>
<path d="M113.222 209V199.9H114.912V209H113.222ZM119.323 209V199.9H123.301C124.289 199.9 125.156 200.091 125.901 200.472C126.647 200.853 127.227 201.382 127.643 202.058C128.059 202.734 128.267 203.531 128.267 204.45C128.267 205.36 128.059 206.157 127.643 206.842C127.227 207.518 126.647 208.047 125.901 208.428C125.156 208.809 124.289 209 123.301 209H119.323ZM121.013 207.57H123.223C123.908 207.57 124.497 207.44 124.991 207.18C125.494 206.92 125.88 206.556 126.148 206.088C126.426 205.62 126.564 205.074 126.564 204.45C126.564 203.817 126.426 203.271 126.148 202.812C125.88 202.344 125.494 201.98 124.991 201.72C124.497 201.46 123.908 201.33 123.223 201.33H121.013V207.57ZM132.014 209V199.9H135.758C136.564 199.9 137.253 200.03 137.825 200.29C138.405 200.55 138.852 200.923 139.164 201.408C139.476 201.893 139.632 202.47 139.632 203.137C139.632 203.804 139.476 204.381 139.164 204.866C138.852 205.343 138.405 205.711 137.825 205.971C137.253 206.222 136.564 206.348 135.758 206.348H132.95L133.704 205.581V209H132.014ZM137.968 209L135.667 205.698H137.474L139.788 209H137.968ZM133.704 205.763L132.95 204.957H135.68C136.425 204.957 136.984 204.797 137.357 204.476C137.738 204.155 137.929 203.709 137.929 203.137C137.929 202.556 137.738 202.11 137.357 201.798C136.984 201.486 136.425 201.33 135.68 201.33H132.95L133.704 200.498V205.763ZM149.821 209V200.55L150.562 201.317H147.897V199.9H151.511V209H149.821ZM156.722 209V200.55L157.463 201.317H154.798V199.9H158.412V209H156.722ZM165.236 199.77C166.068 199.77 166.774 199.948 167.355 200.303C167.944 200.65 168.395 201.157 168.707 201.824C169.019 202.491 169.175 203.315 169.175 204.294C169.175 205.334 168.984 206.214 168.603 206.933C168.23 207.652 167.71 208.198 167.043 208.571C166.375 208.944 165.6 209.13 164.716 209.13C164.256 209.13 163.819 209.082 163.403 208.987C162.987 208.892 162.627 208.744 162.324 208.545L162.948 207.271C163.199 207.436 163.472 207.553 163.767 207.622C164.061 207.683 164.365 207.713 164.677 207.713C165.535 207.713 166.215 207.449 166.718 206.92C167.22 206.391 167.472 205.611 167.472 204.58C167.472 204.415 167.467 204.225 167.459 204.008C167.45 203.783 167.42 203.557 167.368 203.332L167.888 203.904C167.74 204.259 167.528 204.558 167.251 204.801C166.973 205.035 166.648 205.213 166.276 205.334C165.903 205.455 165.491 205.516 165.041 205.516C164.451 205.516 163.918 205.403 163.442 205.178C162.974 204.944 162.601 204.619 162.324 204.203C162.046 203.778 161.908 203.284 161.908 202.721C161.908 202.114 162.055 201.594 162.35 201.161C162.644 200.719 163.043 200.377 163.546 200.134C164.057 199.891 164.62 199.77 165.236 199.77ZM165.327 201.096C164.98 201.096 164.672 201.161 164.404 201.291C164.135 201.412 163.923 201.59 163.767 201.824C163.619 202.049 163.546 202.322 163.546 202.643C163.546 203.12 163.71 203.497 164.04 203.774C164.369 204.051 164.811 204.19 165.366 204.19C165.73 204.19 166.05 204.125 166.328 203.995C166.605 203.856 166.822 203.67 166.978 203.436C167.134 203.193 167.212 202.925 167.212 202.63C167.212 202.344 167.138 202.088 166.991 201.863C166.843 201.629 166.631 201.443 166.354 201.304C166.076 201.165 165.734 201.096 165.327 201.096ZM172.181 210.963L172.935 208.09L173.156 209.052C172.852 209.052 172.597 208.961 172.389 208.779C172.189 208.588 172.09 208.333 172.09 208.012C172.09 207.683 172.189 207.423 172.389 207.232C172.597 207.033 172.848 206.933 173.143 206.933C173.446 206.933 173.697 207.033 173.897 207.232C174.096 207.431 174.196 207.691 174.196 208.012C174.196 208.099 174.187 208.194 174.17 208.298C174.152 208.393 174.122 208.506 174.079 208.636C174.044 208.766 173.983 208.931 173.897 209.13L173.234 210.963H172.181ZM180.883 209.13C180.164 209.13 179.514 208.948 178.933 208.584C178.361 208.22 177.91 207.691 177.581 206.998C177.252 206.296 177.087 205.447 177.087 204.45C177.087 203.453 177.252 202.608 177.581 201.915C177.91 201.213 178.361 200.68 178.933 200.316C179.514 199.952 180.164 199.77 180.883 199.77C181.611 199.77 182.261 199.952 182.833 200.316C183.405 200.68 183.856 201.213 184.185 201.915C184.523 202.608 184.692 203.453 184.692 204.45C184.692 205.447 184.523 206.296 184.185 206.998C183.856 207.691 183.405 208.22 182.833 208.584C182.261 208.948 181.611 209.13 180.883 209.13ZM180.883 207.661C181.308 207.661 181.676 207.548 181.988 207.323C182.3 207.089 182.543 206.734 182.716 206.257C182.898 205.78 182.989 205.178 182.989 204.45C182.989 203.713 182.898 203.111 182.716 202.643C182.543 202.166 182.3 201.815 181.988 201.59C181.676 201.356 181.308 201.239 180.883 201.239C180.476 201.239 180.112 201.356 179.791 201.59C179.479 201.815 179.232 202.166 179.05 202.643C178.877 203.111 178.79 203.713 178.79 204.45C178.79 205.178 178.877 205.78 179.05 206.257C179.232 206.734 179.479 207.089 179.791 207.323C180.112 207.548 180.476 207.661 180.883 207.661ZM191.58 209.13C190.861 209.13 190.211 208.948 189.63 208.584C189.058 208.22 188.607 207.691 188.278 206.998C187.949 206.296 187.784 205.447 187.784 204.45C187.784 203.453 187.949 202.608 188.278 201.915C188.607 201.213 189.058 200.68 189.63 200.316C190.211 199.952 190.861 199.77 191.58 199.77C192.308 199.77 192.958 199.952 193.53 200.316C194.102 200.68 194.553 201.213 194.882 201.915C195.22 202.608 195.389 203.453 195.389 204.45C195.389 205.447 195.22 206.296 194.882 206.998C194.553 207.691 194.102 208.22 193.53 208.584C192.958 208.948 192.308 209.13 191.58 209.13ZM191.58 207.661C192.005 207.661 192.373 207.548 192.685 207.323C192.997 207.089 193.24 206.734 193.413 206.257C193.595 205.78 193.686 205.178 193.686 204.45C193.686 203.713 193.595 203.111 193.413 202.643C193.24 202.166 192.997 201.815 192.685 201.59C192.373 201.356 192.005 201.239 191.58 201.239C191.173 201.239 190.809 201.356 190.488 201.59C190.176 201.815 189.929 202.166 189.747 202.643C189.574 203.111 189.487 203.713 189.487 204.45C189.487 205.178 189.574 205.78 189.747 206.257C189.929 206.734 190.176 207.089 190.488 207.323C190.809 207.548 191.173 207.661 191.58 207.661ZM202.277 209.13C201.558 209.13 200.908 208.948 200.327 208.584C199.755 208.22 199.305 207.691 198.975 206.998C198.646 206.296 198.481 205.447 198.481 204.45C198.481 203.453 198.646 202.608 198.975 201.915C199.305 201.213 199.755 200.68 200.327 200.316C200.908 199.952 201.558 199.77 202.277 199.77C203.005 199.77 203.655 199.952 204.227 200.316C204.799 200.68 205.25 201.213 205.579 201.915C205.917 202.608 206.086 203.453 206.086 204.45C206.086 205.447 205.917 206.296 205.579 206.998C205.25 207.691 204.799 208.22 204.227 208.584C203.655 208.948 203.005 209.13 202.277 209.13ZM202.277 207.661C202.702 207.661 203.07 207.548 203.382 207.323C203.694 207.089 203.937 206.734 204.11 206.257C204.292 205.78 204.383 205.178 204.383 204.45C204.383 203.713 204.292 203.111 204.11 202.643C203.937 202.166 203.694 201.815 203.382 201.59C203.07 201.356 202.702 201.239 202.277 201.239C201.87 201.239 201.506 201.356 201.185 201.59C200.873 201.815 200.626 202.166 200.444 202.643C200.271 203.111 200.184 203.713 200.184 204.45C200.184 205.178 200.271 205.78 200.444 206.257C200.626 206.734 200.873 207.089 201.185 207.323C201.506 207.548 201.87 207.661 202.277 207.661Z" fill="#E6F614"/>
<defs>
<clipPath id="clip0_1117_286">
<rect width="26.2261" height="26" fill="white" transform="translate(91 142)"/>
</clipPath>
<clipPath id="clip1_1117_286">
<rect width="26.2261" height="26" fill="white" transform="translate(118.733 142)"/>
</clipPath>
<clipPath id="clip2_1117_286">
<rect width="26.2261" height="26" fill="white" transform="translate(146.467 142)"/>
</clipPath>
<clipPath id="clip3_1117_286">
<rect width="26.2261" height="26" fill="white" transform="translate(174.2 142)"/>
</clipPath>
<clipPath id="clip4_1117_286">
<rect width="26.2261" height="26" fill="white" transform="translate(201.933 142)"/>
</clipPath>
</defs>
</svg>
