<svg width="320" height="320" viewBox="0 0 320 320" fill="none" xmlns="http://www.w3.org/2000/svg">
<rect width="320" height="320" fill="#F26522"/>
<path d="M82.5043 65V45.4H92.0803C94.5443 45.4 96.3923 45.8667 97.6243 46.8C98.875 47.7333 99.5003 48.9653 99.5003 50.496C99.5003 51.5227 99.2483 52.4187 98.7443 53.184C98.2403 53.9307 97.5496 54.5093 96.6723 54.92C95.795 55.3307 94.787 55.536 93.6483 55.536L94.1803 54.388C95.4123 54.388 96.5043 54.5933 97.4563 55.004C98.4083 55.396 99.1456 55.984 99.6683 56.768C100.21 57.552 100.48 58.5133 100.48 59.652C100.48 61.332 99.8176 62.648 98.4923 63.6C97.167 64.5333 95.2163 65 92.6403 65H82.5043ZM87.0123 61.584H92.3043C93.4803 61.584 94.367 61.3973 94.9643 61.024C95.5803 60.632 95.8883 60.016 95.8883 59.176C95.8883 58.3547 95.5803 57.748 94.9643 57.356C94.367 56.9453 93.4803 56.74 92.3043 56.74H86.6763V53.436H91.5203C92.6216 53.436 93.4616 53.2493 94.0403 52.876C94.6376 52.484 94.9363 51.896 94.9363 51.112C94.9363 50.3467 94.6376 49.7773 94.0403 49.404C93.4616 49.012 92.6216 48.816 91.5203 48.816H87.0123V61.584ZM109.934 65.224C108.329 65.224 106.901 64.888 105.65 64.216C104.418 63.544 103.438 62.6293 102.71 61.472C102.001 60.296 101.646 58.9613 101.646 57.468C101.646 55.956 102.001 54.6213 102.71 53.464C103.438 52.288 104.418 51.3733 105.65 50.72C106.901 50.048 108.329 49.712 109.934 49.712C111.521 49.712 112.94 50.048 114.19 50.72C115.441 51.3733 116.421 52.2787 117.13 53.436C117.84 54.5933 118.194 55.9373 118.194 57.468C118.194 58.9613 117.84 60.296 117.13 61.472C116.421 62.6293 115.441 63.544 114.19 64.216C112.94 64.888 111.521 65.224 109.934 65.224ZM109.934 61.64C110.662 61.64 111.316 61.472 111.894 61.136C112.473 60.8 112.93 60.324 113.266 59.708C113.602 59.0733 113.77 58.3267 113.77 57.468C113.77 56.5907 113.602 55.844 113.266 55.228C112.93 54.612 112.473 54.136 111.894 53.8C111.316 53.464 110.662 53.296 109.934 53.296C109.206 53.296 108.553 53.464 107.974 53.8C107.396 54.136 106.929 54.612 106.574 55.228C106.238 55.844 106.07 56.5907 106.07 57.468C106.07 58.3267 106.238 59.0733 106.574 59.708C106.929 60.324 107.396 60.8 107.974 61.136C108.553 61.472 109.206 61.64 109.934 61.64ZM126.742 65.224C125.323 65.224 124.045 64.9067 122.906 64.272C121.767 63.6187 120.862 62.7133 120.19 61.556C119.537 60.3987 119.21 59.036 119.21 57.468C119.21 55.8813 119.537 54.5093 120.19 53.352C120.862 52.1947 121.767 51.2987 122.906 50.664C124.045 50.0293 125.323 49.712 126.742 49.712C128.011 49.712 129.122 49.992 130.074 50.552C131.026 51.112 131.763 51.9613 132.286 53.1C132.809 54.2387 133.07 55.6947 133.07 57.468C133.07 59.2227 132.818 60.6787 132.314 61.836C131.81 62.9747 131.082 63.824 130.13 64.384C129.197 64.944 128.067 65.224 126.742 65.224ZM127.498 61.64C128.207 61.64 128.851 61.472 129.43 61.136C130.009 60.8 130.466 60.324 130.802 59.708C131.157 59.0733 131.334 58.3267 131.334 57.468C131.334 56.5907 131.157 55.844 130.802 55.228C130.466 54.612 130.009 54.136 129.43 53.8C128.851 53.464 128.207 53.296 127.498 53.296C126.77 53.296 126.117 53.464 125.538 53.8C124.959 54.136 124.493 54.612 124.138 55.228C123.802 55.844 123.634 56.5907 123.634 57.468C123.634 58.3267 123.802 59.0733 124.138 59.708C124.493 60.324 124.959 60.8 125.538 61.136C126.117 61.472 126.77 61.64 127.498 61.64ZM131.446 65V61.92L131.53 57.44L131.25 52.988V44.224H135.618V65H131.446ZM140.725 70.656C139.941 70.656 139.166 70.5347 138.401 70.292C137.636 70.0493 137.01 69.7133 136.525 69.284L138.121 66.176C138.457 66.4747 138.84 66.708 139.269 66.876C139.717 67.044 140.156 67.128 140.585 67.128C141.201 67.128 141.686 66.9787 142.041 66.68C142.414 66.4 142.75 65.924 143.049 65.252L143.833 63.404L144.169 62.928L149.573 49.936H153.773L146.969 65.924C146.484 67.1373 145.924 68.0893 145.289 68.78C144.673 69.4707 143.982 69.956 143.217 70.236C142.47 70.516 141.64 70.656 140.725 70.656ZM143.301 65.588L136.581 49.936H141.089L146.297 62.536L143.301 65.588ZM166.817 65L160.405 45.4H165.109L170.681 62.76H168.329L174.153 45.4H178.353L183.953 62.76H181.685L187.397 45.4H191.737L185.325 65H180.453L175.497 49.768H176.785L171.689 65H166.817ZM201.24 65V62.06L200.96 61.416V56.152C200.96 55.2187 200.671 54.4907 200.092 53.968C199.532 53.4453 198.664 53.184 197.488 53.184C196.685 53.184 195.892 53.3147 195.108 53.576C194.343 53.8187 193.689 54.1547 193.148 54.584L191.58 51.532C192.401 50.9533 193.391 50.5053 194.548 50.188C195.705 49.8707 196.881 49.712 198.076 49.712C200.372 49.712 202.155 50.2533 203.424 51.336C204.693 52.4187 205.328 54.108 205.328 56.404V65H201.24ZM196.648 65.224C195.472 65.224 194.464 65.028 193.624 64.636C192.784 64.2253 192.14 63.6747 191.692 62.984C191.244 62.2933 191.02 61.5187 191.02 60.66C191.02 59.764 191.235 58.98 191.664 58.308C192.112 57.636 192.812 57.1133 193.764 56.74C194.716 56.348 195.957 56.152 197.488 56.152H201.492V58.7H197.964C196.937 58.7 196.228 58.868 195.836 59.204C195.463 59.54 195.276 59.96 195.276 60.464C195.276 61.024 195.491 61.472 195.92 61.808C196.368 62.1253 196.975 62.284 197.74 62.284C198.468 62.284 199.121 62.116 199.7 61.78C200.279 61.4253 200.699 60.912 200.96 60.24L201.632 62.256C201.315 63.2267 200.736 63.964 199.896 64.468C199.056 64.972 197.973 65.224 196.648 65.224ZM213.509 65.224C212.221 65.224 210.98 65.0747 209.785 64.776C208.609 64.4587 207.676 64.0667 206.985 63.6L208.441 60.464C209.132 60.8933 209.944 61.248 210.877 61.528C211.829 61.7893 212.763 61.92 213.677 61.92C214.685 61.92 215.395 61.7987 215.805 61.556C216.235 61.3133 216.449 60.9773 216.449 60.548C216.449 60.1933 216.281 59.932 215.945 59.764C215.628 59.5773 215.199 59.4373 214.657 59.344C214.116 59.2507 213.519 59.1573 212.865 59.064C212.231 58.9707 211.587 58.8493 210.933 58.7C210.28 58.532 209.683 58.2893 209.141 57.972C208.6 57.6547 208.161 57.2253 207.825 56.684C207.508 56.1427 207.349 55.4427 207.349 54.584C207.349 53.632 207.62 52.792 208.161 52.064C208.721 51.336 209.524 50.7667 210.569 50.356C211.615 49.9267 212.865 49.712 214.321 49.712C215.348 49.712 216.393 49.824 217.457 50.048C218.521 50.272 219.408 50.5987 220.117 51.028L218.661 54.136C217.933 53.7067 217.196 53.4173 216.449 53.268C215.721 53.1 215.012 53.016 214.321 53.016C213.351 53.016 212.641 53.1467 212.193 53.408C211.745 53.6693 211.521 54.0053 211.521 54.416C211.521 54.7893 211.68 55.0693 211.997 55.256C212.333 55.4427 212.772 55.592 213.313 55.704C213.855 55.816 214.443 55.9187 215.077 56.012C215.731 56.0867 216.384 56.208 217.037 56.376C217.691 56.544 218.279 56.7867 218.801 57.104C219.343 57.4027 219.781 57.8227 220.117 58.364C220.453 58.8867 220.621 59.5773 220.621 60.436C220.621 61.3693 220.341 62.2 219.781 62.928C219.221 63.6373 218.409 64.1973 217.345 64.608C216.3 65.0187 215.021 65.224 213.509 65.224ZM231.632 49.712C232.827 49.712 233.891 49.9547 234.824 50.44C235.776 50.9067 236.523 51.6347 237.064 52.624C237.606 53.5947 237.876 54.8453 237.876 56.376V65H233.508V57.048C233.508 55.8347 233.238 54.9387 232.696 54.36C232.174 53.7813 231.427 53.492 230.456 53.492C229.766 53.492 229.14 53.6413 228.58 53.94C228.039 54.22 227.61 54.6587 227.292 55.256C226.994 55.8533 226.844 56.6187 226.844 57.552V65H222.476V44.224H226.844V54.108L225.864 52.848C226.406 51.84 227.18 51.0653 228.188 50.524C229.196 49.9827 230.344 49.712 231.632 49.712Z" fill="#C1F539"/>
<path d="M44.0093 108V98.2H47.6773C48.508 98.2 49.222 98.3353 49.8193 98.606C50.4166 98.8673 50.874 99.25 51.1913 99.754C51.518 100.249 51.6813 100.851 51.6813 101.56C51.6813 102.251 51.518 102.848 51.1913 103.352C50.874 103.847 50.4166 104.229 49.8193 104.5C49.222 104.771 48.508 104.906 47.6773 104.906H44.5833L45.0453 104.416V108H44.0093ZM45.0453 104.5L44.5833 103.996H47.6493C48.6293 103.996 49.3713 103.786 49.8753 103.366C50.3886 102.937 50.6453 102.335 50.6453 101.56C50.6453 100.776 50.3886 100.169 49.8753 99.74C49.3713 99.3107 48.6293 99.096 47.6493 99.096H44.5833L45.0453 98.606V104.5ZM59.0421 108.084C58.3048 108.084 57.6188 107.963 56.9841 107.72C56.3588 107.468 55.8128 107.118 55.3461 106.67C54.8888 106.213 54.5294 105.685 54.2681 105.088C54.0161 104.481 53.8901 103.819 53.8901 103.1C53.8901 102.381 54.0161 101.723 54.2681 101.126C54.5294 100.519 54.8888 99.992 55.3461 99.544C55.8128 99.0867 56.3588 98.7367 56.9841 98.494C57.6094 98.242 58.2954 98.116 59.0421 98.116C59.7794 98.116 60.4608 98.242 61.0861 98.494C61.7114 98.7367 62.2528 99.082 62.7101 99.53C63.1768 99.978 63.5361 100.505 63.7881 101.112C64.0494 101.719 64.1801 102.381 64.1801 103.1C64.1801 103.819 64.0494 104.481 63.7881 105.088C63.5361 105.695 63.1768 106.222 62.7101 106.67C62.2528 107.118 61.7114 107.468 61.0861 107.72C60.4608 107.963 59.7794 108.084 59.0421 108.084ZM59.0421 107.16C59.6301 107.16 60.1714 107.062 60.6661 106.866C61.1701 106.661 61.6041 106.376 61.9681 106.012C62.3414 105.639 62.6308 105.209 62.8361 104.724C63.0414 104.229 63.1441 103.688 63.1441 103.1C63.1441 102.512 63.0414 101.975 62.8361 101.49C62.6308 100.995 62.3414 100.566 61.9681 100.202C61.6041 99.8287 61.1701 99.544 60.6661 99.348C60.1714 99.1427 59.6301 99.04 59.0421 99.04C58.4541 99.04 57.9081 99.1427 57.4041 99.348C56.9001 99.544 56.4614 99.8287 56.0881 100.202C55.7241 100.566 55.4348 100.995 55.2201 101.49C55.0148 101.975 54.9121 102.512 54.9121 103.1C54.9121 103.679 55.0148 104.215 55.2201 104.71C55.4348 105.205 55.7241 105.639 56.0881 106.012C56.4614 106.376 56.9001 106.661 57.4041 106.866C57.9081 107.062 58.4541 107.16 59.0421 107.16ZM67.2023 108V98.2H68.0563L72.5363 105.844H72.0883L76.5263 98.2H77.3803V108H76.3863V99.754H76.6243L72.5363 106.754H72.0463L67.9303 99.754H68.1963V108H67.2023ZM79.7053 108L84.1853 98.2H85.2073L89.6873 108H88.5953L84.4793 98.802H84.8993L80.7833 108H79.7053ZM81.4693 105.382L81.7773 104.542H87.4753L87.7833 105.382H81.4693ZM96.1698 108.084C95.4231 108.084 94.7325 107.963 94.0978 107.72C93.4725 107.468 92.9265 107.118 92.4598 106.67C92.0025 106.222 91.6431 105.695 91.3818 105.088C91.1298 104.481 91.0038 103.819 91.0038 103.1C91.0038 102.381 91.1298 101.719 91.3818 101.112C91.6431 100.505 92.0071 99.978 92.4738 99.53C92.9405 99.082 93.4865 98.7367 94.1118 98.494C94.7465 98.242 95.4371 98.116 96.1838 98.116C96.9305 98.116 97.6118 98.2327 98.2278 98.466C98.8531 98.6993 99.3851 99.054 99.8238 99.53L99.1798 100.188C98.7691 99.7773 98.3165 99.4833 97.8218 99.306C97.3271 99.1287 96.7951 99.04 96.2258 99.04C95.6191 99.04 95.0591 99.1427 94.5458 99.348C94.0418 99.544 93.5985 99.8287 93.2158 100.202C92.8425 100.566 92.5485 100.995 92.3338 101.49C92.1285 101.975 92.0258 102.512 92.0258 103.1C92.0258 103.679 92.1285 104.215 92.3338 104.71C92.5485 105.205 92.8425 105.639 93.2158 106.012C93.5985 106.376 94.0418 106.661 94.5458 106.866C95.0591 107.062 95.6145 107.16 96.2118 107.16C96.7718 107.16 97.2991 107.076 97.7938 106.908C98.2978 106.74 98.7598 106.455 99.1798 106.054L99.7678 106.838C99.3011 107.249 98.7551 107.561 98.1298 107.776C97.5045 107.981 96.8511 108.084 96.1698 108.084ZM98.7738 106.712V103.1H99.7678V106.838L98.7738 106.712ZM103.4 108V98.2H107.068C107.899 98.2 108.613 98.3353 109.21 98.606C109.807 98.8673 110.265 99.25 110.582 99.754C110.909 100.249 111.072 100.851 111.072 101.56C111.072 102.251 110.909 102.848 110.582 103.352C110.265 103.847 109.807 104.229 109.21 104.5C108.613 104.761 107.899 104.892 107.068 104.892H103.974L104.436 104.416V108H103.4ZM110.092 108L107.572 104.444H108.692L111.226 108H110.092ZM104.436 104.5L103.974 104.01H107.04C108.02 104.01 108.762 103.795 109.266 103.366C109.779 102.937 110.036 102.335 110.036 101.56C110.036 100.776 109.779 100.169 109.266 99.74C108.762 99.3107 108.02 99.096 107.04 99.096H103.974L104.436 98.606V104.5ZM112.649 108L117.129 98.2H118.151L122.631 108H121.539L117.423 98.802H117.843L113.727 108H112.649ZM114.413 105.382L114.721 104.542H120.419L120.727 105.382H114.413ZM124.952 108V98.2H125.806L132.568 106.712H132.12V98.2H133.142V108H132.288L125.54 99.488H125.988V108H124.952ZM135.473 108L139.953 98.2H140.975L145.455 108H144.363L140.247 98.802H140.667L136.551 108H135.473ZM137.237 105.382L137.545 104.542H143.243L143.551 105.382H137.237ZM149.188 108V99.096H145.744V98.2H153.668V99.096H150.224V108H149.188ZM156.947 102.582H162.127V103.464H156.947V102.582ZM157.059 107.104H162.953V108H156.023V98.2H162.743V99.096H157.059V107.104ZM172.44 106.068V100.132H173.322V106.068H172.44ZM169.836 103.52V102.694H175.926V103.52H169.836ZM183.569 108V98.2H187.237C188.068 98.2 188.782 98.3353 189.379 98.606C189.976 98.8673 190.434 99.25 190.751 99.754C191.078 100.249 191.241 100.851 191.241 101.56C191.241 102.251 191.078 102.848 190.751 103.352C190.434 103.847 189.976 104.229 189.379 104.5C188.782 104.771 188.068 104.906 187.237 104.906H184.143L184.605 104.416V108H183.569ZM184.605 104.5L184.143 103.996H187.209C188.189 103.996 188.931 103.786 189.435 103.366C189.948 102.937 190.205 102.335 190.205 101.56C190.205 100.776 189.948 100.169 189.435 99.74C188.931 99.3107 188.189 99.096 187.209 99.096H184.143L184.605 98.606V104.5ZM192.121 108L196.601 98.2H197.623L202.103 108H201.011L196.895 98.802H197.315L193.199 108H192.121ZM193.885 105.382L194.193 104.542H199.891L200.199 105.382H193.885ZM204.424 108V98.2H205.278L212.04 106.712H211.592V98.2H212.614V108H211.76L205.012 99.488H205.46V108H204.424ZM218.417 108V99.096H214.973V98.2H222.897V99.096H219.453V108H218.417ZM232.42 98.2H233.442V108H232.42V98.2ZM226.288 108H225.252V98.2H226.288V108ZM232.518 103.478H226.176V102.568H232.518V103.478ZM238.265 102.582H243.445V103.464H238.265V102.582ZM238.377 107.104H244.271V108H237.341V98.2H244.061V99.096H238.377V107.104ZM247.406 108V98.2H248.26L255.022 106.712H254.574V98.2H255.596V108H254.742L247.994 99.488H248.442V108H247.406ZM263.778 108.084C263.041 108.084 262.355 107.963 261.72 107.72C261.095 107.468 260.549 107.118 260.082 106.67C259.625 106.213 259.266 105.685 259.004 105.088C258.752 104.481 258.626 103.819 258.626 103.1C258.626 102.381 258.752 101.723 259.004 101.126C259.266 100.519 259.625 99.992 260.082 99.544C260.549 99.0867 261.095 98.7367 261.72 98.494C262.346 98.242 263.032 98.116 263.778 98.116C264.516 98.116 265.197 98.242 265.822 98.494C266.448 98.7367 266.989 99.082 267.446 99.53C267.913 99.978 268.272 100.505 268.524 101.112C268.786 101.719 268.916 102.381 268.916 103.1C268.916 103.819 268.786 104.481 268.524 105.088C268.272 105.695 267.913 106.222 267.446 106.67C266.989 107.118 266.448 107.468 265.822 107.72C265.197 107.963 264.516 108.084 263.778 108.084ZM263.778 107.16C264.366 107.16 264.908 107.062 265.402 106.866C265.906 106.661 266.34 106.376 266.704 106.012C267.078 105.639 267.367 105.209 267.572 104.724C267.778 104.229 267.88 103.688 267.88 103.1C267.88 102.512 267.778 101.975 267.572 101.49C267.367 100.995 267.078 100.566 266.704 100.202C266.34 99.8287 265.906 99.544 265.402 99.348C264.908 99.1427 264.366 99.04 263.778 99.04C263.19 99.04 262.644 99.1427 262.14 99.348C261.636 99.544 261.198 99.8287 260.824 100.202C260.46 100.566 260.171 100.995 259.956 101.49C259.751 101.975 259.648 102.512 259.648 103.1C259.648 103.679 259.751 104.215 259.956 104.71C260.171 105.205 260.46 105.639 260.824 106.012C261.198 106.376 261.636 106.661 262.14 106.866C262.644 107.062 263.19 107.16 263.778 107.16ZM271.939 108V98.2H272.975V107.104H278.463V108H271.939Z" fill="#FFE3D6"/>
<path d="M128.661 271.112C127.914 271.112 127.2 271 126.519 270.776C125.838 270.543 125.301 270.244 124.909 269.88L125.427 268.788C125.8 269.115 126.276 269.385 126.855 269.6C127.434 269.815 128.036 269.922 128.661 269.922C129.23 269.922 129.692 269.857 130.047 269.726C130.402 269.595 130.663 269.418 130.831 269.194C130.999 268.961 131.083 268.699 131.083 268.41C131.083 268.074 130.971 267.803 130.747 267.598C130.532 267.393 130.248 267.229 129.893 267.108C129.548 266.977 129.165 266.865 128.745 266.772C128.325 266.679 127.9 266.571 127.471 266.45C127.051 266.319 126.664 266.156 126.309 265.96C125.964 265.764 125.684 265.503 125.469 265.176C125.254 264.84 125.147 264.411 125.147 263.888C125.147 263.384 125.278 262.922 125.539 262.502C125.81 262.073 126.22 261.732 126.771 261.48C127.331 261.219 128.04 261.088 128.899 261.088C129.468 261.088 130.033 261.163 130.593 261.312C131.153 261.461 131.638 261.676 132.049 261.956L131.587 263.076C131.167 262.796 130.724 262.595 130.257 262.474C129.79 262.343 129.338 262.278 128.899 262.278C128.348 262.278 127.896 262.348 127.541 262.488C127.186 262.628 126.925 262.815 126.757 263.048C126.598 263.281 126.519 263.543 126.519 263.832C126.519 264.177 126.626 264.453 126.841 264.658C127.065 264.863 127.35 265.027 127.695 265.148C128.05 265.269 128.437 265.381 128.857 265.484C129.277 265.577 129.697 265.685 130.117 265.806C130.546 265.927 130.934 266.086 131.279 266.282C131.634 266.478 131.918 266.739 132.133 267.066C132.348 267.393 132.455 267.813 132.455 268.326C132.455 268.821 132.32 269.283 132.049 269.712C131.778 270.132 131.358 270.473 130.789 270.734C130.229 270.986 129.52 271.112 128.661 271.112ZM138.308 271.084C137.515 271.084 136.815 270.921 136.208 270.594C135.611 270.267 135.144 269.819 134.808 269.25C134.482 268.681 134.318 268.027 134.318 267.29C134.318 266.553 134.477 265.899 134.794 265.33C135.121 264.761 135.564 264.317 136.124 264C136.694 263.673 137.333 263.51 138.042 263.51C138.761 263.51 139.396 263.669 139.946 263.986C140.497 264.303 140.926 264.751 141.234 265.33C141.552 265.899 141.71 266.567 141.71 267.332C141.71 267.388 141.706 267.453 141.696 267.528C141.696 267.603 141.692 267.673 141.682 267.738H135.368V266.772H140.982L140.436 267.108C140.446 266.632 140.348 266.207 140.142 265.834C139.937 265.461 139.652 265.171 139.288 264.966C138.934 264.751 138.518 264.644 138.042 264.644C137.576 264.644 137.16 264.751 136.796 264.966C136.432 265.171 136.148 265.465 135.942 265.848C135.737 266.221 135.634 266.651 135.634 267.136V267.36C135.634 267.855 135.746 268.298 135.97 268.69C136.204 269.073 136.526 269.371 136.936 269.586C137.347 269.801 137.818 269.908 138.35 269.908C138.789 269.908 139.186 269.833 139.54 269.684C139.904 269.535 140.222 269.311 140.492 269.012L141.234 269.88C140.898 270.272 140.478 270.571 139.974 270.776C139.48 270.981 138.924 271.084 138.308 271.084ZM147.581 271.084C146.787 271.084 146.087 270.921 145.481 270.594C144.883 270.267 144.417 269.819 144.081 269.25C143.754 268.681 143.591 268.027 143.591 267.29C143.591 266.553 143.749 265.899 144.067 265.33C144.393 264.761 144.837 264.317 145.397 264C145.966 263.673 146.605 263.51 147.315 263.51C148.033 263.51 148.668 263.669 149.219 263.986C149.769 264.303 150.199 264.751 150.507 265.33C150.824 265.899 150.983 266.567 150.983 267.332C150.983 267.388 150.978 267.453 150.969 267.528C150.969 267.603 150.964 267.673 150.955 267.738H144.641V266.772H150.255L149.709 267.108C149.718 266.632 149.62 266.207 149.415 265.834C149.209 265.461 148.925 265.171 148.561 264.966C148.206 264.751 147.791 264.644 147.315 264.644C146.848 264.644 146.433 264.751 146.069 264.966C145.705 265.171 145.42 265.465 145.215 265.848C145.009 266.221 144.907 266.651 144.907 267.136V267.36C144.907 267.855 145.019 268.298 145.243 268.69C145.476 269.073 145.798 269.371 146.209 269.586C146.619 269.801 147.091 269.908 147.623 269.908C148.061 269.908 148.458 269.833 148.813 269.684C149.177 269.535 149.494 269.311 149.765 269.012L150.507 269.88C150.171 270.272 149.751 270.571 149.247 270.776C148.752 270.981 148.197 271.084 147.581 271.084ZM167.291 263.51C167.888 263.51 168.415 263.627 168.873 263.86C169.33 264.093 169.685 264.448 169.937 264.924C170.198 265.4 170.329 266.002 170.329 266.73V271H168.985V266.884C168.985 266.165 168.817 265.624 168.481 265.26C168.145 264.896 167.673 264.714 167.067 264.714C166.619 264.714 166.227 264.807 165.891 264.994C165.555 265.181 165.293 265.456 165.107 265.82C164.929 266.184 164.841 266.637 164.841 267.178V271H163.497V266.884C163.497 266.165 163.329 265.624 162.993 265.26C162.666 264.896 162.195 264.714 161.579 264.714C161.14 264.714 160.753 264.807 160.417 264.994C160.081 265.181 159.819 265.456 159.633 265.82C159.446 266.184 159.353 266.637 159.353 267.178V271H158.009V263.58H159.297V265.554L159.087 265.05C159.32 264.565 159.679 264.187 160.165 263.916C160.65 263.645 161.215 263.51 161.859 263.51C162.568 263.51 163.179 263.687 163.693 264.042C164.206 264.387 164.542 264.915 164.701 265.624L164.155 265.4C164.379 264.831 164.771 264.373 165.331 264.028C165.891 263.683 166.544 263.51 167.291 263.51ZM176.68 271.084C175.933 271.084 175.27 270.921 174.692 270.594C174.113 270.267 173.656 269.819 173.32 269.25C172.984 268.671 172.816 268.018 172.816 267.29C172.816 266.553 172.984 265.899 173.32 265.33C173.656 264.761 174.113 264.317 174.692 264C175.27 263.673 175.933 263.51 176.68 263.51C177.417 263.51 178.075 263.673 178.654 264C179.242 264.317 179.699 264.761 180.026 265.33C180.362 265.89 180.53 266.543 180.53 267.29C180.53 268.027 180.362 268.681 180.026 269.25C179.699 269.819 179.242 270.267 178.654 270.594C178.075 270.921 177.417 271.084 176.68 271.084ZM176.68 269.908C177.156 269.908 177.58 269.801 177.954 269.586C178.336 269.371 178.635 269.068 178.85 268.676C179.064 268.275 179.172 267.813 179.172 267.29C179.172 266.758 179.064 266.301 178.85 265.918C178.635 265.526 178.336 265.223 177.954 265.008C177.58 264.793 177.156 264.686 176.68 264.686C176.204 264.686 175.779 264.793 175.406 265.008C175.032 265.223 174.734 265.526 174.51 265.918C174.286 266.301 174.174 266.758 174.174 267.29C174.174 267.813 174.286 268.275 174.51 268.676C174.734 269.068 175.032 269.371 175.406 269.586C175.779 269.801 176.204 269.908 176.68 269.908ZM183.088 271V263.58H184.376V265.596L184.25 265.092C184.456 264.579 184.801 264.187 185.286 263.916C185.772 263.645 186.369 263.51 187.078 263.51V264.812C187.022 264.803 186.966 264.798 186.91 264.798C186.864 264.798 186.817 264.798 186.77 264.798C186.052 264.798 185.482 265.013 185.062 265.442C184.642 265.871 184.432 266.492 184.432 267.304V271H183.088ZM192.671 271.084C191.877 271.084 191.177 270.921 190.571 270.594C189.973 270.267 189.507 269.819 189.171 269.25C188.844 268.681 188.681 268.027 188.681 267.29C188.681 266.553 188.839 265.899 189.157 265.33C189.483 264.761 189.927 264.317 190.487 264C191.056 263.673 191.695 263.51 192.405 263.51C193.123 263.51 193.758 263.669 194.309 263.986C194.859 264.303 195.289 264.751 195.597 265.33C195.914 265.899 196.073 266.567 196.073 267.332C196.073 267.388 196.068 267.453 196.059 267.528C196.059 267.603 196.054 267.673 196.045 267.738H189.731V266.772H195.345L194.799 267.108C194.808 266.632 194.71 266.207 194.505 265.834C194.299 265.461 194.015 265.171 193.651 264.966C193.296 264.751 192.881 264.644 192.405 264.644C191.938 264.644 191.523 264.751 191.159 264.966C190.795 265.171 190.51 265.465 190.305 265.848C190.099 266.221 189.997 266.651 189.997 267.136V267.36C189.997 267.855 190.109 268.298 190.333 268.69C190.566 269.073 190.888 269.371 191.299 269.586C191.709 269.801 192.181 269.908 192.713 269.908C193.151 269.908 193.548 269.833 193.903 269.684C194.267 269.535 194.584 269.311 194.855 269.012L195.597 269.88C195.261 270.272 194.841 270.571 194.337 270.776C193.842 270.981 193.287 271.084 192.671 271.084Z" fill="white"/>
<path d="M102.143 219V205H104.143V219H102.143ZM109.334 219V205H115.234C116.728 205 118.041 205.293 119.174 205.88C120.321 206.467 121.208 207.287 121.834 208.34C122.474 209.393 122.794 210.613 122.794 212C122.794 213.387 122.474 214.607 121.834 215.66C121.208 216.713 120.321 217.533 119.174 218.12C118.041 218.707 116.728 219 115.234 219H109.334ZM111.334 217.26H115.114C116.274 217.26 117.274 217.04 118.114 216.6C118.968 216.16 119.628 215.547 120.094 214.76C120.561 213.96 120.794 213.04 120.794 212C120.794 210.947 120.561 210.027 120.094 209.24C119.628 208.453 118.968 207.84 118.114 207.4C117.274 206.96 116.274 206.74 115.114 206.74H111.334V217.26ZM126.858 219V205H132.318C133.544 205 134.591 205.193 135.458 205.58C136.324 205.967 136.991 206.527 137.458 207.26C137.924 207.993 138.158 208.867 138.158 209.88C138.158 210.893 137.924 211.767 137.458 212.5C136.991 213.22 136.324 213.773 135.458 214.16C134.591 214.547 133.544 214.74 132.318 214.74H127.958L128.858 213.82V219H126.858ZM136.218 219L132.658 213.92H134.798L138.398 219H136.218ZM128.858 214.02L127.958 213.04H132.258C133.538 213.04 134.504 212.767 135.158 212.22C135.824 211.66 136.158 210.88 136.158 209.88C136.158 208.88 135.824 208.107 135.158 207.56C134.504 207.013 133.538 206.74 132.258 206.74H127.958L128.858 205.74V214.02ZM153.08 219.16C151.947 219.16 150.967 218.993 150.14 218.66C149.313 218.327 148.673 217.853 148.22 217.24C147.767 216.613 147.54 215.88 147.54 215.04C147.54 214.213 147.753 213.513 148.18 212.94C148.62 212.353 149.253 211.913 150.08 211.62C150.907 211.313 151.907 211.16 153.08 211.16C154.253 211.16 155.253 211.313 156.08 211.62C156.92 211.913 157.56 212.353 158 212.94C158.44 213.527 158.66 214.227 158.66 215.04C158.66 215.88 158.433 216.613 157.98 217.24C157.527 217.853 156.88 218.327 156.04 218.66C155.2 218.993 154.213 219.16 153.08 219.16ZM153.08 217.54C154.2 217.54 155.073 217.313 155.7 216.86C156.34 216.393 156.66 215.767 156.66 214.98C156.66 214.207 156.34 213.6 155.7 213.16C155.073 212.707 154.2 212.48 153.08 212.48C151.973 212.48 151.107 212.707 150.48 213.16C149.853 213.6 149.54 214.207 149.54 214.98C149.54 215.767 149.853 216.393 150.48 216.86C151.107 217.313 151.973 217.54 153.08 217.54ZM153.08 212.24C152.013 212.24 151.107 212.1 150.36 211.82C149.613 211.527 149.04 211.113 148.64 210.58C148.24 210.033 148.04 209.387 148.04 208.64C148.04 207.853 148.247 207.18 148.66 206.62C149.087 206.047 149.68 205.607 150.44 205.3C151.2 204.993 152.08 204.84 153.08 204.84C154.093 204.84 154.98 204.993 155.74 205.3C156.5 205.607 157.093 206.047 157.52 206.62C157.947 207.18 158.16 207.853 158.16 208.64C158.16 209.387 157.96 210.033 157.56 210.58C157.16 211.113 156.58 211.527 155.82 211.82C155.06 212.1 154.147 212.24 153.08 212.24ZM153.08 210.96C154.053 210.96 154.813 210.76 155.36 210.36C155.92 209.96 156.2 209.413 156.2 208.72C156.2 208.013 155.913 207.46 155.34 207.06C154.767 206.66 154.013 206.46 153.08 206.46C152.147 206.46 151.4 206.66 150.84 207.06C150.293 207.46 150.02 208.013 150.02 208.72C150.02 209.413 150.287 209.96 150.82 210.36C151.367 210.76 152.12 210.96 153.08 210.96ZM166.031 204.84C167.298 204.84 168.365 205.113 169.231 205.66C170.111 206.207 170.778 207 171.231 208.04C171.685 209.067 171.911 210.327 171.911 211.82C171.911 213.407 171.631 214.747 171.071 215.84C170.511 216.933 169.738 217.76 168.751 218.32C167.765 218.88 166.611 219.16 165.291 219.16C164.638 219.16 164.005 219.093 163.391 218.96C162.791 218.827 162.265 218.62 161.811 218.34L162.571 216.78C162.945 217.02 163.358 217.193 163.811 217.3C164.278 217.393 164.765 217.44 165.271 217.44C166.685 217.44 167.811 217 168.651 216.12C169.491 215.227 169.911 213.907 169.911 212.16C169.911 211.88 169.898 211.547 169.871 211.16C169.845 210.773 169.785 210.393 169.691 210.02L170.351 210.7C170.165 211.313 169.851 211.833 169.411 212.26C168.985 212.673 168.465 212.987 167.851 213.2C167.251 213.4 166.591 213.5 165.871 213.5C164.951 213.5 164.131 213.327 163.411 212.98C162.691 212.633 162.125 212.147 161.711 211.52C161.298 210.88 161.091 210.127 161.091 209.26C161.091 208.353 161.305 207.573 161.731 206.92C162.171 206.253 162.765 205.74 163.511 205.38C164.271 205.02 165.111 204.84 166.031 204.84ZM166.111 206.46C165.511 206.46 164.978 206.573 164.511 206.8C164.045 207.027 163.678 207.34 163.411 207.74C163.158 208.14 163.031 208.62 163.031 209.18C163.031 210.007 163.318 210.667 163.891 211.16C164.465 211.64 165.238 211.88 166.211 211.88C166.851 211.88 167.411 211.76 167.891 211.52C168.385 211.28 168.765 210.953 169.031 210.54C169.311 210.127 169.451 209.667 169.451 209.16C169.451 208.667 169.325 208.22 169.071 207.82C168.818 207.42 168.445 207.093 167.951 206.84C167.458 206.587 166.845 206.46 166.111 206.46ZM174.701 221.96L175.701 217.92L175.961 219.08C175.574 219.08 175.247 218.96 174.981 218.72C174.727 218.48 174.601 218.153 174.601 217.74C174.601 217.34 174.727 217.013 174.981 216.76C175.247 216.507 175.567 216.38 175.941 216.38C176.327 216.38 176.641 216.513 176.881 216.78C177.121 217.033 177.241 217.353 177.241 217.74C177.241 217.873 177.227 218.007 177.201 218.14C177.187 218.26 177.154 218.407 177.101 218.58C177.061 218.74 176.994 218.94 176.901 219.18L175.961 221.96H174.701ZM185.618 219.16C184.524 219.16 183.544 218.88 182.678 218.32C181.824 217.76 181.144 216.947 180.638 215.88C180.144 214.813 179.898 213.52 179.898 212C179.898 210.48 180.144 209.187 180.638 208.12C181.144 207.053 181.824 206.24 182.678 205.68C183.544 205.12 184.524 204.84 185.618 204.84C186.698 204.84 187.671 205.12 188.538 205.68C189.404 206.24 190.084 207.053 190.578 208.12C191.071 209.187 191.318 210.48 191.318 212C191.318 213.52 191.071 214.813 190.578 215.88C190.084 216.947 189.404 217.76 188.538 218.32C187.671 218.88 186.698 219.16 185.618 219.16ZM185.618 217.38C186.351 217.38 186.991 217.18 187.538 216.78C188.098 216.38 188.531 215.78 188.838 214.98C189.158 214.18 189.318 213.187 189.318 212C189.318 210.813 189.158 209.82 188.838 209.02C188.531 208.22 188.098 207.62 187.538 207.22C186.991 206.82 186.351 206.62 185.618 206.62C184.884 206.62 184.238 206.82 183.678 207.22C183.118 207.62 182.678 208.22 182.358 209.02C182.051 209.82 181.898 210.813 181.898 212C181.898 213.187 182.051 214.18 182.358 214.98C182.678 215.78 183.118 216.38 183.678 216.78C184.238 217.18 184.884 217.38 185.618 217.38ZM199.957 219.16C198.864 219.16 197.884 218.88 197.017 218.32C196.164 217.76 195.484 216.947 194.977 215.88C194.484 214.813 194.237 213.52 194.237 212C194.237 210.48 194.484 209.187 194.977 208.12C195.484 207.053 196.164 206.24 197.017 205.68C197.884 205.12 198.864 204.84 199.957 204.84C201.037 204.84 202.011 205.12 202.877 205.68C203.744 206.24 204.424 207.053 204.917 208.12C205.411 209.187 205.657 210.48 205.657 212C205.657 213.52 205.411 214.813 204.917 215.88C204.424 216.947 203.744 217.76 202.877 218.32C202.011 218.88 201.037 219.16 199.957 219.16ZM199.957 217.38C200.691 217.38 201.331 217.18 201.877 216.78C202.437 216.38 202.871 215.78 203.177 214.98C203.497 214.18 203.657 213.187 203.657 212C203.657 210.813 203.497 209.82 203.177 209.02C202.871 208.22 202.437 207.62 201.877 207.22C201.331 206.82 200.691 206.62 199.957 206.62C199.224 206.62 198.577 206.82 198.017 207.22C197.457 207.62 197.017 208.22 196.697 209.02C196.391 209.82 196.237 210.813 196.237 212C196.237 213.187 196.391 214.18 196.697 214.98C197.017 215.78 197.457 216.38 198.017 216.78C198.577 217.18 199.224 217.38 199.957 217.38ZM214.297 219.16C213.204 219.16 212.224 218.88 211.357 218.32C210.504 217.76 209.824 216.947 209.317 215.88C208.824 214.813 208.577 213.52 208.577 212C208.577 210.48 208.824 209.187 209.317 208.12C209.824 207.053 210.504 206.24 211.357 205.68C212.224 205.12 213.204 204.84 214.297 204.84C215.377 204.84 216.351 205.12 217.217 205.68C218.084 206.24 218.764 207.053 219.257 208.12C219.751 209.187 219.997 210.48 219.997 212C219.997 213.52 219.751 214.813 219.257 215.88C218.764 216.947 218.084 217.76 217.217 218.32C216.351 218.88 215.377 219.16 214.297 219.16ZM214.297 217.38C215.031 217.38 215.671 217.18 216.217 216.78C216.777 216.38 217.211 215.78 217.517 214.98C217.837 214.18 217.997 213.187 217.997 212C217.997 210.813 217.837 209.82 217.517 209.02C217.211 208.22 216.777 207.62 216.217 207.22C215.671 206.82 215.031 206.62 214.297 206.62C213.564 206.62 212.917 206.82 212.357 207.22C211.797 207.62 211.357 208.22 211.037 209.02C210.731 209.82 210.577 210.813 210.577 212C210.577 213.187 210.731 214.18 211.037 214.98C211.357 215.78 211.797 216.38 212.357 216.78C212.917 217.18 213.564 217.38 214.297 217.38Z" fill="#C1F539"/>
<g clip-path="url(#clip0_938_59)">
<path d="M105.128 140.33L110.345 143.548L108.96 137.483L113.569 133.402L107.5 132.876L105.128 127.155L102.757 132.876L96.688 133.402L101.296 137.483L99.9122 143.548L105.128 140.33Z" fill="white"/>
</g>
<g clip-path="url(#clip1_938_59)">
<path d="M132.288 140.33L137.504 143.548L136.119 137.483L140.728 133.402L134.659 132.876L132.288 127.155L129.916 132.876L123.847 133.402L128.456 137.483L127.071 143.548L132.288 140.33Z" fill="white"/>
</g>
<g clip-path="url(#clip2_938_59)">
<path d="M159.447 140.33L164.663 143.548L163.279 137.483L167.887 133.402L161.818 132.876L159.447 127.155L157.075 132.876L151.006 133.402L155.615 137.483L154.231 143.548L159.447 140.33Z" fill="white"/>
</g>
<g clip-path="url(#clip3_938_59)">
<path d="M186.606 140.33L191.822 143.548L190.438 137.483L195.046 133.402L188.978 132.876L186.606 127.155L184.234 132.876L178.166 133.402L182.774 137.483L181.39 143.548L186.606 140.33Z" fill="white"/>
</g>
<g clip-path="url(#clip4_938_59)">
<path d="M214.128 140.33L219.345 143.548L217.96 137.483L222.569 133.402L216.5 132.876L214.128 127.155L211.757 132.876L205.688 133.402L210.296 137.483L208.912 143.548L214.128 140.33Z" fill="white"/>
</g>
<defs>
<clipPath id="clip0_938_59">
<rect width="20.2569" height="20.707" fill="white" transform="translate(95 125.43)"/>
</clipPath>
<clipPath id="clip1_938_59">
<rect width="20.2569" height="20.707" fill="white" transform="translate(122.159 125.43)"/>
</clipPath>
<clipPath id="clip2_938_59">
<rect width="20.2569" height="20.707" fill="white" transform="translate(149.318 125.43)"/>
</clipPath>
<clipPath id="clip3_938_59">
<rect width="20.2569" height="20.707" fill="white" transform="translate(176.478 125.43)"/>
</clipPath>
<clipPath id="clip4_938_59">
<rect width="20.2569" height="20.707" fill="white" transform="translate(204 125.43)"/>
</clipPath>
</defs>
</svg>
