<svg width="34" height="40" viewBox="0 0 34 40" fill="none" xmlns="http://www.w3.org/2000/svg">
<g clip-path="url(#clip0_892_6)">
<path d="M33.1951 40.0286H0V0H33.1951V40.0286ZM0.836312 39.1637H32.3588V0.836312H0.836312V39.1637Z" fill="#E51F7E"/>
<path d="M4.46747 20.1144V19.8856L5.00357 19.6855C5.20868 19.6161 5.38478 19.4803 5.50392 19.2995C5.61501 19.0783 5.66673 18.832 5.65403 18.5847V6.91923C5.66581 6.67498 5.62435 6.43108 5.53251 6.20444C5.41248 6.00954 5.22375 5.86672 5.00357 5.80415L4.48891 5.60401V5.37527H15.2109L15.3467 8.81344H15.1251L14.1101 6.71909C14.0025 6.48258 13.8604 6.26337 13.6883 6.06863C13.6004 5.9822 13.4948 5.91576 13.3789 5.87382C13.2629 5.83188 13.1393 5.81543 13.0164 5.8256H8.99928V12.2588H11.3867C11.5152 12.2724 11.6451 12.2592 11.7682 12.2198C11.8913 12.1804 12.0048 12.1158 12.1015 12.03C12.2739 11.8438 12.4118 11.6284 12.5089 11.3939L12.9592 10.5004H13.1808V14.5175H12.9592L12.4803 13.5811C12.3747 13.3479 12.2323 13.1331 12.0586 12.945C11.969 12.8613 11.863 12.7972 11.7474 12.7566C11.6317 12.716 11.5089 12.6998 11.3867 12.7091H8.99928V19.6498H13.5096C13.6385 19.6607 13.7683 19.6455 13.8912 19.605C14.014 19.5644 14.1274 19.4994 14.2244 19.4139C14.4074 19.2289 14.5445 19.0037 14.6247 18.7563L15.5397 16.6619H15.7255L15.5968 20.1001L4.46747 20.1144Z" fill="#E51F7E"/>
<path d="M17.0264 20.1144V19.8427L24.7748 5.82559H20.5361C20.1103 5.80734 19.6897 5.925 19.3352 6.16154C18.9976 6.4297 18.72 6.76575 18.5204 7.14796L17.4982 8.9564H17.2766L17.4267 5.38242H28.3488V5.64689L20.6004 19.664H25.4682C25.8889 19.6788 26.3023 19.5503 26.6404 19.2995C26.9649 19.021 27.234 18.6839 27.4339 18.3059L28.3917 16.5189H28.5918L28.4346 20.0929L17.0264 20.1144Z" fill="#E51F7E"/>
<path d="M4.46747 34.6176V34.396L4.91779 34.2387C5.03737 34.2148 5.15089 34.167 5.2516 34.0983C5.3523 34.0295 5.43812 33.9411 5.50392 33.8385C5.61501 33.6172 5.66673 33.3709 5.65403 33.1237V21.4439C5.66452 21.196 5.61033 20.9497 5.49678 20.7291C5.35151 20.5217 5.13961 20.3704 4.89635 20.3002L4.46747 20.1215V19.8999H9.89277C12.1086 19.8999 13.7169 20.3074 14.7034 21.1151C15.1813 21.4949 15.5644 21.9806 15.8224 22.5339C16.0805 23.0871 16.2063 23.6928 16.1901 24.3031C16.1971 25.1231 15.9848 25.93 15.5754 26.6405C15.1067 27.3986 14.4079 27.9872 13.5811 28.3202C12.3728 28.7892 11.0806 29.0033 9.78555 28.9493H8.99928V33.0593C8.98656 33.3213 9.06722 33.5794 9.22691 33.7875C9.3866 33.9956 9.61495 34.1403 9.87133 34.1959L10.5432 34.396V34.6176H4.46747ZM8.99928 28.4989H9.84988C10.4656 28.525 11.0785 28.4024 11.6369 28.1415C12.1238 27.8725 12.4895 27.4276 12.659 26.8978C12.9152 26.097 13.0289 25.2575 12.995 24.4174C13.0303 23.5681 12.9067 22.7196 12.6304 21.9157C12.4367 21.3815 12.0488 20.9399 11.544 20.6791C10.982 20.4299 10.3713 20.3102 9.75696 20.3288H8.99928V28.4989Z" fill="#E51F7E"/>
<path d="M17.1551 34.6176V34.346L24.8892 20.3288H20.143C19.7172 20.3106 19.2966 20.4282 18.9421 20.6648C18.6052 20.9308 18.3277 21.2644 18.1272 21.644L17.1051 23.4525H16.8835L17.0336 19.8785H28.4703V20.143L20.7291 34.1673H25.5897C26.0082 34.1905 26.422 34.0694 26.762 33.8242C27.0903 33.5495 27.3602 33.2116 27.5554 32.8306L28.5132 31.0436H28.742L28.5847 34.6176H17.1551Z" fill="#E51F7E"/>
</g>
<defs>
<clipPath id="clip0_892_6">
<rect width="33.1951" height="40" fill="white"/>
</clipPath>
</defs>
</svg>
