<svg width="34" height="40" viewBox="0 0 34 40" fill="none" xmlns="http://www.w3.org/2000/svg">
<g clip-path="url(#clip0_492_555)">
<path d="M33.1951 40.0286H0V0H33.1951V40.0286ZM0.836312 39.1637H32.3588V0.836312H0.836312V39.1637Z" fill="white"/>
<path d="M4.46753 20.1144V19.8856L5.00363 19.6855C5.20874 19.6161 5.38484 19.4803 5.50398 19.2995C5.61507 19.0783 5.66679 18.832 5.65409 18.5847V6.91923C5.66587 6.67498 5.62441 6.43108 5.53258 6.20444C5.41254 6.00954 5.22381 5.86672 5.00363 5.80415L4.48897 5.60401V5.37527H15.2109L15.3467 8.81344H15.1251L14.1101 6.71909C14.0025 6.48258 13.8604 6.26337 13.6884 6.06863C13.6005 5.9822 13.4949 5.91576 13.379 5.87382C13.263 5.83188 13.1394 5.81543 13.0165 5.8256H8.99934V12.2588H11.3868C11.5153 12.2724 11.6452 12.2592 11.7683 12.2198C11.8914 12.1804 12.0049 12.1158 12.1016 12.03C12.2739 11.8438 12.4119 11.6284 12.509 11.3939L12.9593 10.5004H13.1809V14.5175H12.9593L12.4804 13.5811C12.3747 13.3479 12.2324 13.1331 12.0587 12.945C11.9691 12.8613 11.8631 12.7972 11.7474 12.7566C11.6318 12.716 11.509 12.6998 11.3868 12.7091H8.99934V19.6498H13.5097C13.6386 19.6607 13.7684 19.6455 13.8912 19.605C14.0141 19.5644 14.1275 19.4994 14.2245 19.4139C14.4075 19.2289 14.5445 19.0037 14.6248 18.7563L15.5397 16.6619H15.7256L15.5969 20.1001L4.46753 20.1144Z" fill="white"/>
<path d="M17.0265 20.1144V19.8427L24.7749 5.82559H20.5361C20.1103 5.80734 19.6898 5.925 19.3353 6.16154C18.9976 6.4297 18.72 6.76575 18.5204 7.14796L17.4983 8.9564H17.2767L17.4268 5.38242H28.3489V5.64689L20.6005 19.664H25.4682C25.889 19.6788 26.3023 19.5503 26.6405 19.2995C26.9649 19.021 27.2341 18.6839 27.4339 18.3059L28.3918 16.5189H28.5919L28.4346 20.0929L17.0265 20.1144Z" fill="white"/>
<path d="M4.46753 34.6176V34.396L4.91785 34.2387C5.03743 34.2148 5.15096 34.167 5.25166 34.0983C5.35236 34.0295 5.43818 33.9411 5.50398 33.8385C5.61507 33.6172 5.66679 33.3709 5.65409 33.1237V21.4439C5.66458 21.196 5.61039 20.9497 5.49684 20.7291C5.35157 20.5217 5.13967 20.3704 4.89641 20.3002L4.46753 20.1215V19.8999H9.89283C12.1087 19.8999 13.717 20.3074 14.7034 21.1151C15.1814 21.4949 15.5645 21.9806 15.8225 22.5339C16.0805 23.0871 16.2064 23.6928 16.1902 24.3031C16.1971 25.1231 15.9849 25.93 15.5755 26.6405C15.1067 27.3986 14.408 27.9872 13.5812 28.3202C12.3728 28.7892 11.0806 29.0033 9.78561 28.9493H8.99934V33.0593C8.98662 33.3213 9.06729 33.5794 9.22697 33.7875C9.38666 33.9956 9.61501 34.1403 9.87139 34.1959L10.5433 34.396V34.6176H4.46753ZM8.99934 28.4989H9.84995C10.4657 28.525 11.0786 28.4024 11.6369 28.1415C12.1239 27.8725 12.4895 27.4276 12.6591 26.8978C12.9152 26.097 13.0289 25.2575 12.9951 24.4174C13.0304 23.5681 12.9067 22.7196 12.6305 21.9157C12.4368 21.3815 12.0488 20.9399 11.544 20.6791C10.9821 20.4299 10.3714 20.3102 9.75702 20.3288H8.99934V28.4989Z" fill="white"/>
<path d="M17.1552 34.6176V34.346L24.8893 20.3288H20.143C19.7172 20.3106 19.2967 20.4282 18.9422 20.6648C18.6053 20.9308 18.3277 21.2644 18.1273 21.644L17.1051 23.4525H16.8835L17.0337 19.8785H28.4704V20.143L20.7291 34.1673H25.5898C26.0083 34.1905 26.4221 34.0694 26.762 33.8242C27.0904 33.5495 27.3602 33.2116 27.5555 32.8306L28.5133 31.0436H28.742L28.5848 34.6176H17.1552Z" fill="white"/>
</g>
<defs>
<clipPath id="clip0_492_555">
<rect width="33.1951" height="40" fill="white"/>
</clipPath>
</defs>
</svg>
