<svg width="47" height="56" viewBox="0 0 47 56" fill="none" xmlns="http://www.w3.org/2000/svg">
<g clip-path="url(#clip0_2_17)">
<path d="M46.44 56H0V0H46.44V56ZM1.17 54.79H45.27V1.17H1.17V54.79Z" fill="#E51F7E"/>
<path d="M6.25 28.14V27.82L7 27.54C7.28696 27.443 7.53332 27.2529 7.7 27C7.85541 26.6905 7.92777 26.3459 7.91 26V9.67999C7.92648 9.33827 7.86848 8.99706 7.74 8.67999C7.57207 8.40733 7.30803 8.20752 7 8.11999L6.28 7.83999V7.51999H21.28L21.47 12.33H21.16L19.74 9.39999C19.5895 9.06911 19.3906 8.76243 19.15 8.48999C19.027 8.36908 18.8793 8.27613 18.7171 8.21745C18.5549 8.15878 18.3819 8.13577 18.21 8.14999H12.59V17.15H15.93C16.1098 17.1691 16.2916 17.1505 16.4637 17.0954C16.6359 17.0403 16.7947 16.9499 16.93 16.83C17.1712 16.5694 17.3642 16.2681 17.5 15.94L18.13 14.69H18.44V20.31H18.13L17.46 19C17.3122 18.6737 17.113 18.3732 16.87 18.11C16.7447 17.993 16.5964 17.9032 16.4346 17.8464C16.2728 17.7896 16.101 17.767 15.93 17.78H12.59V27.49H18.9C19.0803 27.5054 19.2619 27.4841 19.4338 27.4273C19.6056 27.3706 19.7642 27.2797 19.9 27.16C20.156 26.9013 20.3477 26.5862 20.46 26.24L21.74 23.31H22L21.82 28.12L6.25 28.14Z" fill="#E51F7E"/>
<path d="M23.82 28.14V27.76L34.66 8.15H28.73C28.1343 8.12447 27.546 8.28907 27.05 8.62C26.5776 8.99515 26.1892 9.46529 25.91 10L24.48 12.53H24.17L24.38 7.53H39.66V7.9L28.82 27.51H35.63C36.2187 27.5307 36.7969 27.3509 37.27 27C37.7239 26.6104 38.1004 26.1388 38.38 25.61L39.72 23.11H40L39.78 28.11L23.82 28.14Z" fill="#E51F7E"/>
<path d="M6.25 48.43V48.12L6.88 47.9C7.04729 47.8665 7.20611 47.7997 7.347 47.7035C7.48788 47.6072 7.60794 47.4836 7.7 47.34C7.85541 47.0305 7.92777 46.6859 7.91 46.34V30C7.92468 29.6532 7.84886 29.3086 7.69 29C7.48678 28.7099 7.19033 28.4981 6.85 28.4L6.25 28.15V27.84H13.84C16.94 27.84 19.19 28.41 20.57 29.54C21.2386 30.0714 21.7746 30.7509 22.1356 31.5249C22.4966 32.2989 22.6727 33.1462 22.65 34C22.6597 35.1471 22.3628 36.276 21.79 37.27C21.1342 38.3307 20.1567 39.154 19 39.62C17.3095 40.276 15.5017 40.5756 13.69 40.5H12.59V46.25C12.5722 46.6166 12.6851 46.9775 12.9085 47.2687C13.1319 47.5598 13.4513 47.7623 13.81 47.84L14.75 48.12V48.43H6.25ZM12.59 39.87H13.78C14.6414 39.9064 15.4989 39.7349 16.28 39.37C16.9612 38.9937 17.4728 38.3712 17.71 37.63C18.0683 36.5097 18.2274 35.3352 18.18 34.16C18.2294 32.9718 18.0564 31.7847 17.67 30.66C17.399 29.9127 16.8562 29.2949 16.15 28.93C15.3639 28.5815 14.5095 28.414 13.65 28.44H12.59V39.87Z" fill="#E51F7E"/>
<path d="M24 48.43V48.05L34.82 28.44H28.18C27.5843 28.4145 26.996 28.5791 26.5 28.91C26.0287 29.2822 25.6404 29.7489 25.36 30.28L23.93 32.81H23.62L23.83 27.81H39.83V28.18L29 47.8H35.8C36.3855 47.8326 36.9644 47.6631 37.44 47.32C37.8994 46.9357 38.2769 46.463 38.55 45.93L39.89 43.43H40.21L39.99 48.43H24Z" fill="#E51F7E"/>
</g>
<defs>
<clipPath id="clip0_2_17">
<rect width="46.44" height="55.96" fill="white"/>
</clipPath>
</defs>
</svg>
