<svg width="63" height="76" viewBox="0 0 63 76" fill="none" xmlns="http://www.w3.org/2000/svg">
<g clip-path="url(#clip0_795_158)">
<path d="M63 76.0543H0V0H63V76.0543ZM1.58721 74.411H61.4128V1.58899H1.58721V74.411Z" fill="black"/>
<path d="M8.47868 38.2174V37.7828L9.49613 37.4026C9.88541 37.2708 10.2196 37.0127 10.4457 36.6692C10.6566 36.2488 10.7547 35.7808 10.7306 35.3111V13.1467C10.753 12.6826 10.6743 12.2192 10.5 11.7885C10.2722 11.4182 9.914 11.1469 9.49613 11.028L8.51938 10.6477V10.2131H28.8682L29.126 16.7457H28.7054L26.7791 12.7664C26.5749 12.317 26.3051 11.9005 25.9787 11.5305C25.8118 11.3663 25.6115 11.2401 25.3914 11.1604C25.1713 11.0807 24.9367 11.0494 24.7035 11.0687H17.0795V23.2918H21.6105C21.8543 23.3177 22.101 23.2925 22.3345 23.2177C22.5681 23.1428 22.7835 23.0201 22.9671 22.8572C23.2942 22.5032 23.556 22.094 23.7403 21.6484L24.595 19.9508H25.0155V27.5834H24.595L23.686 25.8043C23.4855 25.3611 23.2153 24.953 22.8857 24.5955C22.7156 24.4366 22.5145 24.3148 22.295 24.2376C22.0755 24.1605 21.8424 24.1297 21.6105 24.1474H17.0795V37.3346H25.6395C25.8842 37.3555 26.1305 37.3266 26.3636 37.2496C26.5968 37.1725 26.812 37.049 26.9961 36.8865C27.3434 36.5351 27.6035 36.1072 27.7558 35.637L29.4923 31.6577H29.845L29.6008 38.1903L8.47868 38.2174Z" fill="black"/>
<path d="M32.314 38.2173V37.7012L47.0194 11.0686H38.9748C38.1667 11.0339 37.3685 11.2575 36.6957 11.7069C36.0549 12.2164 35.528 12.8549 35.1492 13.5811L33.2093 17.0171H32.7888L33.0736 10.2266H53.8023V10.7291L39.0969 37.3617H48.3353C49.1338 37.3897 49.9183 37.1455 50.5601 36.669C51.1758 36.1399 51.6866 35.4995 52.0659 34.7812L53.8837 31.386H54.2636L53.9651 38.1765L32.314 38.2173Z" fill="black"/>
<path d="M8.47868 65.7736V65.3526L9.33333 65.0538C9.56027 65.0083 9.77574 64.9176 9.96686 64.7869C10.158 64.6562 10.3209 64.4883 10.4457 64.2933C10.6566 63.8729 10.7547 63.4049 10.7306 62.9352V40.7436C10.7505 40.2726 10.6477 39.8046 10.4322 39.3855C10.1565 38.9915 9.75433 38.7039 9.29264 38.5706L8.47868 38.2311V37.8101H18.7752C22.9806 37.8101 26.0329 38.5842 27.905 40.1189C28.8121 40.8405 29.5392 41.7633 30.0289 42.8145C30.5186 43.8658 30.7575 45.0165 30.7267 46.176C30.7399 47.734 30.3371 49.2672 29.5601 50.6171C28.6705 52.0576 27.3444 53.1758 25.7752 53.8086C23.4819 54.6996 21.0295 55.1065 18.5717 55.0038H17.0795V62.8129C17.0553 63.3107 17.2084 63.801 17.5115 64.1964C17.8145 64.5918 18.2479 64.8668 18.7345 64.9723L20.0097 65.3526V65.7736H8.47868ZM17.0795 54.1482H18.6938C19.8623 54.1976 21.0256 53.9647 22.0853 53.4691C23.0094 52.958 23.7034 52.1126 24.0252 51.106C24.5113 49.5845 24.7271 47.9895 24.6628 46.3933C24.7298 44.7796 24.4952 43.1675 23.9709 41.6399C23.6033 40.625 22.867 39.786 21.9089 39.2904C20.8425 38.8171 19.6835 38.5896 18.5174 38.6249H17.0795V54.1482Z" fill="black"/>
<path d="M32.5581 65.7736V65.2575L47.2364 38.6249H38.2287C37.4206 38.5902 36.6224 38.8138 35.9496 39.2632C35.3103 39.7688 34.7835 40.4025 34.4031 41.1238L32.4632 44.5599H32.0426L32.3275 37.7693H54.033V38.2718L39.3411 64.918H48.5659C49.3602 64.9622 50.1456 64.7321 50.7907 64.2661C51.4139 63.7442 51.926 63.1022 52.2965 62.3783L54.1143 58.983H54.5485L54.25 65.7736H32.5581Z" fill="black"/>
</g>
<defs>
<clipPath id="clip0_795_158">
<rect width="63" height="76" fill="white"/>
</clipPath>
</defs>
</svg>
