<svg width="76" height="13" viewBox="0 0 76 13" fill="none" xmlns="http://www.w3.org/2000/svg">
<path d="M0.117751 12V0.799999H1.30175V10.976H7.57375V12H0.117751ZM8.89963 12V0.799999H10.0836V12H8.89963ZM14.1118 9.216L14.0638 7.776L20.8478 0.799999H22.2078L17.2638 5.984L16.5918 6.704L14.1118 9.216ZM13.0878 12V0.799999H14.2718V12H13.0878ZM21.1358 12L16.3038 6.432L17.1038 5.568L22.5438 12H21.1358ZM24.8788 5.808H30.7988V6.816H24.8788V5.808ZM25.0068 10.976H31.7428V12H23.8228V0.799999H31.5028V1.824H25.0068V10.976ZM37.4334 12V0.799999H38.6174V12H37.4334ZM43.7975 12V1.824H39.8615V0.799999H48.9175V1.824H44.9815V12H43.7975Z" fill="white"/>
<path d="M55.6045 5.312H60.9965V7.328H55.6045V5.312ZM55.7965 9.92H61.8925V12H53.2205V0.799999H61.6845V2.88H55.7965V9.92ZM62.5949 12V10.32L69.5229 1.968L69.8429 2.912H62.7229V0.799999H72.1469V2.48L65.2349 10.832L64.9149 9.888H72.3869V12H62.5949ZM73.4093 8.112L72.9133 0.799999H75.8893L75.3933 8.112H73.4093ZM74.4013 12.128C73.9533 12.128 73.5853 11.984 73.2973 11.696C73.0093 11.408 72.8653 11.0667 72.8653 10.672C72.8653 10.2667 73.0093 9.93067 73.2973 9.664C73.5853 9.38667 73.9533 9.248 74.4013 9.248C74.8599 9.248 75.2279 9.38667 75.5053 9.664C75.7933 9.93067 75.9373 10.2667 75.9373 10.672C75.9373 11.0667 75.7933 11.408 75.5053 11.696C75.2279 11.984 74.8599 12.128 74.4013 12.128Z" fill="#F26522"/>
</svg>
