<svg width="315" height="44" viewBox="0 0 315 44" fill="none" xmlns="http://www.w3.org/2000/svg">
<path d="M0.224857 43V0.154127H4.75428V39.0827H28.748V43H0.224857ZM36.2685 43V0.154127H40.7979V43H36.2685ZM58.6559 32.3497L58.4723 26.841L84.4246 0.154127H89.6274L70.714 19.9856L68.1432 22.74L58.6559 32.3497ZM54.7386 43V0.154127H59.268V43H54.7386ZM85.5264 43L67.0415 21.6995L70.1019 18.3942L90.9127 43H85.5264ZM102.294 19.3124H124.941V23.1685H102.294V19.3124ZM102.783 39.0827H128.552V43H98.2539V0.154127H127.634V4.07146H102.783V39.0827ZM155.218 43V0.154127H159.748V43H155.218ZM182.013 43V4.07146H166.956V0.154127H201.599V4.07146H186.542V43H182.013Z" fill="#4D4C4B"/>
<path d="M232.077 17.4149H252.705V25.1271H232.077V17.4149ZM232.812 35.0429H256.132V43H222.957V0.154127H255.337V8.11122H232.812V35.0429ZM261.268 43V36.5731L287.771 4.62234L288.995 8.23364H261.757V0.154127H297.809V6.58101L271.367 38.5318L270.143 34.9205H298.727V43H261.268ZM305.087 28.1264L303.189 0.154127H314.574L312.676 28.1264H305.087ZM308.882 43.4897C307.168 43.4897 305.76 42.9388 304.658 41.837C303.556 40.7353 303.006 39.4295 303.006 37.9197C303.006 36.3691 303.556 35.0837 304.658 34.0636C305.76 33.0026 307.168 32.4722 308.882 32.4722C310.636 32.4722 312.044 33.0026 313.105 34.0636C314.207 35.0837 314.758 36.3691 314.758 37.9197C314.758 39.4295 314.207 40.7353 313.105 41.837C312.044 42.9388 310.636 43.4897 308.882 43.4897Z" fill="#F26522"/>
</svg>
