<svg width="1074" height="75" viewBox="0 0 1074 75" fill="none" xmlns="http://www.w3.org/2000/svg">
<path d="M6.97776 16.1541H11.5072V55.0827H35.5009V59H6.97776V16.1541ZM42.1032 26.8044H46.449V59H42.1032V26.8044ZM44.3067 19.7654C43.409 19.7654 42.6541 19.4594 42.042 18.8473C41.4299 18.2352 41.1239 17.5007 41.1239 16.6438C41.1239 15.8277 41.4299 15.1136 42.042 14.5015C42.6541 13.8894 43.409 13.5834 44.3067 13.5834C45.2045 13.5834 45.9594 13.8894 46.5715 14.5015C47.1835 15.0728 47.4896 15.7665 47.4896 16.5826C47.4896 17.4803 47.1835 18.2352 46.5715 18.8473C45.9594 19.4594 45.2045 19.7654 44.3067 19.7654ZM70.4767 42.841L62.8868 49.8187V59H58.541V13.5834H62.8868V44.3712L82.1063 26.8044H87.4926L73.7207 39.9642L88.778 59H83.4529L70.4767 42.841ZM122.02 44.2488H95.0887C95.3335 47.5948 96.6189 50.3084 98.9448 52.3895C101.271 54.4298 104.209 55.4499 107.759 55.4499C109.758 55.4499 111.595 55.1031 113.268 54.4094C114.941 53.6749 116.389 52.6139 117.613 51.2265L120.062 54.0421C118.633 55.756 116.838 57.0617 114.675 57.9595C112.553 58.8572 110.207 59.306 107.636 59.306C104.331 59.306 101.393 58.6123 98.8224 57.225C96.2924 55.7968 94.3134 53.8381 92.8852 51.349C91.457 48.8598 90.7429 46.0442 90.7429 42.9022C90.7429 39.7602 91.4162 36.9446 92.7627 34.4554C94.1501 31.9663 96.0272 30.028 98.3939 28.6406C100.801 27.2532 103.495 26.5596 106.473 26.5596C109.452 26.5596 112.125 27.2532 114.492 28.6406C116.858 30.028 118.715 31.9663 120.062 34.4554C121.408 36.9038 122.082 39.7194 122.082 42.9022L122.02 44.2488ZM106.473 30.2933C103.372 30.2933 100.761 31.293 98.6388 33.2925C96.5577 35.2511 95.3743 37.8219 95.0887 41.0047H117.919C117.634 37.8219 116.43 35.2511 114.308 33.2925C112.227 31.293 109.615 30.2933 106.473 30.2933ZM146.947 26.8044H151.292V59H146.947V26.8044ZM149.15 19.7654C148.252 19.7654 147.497 19.4594 146.885 18.8473C146.273 18.2352 145.967 17.5007 145.967 16.6438C145.967 15.8277 146.273 15.1136 146.885 14.5015C147.497 13.8894 148.252 13.5834 149.15 13.5834C150.048 13.5834 150.803 13.8894 151.415 14.5015C152.027 15.0728 152.333 15.7665 152.333 16.5826C152.333 17.4803 152.027 18.2352 151.415 18.8473C150.803 19.4594 150.048 19.7654 149.15 19.7654ZM180.339 57.0413C179.523 57.7758 178.503 58.3471 177.279 58.7552C176.095 59.1224 174.851 59.306 173.545 59.306C170.525 59.306 168.199 58.4899 166.567 56.8577C164.935 55.2255 164.119 52.92 164.119 49.9412V30.4769H158.365V26.8044H164.119V19.7654H168.465V26.8044H178.258V30.4769H168.465V49.6963C168.465 51.6142 168.934 53.0832 169.872 54.1033C170.852 55.0827 172.239 55.5723 174.035 55.5723C174.932 55.5723 175.789 55.4295 176.605 55.1439C177.462 54.8582 178.197 54.4502 178.809 53.9197L180.339 57.0413Z" fill="#4D4C4B"/>
<path d="M235.486 55.0827V59H205.188V16.1541H234.568V20.0715H209.717V35.3124H231.875V39.1685H209.717V55.0827H235.486ZM277.043 55.0827V59H241.909V55.8784L270.31 20.0715H242.338V16.1541H276.309V19.2758L247.969 55.0827H277.043ZM284.411 16.1541H289.552L288.634 46.1462H285.267L284.411 16.1541ZM286.981 59.306C286.084 59.306 285.308 59 284.655 58.3879C284.043 57.735 283.737 56.9801 283.737 56.1232C283.737 55.2255 284.043 54.491 284.655 53.9197C285.267 53.3076 286.043 53.0016 286.981 53.0016C287.879 53.0016 288.634 53.3076 289.246 53.9197C289.858 54.491 290.164 55.2255 290.164 56.1232C290.164 56.9801 289.858 57.735 289.246 58.3879C288.634 59 287.879 59.306 286.981 59.306Z" fill="#E51F7E"/>
<path d="M396.225 16.1541H400.754V55.0827H424.748V59H396.225V16.1541ZM431.35 26.8044H435.696V59H431.35V26.8044ZM433.554 19.7654C432.656 19.7654 431.901 19.4594 431.289 18.8473C430.677 18.2352 430.371 17.5007 430.371 16.6438C430.371 15.8277 430.677 15.1136 431.289 14.5015C431.901 13.8894 432.656 13.5834 433.554 13.5834C434.452 13.5834 435.206 13.8894 435.819 14.5015C436.431 15.0728 436.737 15.7665 436.737 16.5826C436.737 17.4803 436.431 18.2352 435.819 18.8473C435.206 19.4594 434.452 19.7654 433.554 19.7654ZM459.724 42.841L452.134 49.8187V59H447.788V13.5834H452.134V44.3712L471.353 26.8044H476.74L462.968 39.9642L478.025 59H472.7L459.724 42.841ZM511.267 44.2488H484.336C484.581 47.5948 485.866 50.3084 488.192 52.3895C490.518 54.4298 493.456 55.4499 497.006 55.4499C499.005 55.4499 500.842 55.1031 502.515 54.4094C504.188 53.6749 505.636 52.6139 506.86 51.2265L509.309 54.0421C507.881 55.756 506.085 57.0617 503.922 57.9595C501.801 58.8572 499.454 59.306 496.883 59.306C493.578 59.306 490.64 58.6123 488.069 57.225C485.54 55.7968 483.56 53.8381 482.132 51.349C480.704 48.8598 479.99 46.0442 479.99 42.9022C479.99 39.7602 480.663 36.9446 482.01 34.4554C483.397 31.9663 485.274 30.028 487.641 28.6406C490.049 27.2532 492.742 26.5596 495.721 26.5596C498.699 26.5596 501.372 27.2532 503.739 28.6406C506.106 30.028 507.962 31.9663 509.309 34.4554C510.655 36.9038 511.329 39.7194 511.329 42.9022L511.267 44.2488ZM495.721 30.2933C492.619 30.2933 490.008 31.293 487.886 33.2925C485.805 35.2511 484.621 37.8219 484.336 41.0047H507.166C506.881 37.8219 505.677 35.2511 503.555 33.2925C501.474 31.293 498.863 30.2933 495.721 30.2933ZM536.194 26.8044H540.539V59H536.194V26.8044ZM538.397 19.7654C537.499 19.7654 536.744 19.4594 536.132 18.8473C535.52 18.2352 535.214 17.5007 535.214 16.6438C535.214 15.8277 535.52 15.1136 536.132 14.5015C536.744 13.8894 537.499 13.5834 538.397 13.5834C539.295 13.5834 540.05 13.8894 540.662 14.5015C541.274 15.0728 541.58 15.7665 541.58 16.5826C541.58 17.4803 541.274 18.2352 540.662 18.8473C540.05 19.4594 539.295 19.7654 538.397 19.7654ZM569.586 57.0413C568.77 57.7758 567.75 58.3471 566.526 58.7552C565.342 59.1224 564.098 59.306 562.792 59.306C559.772 59.306 557.446 58.4899 555.814 56.8577C554.182 55.2255 553.366 52.92 553.366 49.9412V30.4769H547.612V26.8044H553.366V19.7654H557.712V26.8044H567.505V30.4769H557.712V49.6963C557.712 51.6142 558.181 53.0832 559.119 54.1033C560.099 55.0827 561.486 55.5723 563.282 55.5723C564.179 55.5723 565.036 55.4295 565.852 55.1439C566.709 54.8582 567.444 54.4502 568.056 53.9197L569.586 57.0413Z" fill="#4D4C4B"/>
<path d="M624.733 55.0827V59H594.435V16.1541H623.815V20.0715H598.964V35.3124H621.122V39.1685H598.964V55.0827H624.733ZM666.29 55.0827V59H631.157V55.8784L659.557 20.0715H631.585V16.1541H665.556V19.2758L637.216 55.0827H666.29ZM673.658 16.1541H678.799L677.881 46.1462H674.515L673.658 16.1541ZM676.228 59.306C675.331 59.306 674.555 59 673.902 58.3879C673.29 57.735 672.984 56.9801 672.984 56.1232C672.984 55.2255 673.29 54.491 673.902 53.9197C674.515 53.3076 675.29 53.0016 676.228 53.0016C677.126 53.0016 677.881 53.3076 678.493 53.9197C679.105 54.491 679.411 55.2255 679.411 56.1232C679.411 56.9801 679.105 57.735 678.493 58.3879C677.881 59 677.126 59.306 676.228 59.306Z" fill="#E51F7E"/>
<path d="M785.472 16.1541H790.001V55.0827H813.995V59H785.472V16.1541ZM820.597 26.8044H824.943V59H820.597V26.8044ZM822.801 19.7654C821.903 19.7654 821.148 19.4594 820.536 18.8473C819.924 18.2352 819.618 17.5007 819.618 16.6438C819.618 15.8277 819.924 15.1136 820.536 14.5015C821.148 13.8894 821.903 13.5834 822.801 13.5834C823.699 13.5834 824.454 13.8894 825.066 14.5015C825.678 15.0728 825.984 15.7665 825.984 16.5826C825.984 17.4803 825.678 18.2352 825.066 18.8473C824.454 19.4594 823.699 19.7654 822.801 19.7654ZM848.971 42.841L841.381 49.8187V59H837.035V13.5834H841.381V44.3712L860.6 26.8044H865.987L852.215 39.9642L867.272 59H861.947L848.971 42.841ZM900.515 44.2488H873.583C873.828 47.5948 875.113 50.3084 877.439 52.3895C879.765 54.4298 882.703 55.4499 886.253 55.4499C888.252 55.4499 890.089 55.1031 891.762 54.4094C893.435 53.6749 894.883 52.6139 896.108 51.2265L898.556 54.0421C897.128 55.756 895.332 57.0617 893.17 57.9595C891.048 58.8572 888.701 59.306 886.131 59.306C882.825 59.306 879.887 58.6123 877.317 57.225C874.787 55.7968 872.808 53.8381 871.379 51.349C869.951 48.8598 869.237 46.0442 869.237 42.9022C869.237 39.7602 869.91 36.9446 871.257 34.4554C872.644 31.9663 874.521 30.028 876.888 28.6406C879.296 27.2532 881.989 26.5596 884.968 26.5596C887.946 26.5596 890.619 27.2532 892.986 28.6406C895.353 30.028 897.209 31.9663 898.556 34.4554C899.902 36.9038 900.576 39.7194 900.576 42.9022L900.515 44.2488ZM884.968 30.2933C881.866 30.2933 879.255 31.293 877.133 33.2925C875.052 35.2511 873.869 37.8219 873.583 41.0047H896.414C896.128 37.8219 894.924 35.2511 892.802 33.2925C890.721 31.293 888.11 30.2933 884.968 30.2933ZM925.441 26.8044H929.787V59H925.441V26.8044ZM927.644 19.7654C926.746 19.7654 925.992 19.4594 925.38 18.8473C924.767 18.2352 924.461 17.5007 924.461 16.6438C924.461 15.8277 924.767 15.1136 925.38 14.5015C925.992 13.8894 926.746 13.5834 927.644 13.5834C928.542 13.5834 929.297 13.8894 929.909 14.5015C930.521 15.0728 930.827 15.7665 930.827 16.5826C930.827 17.4803 930.521 18.2352 929.909 18.8473C929.297 19.4594 928.542 19.7654 927.644 19.7654ZM958.833 57.0413C958.017 57.7758 956.997 58.3471 955.773 58.7552C954.589 59.1224 953.345 59.306 952.039 59.306C949.019 59.306 946.694 58.4899 945.061 56.8577C943.429 55.2255 942.613 52.92 942.613 49.9412V30.4769H936.859V26.8044H942.613V19.7654H946.959V26.8044H956.752V30.4769H946.959V49.6963C946.959 51.6142 947.428 53.0832 948.367 54.1033C949.346 55.0827 950.733 55.5723 952.529 55.5723C953.426 55.5723 954.283 55.4295 955.1 55.1439C955.956 54.8582 956.691 54.4502 957.303 53.9197L958.833 57.0413Z" fill="#4D4C4B"/>
<path d="M1013.98 55.0827V59H983.682V16.1541H1013.06V20.0715H988.211V35.3124H1010.37V39.1685H988.211V55.0827H1013.98ZM1055.54 55.0827V59H1020.4V55.8784L1048.8 20.0715H1020.83V16.1541H1054.8V19.2758L1026.46 55.0827H1055.54ZM1062.9 16.1541H1068.05L1067.13 46.1462H1063.76L1062.9 16.1541ZM1065.48 59.306C1064.58 59.306 1063.8 59 1063.15 58.3879C1062.54 57.735 1062.23 56.9801 1062.23 56.1232C1062.23 55.2255 1062.54 54.491 1063.15 53.9197C1063.76 53.3076 1064.54 53.0016 1065.48 53.0016C1066.37 53.0016 1067.13 53.3076 1067.74 53.9197C1068.35 54.491 1068.66 55.2255 1068.66 56.1232C1068.66 56.9801 1068.35 57.735 1067.74 58.3879C1067.13 59 1066.37 59.306 1065.48 59.306Z" fill="#E51F7E"/>
</svg>
