<svg width="364" height="182" viewBox="0 0 364 182" fill="none" xmlns="http://www.w3.org/2000/svg">
<path d="M40.1655 23.5006C43.7168 23.5006 46.5224 24.5305 48.5822 26.5903C50.6774 28.65 51.7251 31.7042 51.7251 35.7527V52H46.6112V36.3386C46.6112 33.6041 45.9719 31.5444 44.6935 30.1593C43.4505 28.7743 41.6571 28.0818 39.3132 28.0818C36.7207 28.0818 34.661 28.8986 33.1339 30.5322C31.6068 32.1303 30.8433 34.4387 30.8433 37.4573V52H25.7294V36.3386C25.7294 33.6041 25.0901 31.5444 23.8117 30.1593C22.5687 28.7743 20.7753 28.0818 18.4314 28.0818C15.8389 28.0818 13.7792 28.8986 12.2521 30.5322C10.725 32.1303 9.96147 34.4387 9.96147 37.4573V52H4.84756V23.7669H9.74839V27.9753C10.7783 26.5192 12.1278 25.4183 13.7969 24.6725C15.466 23.8912 17.366 23.5006 19.4968 23.5006C21.6986 23.5006 23.6518 23.9445 25.3565 24.8323C27.0611 25.7202 28.3751 27.0164 29.2985 28.721C30.3639 27.0874 31.8377 25.809 33.7199 24.8856C35.6376 23.9623 37.7861 23.5006 40.1655 23.5006ZM71.785 52.3196C68.9794 52.3196 66.458 51.6981 64.2206 50.4552C61.9833 49.2122 60.2254 47.5076 58.9469 45.3413C57.7039 43.1394 57.0825 40.6535 57.0825 37.8835C57.0825 35.1134 57.7039 32.6453 58.9469 30.479C60.2254 28.2771 61.9833 26.5725 64.2206 25.365C66.458 24.1221 68.9794 23.5006 71.785 23.5006C74.5905 23.5006 77.0942 24.1221 79.296 25.365C81.5333 26.5725 83.2735 28.2771 84.5165 30.479C85.7949 32.6453 86.4342 35.1134 86.4342 37.8835C86.4342 40.6535 85.7949 43.1394 84.5165 45.3413C83.2735 47.5076 81.5333 49.2122 79.296 50.4552C77.0942 51.6981 74.5905 52.3196 71.785 52.3196ZM71.785 47.8449C73.5961 47.8449 75.212 47.4365 76.6325 46.6197C78.0886 45.7674 79.225 44.5955 80.0418 43.1039C80.8586 41.5769 81.267 39.8367 81.267 37.8835C81.267 35.9302 80.8586 34.2078 80.0418 32.7163C79.225 31.1892 78.0886 30.0173 76.6325 29.2005C75.212 28.3837 73.5961 27.9753 71.785 27.9753C69.9738 27.9753 68.3402 28.3837 66.8841 29.2005C65.4636 30.0173 64.3272 31.1892 63.4748 32.7163C62.658 34.2078 62.2496 35.9302 62.2496 37.8835C62.2496 39.8367 62.658 41.5769 63.4748 43.1039C64.3272 44.5955 65.4636 45.7674 66.8841 46.6197C68.3402 47.4365 69.9738 47.8449 71.785 47.8449ZM106.984 23.5006C110.571 23.5006 113.412 24.5482 115.507 26.6435C117.638 28.7033 118.703 31.7397 118.703 35.7527V52H113.589V36.3386C113.589 33.6041 112.932 31.5444 111.618 30.1593C110.304 28.7743 108.422 28.0818 105.972 28.0818C103.202 28.0818 101.018 28.8986 99.4195 30.5322C97.8215 32.1303 97.0224 34.4387 97.0224 37.4573V52H91.9085V23.7669H96.8093V28.0285C97.8392 26.5725 99.2242 25.4538 100.964 24.6725C102.74 23.8912 104.747 23.5006 106.984 23.5006ZM153.36 12.4737V52H148.46V47.5253C147.323 49.0879 145.885 50.2776 144.145 51.0944C142.404 51.9112 140.487 52.3196 138.391 52.3196C135.657 52.3196 133.207 51.7159 131.04 50.5084C128.874 49.301 127.169 47.6141 125.926 45.4478C124.719 43.246 124.115 40.7245 124.115 37.8835C124.115 35.0424 124.719 32.5387 125.926 30.3724C127.169 28.2061 128.874 26.5192 131.04 25.3118C133.207 24.1043 135.657 23.5006 138.391 23.5006C140.416 23.5006 142.28 23.8912 143.985 24.6725C145.689 25.4183 147.11 26.537 148.246 28.0285V12.4737H153.36ZM138.818 47.8449C140.593 47.8449 142.209 47.4365 143.665 46.6197C145.121 45.7674 146.258 44.5955 147.074 43.1039C147.891 41.5769 148.3 39.8367 148.3 37.8835C148.3 35.9302 147.891 34.2078 147.074 32.7163C146.258 31.1892 145.121 30.0173 143.665 29.2005C142.209 28.3837 140.593 27.9753 138.818 27.9753C137.006 27.9753 135.373 28.3837 133.917 29.2005C132.496 30.0173 131.36 31.1892 130.508 32.7163C129.691 34.2078 129.282 35.9302 129.282 37.8835C129.282 39.8367 129.691 41.5769 130.508 43.1039C131.36 44.5955 132.496 45.7674 133.917 46.6197C135.373 47.4365 137.006 47.8449 138.818 47.8449ZM171.719 23.5006C175.626 23.5006 178.609 24.4595 180.669 26.3772C182.764 28.2949 183.812 31.1537 183.812 34.9536V52H178.964V48.2711C178.112 49.5851 176.886 50.5972 175.288 51.3075C173.726 51.9822 171.861 52.3196 169.695 52.3196C166.534 52.3196 163.995 51.5561 162.077 50.029C160.195 48.5019 159.254 46.4954 159.254 44.0095C159.254 41.5236 160.16 39.5348 161.971 38.0433C163.782 36.5162 166.659 35.7527 170.601 35.7527H178.698V34.7405C178.698 32.5387 178.058 30.8518 176.78 29.6799C175.501 28.508 173.619 27.922 171.133 27.922C169.464 27.922 167.831 28.2061 166.233 28.7743C164.634 29.307 163.285 30.035 162.184 30.9584L160.053 27.123C161.509 25.951 163.249 25.0632 165.274 24.4595C167.298 23.8202 169.446 23.5006 171.719 23.5006ZM170.547 48.3776C172.501 48.3776 174.187 47.9515 175.608 47.0992C177.029 46.2113 178.058 44.9684 178.698 43.3703V39.4283H170.814C166.481 39.4283 164.315 40.8843 164.315 43.7964C164.315 45.217 164.865 46.3356 165.966 47.1524C167.067 47.9692 168.594 48.3776 170.547 48.3776ZM216.141 23.7669L202.45 54.8233C201.243 57.6999 199.822 59.7241 198.189 60.8961C196.591 62.068 194.655 62.654 192.382 62.654C190.997 62.654 189.648 62.4231 188.334 61.9615C187.055 61.5353 185.99 60.8961 185.137 60.0438L187.322 56.2083C188.778 57.5933 190.464 58.2859 192.382 58.2859C193.625 58.2859 194.655 57.9485 195.472 57.2737C196.324 56.6345 197.088 55.5158 197.762 53.9177L198.668 51.9467L186.203 23.7669H191.53L201.385 46.3534L211.133 23.7669H216.141Z" fill="#F26522"/>
<path d="M187.737 168.848C185.428 168.848 183.209 168.546 181.078 167.942C178.947 167.303 177.278 166.504 176.07 165.545L178.201 161.496C179.444 162.384 180.953 163.095 182.729 163.627C184.505 164.16 186.298 164.426 188.109 164.426C192.584 164.426 194.821 163.148 194.821 160.591C194.821 159.739 194.52 159.064 193.916 158.567C193.312 158.069 192.549 157.714 191.625 157.501C190.737 157.253 189.459 156.986 187.79 156.702C185.517 156.347 183.652 155.939 182.196 155.477C180.776 155.015 179.551 154.234 178.521 153.133C177.491 152.032 176.976 150.487 176.976 148.499C176.976 145.942 178.041 143.9 180.172 142.373C182.303 140.81 185.162 140.029 188.749 140.029C190.631 140.029 192.513 140.26 194.395 140.721C196.277 141.183 197.822 141.804 199.03 142.586L196.846 146.634C194.537 145.143 191.821 144.397 188.695 144.397C186.529 144.397 184.878 144.752 183.741 145.462C182.605 146.172 182.037 147.114 182.037 148.286C182.037 149.209 182.356 149.937 182.995 150.47C183.635 151.002 184.416 151.393 185.339 151.642C186.298 151.89 187.63 152.174 189.335 152.494C191.607 152.884 193.436 153.311 194.821 153.772C196.242 154.198 197.449 154.944 198.444 156.01C199.438 157.075 199.935 158.567 199.935 160.484C199.935 163.041 198.834 165.083 196.633 166.61C194.466 168.102 191.501 168.848 187.737 168.848ZM231.044 140.295V168.528H226.196V164.266C225.166 165.723 223.799 166.859 222.094 167.676C220.425 168.457 218.596 168.848 216.608 168.848C212.843 168.848 209.878 167.818 207.711 165.758C205.545 163.663 204.462 160.591 204.462 156.542V140.295H209.576V155.956C209.576 158.691 210.233 160.768 211.547 162.189C212.861 163.574 214.743 164.266 217.194 164.266C219.893 164.266 222.023 163.45 223.586 161.816C225.149 160.182 225.93 157.874 225.93 154.891V140.295H231.044ZM254.256 140.029C257.843 140.029 260.684 141.076 262.78 143.172C264.91 145.231 265.976 148.268 265.976 152.281V168.528H260.862V152.867C260.862 150.132 260.205 148.072 258.891 146.687C257.577 145.302 255.695 144.61 253.244 144.61C250.474 144.61 248.29 145.427 246.692 147.06C245.094 148.658 244.295 150.967 244.295 153.985V168.528H239.181V140.295H244.082V144.557C245.112 143.101 246.497 141.982 248.237 141.201C250.013 140.419 252.019 140.029 254.256 140.029ZM300.633 129.002V168.528H295.732V164.053C294.596 165.616 293.157 166.806 291.417 167.622C289.677 168.439 287.759 168.848 285.664 168.848C282.93 168.848 280.479 168.244 278.313 167.037C276.147 165.829 274.442 164.142 273.199 161.976C271.991 159.774 271.388 157.253 271.388 154.412C271.388 151.57 271.991 149.067 273.199 146.9C274.442 144.734 276.147 143.047 278.313 141.84C280.479 140.632 282.93 140.029 285.664 140.029C287.688 140.029 289.553 140.419 291.257 141.201C292.962 141.946 294.383 143.065 295.519 144.557V129.002H300.633ZM286.09 164.373C287.866 164.373 289.482 163.965 290.938 163.148C292.394 162.295 293.53 161.124 294.347 159.632C295.164 158.105 295.572 156.365 295.572 154.412C295.572 152.458 295.164 150.736 294.347 149.244C293.53 147.717 292.394 146.545 290.938 145.729C289.482 144.912 287.866 144.503 286.09 144.503C284.279 144.503 282.645 144.912 281.189 145.729C279.769 146.545 278.632 147.717 277.78 149.244C276.963 150.736 276.555 152.458 276.555 154.412C276.555 156.365 276.963 158.105 277.78 159.632C278.632 161.124 279.769 162.295 281.189 163.148C282.645 163.965 284.279 164.373 286.09 164.373ZM318.992 140.029C322.898 140.029 325.881 140.988 327.941 142.905C330.037 144.823 331.084 147.682 331.084 151.482V168.528H326.237V164.799C325.384 166.113 324.159 167.125 322.561 167.836C320.998 168.51 319.134 168.848 316.968 168.848C313.807 168.848 311.268 168.084 309.35 166.557C307.468 165.03 306.527 163.024 306.527 160.538C306.527 158.052 307.432 156.063 309.244 154.571C311.055 153.044 313.931 152.281 317.873 152.281H325.97V151.269C325.97 149.067 325.331 147.38 324.053 146.208C322.774 145.036 320.892 144.45 318.406 144.45C316.737 144.45 315.103 144.734 313.505 145.302C311.907 145.835 310.558 146.563 309.457 147.486L307.326 143.651C308.782 142.479 310.522 141.591 312.546 140.988C314.571 140.348 316.719 140.029 318.992 140.029ZM317.82 164.906C319.773 164.906 321.46 164.48 322.881 163.627C324.301 162.739 325.331 161.496 325.97 159.898V155.956H318.086C313.754 155.956 311.587 157.412 311.587 160.325C311.587 161.745 312.138 162.864 313.239 163.681C314.34 164.497 315.867 164.906 317.82 164.906ZM363.413 140.295L349.723 171.351C348.515 174.228 347.095 176.252 345.461 177.424C343.863 178.596 341.928 179.182 339.655 179.182C338.27 179.182 336.92 178.951 335.606 178.49C334.328 178.063 333.262 177.424 332.41 176.572L334.594 172.736C336.05 174.121 337.737 174.814 339.655 174.814C340.898 174.814 341.928 174.477 342.744 173.802C343.597 173.163 344.36 172.044 345.035 170.446L345.941 168.475L333.476 140.295H338.802L348.657 162.881L358.406 140.295H363.413Z" fill="#F26522"/>
<path d="M148.07 115.271C147.325 115.91 146.401 116.408 145.3 116.763C144.199 117.082 143.063 117.242 141.891 117.242C139.05 117.242 136.848 116.479 135.286 114.952C133.723 113.425 132.942 111.24 132.942 108.399V92.8979H128.147V88.6896H132.942V82.5102H138.056V88.6896H146.153V92.8979H138.056V108.186C138.056 109.713 138.429 110.885 139.174 111.702C139.956 112.519 141.057 112.927 142.477 112.927C144.04 112.927 145.371 112.483 146.472 111.596L148.07 115.271ZM163.811 117.242C161.005 117.242 158.484 116.621 156.247 115.378C154.009 114.135 152.251 112.43 150.973 110.264C149.73 108.062 149.108 105.576 149.108 102.806C149.108 100.036 149.73 97.5679 150.973 95.4016C152.251 93.1997 154.009 91.4951 156.247 90.2877C158.484 89.0447 161.005 88.4232 163.811 88.4232C166.616 88.4232 169.12 89.0447 171.322 90.2877C173.559 91.4951 175.299 93.1997 176.542 95.4016C177.821 97.5679 178.46 100.036 178.46 102.806C178.46 105.576 177.821 108.062 176.542 110.264C175.299 112.43 173.559 114.135 171.322 115.378C169.12 116.621 166.616 117.242 163.811 117.242ZM163.811 112.768C165.622 112.768 167.238 112.359 168.658 111.542C170.114 110.69 171.251 109.518 172.068 108.027C172.884 106.499 173.293 104.759 173.293 102.806C173.293 100.853 172.884 99.1305 172.068 97.6389C171.251 96.1118 170.114 94.9399 168.658 94.1231C167.238 93.3063 165.622 92.8979 163.811 92.8979C162 92.8979 160.366 93.3063 158.91 94.1231C157.489 94.9399 156.353 96.1118 155.501 97.6389C154.684 99.1305 154.276 100.853 154.276 102.806C154.276 104.759 154.684 106.499 155.501 108.027C156.353 109.518 157.489 110.69 158.91 111.542C160.366 112.359 162 112.768 163.811 112.768Z" fill="#F26522"/>
<path d="M5.82639 61.5935L173.127 61.5935" stroke="#9FC441" stroke-width="2.49703" stroke-linecap="round"/>
<path d="M176.457 176.457L319.62 176.457" stroke="#9FC441" stroke-width="2.49703" stroke-linecap="round"/>
<path d="M178.954 61.5935H181.034" stroke="#9FC441" stroke-width="2.49703" stroke-linecap="round"/>
<path d="M325.446 176.457H327.527" stroke="#9FC441" stroke-width="2.49703" stroke-linecap="round"/>
</svg>
