<svg width="374" height="117" viewBox="0 0 374 117" fill="none" xmlns="http://www.w3.org/2000/svg">
<path d="M35.712 41.64C40.64 41.64 45.056 42.728 48.96 44.904C52.864 47.08 55.904 50.12 58.08 54.024C60.32 57.928 61.44 62.44 61.44 67.56C61.44 72.68 60.32 77.224 58.08 81.192C55.904 85.096 52.864 88.136 48.96 90.312C45.056 92.488 40.64 93.576 35.712 93.576C32.064 93.576 28.704 92.872 25.632 91.464C22.624 90.056 20.064 88.008 17.952 85.32V111.624H8.736V42.12H17.568V50.184C19.616 47.368 22.208 45.256 25.344 43.848C28.48 42.376 31.936 41.64 35.712 41.64ZM34.944 85.512C38.208 85.512 41.12 84.776 43.68 83.304C46.304 81.768 48.352 79.656 49.824 76.968C51.36 74.216 52.128 71.08 52.128 67.56C52.128 64.04 51.36 60.936 49.824 58.248C48.352 55.496 46.304 53.384 43.68 51.912C41.12 50.44 38.208 49.704 34.944 49.704C31.744 49.704 28.832 50.472 26.208 52.008C23.648 53.48 21.6 55.56 20.064 58.248C18.592 60.936 17.856 64.04 17.856 67.56C17.856 71.08 18.592 74.216 20.064 76.968C21.536 79.656 23.584 81.768 26.208 83.304C28.832 84.776 31.744 85.512 34.944 85.512ZM80.1255 50.664C81.7255 47.72 84.0935 45.48 87.2295 43.944C90.3655 42.408 94.1735 41.64 98.6535 41.64V50.568C98.1415 50.504 97.4375 50.472 96.5415 50.472C91.5495 50.472 87.6135 51.976 84.7335 54.984C81.9175 57.928 80.5095 62.152 80.5095 67.656V93H71.2935V42.12H80.1255V50.664ZM128.455 93.576C123.399 93.576 118.855 92.456 114.823 90.216C110.791 87.976 107.623 84.904 105.319 81C103.079 77.032 101.959 72.552 101.959 67.56C101.959 62.568 103.079 58.12 105.319 54.216C107.623 50.248 110.791 47.176 114.823 45C118.855 42.76 123.399 41.64 128.455 41.64C133.511 41.64 138.023 42.76 141.991 45C146.023 47.176 149.16 50.248 151.4 54.216C153.704 58.12 154.856 62.568 154.856 67.56C154.856 72.552 153.704 77.032 151.4 81C149.16 84.904 146.023 87.976 141.991 90.216C138.023 92.456 133.511 93.576 128.455 93.576ZM128.455 85.512C131.719 85.512 134.631 84.776 137.191 83.304C139.815 81.768 141.863 79.656 143.335 76.968C144.807 74.216 145.543 71.08 145.543 67.56C145.543 64.04 144.807 60.936 143.335 58.248C141.863 55.496 139.815 53.384 137.191 51.912C134.631 50.44 131.719 49.704 128.455 49.704C125.191 49.704 122.247 50.44 119.623 51.912C117.063 53.384 115.015 55.496 113.479 58.248C112.007 60.936 111.271 64.04 111.271 67.56C111.271 71.08 112.007 74.216 113.479 76.968C115.015 79.656 117.063 81.768 119.623 83.304C122.247 84.776 125.191 85.512 128.455 85.512ZM212.721 21.768V93H203.889V84.936C201.841 87.752 199.249 89.896 196.113 91.368C192.977 92.84 189.521 93.576 185.745 93.576C180.817 93.576 176.401 92.488 172.497 90.312C168.593 88.136 165.521 85.096 163.281 81.192C161.105 77.224 160.017 72.68 160.017 67.56C160.017 62.44 161.105 57.928 163.281 54.024C165.521 50.12 168.593 47.08 172.497 44.904C176.401 42.728 180.817 41.64 185.745 41.64C189.393 41.64 192.753 42.344 195.825 43.752C198.897 45.096 201.457 47.112 203.505 49.8V21.768H212.721ZM186.513 85.512C189.713 85.512 192.625 84.776 195.249 83.304C197.873 81.768 199.921 79.656 201.393 76.968C202.865 74.216 203.601 71.08 203.601 67.56C203.601 64.04 202.865 60.936 201.393 58.248C199.921 55.496 197.873 53.384 195.249 51.912C192.625 50.44 189.713 49.704 186.513 49.704C183.249 49.704 180.305 50.44 177.681 51.912C175.121 53.384 173.073 55.496 171.537 58.248C170.065 60.936 169.329 64.04 169.329 67.56C169.329 71.08 170.065 74.216 171.537 76.968C173.073 79.656 175.121 81.768 177.681 83.304C180.305 84.776 183.249 85.512 186.513 85.512ZM274.702 42.12V93H265.966V85.32C264.11 87.944 261.646 89.992 258.574 91.464C255.566 92.872 252.27 93.576 248.686 93.576C241.902 93.576 236.558 91.72 232.654 88.008C228.75 84.232 226.798 78.696 226.798 71.4V42.12H236.014V70.344C236.014 75.272 237.198 79.016 239.566 81.576C241.934 84.072 245.326 85.32 249.742 85.32C254.606 85.32 258.446 83.848 261.262 80.904C264.078 77.96 265.486 73.8 265.486 68.424V42.12H274.702ZM311.543 93.576C306.359 93.576 301.719 92.456 297.623 90.216C293.591 87.976 290.423 84.904 288.119 81C285.815 77.032 284.663 72.552 284.663 67.56C284.663 62.568 285.815 58.12 288.119 54.216C290.423 50.248 293.591 47.176 297.623 45C301.719 42.76 306.359 41.64 311.543 41.64C316.151 41.64 320.247 42.568 323.831 44.424C327.479 46.28 330.295 48.968 332.279 52.488L325.271 57C323.671 54.568 321.687 52.744 319.319 51.528C316.951 50.312 314.327 49.704 311.447 49.704C308.119 49.704 305.111 50.44 302.423 51.912C299.799 53.384 297.719 55.496 296.183 58.248C294.711 60.936 293.975 64.04 293.975 67.56C293.975 71.144 294.711 74.312 296.183 77.064C297.719 79.752 299.799 81.832 302.423 83.304C305.111 84.776 308.119 85.512 311.447 85.512C314.327 85.512 316.951 84.904 319.319 83.688C321.687 82.472 323.671 80.648 325.271 78.216L332.279 82.632C330.295 86.152 327.479 88.872 323.831 90.792C320.247 92.648 316.151 93.576 311.543 93.576ZM370.595 90.024C369.251 91.176 367.587 92.072 365.603 92.712C363.619 93.288 361.571 93.576 359.459 93.576C354.339 93.576 350.371 92.2 347.555 89.448C344.739 86.696 343.331 82.76 343.331 77.64V49.704H334.691V42.12H343.331V30.984H352.547V42.12H367.139V49.704H352.547V77.256C352.547 80.008 353.219 82.12 354.563 83.592C355.971 85.064 357.955 85.8 360.515 85.8C363.331 85.8 365.731 85 367.715 83.4L370.595 90.024Z" fill="black"/>
<path d="M34 106H361" stroke="#9FC441" stroke-width="3" stroke-linecap="round"/>
<path d="M368 106H370.5" stroke="#9FC441" stroke-width="3" stroke-linecap="round"/>
</svg>
