<svg width="311" height="311" viewBox="0 0 311 311" fill="none" xmlns="http://www.w3.org/2000/svg">
<rect width="311" height="311" fill="#F57B41"/>
<mask id="mask0_418_62" style="mask-type:luminance" maskUnits="userSpaceOnUse" x="-223" y="-1" width="534" height="312">
<path d="M311 311L311 -1L-222.688 -1.00002L-222.688 311L311 311Z" fill="white"/>
</mask>
<g mask="url(#mask0_418_62)">
<path d="M-273.769 -152.226L-265.674 -159.351C-263.807 -161.026 -261.912 -162.807 -260.045 -164.588C-253.818 -170.089 -247.355 -175.127 -243.066 -178.397C-235.279 -184.462 -227.139 -190.06 -218.69 -195.163C-210.361 -200.266 -201.712 -204.829 -192.797 -208.822C-188.814 -210.561 -184.019 -212.648 -179.316 -214.365C-177.578 -215.078 -175.946 -215.619 -174.386 -216.147L-172.405 -216.859C-170.78 -217.458 -169.042 -217.935 -167.367 -218.42L-165.985 -218.84C-157.314 -221.59 -148.207 -224.077 -137.976 -226.514C-128.606 -228.652 -119.343 -230.739 -109.952 -232.984C-101.616 -234.943 -91.8682 -237.259 -82.0354 -240.422C-75.9861 -242.268 -69.9225 -244.356 -63.9587 -246.643C-62.897 -243.28 -61.8211 -240.002 -60.6811 -236.746C-66.3812 -234.922 -72.5375 -233.183 -79.4846 -231.359C-89.0324 -228.915 -98.6657 -226.713 -106.917 -224.825L-110.636 -223.942C-118.403 -222.139 -126.454 -220.251 -134.57 -218.156C-144.709 -215.427 -153.808 -212.548 -162.487 -209.271C-171.777 -205.811 -180.85 -201.792 -189.655 -197.236C-198.67 -192.55 -207.408 -187.35 -215.826 -181.661C-223.835 -176.231 -232.214 -169.94 -240.764 -162.943C-242.189 -161.646 -243.443 -160.613 -244.698 -159.53C-245.952 -158.447 -247.384 -157.221 -248.787 -155.967C-254.224 -151.172 -259.197 -146.533 -263.993 -141.716L-267.798 -137.954L-265.859 -133.045C-261.485 -121.987 -258.292 -111.163 -255.172 -100.141L-250.79 -84.7003L-240.038 -96.9699C-231.813 -106.266 -222.972 -114.998 -213.574 -123.105L-213.261 -123.39L-212.976 -123.697C-212.712 -123.96 -212.406 -124.203 -212.121 -124.445C-211.836 -124.687 -211.408 -125.001 -211.131 -125.264C-208.801 -127.331 -206.642 -129.24 -204.461 -131.029C-201.497 -133.401 -198.569 -135.71 -195.64 -137.912C-188.085 -143.803 -180.186 -149.24 -171.984 -154.193C-164.086 -158.977 -155.895 -163.26 -147.459 -167.018C-139.075 -170.791 -130.499 -174.12 -121.766 -176.994C-112.303 -180.029 -103.197 -182.387 -94.7753 -184.454C-88.8329 -185.879 -82.9142 -187.256 -77.0192 -188.586C-73.2571 -189.448 -69.5235 -190.282 -65.8041 -191.158C-57.2538 -193.139 -49.6583 -195.056 -42.5046 -197.08C-40.9038 -194.348 -39.2246 -191.657 -37.467 -189.007C-38.8351 -188.65 -40.196 -188.344 -41.564 -188.038C-47.2642 -186.613 -52.7578 -185.373 -57.4248 -184.34L-59.9543 -183.77C-69.324 -181.568 -79.0214 -179.302 -88.6832 -176.709C-98.7762 -174.063 -108.707 -170.832 -118.424 -167.032C-127.989 -163.417 -137.292 -159.145 -146.269 -154.25C-155.286 -149.492 -163.981 -144.149 -172.298 -138.254C-181.162 -132.076 -189.277 -125.87 -197.001 -119.293C-198.69 -117.797 -200.236 -116.443 -201.925 -115.068L-202.081 -114.961L-202.238 -114.804C-218.555 -100.29 -231.687 -86.3034 -242.36 -71.9318L-244.975 -68.4119L-243.458 -64.3435C-239.138 -52.7563 -233.687 -41.6228 -227.184 -31.1042L-219.766 -18.9913L-212.157 -30.9545C-201.291 -48.0551 -186.506 -64.771 -166.947 -82.0141C-160.463 -87.8639 -154.121 -92.8587 -148.82 -96.9771C-140.995 -102.984 -132.825 -108.527 -124.352 -113.579C-115.954 -118.656 -107.233 -123.178 -98.2453 -127.117C-88.8173 -131.224 -79.1498 -134.757 -69.2955 -137.698C-59.6123 -140.548 -49.4517 -143.177 -37.2889 -145.856L-28.3538 -147.93L-20.1099 -149.839C-16.0557 -150.787 -11.9872 -151.799 -7.94002 -152.81C-5.5887 -150.409 -3.12334 -148.015 -0.572494 -145.571C-5.01866 -144.517 -9.43632 -143.505 -13.7684 -142.514L-21.3853 -140.776C-35.2225 -137.562 -46.0458 -134.662 -56.5342 -131.342C-67.4167 -127.868 -78.0708 -123.715 -88.4339 -118.909C-98.3219 -114.223 -107.897 -108.904 -117.099 -102.984C-126.047 -97.1701 -134.696 -90.9086 -143.013 -84.2229C-146.683 -81.3728 -150.773 -77.9099 -155.44 -73.7915L-158.233 -71.3262L-158.233 -71.1766C-179.502 -52.145 -195.783 -32.9639 -207.881 -12.6142L-210.831 -7.69066L-207.09 -3.28728C-199.977 5.00352 -192.391 12.8758 -184.368 20.2902C-181.903 22.7128 -179.067 25.3491 -176.117 27.9711C-120.305 77.1353 -75.4303 87.3173 -32.0518 97.2C11.063 107.011 51.8051 116.267 104.311 162.574C109.833 167.434 114.999 172.364 120.193 177.623L126.314 183.822L132.726 177.865C140.935 170.205 148.281 162.795 154.551 155.777L159.539 150.169L154.28 144.754C149.877 140.222 144.882 135.491 138.968 130.304C132.156 124.333 125.744 119.103 119.395 114.279C111.083 107.924 102.409 102.058 93.4165 96.7084C84.4394 91.2744 75.0973 86.4676 65.4571 82.3225C55.6259 77.9851 45.5392 74.2517 35.2532 71.143C24.5653 68.0435 13.9202 65.3145 2.54835 62.7638C-0.515496 62.0512 -3.67913 61.3387 -6.82848 60.6262C-14.6663 58.8234 -22.7534 56.978 -30.8049 54.8191C-41.6035 52.1058 -52.2376 48.7752 -62.6547 44.8438C-72.5835 41.0239 -82.2455 36.544 -91.5761 31.434C-99.3187 27.1655 -106.812 22.4599 -114.021 17.3403C-116.814 15.4022 -119.322 13.6851 -121.808 11.747C-126.084 8.49791 -130.48 4.99938 -134.962 1.30138L-141.496 -4.44157C-144.559 -7.14915 -147.153 -9.50044 -149.44 -11.6309C-146.362 -15.241 -143.253 -18.6968 -140.113 -21.9981C-136.615 -18.6706 -133.316 -15.6353 -130.017 -12.7353C-113.251 2.04958 -96.7775 13.9629 -79.6841 23.582C-72.0743 27.8572 -64.7923 31.5908 -57.4034 34.9112C-54.874 36.0369 -52.4158 37.1129 -50.1001 38.0819C-39.7266 42.1854 -29.1286 45.6967 -18.3571 48.5987C-13.0274 50.1592 -7.66927 51.5415 -2.20422 52.7955L-0.928765 53.109C1.29432 53.6577 3.46748 54.2063 5.71195 54.6481C8.32691 55.3606 11.0772 55.9876 13.678 56.5363L15.3951 56.9139C24.5012 58.9802 33.9208 61.1107 43.2619 63.6615C53.2373 66.3691 62.2436 69.2335 70.7796 72.3971C79.489 75.7293 87.9883 79.5864 96.231 83.9471C104.635 88.2807 112.743 93.1674 120.5 98.5752C128.632 104.102 136.46 110.065 143.949 116.438C145.089 117.364 146.15 118.262 147.226 119.189C148.302 120.115 149.492 121.127 150.632 122.039C154.045 125.031 157.387 128.245 161.085 131.786L168.631 139.004L174.566 130.532C180.905 121.549 186.532 112.084 191.396 102.223L194.082 96.7226L189.415 92.6043L188.211 91.507C187.263 90.6519 186.337 89.8112 185.361 89.0203C183.223 87.1535 181.271 85.4576 179.204 83.6977C178.827 83.317 178.422 82.9645 177.993 82.6432L177.993 82.6004L174.758 79.9569C174.252 79.5865 173.811 79.2444 173.376 78.8596C172.941 78.4749 172.314 77.9975 171.766 77.5842C171.222 77.1187 170.64 76.6992 170.027 76.3302C169.037 75.5179 168.046 74.7697 167.084 74.0216C166.315 73.4231 165.567 72.8531 164.861 72.283C156.671 66.0417 148.121 60.2887 139.253 55.0542C130.736 49.9275 121.88 45.3853 112.747 41.4593C103.906 37.5586 94.8682 34.1173 85.6714 31.149C83.3054 30.3154 80.8987 29.602 78.4606 29.0115C75.8599 28.1778 73.5941 27.5151 71.3782 26.9879C66.3905 25.5628 61.5168 24.4584 57.32 23.4894C51.8835 22.1499 46.3401 20.8958 40.818 19.6417C36.8635 18.7368 32.9019 17.8605 28.9402 16.9128C18.6443 14.4902 9.33869 12.0106 0.439279 9.28167C-8.91537 6.37417 -18.1102 2.97549 -27.1069 -0.900278C-36.0649 -4.90284 -44.7587 -9.47227 -53.1354 -14.5808C-67.9729 -23.6029 -81.9538 -33.9634 -94.9036 -45.5328C-98.5374 -48.8104 -101.616 -51.6676 -104.345 -54.2684C-100.668 -57.0805 -96.8678 -59.8664 -92.9441 -62.6263C-90.5643 -60.3604 -88.1489 -58.116 -85.6408 -55.8929L-83.3964 -53.8052C-82.0069 -52.5939 -80.4465 -51.233 -78.9074 -50.0003L-78.1379 -49.2878C-76.9503 -48.1784 -75.7014 -47.1365 -74.3971 -46.167C-72.2596 -44.4284 -70.1719 -42.7112 -68.0628 -41.1009C-66.1034 -39.4977 -63.8589 -37.802 -61.6501 -36.2415C-57.1683 -32.857 -53.1853 -30.0426 -49.1809 -27.4205C-40.688 -21.6848 -31.8423 -16.4897 -22.6964 -11.866C-13.7381 -7.35331 -4.51827 -3.37983 4.91392 0.0331338C15.0959 3.85937 25.2636 6.69521 32.9802 8.74014C40.9462 10.9205 49.5464 13.0153 60.7687 15.4307C69.547 17.4757 78.7599 19.6061 87.8446 21.9646C97.2428 24.4442 105.936 27.1304 114.343 30.1586C123.113 33.3678 131.679 37.1083 139.994 41.3595C148.515 45.6787 156.777 50.4893 164.74 55.7668C173.567 61.6938 182.05 68.1169 190.149 75.0049L199.982 83.2274L204.207 71.4352C206.736 64.3741 209.024 57.3557 211.247 50.5796C212.344 47.1737 213.47 43.7892 214.588 40.3763L216.412 34.9397L211.731 31.377C195.732 19.166 178.385 8.8309 160.03 0.574644C150.409 -3.68973 140.542 -7.37763 130.482 -10.4695C120.036 -13.7471 109.676 -16.2338 100.763 -18.3073C95.3546 -19.5826 89.8966 -20.8367 84.4173 -22.1121C80.4201 -23.0384 76.3729 -23.9576 72.3044 -24.9052C61.7947 -27.4774 53.5009 -29.7718 45.5349 -32.2513C36.844 -34.9749 28.3052 -38.1621 19.9553 -41.7992C11.5549 -45.5875 3.3719 -49.8408 -4.55553 -54.5391C-12.8025 -59.3575 -20.7564 -64.6608 -28.3752 -70.4213C-34.6454 -75.0812 -41.1365 -80.3966 -48.1762 -86.6098C-48.3971 -86.788 -48.618 -86.9875 -48.8389 -87.187C-43.9296 -89.2747 -39.1129 -91.1415 -34.2963 -92.8159C-33.9614 -92.5309 -33.6336 -92.2387 -33.3059 -91.9751C-32.2727 -91.0773 -31.2395 -90.1938 -30.2491 -89.3388C-22.2404 -82.6458 -13.9276 -76.3186 -5.31081 -70.3572C3.08848 -64.6385 11.7917 -59.3795 20.7604 -54.6032C29.6712 -49.929 38.8611 -45.8076 48.2781 -42.2623C57.8301 -38.6219 67.5671 -35.4872 77.4489 -32.8712C87.1249 -30.2278 96.687 -28.0759 105.95 -25.9598L107.888 -25.5251C118.775 -23.0598 128.629 -20.7726 138.968 -17.9581C149.05 -15.2032 158.966 -11.8726 168.666 -7.98276C178.136 -4.09964 187.359 0.359588 196.284 5.36993C201.435 8.27704 206.822 11.6187 212.301 15.2954L221.222 21.3376L225.426 11.6615C229.227 2.80798 233.654 -5.76391 238.672 -13.9893L242.876 -20.8937L235.75 -25.1689C232.43 -27.171 229.003 -29.2374 225.675 -31.0472C215.678 -36.4874 205.358 -41.313 194.773 -45.4972C183.667 -49.6509 172.351 -53.2185 160.871 -56.185C149.236 -59.1563 138.149 -61.6643 126.862 -64.1724L125.501 -64.5002C115.733 -66.8373 105.615 -69.2527 95.4472 -72.338C85.8564 -75.2621 76.4343 -78.7136 67.2241 -82.6767C58.2984 -86.5893 49.6223 -91.0487 41.2455 -96.0294C35.4385 -99.5493 29.3464 -103.575 23.1189 -108.021C28.7336 -109.318 34.4694 -110.658 40.2551 -112.132C82.4508 -83.0757 118.725 -74.8033 153.831 -66.8159C183.551 -60.0469 211.646 -53.6413 243.609 -35.2511C249.723 -31.7312 255.815 -27.8836 262.021 -23.5942C236.228 9.53104 226.794 38.5664 217.659 66.6897C205.169 105.166 193.355 141.505 140.892 188.994L135.349 194.032L139.859 199.925C145.979 207.805 151.445 216.172 156.204 224.941L161.434 234.774L169.664 227.514L172.329 225.29C231.468 173.112 244.807 131.95 257.675 92.1197C263.068 75.5037 271.733 55.8166 282.934 36.1296C282.951 36.1006 282.973 36.0742 282.998 36.0512C283.71 34.7046 284.523 33.365 285.314 32.0326C285.656 31.4483 285.99 30.864 286.34 30.2869C286.382 30.2441 286.404 30.1729 286.454 30.1087C287.993 27.4938 289.574 24.9002 291.249 22.271C291.705 21.5584 292.147 20.846 292.61 20.0978L302.557 4.20139L302.856 3.73114L304.887 0.531896C312.582 -11.6879 319.073 -21.8841 319.073 -21.8841C319.073 -21.8841 321.495 -22.7462 324.531 -23.5158C327.034 -21.2404 329.442 -18.9723 331.756 -16.7112L333.352 -15.1508C329.526 -9.30093 323.982 -1.18527 318.788 6.3176C317.669 7.94214 316.543 9.53107 315.489 11.0701L313.351 14.1268L313.294 14.2195L313.202 14.3477C313.148 14.3996 313.101 14.4569 313.059 14.5188L312.981 14.6328C312.133 15.7585 311.321 16.8843 310.508 18.0172L309.24 19.7986C308.713 20.5538 308.186 21.3091 307.665 22.0715C306.91 23.1688 306.164 24.2661 305.428 25.3633C305.1 25.8692 304.901 26.14 304.901 26.14C285.898 54.5341 271.811 84.7807 264.387 107.681C251.604 147.148 239.527 184.413 183.679 233.577C179.404 237.475 175.207 240.902 171.488 243.937L167.02 247.592L168.894 252.915C172.457 263.033 175.364 272.759 178.506 283.511L181.94 295.346L192.208 287.914C199.868 282.392 207.883 276.008 216.013 268.947L216.298 268.705L216.562 268.441C217.138 267.85 217.755 267.3 218.407 266.795L218.671 266.595L218.913 266.396C278.11 214.182 291.441 173.041 304.359 133.225C312.582 107.859 320.391 83.7262 339.665 56.5577C342.216 60.9895 344.61 65.4714 346.854 70.174C327.303 98.5111 319.03 124.091 311 148.865C298.217 188.325 286.14 225.583 230.399 274.804C224.464 279.905 219.469 284.017 214.781 287.693C207.342 293.656 199.603 299.235 191.595 304.409L186.052 307.972L188.253 314C191.857 323.821 196.172 333.365 201.164 342.558L205.546 350.609L213.598 345.785C222.07 340.727 230.606 335.098 238.964 328.984C241.051 327.424 243.054 325.949 245.056 324.317C251.148 319.721 257.44 314.598 263.71 309.055L264.045 308.791C264.663 308.305 265.251 307.782 265.805 307.224C324.794 255.088 338.076 213.997 350.973 174.281C356.053 158.605 360.848 143.792 368.351 128.109L369.121 126.463L369.121 13.7706L367.646 11.6829C356.78 -3.71475 342.985 -18.692 325.429 -34.1823C316.828 -41.6139 308.492 -48.3045 300.554 -54.0902C291.672 -60.529 282.425 -66.4481 272.859 -71.8178C263.12 -77.1935 253.037 -81.9207 242.676 -85.9685C239.619 -87.1727 236.363 -88.4054 233.257 -89.5312C226.844 -91.6687 220.652 -93.6424 214.624 -95.267C212.672 -95.8869 210.491 -96.4355 208.268 -97.0055L205.739 -97.6682C196.391 -100.084 187.17 -102.178 178.243 -104.181C174.742 -104.969 171.229 -105.767 167.704 -106.575C157.629 -109.019 145.616 -112.075 133.389 -116.237C123.103 -119.643 113.081 -123.804 103.406 -128.684C96.4173 -132.121 89.6237 -135.941 83.0564 -140.128C74.0066 -145.834 65.2967 -152.062 56.9709 -158.781C53.3584 -161.631 49.5749 -164.759 45.0005 -168.807C-7.39851 -215.028 -17.8512 -250.747 -28.9096 -288.568C-40.1318 -326.973 -51.746 -366.66 -107.8 -416.109C-114.883 -422.522 -122.386 -428.564 -132.026 -435.711C-141.512 -442.709 -151.479 -449.03 -161.852 -454.629C-167.51 -457.749 -173.288 -460.623 -179.188 -463.25L-151.97 -463.25C-146.448 -460.478 -140.569 -457.137 -134.085 -453.111C-124.992 -447.309 -116.238 -440.993 -107.864 -434.193C-104.038 -431.072 -100.183 -427.816 -96.179 -424.425C-43.9367 -378.339 -33.4769 -342.57 -22.3757 -304.721C-11.1393 -266.308 0.474873 -226.607 56.3296 -177.264L58.8591 -175.041L59.0372 -175.041C65.0438 -169.847 70.9791 -164.987 76.7648 -160.613C85.759 -153.785 95.1551 -147.503 104.902 -141.802L106.484 -140.918C110.403 -138.781 114.115 -136.743 117.885 -134.89C128.64 -129.495 139.753 -124.844 151.145 -120.968C162.745 -117.12 174.865 -113.842 189.379 -110.543C193.448 -109.574 197.652 -108.605 201.856 -107.636C210.876 -105.549 220.224 -103.361 229.352 -100.974C241.804 -97.7559 254.002 -93.624 265.847 -88.612C272.93 -85.5785 279.853 -82.1848 286.589 -78.4443C291.648 -75.5229 295.809 -73.0363 299.592 -70.7063C304.972 -67.2648 309.112 -64.493 312.938 -61.6786C320.063 -56.5769 327.039 -51.0335 334.364 -44.6992L336.758 -42.4547C342.722 -37.2176 348.351 -31.8951 354.051 -26.1949L369.121 -11.0395L369.121 -77.7389L366.27 -80.2256C360.506 -85.1705 354.87 -89.4884 349.092 -93.8847C339.985 -100.587 330.479 -106.728 320.626 -112.275C316.315 -114.648 312.974 -116.408 309.803 -117.975C296.968 -124.339 283.638 -129.65 269.944 -133.857C254.212 -138.695 238.593 -142.194 224.763 -145.258L220.802 -146.205C217.196 -147.082 213.498 -147.965 209.715 -148.906C204.1 -150.231 199.07 -151.507 194.559 -152.803L187.733 -154.905L184.342 -155.96C173.075 -159.444 162.101 -163.813 151.523 -169.027C148.794 -170.353 146.158 -171.756 143.45 -173.189L140.835 -174.614C131.755 -179.703 122.996 -185.345 114.607 -191.508C110.332 -194.571 106.648 -197.365 103.306 -200.058C99.5157 -203.143 95.5826 -206.471 91.5782 -210.033C39.1721 -256.084 28.7407 -291.824 17.6823 -329.638C6.48147 -368.071 -5.11838 -407.816 -61.0515 -457.179C-63.3174 -459.224 -65.6473 -461.226 -68.0272 -463.229L-47.0861 -463.229C3.02575 -418.226 13.3217 -383.027 24.2091 -345.805C35.4313 -307.421 47.0455 -267.712 103.078 -218.306L105.608 -216.083L105.736 -216.083C112.313 -210.318 119.488 -204.554 128.045 -198.177C137.029 -191.651 146.417 -185.701 156.154 -180.364C161.455 -177.421 167.198 -174.535 173.732 -171.585C185.631 -166.092 197.908 -161.667 213.484 -157.242C224.172 -154.257 234.86 -151.834 245.141 -149.504L250.485 -148.293C254.354 -147.281 258.323 -146.334 262.47 -145.386L263.482 -145.144L263.596 -145.144C275.709 -142.294 291.555 -138.175 307.986 -131.549C319.005 -127.088 329.669 -121.795 339.886 -115.716C340.962 -115.118 342.237 -114.291 346.925 -111.228L347.78 -110.657C348.265 -110.344 348.571 -110.123 348.928 -109.888C349.697 -109.382 350.509 -108.826 351.407 -108.278L352.49 -107.565C353.324 -107.038 354.272 -106.446 355.169 -105.784L369.121 -95.951L369.121 -151.72L365.487 -154.228C364.376 -154.967 363.225 -155.643 362.038 -156.252C361.596 -156.473 361.176 -156.687 360.784 -156.907L360.585 -157.043L360.364 -157.15C347.177 -163.978 333.43 -169.663 319.272 -174.143C303.497 -179.131 288.185 -182.651 273.386 -186.043L265.092 -187.931C251.34 -191.059 235.066 -195.056 218.144 -201.469C207.104 -205.689 196.388 -210.712 186.08 -216.496C177.26 -221.49 168.74 -226.998 160.565 -232.991C152.642 -238.841 145.295 -244.783 138.149 -251.096C85.8424 -297.189 75.4253 -332.937 64.3598 -370.8C55.9307 -399.622 47.2592 -429.32 19.6774 -463.214L37.0345 -463.214C56.4864 -436.046 63.5475 -411.913 71.0005 -386.397C72.6536 -380.747 74.2995 -375.089 76.0808 -369.418C87.6522 -332.68 104.218 -300.21 146.87 -261.976L146.87 -261.912L149.72 -259.297C155.42 -254.388 162.125 -248.695 168.88 -243.622C177.3 -237.259 186.037 -231.328 195.058 -225.851C203.608 -220.864 210.128 -217.379 216.434 -214.451C230.933 -207.656 246.01 -202.171 261.487 -198.063C273.03 -194.835 284.558 -192.213 295.688 -189.684C302.101 -188.259 308.556 -186.784 315.047 -185.195C321.78 -183.413 328.799 -181.568 335.774 -179.388C339.138 -178.29 342.636 -177.122 346.135 -175.825C349.633 -174.528 353.367 -173.096 357.043 -171.671L369.099 -166.983L369.099 -214.045L363.399 -216.068C362.786 -216.268 362.188 -216.439 361.575 -216.596L361.133 -216.731L361.069 -216.731L360.763 -216.816C347.695 -220.778 334.891 -223.699 322.507 -226.542L315.275 -228.224C301.901 -231.195 286.062 -235.021 269.517 -240.878C258.338 -244.807 247.476 -249.585 237.026 -255.172L233.556 -257.195C228.518 -259.967 223.744 -262.853 219.362 -265.745C211.087 -271.131 203.112 -276.964 195.471 -283.217C191.951 -286.067 188.432 -289.045 184.94 -292.123C132.605 -338.273 122.11 -374.063 110.98 -411.948C106.164 -428.422 101.19 -445.359 92.6114 -463.179L124.632 -463.179C121.104 -455.976 117.983 -448.58 115.284 -441.026L114.407 -438.59L115.12 -436.103L117.193 -429.02C120.906 -416.124 124.782 -402.771 130.389 -389.119L139.873 -365.955L146.934 -389.889C154.344 -414.969 162.047 -437.913 180.501 -463.207L198.044 -463.207C169.443 -428.65 160.643 -398.467 152.086 -369.154C151.074 -365.677 150.062 -362.221 149.008 -358.751L147.932 -355.139L150.069 -351.997C156.765 -342.153 164.177 -332.815 172.243 -324.058L182.667 -312.615L187.227 -327.137C189.03 -332.837 190.655 -338.466 192.308 -344.123C203.281 -381.801 213.683 -417.392 265.27 -463.193L286.404 -463.193C283.554 -460.842 280.646 -458.376 277.739 -455.804C221.621 -406.334 210.05 -366.646 198.834 -328.262C197.053 -322.192 195.222 -315.921 193.248 -309.737L192.165 -306.416L193.904 -303.381C194.649 -302.075 195.679 -300.955 196.918 -300.103C203.979 -293.79 211.503 -287.698 219.904 -281.471C224.108 -278.436 228.333 -275.4 232.622 -272.735C242.957 -265.925 253.779 -259.883 264.999 -254.659C277.83 -248.762 291.099 -243.871 304.687 -240.03C316.608 -236.646 328.4 -233.938 339.814 -231.323L347.823 -229.471C351.386 -228.659 354.82 -227.868 358.404 -227.077L369.092 -224.725L369.092 -266.764L364.033 -268.98C363.45 -269.235 362.847 -269.442 362.23 -269.6L362.181 -269.6L361.326 -269.8C354.286 -271.382 348.037 -272.921 342.187 -274.46C329.964 -277.497 317.974 -281.409 306.312 -286.166C295.713 -290.451 285.444 -295.509 275.588 -301.3C264.889 -307.738 254.63 -314.879 244.878 -322.676C246.26 -326.994 247.842 -331.611 249.673 -336.407C263.745 -324.466 278.907 -313.874 294.961 -304.77C305.406 -298.899 316.276 -293.819 327.481 -289.572C337.178 -285.917 347.168 -282.711 357.991 -279.782L369.121 -276.747L369.121 -321.208L363.534 -323.275L361.945 -323.845L358.141 -325.27C348.033 -329.027 338.229 -333.552 328.813 -338.808C311.713 -348.071 295.289 -359.82 278.545 -374.69L276.015 -376.935L275.951 -376.935C274.918 -377.904 273.885 -378.844 272.873 -379.785C275.509 -383.483 278.374 -387.174 281.388 -390.808C283.212 -389.112 285.1 -387.373 287.088 -385.613L289.881 -383.02C292.168 -380.996 294.455 -379.122 296.742 -377.234C298.88 -375.317 301.274 -373.365 303.675 -371.534C306.775 -369.047 309.945 -366.653 313.465 -364.102C316.7 -361.537 319.956 -359.357 323.113 -357.226C329.298 -353.044 335.546 -349.239 342.187 -345.584C347.517 -342.57 352.113 -340.162 356.602 -338.131L369.099 -332.431L369.099 -383.333L365.095 -385.763C362.893 -387.103 360.649 -388.613 358.447 -390.159C354.663 -392.696 350.859 -395.268 347.047 -398.104L345.002 -399.622C343.641 -400.633 342.251 -401.667 340.912 -402.764L340.556 -403.035C338.867 -404.289 337.278 -405.45 335.917 -406.661L335.76 -406.768L335.632 -406.882C332.155 -409.697 328.614 -412.689 325.136 -415.767C321.659 -418.846 318.432 -421.795 315.161 -424.916C318.786 -428.066 322.37 -431.058 325.913 -433.894C329.369 -430.552 332.889 -427.296 336.43 -424.168L338.938 -421.974L339.073 -421.974C343.933 -417.698 349.127 -413.423 354.842 -409.013L369.092 -398.083L369.092 -459.41L367.332 -460.977L369.028 -461.896L369.092 -466.734L369.092 -481.655L-296.405 -481.655L-296.405 -452.548L-289.743 -451.009C-286.266 -450.197 -282.789 -449.406 -279.312 -448.608C-236.176 -438.825 -195.434 -429.562 -142.906 -383.234C-115.695 -359.236 -97.3903 -335.872 -85.3558 -309.758C-82.3143 -303.204 -79.6056 -296.5 -77.2401 -289.672C-83.2253 -286.822 -89.4741 -284.221 -96.1149 -281.756C-106.09 -277.972 -115.823 -275.179 -123.191 -273.134C-133.002 -270.562 -142.835 -268.296 -152.333 -266.095C-164.588 -263.408 -174.179 -261.107 -183.356 -258.635C-185.444 -258.086 -187.51 -257.423 -189.648 -256.768L-190.852 -256.39C-192.462 -256.02 -194.023 -255.535 -195.077 -255.179L-196.816 -254.63C-197.528 -254.416 -198.177 -254.196 -198.839 -253.996L-199.039 -253.932L-200.756 -253.932L-201.939 -252.892C-202.041 -252.85 -202.146 -252.814 -202.252 -252.785C-203.435 -252.436 -204.561 -252.037 -205.722 -251.616L-206.649 -251.288C-209.399 -250.277 -212.064 -249.151 -214.743 -248.075C-224.822 -244.052 -234.616 -239.348 -244.056 -233.995C-253.379 -228.767 -262.391 -223.002 -271.047 -216.731C-277.666 -211.743 -285.411 -205.815 -293.527 -198.804L-296.377 -196.339L-296.377 -185.886L-294.596 -183.663C-288.96 -176.58 -283.825 -169.114 -279.226 -161.318L-273.769 -152.226ZM305.97 24.601L305.92 24.6864C305.834 24.8147 305.72 24.9501 305.656 25.057L305.578 25.1567L305.97 24.601Z" fill="#F26522"/>
<path d="M351.543 208.261C349.405 214.311 347.168 220.574 344.503 226.787C335.133 248.74 318.987 278.723 276.991 315.902C275.737 317 274.462 318.104 273.229 319.158C271.996 320.213 270.721 321.296 269.51 322.372C261.9 328.706 254.026 334.756 245.555 340.648C237.481 346.324 229.093 351.538 220.431 356.267L212.052 360.884L217.752 368.344C223.998 376.494 230.704 384.28 237.838 391.665C243.246 397.208 249.452 403.065 256.862 409.792C289.375 438.471 320.462 456.405 357.677 467.926L369.121 471.489L369.121 426.016L363.663 423.878C360.649 422.731 357.307 421.277 353.687 419.539C344.325 414.968 335.235 409.86 326.462 404.241C318.125 398.762 310.031 392.841 301.78 386.179C299.514 384.376 297.277 382.438 294.982 380.478L291.42 377.464C288.89 375.156 286.56 373.004 284.38 370.952C288.033 368.316 291.788 365.48 295.645 362.444C297.954 364.582 300.44 366.883 303.041 369.171C306.098 371.857 308.998 374.279 311.905 376.716C320.148 383.561 328.753 389.957 337.684 395.876C344.218 400.215 350.224 403.842 356.053 407.013L369.121 414.095L369.121 360.442L365.558 357.934C358.319 352.946 350.424 346.776 342.08 339.693C341.118 338.903 340.434 338.268 339.75 337.67C339.287 337.235 338.803 336.793 338.325 336.373C335.867 334.171 333.623 332.198 331.599 330.302C334.855 326.982 338.012 323.64 341.054 320.185C343.904 322.821 346.754 325.443 349.569 328.022C350.552 328.899 351.457 329.611 352.326 330.366C353.074 330.965 353.751 331.578 354.464 332.176L369.135 345.109L369.135 158.826L352.113 206.63L351.543 208.261Z" fill="#F26522"/>
<path d="M369.121 480.766L362.708 479.099C346.74 474.916 342.116 473.463 337.677 472.08C326.605 468.477 315.788 464.133 305.3 459.077C295.576 454.288 286.185 448.851 277.191 442.803C268.625 436.994 260.372 430.737 252.466 424.056C250.656 422.631 249.096 421.263 247.429 419.781L245.598 418.156C193.134 372.006 182.71 336.216 171.666 298.374C160.444 259.969 148.865 220.26 92.7825 170.989C90.253 168.609 87.5668 166.386 84.9447 164.234C75.746 156.689 67.3454 150.376 59.2012 144.918C50.0445 138.799 40.5269 133.238 30.7002 128.266C20.2565 123.005 9.44249 118.514 -1.65547 114.828C-13.4946 110.864 -25.5368 107.534 -37.7305 104.852C-42.9676 103.577 -48.2901 102.344 -53.6127 101.133C-60.6738 99.5086 -67.9558 97.8341 -75.1309 96.0314C-86.9828 93.073 -98.6425 89.3919 -110.045 85.0087C-120.535 80.9286 -130.711 76.0822 -140.491 70.5088C-156.811 61.1087 -172.135 50.0769 -186.228 37.5831C-186.788 37.0087 -187.39 36.4776 -188.03 35.9942C-239.966 -9.91377 -250.398 -45.5898 -261.42 -83.3821L-261.641 -84.0946C-266.394 -100.262 -271.346 -116.985 -279.768 -134.406L-296.441 -168.899L-296.441 -41.2434L-296.07 -40.0749C-285.881 -8.01132 -269.956 27.4367 -222.794 69.0339C-218.726 72.6393 -213.332 77.3063 -207.831 81.5458C-198.926 88.576 -189.611 95.0713 -179.936 100.998C-169.405 107.484 -158.412 113.187 -147.046 118.063L-145.329 118.811L-145.179 118.811C-135.145 123.003 -124.857 126.561 -114.377 129.463L-108.021 131.309C-104.501 132.256 -101.131 133.068 -97.7464 133.881L-97.4329 133.952C-92.4453 135.113 -87.4576 136.282 -82.6338 137.443C-77.525 138.548 -72.4875 139.709 -67.45 140.899C-56.8476 143.407 -44.2217 146.557 -31.1112 150.953C-29.8358 151.395 -28.539 151.858 -27.2636 152.292C-25.9881 152.727 -24.5987 153.24 -23.2164 153.717C-18.5708 155.477 -13.2981 157.522 -8.06105 159.966C-7.09202 160.451 -5.92348 160.978 -4.80479 161.505C-3.28712 162.218 -1.72673 162.93 -0.116439 163.792C9.22835 168.606 18.292 173.947 27.0307 179.789C35.4171 185.505 43.5031 191.651 51.2566 198.2C53.3015 200.003 55.6101 201.913 57.94 203.829C109.961 249.858 120.407 285.584 131.444 323.419C142.688 361.803 154.28 401.512 210.328 450.961L210.99 451.531C219.235 458.821 227.841 465.691 236.776 472.116C246.325 478.981 256.323 485.199 266.702 490.727C269.431 492.152 272.182 493.577 274.996 494.952L248.547 494.952L246.987 494.047C244.657 492.687 242.234 491.297 239.769 489.893C230.585 484.274 221.761 478.087 213.349 471.368C208.404 467.52 203.494 463.338 198.763 459.255C146.585 413.126 136.14 377.4 125.074 339.551C113.873 301.253 102.273 261.658 46.2119 212.052C43.6112 209.765 40.9962 207.584 38.3741 205.425C30.0456 198.389 21.3194 191.837 12.2388 185.802C2.70717 179.319 -7.27715 173.528 -17.6374 168.474C-29.0169 162.947 -40.7774 158.242 -52.8289 154.394C-67.5925 149.642 -81.6078 146.386 -94.6969 143.457C-108 140.464 -123.134 137.08 -138.36 132.42C-151.116 128.555 -163.534 123.653 -175.49 117.763C-185.671 112.608 -195.51 106.803 -204.946 100.385C-205.565 99.8839 -206.22 99.4291 -206.905 99.0241C-215.277 93.0531 -222.823 87.1178 -229.934 80.9402L-230.084 80.8333L-230.219 80.7193C-231.601 79.622 -232.834 78.5247 -234.223 77.3134C-254.032 59.8566 -268.995 42.7916 -280.153 25.121L-296.384 -0.700835L-296.384 83.4839L-294.246 85.8423C-286.43 94.3894 -278.155 102.505 -269.458 110.154L-266.957 112.377L-266.857 112.377C-262.967 115.804 -258.898 119.153 -254.516 122.537C-246.325 129.017 -237.809 135.074 -229.001 140.685L-228.78 140.842L-228.537 140.97C-228.032 141.234 -227.547 141.547 -227.041 141.832C-226.4 142.224 -225.766 142.623 -225.124 142.973C-213.437 150.135 -201.164 156.295 -188.437 161.384C-171.144 168.231 -154.406 172.628 -140.327 176.041C-135.439 177.202 -130.622 178.307 -125.806 179.404C-114.826 181.912 -103.482 184.506 -92.1959 187.584C-79.5399 191.156 -67.1575 195.635 -55.1446 200.986C-44.9209 205.647 -35.0312 211.008 -25.5464 217.032C-16.7376 222.697 -8.25466 228.854 -0.137774 235.472C3.26808 238.266 7.18696 241.429 10.8351 244.735C63.4122 291.135 73.8365 326.761 84.8806 364.525C96.0601 402.802 107.681 442.375 163.258 491.603C163.674 492.075 164.122 492.518 164.598 492.929C165.367 493.606 166.115 494.268 166.885 494.931L146.072 494.931C98.9957 451.324 88.9705 416.924 78.3824 380.535L78.0261 379.352C67.5449 343.349 55.6671 302.535 -0.372913 253.136C-4.73357 249.438 -8.82347 245.961 -12.7566 242.754C-15.3573 240.752 -17.7443 238.9 -20.0172 237.161C-29.3017 230.056 -39.023 223.54 -49.1238 217.652C-60.7886 211.002 -72.9355 205.236 -85.4625 200.402C-102.563 193.918 -118.951 189.821 -134.256 186.151L-142.536 184.256C-157.755 180.808 -172.141 177.551 -187.254 172.856C-199.165 169.123 -210.771 164.478 -221.968 158.962L-225.773 156.959C-228.502 155.534 -232.043 153.682 -235.342 151.68C-244.051 146.609 -252.46 141.043 -260.53 135.007C-267.391 129.898 -274.189 124.354 -280.815 118.526L-281.713 117.735L-296.384 104.803L-296.384 167.961L-292.251 170.398L-291.966 170.661L-291.503 170.975C-282.687 177.448 -273.483 183.376 -263.943 188.724C-255.535 193.319 -247.042 197.409 -237.871 201.307C-224.334 206.808 -210.575 211.204 -193.125 215.629C-185.672 217.495 -178.162 219.191 -170.908 220.816C-160.727 223.103 -150.21 225.483 -139.871 228.383C-125.487 232.303 -111.473 237.472 -97.9887 243.83L-96.1433 244.685L-96.0079 244.685C-86.8227 249.208 -77.9255 254.293 -69.3667 259.912L-66.9512 261.651L-64.0227 263.624L-61.1156 265.605C-52.6327 271.622 -44.4859 278.099 -36.7117 285.007L-36.3411 285.342L-35.6785 285.933C16.6564 332.084 27.1234 367.874 38.2102 405.737C46.3758 433.625 54.7978 462.333 80.2491 494.917L63.1486 494.917C45.5991 469.223 38.8871 446.23 31.7975 421.947C20.7819 384.133 9.33878 345.066 -44.3143 296.835L-47.1287 294.241C-50.9978 290.828 -54.8953 287.643 -59.2417 284.102C-68.0185 276.956 -77.2223 270.35 -86.8021 264.323C-90.6996 261.708 -94.8964 259.335 -98.5303 257.261C-110.871 250.407 -123.737 244.543 -137.007 239.726C-153.594 233.855 -169.07 230.114 -184.81 226.466C-186.791 226.046 -188.615 225.625 -190.446 225.212C-192.277 224.799 -194.294 224.329 -196.203 223.937C-198.426 223.36 -200.934 222.768 -203.464 222.155C-208.394 220.965 -213.318 219.775 -218.249 218.479C-219.524 218.13 -220.935 217.731 -222.36 217.36C-224.647 216.74 -226.934 216.127 -229.293 215.401C-241.279 211.825 -252.984 207.369 -264.313 202.069C-269.301 199.739 -273.441 197.602 -277.317 195.407C-279.298 194.324 -281.122 193.355 -282.924 192.236L-296.384 184.007L-296.384 237.09L-291.439 239.356C-287.164 241.301 -283.081 243.039 -279.063 244.614L-281.157 254.917C-282.369 254.532 -283.556 254.141 -284.72 253.741L-296.355 249.851L-296.355 295.296L-289.893 296.949C-286.195 297.918 -282.347 298.859 -278.649 299.678C-273.369 300.975 -267.869 302.25 -262.347 303.504C-255.706 305.022 -248.809 306.582 -242.111 308.321C-230.455 311.152 -218.987 314.707 -207.774 318.966C-197.895 322.693 -188.307 327.149 -179.088 332.297L-174.378 334.919L-167.538 330.053C-159.266 322.928 -151.863 316.921 -144.88 311.727L-134.741 304.21L-141.068 300.647C-134.128 304.181 -127.608 307.772 -121.509 311.42C-123.754 312.945 -125.998 314.491 -128.228 316.094C-137.049 322.507 -145.521 329.269 -153.437 336.131C-154.385 336.971 -155.261 337.762 -156.145 338.418L-159.444 341.46C-187.774 366.84 -205.245 389.655 -217.158 411.017C-229.072 432.378 -235.57 452.236 -241.904 471.774C-244.37 479.341 -246.892 487.107 -249.742 494.874L-262.104 494.874L-258.107 484.001C-254.63 474.546 -251.352 464.862 -247.79 453.512L-246.194 448.253L-250.683 444.734C-253.34 442.667 -256.005 440.708 -258.67 438.756C-259.945 437.808 -261.221 436.882 -262.518 435.905L-262.646 435.799L-262.803 435.713C-270.498 430.433 -277.189 426.208 -283.281 422.845L-296.412 415.584L-296.412 468.817L-292.893 471.304C-286.48 475.878 -279.697 481.179 -272.229 487.492L-263.437 494.917L-296.384 494.917L-296.384 513.392L369.114 513.392L369.121 480.766ZM-71.0625 350.018C-74.6726 352.393 -78.2732 354.891 -81.8643 357.514C-91.3836 364.446 -99.3283 370.717 -106.874 377.272C-107.537 377.842 -108.085 378.369 -108.634 378.875L-110.059 380.086C-160.605 424.655 -177.635 461.314 -189.27 494.917L-201.148 494.917C-188.657 456.44 -175.896 419.745 -121.388 371.65C-120.768 371.101 -120.134 370.553 -119.471 370.004C-118.702 369.363 -117.932 368.729 -117.184 368.066C-108.342 360.542 -100.49 354.343 -93.3146 349.213C-89.0394 346.227 -84.9068 343.441 -80.8098 340.826C-77.3184 343.914 -74.0598 346.968 -71.0339 349.989M-35.9777 399.153C-39.7613 401.925 -43.5377 404.854 -47.2713 407.839C-52.8432 412.022 -58.294 416.724 -63.3102 421.17C-90.9419 445.525 -110.586 469.059 -124.751 494.91L-139.158 494.91C-128.691 472.273 -111.577 445.282 -74.7961 412.741C-66.9583 405.944 -59.2417 399.681 -51.9383 394.13C-48.6892 391.757 -45.3902 389.435 -42.0698 387.162C-39.8414 391.054 -37.8151 395.059 -35.9991 399.161M-10.5905 439.34C-9.72836 442.19 -8.89474 445.04 -8.08245 447.783L-6.36523 453.526C-9.88513 456.376 -13.3195 459.312 -16.6612 462.176C-28.2464 472.369 -39.1434 483.318 -49.2806 494.952L-67.3003 494.952C-56.6125 481.115 -43.6944 467.627 -28.254 454.011L-26.8289 452.799C-25.7744 451.902 -24.7626 451.018 -23.7936 450.092C-19.2833 446.266 -14.9084 442.703 -10.5763 439.361M-238.947 265.826C-242.802 264.971 -246.65 264.087 -250.519 263.19C-258.627 261.301 -265.603 259.52 -271.98 257.71C-253.084 261.444 -235.641 265.691 -219.588 270.336C-226.129 268.74 -232.606 267.265 -238.947 265.826Z" fill="#F26522"/>
</g>
<path d="M75.368 128.323C73.5801 128.323 71.846 128.086 70.1658 127.612C68.5072 127.116 67.1716 126.481 66.1592 125.706L67.9363 121.764C68.9057 122.474 70.0581 123.045 71.3937 123.476C72.7292 123.907 74.0648 124.122 75.4003 124.122C76.8867 124.122 77.9853 123.907 78.6961 123.476C79.407 123.024 79.7624 122.431 79.7624 121.699C79.7624 121.16 79.547 120.719 79.1162 120.374C78.7069 120.008 78.1684 119.717 77.5006 119.502C76.8544 119.286 75.9712 119.049 74.851 118.791C73.1277 118.382 71.7168 117.972 70.6182 117.563C69.5196 117.154 68.5718 116.497 67.7748 115.592C66.9993 114.687 66.6115 113.481 66.6115 111.973C66.6115 110.659 66.967 109.474 67.6778 108.419C68.3887 107.342 69.455 106.491 70.8767 105.866C72.3199 105.241 74.0755 104.929 76.1435 104.929C77.5868 104.929 78.9977 105.101 80.3763 105.446C81.755 105.791 82.9613 106.286 83.9952 106.932L82.3797 110.907C80.2902 109.722 78.2007 109.13 76.1112 109.13C74.6464 109.13 73.5586 109.367 72.8477 109.841C72.1584 110.314 71.8137 110.939 71.8137 111.715C71.8137 112.49 72.2122 113.072 73.0093 113.459C73.8278 113.826 75.0664 114.192 76.7251 114.558C78.4484 114.967 79.8593 115.377 80.9579 115.786C82.0565 116.195 82.9936 116.841 83.7691 117.725C84.5661 118.608 84.9646 119.803 84.9646 121.311C84.9646 122.604 84.5984 123.788 83.866 124.865C83.1551 125.921 82.0781 126.761 80.6348 127.386C79.1916 128.01 77.436 128.323 75.368 128.323ZM109.285 105.317V127.935H104.051V118.662H93.7758V127.935H88.5413V105.317H93.7758V114.235H104.051V105.317H109.285ZM129.533 123.088H119.031L117.028 127.935H111.664L121.745 105.317H126.915L137.029 127.935H131.536L129.533 123.088ZM127.885 119.114L124.298 110.454L120.711 119.114H127.885ZM159.958 127.935L159.926 114.364L153.269 125.544H150.911L144.287 114.655V127.935H139.375V105.317H143.705L152.171 119.372L160.507 105.317H164.805L164.869 127.935H159.958ZM180.026 105.317C182.029 105.317 183.763 105.651 185.228 106.319C186.715 106.986 187.856 107.934 188.653 109.162C189.45 110.39 189.849 111.844 189.849 113.524C189.849 115.183 189.45 116.637 188.653 117.886C187.856 119.114 186.715 120.062 185.228 120.73C183.763 121.376 182.029 121.699 180.026 121.699H175.47V127.935H170.236V105.317H180.026ZM179.735 117.434C181.308 117.434 182.503 117.1 183.322 116.432C184.14 115.743 184.55 114.773 184.55 113.524C184.55 112.253 184.14 111.284 183.322 110.616C182.503 109.927 181.308 109.582 179.735 109.582H175.47V117.434H179.735ZM204.855 128.323C202.507 128.323 200.385 127.817 198.49 126.804C196.616 125.792 195.14 124.402 194.063 122.636C193.007 120.848 192.48 118.845 192.48 116.626C192.48 114.407 193.007 112.415 194.063 110.648C195.14 108.86 196.616 107.46 198.49 106.448C200.385 105.435 202.507 104.929 204.855 104.929C207.203 104.929 209.314 105.435 211.188 106.448C213.062 107.46 214.538 108.86 215.615 110.648C216.692 112.415 217.23 114.407 217.23 116.626C217.23 118.845 216.692 120.848 215.615 122.636C214.538 124.402 213.062 125.792 211.188 126.804C209.314 127.817 207.203 128.323 204.855 128.323ZM204.855 123.864C206.191 123.864 207.397 123.562 208.474 122.959C209.551 122.334 210.391 121.473 210.994 120.374C211.619 119.276 211.931 118.026 211.931 116.626C211.931 115.226 211.619 113.976 210.994 112.878C210.391 111.779 209.551 110.928 208.474 110.325C207.397 109.7 206.191 109.388 204.855 109.388C203.52 109.388 202.313 109.7 201.236 110.325C200.159 110.928 199.308 111.779 198.684 112.878C198.08 113.976 197.779 115.226 197.779 116.626C197.779 118.026 198.08 119.276 198.684 120.374C199.308 121.473 200.159 122.334 201.236 122.959C202.313 123.562 203.52 123.864 204.855 123.864ZM232.118 128.323C229.77 128.323 227.648 127.817 225.753 126.804C223.879 125.792 222.403 124.402 221.326 122.636C220.27 120.848 219.743 118.845 219.743 116.626C219.743 114.407 220.27 112.415 221.326 110.648C222.403 108.86 223.879 107.46 225.753 106.448C227.648 105.435 229.77 104.929 232.118 104.929C234.466 104.929 236.577 105.435 238.451 106.448C240.325 107.46 241.801 108.86 242.878 110.648C243.955 112.415 244.493 114.407 244.493 116.626C244.493 118.845 243.955 120.848 242.878 122.636C241.801 124.402 240.325 125.792 238.451 126.804C236.577 127.817 234.466 128.323 232.118 128.323ZM232.118 123.864C233.454 123.864 234.66 123.562 235.737 122.959C236.814 122.334 237.654 121.473 238.257 120.374C238.882 119.276 239.194 118.026 239.194 116.626C239.194 115.226 238.882 113.976 238.257 112.878C237.654 111.779 236.814 110.928 235.737 110.325C234.66 109.7 233.454 109.388 232.118 109.388C230.783 109.388 229.576 109.7 228.499 110.325C227.422 110.928 226.571 111.779 225.947 112.878C225.343 113.976 225.042 115.226 225.042 116.626C225.042 118.026 225.343 119.276 225.947 120.374C226.571 121.473 227.422 122.334 228.499 122.959C229.576 123.562 230.783 123.864 232.118 123.864Z" fill="white"/>
<path d="M130.628 208.632C129.685 208.632 128.833 208.425 128.07 208.012C127.316 207.59 126.723 207.016 126.292 206.289C125.862 205.553 125.646 204.727 125.646 203.812C125.646 202.896 125.862 202.075 126.292 201.348C126.723 200.612 127.32 200.037 128.083 199.625C128.846 199.203 129.699 198.992 130.641 198.992C131.377 198.992 132.05 199.118 132.661 199.369C133.271 199.611 133.791 199.975 134.222 200.459L133.347 201.308C132.638 200.563 131.754 200.19 130.695 200.19C129.995 200.19 129.362 200.347 128.797 200.661C128.231 200.975 127.787 201.411 127.464 201.967C127.15 202.515 126.993 203.13 126.993 203.812C126.993 204.494 127.15 205.113 127.464 205.67C127.787 206.217 128.231 206.648 128.797 206.962C129.362 207.276 129.995 207.433 130.695 207.433C131.745 207.433 132.629 207.056 133.347 206.302L134.222 207.151C133.791 207.635 133.266 208.003 132.647 208.255C132.037 208.506 131.364 208.632 130.628 208.632ZM135.954 198.534H137.247V208.524H135.954V198.534ZM139.715 201.388H141.007V208.524H139.715V201.388ZM140.361 200.015C140.11 200.015 139.899 199.934 139.728 199.773C139.567 199.611 139.486 199.414 139.486 199.18C139.486 198.947 139.567 198.75 139.728 198.588C139.899 198.417 140.11 198.332 140.361 198.332C140.612 198.332 140.819 198.413 140.98 198.574C141.151 198.727 141.236 198.92 141.236 199.153C141.236 199.396 141.151 199.602 140.98 199.773C140.819 199.934 140.612 200.015 140.361 200.015ZM146.585 208.605C145.858 208.605 145.207 208.448 144.633 208.133C144.067 207.819 143.623 207.388 143.3 206.841C142.977 206.284 142.815 205.656 142.815 204.956C142.815 204.256 142.977 203.632 143.3 203.085C143.623 202.528 144.067 202.097 144.633 201.792C145.207 201.478 145.858 201.321 146.585 201.321C147.231 201.321 147.806 201.451 148.308 201.711C148.82 201.972 149.215 202.349 149.493 202.842L148.51 203.475C148.286 203.134 148.007 202.878 147.675 202.708C147.343 202.537 146.975 202.452 146.571 202.452C146.105 202.452 145.683 202.555 145.306 202.762C144.938 202.968 144.646 203.264 144.431 203.65C144.224 204.027 144.121 204.462 144.121 204.956C144.121 205.459 144.224 205.903 144.431 206.289C144.646 206.666 144.938 206.958 145.306 207.164C145.683 207.37 146.105 207.474 146.571 207.474C146.975 207.474 147.343 207.388 147.675 207.218C148.007 207.047 148.286 206.792 148.51 206.45L149.493 207.07C149.215 207.563 148.82 207.945 148.308 208.214C147.806 208.474 147.231 208.605 146.585 208.605ZM153.848 205.198L152.367 206.572V208.524H151.074V198.534H152.367V204.943L156.258 201.388H157.819L154.817 204.337L158.115 208.524H156.527L153.848 205.198ZM171.912 201.321C172.81 201.321 173.519 201.581 174.039 202.102C174.569 202.622 174.834 203.394 174.834 204.418V208.524H173.541V204.566C173.541 203.875 173.38 203.354 173.056 203.004C172.742 202.654 172.289 202.479 171.697 202.479C171.041 202.479 170.521 202.685 170.135 203.098C169.749 203.502 169.556 204.085 169.556 204.848V208.524H168.264V204.566C168.264 203.875 168.102 203.354 167.779 203.004C167.465 202.654 167.012 202.479 166.419 202.479C165.764 202.479 165.243 202.685 164.857 203.098C164.471 203.502 164.278 204.085 164.278 204.848V208.524H162.986V201.388H164.225V202.452C164.485 202.084 164.826 201.806 165.248 201.617C165.67 201.42 166.15 201.321 166.688 201.321C167.245 201.321 167.739 201.433 168.169 201.658C168.6 201.882 168.932 202.21 169.166 202.64C169.435 202.228 169.807 201.904 170.283 201.671C170.768 201.438 171.311 201.321 171.912 201.321ZM183.7 204.996C183.7 205.095 183.691 205.225 183.673 205.387H177.884C177.965 206.015 178.239 206.522 178.705 206.908C179.181 207.285 179.769 207.474 180.469 207.474C181.322 207.474 182.008 207.186 182.529 206.612L183.242 207.447C182.919 207.824 182.515 208.111 182.031 208.308C181.555 208.506 181.021 208.605 180.429 208.605C179.675 208.605 179.006 208.452 178.423 208.147C177.839 207.833 177.386 207.397 177.063 206.841C176.749 206.284 176.592 205.656 176.592 204.956C176.592 204.265 176.744 203.641 177.049 203.085C177.363 202.528 177.79 202.097 178.328 201.792C178.876 201.478 179.491 201.321 180.173 201.321C180.855 201.321 181.461 201.478 181.99 201.792C182.529 202.097 182.946 202.528 183.242 203.085C183.548 203.641 183.7 204.278 183.7 204.996ZM180.173 202.412C179.553 202.412 179.033 202.6 178.611 202.977C178.198 203.354 177.956 203.848 177.884 204.458H182.461C182.39 203.857 182.143 203.367 181.721 202.99C181.308 202.604 180.792 202.412 180.173 202.412Z" fill="white"/>
<path d="M125 209.87H184.266V210.543H125V209.87Z" fill="white"/>
</svg>
