<svg width="320" height="320" viewBox="0 0 320 320" fill="none" xmlns="http://www.w3.org/2000/svg">
<rect width="320" height="320" fill="#F26522"/>
<path d="M100.839 65.336C99.2707 65.336 97.768 65.1307 96.3307 64.72C94.8934 64.2907 93.736 63.74 92.8587 63.068L94.3987 59.652C95.2387 60.2493 96.228 60.744 97.3667 61.136C98.524 61.5093 99.6907 61.696 100.867 61.696C101.763 61.696 102.481 61.612 103.023 61.444C103.583 61.2573 103.993 61.0053 104.255 60.688C104.516 60.3707 104.647 60.0067 104.647 59.596C104.647 59.0733 104.441 58.6627 104.031 58.364C103.62 58.0467 103.079 57.7947 102.407 57.608C101.735 57.4027 100.988 57.216 100.167 57.048C99.364 56.8613 98.552 56.6373 97.7307 56.376C96.928 56.1147 96.1907 55.7787 95.5187 55.368C94.8467 54.9573 94.296 54.416 93.8667 53.744C93.456 53.072 93.2507 52.2133 93.2507 51.168C93.2507 50.048 93.5494 49.0307 94.1467 48.116C94.7627 47.1827 95.6774 46.4453 96.8907 45.904C98.1227 45.344 99.6627 45.064 101.511 45.064C102.743 45.064 103.956 45.2133 105.151 45.512C106.345 45.792 107.4 46.2213 108.315 46.8L106.915 50.244C106 49.7213 105.085 49.3387 104.171 49.096C103.256 48.8347 102.36 48.704 101.483 48.704C100.605 48.704 99.8867 48.8067 99.3267 49.012C98.7667 49.2173 98.3654 49.488 98.1227 49.824C97.88 50.1413 97.7587 50.5147 97.7587 50.944C97.7587 51.448 97.964 51.8587 98.3747 52.176C98.7854 52.4747 99.3267 52.7173 99.9987 52.904C100.671 53.0907 101.408 53.2773 102.211 53.464C103.032 53.6507 103.844 53.8653 104.647 54.108C105.468 54.3507 106.215 54.6773 106.887 55.088C107.559 55.4987 108.1 56.04 108.511 56.712C108.94 57.384 109.155 58.2333 109.155 59.26C109.155 60.3613 108.847 61.3693 108.231 62.284C107.615 63.1987 106.691 63.936 105.459 64.496C104.245 65.056 102.705 65.336 100.839 65.336ZM120.262 49.712C121.457 49.712 122.521 49.9547 123.454 50.44C124.406 50.9067 125.153 51.6347 125.694 52.624C126.235 53.5947 126.506 54.8453 126.506 56.376V65H122.138V57.048C122.138 55.8347 121.867 54.9387 121.326 54.36C120.803 53.7813 120.057 53.492 119.086 53.492C118.395 53.492 117.77 53.6413 117.21 53.94C116.669 54.22 116.239 54.6587 115.922 55.256C115.623 55.8533 115.474 56.6187 115.474 57.552V65H111.106V44.224H115.474V54.108L114.494 52.848C115.035 51.84 115.81 51.0653 116.818 50.524C117.826 49.9827 118.974 49.712 120.262 49.712ZM138.866 65V62.06L138.586 61.416V56.152C138.586 55.2187 138.296 54.4907 137.718 53.968C137.158 53.4453 136.29 53.184 135.114 53.184C134.311 53.184 133.518 53.3147 132.734 53.576C131.968 53.8187 131.315 54.1547 130.774 54.584L129.206 51.532C130.027 50.9533 131.016 50.5053 132.174 50.188C133.331 49.8707 134.507 49.712 135.702 49.712C137.998 49.712 139.78 50.2533 141.05 51.336C142.319 52.4187 142.954 54.108 142.954 56.404V65H138.866ZM134.274 65.224C133.098 65.224 132.09 65.028 131.25 64.636C130.41 64.2253 129.766 63.6747 129.318 62.984C128.87 62.2933 128.646 61.5187 128.646 60.66C128.646 59.764 128.86 58.98 129.29 58.308C129.738 57.636 130.438 57.1133 131.39 56.74C132.342 56.348 133.583 56.152 135.114 56.152H139.118V58.7H135.59C134.563 58.7 133.854 58.868 133.462 59.204C133.088 59.54 132.902 59.96 132.902 60.464C132.902 61.024 133.116 61.472 133.546 61.808C133.994 62.1253 134.6 62.284 135.366 62.284C136.094 62.284 136.747 62.116 137.326 61.78C137.904 61.4253 138.324 60.912 138.586 60.24L139.258 62.256C138.94 63.2267 138.362 63.964 137.522 64.468C136.682 64.972 135.599 65.224 134.274 65.224ZM165.359 49.712C166.553 49.712 167.608 49.9547 168.523 50.44C169.456 50.9067 170.184 51.6347 170.707 52.624C171.248 53.5947 171.519 54.8453 171.519 56.376V65H167.151V57.048C167.151 55.8347 166.899 54.9387 166.395 54.36C165.891 53.7813 165.181 53.492 164.267 53.492C163.632 53.492 163.063 53.6413 162.559 53.94C162.055 54.22 161.663 54.6493 161.383 55.228C161.103 55.8067 160.963 56.544 160.963 57.44V65H156.595V57.048C156.595 55.8347 156.343 54.9387 155.839 54.36C155.353 53.7813 154.653 53.492 153.739 53.492C153.104 53.492 152.535 53.6413 152.031 53.94C151.527 54.22 151.135 54.6493 150.855 55.228C150.575 55.8067 150.435 56.544 150.435 57.44V65H146.067V49.936H150.239V54.052L149.455 52.848C149.977 51.8213 150.715 51.0467 151.667 50.524C152.637 49.9827 153.739 49.712 154.971 49.712C156.352 49.712 157.556 50.0667 158.583 50.776C159.628 51.4667 160.319 52.5307 160.655 53.968L159.115 53.548C159.619 52.372 160.421 51.4387 161.523 50.748C162.643 50.0573 163.921 49.712 165.359 49.712ZM183.498 65.224C182.229 65.224 181.118 64.944 180.166 64.384C179.214 63.824 178.467 62.9747 177.926 61.836C177.403 60.6787 177.142 59.2227 177.142 57.468C177.142 55.6947 177.394 54.2387 177.898 53.1C178.402 51.9613 179.13 51.112 180.082 50.552C181.034 49.992 182.173 49.712 183.498 49.712C184.917 49.712 186.186 50.0387 187.306 50.692C188.445 51.3267 189.341 52.2227 189.994 53.38C190.666 54.5373 191.002 55.9 191.002 57.468C191.002 59.0547 190.666 60.4267 189.994 61.584C189.341 62.7413 188.445 63.6373 187.306 64.272C186.186 64.9067 184.917 65.224 183.498 65.224ZM174.594 70.432V49.936H178.766V53.016L178.682 57.496L178.962 61.948V70.432H174.594ZM182.742 61.64C183.47 61.64 184.114 61.472 184.674 61.136C185.253 60.8 185.71 60.324 186.046 59.708C186.401 59.0733 186.578 58.3267 186.578 57.468C186.578 56.5907 186.401 55.844 186.046 55.228C185.71 54.612 185.253 54.136 184.674 53.8C184.114 53.464 183.47 53.296 182.742 53.296C182.014 53.296 181.361 53.464 180.782 53.8C180.203 54.136 179.746 54.612 179.41 55.228C179.074 55.844 178.906 56.5907 178.906 57.468C178.906 58.3267 179.074 59.0733 179.41 59.708C179.746 60.324 180.203 60.8 180.782 61.136C181.361 61.472 182.014 61.64 182.742 61.64ZM200.254 65.224C198.649 65.224 197.221 64.888 195.97 64.216C194.738 63.544 193.758 62.6293 193.03 61.472C192.321 60.296 191.966 58.9613 191.966 57.468C191.966 55.956 192.321 54.6213 193.03 53.464C193.758 52.288 194.738 51.3733 195.97 50.72C197.221 50.048 198.649 49.712 200.254 49.712C201.841 49.712 203.259 50.048 204.51 50.72C205.761 51.3733 206.741 52.2787 207.45 53.436C208.159 54.5933 208.514 55.9373 208.514 57.468C208.514 58.9613 208.159 60.296 207.45 61.472C206.741 62.6293 205.761 63.544 204.51 64.216C203.259 64.888 201.841 65.224 200.254 65.224ZM200.254 61.64C200.982 61.64 201.635 61.472 202.214 61.136C202.793 60.8 203.25 60.324 203.586 59.708C203.922 59.0733 204.09 58.3267 204.09 57.468C204.09 56.5907 203.922 55.844 203.586 55.228C203.25 54.612 202.793 54.136 202.214 53.8C201.635 53.464 200.982 53.296 200.254 53.296C199.526 53.296 198.873 53.464 198.294 53.8C197.715 54.136 197.249 54.612 196.894 55.228C196.558 55.844 196.39 56.5907 196.39 57.468C196.39 58.3267 196.558 59.0733 196.894 59.708C197.249 60.324 197.715 60.8 198.294 61.136C198.873 61.472 199.526 61.64 200.254 61.64ZM217.762 65.224C216.156 65.224 214.728 64.888 213.478 64.216C212.246 63.544 211.266 62.6293 210.538 61.472C209.828 60.296 209.474 58.9613 209.474 57.468C209.474 55.956 209.828 54.6213 210.538 53.464C211.266 52.288 212.246 51.3733 213.478 50.72C214.728 50.048 216.156 49.712 217.762 49.712C219.348 49.712 220.767 50.048 222.018 50.72C223.268 51.3733 224.248 52.2787 224.958 53.436C225.667 54.5933 226.022 55.9373 226.022 57.468C226.022 58.9613 225.667 60.296 224.958 61.472C224.248 62.6293 223.268 63.544 222.018 64.216C220.767 64.888 219.348 65.224 217.762 65.224ZM217.762 61.64C218.49 61.64 219.143 61.472 219.722 61.136C220.3 60.8 220.758 60.324 221.094 59.708C221.43 59.0733 221.598 58.3267 221.598 57.468C221.598 56.5907 221.43 55.844 221.094 55.228C220.758 54.612 220.3 54.136 219.722 53.8C219.143 53.464 218.49 53.296 217.762 53.296C217.034 53.296 216.38 53.464 215.802 53.8C215.223 54.136 214.756 54.612 214.402 55.228C214.066 55.844 213.898 56.5907 213.898 57.468C213.898 58.3267 214.066 59.0733 214.402 59.708C214.756 60.324 215.223 60.8 215.802 61.136C216.38 61.472 217.034 61.64 217.762 61.64Z" fill="#C1F539"/>
<path d="M73.4572 104.598L73.4158 103.356L79.269 97.3367H80.4424L76.1768 101.809L75.597 102.431L73.4572 104.598ZM72.5737 107V97.3367H73.5953V107H72.5737ZM79.5175 107L75.3485 102.196L76.0387 101.451L80.7323 107H79.5175ZM83.9894 101.658H89.0971V102.527H83.9894V101.658ZM84.0998 106.116H89.9116V107H83.0782V97.3367H89.7045V98.2202H84.0998V106.116ZM93.0031 107V97.3367H96.6199C97.439 97.3367 98.143 97.4702 98.732 97.7371C99.321 97.9947 99.772 98.3721 100.085 98.869C100.407 99.3568 100.568 99.9504 100.568 100.65C100.568 101.331 100.407 101.92 100.085 102.417C99.772 102.905 99.321 103.282 98.732 103.549C98.143 103.807 97.439 103.935 96.6199 103.935H93.5691L94.0246 103.466V107H93.0031ZM99.6017 107L97.1169 103.494H98.2212L100.72 107H99.6017ZM94.0246 103.549L93.5691 103.066H96.5923C97.5586 103.066 98.2903 102.854 98.7872 102.431C99.2934 102.007 99.5465 101.414 99.5465 100.65C99.5465 99.8768 99.2934 99.2786 98.7872 98.8552C98.2903 98.4319 97.5586 98.2202 96.5923 98.2202H93.5691L94.0246 97.7371V103.549ZM102.123 107L106.541 97.3367H107.548L111.966 107H110.889L106.831 97.9303H107.245L103.186 107H102.123ZM103.863 104.419L104.166 103.59H109.785L110.089 104.419H103.863ZM115.647 107V98.2202H112.251V97.3367H120.064V98.2202H116.668V107H115.647ZM122.387 107V97.3367H123.408V107H122.387ZM127.242 107V97.3367H128.085L134.752 105.73H134.31V97.3367H135.318V107H134.476L127.822 98.6067H128.264V107H127.242ZM145.426 105.095V99.2418H146.296V105.095H145.426ZM142.858 102.582V101.768H148.863V102.582H142.858ZM156.399 107V97.3367H160.016C160.835 97.3367 161.539 97.4702 162.128 97.7371C162.717 97.9947 163.168 98.3721 163.481 98.869C163.803 99.3568 163.964 99.9504 163.964 100.65C163.964 101.331 163.803 101.92 163.481 102.417C163.168 102.905 162.717 103.282 162.128 103.549C161.539 103.816 160.835 103.949 160.016 103.949H156.965L157.421 103.466V107H156.399ZM157.421 103.549L156.965 103.052H159.989C160.955 103.052 161.687 102.845 162.184 102.431C162.69 102.007 162.943 101.414 162.943 100.65C162.943 99.8768 162.69 99.2786 162.184 98.8552C161.687 98.4319 160.955 98.2202 159.989 98.2202H156.965L157.421 97.7371V103.549ZM164.832 107L169.25 97.3367H170.257L174.675 107H173.598L169.54 97.9303H169.954L165.895 107H164.832ZM166.572 104.419L166.875 103.59H172.494L172.797 104.419H166.572ZM176.964 107V97.3367H177.806L184.473 105.73H184.032V97.3367H185.039V107H184.197L177.543 98.6067H177.985V107H176.964ZM190.761 107V98.2202H187.365V97.3367H195.179V98.2202H191.783V107H190.761ZM204.569 97.3367H205.577V107H204.569V97.3367ZM198.522 107H197.501V97.3367H198.522V107ZM204.665 102.541H198.412V101.644H204.665V102.541ZM210.332 101.658H215.44V102.527H210.332V101.658ZM210.442 106.116H216.254V107H209.421V97.3367H216.047V98.2202H210.442V106.116ZM219.346 107V97.3367H220.188L226.855 105.73H226.414V97.3367H227.421V107H226.579L219.925 98.6067H220.367V107H219.346ZM235.49 107.083C234.763 107.083 234.086 106.963 233.461 106.724C232.844 106.475 232.306 106.13 231.845 105.689C231.395 105.238 231.04 104.718 230.783 104.129C230.534 103.53 230.41 102.877 230.41 102.168C230.41 101.46 230.534 100.811 230.783 100.222C231.04 99.6237 231.395 99.1037 231.845 98.662C232.306 98.211 232.844 97.8659 233.461 97.6266C234.077 97.3781 234.754 97.2539 235.49 97.2539C236.217 97.2539 236.889 97.3781 237.505 97.6266C238.122 97.8659 238.656 98.2064 239.107 98.6482C239.567 99.0899 239.921 99.6099 240.17 100.208C240.427 100.806 240.556 101.46 240.556 102.168C240.556 102.877 240.427 103.53 240.17 104.129C239.921 104.727 239.567 105.247 239.107 105.689C238.656 106.13 238.122 106.475 237.505 106.724C236.889 106.963 236.217 107.083 235.49 107.083ZM235.49 106.172C236.07 106.172 236.603 106.075 237.091 105.882C237.588 105.679 238.016 105.399 238.375 105.04C238.743 104.672 239.029 104.248 239.231 103.77C239.433 103.282 239.535 102.748 239.535 102.168C239.535 101.589 239.433 101.059 239.231 100.581C239.029 100.093 238.743 99.6697 238.375 99.3108C238.016 98.9427 237.588 98.662 237.091 98.4687C236.603 98.2662 236.07 98.165 235.49 98.165C234.91 98.165 234.372 98.2662 233.875 98.4687C233.378 98.662 232.945 98.9427 232.577 99.3108C232.218 99.6697 231.933 100.093 231.721 100.581C231.519 101.059 231.418 101.589 231.418 102.168C231.418 102.739 231.519 103.268 231.721 103.756C231.933 104.244 232.218 104.672 232.577 105.04C232.945 105.399 233.378 105.679 233.875 105.882C234.372 106.075 234.91 106.172 235.49 106.172ZM243.536 107V97.3367H244.558V106.116H249.969V107H243.536Z" fill="#FFE3D6"/>
<path d="M102.143 219V205H104.143V219H102.143ZM109.334 219V205H115.234C116.728 205 118.041 205.293 119.174 205.88C120.321 206.467 121.208 207.287 121.834 208.34C122.474 209.393 122.794 210.613 122.794 212C122.794 213.387 122.474 214.607 121.834 215.66C121.208 216.713 120.321 217.533 119.174 218.12C118.041 218.707 116.728 219 115.234 219H109.334ZM111.334 217.26H115.114C116.274 217.26 117.274 217.04 118.114 216.6C118.968 216.16 119.628 215.547 120.094 214.76C120.561 213.96 120.794 213.04 120.794 212C120.794 210.947 120.561 210.027 120.094 209.24C119.628 208.453 118.968 207.84 118.114 207.4C117.274 206.96 116.274 206.74 115.114 206.74H111.334V217.26ZM126.858 219V205H132.318C133.544 205 134.591 205.193 135.458 205.58C136.324 205.967 136.991 206.527 137.458 207.26C137.924 207.993 138.158 208.867 138.158 209.88C138.158 210.893 137.924 211.767 137.458 212.5C136.991 213.22 136.324 213.773 135.458 214.16C134.591 214.547 133.544 214.74 132.318 214.74H127.958L128.858 213.82V219H126.858ZM136.218 219L132.658 213.92H134.798L138.398 219H136.218ZM128.858 214.02L127.958 213.04H132.258C133.538 213.04 134.504 212.767 135.158 212.22C135.824 211.66 136.158 210.88 136.158 209.88C136.158 208.88 135.824 208.107 135.158 207.56C134.504 207.013 133.538 206.74 132.258 206.74H127.958L128.858 205.74V214.02ZM153.08 219.16C151.947 219.16 150.967 218.993 150.14 218.66C149.313 218.327 148.673 217.853 148.22 217.24C147.767 216.613 147.54 215.88 147.54 215.04C147.54 214.213 147.753 213.513 148.18 212.94C148.62 212.353 149.253 211.913 150.08 211.62C150.907 211.313 151.907 211.16 153.08 211.16C154.253 211.16 155.253 211.313 156.08 211.62C156.92 211.913 157.56 212.353 158 212.94C158.44 213.527 158.66 214.227 158.66 215.04C158.66 215.88 158.433 216.613 157.98 217.24C157.527 217.853 156.88 218.327 156.04 218.66C155.2 218.993 154.213 219.16 153.08 219.16ZM153.08 217.54C154.2 217.54 155.073 217.313 155.7 216.86C156.34 216.393 156.66 215.767 156.66 214.98C156.66 214.207 156.34 213.6 155.7 213.16C155.073 212.707 154.2 212.48 153.08 212.48C151.973 212.48 151.107 212.707 150.48 213.16C149.853 213.6 149.54 214.207 149.54 214.98C149.54 215.767 149.853 216.393 150.48 216.86C151.107 217.313 151.973 217.54 153.08 217.54ZM153.08 212.24C152.013 212.24 151.107 212.1 150.36 211.82C149.613 211.527 149.04 211.113 148.64 210.58C148.24 210.033 148.04 209.387 148.04 208.64C148.04 207.853 148.247 207.18 148.66 206.62C149.087 206.047 149.68 205.607 150.44 205.3C151.2 204.993 152.08 204.84 153.08 204.84C154.093 204.84 154.98 204.993 155.74 205.3C156.5 205.607 157.093 206.047 157.52 206.62C157.947 207.18 158.16 207.853 158.16 208.64C158.16 209.387 157.96 210.033 157.56 210.58C157.16 211.113 156.58 211.527 155.82 211.82C155.06 212.1 154.147 212.24 153.08 212.24ZM153.08 210.96C154.053 210.96 154.813 210.76 155.36 210.36C155.92 209.96 156.2 209.413 156.2 208.72C156.2 208.013 155.913 207.46 155.34 207.06C154.767 206.66 154.013 206.46 153.08 206.46C152.147 206.46 151.4 206.66 150.84 207.06C150.293 207.46 150.02 208.013 150.02 208.72C150.02 209.413 150.287 209.96 150.82 210.36C151.367 210.76 152.12 210.96 153.08 210.96ZM166.031 204.84C167.298 204.84 168.365 205.113 169.231 205.66C170.111 206.207 170.778 207 171.231 208.04C171.685 209.067 171.911 210.327 171.911 211.82C171.911 213.407 171.631 214.747 171.071 215.84C170.511 216.933 169.738 217.76 168.751 218.32C167.765 218.88 166.611 219.16 165.291 219.16C164.638 219.16 164.005 219.093 163.391 218.96C162.791 218.827 162.265 218.62 161.811 218.34L162.571 216.78C162.945 217.02 163.358 217.193 163.811 217.3C164.278 217.393 164.765 217.44 165.271 217.44C166.685 217.44 167.811 217 168.651 216.12C169.491 215.227 169.911 213.907 169.911 212.16C169.911 211.88 169.898 211.547 169.871 211.16C169.845 210.773 169.785 210.393 169.691 210.02L170.351 210.7C170.165 211.313 169.851 211.833 169.411 212.26C168.985 212.673 168.465 212.987 167.851 213.2C167.251 213.4 166.591 213.5 165.871 213.5C164.951 213.5 164.131 213.327 163.411 212.98C162.691 212.633 162.125 212.147 161.711 211.52C161.298 210.88 161.091 210.127 161.091 209.26C161.091 208.353 161.305 207.573 161.731 206.92C162.171 206.253 162.765 205.74 163.511 205.38C164.271 205.02 165.111 204.84 166.031 204.84ZM166.111 206.46C165.511 206.46 164.978 206.573 164.511 206.8C164.045 207.027 163.678 207.34 163.411 207.74C163.158 208.14 163.031 208.62 163.031 209.18C163.031 210.007 163.318 210.667 163.891 211.16C164.465 211.64 165.238 211.88 166.211 211.88C166.851 211.88 167.411 211.76 167.891 211.52C168.385 211.28 168.765 210.953 169.031 210.54C169.311 210.127 169.451 209.667 169.451 209.16C169.451 208.667 169.325 208.22 169.071 207.82C168.818 207.42 168.445 207.093 167.951 206.84C167.458 206.587 166.845 206.46 166.111 206.46ZM174.701 221.96L175.701 217.92L175.961 219.08C175.574 219.08 175.247 218.96 174.981 218.72C174.727 218.48 174.601 218.153 174.601 217.74C174.601 217.34 174.727 217.013 174.981 216.76C175.247 216.507 175.567 216.38 175.941 216.38C176.327 216.38 176.641 216.513 176.881 216.78C177.121 217.033 177.241 217.353 177.241 217.74C177.241 217.873 177.227 218.007 177.201 218.14C177.187 218.26 177.154 218.407 177.101 218.58C177.061 218.74 176.994 218.94 176.901 219.18L175.961 221.96H174.701ZM185.618 219.16C184.524 219.16 183.544 218.88 182.678 218.32C181.824 217.76 181.144 216.947 180.638 215.88C180.144 214.813 179.898 213.52 179.898 212C179.898 210.48 180.144 209.187 180.638 208.12C181.144 207.053 181.824 206.24 182.678 205.68C183.544 205.12 184.524 204.84 185.618 204.84C186.698 204.84 187.671 205.12 188.538 205.68C189.404 206.24 190.084 207.053 190.578 208.12C191.071 209.187 191.318 210.48 191.318 212C191.318 213.52 191.071 214.813 190.578 215.88C190.084 216.947 189.404 217.76 188.538 218.32C187.671 218.88 186.698 219.16 185.618 219.16ZM185.618 217.38C186.351 217.38 186.991 217.18 187.538 216.78C188.098 216.38 188.531 215.78 188.838 214.98C189.158 214.18 189.318 213.187 189.318 212C189.318 210.813 189.158 209.82 188.838 209.02C188.531 208.22 188.098 207.62 187.538 207.22C186.991 206.82 186.351 206.62 185.618 206.62C184.884 206.62 184.238 206.82 183.678 207.22C183.118 207.62 182.678 208.22 182.358 209.02C182.051 209.82 181.898 210.813 181.898 212C181.898 213.187 182.051 214.18 182.358 214.98C182.678 215.78 183.118 216.38 183.678 216.78C184.238 217.18 184.884 217.38 185.618 217.38ZM199.957 219.16C198.864 219.16 197.884 218.88 197.017 218.32C196.164 217.76 195.484 216.947 194.977 215.88C194.484 214.813 194.237 213.52 194.237 212C194.237 210.48 194.484 209.187 194.977 208.12C195.484 207.053 196.164 206.24 197.017 205.68C197.884 205.12 198.864 204.84 199.957 204.84C201.037 204.84 202.011 205.12 202.877 205.68C203.744 206.24 204.424 207.053 204.917 208.12C205.411 209.187 205.657 210.48 205.657 212C205.657 213.52 205.411 214.813 204.917 215.88C204.424 216.947 203.744 217.76 202.877 218.32C202.011 218.88 201.037 219.16 199.957 219.16ZM199.957 217.38C200.691 217.38 201.331 217.18 201.877 216.78C202.437 216.38 202.871 215.78 203.177 214.98C203.497 214.18 203.657 213.187 203.657 212C203.657 210.813 203.497 209.82 203.177 209.02C202.871 208.22 202.437 207.62 201.877 207.22C201.331 206.82 200.691 206.62 199.957 206.62C199.224 206.62 198.577 206.82 198.017 207.22C197.457 207.62 197.017 208.22 196.697 209.02C196.391 209.82 196.237 210.813 196.237 212C196.237 213.187 196.391 214.18 196.697 214.98C197.017 215.78 197.457 216.38 198.017 216.78C198.577 217.18 199.224 217.38 199.957 217.38ZM214.297 219.16C213.204 219.16 212.224 218.88 211.357 218.32C210.504 217.76 209.824 216.947 209.317 215.88C208.824 214.813 208.577 213.52 208.577 212C208.577 210.48 208.824 209.187 209.317 208.12C209.824 207.053 210.504 206.24 211.357 205.68C212.224 205.12 213.204 204.84 214.297 204.84C215.377 204.84 216.351 205.12 217.217 205.68C218.084 206.24 218.764 207.053 219.257 208.12C219.751 209.187 219.997 210.48 219.997 212C219.997 213.52 219.751 214.813 219.257 215.88C218.764 216.947 218.084 217.76 217.217 218.32C216.351 218.88 215.377 219.16 214.297 219.16ZM214.297 217.38C215.031 217.38 215.671 217.18 216.217 216.78C216.777 216.38 217.211 215.78 217.517 214.98C217.837 214.18 217.997 213.187 217.997 212C217.997 210.813 217.837 209.82 217.517 209.02C217.211 208.22 216.777 207.62 216.217 207.22C215.671 206.82 215.031 206.62 214.297 206.62C213.564 206.62 212.917 206.82 212.357 207.22C211.797 207.62 211.357 208.22 211.037 209.02C210.731 209.82 210.577 210.813 210.577 212C210.577 213.187 210.731 214.18 211.037 214.98C211.357 215.78 211.797 216.38 212.357 216.78C212.917 217.18 213.564 217.38 214.297 217.38Z" fill="#C1F539"/>
<path d="M128.661 271.112C127.914 271.112 127.2 271 126.519 270.776C125.838 270.543 125.301 270.244 124.909 269.88L125.427 268.788C125.8 269.115 126.276 269.385 126.855 269.6C127.434 269.815 128.036 269.922 128.661 269.922C129.23 269.922 129.692 269.857 130.047 269.726C130.402 269.595 130.663 269.418 130.831 269.194C130.999 268.961 131.083 268.699 131.083 268.41C131.083 268.074 130.971 267.803 130.747 267.598C130.532 267.393 130.248 267.229 129.893 267.108C129.548 266.977 129.165 266.865 128.745 266.772C128.325 266.679 127.9 266.571 127.471 266.45C127.051 266.319 126.664 266.156 126.309 265.96C125.964 265.764 125.684 265.503 125.469 265.176C125.254 264.84 125.147 264.411 125.147 263.888C125.147 263.384 125.278 262.922 125.539 262.502C125.81 262.073 126.22 261.732 126.771 261.48C127.331 261.219 128.04 261.088 128.899 261.088C129.468 261.088 130.033 261.163 130.593 261.312C131.153 261.461 131.638 261.676 132.049 261.956L131.587 263.076C131.167 262.796 130.724 262.595 130.257 262.474C129.79 262.343 129.338 262.278 128.899 262.278C128.348 262.278 127.896 262.348 127.541 262.488C127.186 262.628 126.925 262.815 126.757 263.048C126.598 263.281 126.519 263.543 126.519 263.832C126.519 264.177 126.626 264.453 126.841 264.658C127.065 264.863 127.35 265.027 127.695 265.148C128.05 265.269 128.437 265.381 128.857 265.484C129.277 265.577 129.697 265.685 130.117 265.806C130.546 265.927 130.934 266.086 131.279 266.282C131.634 266.478 131.918 266.739 132.133 267.066C132.348 267.393 132.455 267.813 132.455 268.326C132.455 268.821 132.32 269.283 132.049 269.712C131.778 270.132 131.358 270.473 130.789 270.734C130.229 270.986 129.52 271.112 128.661 271.112ZM138.308 271.084C137.515 271.084 136.815 270.921 136.208 270.594C135.611 270.267 135.144 269.819 134.808 269.25C134.482 268.681 134.318 268.027 134.318 267.29C134.318 266.553 134.477 265.899 134.794 265.33C135.121 264.761 135.564 264.317 136.124 264C136.694 263.673 137.333 263.51 138.042 263.51C138.761 263.51 139.396 263.669 139.946 263.986C140.497 264.303 140.926 264.751 141.234 265.33C141.552 265.899 141.71 266.567 141.71 267.332C141.71 267.388 141.706 267.453 141.696 267.528C141.696 267.603 141.692 267.673 141.682 267.738H135.368V266.772H140.982L140.436 267.108C140.446 266.632 140.348 266.207 140.142 265.834C139.937 265.461 139.652 265.171 139.288 264.966C138.934 264.751 138.518 264.644 138.042 264.644C137.576 264.644 137.16 264.751 136.796 264.966C136.432 265.171 136.148 265.465 135.942 265.848C135.737 266.221 135.634 266.651 135.634 267.136V267.36C135.634 267.855 135.746 268.298 135.97 268.69C136.204 269.073 136.526 269.371 136.936 269.586C137.347 269.801 137.818 269.908 138.35 269.908C138.789 269.908 139.186 269.833 139.54 269.684C139.904 269.535 140.222 269.311 140.492 269.012L141.234 269.88C140.898 270.272 140.478 270.571 139.974 270.776C139.48 270.981 138.924 271.084 138.308 271.084ZM147.581 271.084C146.787 271.084 146.087 270.921 145.481 270.594C144.883 270.267 144.417 269.819 144.081 269.25C143.754 268.681 143.591 268.027 143.591 267.29C143.591 266.553 143.749 265.899 144.067 265.33C144.393 264.761 144.837 264.317 145.397 264C145.966 263.673 146.605 263.51 147.315 263.51C148.033 263.51 148.668 263.669 149.219 263.986C149.769 264.303 150.199 264.751 150.507 265.33C150.824 265.899 150.983 266.567 150.983 267.332C150.983 267.388 150.978 267.453 150.969 267.528C150.969 267.603 150.964 267.673 150.955 267.738H144.641V266.772H150.255L149.709 267.108C149.718 266.632 149.62 266.207 149.415 265.834C149.209 265.461 148.925 265.171 148.561 264.966C148.206 264.751 147.791 264.644 147.315 264.644C146.848 264.644 146.433 264.751 146.069 264.966C145.705 265.171 145.42 265.465 145.215 265.848C145.009 266.221 144.907 266.651 144.907 267.136V267.36C144.907 267.855 145.019 268.298 145.243 268.69C145.476 269.073 145.798 269.371 146.209 269.586C146.619 269.801 147.091 269.908 147.623 269.908C148.061 269.908 148.458 269.833 148.813 269.684C149.177 269.535 149.494 269.311 149.765 269.012L150.507 269.88C150.171 270.272 149.751 270.571 149.247 270.776C148.752 270.981 148.197 271.084 147.581 271.084ZM167.291 263.51C167.888 263.51 168.415 263.627 168.873 263.86C169.33 264.093 169.685 264.448 169.937 264.924C170.198 265.4 170.329 266.002 170.329 266.73V271H168.985V266.884C168.985 266.165 168.817 265.624 168.481 265.26C168.145 264.896 167.673 264.714 167.067 264.714C166.619 264.714 166.227 264.807 165.891 264.994C165.555 265.181 165.293 265.456 165.107 265.82C164.929 266.184 164.841 266.637 164.841 267.178V271H163.497V266.884C163.497 266.165 163.329 265.624 162.993 265.26C162.666 264.896 162.195 264.714 161.579 264.714C161.14 264.714 160.753 264.807 160.417 264.994C160.081 265.181 159.819 265.456 159.633 265.82C159.446 266.184 159.353 266.637 159.353 267.178V271H158.009V263.58H159.297V265.554L159.087 265.05C159.32 264.565 159.679 264.187 160.165 263.916C160.65 263.645 161.215 263.51 161.859 263.51C162.568 263.51 163.179 263.687 163.693 264.042C164.206 264.387 164.542 264.915 164.701 265.624L164.155 265.4C164.379 264.831 164.771 264.373 165.331 264.028C165.891 263.683 166.544 263.51 167.291 263.51ZM176.68 271.084C175.933 271.084 175.27 270.921 174.692 270.594C174.113 270.267 173.656 269.819 173.32 269.25C172.984 268.671 172.816 268.018 172.816 267.29C172.816 266.553 172.984 265.899 173.32 265.33C173.656 264.761 174.113 264.317 174.692 264C175.27 263.673 175.933 263.51 176.68 263.51C177.417 263.51 178.075 263.673 178.654 264C179.242 264.317 179.699 264.761 180.026 265.33C180.362 265.89 180.53 266.543 180.53 267.29C180.53 268.027 180.362 268.681 180.026 269.25C179.699 269.819 179.242 270.267 178.654 270.594C178.075 270.921 177.417 271.084 176.68 271.084ZM176.68 269.908C177.156 269.908 177.58 269.801 177.954 269.586C178.336 269.371 178.635 269.068 178.85 268.676C179.064 268.275 179.172 267.813 179.172 267.29C179.172 266.758 179.064 266.301 178.85 265.918C178.635 265.526 178.336 265.223 177.954 265.008C177.58 264.793 177.156 264.686 176.68 264.686C176.204 264.686 175.779 264.793 175.406 265.008C175.032 265.223 174.734 265.526 174.51 265.918C174.286 266.301 174.174 266.758 174.174 267.29C174.174 267.813 174.286 268.275 174.51 268.676C174.734 269.068 175.032 269.371 175.406 269.586C175.779 269.801 176.204 269.908 176.68 269.908ZM183.088 271V263.58H184.376V265.596L184.25 265.092C184.456 264.579 184.801 264.187 185.286 263.916C185.772 263.645 186.369 263.51 187.078 263.51V264.812C187.022 264.803 186.966 264.798 186.91 264.798C186.864 264.798 186.817 264.798 186.77 264.798C186.052 264.798 185.482 265.013 185.062 265.442C184.642 265.871 184.432 266.492 184.432 267.304V271H183.088ZM192.671 271.084C191.877 271.084 191.177 270.921 190.571 270.594C189.973 270.267 189.507 269.819 189.171 269.25C188.844 268.681 188.681 268.027 188.681 267.29C188.681 266.553 188.839 265.899 189.157 265.33C189.483 264.761 189.927 264.317 190.487 264C191.056 263.673 191.695 263.51 192.405 263.51C193.123 263.51 193.758 263.669 194.309 263.986C194.859 264.303 195.289 264.751 195.597 265.33C195.914 265.899 196.073 266.567 196.073 267.332C196.073 267.388 196.068 267.453 196.059 267.528C196.059 267.603 196.054 267.673 196.045 267.738H189.731V266.772H195.345L194.799 267.108C194.808 266.632 194.71 266.207 194.505 265.834C194.299 265.461 194.015 265.171 193.651 264.966C193.296 264.751 192.881 264.644 192.405 264.644C191.938 264.644 191.523 264.751 191.159 264.966C190.795 265.171 190.51 265.465 190.305 265.848C190.099 266.221 189.997 266.651 189.997 267.136V267.36C189.997 267.855 190.109 268.298 190.333 268.69C190.566 269.073 190.888 269.371 191.299 269.586C191.709 269.801 192.181 269.908 192.713 269.908C193.151 269.908 193.548 269.833 193.903 269.684C194.267 269.535 194.584 269.311 194.855 269.012L195.597 269.88C195.261 270.272 194.841 270.571 194.337 270.776C193.842 270.981 193.287 271.084 192.671 271.084Z" fill="white"/>
<g clip-path="url(#clip0_938_61)">
<path d="M105.128 140.33L110.345 143.548L108.96 137.483L113.569 133.402L107.5 132.876L105.128 127.155L102.757 132.876L96.6881 133.402L101.297 137.483L99.9123 143.548L105.128 140.33Z" fill="white"/>
</g>
<g clip-path="url(#clip1_938_61)">
<path d="M132.288 140.33L137.504 143.548L136.12 137.483L140.728 133.402L134.659 132.876L132.288 127.155L129.916 132.876L123.847 133.402L128.456 137.483L127.072 143.548L132.288 140.33Z" fill="white"/>
</g>
<g clip-path="url(#clip2_938_61)">
<path d="M159.447 140.33L164.663 143.548L163.279 137.483L167.887 133.402L161.819 132.876L159.447 127.155L157.075 132.876L151.006 133.402L155.615 137.483L154.231 143.548L159.447 140.33Z" fill="white"/>
</g>
<g clip-path="url(#clip3_938_61)">
<path d="M186.606 140.33L191.822 143.548L190.438 137.483L195.046 133.402L188.978 132.876L186.606 127.155L184.234 132.876L178.166 133.402L182.774 137.483L181.39 143.548L186.606 140.33Z" fill="white"/>
</g>
<g clip-path="url(#clip4_938_61)">
<path d="M214.128 140.33L219.345 143.548L217.96 137.483L222.569 133.402L216.5 132.876L214.128 127.155L211.757 132.876L205.688 133.402L210.297 137.483L208.912 143.548L214.128 140.33Z" fill="white"/>
</g>
<defs>
<clipPath id="clip0_938_61">
<rect width="20.2569" height="20.707" fill="white" transform="translate(95 125.43)"/>
</clipPath>
<clipPath id="clip1_938_61">
<rect width="20.2569" height="20.707" fill="white" transform="translate(122.159 125.43)"/>
</clipPath>
<clipPath id="clip2_938_61">
<rect width="20.2569" height="20.707" fill="white" transform="translate(149.318 125.43)"/>
</clipPath>
<clipPath id="clip3_938_61">
<rect width="20.2569" height="20.707" fill="white" transform="translate(176.478 125.43)"/>
</clipPath>
<clipPath id="clip4_938_61">
<rect width="20.2569" height="20.707" fill="white" transform="translate(204 125.43)"/>
</clipPath>
</defs>
</svg>
