<svg width="320" height="320" viewBox="0 0 320 320" fill="none" xmlns="http://www.w3.org/2000/svg">
<rect width="320" height="320" fill="#F26522"/>
<g clip-path="url(#clip0_1117_309)">
<path d="M104.664 160.709L111.417 164.75L109.625 157.134L115.591 152.01L107.735 151.349L104.664 144.167L101.593 151.349L93.7363 152.01L99.7028 157.134L97.9106 164.75L104.664 160.709Z" fill="white"/>
</g>
<g clip-path="url(#clip1_1117_309)">
<path d="M132.397 160.709L139.15 164.75L137.358 157.134L143.325 152.01L135.468 151.349L132.397 144.167L129.327 151.349L121.47 152.01L127.436 157.134L125.644 164.75L132.397 160.709Z" fill="white"/>
</g>
<g clip-path="url(#clip2_1117_309)">
<path d="M160.13 160.709L166.884 164.75L165.092 157.134L171.058 152.01L163.201 151.349L160.13 144.167L157.06 151.349L149.203 152.01L155.169 157.134L153.377 164.75L160.13 160.709Z" fill="white"/>
</g>
<g clip-path="url(#clip3_1117_309)">
<path d="M187.864 160.709L194.617 164.75L192.825 157.134L198.791 152.01L190.934 151.349L187.864 144.167L184.793 151.349L176.936 152.01L182.903 157.134L181.111 164.75L187.864 160.709Z" fill="white"/>
</g>
<g clip-path="url(#clip4_1117_309)">
<path d="M215.597 160.709L222.35 164.75L220.558 157.134L226.525 152.01L218.668 151.349L215.597 144.167L212.527 151.349L204.67 152.01L210.636 157.134L208.844 164.75L215.597 160.709Z" fill="white"/>
</g>
<path d="M109.512 70.288C108.168 70.288 106.88 70.112 105.648 69.76C104.416 69.392 103.424 68.92 102.672 68.344L103.992 65.416C104.712 65.928 105.56 66.352 106.536 66.688C107.528 67.008 108.528 67.168 109.536 67.168C110.304 67.168 110.92 67.096 111.384 66.952C111.864 66.792 112.216 66.576 112.44 66.304C112.664 66.032 112.776 65.72 112.776 65.368C112.776 64.92 112.6 64.568 112.248 64.312C111.896 64.04 111.432 63.824 110.856 63.664C110.28 63.488 109.64 63.328 108.936 63.184C108.248 63.024 107.552 62.832 106.848 62.608C106.16 62.384 105.528 62.096 104.952 61.744C104.376 61.392 103.904 60.928 103.536 60.352C103.184 59.776 103.008 59.04 103.008 58.144C103.008 57.184 103.264 56.312 103.776 55.528C104.304 54.728 105.088 54.096 106.128 53.632C107.184 53.152 108.504 52.912 110.088 52.912C111.144 52.912 112.184 53.04 113.208 53.296C114.232 53.536 115.136 53.904 115.92 54.4L114.72 57.352C113.936 56.904 113.152 56.576 112.368 56.368C111.584 56.144 110.816 56.032 110.064 56.032C109.312 56.032 108.696 56.12 108.216 56.296C107.736 56.472 107.392 56.704 107.184 56.992C106.976 57.264 106.872 57.584 106.872 57.952C106.872 58.384 107.048 58.736 107.4 59.008C107.752 59.264 108.216 59.472 108.792 59.632C109.368 59.792 110 59.952 110.688 60.112C111.392 60.272 112.088 60.456 112.776 60.664C113.48 60.872 114.12 61.152 114.696 61.504C115.272 61.856 115.736 62.32 116.088 62.896C116.456 63.472 116.64 64.2 116.64 65.08C116.64 66.024 116.376 66.888 115.848 67.672C115.32 68.456 114.528 69.088 113.472 69.568C112.432 70.048 111.112 70.288 109.512 70.288ZM126.161 56.896C127.185 56.896 128.097 57.104 128.897 57.52C129.713 57.92 130.353 58.544 130.817 59.392C131.281 60.224 131.513 61.296 131.513 62.608V70H127.769V63.184C127.769 62.144 127.537 61.376 127.073 60.88C126.625 60.384 125.985 60.136 125.153 60.136C124.561 60.136 124.025 60.264 123.545 60.52C123.081 60.76 122.713 61.136 122.441 61.648C122.185 62.16 122.057 62.816 122.057 63.616V70H118.313V52.192H122.057V60.664L121.217 59.584C121.681 58.72 122.345 58.056 123.209 57.592C124.073 57.128 125.057 56.896 126.161 56.896ZM142.106 70V67.48L141.866 66.928V62.416C141.866 61.616 141.618 60.992 141.122 60.544C140.642 60.096 139.898 59.872 138.89 59.872C138.202 59.872 137.522 59.984 136.85 60.208C136.194 60.416 135.634 60.704 135.17 61.072L133.826 58.456C134.53 57.96 135.378 57.576 136.37 57.304C137.362 57.032 138.37 56.896 139.394 56.896C141.362 56.896 142.89 57.36 143.978 58.288C145.066 59.216 145.61 60.664 145.61 62.632V70H142.106ZM138.17 70.192C137.162 70.192 136.298 70.024 135.578 69.688C134.858 69.336 134.306 68.864 133.922 68.272C133.538 67.68 133.346 67.016 133.346 66.28C133.346 65.512 133.53 64.84 133.898 64.264C134.282 63.688 134.882 63.24 135.698 62.92C136.514 62.584 137.578 62.416 138.89 62.416H142.322V64.6H139.298C138.418 64.6 137.81 64.744 137.474 65.032C137.154 65.32 136.994 65.68 136.994 66.112C136.994 66.592 137.178 66.976 137.546 67.264C137.93 67.536 138.45 67.672 139.106 67.672C139.73 67.672 140.29 67.528 140.786 67.24C141.282 66.936 141.642 66.496 141.866 65.92L142.442 67.648C142.17 68.48 141.674 69.112 140.954 69.544C140.234 69.976 139.306 70.192 138.17 70.192ZM164.815 56.896C165.839 56.896 166.743 57.104 167.527 57.52C168.327 57.92 168.951 58.544 169.399 59.392C169.863 60.224 170.095 61.296 170.095 62.608V70H166.351V63.184C166.351 62.144 166.135 61.376 165.703 60.88C165.271 60.384 164.663 60.136 163.879 60.136C163.335 60.136 162.847 60.264 162.415 60.52C161.983 60.76 161.647 61.128 161.407 61.624C161.167 62.12 161.047 62.752 161.047 63.52V70H157.303V63.184C157.303 62.144 157.087 61.376 156.655 60.88C156.239 60.384 155.639 60.136 154.855 60.136C154.311 60.136 153.823 60.264 153.391 60.52C152.959 60.76 152.623 61.128 152.383 61.624C152.143 62.12 152.023 62.752 152.023 63.52V70H148.279V57.088H151.855V60.616L151.183 59.584C151.631 58.704 152.263 58.04 153.079 57.592C153.911 57.128 154.855 56.896 155.911 56.896C157.095 56.896 158.127 57.2 159.007 57.808C159.903 58.4 160.495 59.312 160.783 60.544L159.463 60.184C159.895 59.176 160.583 58.376 161.527 57.784C162.487 57.192 163.583 56.896 164.815 56.896ZM180.363 70.192C179.275 70.192 178.323 69.952 177.507 69.472C176.691 68.992 176.051 68.264 175.587 67.288C175.139 66.296 174.915 65.048 174.915 63.544C174.915 62.024 175.131 60.776 175.563 59.8C175.995 58.824 176.619 58.096 177.435 57.616C178.251 57.136 179.227 56.896 180.363 56.896C181.579 56.896 182.667 57.176 183.627 57.736C184.603 58.28 185.371 59.048 185.931 60.04C186.507 61.032 186.795 62.2 186.795 63.544C186.795 64.904 186.507 66.08 185.931 67.072C185.371 68.064 184.603 68.832 183.627 69.376C182.667 69.92 181.579 70.192 180.363 70.192ZM172.731 74.656V57.088H176.307V59.728L176.235 63.568L176.475 67.384V74.656H172.731ZM179.715 67.12C180.339 67.12 180.891 66.976 181.371 66.688C181.867 66.4 182.259 65.992 182.547 65.464C182.851 64.92 183.003 64.28 183.003 63.544C183.003 62.792 182.851 62.152 182.547 61.624C182.259 61.096 181.867 60.688 181.371 60.4C180.891 60.112 180.339 59.968 179.715 59.968C179.091 59.968 178.531 60.112 178.035 60.4C177.539 60.688 177.147 61.096 176.859 61.624C176.571 62.152 176.427 62.792 176.427 63.544C176.427 64.28 176.571 64.92 176.859 65.464C177.147 65.992 177.539 66.4 178.035 66.688C178.531 66.976 179.091 67.12 179.715 67.12ZM194.725 70.192C193.349 70.192 192.125 69.904 191.053 69.328C189.997 68.752 189.157 67.968 188.533 66.976C187.925 65.968 187.621 64.824 187.621 63.544C187.621 62.248 187.925 61.104 188.533 60.112C189.157 59.104 189.997 58.32 191.053 57.76C192.125 57.184 193.349 56.896 194.725 56.896C196.085 56.896 197.301 57.184 198.373 57.76C199.445 58.32 200.285 59.096 200.893 60.088C201.501 61.08 201.805 62.232 201.805 63.544C201.805 64.824 201.501 65.968 200.893 66.976C200.285 67.968 199.445 68.752 198.373 69.328C197.301 69.904 196.085 70.192 194.725 70.192ZM194.725 67.12C195.349 67.12 195.909 66.976 196.405 66.688C196.901 66.4 197.293 65.992 197.581 65.464C197.869 64.92 198.013 64.28 198.013 63.544C198.013 62.792 197.869 62.152 197.581 61.624C197.293 61.096 196.901 60.688 196.405 60.4C195.909 60.112 195.349 59.968 194.725 59.968C194.101 59.968 193.541 60.112 193.045 60.4C192.549 60.688 192.149 61.096 191.845 61.624C191.557 62.152 191.413 62.792 191.413 63.544C191.413 64.28 191.557 64.92 191.845 65.464C192.149 65.992 192.549 66.4 193.045 66.688C193.541 66.976 194.101 67.12 194.725 67.12ZM209.732 70.192C208.356 70.192 207.132 69.904 206.06 69.328C205.004 68.752 204.164 67.968 203.54 66.976C202.932 65.968 202.628 64.824 202.628 63.544C202.628 62.248 202.932 61.104 203.54 60.112C204.164 59.104 205.004 58.32 206.06 57.76C207.132 57.184 208.356 56.896 209.732 56.896C211.092 56.896 212.308 57.184 213.38 57.76C214.452 58.32 215.292 59.096 215.9 60.088C216.508 61.08 216.812 62.232 216.812 63.544C216.812 64.824 216.508 65.968 215.9 66.976C215.292 67.968 214.452 68.752 213.38 69.328C212.308 69.904 211.092 70.192 209.732 70.192ZM209.732 67.12C210.356 67.12 210.916 66.976 211.412 66.688C211.908 66.4 212.3 65.992 212.588 65.464C212.876 64.92 213.02 64.28 213.02 63.544C213.02 62.792 212.876 62.152 212.588 61.624C212.3 61.096 211.908 60.688 211.412 60.4C210.916 60.112 210.356 59.968 209.732 59.968C209.108 59.968 208.548 60.112 208.052 60.4C207.556 60.688 207.156 61.096 206.852 61.624C206.564 62.152 206.42 62.792 206.42 63.544C206.42 64.28 206.564 64.92 206.852 65.464C207.156 65.992 207.556 66.4 208.052 66.688C208.548 66.976 209.108 67.12 209.732 67.12Z" fill="white"/>
<path d="M129.07 272.06C128.55 272.06 128.05 271.977 127.57 271.81C127.097 271.637 126.73 271.417 126.47 271.15L126.76 270.58C127.007 270.82 127.337 271.023 127.75 271.19C128.17 271.35 128.61 271.43 129.07 271.43C129.51 271.43 129.867 271.377 130.14 271.27C130.42 271.157 130.623 271.007 130.75 270.82C130.883 270.633 130.95 270.427 130.95 270.2C130.95 269.927 130.87 269.707 130.71 269.54C130.557 269.373 130.353 269.243 130.1 269.15C129.847 269.05 129.567 268.963 129.26 268.89C128.953 268.817 128.647 268.74 128.34 268.66C128.033 268.573 127.75 268.46 127.49 268.32C127.237 268.18 127.03 267.997 126.87 267.77C126.717 267.537 126.64 267.233 126.64 266.86C126.64 266.513 126.73 266.197 126.91 265.91C127.097 265.617 127.38 265.383 127.76 265.21C128.14 265.03 128.627 264.94 129.22 264.94C129.613 264.94 130.003 264.997 130.39 265.11C130.777 265.217 131.11 265.367 131.39 265.56L131.14 266.15C130.84 265.95 130.52 265.803 130.18 265.71C129.847 265.617 129.523 265.57 129.21 265.57C128.79 265.57 128.443 265.627 128.17 265.74C127.897 265.853 127.693 266.007 127.56 266.2C127.433 266.387 127.37 266.6 127.37 266.84C127.37 267.113 127.447 267.333 127.6 267.5C127.76 267.667 127.967 267.797 128.22 267.89C128.48 267.983 128.763 268.067 129.07 268.14C129.377 268.213 129.68 268.293 129.98 268.38C130.287 268.467 130.567 268.58 130.82 268.72C131.08 268.853 131.287 269.033 131.44 269.26C131.6 269.487 131.68 269.783 131.68 270.15C131.68 270.49 131.587 270.807 131.4 271.1C131.213 271.387 130.927 271.62 130.54 271.8C130.16 271.973 129.67 272.06 129.07 272.06ZM135.952 268.13H139.652V268.76H135.952V268.13ZM136.032 271.36H140.242V272H135.292V265H140.092V265.64H136.032V271.36ZM144.642 268.13H148.342V268.76H144.642V268.13ZM144.722 271.36H148.932V272H143.982V265H148.782V265.64H144.722V271.36ZM157.288 272V265H157.898L161.098 270.46H160.778L163.948 265H164.558V272H163.848V266.11H164.018L161.098 271.11H160.748L157.808 266.11H157.998V272H157.288ZM171.899 272.06C171.373 272.06 170.883 271.973 170.429 271.8C169.983 271.62 169.593 271.37 169.259 271.05C168.933 270.723 168.676 270.347 168.489 269.92C168.309 269.487 168.219 269.013 168.219 268.5C168.219 267.987 168.309 267.517 168.489 267.09C168.676 266.657 168.933 266.28 169.259 265.96C169.593 265.633 169.983 265.383 170.429 265.21C170.876 265.03 171.366 264.94 171.899 264.94C172.426 264.94 172.913 265.03 173.359 265.21C173.806 265.383 174.193 265.63 174.519 265.95C174.853 266.27 175.109 266.647 175.289 267.08C175.476 267.513 175.569 267.987 175.569 268.5C175.569 269.013 175.476 269.487 175.289 269.92C175.109 270.353 174.853 270.73 174.519 271.05C174.193 271.37 173.806 271.62 173.359 271.8C172.913 271.973 172.426 272.06 171.899 272.06ZM171.899 271.4C172.319 271.4 172.706 271.33 173.059 271.19C173.419 271.043 173.729 270.84 173.989 270.58C174.256 270.313 174.463 270.007 174.609 269.66C174.756 269.307 174.829 268.92 174.829 268.5C174.829 268.08 174.756 267.697 174.609 267.35C174.463 266.997 174.256 266.69 173.989 266.43C173.729 266.163 173.419 265.96 173.059 265.82C172.706 265.673 172.319 265.6 171.899 265.6C171.479 265.6 171.089 265.673 170.729 265.82C170.369 265.96 170.056 266.163 169.789 266.43C169.529 266.69 169.323 266.997 169.169 267.35C169.023 267.697 168.949 268.08 168.949 268.5C168.949 268.913 169.023 269.297 169.169 269.65C169.323 270.003 169.529 270.313 169.789 270.58C170.056 270.84 170.369 271.043 170.729 271.19C171.089 271.33 171.479 271.4 171.899 271.4ZM179.228 272V265H181.848C182.441 265 182.951 265.097 183.378 265.29C183.805 265.477 184.131 265.75 184.358 266.11C184.591 266.463 184.708 266.893 184.708 267.4C184.708 267.893 184.591 268.32 184.358 268.68C184.131 269.033 183.805 269.307 183.378 269.5C182.951 269.687 182.441 269.78 181.848 269.78H179.638L179.968 269.44V272H179.228ZM184.008 272L182.208 269.46H183.008L184.818 272H184.008ZM179.968 269.5L179.638 269.15H181.828C182.528 269.15 183.058 268.997 183.418 268.69C183.785 268.383 183.968 267.953 183.968 267.4C183.968 266.84 183.785 266.407 183.418 266.1C183.058 265.793 182.528 265.64 181.828 265.64H179.638L179.968 265.29V269.5ZM189.114 268.13H192.814V268.76H189.114V268.13ZM189.194 271.36H193.404V272H188.454V265H193.254V265.64H189.194V271.36Z" fill="white"/>
<path d="M64.365 111V101.9H67.914C68.7113 101.9 69.3917 102.026 69.955 102.277C70.5183 102.528 70.9517 102.892 71.255 103.369C71.5583 103.846 71.71 104.413 71.71 105.072C71.71 105.731 71.5583 106.298 71.255 106.775C70.9517 107.243 70.5183 107.607 69.955 107.867C69.3917 108.118 68.7113 108.244 67.914 108.244H65.08L65.665 107.633V111H64.365ZM65.665 107.763L65.08 107.113H67.875C68.707 107.113 69.3353 106.935 69.76 106.58C70.1933 106.225 70.41 105.722 70.41 105.072C70.41 104.422 70.1933 103.919 69.76 103.564C69.3353 103.209 68.707 103.031 67.875 103.031H65.08L65.665 102.381V107.763ZM73.7349 111L77.8559 101.9H79.1429L83.2769 111H81.9119L78.2329 102.628H78.7529L75.0739 111H73.7349ZM75.4899 108.725L75.8409 107.685H80.9629L81.3399 108.725H75.4899ZM86.5843 111V101.9H87.6503L93.6693 109.375H93.1103V101.9H94.4103V111H93.3443L87.3253 103.525H87.8843V111H86.5843ZM100.891 111V103.031H97.7711V101.9H105.298V103.031H102.178V111H100.891ZM115.19 101.9H116.49V111H115.19V101.9ZM109.964 111H108.664V101.9H109.964V111ZM115.307 106.944H109.834V105.813H115.307V106.944ZM122.347 105.826H127.027V106.931H122.347V105.826ZM122.464 109.869H127.768V111H121.164V101.9H127.586V103.031H122.464V109.869ZM131.823 111V101.9H132.889L138.908 109.375H138.349V101.9H139.649V111H138.583L132.564 103.525H133.123V111H131.823ZM148.431 111.104C147.737 111.104 147.092 110.987 146.494 110.753C145.904 110.519 145.393 110.194 144.96 109.778C144.526 109.353 144.188 108.859 143.946 108.296C143.703 107.733 143.582 107.117 143.582 106.45C143.582 105.783 143.703 105.167 143.946 104.604C144.188 104.041 144.526 103.551 144.96 103.135C145.393 102.71 145.904 102.381 146.494 102.147C147.083 101.913 147.729 101.796 148.431 101.796C149.124 101.796 149.761 101.913 150.342 102.147C150.931 102.372 151.442 102.697 151.876 103.122C152.318 103.538 152.656 104.028 152.89 104.591C153.132 105.154 153.254 105.774 153.254 106.45C153.254 107.126 153.132 107.746 152.89 108.309C152.656 108.872 152.318 109.366 151.876 109.791C151.442 110.207 150.931 110.532 150.342 110.766C149.761 110.991 149.124 111.104 148.431 111.104ZM148.431 109.947C148.933 109.947 149.397 109.86 149.822 109.687C150.255 109.514 150.628 109.271 150.94 108.959C151.26 108.638 151.507 108.266 151.681 107.841C151.863 107.416 151.954 106.953 151.954 106.45C151.954 105.947 151.863 105.484 151.681 105.059C151.507 104.634 151.26 104.266 150.94 103.954C150.628 103.633 150.255 103.386 149.822 103.213C149.397 103.04 148.933 102.953 148.431 102.953C147.919 102.953 147.447 103.04 147.014 103.213C146.589 103.386 146.216 103.633 145.896 103.954C145.575 104.266 145.324 104.634 145.142 105.059C144.968 105.484 144.882 105.947 144.882 106.45C144.882 106.953 144.968 107.416 145.142 107.841C145.324 108.266 145.575 108.638 145.896 108.959C146.216 109.271 146.589 109.514 147.014 109.687C147.447 109.86 147.919 109.947 148.431 109.947ZM157.191 111V101.9H158.491V109.869H163.418V111H157.191ZM174.173 109.297V103.603H175.265V109.297H174.173ZM171.807 106.97V105.943H177.631V106.97H171.807ZM188.402 108.803L188.337 107.217L193.498 101.9H194.98L190.989 106.112L190.261 106.918L188.402 108.803ZM187.258 111V101.9H188.558V111H187.258ZM193.706 111L189.975 106.658L190.846 105.696L195.227 111H193.706ZM199.735 105.826H204.415V106.931H199.735V105.826ZM199.852 109.869H205.156V111H198.552V101.9H204.974V103.031H199.852V109.869ZM209.211 111V101.9H212.76C213.557 101.9 214.238 102.026 214.801 102.277C215.364 102.528 215.798 102.892 216.101 103.369C216.404 103.846 216.556 104.413 216.556 105.072C216.556 105.731 216.404 106.298 216.101 106.775C215.798 107.243 215.364 107.603 214.801 107.854C214.238 108.105 213.557 108.231 212.76 108.231H209.926L210.511 107.633V111H209.211ZM215.295 111L212.981 107.698H214.372L216.712 111H215.295ZM210.511 107.763L209.926 107.126H212.721C213.553 107.126 214.181 106.948 214.606 106.593C215.039 106.229 215.256 105.722 215.256 105.072C215.256 104.422 215.039 103.919 214.606 103.564C214.181 103.209 213.553 103.031 212.721 103.031H209.926L210.511 102.381V107.763ZM222.286 111V103.031H219.166V101.9H226.693V103.031H223.573V111H222.286ZM228.224 111L232.345 101.9H233.632L237.766 111H236.401L232.722 102.628H233.242L229.563 111H228.224ZM229.979 108.725L230.33 107.685H235.452L235.829 108.725H229.979ZM241.074 111V101.9H242.374V111H241.074ZM247.048 111V101.9H248.114L254.133 109.375H253.574V101.9H254.874V111H253.808L247.789 103.525H248.348V111H247.048Z" fill="#E6F614"/>
<path d="M115.222 209V199.9H116.912V209H115.222ZM121.323 209V199.9H125.301C126.289 199.9 127.156 200.091 127.901 200.472C128.647 200.853 129.227 201.382 129.643 202.058C130.059 202.734 130.267 203.531 130.267 204.45C130.267 205.36 130.059 206.157 129.643 206.842C129.227 207.518 128.647 208.047 127.901 208.428C127.156 208.809 126.289 209 125.301 209H121.323ZM123.013 207.57H125.223C125.908 207.57 126.497 207.44 126.991 207.18C127.494 206.92 127.88 206.556 128.148 206.088C128.426 205.62 128.564 205.074 128.564 204.45C128.564 203.817 128.426 203.271 128.148 202.812C127.88 202.344 127.494 201.98 126.991 201.72C126.497 201.46 125.908 201.33 125.223 201.33H123.013V207.57ZM134.014 209V199.9H137.758C138.564 199.9 139.253 200.03 139.825 200.29C140.405 200.55 140.852 200.923 141.164 201.408C141.476 201.893 141.632 202.47 141.632 203.137C141.632 203.804 141.476 204.381 141.164 204.866C140.852 205.343 140.405 205.711 139.825 205.971C139.253 206.222 138.564 206.348 137.758 206.348H134.95L135.704 205.581V209H134.014ZM139.968 209L137.667 205.698H139.474L141.788 209H139.968ZM135.704 205.763L134.95 204.957H137.68C138.425 204.957 138.984 204.797 139.357 204.476C139.738 204.155 139.929 203.709 139.929 203.137C139.929 202.556 139.738 202.11 139.357 201.798C138.984 201.486 138.425 201.33 137.68 201.33H134.95L135.704 200.498V205.763ZM153.433 199.77C154.265 199.77 154.971 199.948 155.552 200.303C156.141 200.65 156.592 201.157 156.904 201.824C157.216 202.491 157.372 203.315 157.372 204.294C157.372 205.334 157.181 206.214 156.8 206.933C156.427 207.652 155.907 208.198 155.24 208.571C154.573 208.944 153.797 209.13 152.913 209.13C152.454 209.13 152.016 209.082 151.6 208.987C151.184 208.892 150.824 208.744 150.521 208.545L151.145 207.271C151.396 207.436 151.669 207.553 151.964 207.622C152.259 207.683 152.562 207.713 152.874 207.713C153.732 207.713 154.412 207.449 154.915 206.92C155.418 206.391 155.669 205.611 155.669 204.58C155.669 204.415 155.665 204.225 155.656 204.008C155.647 203.783 155.617 203.557 155.565 203.332L156.085 203.904C155.938 204.259 155.725 204.558 155.448 204.801C155.171 205.035 154.846 205.213 154.473 205.334C154.1 205.455 153.689 205.516 153.238 205.516C152.649 205.516 152.116 205.403 151.639 205.178C151.171 204.944 150.798 204.619 150.521 204.203C150.244 203.778 150.105 203.284 150.105 202.721C150.105 202.114 150.252 201.594 150.547 201.161C150.842 200.719 151.24 200.377 151.743 200.134C152.254 199.891 152.818 199.77 153.433 199.77ZM153.524 201.096C153.177 201.096 152.87 201.161 152.601 201.291C152.332 201.412 152.12 201.59 151.964 201.824C151.817 202.049 151.743 202.322 151.743 202.643C151.743 203.12 151.908 203.497 152.237 203.774C152.566 204.051 153.008 204.19 153.563 204.19C153.927 204.19 154.248 204.125 154.525 203.995C154.802 203.856 155.019 203.67 155.175 203.436C155.331 203.193 155.409 202.925 155.409 202.63C155.409 202.344 155.335 202.088 155.188 201.863C155.041 201.629 154.828 201.443 154.551 201.304C154.274 201.165 153.931 201.096 153.524 201.096ZM164.119 209.13C163.365 209.13 162.71 209.017 162.156 208.792C161.601 208.567 161.172 208.25 160.869 207.843C160.565 207.427 160.414 206.942 160.414 206.387C160.414 205.832 160.561 205.364 160.856 204.983C161.15 204.602 161.575 204.311 162.13 204.112C162.684 203.913 163.347 203.813 164.119 203.813C164.89 203.813 165.553 203.913 166.108 204.112C166.671 204.311 167.1 204.606 167.395 204.996C167.698 205.377 167.85 205.841 167.85 206.387C167.85 206.942 167.694 207.427 167.382 207.843C167.078 208.25 166.645 208.567 166.082 208.792C165.527 209.017 164.873 209.13 164.119 209.13ZM164.119 207.804C164.743 207.804 165.237 207.674 165.601 207.414C165.965 207.154 166.147 206.794 166.147 206.335C166.147 205.884 165.965 205.529 165.601 205.269C165.237 205.009 164.743 204.879 164.119 204.879C163.495 204.879 163.005 205.009 162.65 205.269C162.294 205.529 162.117 205.884 162.117 206.335C162.117 206.794 162.294 207.154 162.65 207.414C163.005 207.674 163.495 207.804 164.119 207.804ZM164.119 204.697C163.417 204.697 162.814 204.606 162.312 204.424C161.809 204.233 161.419 203.96 161.142 203.605C160.873 203.241 160.739 202.808 160.739 202.305C160.739 201.785 160.877 201.339 161.155 200.966C161.441 200.585 161.839 200.29 162.351 200.082C162.862 199.874 163.451 199.77 164.119 199.77C164.795 199.77 165.388 199.874 165.9 200.082C166.411 200.29 166.81 200.585 167.096 200.966C167.382 201.339 167.525 201.785 167.525 202.305C167.525 202.808 167.386 203.241 167.109 203.605C166.84 203.96 166.45 204.233 165.939 204.424C165.427 204.606 164.821 204.697 164.119 204.697ZM164.119 203.657C164.656 203.657 165.081 203.544 165.393 203.319C165.705 203.085 165.861 202.773 165.861 202.383C165.861 201.976 165.7 201.659 165.38 201.434C165.059 201.209 164.639 201.096 164.119 201.096C163.599 201.096 163.183 201.209 162.871 201.434C162.559 201.659 162.403 201.976 162.403 202.383C162.403 202.773 162.554 203.085 162.858 203.319C163.17 203.544 163.59 203.657 164.119 203.657ZM171.088 210.963L171.842 208.09L172.063 209.052C171.76 209.052 171.504 208.961 171.296 208.779C171.097 208.588 170.997 208.333 170.997 208.012C170.997 207.683 171.097 207.423 171.296 207.232C171.504 207.033 171.755 206.933 172.05 206.933C172.353 206.933 172.605 207.033 172.804 207.232C173.003 207.431 173.103 207.691 173.103 208.012C173.103 208.099 173.094 208.194 173.077 208.298C173.06 208.393 173.029 208.506 172.986 208.636C172.951 208.766 172.891 208.931 172.804 209.13L172.141 210.963H171.088ZM179.79 209.13C179.071 209.13 178.421 208.948 177.84 208.584C177.268 208.22 176.818 207.691 176.488 206.998C176.159 206.296 175.994 205.447 175.994 204.45C175.994 203.453 176.159 202.608 176.488 201.915C176.818 201.213 177.268 200.68 177.84 200.316C178.421 199.952 179.071 199.77 179.79 199.77C180.518 199.77 181.168 199.952 181.74 200.316C182.312 200.68 182.763 201.213 183.092 201.915C183.43 202.608 183.599 203.453 183.599 204.45C183.599 205.447 183.43 206.296 183.092 206.998C182.763 207.691 182.312 208.22 181.74 208.584C181.168 208.948 180.518 209.13 179.79 209.13ZM179.79 207.661C180.215 207.661 180.583 207.548 180.895 207.323C181.207 207.089 181.45 206.734 181.623 206.257C181.805 205.78 181.896 205.178 181.896 204.45C181.896 203.713 181.805 203.111 181.623 202.643C181.45 202.166 181.207 201.815 180.895 201.59C180.583 201.356 180.215 201.239 179.79 201.239C179.383 201.239 179.019 201.356 178.698 201.59C178.386 201.815 178.139 202.166 177.957 202.643C177.784 203.111 177.697 203.713 177.697 204.45C177.697 205.178 177.784 205.78 177.957 206.257C178.139 206.734 178.386 207.089 178.698 207.323C179.019 207.548 179.383 207.661 179.79 207.661ZM190.488 209.13C189.768 209.13 189.118 208.948 188.538 208.584C187.966 208.22 187.515 207.691 187.186 206.998C186.856 206.296 186.692 205.447 186.692 204.45C186.692 203.453 186.856 202.608 187.186 201.915C187.515 201.213 187.966 200.68 188.538 200.316C189.118 199.952 189.768 199.77 190.488 199.77C191.216 199.77 191.866 199.952 192.438 200.316C193.01 200.68 193.46 201.213 193.79 201.915C194.128 202.608 194.297 203.453 194.297 204.45C194.297 205.447 194.128 206.296 193.79 206.998C193.46 207.691 193.01 208.22 192.438 208.584C191.866 208.948 191.216 209.13 190.488 209.13ZM190.488 207.661C190.912 207.661 191.281 207.548 191.593 207.323C191.905 207.089 192.147 206.734 192.321 206.257C192.503 205.78 192.594 205.178 192.594 204.45C192.594 203.713 192.503 203.111 192.321 202.643C192.147 202.166 191.905 201.815 191.593 201.59C191.281 201.356 190.912 201.239 190.488 201.239C190.08 201.239 189.716 201.356 189.396 201.59C189.084 201.815 188.837 202.166 188.655 202.643C188.481 203.111 188.395 203.713 188.395 204.45C188.395 205.178 188.481 205.78 188.655 206.257C188.837 206.734 189.084 207.089 189.396 207.323C189.716 207.548 190.08 207.661 190.488 207.661ZM201.185 209.13C200.465 209.13 199.815 208.948 199.235 208.584C198.663 208.22 198.212 207.691 197.883 206.998C197.553 206.296 197.389 205.447 197.389 204.45C197.389 203.453 197.553 202.608 197.883 201.915C198.212 201.213 198.663 200.68 199.235 200.316C199.815 199.952 200.465 199.77 201.185 199.77C201.913 199.77 202.563 199.952 203.135 200.316C203.707 200.68 204.157 201.213 204.487 201.915C204.825 202.608 204.994 203.453 204.994 204.45C204.994 205.447 204.825 206.296 204.487 206.998C204.157 207.691 203.707 208.22 203.135 208.584C202.563 208.948 201.913 209.13 201.185 209.13ZM201.185 207.661C201.609 207.661 201.978 207.548 202.29 207.323C202.602 207.089 202.844 206.734 203.018 206.257C203.2 205.78 203.291 205.178 203.291 204.45C203.291 203.713 203.2 203.111 203.018 202.643C202.844 202.166 202.602 201.815 202.29 201.59C201.978 201.356 201.609 201.239 201.185 201.239C200.777 201.239 200.413 201.356 200.093 201.59C199.781 201.815 199.534 202.166 199.352 202.643C199.178 203.111 199.092 203.713 199.092 204.45C199.092 205.178 199.178 205.78 199.352 206.257C199.534 206.734 199.781 207.089 200.093 207.323C200.413 207.548 200.777 207.661 201.185 207.661Z" fill="#E6F614"/>
<defs>
<clipPath id="clip0_1117_309">
<rect width="26.2261" height="26" fill="white" transform="translate(91.5508 142)"/>
</clipPath>
<clipPath id="clip1_1117_309">
<rect width="26.2261" height="26" fill="white" transform="translate(119.284 142)"/>
</clipPath>
<clipPath id="clip2_1117_309">
<rect width="26.2261" height="26" fill="white" transform="translate(147.017 142)"/>
</clipPath>
<clipPath id="clip3_1117_309">
<rect width="26.2261" height="26" fill="white" transform="translate(174.751 142)"/>
</clipPath>
<clipPath id="clip4_1117_309">
<rect width="26.2261" height="26" fill="white" transform="translate(202.484 142)"/>
</clipPath>
</defs>
</svg>
