<svg width="1208" height="1102" viewBox="0 0 1208 1102" fill="none" xmlns="http://www.w3.org/2000/svg">
<mask id="mask0_677_160" style="mask-type:luminance" maskUnits="userSpaceOnUse" x="0" y="0" width="1208" height="1102">
<path d="M1208 0L0 0L0 1102L1208 1102L1208 0Z" fill="white"/>
</mask>
<g mask="url(#mask0_677_160)">
<path d="M4125.64 194.209C4125.64 225.341 4119.36 230.534 4082.86 243.423C4066.08 249.245 4049.87 255.526 4034.31 262.24C3992.7 280.19 3974.93 300.994 3985.26 319.296C3998.72 342.837 4056 359.212 4112.54 345.779L4123.9 343.102V453.315H4115.19C4003.09 453.874 3981.04 465.835 3927.82 494.761C3894.89 513.142 3859.59 530.275 3822.18 546.035C3664.21 612.36 3517.06 719.542 3475.78 768.285C3430.38 821.81 3468.43 903.496 3521.15 1016.53C3601.01 1187.91 3710.35 1422.61 3628.39 1745.62C3562.08 2006.26 3454.5 2139.78 3383.24 2228.2C3317.86 2309.23 3288.05 2346.21 3347.65 2406.93C3353.95 2413.33 3366.38 2423.81 3378.43 2433.95C3393.52 2446.61 3409.08 2459.71 3415.9 2467.51C3432.48 2486.37 3436.49 2506.2 3427.56 2523.41C3418.28 2541.22 3396.26 2554.31 3367.16 2559.58C3266.11 2577.59 3220.71 2511.69 3162.93 2428.25L3150.05 2409.67C3096.89 2333.49 3164.39 2251.43 3257.82 2137.85C3436.32 1920.87 3706.01 1592.95 3371.36 995.451L3369.78 992.64C3269.81 814.071 3197.52 685.055 3711.87 464.452L3723.45 459.48C3802.78 425.478 3829.5 414.032 3850.94 393.272C3863.77 380.811 3863.68 366.789 3850.78 355.843C3816.98 327.109 3712.87 327.786 3564.15 397.215C3392.83 477.12 3303.74 548.124 3238.56 599.972C3143.14 675.904 3090.59 717.673 2905.12 704.226C2830.21 698.768 2802.88 725.898 2776.27 752.16C2772.07 756.309 2767.98 760.385 2763.75 764.225C2528.74 978.913 2207.82 997.672 1994.06 921.019C1858.49 872.467 1838.51 784.337 1819.2 699.165C1804.97 636.371 1790.24 571.429 1730.55 519.257C1687.28 481.401 1659.87 479.533 1647.38 481.828C1630.14 484.962 1623.2 498.601 1620.61 506.457C1613.37 528.394 1630.25 566.544 1649.76 610.756C1686.2 693.221 1731.52 795.843 1658.54 872.643C1591.56 943.147 1438.73 977.104 1191.34 976.456C1068.02 976.118 1004.21 994.538 936.679 1014.02C878.403 1030.82 818.164 1048.2 717.03 1054.08C439.077 1070.26 208.762 1057.3 -11.7987 941.734C-56.6183 918.194 -78.8346 887.43 -72.5897 857.195C-68.0028 834.655 -47.1127 816.44 -18.0712 809.687C25.2285 799.638 76.0167 815.16 121.334 852.281C227.746 939.527 349.77 935.732 592.906 928.169C621.892 927.257 652.536 926.301 684.921 925.462C797.855 922.519 868.952 898.979 926.068 879.985L934.551 877.16C1008.88 852.604 1112.06 851.104 1211.87 849.662C1336.82 847.837 1454.84 846.101 1507.76 801.639C1530.41 782.513 1539.62 756.736 1536 722.779C1532.24 687.969 1513.42 573.121 1429.09 556.525C1377.5 546.373 1314.22 538.266 1247.24 529.704C1063.07 506.163 833.832 476.738 645.103 382.267C584.312 351.768 552.618 341.071 495.281 321.709C409.345 292.681 265.519 244.085 -118.155 82.6858C-231.475 34.9577 -273.559 -29.2636 -307.906 -124.087C-442.641 -496.099 -523.438 -492.186 -532.253 -490.435C-545.903 -487.831 -552.314 -470.558 -548.611 -457.993C-537.558 -421.211 -522.333 -390.888 -504.648 -355.798C-482.349 -311.66 -457.093 -261.475 -432.804 -183.762C-423.934 -155.204 -416.225 -129.575 -409.206 -106.476C-346.591 100.974 -346.591 100.974 -131.585 173.213C-63.9684 195.93 28.6826 227.033 150.403 273.893C400.972 370.32 474.474 381.855 509.788 387.387C531.894 390.859 541.924 392.434 567.816 408.676C585.887 420.035 593.182 436.086 587.324 451.608C580.278 470.073 555.685 483.638 523.328 486.992C450.075 494.481 279.141 430.613 81.2115 356.637C-37.6073 312.19 -160.737 266.213 -271.625 232.506C-450.129 178.186 -476.96 81.097 -513.96 -53.2746L-517.082 -64.5444C-567.871 -247.821 -610.839 -322.459 -639.272 -371.85C-661.544 -410.559 -675.001 -433.923 -676.852 -480.533C-677.958 -508.708 -681.909 -513.592 -712.774 -551.522C-730.127 -572.914 -756.35 -605.224 -794.815 -657.66C-841.347 -721.087 -918.607 -754.323 -1031.04 -759.281L-1039.33 -759.634V-872.569L-1029.25 -871.363C-877.269 -853.325 -696.416 -790.722 -643.997 -669.121C-607.827 -585.111 -571.242 -578.888 -560.907 -578.991C-545.184 -579.123 -531.147 -591.026 -523.272 -610.814C-520.84 -616.95 -518.74 -623.614 -516.557 -630.603C-504.897 -667.841 -490.39 -714.186 -410.09 -744.98C-312.548 -782.38 -155.68 -790.045 -25.1727 -722.911C110.225 -653.128 149.215 -560.556 213.929 -407.278C219.898 -393.095 226.124 -378.382 232.609 -363.14C280.799 -250.337 425.703 -173.993 542.09 -112.655C622.611 -70.268 686.193 -36.7814 691.995 -3.10395C693.99 8.35493 688.99 19.8505 677.737 29.6757C636.952 66.1781 581.77 32.6184 552.121 14.6688C477.514 -30.5876 418.242 -65.0007 370.549 -92.6607C163.943 -212.452 163.943 -212.452 44.0185 -442.721L27.1628 -475.089C-37.6073 -599.191 -112.27 -679.729 -266.32 -669.709C-337.694 -665.031 -360.407 -634.752 -392.019 -571.531C-401.801 -552.022 -394.782 -542.856 -371.405 -512.445C-333.908 -463.584 -264.137 -372.674 -179.637 -126.971C-147.777 -34.2806 -79.0833 -7.28246 -12.6 18.8768L1.43715 24.4825C122.411 72.9168 204.23 107.153 263.944 132.165C360.657 172.596 409.013 192.884 495.53 220.736C599.759 254.31 663.451 280.882 719.628 304.348C772.267 326.3 817.722 345.265 882.658 363.861C1033.97 407.146 1140.74 410.398 1234.97 413.267C1299.24 415.224 1359.95 417.063 1424.94 431.555C1443.95 435.792 1462.52 439.691 1480.84 440.632C1505.3 441.912 1522.73 435.762 1531.19 422.845C1544.37 402.718 1533.78 369.482 1506.48 345.529C1489.9 331.067 1443.18 299.567 1364.65 319.311C1157.41 371.394 912.446 299.64 816.7 266.345C813.273 265.154 453.391 137.094 451.153 136.093L382.376 105.638C70.131 -32.5737 -35.1479 -79.1247 -98.4258 -210.922C-191.685 -404.6 -223.821 -463.569 -272.509 -509.561C-301.606 -537.06 -293.952 -558.775 -286.795 -569.28C-273.476 -588.863 -241.699 -600.957 -207.684 -599.397C-168.004 -597.558 -136.365 -578.461 -120.974 -547.005C-83.2834 -469.984 -55.0984 -408.705 -32.5505 -359.432C62.3111 -153.13 62.3111 -153.13 279.694 -50.332C321.916 -30.3668 374.445 -5.51716 436.922 25.2619C512.358 62.4558 576.741 82.7596 638.997 102.401C677.875 114.672 714.626 126.251 752.731 141.434C1054.89 261.829 1269.45 252.5 1339.75 216.866C1353.98 209.627 1370.56 197.151 1368.57 179.305C1353.65 50.0679 1128.17 -188.176 978.956 -345.808C915.651 -412.678 865.664 -465.496 848.173 -492.332C796.031 -572.443 775.528 -642.212 757.456 -703.77C733.775 -784.41 713.245 -854.046 632.669 -928.801C473.341 -1076.43 374.279 -1143.83 237.168 -1237.12C183.202 -1273.83 122.052 -1315.44 49.0199 -1367.55C6.24517 -1398.05 -18.5686 -1393.67 -180.052 -1365.18C-242.501 -1354.18 -328.05 -1339.08 -442.033 -1321.51C-667.955 -1286.67 -864.807 -1377.88 -1008.3 -1444.48L-1039.33 -1458.81V-1462.55C-1039.33 -1672.62 -1039.61 -1850.26 -1039.86 -1991.96C-1040.08 -2120.11 -1040.24 -2218.86 -1040.08 -2285.55C-1040.08 -2346.95 -1039.89 -2373.42 -1038.01 -2384.83C-1038.01 -2385.01 -1038.01 -2385.16 -1038.01 -2385.28H-1037.87C-1036.43 -2393.47 -1033.97 -2393.49 -1029.74 -2393.53C-1025.52 -2393.57 -1023.47 -2393.53 -1021.7 -2385.5L-1021.21 -2385.41C-1021.21 -2385.07 -1021.21 -2384.57 -1021.37 -2383.94C-1018.61 -2369.22 -1017.48 -2332.03 -1014.46 -2238.47C-1011.26 -2137.92 -1006.81 -1984.96 -1000.65 -1775.28L-998.934 -1716.43C-998.354 -1695.92 -998.216 -1677.97 -998.105 -1662.14C-997.497 -1575.34 -997.359 -1557.18 -928.582 -1531.2C-630.955 -1418.85 -574.309 -1426.34 -259.881 -1467.94C-210.779 -1474.42 -155.459 -1481.75 -92.0428 -1489.55C-32.8821 -1496.9 -11.329 -1513.34 48.3291 -1811.14C51.5897 -1827.43 54.4911 -1843.4 53.6898 -1858.87C52.5016 -1883.97 29.5392 -1896.75 7.43339 -1896.43C-20.1989 -1896.02 -47.8312 -1875.4 -47.8312 -1830.22V-1828.9C-47.8312 -1723.78 -117.216 -1596.1 -269.995 -1563.29C-382.292 -1539.16 -558.393 -1530.21 -698.654 -1564.61C-910.4 -1616.52 -917.447 -1742.64 -943.67 -2211.8L-947.704 -2283.55C-950.688 -2336.31 -956.242 -2434.5 -1031.15 -2440.67L-1038.97 -2441.3V-2511.79L-1027.92 -2509.58C-1021.01 -2508.2 -1014.1 -2506.94 -1007.2 -2505.68C-958.978 -2496.97 -909.157 -2488.03 -882.022 -2435.37C-851.046 -2375.27 -846.874 -2280.98 -842.453 -2181.12C-839.827 -2121.95 -837.147 -2060.77 -828.636 -2006.29C-824.492 -1980.26 -820.927 -1956.06 -817.583 -1933.54C-793.046 -1766.34 -782.905 -1697.13 -655.796 -1671.04C-555.377 -1650.08 -445.393 -1645.77 -340.291 -1658.69C-228.187 -1672.18 -203.014 -1732.06 -164.882 -1822.7L-160.405 -1833.33C-143.826 -1872.45 -158.443 -1895.91 -179.002 -1901.12C-199.56 -1906.33 -229.154 -1894.49 -246.535 -1856.43C-247.999 -1853.22 -249.298 -1849.39 -251.039 -1845.13C-262.092 -1815.38 -280.854 -1765.57 -366.293 -1744.64C-471.296 -1718.92 -647.286 -1732.13 -710.204 -1842.1C-756.544 -1923.1 -765.801 -2028.51 -776.522 -2150.53C-784.812 -2244.31 -793.35 -2341.27 -819.711 -2440.62C-826.318 -2465.3 -817.43 -2490.44 -794.428 -2512.14C-761.628 -2543.35 -703.849 -2564.2 -647.175 -2565.24C-559.249 -2566.85 -422.47 -2536.77 -393.704 -2464.81L-391.742 -2459.87C-373.781 -2415.36 -373.478 -2414.52 -388.979 -2114.59C-391.217 -2071.38 -412.964 -2057.58 -425.73 -2053.18C-439.27 -2048.54 -454.744 -2050.35 -467.179 -2058.01C-482.846 -2067.69 -496.469 -2088.9 -487.544 -2119.47C-467.538 -2187.99 -470.964 -2255.11 -477.734 -2388.82L-478.204 -2398.05C-480.497 -2443.57 -515.894 -2467.89 -545.184 -2480.28C-588.733 -2498.7 -646.65 -2501.76 -679.919 -2487.43C-724.131 -2468.3 -717.859 -2440.74 -710.702 -2408.73C-709.679 -2404.15 -708.657 -2399.56 -707.773 -2394.99C-693.1 -2318.13 -687.822 -2243.44 -682.683 -2171.15C-670.69 -2001.67 -661.24 -1867.81 -534.408 -1840.77C-451.511 -1823.12 -382.845 -1833.25 -351.012 -1867.95C-332.969 -1887.62 -333.494 -1908.38 -343.331 -1918.7C-351.04 -1926.77 -364.027 -1929 -380.938 -1925.13C-386.812 -1923.73 -392.549 -1922.17 -398.126 -1920.46C-405.495 -1918.18 -413.181 -1916.22 -421.116 -1914.57C-485.333 -1902.02 -538 -1917.76 -573.342 -1960.06C-627.529 -2024.8 -626.313 -2091.21 -625.097 -2168.07C-624.683 -2192.27 -624.268 -2217.3 -625.594 -2243.58C-630.43 -2341.05 -645.573 -2382.95 -653.752 -2405.42C-660.881 -2425.16 -663.533 -2432.53 -643.003 -2446.39C-626.423 -2457.63 -602.881 -2460.37 -581.853 -2453.53C-557.481 -2445.6 -542.311 -2427.41 -541.205 -2404.86C-537.503 -2328.03 -535.126 -2297.93 -533.717 -2279.95C-532.529 -2264.78 -531.921 -2257.17 -531.645 -2237.54C-531.037 -2199.1 -532.667 -2170.43 -533.938 -2147.41C-536.508 -2101.04 -537.807 -2077.78 -518.768 -2040.01C-505.09 -2012.95 -477.32 -1997.95 -442.31 -1998.82C-405.945 -1999.74 -373.229 -2018.13 -363.088 -2043.54C-330.205 -2124.7 -321.17 -2248.27 -318.876 -2314.71C-317.992 -2338.61 -316.97 -2360.18 -316.113 -2379.68C-309.454 -2523.63 -308.238 -2549.56 -391.217 -2566.54C-416.612 -2571.73 -441.398 -2575.85 -465.355 -2579.78C-524.792 -2589.67 -580.913 -2599.01 -625.76 -2622C-667.761 -2643.53 -686.081 -2675.32 -674.946 -2706.97C-662.373 -2742.55 -609.07 -2782.67 -497.16 -2788.6C-445.239 -2791.35 -397.932 -2785.33 -347.945 -2778.96C-294.118 -2772.12 -238.494 -2765.04 -175.105 -2769.44C-2.23789 -2781.43 91.85 -2754.08 112.519 -2685.83C125.672 -2642.44 88.2577 -2600.83 44.9303 -2552.66C-23.9569 -2476.16 -102.073 -2138.25 -116.304 -2046.19C-126.777 -1978.42 -126.528 -1963.17 -99.7246 -1955.84C-91.6836 -1953.65 -81.957 -1955.07 -72.9765 -1959.77C-57.7788 -1967.76 -48.4391 -1983.31 -48.1075 -2001.24C-47.8864 -2011.66 -48.1075 -2022.8 -48.3838 -2034.61C-49.3786 -2078.93 -50.6221 -2134.11 -26.278 -2196.35C33.7669 -2350.54 77.1496 -2461.88 191.133 -2576.63C207.187 -2592.81 221.528 -2606.95 234.211 -2619.52C314.069 -2698.57 323.27 -2709.71 297.628 -2737.22C203.678 -2837.81 86.4617 -2852.6 -84.0018 -2844.12C-337.003 -2831.54 -447.283 -2842.46 -506.527 -2848.32C-573.48 -2854.95 -580.471 -2855.67 -666.076 -2811.92C-712.36 -2788.29 -741.843 -2788.67 -795.395 -2789.38C-809.211 -2789.55 -824.685 -2789.76 -842.674 -2789.58C-864.254 -2789.38 -881.359 -2781.05 -886.885 -2767.87C-889.614 -2761.47 -889.411 -2754.83 -886.294 -2748.49C-883.178 -2742.15 -877.239 -2736.3 -868.98 -2731.44C-860.69 -2726.57 -850.88 -2721.61 -840.85 -2716.44C-800.092 -2695.51 -753.919 -2671.78 -751.1 -2637.13C-749.415 -2613.76 -767.293 -2589.93 -806.365 -2563.98C-876.164 -2517.65 -928.776 -2529.48 -1001.61 -2545.87C-1011.59 -2548.1 -1021.95 -2550.44 -1032.84 -2552.72L-1039.28 -2554.07V-2628.61L-1012.92 -2621.69C-971.468 -2610.62 -919.657 -2596.84 -893.572 -2607.5C-885.725 -2610.72 -880.64 -2616.12 -878.015 -2624.06C-872.157 -2641.54 -893.766 -2651.77 -929.384 -2666.92C-968.069 -2683.43 -1016.37 -2703.97 -1018.88 -2747.62C-1020.43 -2772.52 -1008.25 -2789.16 -997.608 -2803.93C-983.101 -2824.04 -970.556 -2841.4 -992.44 -2877.14C-1021.87 -2925.2 -1010.51 -3036.4 -999.542 -3143.97C-992.081 -3216.97 -985.063 -3285.95 -991.252 -3329.92C-1004.46 -3425.04 -1002.72 -3545.33 -986.085 -3687.44C-975.889 -3774.34 -977.022 -3830.97 -979.177 -3933.79C-980.282 -3989.23 -981.719 -4058.23 -981.94 -4153.01V-4153.32C-981.94 -4235.57 -933.114 -4309.92 -840.739 -4368.39C-676.355 -4472.41 -419.872 -4502.9 -251.481 -4479.25C-232.857 -4476.63 -214.951 -4474 -197.626 -4471.44C-68.8869 -4452.46 24.1509 -4438.73 124.622 -4477.78C161.649 -4492.19 192.901 -4495.88 217.577 -4488.77C237.306 -4483.08 252.145 -4470.81 261.788 -4452.27C273.615 -4429.26 274.057 -4410.47 263.17 -4394.89C242.087 -4364.61 182.373 -4354.25 124.346 -4344.25C111.469 -4342.03 98.6198 -4339.84 86.2958 -4337.38C-5.36041 -4319.36 -93.7283 -4330.67 -187.264 -4342.65C-345.237 -4362.88 -508.599 -4383.84 -723.33 -4274.88C-809.625 -4231.11 -808.603 -4175.21 -807.746 -4121.26V-4116.64C-801.833 -3747.46 -817.39 -3645.05 -827.697 -3577.24C-836.152 -3521.76 -840.795 -3491.2 -826.896 -3355.54C-817.832 -3268.16 -836.069 -3173.1 -852.096 -3089.06C-870.278 -2993.85 -885.973 -2911.62 -853.063 -2880.8C-844.525 -2872.77 -832.726 -2868.47 -817.141 -2867.71C-777.185 -2865.72 -730.183 -2879.61 -712.332 -2898.69C-704.231 -2907.15 -702.674 -2916.96 -707.994 -2926.03C-711.752 -2932.75 -715.62 -2939.27 -719.406 -2945.52C-736.649 -2974.21 -752.896 -3001.43 -749.111 -3039.29C-739.522 -3134.92 -696.969 -3179.69 -665.91 -3212.38C-635.183 -3244.75 -619.709 -3260.93 -654.166 -3303.6C-746.071 -3417.77 -704.125 -3551.66 -657.206 -3655.41C-626.119 -3724.28 -633.221 -3807.19 -640.129 -3887.33C-652.564 -4032.59 -665.495 -4182.79 -434.047 -4229.34C-346.149 -4247 -255.488 -4237.38 -140.703 -4225.18C-103.179 -4221.19 -64.3829 -4217.07 -21.4976 -4213.41C120.118 -4201.23 267.481 -4274.38 339.877 -4352.92C388.786 -4406.03 402.271 -4458.85 376.656 -4497.79C346.26 -4544.33 262.535 -4570.75 134.901 -4574.3L69.081 -4576.02C-75.9332 -4579.92 -75.9332 -4579.92 -137.304 -4586.32C-173.475 -4590.08 -228.132 -4595.75 -344.022 -4605.61C-595.282 -4627 -746.209 -4558.81 -867.487 -4504.01C-925.515 -4477.83 -975.53 -4455.2 -1028.31 -4444.88L-1039.36 -4442.75V-4594.73L-1031.76 -4595.5C-1002.19 -4598.51 -965.665 -4614.21 -923.36 -4632.41C-895.866 -4644.18 -867.432 -4656.47 -836.539 -4667.19C-647.921 -4732.67 -448.002 -4722 -216.471 -4709.64C-109.562 -4703.93 0.995004 -4698.03 123.682 -4698.28C333.052 -4698.71 486.245 -4634.06 533.441 -4525.36C581.908 -4413.69 503.626 -4283.72 329.128 -4186.13C150.209 -4086.08 -24.399 -4104.21 -164.66 -4118.76C-255.322 -4128.18 -333.604 -4136.3 -397.656 -4114.27C-488.179 -4083.16 -478.397 -3993.44 -467.04 -3889.54C-458.364 -3809.93 -448.499 -3719.71 -483.62 -3641.39C-489.146 -3628.9 -495.032 -3616.72 -500.752 -3604.71C-538.719 -3525.16 -571.49 -3456.42 -517.829 -3357.67C-496.496 -3318.43 -473.617 -3300.14 -400.447 -3302.29C-246.507 -3306.84 -160.598 -3352.11 -69.6054 -3400.04C-22.4647 -3424.88 26.2786 -3450.55 87.1249 -3472.65C111.082 -3481.35 127.468 -3497.77 135.813 -3521.42C158.72 -3586.26 128.407 -3618.53 96.2711 -3652.72C90.4131 -3658.99 84.4998 -3665.26 78.9181 -3671.74C32.2472 -3725.89 31.0314 -3778.47 30.0642 -3820.71C28.7379 -3878.65 27.9365 -3913.62 -74.9384 -3921.86C-103.593 -3924.16 -127.633 -3918.73 -142.61 -3906.57C-157.144 -3894.8 -162.422 -3877.68 -157.725 -3857.15C-151.922 -3831.63 -140.234 -3805.06 -127.854 -3776.91C-89.5836 -3690.02 -46.2009 -3591.53 -171.872 -3493.68C-189.53 -3479.9 -204.368 -3468.24 -216.968 -3458.36C-267.867 -3418.29 -283.286 -3406.19 -307.16 -3396.91C-355.931 -3377.95 -407.272 -3395.44 -430.815 -3421.48C-450.654 -3443.48 -457.59 -3480.15 -411.859 -3511.23C-399.924 -3518.92 -387.066 -3526.18 -373.367 -3532.99C-344.464 -3548.04 -311.664 -3565.11 -283.562 -3592.84C-228.74 -3646.94 -252.476 -3694.36 -285.248 -3759.84L-291.741 -3772.84C-350.46 -3891.42 -332.775 -3968.79 -237.665 -4009.4C-129.899 -4055.41 -58.2209 -4033.22 11.0256 -4011.77C96.2435 -3985.29 176.819 -3960.44 326.724 -4059.2C539.216 -4199.02 653.227 -4292.27 686.662 -4413.37C706.779 -4486.33 723.551 -4589.55 710.26 -4660.54C703.463 -4696.8 673.482 -4717.92 613.078 -4728.91C433.827 -4761.71 236.809 -4792.81 12.4072 -4798.45C-111.137 -4801.54 -204.617 -4805.73 -279.694 -4809.1C-516.751 -4819.72 -605.451 -4823.71 -1029.08 -4767.26L-1039.33 -4765.89V-4896.18L-1027.7 -4896.67C-588.512 -4914.88 456.43 -4946.97 673.951 -4851.84C745.961 -4820.34 779.23 -4833.76 829.604 -4854.06C865.885 -4868.69 911.064 -4886.9 982.715 -4891.05C1033.89 -4893.99 1159.73 -4898.4 1281.45 -4902.58C1361.58 -4905.36 1437.57 -4908 1482.86 -4909.94C1551.94 -4912.88 1593.39 -4921.12 1623.78 -4927.14C1639.23 -4930.21 1651.42 -4932.64 1663.13 -4933.6C1708.78 -4937.29 1748.79 -4924.77 1770.29 -4900.26C1787.5 -4880.54 1789.63 -4856.41 1775.51 -4837.24C1765.7 -4823.81 1739.59 -4801.48 1674.02 -4802.79C1639.62 -4803.49 1113.88 -4778.58 1011.62 -4762.16C852.152 -4736.56 859.032 -4706.71 874.285 -4641.36C880.779 -4613.27 888.986 -4578.33 884.509 -4536.31C856.877 -4274.51 728.829 -4165.11 396.496 -3940.97C345.873 -3906.84 295.5 -3895.36 255.046 -3886.05C205.612 -3874.75 175.797 -3867.94 172.564 -3829.55C169.414 -3791.9 183.147 -3740.57 220.893 -3716.6C238.633 -3705.36 259.578 -3701.89 283.369 -3706.39C420.812 -3732.33 425.841 -3741.45 447.09 -3779.96C460.741 -3804.67 481.354 -3842.03 545.461 -3901.4C628.358 -3978.09 666.131 -4008.8 714.018 -4047.57C744.414 -4072.21 778.982 -4100.15 831.732 -4145.35C976.635 -4269.49 1012.5 -4372.89 1041.32 -4455.96C1081.06 -4570.56 1107.31 -4646.26 1379.32 -4678.58C1407.17 -4681.89 1434.92 -4685.64 1462.69 -4689.4C1539.56 -4699.69 1619 -4710.51 1699.33 -4711.39C1753.21 -4711.98 1782.75 -4740.96 1820.14 -4777.6C1876.09 -4832.49 1945.73 -4900.82 2130.92 -4907.97C2182.09 -4909.95 2218.49 -4919.06 2247.72 -4926.39C2289.42 -4936.82 2319.56 -4944.37 2349.41 -4915.6C2370.35 -4895.43 2375.71 -4865.27 2362.73 -4840.57C2350.24 -4816.84 2324.04 -4801.67 2288.78 -4797.9C2262.64 -4795.08 2238.82 -4792.65 2216.94 -4790.43C2098.12 -4778.36 2038.3 -4772.29 1985.88 -4738.18C1933.46 -4704.08 1894.69 -4677.38 1875.35 -4645.82C1866.56 -4631.43 1868.61 -4616.69 1880.87 -4606.37C1893.14 -4596.06 1912.43 -4592.76 1931.22 -4597.72C1976.37 -4609.67 2006.32 -4621.67 2041 -4635.56C2085.79 -4653.51 2136.56 -4673.81 2233.1 -4698.49C2349.16 -4728.09 2391.91 -4770.71 2433.27 -4811.94C2498.21 -4876.67 2554.3 -4932.58 2865.08 -4910.38C2911.31 -4907.1 3013.02 -4909.9 3141.82 -4913.46C3317.12 -4918.28 3557.21 -4924.92 3808.61 -4920.59C4031.44 -4916.78 4076.2 -4901.79 4097.73 -4894.58C4104.94 -4892.17 4107.12 -4891.45 4113.76 -4892.21L4123.84 -4893.4V-4768.84L4112.24 -4771.88C4101.65 -4774.66 4091.12 -4777.54 4080.6 -4780.41C4058.08 -4786.57 4034.78 -4792.93 4011.52 -4798.06C3797.84 -4845.62 3144.36 -4802.48 2987.99 -4786.66C2941.01 -4781.91 2893.46 -4786.75 2843.17 -4791.86C2732.64 -4803.1 2618.63 -4814.72 2510.64 -4716.67C2420.62 -4634.96 2336.56 -4608.24 2239.13 -4577.3C2188.56 -4561.23 2131.36 -4543.02 2066.31 -4514.98C2019.34 -4494.63 1983.89 -4488.6 1952.72 -4483.28C1914.03 -4476.69 1883.64 -4471.51 1843.9 -4440.94C1786.84 -4397.1 1732.32 -4386.17 1679.63 -4375.6C1599.11 -4359.42 1523.06 -4344.19 1431.96 -4218.45C1311.98 -4052.85 1154.23 -3937.01 1038.97 -3852.45C934.33 -3775.62 859.198 -3720.18 861.575 -3669.45C862.901 -3645.76 881.995 -3622.84 919.934 -3599.39C1017.67 -3538.96 1061.41 -3533.49 1112.31 -3544.45C1215.1 -3566.62 1296.15 -3605.33 1360.09 -3662.78C1516.38 -3803.25 1609.94 -3894.47 1671.75 -3954.95C1811.35 -4091.2 1811.35 -4091.2 2042.99 -4190.03L2049.87 -4192.97C2084.36 -4207.69 2119.36 -4222.5 2154.88 -4237.41C2435.59 -4355.7 2725.9 -4477.99 2913.33 -4643.82C2992.13 -4713.55 3069.06 -4718.19 3297.41 -4731.97C3356.13 -4735.52 3422.7 -4739.54 3502.5 -4745.42C3824.2 -4769.14 4022.26 -4765.68 4060.01 -4518.07C4069.1 -4458.16 4078.19 -4330.38 4054.32 -4231.43C4036.58 -4157.87 3989.05 -4123.2 3901.9 -4081.36C3802.17 -4033.44 3498.69 -3887.62 3377.19 -3747.9C3160.88 -3499.25 3118.39 -3251.58 3090.26 -3087.74C3084.43 -3053.71 3079.37 -3024.32 3073.48 -2998.92C3058.89 -2936.03 3044.75 -2887.44 3033.39 -2848.4C3013.44 -2779.89 3001.42 -2738.54 3007.3 -2692.65C3011.23 -2662.26 3030.35 -2640.53 3058.45 -2634.51C3079.78 -2629.95 3101.78 -2635.98 3115.93 -2650.13C3166.71 -2701.22 3191.53 -2963.96 3204.85 -3105.11C3207.61 -3135.57 3210.18 -3161.73 3212.39 -3181.07C3230.05 -3334.88 3295.7 -3490.76 3418.97 -3671.6C3486.47 -3770.57 3513.83 -3787.95 3615.68 -3852.56L3632.43 -3863.19C3706.21 -3910.09 3958.99 -4063.66 4114.34 -4070.92L4123.62 -4071.34V-4064.28C4123.62 -4048.39 4123.9 -4035.75 4124.14 -4025.69C4125.03 -3986.27 4125.17 -3980.26 4095.3 -3977.33C4075.12 -3975.34 4037.6 -3971.65 3964.4 -3934L3951.72 -3927.48C3845.36 -3872.87 3624.08 -3759.21 3563.57 -3680.44C3333.5 -3380.98 3328.42 -3183.27 3321.43 -2909.62C3320.65 -2879.65 3319.85 -2848.71 3318.66 -2816.57C3314.33 -2689.8 3281 -2641.17 3258.98 -2609C3240.33 -2581.82 3230.96 -2568.17 3253.2 -2526.09C3268.76 -2496.67 3372.57 -2157.71 3398.71 -1973.07C3430.57 -1748.15 3437.4 -1642.63 3442.4 -1565.53C3447.93 -1480.29 3451.27 -1428.84 3484.43 -1286.28C3501.87 -1211.49 3481.67 -1079.7 3410.24 -1043.37C3381.22 -1028.66 3347.48 -1030.28 3309.96 -1048.33C3252.1 -1076.18 3274.04 -1116.89 3299.85 -1149.24C3335.35 -1193.98 3332.84 -1240.15 3329.91 -1293.71C3326.18 -1362.31 3323.53 -1414.79 3321.43 -1456.42C3315.35 -1577.38 3313.94 -1606.12 3303.25 -1672.69C3298.27 -1703.59 3293.21 -1735.4 3288.07 -1767.85C3238.34 -2082.6 3176.14 -2474.33 3096.78 -2531.12C3082.55 -2541.32 3064.97 -2544.88 3048.61 -2540.88C3026.12 -2535.37 3009.13 -2516.28 3002 -2488.47C2994.57 -2459.55 3008.19 -2435.24 3027.03 -2401.59C3036.98 -2383.79 3048.31 -2363.6 3058.42 -2339.14C3081.83 -2282.55 3092.55 -2190.35 3102.91 -2101.2C3108.91 -2049.52 3114.57 -2000.68 3122.45 -1959.96C3134.14 -1899.73 3149.06 -1840.79 3163.45 -1783.91C3191.72 -1672.28 3218.41 -1566.78 3218.41 -1463.73V-1460.98C3218.14 -1400.46 3215.24 -1361.25 3212.89 -1329.74C3209.9 -1288.88 3208.08 -1264.21 3215.24 -1228.22C3222.31 -1193 3206.95 -1163.59 3174.26 -1149.48C3145.46 -1137.05 3108.71 -1139.53 3082.85 -1155.67C3065.06 -1166.79 3027.25 -1200.9 3060.91 -1277.79C3115.29 -1402.04 3077.79 -1526.26 3030.24 -1683.55C2996.86 -1793.9 2959.03 -1919.13 2947.34 -2068.07C2942.73 -2126.6 2942.34 -2167.13 2942.06 -2199.69C2941.57 -2252.38 2941.32 -2281.4 2923.16 -2327.12C2907 -2367.83 2882.07 -2392.13 2854.75 -2393.79C2836.59 -2394.91 2818.44 -2385.61 2808.49 -2370.14C2772.32 -2313.76 2800.59 -1938.54 2864.14 -1778.15C2973.23 -1503.02 3018.11 -1362.96 2977.57 -1310.79C2967.18 -1297.41 2951.49 -1289.16 2929.57 -1285.56C2914.43 -1283.07 2900.2 -1285.22 2887.27 -1291.93C2849.85 -1311.38 2836.4 -1362.96 2833.17 -1378.32C2795.5 -1557.62 2754.88 -1635.94 2722.28 -1698.87C2672.54 -1794.79 2636.62 -1864.09 2642.81 -2197.13C2644.13 -2269 2651.29 -2315.52 2656.62 -2349.49C2664.77 -2402.46 2667.68 -2422.26 2637.64 -2459.63C2514.87 -2611.73 2440.76 -2703.54 2539.43 -2917.11C2602.21 -3053.04 2648.55 -3159.09 2685.88 -3244.31C2817.39 -3545.42 2841.1 -3599.68 3102.83 -3851.37C3207.83 -3952.24 3328.53 -4022.64 3435.13 -4084.76C3602.28 -4182.19 3734.53 -4259.11 3717.37 -4402.44C3710.21 -4462.91 3671.47 -4500.62 3645.8 -4525.57C3638.48 -4532.7 3631.99 -4538.81 3627.84 -4544.31C3614.03 -4561.78 3614.55 -4580.08 3629.17 -4594.56C3647.76 -4612.95 3683.96 -4620.73 3717.23 -4613.52C3762.27 -4603.72 3815.85 -4534.15 3836.69 -4458.43C3852.44 -4401.16 3870.84 -4256.49 3702.01 -4150.5C3656.8 -4122.12 3610.43 -4094.97 3565.59 -4068.72C3306.04 -3916.81 3037.62 -3759.76 2865.88 -3281.16C2755.35 -2972.93 2738.08 -2933.43 2724.27 -2901.71C2718.38 -2888.22 2712.83 -2875.47 2700.94 -2844.09C2652.17 -2715.21 2712 -2562.18 2772.79 -2517.47C2790.47 -2504.52 2811.28 -2499.81 2829.85 -2504.52C2856.62 -2511.32 2875.88 -2536.46 2884.04 -2575.35C2888.4 -2595.95 2877.54 -2615.07 2864.94 -2637.04C2846.54 -2669.31 2823.49 -2709.46 2840.07 -2770.93C2852.73 -2818.57 2862.18 -2843.45 2873.23 -2872.22C2893.82 -2925.7 2919.41 -2992.25 2981 -3238.75C3113.16 -3767.6 3463.48 -3952.07 3695.32 -4074.12C3817.45 -4138.42 3905.68 -4184.88 3920.85 -4254.78C3938.98 -4338.5 3948.32 -4404.03 3913.86 -4546.64C3884.74 -4667.28 3731.49 -4671.05 3642.85 -4662.54C3502.28 -4649.1 3398.63 -4640.34 3315.32 -4633.3C3051.98 -4611.04 3051.99 -4611.04 2967.15 -4549.77C2918.94 -4514.95 2846.07 -4462.33 2689.34 -4376.71C2429.4 -4234.7 2264.52 -4169.26 2144.1 -4121.51C2016.99 -4071.08 1940.26 -4040.59 1856.09 -3959.29C1706.87 -3815.11 1623.98 -3732.89 1574.24 -3683.73C1508.64 -3618.75 1493.03 -3603.31 1449.48 -3567.5C1352.05 -3487.41 1270.2 -3470.12 1210.43 -3457.48C1186.34 -3452.39 1165.56 -3448.01 1148.37 -3440.62C1140.56 -3437.34 1134.36 -3433.09 1130.31 -3428.24C1126.26 -3423.4 1124.48 -3418.1 1125.13 -3412.81C1127.04 -3397.16 1148.48 -3382.54 1182.47 -3373.69C1391.56 -3319.26 1558.27 -3498.56 1810.55 -3769.89C1830.67 -3791.47 1851.34 -3813.66 1872.58 -3836.45C1988.23 -3960.04 2092.23 -4006.94 2236.2 -4071.86C2285.94 -4094.26 2342.22 -4119.66 2405.42 -4151.13C2793.26 -4344.28 2919.38 -4432.42 2987.02 -4479.77C3034.94 -4513.28 3054.78 -4527.16 3116.89 -4542.67C3132.73 -4546.62 3146.29 -4550.23 3158.34 -4553.41C3203.16 -4565.29 3227.86 -4571.84 3264.64 -4568.22C3291.5 -4565.57 3315.62 -4545.14 3318.44 -4522.61C3321.21 -4501.01 3303.77 -4483.37 3271.99 -4475.41C3262.93 -4473.13 3251.32 -4471.99 3237.84 -4470.65C3191.2 -4465.97 3120.62 -4458.88 3036.12 -4399.88C2975.91 -4357.8 2932.36 -4331.08 2672.76 -4183.92C2523.46 -4099.38 2418.96 -4050.42 2334.93 -4011.14C2140.04 -3919.92 2059.35 -3882.15 1789.08 -3561.53C1606.24 -3344.61 1440.91 -3186.08 1120.1 -3279.05C1064.12 -3295.23 1031.1 -3290.82 992.994 -3285.75C974.017 -3282.93 954.592 -3281.05 934.966 -3280.13C761.629 -3273.68 585.335 -3391.29 494.839 -3503.11C483.786 -3516.63 475.082 -3529.43 467.207 -3540.73C437.336 -3583.98 422.36 -3605.7 350.405 -3592.44C284.972 -3580.39 260.241 -3553.73 265.464 -3500.37C268.503 -3468.66 288.702 -3456.35 373.671 -3404.55C401.939 -3387.3 437.226 -3365.85 480.774 -3338.06C495.06 -3328.97 509.457 -3318.93 524.71 -3308.35C586.551 -3265.36 656.681 -3216.63 760.219 -3199.64C841.458 -3186.31 911.727 -3183 973.706 -3180.07C1006.87 -3178.5 1038.2 -3177.03 1068.07 -3174.19C1125.41 -3168.74 1175.84 -3163.27 1220.05 -3158.45C1558.71 -3121.59 1558.71 -3121.59 1842.71 -3457.61C1897.76 -3522.72 1960.12 -3596.5 2037.99 -3685.75C2168.39 -3835.16 2268.72 -3888.11 2450.82 -3984.21C2604.34 -4065.24 2814.57 -4176.19 3148.48 -4402.13C3171.96 -4418.03 3198.71 -4423.39 3221.84 -4416.84C3241.18 -4411.31 3255 -4398.11 3257.76 -4382.43C3259.31 -4373.85 3257.3 -4365.19 3251.86 -4357.07C3246.42 -4348.95 3237.69 -4341.57 3226.29 -4335.45C3147.92 -4293.7 3019.77 -4214.81 2884.06 -4131.18C2735.6 -4039.74 2582.04 -3945.17 2498.68 -3903.13C2255.32 -3780.44 2104.89 -3578.35 1972.14 -3400.06C1877.83 -3273.34 1788.75 -3153.66 1676.92 -3072.54C1547.32 -2978.57 1425.83 -2994.18 1205.21 -3022.51C1109.05 -3034.87 989.374 -3050.25 841.154 -3059.9C637.09 -3073.14 543.693 -3134.93 357.59 -3257.84C325.039 -3279.35 289.531 -3302.82 249.962 -3328.35L243.137 -3332.76C211.774 -3353.26 184.694 -3371.02 140.234 -3350.12C104.312 -3333.35 73.7232 -3317.76 44.0737 -3302.6C-88.6993 -3234.92 -176.404 -3190.31 -436.728 -3198.52C-519.846 -3201.16 -589.313 -3111.23 -595.89 -3029.09C-597.465 -3008.07 -597.244 -2939.25 -522.913 -2934.74C-356.014 -2924.59 -224.733 -2931.97 -119.261 -2937.9C65.5164 -2948.29 187.596 -2955.16 326.061 -2864.72C357.23 -2844.36 377.043 -2823.8 394.506 -2805.68C424.598 -2774.46 446.372 -2751.89 508.185 -2749.77L511.584 -2749.67C578.206 -2747.46 592.049 -2746.99 800.176 -2720.52C1478.69 -2634.2 1616.32 -2473.63 1775.6 -2287.69C1803.59 -2255.02 1832.54 -2221.26 1865.1 -2187.36C1905.44 -2145.3 1894.47 -2097.39 1862.8 -2071.81C1837.93 -2051.81 1792.12 -2039.92 1737.57 -2066.48C1695.99 -2086.71 1661.56 -2131.57 1617.95 -2188.36C1537.13 -2293.64 1426.49 -2437.81 1195.4 -2506.16C883.459 -2598.33 588.457 -2639.23 476.077 -2647.97C441.177 -2650.68 423.575 -2633.69 401.47 -2612.19C373.837 -2585.34 349.88 -2562.61 329.239 -2542.89C251.868 -2468.96 219.705 -2438.36 191.602 -2393.29C42.9409 -2154.95 43.2724 -2147.46 47.0027 -2021.97L47.5002 -2004.97C48.0252 -1986.15 61.8414 -1968.18 81.101 -1961.24C97.1278 -1955.46 114.951 -1957.96 132.608 -1968.45C227.193 -2024.65 296.467 -2090.42 357.562 -2148.43C463.587 -2249.11 547.34 -2328.62 702.468 -2308.45C912.307 -2281.15 1034.97 -2155.61 1164.81 -2022.68C1285.2 -1899.45 1409.69 -1772 1616.07 -1702.03C1643.71 -1692.69 1670.07 -1684.26 1695.52 -1676.12C1815.97 -1637.65 1919.97 -1604.43 2023.71 -1510.93C2041.83 -1494.61 2059.05 -1478.56 2075.79 -1463.09C2158.69 -1386.22 2230.2 -1319.81 2344.9 -1272.34C2462.98 -1223.47 2523.88 -1172.55 2588.37 -1118.64C2632.89 -1081.42 2678.92 -1042.91 2748.03 -999.908C3282.22 -667.635 3349.03 -695.31 3669.35 -828.328C3696.73 -839.686 3725.88 -851.795 3757.33 -864.477C3788.77 -877.16 3790.87 -895.594 3794.02 -928.728C3795.57 -945 3797.31 -963.45 3803.03 -985.71C3887.64 -1314.58 3856.31 -1383.17 3816.6 -1469.98C3790.65 -1526.77 3761.33 -1591.15 3756.52 -1737.06C3755.34 -1774.02 3754.7 -1807.56 3754.12 -1838.79C3752.19 -1942.94 3750.78 -2018.18 3731.52 -2108.85C3718.36 -2170.75 3705.65 -2220.67 3695.43 -2260.69C3674.48 -2342.92 3661.83 -2392.54 3668.43 -2448.86C3674.32 -2499.12 3683.66 -2536.99 3692.69 -2573.63C3710.68 -2646.6 3726.3 -2709.63 3703.28 -2841.4C3644.75 -3176.85 3731.43 -3370.06 3788.94 -3497.87C3801.15 -3525.09 3812.67 -3550.83 3821.18 -3574.11C3847.16 -3645.54 3841.52 -3683.38 3835.58 -3723.44C3833.15 -3739.82 3830.61 -3756.77 3830.25 -3776.34C3830.25 -3799.88 3846.44 -3819.55 3873.77 -3827.05C3902.26 -3834.89 3933.7 -3827.7 3953.9 -3808.72C3980.87 -3783.4 3977.72 -3762.85 3967.33 -3694.67C3964.87 -3678.38 3961.8 -3659.25 3958.85 -3636.49C3943.79 -3524.88 3923.4 -3465.32 3903.58 -3407.71C3862.85 -3288.62 3827.71 -3185.75 3862.14 -2651.71C3866.09 -2592.55 3853.65 -2537.51 3841.77 -2484.32C3828.42 -2424.71 3815.88 -2368.39 3825.19 -2308.43C3830.39 -2275.05 3837.98 -2238.38 3846 -2199.56C3859.81 -2132.97 3874.02 -2064.11 3878.83 -1999.99C3883.8 -1933.65 3885.71 -1883.53 3887.28 -1843.26C3890.6 -1757.92 3892.42 -1710.84 3917.43 -1627.14C3924.17 -1604.6 3930.72 -1584.18 3936.77 -1564.98C3977.94 -1436.8 4002.78 -1359.43 3949.79 -1051.84C3945.03 -1024.29 3940.11 -1000.25 3935.97 -979.28C3916.38 -883.648 3914.14 -860.74 3975.95 -851.118C4008.72 -846.012 4031.44 -847.94 4045.31 -857.003C4059.18 -866.066 4065.15 -883.044 4063.46 -908.777C4054.95 -1037.12 4061.81 -1129.66 4067.83 -1211.33C4076.51 -1328.49 4083.97 -1429.65 4041.94 -1592.39C4012.95 -1704.53 4010.77 -1748.05 4005.44 -1853.22C4001.49 -1931.48 3996.07 -2038.6 3977.33 -2230.69C3966.09 -2346.02 3977.2 -2409.79 3988.97 -2477.32C4001.84 -2551.15 4015.16 -2627.48 3998.2 -2779.25C3961.5 -3107.85 3999.58 -3311.34 4030.17 -3474.87C4056.8 -3617.29 4076.04 -3720.21 4034.31 -3842.53C4025.69 -3867.95 4028.12 -3888.27 4041.63 -3902.95C4055.15 -3917.64 4079.6 -3926.42 4114.2 -3928.95L4123.79 -3929.64L4123.79 -773.375L4116.77 -772.287C4108.64 -771.036 4100.52 -769.653 4092.37 -768.255C4074.16 -764.91 4055.55 -762.231 4036.66 -760.237C3992.73 -756.221 3959.73 -764.136 3930.61 -771.124C3891.32 -780.541 3860.28 -787.985 3814.39 -764.357C3544.92 -625.586 3382.47 -550.772 3177.71 -626.763C3005.29 -690.719 2703.38 -848.734 2483.51 -1015.58C2391.46 -1085.42 2330.04 -1116.98 2270.74 -1147.51C2202.54 -1182.54 2138.1 -1215.63 2037.38 -1302.49C2026.33 -1312.02 2015.7 -1321.25 2005.5 -1330.17C1910.85 -1412.56 1848.35 -1466.99 1715.88 -1509.54C1510.13 -1575.66 1332.95 -1632.62 1166.91 -1799.03C1138.64 -1827.37 1108.88 -1860.03 1077.19 -1894.66C948.367 -2035.6 788.045 -2210.99 635.073 -2187.73C553.53 -2175.32 423.852 -2067.7 375.689 -2015.59C322.635 -1958.12 271.902 -1930.74 231.172 -1908.74C217.733 -1901.74 204.978 -1894.37 192.956 -1886.67C172.26 -1872.9 171.569 -1840.06 170.547 -1790.35C169.248 -1726.2 167.258 -1629.26 117.272 -1504.29C101.881 -1465.88 132.11 -1448.38 167.01 -1428.17C175.576 -1423.22 184.225 -1418.24 192.321 -1412.87L232.194 -1386.51C391.688 -1281.14 542.339 -1181.63 686.773 -1058.64C822.503 -943.087 851.351 -860.328 884.703 -764.474C923.305 -653.731 967.13 -528.188 1179.32 -310.35C1290.01 -196.753 1392.42 -77.3594 1483.85 44.5505C1516.46 88.115 1533.32 130.355 1535.42 173.684C1537.4 215.881 1561.22 234.875 1597.28 263.623C1608.34 272.451 1621.02 282.544 1633.98 294.226C1675.04 331.243 1708.92 346.956 1741.75 362.155C1780.87 380.31 1817.84 397.465 1862.25 446.753C1950.98 545.328 1975.13 620.731 1996.46 687.321C2003.06 707.919 2009.25 727.296 2017.02 746.055C2040.04 801.728 2106.05 837.597 2198.15 844.468C2340.45 855.076 2535.81 794.489 2633.88 658.043C2655.74 627.646 2640.32 604.106 2602.13 568.707C1595.07 -364.229 1411.13 -558.172 1341.85 -631.177C1318.2 -656.115 1306.32 -668.635 1280.18 -691.396C1244.75 -722.293 1251.24 -754.808 1267.55 -773.302C1285.45 -793.62 1316.29 -801.771 1346.08 -794.076C1386.78 -783.572 1391.76 -778.51 1452.68 -716.481C1535.88 -631.78 1730.75 -433.408 2278.64 47.5078C2535.32 272.804 2657.92 397.892 2731.15 472.706C2807.36 550.449 2819.04 562.454 2864.94 565.014C3019.16 573.842 3074.95 530.366 3159.45 464.6C3229.74 409.868 3317.23 341.748 3494.18 282.294C3608.33 243.953 3680.73 237.979 3738.9 233.168C3801.34 228.004 3846.47 224.267 3910.99 181.6C3971.06 141.875 4046.39 121.277 4112.35 105.093L4123.79 102.298V111.405C4123.79 136.417 4124.48 155.691 4125.03 170.683C4125.33 179.908 4125.64 187.676 4125.64 194.223M3964.82 308.689C3964.82 293.52 3976.09 272.039 4025.61 250.705C4041.63 243.82 4058.3 237.377 4075.57 231.402C4109.33 219.456 4109.33 219.5 4107.59 171.08C4107.12 157.839 4106.52 141.375 4106.38 120.571C4042.66 136.461 3976.84 155.646 3922.51 191.604C3853.87 237.023 3804 241.142 3740.83 246.365C3683.85 251.073 3612.98 256.929 3501.31 294.447C3327.45 352.842 3241.27 419.946 3171.99 473.869C3087.27 539.841 3026.04 587.51 2863.7 578.329C2809.84 575.254 2795.72 560.821 2717.25 480.695C2644.16 406.102 2521.8 281.249 2265.54 56.3207C1717.12 -425.095 1521.99 -623.747 1438.67 -708.566C1378.38 -769.948 1376.03 -772.346 1340.44 -781.526C1318.34 -787.235 1295.46 -781.1 1282.08 -765.931C1269.18 -751.336 1264.4 -725.338 1293.36 -700.135C1320.02 -676.919 1332.04 -664.236 1356.03 -638.945C1425.11 -566.029 1608.94 -372.321 2615.64 560.306C2649.94 592.071 2678.31 623.924 2649.19 664.399C2547.5 805.862 2344.38 868.715 2196.27 857.665C2096.79 850.309 2025.39 811.026 2000.08 750.042C1992.15 730.915 1985.88 711.23 1979.22 690.455C1958.24 624.983 1934.48 550.684 1847.55 454.256C1805.24 407.308 1769.85 390.874 1732.35 373.484C1698.39 357.741 1663.27 341.439 1620.38 302.774C1607.78 291.401 1595.9 281.926 1584.46 272.775C1548.54 244.07 1520.02 221.398 1517.76 174.199C1515.8 133.077 1499.69 92.823 1468.49 51.1418C1377.52 -70.2826 1275.51 -189.235 1165.23 -302.406C950.965 -522.303 906.781 -649.171 867.82 -761.076C835.02 -855.237 806.697 -936.643 673.869 -1049.73C530.181 -1172.08 379.916 -1271.33 220.865 -1376.35L180.992 -1402.77C173.172 -1407.94 164.827 -1412.75 156.592 -1417.49C119.759 -1438.77 81.6813 -1460.73 100.582 -1508.06C149.85 -1631.25 151.757 -1723.28 153.083 -1790.54C154.161 -1843.8 154.879 -1878.99 181.406 -1896.64C193.89 -1904.58 207.124 -1912.18 221.059 -1919.41C260.711 -1940.82 310.034 -1967.46 361.375 -2023.06C412.495 -2078.43 544.246 -2187.34 631.619 -2200.63C795.782 -2225.64 952.872 -2053.75 1091.48 -1902.14C1122.95 -1867.68 1152.71 -1835.14 1180.76 -1807.01C1344.01 -1643.41 1519.2 -1587.12 1722.04 -1521.93C1858.8 -1477.97 1925.8 -1419.62 2018.59 -1338.86C2028.82 -1329.94 2039.37 -1320.75 2050.43 -1311.23C2149.79 -1225.57 2213.35 -1193.01 2280.44 -1158.47C2340.54 -1127.57 2402.63 -1095.67 2495.97 -1024.93C2714.48 -859.107 3014.32 -702.151 3185.5 -638.651C3381.69 -565.911 3540.58 -639.328 3804.72 -775.347C3857.58 -802.58 3895.68 -793.444 3935.97 -783.778C3964.76 -776.877 3994.52 -769.742 4034.67 -773.479C4052.98 -775.415 4071.02 -778.021 4088.67 -781.276C4094.58 -782.277 4100.49 -783.292 4106.4 -784.219L4106.4 -3914.81C4082.28 -3911.97 4065.37 -3905.43 4056.06 -3895.32C4045.64 -3883.98 4044.01 -3867.36 4051.36 -3845.85C4093.94 -3720.93 4073.47 -3611.52 4047.58 -3472.99C4017.18 -3310.12 3979.19 -3107.44 4015.72 -2780.37C4032.85 -2627.17 4019.42 -2550.1 4006.4 -2475.57C3994.74 -2408.74 3983.77 -2345.6 3994.88 -2231.66C4013.62 -2039.39 4019.06 -1932.08 4023.01 -1853.72C4028.29 -1749.26 4030.47 -1706.06 4059.18 -1594.92C4101.68 -1430.55 4094.14 -1328.62 4085.38 -1210.55C4079.38 -1129.22 4072.58 -1037.04 4081.01 -909.41C4083.11 -879.307 4075.1 -858.827 4056.8 -846.91C4038.51 -834.992 4010.99 -832.197 3972.53 -838.082C3892.06 -850.588 3899.88 -888.856 3918.81 -981.267C3923.09 -1002.16 3927.98 -1026.08 3932.63 -1053.52C3985.13 -1358.65 3960.67 -1435.13 3920 -1561.79C3913.81 -1581.06 3907.23 -1601.51 3900.49 -1624.16C3875.09 -1709.09 3873.24 -1756.57 3869.9 -1842.82C3868.35 -1883.01 3866.39 -1933.03 3861.61 -1999.2C3856.86 -2062.65 3842.68 -2131.19 3828.98 -2197.45C3820.91 -2236.38 3813.28 -2273.16 3808.06 -2306.8C3798.39 -2368.59 3811.24 -2425.88 3824.64 -2486.47C3836.41 -2538.95 3848.43 -2593.18 3844.81 -2650.99C3810.13 -3187.06 3845.61 -3290.83 3886.7 -3410.97C3906.24 -3468.1 3926.46 -3527.21 3941.41 -3637.79C3944.48 -3660.59 3947.41 -3679.78 3949.9 -3696.12C3959.93 -3761.68 3962.61 -3779.32 3940.25 -3800.3C3924.81 -3814.81 3901.01 -3820.39 3879.46 -3814.5C3859.1 -3808.9 3847.13 -3794.52 3847.49 -3776.45C3847.88 -3757.53 3850.25 -3740.92 3852.71 -3724.86C3858.9 -3683.48 3864.71 -3644.41 3837.79 -3570.51C3829.17 -3546.8 3817.56 -3520.92 3805.27 -3493.51C3745.03 -3359.3 3662.58 -3175.51 3720.52 -2843.06C3743.87 -2709.18 3728.06 -2645.19 3709.77 -2571.1C3700.82 -2534.77 3691.56 -2497.21 3685.76 -2447.51C3679.35 -2393.07 3691.84 -2344.12 3712.51 -2263.06C3722.76 -2222.89 3735.47 -2172.91 3748.68 -2110.81C3768.02 -2019.18 3769.65 -1939.58 3771.5 -1838.81C3772.08 -1807.64 3772.72 -1774.08 3773.91 -1737.22C3778.52 -1593.39 3807.48 -1530.05 3833.01 -1474.17C3873.58 -1385.48 3905.6 -1315.44 3820.11 -983.003C3814.58 -961.537 3812.87 -943.514 3811.37 -927.609C3808.14 -893.535 3805.85 -868.906 3765.42 -852.574C3734.14 -840.098 3705.05 -827.96 3677.86 -816.558C3356.66 -683.289 3280.37 -651.627 2737.31 -989.638C2667.23 -1033.28 2620.76 -1072.13 2575.83 -1109.72C2509.51 -1165.07 2452.42 -1212.89 2336.92 -1260.69C2219.26 -1309.39 2146.7 -1376.73 2062.64 -1454.69C2046.06 -1470.19 2028.82 -1486.09 2010.77 -1502.36C1909.72 -1593.42 1812.37 -1624.48 1689.13 -1663.88C1663.57 -1672.05 1637.05 -1680.52 1609.33 -1689.92C1398.77 -1761.31 1272.91 -1890.16 1151.16 -2014.78C1023.47 -2145.5 902.857 -2268.97 699.926 -2295.37C554.939 -2314.21 474.032 -2237.4 371.599 -2140.13C309.896 -2081.55 239.959 -2015.07 143.743 -1957.99C120.864 -1944.39 96.0777 -1941.29 73.9719 -1949.25C48.6054 -1958.38 31.1142 -1980.67 30.4234 -2004.69L29.8984 -2021.66C26.1405 -2147.58 25.7535 -2157.82 176.184 -2398.97C205.059 -2445.49 237.638 -2476.45 315.837 -2551.19C336.478 -2570.88 360.27 -2593.59 387.985 -2620.34C411.528 -2643.09 433.744 -2664.58 478.204 -2661.12C591.497 -2652.3 888.406 -2611.1 1202.17 -2518.41C1438.92 -2448.47 1551.36 -2301.97 1633.45 -2195.01C1675.87 -2139.76 1709.36 -2096.11 1747.38 -2077.6C1786.07 -2058.78 1824.61 -2059.95 1850.48 -2080.85C1877.25 -2102.45 1886.18 -2143.27 1851.36 -2179.43C1818.56 -2213.61 1789.49 -2247.52 1761.36 -2280.33C1604.25 -2463.64 1468.46 -2621.96 797.578 -2707.31C590.53 -2733.64 576.879 -2734.1 511.114 -2736.28L507.743 -2736.4C437.53 -2738.72 411.196 -2766.04 380.635 -2797.66C363.696 -2815.21 344.547 -2835.12 314.87 -2854.49C181.876 -2941.3 62.6979 -2934.63 -117.741 -2924.48C-223.821 -2918.51 -355.848 -2911.09 -523.935 -2921.32C-584.726 -2925.03 -617.885 -2965.55 -612.966 -3029.72C-606.722 -3107.8 -536.232 -3214.78 -435.65 -3211.62C-181.185 -3203.58 -95.3587 -3247.3 34.5406 -3313.46C64.3559 -3328.64 95.1659 -3344.36 131.254 -3361.25C186.518 -3387.18 222.799 -3363.53 254.742 -3342.65L261.429 -3338.24C301.082 -3312.66 336.644 -3289.17 369.195 -3267.61C558.172 -3143.07 644.302 -3086.09 842.785 -3073.19C991.723 -3063.49 1111.78 -3048.06 1208.28 -3035.65C1430.3 -3007.12 1541.74 -2992.81 1664.98 -3082.19C1774.93 -3161.95 1863.41 -3280.81 1957.08 -3406.63C2090.8 -3586.23 2242.3 -3789.78 2489.17 -3914.22C2571.82 -3955.92 2725.04 -4050.27 2873.26 -4141.54C3009.21 -4225.25 3137.59 -4304.33 3216.45 -4346.37C3224.97 -4350.81 3231.56 -4356.2 3235.73 -4362.15C3239.91 -4368.1 3241.58 -4374.46 3240.63 -4380.8C3238.83 -4391.58 3229.38 -4400.64 3215.98 -4404.45C3198.88 -4409.31 3179.15 -4404.98 3160.39 -4392.29C2825.68 -4165.81 2614.93 -4054.6 2461.07 -3973.38C2280.71 -3878.21 2181.37 -3825.79 2052.83 -3678.48C1975.02 -3589.32 1912.71 -3515.58 1857.69 -3450.52C1570.31 -3110.53 1564.35 -3107.72 1217.84 -3145.38C1173.63 -3150.19 1123.31 -3155.68 1066.14 -3161.08C1036.79 -3163.86 1005.73 -3165.33 972.85 -3166.89C910.235 -3169.83 839.275 -3173.19 756.738 -3186.74C648.585 -3204.48 573.481 -3256.68 513.132 -3298.63C498.044 -3309.12 483.786 -3319.03 469.777 -3327.94C426.256 -3355.64 391.163 -3377.05 362.95 -3394.25C275.384 -3447.64 251.868 -3462 248.249 -3499.46C242.722 -3559.13 272.814 -3591.82 346.509 -3605.39C431.699 -3621.09 453.17 -3589.99 482.902 -3546.94C490.556 -3535.83 499.26 -3523.23 509.871 -3510.15C597.742 -3401.41 768.012 -3287.21 934.192 -3293.38C953.092 -3294.27 971.796 -3296.09 990.065 -3298.82C1029.14 -3304.03 1066.03 -3308.97 1126.51 -3291.46C1435.61 -3201.91 1590.1 -3349.89 1774.57 -3568.73C2046.86 -3891.86 2128.51 -3930.09 2325.81 -4022.47C2409.48 -4061.63 2513.71 -4110.39 2662.43 -4194.74C2921.37 -4341.53 2964.72 -4368.11 3024.41 -4409.82C3112.83 -4471.72 3189.76 -4479.39 3235.66 -4483.98C3248.23 -4485.23 3259.12 -4486.32 3266.6 -4488.2C3290.78 -4494.25 3302.91 -4506 3301.15 -4521.54C3299.1 -4537.91 3281.39 -4553.32 3262.46 -4555.17C3229.77 -4558.39 3209.24 -4552.95 3164.2 -4540.99C3152.1 -4537.8 3138.42 -4534.16 3122.47 -4530.17C3064 -4515.56 3046.29 -4503.19 2999.01 -4470.12C2930.93 -4422.51 2804.21 -4333.89 2415.2 -4140.15C2351.65 -4108.52 2295.14 -4083.04 2245.29 -4060.57C2103.15 -3996.5 2000.47 -3950.23 1886.98 -3828.91C1865.7 -3806.19 1845.03 -3784.01 1824.97 -3762.37C1567.99 -3486.16 1398.44 -3303.68 1176.97 -3361.28C1135.66 -3372.03 1110.49 -3390.42 1107.89 -3411.74C1105.98 -3427.92 1117.59 -3442.71 1139.94 -3452.32C1158.98 -3460.5 1180.73 -3465.09 1205.93 -3470.41C1266.88 -3483.3 1342.76 -3499.34 1436.8 -3576.66C1479.82 -3611.97 1495.32 -3627.37 1560.53 -3691.96C1610.27 -3741.13 1693.17 -3823.43 1842.38 -3967.63C1928.87 -4051.23 2006.85 -4082.17 2136.03 -4133.42C2255.98 -4181.01 2420.23 -4246.17 2679.14 -4387.62C2834.93 -4472.72 2907.25 -4524.97 2955.13 -4559.54C3044.22 -4623.88 3044.22 -4623.88 3313.39 -4646.64C3396.64 -4653.67 3500.24 -4662.43 3640.66 -4675.87C3802.06 -4691.31 3907.89 -4645.14 3931.05 -4549.2C3965.98 -4404.44 3956.53 -4337.85 3938.07 -4252.78C3921.74 -4177.33 3826.21 -4127.03 3705.29 -4063.35C3475.78 -3942.53 3129 -3759.93 2998.16 -3236.42C2936.4 -2989.25 2910.65 -2922.41 2889.98 -2868.6C2878.92 -2840.09 2869.53 -2815.48 2857.04 -2768.38C2841.79 -2710.93 2862.57 -2674.48 2880.94 -2642.34C2894.07 -2619.4 2906.36 -2597.77 2901.28 -2573.28C2888.79 -2513.89 2854.64 -2496.77 2835.38 -2491.94C2810.78 -2485.7 2782.87 -2491.68 2760.77 -2507.94C2696.77 -2554.81 2633.66 -2714.25 2684.14 -2847.73C2696.14 -2879.36 2701.72 -2892.22 2707.66 -2905.84C2721.48 -2937.42 2738.52 -2976.73 2849.03 -3284.62C3022.31 -3767.51 3293.08 -3925.97 3554.92 -4079.21C3599.66 -4105.39 3645.91 -4132.46 3690.9 -4160.69C3846.58 -4258.43 3838.29 -4387.46 3819.58 -4455.68C3798.28 -4533.13 3746.99 -4593.2 3712.42 -4600.72C3686.31 -4606.39 3657.16 -4600.4 3643.04 -4586.44C3635.85 -4579.31 3629.97 -4567.43 3642.82 -4551.13C3646.58 -4546.37 3652.6 -4540.5 3659.59 -4533.72C3686.5 -4507.53 3727.18 -4467.98 3734.78 -4403.62C3752.57 -4253 3617.2 -4174.1 3445.74 -4074.21C3339.97 -4012.58 3220.1 -3942.69 3116.53 -3843.13C2856.79 -3593.27 2833.14 -3539.34 2702.46 -3240.12C2665.24 -3154.86 2618.9 -3048.73 2556.01 -2912.7C2460.13 -2705.09 2528.38 -2620.37 2652.73 -2466.56C2686.05 -2425.28 2682.32 -2401.03 2674.17 -2347.95C2669 -2314.26 2661.96 -2268.12 2660.6 -2196.94C2654.58 -1866.52 2689.86 -1798.22 2738.86 -1703.72C2771.79 -1640.19 2812.8 -1561.13 2850.77 -1380.39C2856.85 -1351.48 2872.29 -1315.95 2897.47 -1302.87C2906.39 -1298.24 2915.81 -1296.81 2926.2 -1298.46C2943.33 -1301.27 2954.97 -1307.29 2962.84 -1317.45C2999.82 -1365.05 2953.09 -1508.63 2847.75 -1774.25C2786.41 -1928.99 2751.65 -2311.27 2793.13 -2375.87C2806.22 -2396.31 2831.09 -2408.51 2856.49 -2406.96C2876.96 -2405.7 2915.09 -2394.15 2940.21 -2330.87C2959.09 -2283.33 2959.36 -2253.63 2959.86 -2199.7C2960.14 -2167.34 2960.52 -2126.96 2965.11 -2068.76C2976.74 -1920.91 3014.41 -1796.32 3047.62 -1686.42C3095.75 -1527.1 3133.78 -1401.27 3077.85 -1273.49C3056.57 -1224.94 3062.57 -1185.7 3094.43 -1165.9C3114.77 -1153.21 3143.56 -1151.18 3166.11 -1160.98C3192.63 -1172.43 3204.46 -1196.21 3198.46 -1226.19C3191.03 -1263.53 3192.94 -1288.72 3195.95 -1330.44C3198.27 -1361.8 3201.17 -1400.82 3201.48 -1460.99V-1463.65C3201.48 -1565.47 3174.92 -1670.34 3146.82 -1781.35C3132.37 -1838.43 3117.42 -1897.44 3105.7 -1957.97C3097.74 -1999.04 3092.05 -2048.04 3086.03 -2099.92C3075.75 -2188.37 3065.11 -2279.83 3042.29 -2335.06C3032.39 -2358.91 3021.29 -2378.77 3011.48 -2396.3C2992.13 -2430.75 2976.91 -2457.96 2985.36 -2490.9C2996.86 -2535.68 3026.81 -2549.28 3043.78 -2553.4C3066.08 -2558.86 3090.56 -2554.09 3109.29 -2540.67C3193.24 -2480.58 3252.98 -2102.72 3305.95 -1769.34C3311.09 -1736.9 3316.12 -1705.05 3321.1 -1674.19C3331.87 -1607.07 3333.34 -1578.24 3339.44 -1456.81C3341.52 -1415.2 3344.17 -1362.75 3347.93 -1294.15C3350.69 -1240.81 3353.45 -1190.44 3315.32 -1142.28C3281.97 -1100.26 3283.24 -1077.05 3319.85 -1059.44C3350.99 -1044.44 3378.29 -1042.72 3401.04 -1054.3C3465.58 -1087.17 3483.93 -1214.24 3467.77 -1283.82C3434.42 -1427.2 3431.04 -1478.96 3425.49 -1564.72C3420.49 -1641.6 3413.66 -1746.9 3381.86 -1971.42C3355.55 -2157.39 3249.78 -2497.71 3237.51 -2520.93C3212.31 -2568.66 3224.91 -2587.13 3244 -2614.91C3265.31 -2646 3297.5 -2692.98 3301.73 -2816.7C3302.83 -2848.8 3303.63 -2879.73 3304.49 -2909.67C3311.56 -3185.31 3316.67 -3384.46 3549.03 -3686.91C3611.57 -3768.29 3835.06 -3883.09 3942.46 -3938.25L3955.15 -3944.77C4031.77 -3984.2 4072 -3988.14 4093.61 -3990.26C4108.01 -3991.73 4108.04 -3991.66 4107.21 -4025.23C4107.01 -4033.78 4106.76 -4044.18 4106.71 -4056.84C3955.89 -4044.34 3715.46 -3898.1 3644.2 -3852.8L3627.45 -3842.16C3525.22 -3777.31 3500.9 -3761.89 3435.05 -3665.28C3312.83 -3486.04 3247.79 -3331.75 3230.35 -3179.76C3228.17 -3160.48 3225.68 -3134.39 3222.81 -3104.01C3208.44 -2951.48 3184.34 -2696.2 3130.41 -2642.03C3111.84 -2623.34 3082.66 -2615.54 3054.28 -2621.61C3018.96 -2629.17 2995.12 -2655.21 2990.45 -2691.24C2984.37 -2739.21 2996.55 -2781.36 3016.86 -2851.14C3028.19 -2890.07 3042.29 -2938.5 3056.82 -3001.11C3062.65 -3026.22 3067.68 -3055.46 3073.4 -3089.38C3101.75 -3254.45 3144.55 -3503.89 3363.07 -3755.17C3473.85 -3882.53 3718.56 -4008.7 3893 -4092.51C3975.9 -4132.34 4021.02 -4165.12 4037.57 -4233.76C4061.17 -4331.35 4051.39 -4461.36 4043.1 -4516.48C4008.45 -4744.1 3844.51 -4757.19 3504.66 -4732.14C3424.72 -4726.25 3358.21 -4722.22 3299.27 -4718.67C3076.25 -4705.21 3001.14 -4700.68 2927 -4635.09C2737.25 -4467.54 2445.46 -4344.68 2163.61 -4225.81C2128.21 -4210.88 2093.12 -4196.11 2058.6 -4181.39L2051.72 -4178.45C1823.15 -4080.92 1823.15 -4080.92 1685.71 -3946.78C1623.73 -3886.29 1530.03 -3794.85 1373.46 -3654.19C1307.15 -3594.66 1223.36 -3554.57 1117.12 -3531.68C1052.38 -3517.72 1001.81 -3531.68 908.936 -3589.06C866.908 -3615.06 845.714 -3641.16 844.139 -3668.86C840.933 -3725.5 918.967 -3782.72 1026.87 -3861.96C1147.65 -3950.62 1297.94 -4060.98 1416.68 -4224.8C1511.4 -4355.52 1594.66 -4372.22 1675.18 -4388.37C1727.96 -4398.95 1777.81 -4408.97 1831.5 -4450.17C1874.85 -4483.46 1909.17 -4489.33 1948.93 -4496.11C1978.89 -4501.23 2012.85 -4507.03 2057.72 -4526.39C2123.57 -4554.85 2181.4 -4573.21 2232.41 -4589.42C2331.61 -4620.95 2409.98 -4645.85 2497.24 -4725.07C2611.44 -4828.73 2730.46 -4816.62 2845.41 -4804.91C2894.51 -4799.9 2940.9 -4795.18 2985.58 -4799.7C3142.76 -4815.62 3799.99 -4858.83 4016.27 -4810.69C4039.95 -4805.42 4063.49 -4798.92 4086.23 -4792.77L4106.1 -4787.37V-4878.59C4100.3 -4878.97 4095.88 -4880.46 4090.43 -4882.28C4071.53 -4888.61 4027.32 -4903.41 3807.95 -4907.16C3557.08 -4911.47 3317.28 -4904.85 3142.2 -4900.02C3007.72 -4896.32 2910.56 -4893.64 2863.12 -4897.01C2561.93 -4918.46 2508.62 -4865.29 2446.84 -4803.73C2405.86 -4762.92 2359.44 -4716.64 2238.33 -4685.75C2143.13 -4661.46 2093.03 -4641.39 2048.82 -4623.66C2014.97 -4610.11 1983.03 -4597.31 1936.61 -4585.02C1911.08 -4578.27 1884.63 -4582.99 1867.53 -4597.32C1850.42 -4611.65 1847.25 -4631.88 1859.24 -4651.26C1880.1 -4685.23 1920.03 -4712.83 1974.24 -4748.11C2030.59 -4784.76 2091.98 -4791 2214.34 -4803.43C2236.17 -4805.64 2259.93 -4808.07 2286.05 -4810.89C2314.76 -4814 2336.14 -4826.25 2346.2 -4845.4C2356.98 -4865.85 2352.61 -4890.71 2335.37 -4907.28C2313.07 -4928.74 2294.2 -4924.02 2252.89 -4913.68C2224.26 -4906.5 2185.05 -4896.68 2131.53 -4894.55C1954.32 -4887.71 1887.42 -4822.06 1833.68 -4769.32C1794.99 -4731.36 1761.59 -4698.58 1699.27 -4697.88C1620.38 -4697.03 1541.77 -4686.38 1465.42 -4676.1C1437.54 -4672.34 1409.66 -4668.58 1381.7 -4665.25C1121.01 -4634.27 1097.25 -4565.79 1057.9 -4452.36C1028.61 -4367.92 992.165 -4262.83 844.498 -4136.33C791.582 -4090.98 756.986 -4062.97 726.453 -4038.27C678.732 -3999.63 641.041 -3969.12 558.614 -3892.77C496.138 -3834.89 476.104 -3798.61 462.813 -3774.6C438.828 -3731.12 427.803 -3719.85 287.21 -3693.33C258.196 -3687.85 231.255 -3692.33 209.342 -3706.25C166.899 -3733.17 151.315 -3789.33 154.769 -3830.23C158.775 -3877.8 198.98 -3886.98 249.63 -3898.59C288.315 -3907.41 336.81 -3918.54 384.531 -3950.73C713.272 -4172.45 840.021 -4280.41 866.991 -4537.41C871.191 -4577.71 863.647 -4610.33 856.96 -4639.09C840.021 -4711.89 839.331 -4748.14 1007.89 -4775.2C1115.24 -4792.44 1639.01 -4816.84 1674.38 -4816.12C1716.08 -4815.26 1746.5 -4825.06 1760.04 -4843.72C1770.84 -4858.53 1769.13 -4877.41 1755.53 -4892.96C1737.49 -4913.63 1704.41 -4923.65 1664.79 -4920.44C1654.37 -4919.61 1642.68 -4917.28 1628.01 -4914.35C1597.06 -4908.19 1554.62 -4899.74 1483.74 -4896.7C1438.43 -4894.77 1362.41 -4892.14 1282.03 -4889.34C1160.45 -4885.13 1034.77 -4880.78 983.847 -4877.84C915.844 -4873.89 874.258 -4857.14 837.59 -4842.35C786.111 -4821.57 745.436 -4805.18 665.054 -4840.35C446.759 -4935.88 -674.78 -4897.95 -1022.03 -4883.63V-4781.64C-605.174 -4836.94 -515.48 -4832.92 -278.726 -4822.3C-203.732 -4818.94 -110.363 -4814.75 12.9322 -4811.66C238.909 -4806.01 436.867 -4774.74 617.112 -4741.8C684.562 -4729.47 719.655 -4704.24 727.641 -4662.35C741.236 -4589.69 724.242 -4484.65 703.822 -4410.59C669.392 -4285.8 553.696 -4190.91 338.247 -4049.02C180.163 -3944.92 90.8828 -3972.52 4.53195 -3999.32C-63.8856 -4020.54 -128.545 -4040.52 -229.016 -3997.68C-315.339 -3960.89 -330.509 -3888.8 -275.3 -3777.37L-268.834 -3764.42C-235.316 -3697.45 -208.872 -3644.57 -269.635 -3584.59C-299.423 -3555.16 -334.931 -3536.72 -363.419 -3521.88C-377.788 -3514.41 -390.195 -3507.95 -400.143 -3501.19C-415.323 -3491.16 -424.89 -3479.05 -427.748 -3466.25C-430.607 -3453.46 -426.642 -3440.49 -416.308 -3428.84C-396.965 -3407.44 -354.936 -3393.07 -315.035 -3408.58C-293.703 -3416.86 -278.809 -3428.59 -229.375 -3467.43C-216.747 -3477.37 -201.909 -3489.04 -184.196 -3502.84C-65.9856 -3594.9 -105.776 -3685.28 -144.24 -3772.6C-156.841 -3801.23 -168.778 -3828.27 -174.801 -3854.8C-180.328 -3879.21 -173.392 -3900.79 -155.21 -3915.53C-136.393 -3930.81 -107.158 -3937.69 -72.9213 -3934.96C45.3172 -3925.48 46.4501 -3876.99 47.7212 -3820.84C48.716 -3778.18 49.8212 -3729.84 93.7289 -3678.92C99.2554 -3672.58 104.948 -3666.45 110.695 -3660.33C143.854 -3625.15 177.897 -3588.76 152.89 -3517.88C143.163 -3490.29 123.627 -3471.02 94.8619 -3460.57C35.259 -3438.93 -12.904 -3413.49 -59.4644 -3389.02C-152.585 -3339.96 -240.539 -3293.63 -399.562 -3288.98C-482.045 -3286.53 -510.368 -3309.44 -533.772 -3352.54C-590.032 -3456.04 -554.552 -3530.43 -516.972 -3609.17C-511.307 -3621.1 -505.532 -3633.21 -499.978 -3645.6C-466.018 -3721.3 -475.717 -3810.07 -484.255 -3888.36C-496.165 -3997.23 -506.361 -4091.29 -404.674 -4126.28C-336.036 -4149.82 -255.46 -4141.51 -162.118 -4131.83C-17.8225 -4116.85 145.761 -4099.87 318.96 -4196.74C487.185 -4290.8 563.036 -4415.11 517.055 -4521.11C472.346 -4624.1 325.37 -4685.33 123.903 -4684.92C0.608206 -4684.67 -110.28 -4690.59 -217.521 -4696.31C-446.648 -4708.54 -644.523 -4719.1 -829.079 -4655.03C-859.308 -4644.54 -887.41 -4632.46 -914.573 -4620.76C-955.109 -4603.34 -990.534 -4588.08 -1021.68 -4583.23L-1021.68 -4459.98C-975.087 -4470.72 -929.052 -4491.52 -876.33 -4515.34C-752.813 -4571.15 -599.095 -4640.59 -341.977 -4618.72C-225.921 -4608.83 -171.099 -4603.15 -134.735 -4599.38C-74.2476 -4593.12 -74.2476 -4593.12 69.9099 -4589.25L135.398 -4587.44C305.254 -4582.8 368.808 -4539.31 392.185 -4503.57C420.646 -4460.13 406.775 -4402.41 354.08 -4345.18C278.755 -4263.42 124.871 -4187.32 -23.5148 -4200.06C-66.6211 -4203.76 -105.527 -4207.91 -143.163 -4211.83C-256.013 -4223.84 -345.154 -4233.31 -429.626 -4216.25C-647.175 -4172.49 -635.321 -4034.28 -622.748 -3887.93C-615.73 -3806.45 -608.518 -3722.21 -640.765 -3650.85C-686.413 -3549.78 -727.447 -3419.73 -639.162 -3310.28C-598.653 -3260.14 -620.869 -3236.72 -651.596 -3204.35C-681.439 -3172.94 -722.335 -3129.92 -731.564 -3038.01C-734.935 -3003.51 -720.345 -2979.05 -703.379 -2950.76C-699.511 -2944.35 -695.587 -2937.8 -691.774 -2930.96C-684.011 -2917.63 -686.218 -2903.23 -697.936 -2890.75C-721.727 -2865.29 -777.738 -2852.18 -818.164 -2854.19C-838.667 -2855.22 -854.97 -2861.26 -866.603 -2872.18C-904.266 -2907.49 -888.875 -2988.41 -869.366 -3090.71C-853.478 -3173.97 -835.489 -3268.38 -844.276 -3354.24C-858.341 -3491.19 -853.616 -3522.2 -845.022 -3578.51C-834.798 -3645.97 -819.269 -3747.9 -825.182 -4116.22V-4120.84C-826.011 -4175.7 -827.199 -4237.88 -733.001 -4285.62C-512.468 -4397.44 -338.108 -4375.15 -184.279 -4355.45C-92.5955 -4343.68 -6.02353 -4332.63 82.0405 -4349.93C94.5303 -4352.39 107.517 -4354.65 120.56 -4356.9C174.581 -4366.24 230.398 -4375.9 247.668 -4400.79C255.958 -4412.8 255.295 -4427.96 245.43 -4447.16C237.776 -4462.07 226.336 -4471.79 211.415 -4476.09C191.547 -4481.81 165.048 -4478.33 132.58 -4465.7C26.7759 -4424.51 -68.7488 -4438.66 -200.942 -4458.16C-218.212 -4460.7 -236.062 -4463.33 -254.631 -4465.94C-419.015 -4489.02 -669.281 -4459.33 -829.382 -4357.93C-917.64 -4302.02 -964.283 -4231.23 -964.283 -4153.06V-4152.76C-964.145 -4058.06 -962.736 -3989.11 -961.52 -3933.72C-959.392 -3830.46 -958.259 -3773.59 -968.511 -3685.99C-985.09 -3544.74 -986.804 -3425.32 -973.706 -3331.03C-967.406 -3285.86 -974.535 -3216.27 -981.996 -3142.7C-992.772 -3036.86 -1003.96 -2927.41 -976.469 -2882.49C-950.882 -2840.71 -966.77 -2818.64 -982.134 -2797.32C-992.606 -2782.78 -1002.25 -2769.01 -1001.31 -2747.97C-999.21 -2711.69 -959.309 -2694.7 -920.707 -2678.27C-885.172 -2663.14 -851.626 -2648.84 -860.911 -2620.59C-864.752 -2609 -872.903 -2600.58 -885.172 -2595.58C-918.027 -2582.15 -973.789 -2597.05 -1018.55 -2608.94L-1021.65 -2609.76V-2563.93C-1012.97 -2562.06 -1004.6 -2560.18 -996.53 -2558.37C-926.538 -2542.63 -880.281 -2532.23 -817.722 -2573.75C-783.485 -2596.49 -766.657 -2617.52 -768.398 -2636.08C-770.691 -2664.21 -813.107 -2686 -850.494 -2705.23C-860.828 -2710.54 -870.776 -2715.65 -879.425 -2720.64C-902.166 -2733.78 -911.34 -2753.42 -903.326 -2771.79C-895.203 -2790.52 -871.991 -2802.34 -842.729 -2802.69C-824.519 -2802.87 -808.824 -2802.69 -794.897 -2802.49C-743.253 -2801.81 -717.334 -2801.47 -675.664 -2822.77C-587.517 -2867.78 -576.602 -2868.5 -504.068 -2861.32C-445.404 -2855.52 -336.229 -2844.73 -84.9414 -2857.2C87.2353 -2865.75 213.708 -2849.93 312.052 -2744.74C346.205 -2708.24 327.388 -2689.62 248.276 -2611.34C235.593 -2598.8 221.307 -2584.63 205.308 -2568.52C93.2039 -2455.71 50.2082 -2345.33 -9.31176 -2192.57C-32.8268 -2132.25 -31.611 -2078.15 -30.6439 -2034.73C-30.3676 -2022.77 -30.1466 -2011.48 -30.3676 -2000.89C-30.8926 -1978.31 -42.7192 -1959.3 -62.8631 -1948.73C-76.5135 -1941.57 -92.0152 -1939.57 -105.444 -1943.22C-147.943 -1954.81 -143.439 -1983.9 -133.574 -2047.68C-118.818 -2143.88 -41.2547 -2480.57 30.3958 -2560.24C71.4297 -2605.85 106.854 -2645.16 95.4145 -2682.91C77.0391 -2743.58 -10.9421 -2767.57 -173.586 -2756.29C-239.212 -2751.74 -295.997 -2758.96 -350.902 -2765.95C-399.949 -2772.19 -446.233 -2778.08 -496.11 -2775.43C-598.957 -2769.98 -647.728 -2733.34 -658.228 -2703.6C-662.957 -2690.91 -661.583 -2677.79 -654.235 -2665.47C-646.887 -2653.14 -633.803 -2642 -616.199 -2633.08C-574.088 -2611.5 -522.056 -2602.83 -461.818 -2592.81C-437.667 -2588.8 -412.688 -2584.65 -386.879 -2579.37C-290.498 -2559.71 -292.128 -2525.08 -298.87 -2379.27C-299.755 -2359.81 -300.777 -2338.27 -301.634 -2314.4C-304.121 -2247.28 -313.294 -2122.36 -346.785 -2039.69C-359.219 -2008.97 -398.429 -1986.72 -442.116 -1985.6C-484.311 -1984.51 -519.21 -2003.08 -535.458 -2035.27C-555.795 -2075.6 -554.358 -2101.32 -551.789 -2147.97C-550.545 -2170.84 -549.025 -2199.31 -549.495 -2237.4C-549.771 -2256.7 -550.379 -2264.2 -551.54 -2279.15C-552.977 -2297.19 -555.353 -2327.38 -559.084 -2404.37C-559.885 -2421.66 -571.131 -2435.48 -589.12 -2441.32C-603.875 -2446.11 -620.234 -2444.26 -631.784 -2436.46C-644.191 -2428.09 -644.219 -2428.09 -637.31 -2408.93C-629.021 -2385.92 -613.464 -2343.05 -608.518 -2244.05C-607.219 -2217.42 -607.633 -2192.24 -608.048 -2167.88C-609.264 -2093.15 -610.397 -2028.59 -559.001 -1967.14C-527.638 -1929.64 -482.874 -1916.26 -425.868 -1927.41C-418.607 -1928.95 -411.577 -1930.78 -404.84 -1932.89C-398.733 -1934.68 -392.627 -1936.48 -386.382 -1937.9C-362.397 -1943.38 -341.7 -1939.24 -329.597 -1926.55C-313.626 -1909.82 -316.748 -1882.63 -337.086 -1860.43C-350.681 -1845.6 -405.476 -1799.49 -539.52 -1828.06C-678.427 -1857.66 -688.182 -1995.78 -700.561 -2170.48C-705.645 -2242.46 -710.923 -2316.88 -725.43 -2393.13C-726.286 -2397.55 -727.309 -2402.08 -728.193 -2406.55C-735.433 -2438.82 -743.639 -2475.38 -688.817 -2499.02C-650.685 -2515.47 -585.389 -2512.41 -536.84 -2491.93C-489.865 -2472.07 -462.951 -2438.96 -460.878 -2398.62L-460.436 -2389.4C-453.611 -2254.52 -450.157 -2186.84 -470.66 -2116.65C-477.845 -2092.01 -467.455 -2075.22 -456.319 -2068.36C-448.941 -2063.82 -440.734 -2062.74 -433.136 -2065.42C-417.883 -2070.66 -407.99 -2089.28 -406.636 -2115.25C-391.135 -2412.95 -391.494 -2413.73 -408.571 -2456.12L-410.588 -2461.09C-436.369 -2525.66 -566.848 -2553.57 -646.899 -2552.09C-698.599 -2551.15 -751.211 -2532.27 -780.915 -2503.99C-800.519 -2485.62 -808.183 -2464.32 -802.717 -2443.39C-776.135 -2343.17 -767.541 -2245.75 -759.252 -2151.56C-748.613 -2030.74 -739.412 -1926.46 -694.288 -1847.51C-635.735 -1745.17 -470.467 -1733.22 -371.764 -1757.41C-295.223 -1776.17 -278.809 -1819.92 -267.978 -1848.89C-266.264 -1853.42 -264.717 -1857.5 -263.169 -1860.91C-241.865 -1907.49 -201.798 -1921 -173.586 -1913.88C-145.373 -1906.76 -123.654 -1877.1 -143.881 -1829.44L-148.33 -1818.83C-187.015 -1726.92 -214.951 -1660.53 -337.694 -1645.75C-445.218 -1632.53 -557.737 -1636.95 -660.466 -1658.41C-799.042 -1686.85 -810.344 -1763.75 -835.047 -1932.26C-838.363 -1954.72 -841.9 -1978.89 -846.1 -2004.88C-854.859 -2059.93 -857.567 -2121.4 -860.192 -2180.86C-864.558 -2279.53 -868.676 -2372.73 -898.574 -2430.71C-922.365 -2476.83 -963.675 -2484.31 -1011.51 -2492.96C-1014.91 -2493.58 -1018.3 -2494.18 -1021.7 -2494.83L-1021.7 -2453.13C-939.304 -2440.4 -933.584 -2339.36 -930.517 -2284.3L-926.482 -2212.53C-900.674 -1750.64 -893.738 -1626.49 -693.57 -1577.41C-557.508 -1544.06 -381.325 -1553.42 -275.024 -1576.22C-121.195 -1609.28 -65.5711 -1745.42 -65.5711 -1829.28V-1830.46C-65.5711 -1884.59 -29.1794 -1909.35 6.96361 -1909.91C36.8341 -1910.35 69.4402 -1892.84 71.0152 -1859.56C71.7889 -1842.86 68.8322 -1826.28 65.4887 -1809.36C3.70298 -1501.27 -19.3423 -1485.09 -89.473 -1476.45C-152.806 -1468.66 -208.043 -1461.34 -257.118 -1454.86C-568.893 -1413.66 -633.746 -1405.02 -936.54 -1519.3C-1014.96 -1548.9 -1015.13 -1575.13 -1015.73 -1662.01C-1015.73 -1677.75 -1015.98 -1695.64 -1016.56 -1716.05L-1018.28 -1774.9C-1019.68 -1823.32 -1020.99 -1868.81 -1022.23 -1911.39C-1022.06 -1785.72 -1021.84 -1636.69 -1021.84 -1466.23L-999.21 -1455.77C-858.037 -1390.35 -664.694 -1300.72 -445.487 -1334.45C-331.753 -1351.98 -246.369 -1367.05 -184.003 -1378.04C-22.2713 -1406.57 11.3848 -1412.51 60.9571 -1377.16C133.879 -1325.15 194.946 -1283.6 248.857 -1246.94C386.521 -1153.33 485.997 -1085.64 646.126 -937.202C729.437 -860.004 751.294 -785.514 774.45 -706.653C793.185 -642.844 812.583 -576.887 863.785 -498.203C880.613 -472.338 930.103 -419.917 993.077 -353.547C1143.42 -194.738 1370.56 45.2715 1385.98 178.142C1387.34 187.368 1384.75 196.637 1378.42 205.255C1372.09 213.872 1362.18 221.615 1349.42 227.901C1258.07 274.143 1020.99 263.359 744.579 153.19C707.165 138.3 670.801 126.809 632.282 114.657C569.28 94.7944 504.151 74.2408 427.361 36.3996C365.023 5.69406 312.577 -19.1264 270.41 -39.0769C47.9423 -144.332 47.9423 -144.332 -48.9364 -355.048C-71.5673 -404.262 -99.7246 -465.496 -137.36 -542.385C-150.236 -568.692 -176.266 -584.655 -208.762 -586.141C-235.537 -587.377 -261.263 -577.931 -271.293 -563.175C-280.219 -550.007 -275.825 -533.926 -258.886 -517.874C-208.623 -470.381 -175.99 -410.75 -82.0399 -215.468C-20.8897 -88.1879 74.6074 -45.9183 391.163 94.1619L459.995 124.661C466.544 127.133 820.983 253.236 824.05 254.31C918 286.928 1157.93 357.299 1359.2 306.717C1421.54 291.033 1480.04 302.024 1519.75 336.834C1551.91 365.053 1563.32 403.748 1546.88 428.774C1535.17 446.606 1511.32 455.522 1479.71 453.889C1459.62 452.844 1440.06 448.754 1420.08 444.311C1357.16 430.26 1297.47 428.45 1234.33 426.538C1138.78 423.595 1030.52 420.329 876.551 376.279C810.427 357.358 764.447 338.188 711.255 315.957C655.41 292.666 592.16 266.257 488.732 232.947C401.387 204.817 352.643 184.395 255.544 143.773C195.886 118.806 114.122 84.5987 -6.71432 36.2232L-20.6687 30.7059C-87.2625 4.4878 -162.726 -25.2321 -196.548 -123.587C-280.412 -367.524 -349.437 -457.463 -386.492 -505.78C-410.256 -536.677 -421.06 -550.86 -408.377 -576.269C-377.982 -637.135 -351.676 -677.463 -267.812 -682.936C-84.6098 -694.927 -11.1079 -584.464 43.4106 -479.989L60.2939 -447.621C178.394 -220.691 178.394 -220.691 381.16 -103.224C428.908 -75.5202 488.373 -41.0485 563.036 4.29625C607.247 31.1323 639.605 43.3 664.418 21.0837C672.364 14.4002 675.966 6.51189 674.67 -1.36795C669.862 -29.2192 606.059 -62.8525 532.17 -101.768C413.6 -164.253 266.016 -242.01 216.002 -359.079C209.481 -374.322 203.245 -389.034 197.295 -403.218C133.74 -553.817 95.4146 -644.713 -34.9545 -711.862C-159.604 -776.024 -309.232 -768.785 -402.215 -733.136C-475.275 -705.109 -488.179 -663.898 -499.564 -627.543C-501.829 -620.275 -504.012 -613.36 -506.555 -606.945C-516.723 -581.315 -536.95 -565.896 -560.686 -565.749C-597.382 -565.426 -632.889 -600.677 -660.632 -665.016C-709.431 -778.304 -877.269 -838.082 -1021.84 -857.018V-772.14C-907.416 -765.652 -828.111 -730.282 -779.617 -664.148C-741.318 -611.977 -715.234 -579.8 -697.963 -558.51C-666.463 -519.683 -660.77 -512.68 -659.527 -480.96C-657.786 -436.924 -644.826 -414.443 -623.384 -377.19C-594.674 -327.299 -551.291 -251.912 -500.116 -67.2959L-496.994 -56.026C-459.635 79.1694 -434.959 168.476 -265.076 220.118C-153.58 253.957 -30.2018 300.096 88.9762 344.661C276.323 414.664 453.004 480.739 521.007 473.751C533.191 472.596 544.429 469.5 553.236 464.871C562.044 460.242 568.004 454.299 570.33 447.827C572.296 442.745 572.075 437.492 569.682 432.461C567.289 427.431 562.787 422.755 556.514 418.784C534.049 404.66 527.058 403.556 506.224 400.275C470.163 394.626 395.114 382.841 142.445 285.619C21.0284 238.95 -71.3186 207.935 -138.741 185.278C-359.8 111.052 -362.369 108.36 -426.366 -103.577C-433.329 -126.647 -441.066 -152.262 -449.908 -180.775C-473.838 -257.635 -498.873 -307.305 -520.979 -351.134C-538.884 -386.68 -554.358 -417.342 -565.632 -455.124C-571.38 -474.251 -560.769 -498.747 -536.508 -503.382C-498.32 -510.65 -415.617 -471.529 -291.05 -127.618C-257.146 -34.0009 -218.184 25.3945 -109.645 71.004C273.256 232.182 416.64 280.631 502.327 309.571C560.493 329.227 592.547 340.056 654.664 371.159C840.298 464.114 1067.52 493.275 1250.08 516.595C1317.45 525.216 1381.09 533.367 1433.4 543.666C1526.3 561.954 1548.24 674.256 1553.32 721.69C1557.44 759.634 1546.72 788.633 1520.66 810.54C1462.63 859.269 1341.05 861.035 1212.15 862.918C1114.05 864.389 1012.61 865.86 941.349 889.401L932.893 892.196C874.424 911.602 801.64 935.746 685.391 938.777C653.006 939.63 622.417 940.586 593.459 941.484C352.809 948.973 220.257 953.107 108.319 861.373C67.8928 828.063 23.6259 813.866 -13.0145 822.443C-35.9216 827.769 -51.6997 841.57 -55.3748 859.225C-60.3762 884.237 -40.9783 910.323 -1.87867 930.803C214.454 1044.16 441.426 1056.77 715.676 1040.84C814.296 1035.12 873.346 1018.08 930.434 1001.62C999.515 981.679 1064.81 962.847 1191.39 963.185C1429.36 963.818 1581.75 930.729 1644.34 864.875C1712.1 793.592 1668.33 694.56 1633.07 614.993C1612.68 568.81 1595.07 528.939 1603.53 503.25C1609.61 484.918 1624.06 472.353 1643.21 468.94C1663.19 465.306 1696.82 469.587 1743.65 510.577C1806.52 565.544 1821.66 632.34 1836.3 696.929C1855.65 782.513 1874.05 863.359 2001.43 909.028C2209.12 983.489 2521.17 964.936 2750.13 755.75C2754.19 752.043 2758.17 748.114 2762.23 744.098C2788.87 717.703 2822.06 684.864 2906.58 691.029C3083.62 703.917 3131.12 666.12 3225.76 590.82C3291.56 538.443 3381.69 466.733 3554.81 385.916C3712.95 312.117 3823.86 313.206 3863.6 347.03C3882.06 362.714 3882.42 384.077 3864.48 401.467C3840.94 424.331 3813.45 436.116 3731.85 471.088L3720.27 476.061C3219.52 690.867 3285.62 808.819 3385.67 987.476L3387.25 990.301C3725.47 1594.19 3452.82 1925.62 3272.44 2144.93C3182.11 2254.74 3116.87 2334.1 3165.25 2403.49L3178.21 2422.13C3234.44 2503.55 3275.09 2562.37 3362.96 2546.69C3386.39 2542.51 3403.94 2532.26 3411.09 2518.57C3417.97 2505.33 3414.52 2490.25 3401.12 2474.91C3395.01 2467.93 3379.9 2455.21 3365.2 2442.89C3352.32 2432.06 3340.16 2421.82 3333.36 2414.94C3266.69 2347.01 3302.72 2302.37 3368.07 2221.33C3438.67 2133.81 3545.41 2001.54 3610.96 1743.26C3692.06 1423.77 3583.57 1191.04 3504.41 1021.12C3450.03 904.511 3410.79 820.236 3460.8 761.253C3503.08 711.362 3652.99 601.929 3813.45 534.574C3850.31 519.041 3885.09 502.159 3917.54 484.05C3970.95 455.022 3996.07 441.383 4106.29 440.176V360.845C4048.63 370.82 3986.45 354.96 3969.13 324.578C3966.24 319.423 3964.78 314.069 3964.82 308.689ZM1788.39 -4560.03C1788.39 -4546.37 1780.82 -4533.04 1766.78 -4523.36C1724.42 -4494.16 1695.6 -4484.8 1567.33 -4450.09C1404.3 -4405.95 1350.22 -4329.96 1268.38 -4214.92L1263.02 -4207.42C1173.71 -4081.94 1056.8 -4000.34 953.535 -3928.35C840.795 -3849.65 751.819 -3787.49 737.727 -3696.81C719.738 -3579.48 846.404 -3524.93 930.324 -3488.84C961.272 -3475.59 985.588 -3465.03 998.327 -3453.91C1012.85 -3441.45 1017.95 -3426.52 1012.61 -3412.14C1007.09 -3398.35 991.059 -3387.92 968.981 -3383.55C786.166 -3347.33 628.745 -3526.13 553.088 -3612.05C521.338 -3648.16 519.929 -3686.59 549.247 -3726.3C636.316 -3844.44 737.064 -3922.42 834.495 -3997.7C963.565 -4097.53 1085.48 -4191.82 1170.01 -4370.64C1182.99 -4398.08 1191.12 -4421.29 1198.3 -4441.75C1226.27 -4521.49 1237.82 -4554.49 1454.92 -4582.49C1645.59 -4607.06 1671.78 -4610.17 1722.1 -4609.11C1751.14 -4608.5 1775.01 -4596.2 1784.35 -4577.02C1787.06 -4571.47 1788.41 -4565.76 1788.39 -4560.03ZM718.578 -3673.99C718.578 -3681.82 719.186 -3689.93 720.512 -3698.36C735.267 -3793.99 831.041 -3860.74 941.819 -3938.18C1044.06 -4009.46 1159.73 -4090.28 1247.68 -4213.79L1252.99 -4221.28C1336.77 -4338.98 1392.11 -4416.83 1561.47 -4462.66C1688.89 -4497.14 1714.8 -4505.5 1754.9 -4533.28C1769.46 -4543.33 1774.52 -4558.7 1767.86 -4572.5C1760.92 -4586.7 1743.6 -4595.47 1721.46 -4595.93C1672.8 -4596.94 1646.86 -4593.88 1457.71 -4569.44C1251.69 -4542.96 1242.46 -4516.55 1215.05 -4438.37C1207.78 -4417.65 1199.54 -4394.23 1186.34 -4366.2C1100.48 -4184.64 977.271 -4089.34 846.819 -3988.45C750.106 -3913.72 650.298 -3836.45 564.472 -3719.87C538.332 -3684.38 539.355 -3651.54 567.595 -3619.48C641.014 -3536.09 793.737 -3362.6 964.56 -3396.44C972.508 -3398.02 979.562 -3400.66 985.051 -3404.11C990.541 -3407.55 994.283 -3411.69 995.923 -3416.12C999.708 -3425.32 995.729 -3435.93 985.091 -3445.27C974.452 -3454.61 949.998 -3465.16 921.702 -3477.33C839.635 -3512.64 718.439 -3564.75 718.439 -3674.04M-12.0198 -2654.05C-12.1446 -2646.63 -14.4092 -2639.28 -18.7344 -2632.23C-26.7477 -2618.87 -36.3085 -2608.85 -46.3667 -2598.24C-68.4725 -2574.94 -91.6007 -2550.82 -104.146 -2485.18C-104.615 -2482.66 -106.688 -2472.42 -109.949 -2456.43C-126.086 -2376.67 -175.244 -2134 -194.669 -2018.47C-199.146 -1991.83 -216.526 -1968.67 -238.881 -1959.47C-251.426 -1954.34 -264.468 -1954 -276.599 -1958.49C-310.586 -1971.08 -306.994 -1984.01 -292.957 -2032.05C-282.18 -2069.22 -264.137 -2131.44 -248.524 -2238.16C-195.857 -2598.01 -200.057 -2598.63 -419.513 -2633.79C-436.286 -2636.48 -454.274 -2639.35 -473.562 -2642.62C-557.26 -2656.68 -560.051 -2681.91 -557.287 -2692.04C-551.07 -2715.44 -501.829 -2730.72 -453.998 -2724.08C-422.138 -2719.67 -394.699 -2715.62 -370.41 -2712.05C-269.083 -2697.16 -222.854 -2690.36 -141.947 -2698.1C-66.4 -2705.34 -34.8716 -2690.74 -21.7463 -2677.15C-15.0583 -2670.01 -11.685 -2662.12 -11.9092 -2654.14M-285.662 -1987.02C-285.662 -1977.35 -280.44 -1974.77 -268.917 -1970.51C-261.981 -1967.93 -254.659 -1968.18 -247.198 -1971.24C-230.121 -1978.25 -215.614 -1998.39 -211.939 -2020.24C-192.597 -2135.92 -143.301 -2378.74 -127.163 -2458.53C-123.931 -2474.46 -121.858 -2484.67 -121.388 -2487.16C-108.208 -2556.06 -82.7031 -2582.66 -60.5973 -2606.11C-51.0089 -2616.16 -41.9455 -2625.67 -34.6783 -2637.82C-27.411 -2649.97 -27.936 -2661.01 -35.9493 -2669.28C-50.3734 -2684.17 -88.2572 -2689.87 -139.902 -2684.93C-223.572 -2676.91 -270.658 -2683.84 -373.837 -2699.01C-398.098 -2702.59 -425.509 -2706.62 -457.259 -2711.02C-498.569 -2716.74 -536.453 -2703.88 -540.294 -2689.42C-543.057 -2679.22 -525.925 -2664.99 -469.914 -2655.58C-450.572 -2652.36 -432.776 -2649.49 -416.059 -2646.75C-181.35 -2609.22 -177.924 -2601.51 -231.309 -2236.66C-247.032 -2129.26 -265.187 -2066.6 -276.019 -2029.21C-282.346 -2007.36 -285.8 -1994.84 -285.8 -1987" fill="#B7DC58" fill-opacity="0.2"/>
<path d="M1232.65 138.3C1232.65 157.647 1219.3 173.993 1194.82 183.586C1161.25 196.827 1108.88 194.782 1079.43 168.637C1059.06 150.555 1058.37 137.608 1057.32 119.673C1056.08 96.5596 1054.34 64.9125 1010.35 -2.89856C925.682 -132.753 839.745 -206.082 756.517 -276.997C723.552 -305.113 689.426 -334.171 656.212 -366.171C580.886 -438.676 548.087 -525.231 513.353 -616.862C507.025 -633.62 500.559 -650.701 493.734 -667.989C435.457 -815.528 238.329 -951.768 94.3923 -1051.24C-45.5099 -1147.95 -111.496 -1134.19 -242.942 -1106.78C-305.944 -1093.63 -384.392 -1077.36 -491.384 -1069.79C-605.865 -1061.8 -725.043 -1102.16 -830.239 -1137.72C-904.321 -1162.81 -974.341 -1186.48 -1031.15 -1189.31L-1039.3 -1189.72V-1302.08L-1029.85 -1301.49C-940.602 -1295.9 -843.806 -1264.88 -744.192 -1230.87C-573.95 -1172.71 -446.979 -1200.49 -324.181 -1227.35C-166.677 -1261.8 -18.0435 -1294.33 195.305 -1140.28L203.07 -1134.68C430.484 -970.35 580.776 -861.814 670.111 -622.35C740.877 -432.643 806.448 -376.882 889.428 -306.276C961.604 -245.07 1051.1 -168.829 1168.85 18.6115C1206.39 78.3943 1226.82 113.332 1230.13 123.425C1231.77 128.336 1232.62 133.312 1232.65 138.3ZM-1021.84 -1202.03C-963.648 -1197.41 -895.285 -1174.28 -823.11 -1149.86C-719.903 -1114.93 -602.908 -1075.36 -493.015 -1083.04C-387.515 -1090.39 -309.896 -1106.58 -247.557 -1119.58C-114.287 -1147.39 -40.8677 -1162.69 106.136 -1061.07C251.565 -960.552 450.766 -822.884 510.424 -671.829C517.304 -654.453 523.77 -637.342 530.126 -620.555C565.854 -526.275 596.719 -444.87 669.89 -374.41C702.8 -342.719 736.732 -313.809 769.559 -285.84C853.506 -214.262 940.354 -140.183 1025.93 -8.73957C1071.72 61.6168 1073.6 96.2506 1074.9 119.173C1075.81 136.122 1076.33 145.465 1092.77 160.06C1116.26 180.908 1159.89 182.408 1186.86 171.83C1200.51 166.46 1222.09 153.454 1213.22 126.603C1211.51 121.395 1201.51 101.297 1153.84 25.4088C1036.46 -161.443 951.463 -233.727 876.469 -297.521C791.969 -369.408 725.237 -426.17 653.338 -618.819C565.274 -854.708 416.363 -962.214 190.967 -1125.01L183.175 -1130.62C-22.8514 -1279.42 -166.871 -1247.91 -319.346 -1214.48C-445.183 -1186.95 -575.276 -1158.57 -751.376 -1218.64C-845.962 -1251.01 -937.894 -1280.44 -1021.84 -1287.45V-1202.03Z" fill="#B7DC58" fill-opacity="0.2"/>
<path d="M1428.75 692.338C1428.72 701.412 1426.74 710.455 1422.87 719.292C1399.41 773.405 1331.1 763.003 1290.23 756.794C1282.97 755.602 1275.59 754.62 1268.13 753.852C1244.47 751.763 1222.51 750.277 1201.64 748.879C1114.24 742.994 1045.22 738.359 958.481 695.913C784.398 610.756 709.376 619.671 614.542 630.971C535.431 640.387 445.792 651.069 280.192 612.992C167.01 587.039 60.5426 548.668 -42.4152 511.606C-137.222 477.473 -226.778 445.222 -305.391 429.494C-327.497 425.081 -348.691 421.358 -368.946 417.798C-482.238 397.862 -571.85 382.119 -635.266 274.246C-686.109 187.779 -704.346 81.9057 -723.689 -30.1907C-747.204 -166.828 -771.493 -308.115 -859.916 -410.545C-878.789 -432.423 -893.351 -453.212 -907.416 -473.324C-941.459 -522.038 -968.345 -560.497 -1033.03 -574.607L-1039.36 -575.975V-679.876L-1028.45 -677.714C-945.162 -661.25 -880.253 -621.217 -835.544 -558.732L-827.531 -547.55C-772.487 -470.72 -715.565 -391.271 -681.854 -305.319C-641.124 -201.447 -620.759 -102.886 -602.825 -15.9341C-568.313 151.247 -543.361 272.039 -401.635 299.184C-213.183 335.274 -56.5076 391.315 81.709 440.764C238.992 497.011 374.832 545.593 496.193 539.134C534.436 537.104 568.783 532.41 601.997 527.864C693.183 515.388 779.479 503.603 916.563 552.979C930.02 557.819 942.814 562.557 955.248 567.132C1056.93 604.826 1130.41 632.06 1326.54 621.996C1360.31 620.26 1390.54 629.897 1409.44 648.479C1422.21 660.955 1428.78 676.198 1428.78 692.367M-1021.84 -585.891C-954.556 -569.148 -925.46 -527.526 -891.969 -479.548C-878.153 -459.715 -863.757 -439.191 -845.326 -417.828C-754.72 -312.852 -730.127 -170.035 -706.363 -31.9121C-687.242 79.1986 -669.17 184.145 -619.377 268.831C-559.498 370.673 -477.927 385.062 -365.16 404.865C-344.74 408.455 -323.408 412.222 -301.109 416.636C-220.975 432.672 -130.645 465.188 -35.065 499.586C67.3125 536.442 173.172 574.621 284.972 600.251C446.869 637.445 534.408 627.013 611.668 617.803C706.281 606.533 787.99 596.808 967.765 684.702C1050.97 725.383 1118.14 729.899 1203.14 735.608C1224.14 737.079 1246.3 738.551 1270.06 740.625C1278 741.447 1285.85 742.493 1293.58 743.759C1344.97 751.586 1388.91 754.823 1406.15 715.098C1415.44 693.633 1411.68 672.284 1395.51 656.556C1380.18 641.549 1355.42 633.781 1327.57 635.208C1126.79 645.507 1051.55 617.626 947.428 579.035C935.104 574.474 922.393 569.766 909.019 564.94C776.964 517.388 697.301 528.291 605.064 540.899C571.38 545.505 536.536 550.257 497.298 552.346C371.544 559.084 233.825 509.811 74.3311 452.77C-63.167 403.585 -219.041 347.839 -405.835 312.057C-558.779 282.764 -584.45 158.338 -620.04 -13.8743C-637.891 -100.415 -658.145 -198.505 -698.544 -301.538C-731.702 -386.136 -788.21 -464.967 -842.812 -541.209L-850.853 -552.39C-891.168 -608.74 -948.671 -645.758 -1021.84 -662.53V-585.891Z" fill="#B7DC58" fill-opacity="0.2"/>
<path d="M1236.79 3149.47C1236.96 3158.28 1233.51 3167.01 1226.68 3175.04C1210.96 3192.7 1181.03 3200.27 1144.56 3195.64C1097.97 3189.75 1016.79 3192.01 922.753 3194.58C751.184 3199.24 537.669 3205.07 405.007 3165.64C335.539 3145.04 286.188 3117.18 49.5176 2983.5L43.4108 2980.05C-89.3899 2905.02 -209.48 2889.6 -361.54 2870C-434.931 2860.54 -518.105 2849.82 -613.215 2830.87C-782.822 2797.03 -878.761 2765.31 -955.855 2739.78C-982.658 2730.95 -1008 2722.51 -1033.75 2714.89L-1039.28 2713.24V2708.71C-1039.28 2411.98 -1040.24 1979.88 -1041.27 1522.42C-1042.37 1036.31 -1043.48 533.631 -1043.53 149.055C-1043.53 -59.1015 -1043.31 -212.217 -1042.68 -319.355C-1042.01 -437.925 -1041.79 -481.196 -1038.89 -496.879C-1038.87 -497.11 -1038.87 -497.341 -1038.89 -497.571H-1038.61C-1036.96 -505.854 -1034.47 -505.869 -1030.6 -505.884C-1026.73 -505.898 -1024.49 -505.884 -1022.67 -497.703L-1022.17 -497.6C-1022.17 -497.291 -1022.17 -496.835 -1022.37 -496.262C-1018.8 -477.576 -1017.81 -422.698 -1014.85 -261.726C-986.333 1022.9 -987.632 1741.72 -988.323 2127.96C-989.152 2620.46 -988.157 2620.84 -933.252 2639C-615.757 2744.22 -427.581 2770.31 -276.599 2791.26C-133.85 2811.06 -30.6713 2825.36 105.583 2898.12C173.476 2934.36 228.381 2964.88 272.51 2989.34C401.442 3061.02 454.883 3090.68 543.306 3104.1C688.32 3126 1004.02 3108.73 1134.17 3096.92C1176.53 3093.08 1210.49 3102.93 1227.4 3123.96C1233.72 3132.01 1236.95 3140.67 1236.88 3149.4M-1021.84 2704.2C-997.69 2711.47 -973.927 2719.34 -948.864 2727.64C-872.323 2752.98 -777.074 2784.52 -608.766 2818.07C-514.402 2836.87 -431.643 2847.49 -358.611 2856.95C-204.257 2876.84 -82.2884 2892.56 53.8282 2969.43L59.9349 2972.87C295.141 3105.67 344.05 3133.24 411.39 3153.31C540.681 3191.73 752.179 3185.97 922.145 3181.34C1017.09 3178.75 1098.99 3176.51 1147.38 3182.57C1176.83 3186.27 1200.46 3180.81 1212.17 3167.6C1221.65 3156.92 1221.73 3142.59 1212.39 3130.93C1199.21 3114.51 1171.42 3106.94 1136.16 3110.14C980.863 3124.22 681.606 3138.58 539.825 3117.16C447.45 3103.2 393.18 3073.02 262.01 3000.09C217.964 2975.61 163.114 2945.13 95.3871 2908.96C-37.8005 2837.88 -139.349 2823.79 -279.914 2804.29C-431.892 2783.23 -621.035 2756.99 -939.524 2651.44C-1006.86 2629.12 -1006.95 2629.15 -1005.84 2127.92C-1005.18 1773.34 -1004.05 1138.19 -1025.96 42.0046C-1026.26 440.014 -1024.88 1000.66 -1023.72 1522.43C-1022.7 1977.58 -1021.76 2407.62 -1021.73 2704.2" fill="#B7DC58" fill-opacity="0.2"/>
<path d="M966.936 92.6905C966.936 110.669 954.336 125.809 931.291 133.886C896.833 145.848 845.631 138.3 818.468 100.886C809.902 89.1153 802.138 72.431 793.185 53.2014C774.035 12.1528 747.785 -44.0646 694.814 -90.9836C644.689 -135.357 558.172 -193.428 511.584 -224.605C500.946 -231.726 492.38 -237.464 486.715 -241.318C366.487 -324.637 327.94 -408.602 274.582 -524.804C264.496 -546.873 253.858 -569.957 242.031 -594.454C168.557 -747.231 -35.065 -890.048 -247.972 -864.58C-275.107 -861.329 -301.219 -857.621 -326.724 -854.016C-454.108 -835.964 -564.14 -820.368 -705.894 -871.422C-742.534 -884.663 -773.952 -896.301 -801.639 -906.6C-903.879 -944.647 -955.275 -963.744 -1031.51 -970.012L-1039.3 -970.659V-1078.18L-1030.19 -1077.86C-920.845 -1073.96 -838.584 -1041.34 -759.003 -1009.77C-659.527 -970.262 -565.356 -932.95 -429.543 -959.124C-417.302 -961.478 -405.227 -963.862 -393.262 -966.216C-242.224 -995.965 -111.745 -1021.67 31.5288 -947.089C321.253 -796.504 376.683 -663.074 430.29 -534.073C467.87 -443.589 503.377 -358.123 622.224 -275.025C784.95 -161.222 818.606 -130.252 879.37 -38.3266C894.733 -15.0216 916.425 12.4472 933.971 34.5163C950.025 54.8493 959.282 66.6195 961.88 72.0044C965.203 78.758 966.902 85.709 966.936 92.6905ZM-1021.84 -982.518C-946.819 -975.367 -894.733 -956.035 -793.958 -918.517C-766.325 -908.218 -734.963 -896.58 -698.433 -883.412C-561.764 -834.198 -454.329 -849.426 -329.929 -867.067C-304.259 -870.701 -277.98 -874.423 -250.707 -877.689C-28.9031 -904.172 182.401 -756.839 258.556 -599.015C270.41 -574.459 281.076 -551.243 291.217 -529.174C343.718 -414.811 381.657 -332.184 498.597 -251.102C504.124 -247.277 512.607 -241.613 523.135 -234.536C570.109 -203.154 657.151 -144.788 708.077 -99.6493C763.176 -50.8765 790.035 6.67971 809.626 48.6993C818.385 67.3992 825.901 83.5392 833.804 94.4413C855.91 124.882 896.723 131.223 924.024 121.748C947.262 113.671 955.248 96.7365 945.383 76.6095C943.2 72.1957 931.401 57.1739 918.884 41.2989C901.31 19.0385 879.397 -8.72454 863.619 -32.3974C803.492 -123.396 772.709 -151.688 610.259 -265.271C487.986 -350.767 451.816 -437.881 413.49 -530.1C360.795 -656.998 306.276 -788.206 21.5811 -936.261C-115.06 -1007.31 -241.948 -982.312 -388.869 -953.386C-400.861 -951.022 -412.982 -948.649 -425.233 -946.265C-567.511 -918.855 -664.473 -957.3 -767.099 -998.025C-842.729 -1028.01 -920.845 -1058.99 -1021.84 -1064.23V-982.518Z" fill="#B7DC58" fill-opacity="0.2"/>
<path d="M3207.31 1439.82C3207.31 1453.79 3206.5 1468.1 3204.87 1482.75C3193.82 1580.93 3138.34 1651.71 3077.77 1721.51C3054.86 1747.83 3034.08 1772.49 3014.79 1795.38C2860.99 1977.95 2797.33 2053.52 2497.02 1968.1C2075.35 1848.16 1664.38 1829.56 1586.26 1827.04C1581.75 1826.9 1581.75 1826.9 1580.73 1826.69C1551.06 1820.81 1530.19 1804.99 1521.99 1782.1C1512.59 1756 1522.51 1725.19 1546.08 1707.18C1565.42 1692.47 1591.73 1687.41 1620 1693.17C1642.1 1697.67 1681.4 1701.75 1735.69 1707.39C1902.79 1724.72 2213.73 1757 2560.41 1863.08C2722.17 1912.58 2759.36 1871.77 2897.74 1719.94C2922.83 1692.38 2951.29 1661.08 2984.23 1626.47C3086.69 1518.56 3109.35 1423.77 3055.49 1328.05C3032.26 1286.75 2987.33 1242.34 2905.29 1265.25C2845.57 1281.94 2798.29 1310.57 2748.25 1340.86C2658.94 1394.95 2566.57 1450.85 2401.55 1430.61C2309.12 1419.29 2230.45 1407.42 2161.15 1396.95C2007.32 1373.73 1896.21 1356.96 1764.6 1364.77C1641.25 1372.13 1528.42 1394.95 1409.03 1419.21C1349.42 1431.29 1287.8 1443.78 1222.89 1454.68C619.986 1556.01 554.719 1547.6 311.941 1516.31C271.432 1511.09 225.508 1505.17 171.348 1499.04C110.779 1492.2 54.9336 1486.87 5.55478 1482.16C-287.955 1454.21 -421.916 1441.38 -509.428 1205.09C-551.733 1090.89 -679.615 707.33 -549.218 565.955C-519.21 533.41 -477.374 515.402 -424.873 512.43C-330.785 507.119 -262.672 529.644 -138.99 570.545C-39.9003 603.311 95.8847 648.185 311.61 701.489C436.508 732.297 595.089 718.776 700.009 709.831C755.964 705.049 796.39 701.607 818.22 705.108C872.296 713.774 892.827 753.41 884.676 786.308C876.994 816.822 843.531 844.512 785.918 837.155C730.349 830.152 675.14 831.888 618.742 834.463C352.561 846.66 106.578 769.727 -91.0476 707.933C-245.567 659.719 -367.508 621.584 -424.265 653.893C-459.137 673.77 -470.687 721.807 -459.524 800.682C-442.199 923.269 -373.394 1137.12 -332.719 1213.42C-289.696 1294.15 -218.875 1307.8 -47.7479 1340.79C-16.9379 1346.67 17.0774 1353.28 54.7402 1360.96C495.447 1450.71 862.763 1382.47 1218.06 1316.44C1387.69 1284.88 1548.07 1255.07 1715.03 1241.76C1876.26 1228.9 2032.05 1253.38 2169.49 1274.98C2334.29 1300.87 2476.6 1323.24 2577.04 1274.14C2593.23 1266.22 2612.05 1255.92 2633.83 1244.01C2755.41 1177.42 2958.97 1065.98 3095.42 1181.36C3149.55 1227.15 3207.31 1319.88 3207.31 1439.8M1535.75 1761.43C1535.72 1767.18 1536.71 1772.93 1538.7 1778.59C1545.22 1796.69 1561.67 1809.21 1585.02 1813.91H1586.87C1665.43 1816.42 2078.86 1835.14 2503.04 1955.78C2790.09 2037.44 2847.23 1969.61 2999.95 1788.35C3019.3 1765.4 3040.1 1740.69 3063.04 1714.31C3122.45 1646 3176.69 1576.81 3187.38 1481.74C3202.77 1345.33 3140.41 1239.5 3082.38 1190.42C2956.43 1083.92 2768.42 1186.86 2643.99 1254.98C2621.89 1267 2603.07 1277.39 2586.46 1285.5C2480.02 1337.54 2334.46 1314.67 2165.93 1288.17C2029.73 1266.78 1875.35 1242.57 1716.79 1255.16C1551 1268.4 1391.26 1298.08 1222.18 1329.52C864.808 1395.95 495.447 1464.64 50.2362 1373.96C12.7115 1366.31 -21.2485 1359.77 -52.0033 1353.84C-229.347 1319.5 -302.573 1305.36 -348.912 1218.41C-390.001 1141.34 -459.441 925.623 -476.905 802.036C-488.952 716.952 -475.523 666.473 -434.765 643.212C-370.134 606.43 -250.292 643.844 -84.3883 695.692C111.58 756.971 355.49 833.227 617.692 821.207C675.112 818.588 731.399 816.793 788.792 824.061C837.894 830.255 861.851 806.185 867.405 783.689C874.148 756.956 857.762 724.838 814.517 717.938C795.479 714.878 754.168 718.394 701.888 722.867C595.448 731.93 434.601 745.642 306.139 713.951C89.5293 660.602 -46.615 615.552 -146.036 582.625C-271.1 541.267 -333.935 520.522 -423.657 525.583C-470.632 528.246 -508.212 544.357 -535.071 573.473C-661.101 710.096 -534.573 1088.63 -492.793 1201.41C-408.404 1429.28 -286.629 1440.89 7.57192 1468.96C56.9508 1473.67 112.934 1479.01 173.67 1485.88C227.995 1492.02 274.03 1497.95 314.594 1503.19C554.719 1534.08 619.268 1542.46 1218.83 1441.69C1283.38 1430.84 1344.84 1418.4 1404.25 1406.38C1524.45 1382.01 1637.99 1359.02 1762.97 1351.6C1896.96 1343.64 2009.12 1360.56 2164.3 1383.97C2233.54 1394.43 2312.08 1406.29 2404.15 1417.56C2561.65 1436.82 2646.87 1385.19 2737.17 1330.49C2786.14 1300.86 2836.65 1270.17 2899.07 1252.81C2973.15 1232.12 3034.33 1256.98 3071.41 1322.82C3127.92 1423.24 3104.57 1522.18 2998.24 1634.23C2965.39 1668.82 2936.98 1699.98 2911.92 1727.48C2774.64 1878.11 2728.41 1928.86 2553.72 1875.39C2209.15 1769.91 1899.5 1737.78 1733.04 1720.52C1678.14 1714.83 1638.48 1710.71 1615.22 1705.99C1587.03 1700.25 1568.66 1708.56 1558.18 1716.55C1543.79 1727.56 1535.61 1744.51 1535.61 1761.44" fill="#B7DC58" fill-opacity="0.2"/>
<path d="M747.979 3035.53C747.994 3042.04 745.275 3048.46 740.02 3054.32C720.678 3075.76 670.94 3085.85 613.437 3063.67C427.168 2991.9 308.791 2925.22 213.681 2871.65C96.3265 2805.57 11.5507 2757.83 -125.699 2744.41C-312.244 2726.27 -566.461 2689.49 -719.13 2618.31C-868.51 2548.6 -868.869 2456.26 -870.361 2067.67V2058.31C-869.421 2031.2 -868.786 2005.45 -868.178 1980.7C-864.475 1832.11 -861.546 1714.87 -798.489 1558.45C-769.669 1486.96 -760.163 1440.67 -797.025 1325.37C-905.786 985.843 -868.592 723.058 -846.376 566.044C-838.086 507.384 -831.482 461.053 -835.323 431.054C-838.667 405.013 -848.531 376.264 -859.999 342.969C-874.423 300.979 -890.754 253.383 -901.116 193.002C-910.593 137.667 -924.437 -27.6896 -931.843 -116.466C-934.606 -149.541 -936.623 -173.419 -937.148 -177.024C-950.108 -263.05 -960.663 -297.786 -965.72 -314.485C-970.583 -330.552 -971.246 -334.024 -965.72 -347.751C-957.679 -367.76 -937.922 -378.515 -914.241 -375.808C-884.205 -372.395 -853.201 -347.663 -853.201 -312.19C-853.201 -311.999 -853.201 -311.763 -853.201 -311.572C-853.201 -293.681 -852.096 -287.59 -848.808 -269.876C-844.746 -247.807 -837.147 -206.891 -824.436 -102.077C-791.139 172.536 -775.997 226.885 -725.706 340.012C-682.517 437.263 -690.806 489.331 -703.158 568.177C-715.068 643.845 -731.398 747.481 -706.087 944.044C-684.368 1112.84 -656.349 1204.46 -633.884 1278.1C-619.156 1326.31 -606.445 1367.96 -598.984 1419.21C-587.931 1494.45 -614.873 1552.62 -651.955 1633.13C-663.754 1658.75 -677.156 1687.79 -690.502 1720.14C-760.965 1890.63 -726.701 2205.99 -706.225 2394.4L-705.258 2403.23C-698.018 2469.96 -687.795 2519.46 -622.113 2548.06C-521.669 2591.84 -398.291 2622.47 -244.711 2641.69C-194.227 2648 -152.806 2652.81 -118.072 2656.84C64.3007 2678.03 64.3007 2678.03 212.548 2760.17C277.511 2796.17 375.578 2850.6 533.082 2930.44C593.873 2961.34 635.93 2973.58 666.629 2982.54C692.106 2989.9 712.222 2995.78 730.598 3008.38C741.893 3016.13 748.009 3025.67 747.979 3035.49M-852.925 2058.46V2067.58C-851.46 2450.2 -851.101 2541.11 -710.011 2606.95C-559.94 2676.96 -308.238 2713.16 -123.516 2731.2C18.2654 2745.06 104.589 2793.67 224.043 2860.94C318.656 2914.21 436.369 2980.52 621.312 3051.79C669.392 3070.32 710.924 3063.03 725.569 3046.78C734.079 3037.34 731.62 3026.96 718.882 3018.25C702.91 3007.36 685.06 3002.15 660.357 2994.93C628.883 2985.73 585.749 2973.14 523.356 2941.49C365.631 2861.48 267.315 2806.97 202.213 2770.82C57.4756 2690.59 57.4756 2690.59 -120.725 2669.89C-155.542 2665.86 -197.018 2661.07 -247.557 2654.71C-403.182 2635.23 -528.55 2604.08 -630.817 2559.49C-709.569 2525.15 -716.256 2463.68 -722.694 2404.24L-723.661 2395.41C-745.574 2193.85 -778.649 1889.07 -707.22 1716.1C-693.763 1683.54 -680.334 1654.39 -668.535 1628.67C-632.198 1549.83 -605.975 1492.87 -616.448 1420.59C-623.798 1370.12 -636.398 1328.83 -650.988 1281.02C-673.592 1207.02 -701.721 1114.93 -723.578 945.279C-749.055 747.246 -732.586 642.785 -720.594 566.529C-708.463 489.493 -700.45 438.528 -742.479 344.072C-793.295 229.739 -808.603 174.979 -841.955 -101.062C-854.611 -205.523 -862.154 -246.321 -866.216 -268.214C-869.532 -286.134 -870.803 -292.946 -870.803 -311.778C-870.845 -311.979 -870.845 -312.181 -870.803 -312.381C-870.803 -340.336 -894.733 -360.345 -916.921 -362.876C-932.091 -364.612 -943.531 -357.917 -949.113 -344.058C-953.479 -333.273 -953.202 -332.391 -948.726 -317.575C-943.586 -300.655 -932.893 -265.418 -919.823 -178.642C-919.242 -174.714 -917.336 -151.924 -914.434 -117.423C-907.029 -28.7636 -893.24 136.284 -883.818 191.177C-873.622 250.72 -857.401 297.889 -843.115 339.511C-831.455 373.351 -821.424 402.57 -817.943 429.656C-813.991 460.995 -820.706 507.928 -828.995 567.353C-851.101 723.499 -888.046 984.827 -780.059 1322.12C-742.092 1440.6 -751.984 1488.37 -781.744 1562.23C-844.11 1716.92 -846.873 1827.65 -850.687 1980.9C-851.295 2005.64 -851.93 2031.4 -852.87 2058.51" fill="#B7DC58" fill-opacity="0.2"/>
<path d="M4109.89 -239.627C4109.89 -212.187 4089.82 -171.006 4018.37 -46.6836C3944.56 81.744 3766.14 115.157 3577.25 150.467C3455.11 173.301 3328.83 196.915 3217.75 246.88C2898.71 390.447 2867.29 363.111 2566.79 101.341C2492.02 36.1639 2398.98 -44.8886 2280.55 -141.713C2107.76 -282.956 1966.81 -403.983 1853.54 -501.234C1509.63 -796.519 1381.03 -906.997 1195.73 -885.237C1177.52 -883.104 1164.29 -877.439 1155.28 -867.964C1134.11 -845.645 1139.5 -805.523 1147.57 -769.242C1179.34 -626.528 1380.4 -427.67 1557.74 -252.235C1664.68 -146.48 1765.67 -46.5953 1826.63 36.1345C1876.37 103.431 1919.42 138.844 1979.16 187.838C2048.93 245.041 2135.73 316.236 2274.83 471.705C2308.95 509.797 2411.97 657.881 2391.96 707.934C2375.19 749.526 2313.21 766.387 2263.44 761.12C2216.88 756.147 2166.37 731.43 2164.99 676.787C2161.48 546.814 2023.9 427.861 1902.48 322.93L1895.57 316.898C1763.63 202.756 1725.44 157.044 1649.34 65.972C1585.79 -10.2253 1498.47 -114.598 1309.47 -315.206L1285.95 -340.144C1135.24 -499.527 1044.5 -595.749 1008.72 -734.269C997.248 -778.775 1002.06 -812.541 1006.31 -842.32C1011.84 -881.559 1015.96 -909.881 980.033 -943.838C967.986 -955.216 956.012 -966.608 944.111 -978.016C869.504 -1049.21 792.134 -1122.83 702.633 -1186.08L634.298 -1234.31C282.761 -1482.18 282.761 -1482.18 277.842 -1670.16C277.179 -1696.29 276.405 -1725.91 274.554 -1760.45C274.222 -1767.15 272.62 -1775.33 270.906 -1784C266.734 -1805.4 261.539 -1832.09 271.404 -1855.75C279.997 -1876.35 306.856 -1888.84 336.726 -1886.29C369.056 -1883.53 408.902 -1861.28 414.788 -1807.73C418.656 -1772.42 421.668 -1741.92 424.265 -1715.2C441.536 -1538.65 442.226 -1531.7 575.442 -1434.18C630.706 -1393.78 677.681 -1359.77 719.129 -1329.96C876.44 -1216.67 948.229 -1164.9 1052.9 -1055.05C1084.4 -1021.98 1105.82 -1001.97 1146.85 -1007.29C1396.67 -1039.66 1558.82 -921.136 1873.16 -671.446C2231 -387.196 2692.05 -19.5092 2856.29 117.893C2867.73 127.456 2869.78 129.178 2873.81 131.9C2927.11 167.578 2985.22 167.593 3068.18 131.9C3177.68 84.819 3285.73 70.3416 3400.1 54.9815C3478.27 44.4913 3559.12 33.6333 3641.46 11.4023C3872.03 -50.8621 3919.31 -151.174 3953.85 -224.428C3964.18 -246.38 3973.19 -265.344 3985.65 -279.792C4002.76 -299.478 4026.46 -309.115 4050.75 -306.275C4075.95 -303.333 4096.29 -287.149 4105.11 -263.02C4108.14 -255.375 4109.73 -247.587 4109.83 -239.774M1123.06 -821.472C1123.06 -842.276 1127.64 -861.476 1141.1 -875.688C1152.82 -888.018 1170.31 -895.639 1193.08 -898.317C1387.72 -921.224 1518.12 -809.201 1866.61 -510.032C1979.91 -412.825 2120.83 -291.842 2293.34 -150.747C2411.94 -53.7751 2505.09 27.3657 2579.94 92.5432C2884.12 357.52 2902.33 373.336 3208.85 235.404C3322.14 184.424 3449.7 160.59 3573.07 137.52C3757.66 102.989 3932.07 70.4152 4002.34 -52.0096C4097.01 -216.792 4098.36 -231.932 4088.33 -259.312C4081.4 -278.233 4066.23 -290.842 4048.1 -293.019C4030.88 -295.064 4013.45 -287.546 4000.3 -272.421C3988.91 -259.312 3980.32 -241.054 3970.34 -219.897C3936.63 -148.408 3885.73 -40.4013 3647.35 23.967C3563.65 46.5658 3482.08 57.5268 3403.19 68.1053C3290.31 83.2594 3183.76 97.5308 3076.83 143.508C3016.7 169.329 2938 192.487 2862.32 141.831C2857.56 138.638 2855.13 136.593 2843.39 126.794C2679.28 -10.4755 2218.35 -378.118 1860.59 -662.25C1550.58 -908.498 1390.87 -1025.48 1149.83 -994.2C1096.06 -987.226 1068.26 -1016.39 1038.97 -1047.25C935.269 -1156.13 863.84 -1207.62 707.386 -1320.32C665.937 -1350.16 618.741 -1384.19 563.532 -1424.62C425.509 -1525.7 424.486 -1536.35 407.078 -1714.24C404.453 -1740.93 401.552 -1771.43 397.6 -1806.65C392.599 -1852.16 361.982 -1870.83 335.013 -1873.12C313.184 -1874.99 294.394 -1866.4 288.287 -1851.76C279.638 -1831.02 284.308 -1807.09 288.287 -1785.97C290.055 -1776.93 291.713 -1768.4 292.128 -1760.95C293.952 -1726.28 294.698 -1696.59 295.389 -1670.4C300.058 -1488.03 300.058 -1488.03 646.125 -1244.02L714.515 -1195.78C804.928 -1131.85 882.629 -1057.83 957.679 -986.255C969.653 -974.867 981.627 -963.489 993.601 -952.121C1034.08 -913.868 1029.27 -880.029 1023.66 -840.849C1019.55 -811.997 1014.91 -779.29 1025.82 -736.785C1060.8 -601.09 1150.8 -505.795 1299.93 -347.839L1323.45 -322.827C1512.92 -122.013 1600.27 -17.4789 1664.04 58.8509C1739.64 149.334 1777.58 194.767 1908.64 308.129L1915.66 314.191C2039.01 420.844 2178.8 541.724 2182.48 676.551C2183.72 722.793 2226.41 743.744 2265.93 747.923C2308.57 752.44 2361.4 738.58 2375.32 704.005C2391.9 663.28 2302.54 526.113 2260.49 479.121C2122.16 324.49 2035.72 253.707 1966.37 196.842C1908.06 149.04 1862.03 111.272 1811.38 42.6669C1751.06 -39.2243 1650.45 -138.741 1543.9 -244.114C1356.58 -429.392 1162.85 -620.981 1130.35 -766.976C1125.95 -785.031 1123.51 -803.208 1123.06 -821.413" fill="#B7DC58" fill-opacity="0.2"/>
</g>
</svg>
