<svg width="20" height="20" viewBox="0 0 20 20" fill="none" xmlns="http://www.w3.org/2000/svg">
<mask id="mask0_4_259" style="mask-type:alpha" maskUnits="userSpaceOnUse" x="0" y="0" width="20" height="20">
<rect width="20" height="20" fill="#D9D9D9"/>
</mask>
<g mask="url(#mask0_4_259)">
<path d="M5.01927 14.4103C5.7276 13.8847 6.49924 13.4696 7.33417 13.1651C8.1691 12.8606 9.05771 12.7084 10 12.7084C10.9423 12.7084 11.8309 12.8606 12.6659 13.1651C13.5008 13.4696 14.2724 13.8847 14.9808 14.4103C15.4989 13.8408 15.9095 13.1817 16.2124 12.4327C16.5152 11.6838 16.6667 10.8729 16.6667 10C16.6667 8.1528 16.0174 6.57988 14.7188 5.28127C13.4202 3.98266 11.8472 3.33335 10 3.33335C8.1528 3.33335 6.57988 3.98266 5.28127 5.28127C3.98266 6.57988 3.33335 8.1528 3.33335 10C3.33335 10.8729 3.4848 11.6838 3.78769 12.4327C4.09058 13.1817 4.5011 13.8408 5.01927 14.4103ZM10.0003 10.625C9.23942 10.625 8.59778 10.3639 8.07535 9.8416C7.55292 9.31933 7.29171 8.67777 7.29171 7.91694C7.29171 7.15609 7.55284 6.51445 8.0751 5.99202C8.59738 5.46959 9.23894 5.20837 9.99977 5.20837C10.7606 5.20837 11.4023 5.46951 11.9247 5.99177C12.4471 6.51405 12.7083 7.1556 12.7083 7.91644C12.7083 8.67728 12.4472 9.31892 11.9249 9.84135C11.4027 10.3638 10.7611 10.625 10.0003 10.625ZM10 17.9167C8.90066 17.9167 7.86942 17.7099 6.90629 17.2965C5.94315 16.883 5.10528 16.32 4.39267 15.6074C3.68007 14.8948 3.11704 14.0569 2.70358 13.0938C2.29011 12.1306 2.08337 11.0994 2.08337 10C2.08337 8.90066 2.29011 7.86942 2.70358 6.90629C3.11704 5.94315 3.68007 5.10528 4.39267 4.39267C5.10528 3.68007 5.94315 3.11704 6.90629 2.70358C7.86942 2.29011 8.90066 2.08337 10 2.08337C11.0994 2.08337 12.1306 2.29011 13.0938 2.70358C14.0569 3.11704 14.8948 3.68007 15.6074 4.39267C16.32 5.10528 16.883 5.94315 17.2965 6.90629C17.7099 7.86942 17.9167 8.90066 17.9167 10C17.9167 11.0994 17.7099 12.1306 17.2965 13.0938C16.883 14.0569 16.32 14.8948 15.6074 15.6074C14.8948 16.32 14.0569 16.883 13.0938 17.2965C12.1306 17.7099 11.0994 17.9167 10 17.9167ZM10 16.6667C10.7522 16.6667 11.4773 16.5457 12.1755 16.3037C12.8737 16.0617 13.4936 15.7233 14.0353 15.2885C13.4936 14.8697 12.8817 14.5433 12.1995 14.3093C11.5174 14.0753 10.7842 13.9583 10 13.9583C9.21583 13.9583 8.48131 14.074 7.79648 14.3053C7.11165 14.5366 6.50107 14.8643 5.96475 15.2885C6.50642 15.7233 7.12635 16.0617 7.82454 16.3037C8.52272 16.5457 9.24788 16.6667 10 16.6667ZM10 9.37504C10.4145 9.37504 10.7612 9.23562 11.0401 8.95677C11.319 8.67791 11.4584 8.33122 11.4584 7.91669C11.4584 7.50216 11.319 7.15547 11.0401 6.8766C10.7612 6.59776 10.4145 6.45833 10 6.45833C9.58549 6.45833 9.2388 6.59776 8.95994 6.8766C8.68109 7.15547 8.54167 7.50216 8.54167 7.91669C8.54167 8.33122 8.68109 8.67791 8.95994 8.95677C9.2388 9.23562 9.58549 9.37504 10 9.37504Z" fill="#E51F7E"/>
</g>
</svg>
