<svg width="20" height="20" viewBox="0 0 20 20" fill="none" xmlns="http://www.w3.org/2000/svg">
<mask id="mask0_4_265" style="mask-type:alpha" maskUnits="userSpaceOnUse" x="0" y="0" width="20" height="20">
<rect width="20" height="20" fill="#D9D9D9"/>
</mask>
<g mask="url(#mask0_4_265)">
<path d="M16.2852 17.1474L11.0513 11.9134C10.6346 12.2574 10.1554 12.5267 9.61376 12.7211C9.07209 12.9156 8.51173 13.0128 7.93267 13.0128C6.50837 13.0128 5.30294 12.5196 4.31638 11.5333C3.32983 10.547 2.83655 9.34189 2.83655 7.91796C2.83655 6.49402 3.3297 5.28846 4.31601 4.30128C5.30231 3.31411 6.50744 2.82053 7.93138 2.82053C9.35531 2.82053 10.5609 3.3138 11.548 4.30036C12.5352 5.28692 13.0288 6.49235 13.0288 7.91665C13.0288 8.51173 12.9289 9.08011 12.7291 9.62178C12.5293 10.1634 12.2628 10.6346 11.9294 11.0352L17.1634 16.2692L16.2852 17.1474ZM7.93267 11.7628C9.0064 11.7628 9.91585 11.3902 10.661 10.645C11.4062 9.89983 11.7788 8.99037 11.7788 7.91665C11.7788 6.84293 11.4062 5.93347 10.661 5.18828C9.91585 4.44308 9.0064 4.07048 7.93267 4.07048C6.85895 4.07048 5.94949 4.44308 5.2043 5.18828C4.45912 5.93347 4.08653 6.84293 4.08653 7.91665C4.08653 8.99037 4.45912 9.89983 5.2043 10.645C5.94949 11.3902 6.85895 11.7628 7.93267 11.7628Z" fill="#E51F7E"/>
</g>
</svg>
