<svg width="320" height="320" viewBox="0 0 320 320" fill="none" xmlns="http://www.w3.org/2000/svg">
<path d="M0 0H320V287L303.5 303.5L286.5 320H0V0Z" fill="#F26522"/>
<path d="M105.472 63V49.368H100.096V46.2H114.736V49.368H109.36V63H105.472ZM123.692 49.896C124.716 49.896 125.628 50.104 126.428 50.52C127.244 50.92 127.884 51.544 128.348 52.392C128.812 53.224 129.044 54.296 129.044 55.608V63H125.3V56.184C125.3 55.144 125.068 54.376 124.604 53.88C124.156 53.384 123.516 53.136 122.684 53.136C122.092 53.136 121.556 53.264 121.076 53.52C120.612 53.76 120.244 54.136 119.972 54.648C119.716 55.16 119.588 55.816 119.588 56.616V63H115.844V45.192H119.588V53.664L118.748 52.584C119.212 51.72 119.876 51.056 120.74 50.592C121.604 50.128 122.588 49.896 123.692 49.896ZM138.219 63.192C136.747 63.192 135.451 62.904 134.331 62.328C133.227 61.752 132.371 60.968 131.763 59.976C131.155 58.968 130.851 57.824 130.851 56.544C130.851 55.248 131.147 54.104 131.739 53.112C132.347 52.104 133.171 51.32 134.211 50.76C135.251 50.184 136.427 49.896 137.739 49.896C139.003 49.896 140.139 50.168 141.147 50.712C142.171 51.24 142.979 52.008 143.571 53.016C144.163 54.008 144.459 55.2 144.459 56.592C144.459 56.736 144.451 56.904 144.435 57.096C144.419 57.272 144.403 57.44 144.387 57.6H133.899V55.416H142.419L140.979 56.064C140.979 55.392 140.843 54.808 140.571 54.312C140.299 53.816 139.923 53.432 139.443 53.16C138.963 52.872 138.403 52.728 137.763 52.728C137.123 52.728 136.555 52.872 136.059 53.16C135.579 53.432 135.203 53.824 134.931 54.336C134.659 54.832 134.523 55.424 134.523 56.112V56.688C134.523 57.392 134.675 58.016 134.979 58.56C135.299 59.088 135.739 59.496 136.299 59.784C136.875 60.056 137.547 60.192 138.315 60.192C139.003 60.192 139.603 60.088 140.115 59.88C140.643 59.672 141.123 59.36 141.555 58.944L143.547 61.104C142.955 61.776 142.211 62.296 141.315 62.664C140.419 63.016 139.387 63.192 138.219 63.192ZM152.573 63V46.2H155.789L165.701 58.296H164.141V46.2H167.981V63H164.789L154.853 50.904H156.413V63H152.573ZM177.116 63.192C175.74 63.192 174.516 62.904 173.444 62.328C172.388 61.752 171.548 60.968 170.924 59.976C170.316 58.968 170.012 57.824 170.012 56.544C170.012 55.248 170.316 54.104 170.924 53.112C171.548 52.104 172.388 51.32 173.444 50.76C174.516 50.184 175.74 49.896 177.116 49.896C178.476 49.896 179.692 50.184 180.764 50.76C181.836 51.32 182.676 52.096 183.284 53.088C183.892 54.08 184.196 55.232 184.196 56.544C184.196 57.824 183.892 58.968 183.284 59.976C182.676 60.968 181.836 61.752 180.764 62.328C179.692 62.904 178.476 63.192 177.116 63.192ZM177.116 60.12C177.74 60.12 178.3 59.976 178.796 59.688C179.292 59.4 179.684 58.992 179.972 58.464C180.26 57.92 180.404 57.28 180.404 56.544C180.404 55.792 180.26 55.152 179.972 54.624C179.684 54.096 179.292 53.688 178.796 53.4C178.3 53.112 177.74 52.968 177.116 52.968C176.492 52.968 175.932 53.112 175.436 53.4C174.94 53.688 174.54 54.096 174.236 54.624C173.948 55.152 173.804 55.792 173.804 56.544C173.804 57.28 173.948 57.92 174.236 58.464C174.54 58.992 174.94 59.4 175.436 59.688C175.932 59.976 176.492 60.12 177.116 60.12ZM191.258 63.192C189.738 63.192 188.554 62.808 187.706 62.04C186.858 61.256 186.434 60.096 186.434 58.56V47.232H190.178V58.512C190.178 59.056 190.322 59.48 190.61 59.784C190.898 60.072 191.29 60.216 191.786 60.216C192.378 60.216 192.882 60.056 193.298 59.736L194.306 62.376C193.922 62.648 193.458 62.856 192.914 63C192.386 63.128 191.834 63.192 191.258 63.192ZM184.442 53.256V50.376H193.394V53.256H184.442ZM201.698 63.192C200.226 63.192 198.93 62.904 197.81 62.328C196.706 61.752 195.85 60.968 195.242 59.976C194.634 58.968 194.33 57.824 194.33 56.544C194.33 55.248 194.626 54.104 195.218 53.112C195.826 52.104 196.65 51.32 197.69 50.76C198.73 50.184 199.906 49.896 201.218 49.896C202.482 49.896 203.618 50.168 204.626 50.712C205.65 51.24 206.458 52.008 207.05 53.016C207.642 54.008 207.938 55.2 207.938 56.592C207.938 56.736 207.93 56.904 207.914 57.096C207.898 57.272 207.882 57.44 207.866 57.6H197.378V55.416H205.898L204.458 56.064C204.458 55.392 204.322 54.808 204.05 54.312C203.778 53.816 203.402 53.432 202.922 53.16C202.442 52.872 201.882 52.728 201.242 52.728C200.602 52.728 200.034 52.872 199.538 53.16C199.058 53.432 198.682 53.824 198.41 54.336C198.138 54.832 198.002 55.424 198.002 56.112V56.688C198.002 57.392 198.154 58.016 198.458 58.56C198.778 59.088 199.218 59.496 199.778 59.784C200.354 60.056 201.026 60.192 201.794 60.192C202.482 60.192 203.082 60.088 203.594 59.88C204.122 59.672 204.602 59.36 205.034 58.944L207.026 61.104C206.434 61.776 205.69 62.296 204.794 62.664C203.898 63.016 202.866 63.192 201.698 63.192ZM214.054 63.192C212.95 63.192 211.886 63.064 210.862 62.808C209.854 62.536 209.054 62.2 208.462 61.8L209.71 59.112C210.302 59.48 210.998 59.784 211.798 60.024C212.614 60.248 213.414 60.36 214.198 60.36C215.062 60.36 215.67 60.256 216.022 60.048C216.39 59.84 216.574 59.552 216.574 59.184C216.574 58.88 216.43 58.656 216.142 58.512C215.87 58.352 215.502 58.232 215.038 58.152C214.574 58.072 214.062 57.992 213.502 57.912C212.958 57.832 212.406 57.728 211.846 57.6C211.286 57.456 210.774 57.248 210.31 56.976C209.846 56.704 209.47 56.336 209.182 55.872C208.91 55.408 208.774 54.808 208.774 54.072C208.774 53.256 209.006 52.536 209.47 51.912C209.95 51.288 210.638 50.8 211.534 50.448C212.43 50.08 213.502 49.896 214.75 49.896C215.63 49.896 216.526 49.992 217.438 50.184C218.35 50.376 219.11 50.656 219.718 51.024L218.47 53.688C217.846 53.32 217.214 53.072 216.574 52.944C215.95 52.8 215.342 52.728 214.75 52.728C213.918 52.728 213.31 52.84 212.926 53.064C212.542 53.288 212.35 53.576 212.35 53.928C212.35 54.248 212.486 54.488 212.758 54.648C213.046 54.808 213.422 54.936 213.886 55.032C214.35 55.128 214.854 55.216 215.398 55.296C215.958 55.36 216.518 55.464 217.078 55.608C217.638 55.752 218.142 55.96 218.59 56.232C219.054 56.488 219.43 56.848 219.718 57.312C220.006 57.76 220.15 58.352 220.15 59.088C220.15 59.888 219.91 60.6 219.43 61.224C218.95 61.832 218.254 62.312 217.342 62.664C216.446 63.016 215.35 63.192 214.054 63.192Z" fill="white"/>
<path d="M33.6449 95V85.9H34.7109L38.7929 92.777H38.2209L42.2509 85.9H43.3169L43.3299 95H42.0819L42.0689 87.863H42.3679L38.7799 93.895H38.1819L34.5679 87.863H34.8929V95H33.6449ZM51.7809 95.104C50.5849 95.104 49.6446 94.7617 48.9599 94.077C48.2752 93.3923 47.9329 92.3913 47.9329 91.074V85.9H49.2329V91.022C49.2329 92.036 49.4539 92.777 49.8959 93.245C50.3466 93.713 50.9792 93.947 51.7939 93.947C52.6172 93.947 53.2499 93.713 53.6919 93.245C54.1426 92.777 54.3679 92.036 54.3679 91.022V85.9H55.6289V91.074C55.6289 92.3913 55.2866 93.3923 54.6019 94.077C53.9259 94.7617 52.9856 95.104 51.7809 95.104ZM62.8961 95.104C62.2028 95.104 61.5398 95 60.9071 94.792C60.2744 94.5753 59.7761 94.298 59.4121 93.96L59.8931 92.946C60.2398 93.2493 60.6818 93.5007 61.2191 93.7C61.7564 93.8993 62.3154 93.999 62.8961 93.999C63.4248 93.999 63.8538 93.9383 64.1831 93.817C64.5124 93.6957 64.7551 93.531 64.9111 93.323C65.0671 93.1063 65.1451 92.8637 65.1451 92.595C65.1451 92.283 65.0411 92.0317 64.8331 91.841C64.6338 91.6503 64.3694 91.4987 64.0401 91.386C63.7194 91.2647 63.3641 91.1607 62.9741 91.074C62.5841 90.9873 62.1898 90.8877 61.7911 90.775C61.4011 90.6537 61.0414 90.502 60.7121 90.32C60.3914 90.138 60.1314 89.8953 59.9321 89.592C59.7328 89.28 59.6331 88.8813 59.6331 88.396C59.6331 87.928 59.7544 87.499 59.9971 87.109C60.2484 86.7103 60.6298 86.394 61.1411 86.16C61.6611 85.9173 62.3198 85.796 63.1171 85.796C63.6458 85.796 64.1701 85.8653 64.6901 86.004C65.2101 86.1427 65.6608 86.342 66.0421 86.602L65.6131 87.642C65.2231 87.382 64.8114 87.1957 64.3781 87.083C63.9448 86.9617 63.5244 86.901 63.1171 86.901C62.6058 86.901 62.1854 86.966 61.8561 87.096C61.5268 87.226 61.2841 87.3993 61.1281 87.616C60.9808 87.8327 60.9071 88.0753 60.9071 88.344C60.9071 88.6647 61.0068 88.9203 61.2061 89.111C61.4141 89.3017 61.6784 89.4533 61.9991 89.566C62.3284 89.6787 62.6881 89.7827 63.0781 89.878C63.4681 89.9647 63.8581 90.0643 64.2481 90.177C64.6468 90.2897 65.0064 90.437 65.3271 90.619C65.6564 90.801 65.9208 91.0437 66.1201 91.347C66.3194 91.6503 66.4191 92.0403 66.4191 92.517C66.4191 92.9763 66.2934 93.4053 66.0421 93.804C65.7908 94.194 65.4008 94.5103 64.8721 94.753C64.3521 94.987 63.6934 95.104 62.8961 95.104ZM71.4123 92.803L71.3473 91.217L76.5083 85.9H77.9903L73.9993 90.112L73.2713 90.918L71.4123 92.803ZM70.2683 95V85.9H71.5683V95H70.2683ZM76.7163 95L72.9853 90.658L73.8563 89.696L78.2373 95H76.7163ZM83.137 95V91.516L83.436 92.322L79.523 85.9H80.914L84.203 91.321H83.449L86.751 85.9H88.038L84.138 92.322L84.424 91.516V95H83.137ZM90.1486 96.924L90.7986 94.298L90.9676 95.052C90.7162 95.052 90.5039 94.974 90.3306 94.818C90.1659 94.662 90.0836 94.4497 90.0836 94.181C90.0836 93.921 90.1659 93.7087 90.3306 93.544C90.5039 93.3793 90.7119 93.297 90.9546 93.297C91.2059 93.297 91.4096 93.3837 91.5656 93.557C91.7216 93.7217 91.7996 93.9297 91.7996 94.181C91.7996 94.2677 91.7909 94.3543 91.7736 94.441C91.7649 94.519 91.7432 94.6143 91.7086 94.727C91.6826 94.831 91.6392 94.961 91.5786 95.117L90.9676 96.924H90.1486ZM102.331 90.203H107.024V91.321H102.331V90.203ZM102.461 95H101.161V85.9H107.583V87.031H102.461V95ZM111.363 95V85.9H114.912C115.709 85.9 116.39 86.0257 116.953 86.277C117.516 86.5283 117.95 86.8923 118.253 87.369C118.556 87.8457 118.708 88.4133 118.708 89.072C118.708 89.7307 118.556 90.2983 118.253 90.775C117.95 91.243 117.516 91.6027 116.953 91.854C116.39 92.1053 115.709 92.231 114.912 92.231H112.078L112.663 91.633V95H111.363ZM117.447 95L115.133 91.698H116.524L118.864 95H117.447ZM112.663 91.763L112.078 91.126H114.873C115.705 91.126 116.333 90.9483 116.758 90.593C117.191 90.229 117.408 89.722 117.408 89.072C117.408 88.422 117.191 87.9193 116.758 87.564C116.333 87.2087 115.705 87.031 114.873 87.031H112.078L112.663 86.381V91.763ZM126.528 95.104C125.332 95.104 124.392 94.7617 123.707 94.077C123.023 93.3923 122.68 92.3913 122.68 91.074V85.9H123.98V91.022C123.98 92.036 124.201 92.777 124.643 93.245C125.094 93.713 125.727 93.947 126.541 93.947C127.365 93.947 127.997 93.713 128.439 93.245C128.89 92.777 129.115 92.036 129.115 91.022V85.9H130.376V91.074C130.376 92.3913 130.034 93.3923 129.349 94.077C128.673 94.7617 127.733 95.104 126.528 95.104ZM134.992 95V85.9H136.292V95H134.992ZM142.773 95V87.031H139.653V85.9H147.18V87.031H144.06V95H142.773ZM152.641 95V91.516L152.94 92.322L149.027 85.9H150.418L153.707 91.321H152.953L156.255 85.9H157.542L153.642 92.322L153.928 91.516V95H152.641ZM159.653 96.924L160.303 94.298L160.472 95.052C160.221 95.052 160.008 94.974 159.835 94.818C159.67 94.662 159.588 94.4497 159.588 94.181C159.588 93.921 159.67 93.7087 159.835 93.544C160.008 93.3793 160.216 93.297 160.459 93.297C160.71 93.297 160.914 93.3837 161.07 93.557C161.226 93.7217 161.304 93.9297 161.304 94.181C161.304 94.2677 161.295 94.3543 161.278 94.441C161.269 94.519 161.248 94.6143 161.213 94.727C161.187 94.831 161.144 94.961 161.083 95.117L160.472 96.924H159.653ZM173.291 95L169.287 85.9H170.691L174.37 94.298H173.564L177.269 85.9H178.569L174.578 95H173.291ZM180.01 95L184.131 85.9H185.418L189.552 95H188.187L184.508 86.628H185.028L181.349 95H180.01ZM181.765 92.725L182.116 91.685H187.238L187.615 92.725H181.765ZM192.859 95V85.9H193.925L199.944 93.375H199.385V85.9H200.685V95H199.619L193.6 87.525H194.159V95H192.859ZM205.359 95V85.9H206.659V95H205.359ZM211.334 95V85.9H212.634V93.869H217.561V95H211.334ZM221.002 95V85.9H222.302V93.869H227.229V95H221.002ZM229.293 95L233.414 85.9H234.701L238.835 95H237.47L233.791 86.628H234.311L230.632 95H229.293ZM231.048 92.725L231.399 91.685H236.521L236.898 92.725H231.048ZM249.677 95L246.635 85.9H247.974L250.769 94.298H250.093L252.992 85.9H254.188L257.022 94.298H256.372L259.206 85.9H260.441L257.399 95H256.034L253.382 87.213H253.733L251.068 95H249.677ZM263.981 95V85.9H265.281V95H263.981ZM271.762 95V87.031H268.642V85.9H276.169V87.031H273.049V95H271.762ZM286.061 85.9H287.361V95H286.061V85.9ZM280.835 95H279.535V85.9H280.835V95ZM286.178 90.944H280.705V89.813H286.178V90.944ZM125.813 111.104C125.12 111.104 124.478 110.991 123.889 110.766C123.308 110.532 122.801 110.207 122.368 109.791C121.943 109.366 121.61 108.872 121.367 108.309C121.124 107.746 121.003 107.126 121.003 106.45C121.003 105.774 121.124 105.154 121.367 104.591C121.61 104.028 121.948 103.538 122.381 103.122C122.814 102.697 123.321 102.372 123.902 102.147C124.491 101.913 125.133 101.796 125.826 101.796C126.528 101.796 127.174 101.917 127.763 102.16C128.361 102.394 128.868 102.745 129.284 103.213L128.439 104.032C128.092 103.668 127.702 103.399 127.269 103.226C126.836 103.044 126.372 102.953 125.878 102.953C125.367 102.953 124.89 103.04 124.448 103.213C124.015 103.386 123.638 103.629 123.317 103.941C122.996 104.253 122.745 104.626 122.563 105.059C122.39 105.484 122.303 105.947 122.303 106.45C122.303 106.953 122.39 107.421 122.563 107.854C122.745 108.279 122.996 108.647 123.317 108.959C123.638 109.271 124.015 109.514 124.448 109.687C124.89 109.86 125.367 109.947 125.878 109.947C126.372 109.947 126.836 109.86 127.269 109.687C127.702 109.505 128.092 109.228 128.439 108.855L129.284 109.674C128.868 110.142 128.361 110.497 127.763 110.74C127.174 110.983 126.524 111.104 125.813 111.104ZM137.006 111.104C136.313 111.104 135.667 110.987 135.069 110.753C134.48 110.519 133.968 110.194 133.535 109.778C133.102 109.353 132.764 108.859 132.521 108.296C132.278 107.733 132.157 107.117 132.157 106.45C132.157 105.783 132.278 105.167 132.521 104.604C132.764 104.041 133.102 103.551 133.535 103.135C133.968 102.71 134.48 102.381 135.069 102.147C135.658 101.913 136.304 101.796 137.006 101.796C137.699 101.796 138.336 101.913 138.917 102.147C139.506 102.372 140.018 102.697 140.451 103.122C140.893 103.538 141.231 104.028 141.465 104.591C141.708 105.154 141.829 105.774 141.829 106.45C141.829 107.126 141.708 107.746 141.465 108.309C141.231 108.872 140.893 109.366 140.451 109.791C140.018 110.207 139.506 110.532 138.917 110.766C138.336 110.991 137.699 111.104 137.006 111.104ZM137.006 109.947C137.509 109.947 137.972 109.86 138.397 109.687C138.83 109.514 139.203 109.271 139.515 108.959C139.836 108.638 140.083 108.266 140.256 107.841C140.438 107.416 140.529 106.953 140.529 106.45C140.529 105.947 140.438 105.484 140.256 105.059C140.083 104.634 139.836 104.266 139.515 103.954C139.203 103.633 138.83 103.386 138.397 103.213C137.972 103.04 137.509 102.953 137.006 102.953C136.495 102.953 136.022 103.04 135.589 103.213C135.164 103.386 134.792 103.633 134.471 103.954C134.15 104.266 133.899 104.634 133.717 105.059C133.544 105.484 133.457 105.947 133.457 106.45C133.457 106.953 133.544 107.416 133.717 107.841C133.899 108.266 134.15 108.638 134.471 108.959C134.792 109.271 135.164 109.514 135.589 109.687C136.022 109.86 136.495 109.947 137.006 109.947ZM149.835 111.104C149.142 111.104 148.5 110.991 147.911 110.766C147.33 110.532 146.823 110.207 146.39 109.791C145.965 109.366 145.632 108.872 145.389 108.309C145.146 107.746 145.025 107.126 145.025 106.45C145.025 105.774 145.146 105.154 145.389 104.591C145.632 104.028 145.97 103.538 146.403 103.122C146.836 102.697 147.343 102.372 147.924 102.147C148.513 101.913 149.155 101.796 149.848 101.796C150.55 101.796 151.196 101.917 151.785 102.16C152.383 102.394 152.89 102.745 153.306 103.213L152.461 104.032C152.114 103.668 151.724 103.399 151.291 103.226C150.858 103.044 150.394 102.953 149.9 102.953C149.389 102.953 148.912 103.04 148.47 103.213C148.037 103.386 147.66 103.629 147.339 103.941C147.018 104.253 146.767 104.626 146.585 105.059C146.412 105.484 146.325 105.947 146.325 106.45C146.325 106.953 146.412 107.421 146.585 107.854C146.767 108.279 147.018 108.647 147.339 108.959C147.66 109.271 148.037 109.514 148.47 109.687C148.912 109.86 149.389 109.947 149.9 109.947C150.394 109.947 150.858 109.86 151.291 109.687C151.724 109.505 152.114 109.228 152.461 108.855L153.306 109.674C152.89 110.142 152.383 110.497 151.785 110.74C151.196 110.983 150.546 111.104 149.835 111.104ZM161.028 111.104C160.335 111.104 159.689 110.987 159.091 110.753C158.502 110.519 157.991 110.194 157.557 109.778C157.124 109.353 156.786 108.859 156.543 108.296C156.301 107.733 156.179 107.117 156.179 106.45C156.179 105.783 156.301 105.167 156.543 104.604C156.786 104.041 157.124 103.551 157.557 103.135C157.991 102.71 158.502 102.381 159.091 102.147C159.681 101.913 160.326 101.796 161.028 101.796C161.722 101.796 162.359 101.913 162.939 102.147C163.529 102.372 164.04 102.697 164.473 103.122C164.915 103.538 165.253 104.028 165.487 104.591C165.73 105.154 165.851 105.774 165.851 106.45C165.851 107.126 165.73 107.746 165.487 108.309C165.253 108.872 164.915 109.366 164.473 109.791C164.04 110.207 163.529 110.532 162.939 110.766C162.359 110.991 161.722 111.104 161.028 111.104ZM161.028 109.947C161.531 109.947 161.995 109.86 162.419 109.687C162.853 109.514 163.225 109.271 163.537 108.959C163.858 108.638 164.105 108.266 164.278 107.841C164.46 107.416 164.551 106.953 164.551 106.45C164.551 105.947 164.46 105.484 164.278 105.059C164.105 104.634 163.858 104.266 163.537 103.954C163.225 103.633 162.853 103.386 162.419 103.213C161.995 103.04 161.531 102.953 161.028 102.953C160.517 102.953 160.045 103.04 159.611 103.213C159.187 103.386 158.814 103.633 158.493 103.954C158.173 104.266 157.921 104.634 157.739 105.059C157.566 105.484 157.479 105.947 157.479 106.45C157.479 106.953 157.566 107.416 157.739 107.841C157.921 108.266 158.173 108.638 158.493 108.959C158.814 109.271 159.187 109.514 159.611 109.687C160.045 109.86 160.517 109.947 161.028 109.947ZM169.788 111V101.9H170.854L176.873 109.375H176.314V101.9H177.614V111H176.548L170.529 103.525H171.088V111H169.788ZM186.058 111.104C184.862 111.104 183.922 110.762 183.237 110.077C182.552 109.392 182.21 108.391 182.21 107.074V101.9H183.51V107.022C183.51 108.036 183.731 108.777 184.173 109.245C184.624 109.713 185.256 109.947 186.071 109.947C186.894 109.947 187.527 109.713 187.969 109.245C188.42 108.777 188.645 108.036 188.645 107.022V101.9H189.906V107.074C189.906 108.391 189.564 109.392 188.879 110.077C188.203 110.762 187.263 111.104 186.058 111.104ZM196.163 111V103.031H193.043V101.9H200.57V103.031H197.45V111H196.163Z" fill="#F5FF70"/>
<path fill-rule="evenodd" clip-rule="evenodd" d="M317 286H286V317H287V287H317V286Z" fill="white"/>
<path d="M124.207 196V189.184H121.519V187.6H128.839V189.184H126.151V196H124.207ZM132.168 196.096C131.48 196.096 130.868 195.952 130.332 195.664C129.804 195.376 129.384 194.984 129.072 194.488C128.768 193.984 128.616 193.412 128.616 192.772C128.616 192.124 128.768 191.552 129.072 191.056C129.384 190.552 129.804 190.16 130.332 189.88C130.868 189.592 131.48 189.448 132.168 189.448C132.848 189.448 133.456 189.592 133.992 189.88C134.528 190.16 134.948 190.548 135.252 191.044C135.556 191.54 135.708 192.116 135.708 192.772C135.708 193.412 135.556 193.984 135.252 194.488C134.948 194.984 134.528 195.376 133.992 195.664C133.456 195.952 132.848 196.096 132.168 196.096ZM132.168 194.56C132.48 194.56 132.76 194.488 133.008 194.344C133.256 194.2 133.452 193.996 133.596 193.732C133.74 193.46 133.812 193.14 133.812 192.772C133.812 192.396 133.74 192.076 133.596 191.812C133.452 191.548 133.256 191.344 133.008 191.2C132.76 191.056 132.48 190.984 132.168 190.984C131.856 190.984 131.576 191.056 131.328 191.2C131.08 191.344 130.88 191.548 130.728 191.812C130.584 192.076 130.512 192.396 130.512 192.772C130.512 193.14 130.584 193.46 130.728 193.732C130.88 193.996 131.08 194.2 131.328 194.344C131.576 194.488 131.856 194.56 132.168 194.56ZM140.776 196.096C140.232 196.096 139.756 195.976 139.348 195.736C138.94 195.496 138.62 195.132 138.388 194.644C138.164 194.148 138.052 193.524 138.052 192.772C138.052 192.012 138.16 191.388 138.376 190.9C138.592 190.412 138.904 190.048 139.312 189.808C139.72 189.568 140.208 189.448 140.776 189.448C141.384 189.448 141.928 189.588 142.408 189.868C142.896 190.14 143.28 190.524 143.56 191.02C143.848 191.516 143.992 192.1 143.992 192.772C143.992 193.452 143.848 194.04 143.56 194.536C143.28 195.032 142.896 195.416 142.408 195.688C141.928 195.96 141.384 196.096 140.776 196.096ZM136.96 198.328V189.544H138.748V190.864L138.712 192.784L138.832 194.692V198.328H136.96ZM140.452 194.56C140.764 194.56 141.04 194.488 141.28 194.344C141.528 194.2 141.724 193.996 141.868 193.732C142.02 193.46 142.096 193.14 142.096 192.772C142.096 192.396 142.02 192.076 141.868 191.812C141.724 191.548 141.528 191.344 141.28 191.2C141.04 191.056 140.764 190.984 140.452 190.984C140.14 190.984 139.86 191.056 139.612 191.2C139.364 191.344 139.168 191.548 139.024 191.812C138.88 192.076 138.808 192.396 138.808 192.772C138.808 193.14 138.88 193.46 139.024 193.732C139.168 193.996 139.364 194.2 139.612 194.344C139.86 194.488 140.14 194.56 140.452 194.56ZM145.953 191.788C145.633 191.788 145.357 191.68 145.125 191.464C144.901 191.24 144.789 190.956 144.789 190.612C144.789 190.268 144.901 189.992 145.125 189.784C145.357 189.568 145.633 189.46 145.953 189.46C146.281 189.46 146.557 189.568 146.781 189.784C147.005 189.992 147.117 190.268 147.117 190.612C147.117 190.956 147.005 191.24 146.781 191.464C146.557 191.68 146.281 191.788 145.953 191.788ZM145.953 196.096C145.633 196.096 145.357 195.988 145.125 195.772C144.901 195.548 144.789 195.264 144.789 194.92C144.789 194.576 144.901 194.3 145.125 194.092C145.357 193.876 145.633 193.768 145.953 193.768C146.281 193.768 146.557 193.876 146.781 194.092C147.005 194.3 147.117 194.576 147.117 194.92C147.117 195.264 147.005 195.548 146.781 195.772C146.557 195.988 146.281 196.096 145.953 196.096ZM111.053 221V212.6H112.661L116.237 218.528H115.385L118.901 212.6H120.497L120.521 221H118.697L118.685 215.396H119.021L116.213 220.112H115.337L112.469 215.396H112.877V221H111.053ZM122.382 221V214.544H124.254V221H122.382ZM123.318 213.644C122.974 213.644 122.694 213.544 122.478 213.344C122.262 213.144 122.154 212.896 122.154 212.6C122.154 212.304 122.262 212.056 122.478 211.856C122.694 211.656 122.974 211.556 123.318 211.556C123.662 211.556 123.942 211.652 124.158 211.844C124.374 212.028 124.482 212.268 124.482 212.564C124.482 212.876 124.374 213.136 124.158 213.344C123.95 213.544 123.67 213.644 123.318 213.644ZM128.763 221.096C128.155 221.096 127.607 220.96 127.119 220.688C126.631 220.408 126.243 220.02 125.955 219.524C125.675 219.028 125.535 218.444 125.535 217.772C125.535 217.092 125.675 216.504 125.955 216.008C126.243 215.512 126.631 215.128 127.119 214.856C127.607 214.584 128.155 214.448 128.763 214.448C129.307 214.448 129.783 214.568 130.191 214.808C130.599 215.048 130.915 215.412 131.139 215.9C131.363 216.388 131.475 217.012 131.475 217.772C131.475 218.524 131.367 219.148 131.151 219.644C130.935 220.132 130.623 220.496 130.215 220.736C129.815 220.976 129.331 221.096 128.763 221.096ZM129.087 219.56C129.391 219.56 129.667 219.488 129.915 219.344C130.163 219.2 130.359 218.996 130.503 218.732C130.655 218.46 130.731 218.14 130.731 217.772C130.731 217.396 130.655 217.076 130.503 216.812C130.359 216.548 130.163 216.344 129.915 216.2C129.667 216.056 129.391 215.984 129.087 215.984C128.775 215.984 128.495 216.056 128.247 216.2C127.999 216.344 127.799 216.548 127.647 216.812C127.503 217.076 127.431 217.396 127.431 217.772C127.431 218.14 127.503 218.46 127.647 218.732C127.799 218.996 127.999 219.2 128.247 219.344C128.495 219.488 128.775 219.56 129.087 219.56ZM130.779 221V219.68L130.815 217.76L130.695 215.852V212.096H132.567V221H130.779ZM137.072 221.096C136.464 221.096 135.916 220.96 135.428 220.688C134.94 220.408 134.552 220.02 134.264 219.524C133.984 219.028 133.844 218.444 133.844 217.772C133.844 217.092 133.984 216.504 134.264 216.008C134.552 215.512 134.94 215.128 135.428 214.856C135.916 214.584 136.464 214.448 137.072 214.448C137.616 214.448 138.092 214.568 138.5 214.808C138.908 215.048 139.224 215.412 139.448 215.9C139.672 216.388 139.784 217.012 139.784 217.772C139.784 218.524 139.676 219.148 139.46 219.644C139.244 220.132 138.932 220.496 138.524 220.736C138.124 220.976 137.64 221.096 137.072 221.096ZM137.396 219.56C137.7 219.56 137.976 219.488 138.224 219.344C138.472 219.2 138.668 218.996 138.812 218.732C138.964 218.46 139.04 218.14 139.04 217.772C139.04 217.396 138.964 217.076 138.812 216.812C138.668 216.548 138.472 216.344 138.224 216.2C137.976 216.056 137.7 215.984 137.396 215.984C137.084 215.984 136.804 216.056 136.556 216.2C136.308 216.344 136.108 216.548 135.956 216.812C135.812 217.076 135.74 217.396 135.74 217.772C135.74 218.14 135.812 218.46 135.956 218.732C136.108 218.996 136.308 219.2 136.556 219.344C136.804 219.488 137.084 219.56 137.396 219.56ZM139.088 221V219.68L139.124 217.76L139.004 215.852V212.096H140.876V221H139.088ZM142.608 221V212.096H144.48V221H142.608ZM149.422 221.096C148.686 221.096 148.038 220.952 147.478 220.664C146.926 220.376 146.498 219.984 146.194 219.488C145.89 218.984 145.738 218.412 145.738 217.772C145.738 217.124 145.886 216.552 146.182 216.056C146.486 215.552 146.898 215.16 147.418 214.88C147.938 214.592 148.526 214.448 149.182 214.448C149.814 214.448 150.382 214.584 150.886 214.856C151.398 215.12 151.802 215.504 152.098 216.008C152.394 216.504 152.542 217.1 152.542 217.796C152.542 217.868 152.538 217.952 152.53 218.048C152.522 218.136 152.514 218.22 152.506 218.3H147.262V217.208H151.522L150.802 217.532C150.802 217.196 150.734 216.904 150.598 216.656C150.462 216.408 150.274 216.216 150.034 216.08C149.794 215.936 149.514 215.864 149.194 215.864C148.874 215.864 148.59 215.936 148.342 216.08C148.102 216.216 147.914 216.412 147.778 216.668C147.642 216.916 147.574 217.212 147.574 217.556V217.844C147.574 218.196 147.65 218.508 147.802 218.78C147.962 219.044 148.182 219.248 148.462 219.392C148.75 219.528 149.086 219.596 149.47 219.596C149.814 219.596 150.114 219.544 150.37 219.44C150.634 219.336 150.874 219.18 151.09 218.972L152.086 220.052C151.79 220.388 151.418 220.648 150.97 220.832C150.522 221.008 150.006 221.096 149.422 221.096ZM154.496 216.788C154.176 216.788 153.9 216.68 153.668 216.464C153.444 216.24 153.332 215.956 153.332 215.612C153.332 215.268 153.444 214.992 153.668 214.784C153.9 214.568 154.176 214.46 154.496 214.46C154.824 214.46 155.1 214.568 155.324 214.784C155.548 214.992 155.66 215.268 155.66 215.612C155.66 215.956 155.548 216.24 155.324 216.464C155.1 216.68 154.824 216.788 154.496 216.788ZM154.496 221.096C154.176 221.096 153.9 220.988 153.668 220.772C153.444 220.548 153.332 220.264 153.332 219.92C153.332 219.576 153.444 219.3 153.668 219.092C153.9 218.876 154.176 218.768 154.496 218.768C154.824 218.768 155.1 218.876 155.324 219.092C155.548 219.3 155.66 219.576 155.66 219.92C155.66 220.264 155.548 220.548 155.324 220.772C155.1 220.988 154.824 221.096 154.496 221.096ZM122.736 246V237.6H126.84C127.896 237.6 128.688 237.8 129.216 238.2C129.752 238.6 130.02 239.128 130.02 239.784C130.02 240.224 129.912 240.608 129.696 240.936C129.48 241.256 129.184 241.504 128.808 241.68C128.432 241.856 128 241.944 127.512 241.944L127.74 241.452C128.268 241.452 128.736 241.54 129.144 241.716C129.552 241.884 129.868 242.136 130.092 242.472C130.324 242.808 130.44 243.22 130.44 243.708C130.44 244.428 130.156 244.992 129.588 245.4C129.02 245.8 128.184 246 127.08 246H122.736ZM124.668 244.536H126.936C127.44 244.536 127.82 244.456 128.076 244.296C128.34 244.128 128.472 243.864 128.472 243.504C128.472 243.152 128.34 242.892 128.076 242.724C127.82 242.548 127.44 242.46 126.936 242.46H124.524V241.044H126.6C127.072 241.044 127.432 240.964 127.68 240.804C127.936 240.636 128.064 240.384 128.064 240.048C128.064 239.72 127.936 239.476 127.68 239.316C127.432 239.148 127.072 239.064 126.6 239.064H124.668V244.536ZM135.74 246V244.74L135.62 244.464V242.208C135.62 241.808 135.496 241.496 135.248 241.272C135.008 241.048 134.636 240.936 134.132 240.936C133.788 240.936 133.448 240.992 133.112 241.104C132.784 241.208 132.504 241.352 132.272 241.536L131.6 240.228C131.952 239.98 132.376 239.788 132.872 239.652C133.368 239.516 133.872 239.448 134.384 239.448C135.368 239.448 136.132 239.68 136.676 240.144C137.22 240.608 137.492 241.332 137.492 242.316V246H135.74ZM133.772 246.096C133.268 246.096 132.836 246.012 132.476 245.844C132.116 245.668 131.84 245.432 131.648 245.136C131.456 244.84 131.36 244.508 131.36 244.14C131.36 243.756 131.452 243.42 131.636 243.132C131.828 242.844 132.128 242.62 132.536 242.46C132.944 242.292 133.476 242.208 134.132 242.208H135.848V243.3H134.336C133.896 243.3 133.592 243.372 133.424 243.516C133.264 243.66 133.184 243.84 133.184 244.056C133.184 244.296 133.276 244.488 133.46 244.632C133.652 244.768 133.912 244.836 134.24 244.836C134.552 244.836 134.832 244.764 135.08 244.62C135.328 244.468 135.508 244.248 135.62 243.96L135.908 244.824C135.772 245.24 135.524 245.556 135.164 245.772C134.804 245.988 134.34 246.096 133.772 246.096ZM141.358 246.096C140.806 246.096 140.274 246.032 139.762 245.904C139.258 245.768 138.858 245.6 138.562 245.4L139.186 244.056C139.482 244.24 139.83 244.392 140.23 244.512C140.638 244.624 141.038 244.68 141.43 244.68C141.862 244.68 142.166 244.628 142.342 244.524C142.526 244.42 142.618 244.276 142.618 244.092C142.618 243.94 142.546 243.828 142.402 243.756C142.266 243.676 142.082 243.616 141.85 243.576C141.618 243.536 141.362 243.496 141.082 243.456C140.81 243.416 140.534 243.364 140.254 243.3C139.974 243.228 139.718 243.124 139.486 242.988C139.254 242.852 139.066 242.668 138.922 242.436C138.786 242.204 138.718 241.904 138.718 241.536C138.718 241.128 138.834 240.768 139.066 240.456C139.306 240.144 139.65 239.9 140.098 239.724C140.546 239.54 141.082 239.448 141.706 239.448C142.146 239.448 142.594 239.496 143.05 239.592C143.506 239.688 143.886 239.828 144.19 240.012L143.566 241.344C143.254 241.16 142.938 241.036 142.618 240.972C142.306 240.9 142.002 240.864 141.706 240.864C141.29 240.864 140.986 240.92 140.794 241.032C140.602 241.144 140.506 241.288 140.506 241.464C140.506 241.624 140.574 241.744 140.71 241.824C140.854 241.904 141.042 241.968 141.274 242.016C141.506 242.064 141.758 242.108 142.03 242.148C142.31 242.18 142.59 242.232 142.87 242.304C143.15 242.376 143.402 242.48 143.626 242.616C143.858 242.744 144.046 242.924 144.19 243.156C144.334 243.38 144.406 243.676 144.406 244.044C144.406 244.444 144.286 244.8 144.046 245.112C143.806 245.416 143.458 245.656 143.002 245.832C142.554 246.008 142.006 246.096 141.358 246.096ZM148.765 246.096C148.029 246.096 147.381 245.952 146.821 245.664C146.269 245.376 145.841 244.984 145.537 244.488C145.233 243.984 145.081 243.412 145.081 242.772C145.081 242.124 145.229 241.552 145.525 241.056C145.829 240.552 146.241 240.16 146.761 239.88C147.281 239.592 147.869 239.448 148.525 239.448C149.157 239.448 149.725 239.584 150.229 239.856C150.741 240.12 151.145 240.504 151.441 241.008C151.737 241.504 151.885 242.1 151.885 242.796C151.885 242.868 151.881 242.952 151.873 243.048C151.865 243.136 151.857 243.22 151.849 243.3H146.605V242.208H150.865L150.145 242.532C150.145 242.196 150.077 241.904 149.941 241.656C149.805 241.408 149.617 241.216 149.377 241.08C149.137 240.936 148.857 240.864 148.537 240.864C148.217 240.864 147.933 240.936 147.685 241.08C147.445 241.216 147.257 241.412 147.121 241.668C146.985 241.916 146.917 242.212 146.917 242.556V242.844C146.917 243.196 146.993 243.508 147.145 243.78C147.305 244.044 147.525 244.248 147.805 244.392C148.093 244.528 148.429 244.596 148.813 244.596C149.157 244.596 149.457 244.544 149.713 244.44C149.977 244.336 150.217 244.18 150.433 243.972L151.429 245.052C151.133 245.388 150.761 245.648 150.313 245.832C149.865 246.008 149.349 246.096 148.765 246.096ZM153.84 241.788C153.52 241.788 153.244 241.68 153.012 241.464C152.788 241.24 152.676 240.956 152.676 240.612C152.676 240.268 152.788 239.992 153.012 239.784C153.244 239.568 153.52 239.46 153.84 239.46C154.168 239.46 154.444 239.568 154.668 239.784C154.892 239.992 155.004 240.268 155.004 240.612C155.004 240.956 154.892 241.24 154.668 241.464C154.444 241.68 154.168 241.788 153.84 241.788ZM153.84 246.096C153.52 246.096 153.244 245.988 153.012 245.772C152.788 245.548 152.676 245.264 152.676 244.92C152.676 244.576 152.788 244.3 153.012 244.092C153.244 243.876 153.52 243.768 153.84 243.768C154.168 243.768 154.444 243.876 154.668 244.092C154.892 244.3 155.004 244.576 155.004 244.92C155.004 245.264 154.892 245.548 154.668 245.772C154.444 245.988 154.168 246.096 153.84 246.096Z" fill="#F5FF70"/>
<path d="M150.732 196L154.536 187.6H155.724L159.54 196H158.28L154.884 188.272H155.364L151.968 196H150.732ZM152.352 193.9L152.676 192.94H157.404L157.752 193.9H152.352ZM160.625 196V187.096H161.777V196H160.625ZM171.933 189.58C172.445 189.58 172.897 189.68 173.289 189.88C173.681 190.08 173.985 190.384 174.201 190.792C174.425 191.2 174.537 191.716 174.537 192.34V196H173.385V192.472C173.385 191.856 173.241 191.392 172.953 191.08C172.665 190.768 172.261 190.612 171.741 190.612C171.357 190.612 171.021 190.692 170.733 190.852C170.445 191.012 170.221 191.248 170.061 191.56C169.909 191.872 169.833 192.26 169.833 192.724V196H168.681V192.472C168.681 191.856 168.537 191.392 168.249 191.08C167.969 190.768 167.565 190.612 167.037 190.612C166.661 190.612 166.329 190.692 166.041 190.852C165.753 191.012 165.529 191.248 165.369 191.56C165.209 191.872 165.129 192.26 165.129 192.724V196H163.977V189.64H165.081V191.332L164.901 190.9C165.101 190.484 165.409 190.16 165.825 189.928C166.241 189.696 166.725 189.58 167.277 189.58C167.885 189.58 168.409 189.732 168.849 190.036C169.289 190.332 169.577 190.784 169.713 191.392L169.245 191.2C169.437 190.712 169.773 190.32 170.253 190.024C170.733 189.728 171.293 189.58 171.933 189.58ZM179.38 196.072C178.74 196.072 178.172 195.932 177.676 195.652C177.18 195.372 176.788 194.988 176.5 194.5C176.212 194.004 176.068 193.444 176.068 192.82C176.068 192.188 176.212 191.628 176.5 191.14C176.788 190.652 177.18 190.272 177.676 190C178.172 189.72 178.74 189.58 179.38 189.58C180.012 189.58 180.576 189.72 181.072 190C181.576 190.272 181.968 190.652 182.248 191.14C182.536 191.62 182.68 192.18 182.68 192.82C182.68 193.452 182.536 194.012 182.248 194.5C181.968 194.988 181.576 195.372 181.072 195.652C180.576 195.932 180.012 196.072 179.38 196.072ZM179.38 195.064C179.788 195.064 180.152 194.972 180.472 194.788C180.8 194.604 181.056 194.344 181.24 194.008C181.424 193.664 181.516 193.268 181.516 192.82C181.516 192.364 181.424 191.972 181.24 191.644C181.056 191.308 180.8 191.048 180.472 190.864C180.152 190.68 179.788 190.588 179.38 190.588C178.972 190.588 178.608 190.68 178.288 190.864C177.968 191.048 177.712 191.308 177.52 191.644C177.328 191.972 177.232 192.364 177.232 192.82C177.232 193.268 177.328 193.664 177.52 194.008C177.712 194.344 177.968 194.604 178.288 194.788C178.608 194.972 178.972 195.064 179.38 195.064ZM187.67 189.58C188.19 189.58 188.646 189.68 189.038 189.88C189.438 190.08 189.75 190.384 189.974 190.792C190.198 191.2 190.31 191.716 190.31 192.34V196H189.158V192.472C189.158 191.856 189.006 191.392 188.702 191.08C188.406 190.768 187.986 190.612 187.442 190.612C187.034 190.612 186.678 190.692 186.374 190.852C186.07 191.012 185.834 191.248 185.666 191.56C185.506 191.872 185.426 192.26 185.426 192.724V196H184.274V189.64H185.378V191.356L185.198 190.9C185.406 190.484 185.726 190.16 186.158 189.928C186.59 189.696 187.094 189.58 187.67 189.58ZM195.07 196.072C194.454 196.072 193.902 195.936 193.414 195.664C192.934 195.392 192.554 195.012 192.274 194.524C191.994 194.036 191.854 193.468 191.854 192.82C191.854 192.172 191.994 191.608 192.274 191.128C192.554 190.64 192.934 190.26 193.414 189.988C193.902 189.716 194.454 189.58 195.07 189.58C195.606 189.58 196.09 189.7 196.522 189.94C196.954 190.18 197.298 190.54 197.554 191.02C197.818 191.5 197.95 192.1 197.95 192.82C197.95 193.54 197.822 194.14 197.566 194.62C197.318 195.1 196.978 195.464 196.546 195.712C196.114 195.952 195.622 196.072 195.07 196.072ZM195.166 195.064C195.566 195.064 195.926 194.972 196.246 194.788C196.574 194.604 196.83 194.344 197.014 194.008C197.206 193.664 197.302 193.268 197.302 192.82C197.302 192.364 197.206 191.972 197.014 191.644C196.83 191.308 196.574 191.048 196.246 190.864C195.926 190.68 195.566 190.588 195.166 190.588C194.758 190.588 194.394 190.68 194.074 190.864C193.754 191.048 193.498 191.308 193.306 191.644C193.114 191.972 193.018 192.364 193.018 192.82C193.018 193.268 193.114 193.664 193.306 194.008C193.498 194.344 193.754 194.604 194.074 194.788C194.394 194.972 194.758 195.064 195.166 195.064ZM197.338 196V194.284L197.41 192.808L197.29 191.332V187.096H198.442V196H197.338ZM164.303 221.096C163.663 221.096 163.071 220.992 162.527 220.784C161.991 220.568 161.523 220.268 161.123 219.884C160.731 219.492 160.423 219.036 160.199 218.516C159.975 217.996 159.863 217.424 159.863 216.8C159.863 216.176 159.975 215.604 160.199 215.084C160.423 214.564 160.735 214.112 161.135 213.728C161.535 213.336 162.003 213.036 162.539 212.828C163.083 212.612 163.675 212.504 164.315 212.504C164.963 212.504 165.559 212.616 166.103 212.84C166.655 213.056 167.123 213.38 167.507 213.812L166.727 214.568C166.407 214.232 166.047 213.984 165.647 213.824C165.247 213.656 164.819 213.572 164.363 213.572C163.891 213.572 163.451 213.652 163.043 213.812C162.643 213.972 162.295 214.196 161.999 214.484C161.703 214.772 161.471 215.116 161.303 215.516C161.143 215.908 161.063 216.336 161.063 216.8C161.063 217.264 161.143 217.696 161.303 218.096C161.471 218.488 161.703 218.828 161.999 219.116C162.295 219.404 162.643 219.628 163.043 219.788C163.451 219.948 163.891 220.028 164.363 220.028C164.819 220.028 165.247 219.948 165.647 219.788C166.047 219.62 166.407 219.364 166.727 219.02L167.507 219.776C167.123 220.208 166.655 220.536 166.103 220.76C165.559 220.984 164.959 221.096 164.303 221.096ZM171.505 221.072C170.865 221.072 170.297 220.932 169.801 220.652C169.305 220.372 168.913 219.988 168.625 219.5C168.337 219.004 168.193 218.444 168.193 217.82C168.193 217.188 168.337 216.628 168.625 216.14C168.913 215.652 169.305 215.272 169.801 215C170.297 214.72 170.865 214.58 171.505 214.58C172.137 214.58 172.701 214.72 173.197 215C173.701 215.272 174.093 215.652 174.373 216.14C174.661 216.62 174.805 217.18 174.805 217.82C174.805 218.452 174.661 219.012 174.373 219.5C174.093 219.988 173.701 220.372 173.197 220.652C172.701 220.932 172.137 221.072 171.505 221.072ZM171.505 220.064C171.913 220.064 172.277 219.972 172.597 219.788C172.925 219.604 173.181 219.344 173.365 219.008C173.549 218.664 173.641 218.268 173.641 217.82C173.641 217.364 173.549 216.972 173.365 216.644C173.181 216.308 172.925 216.048 172.597 215.864C172.277 215.68 171.913 215.588 171.505 215.588C171.097 215.588 170.733 215.68 170.413 215.864C170.093 216.048 169.837 216.308 169.645 216.644C169.453 216.972 169.357 217.364 169.357 217.82C169.357 218.268 169.453 218.664 169.645 219.008C169.837 219.344 170.093 219.604 170.413 219.788C170.733 219.972 171.097 220.064 171.505 220.064ZM179.171 221.072C178.523 221.072 177.943 220.932 177.431 220.652C176.927 220.372 176.531 219.988 176.243 219.5C175.955 219.012 175.811 218.452 175.811 217.82C175.811 217.188 175.955 216.628 176.243 216.14C176.531 215.652 176.927 215.272 177.431 215C177.943 214.72 178.523 214.58 179.171 214.58C179.747 214.58 180.259 214.696 180.707 214.928C181.163 215.152 181.515 215.488 181.763 215.936L180.887 216.5C180.679 216.188 180.423 215.96 180.119 215.816C179.823 215.664 179.503 215.588 179.159 215.588C178.743 215.588 178.371 215.68 178.043 215.864C177.715 216.048 177.455 216.308 177.263 216.644C177.071 216.972 176.975 217.364 176.975 217.82C176.975 218.276 177.071 218.672 177.263 219.008C177.455 219.344 177.715 219.604 178.043 219.788C178.371 219.972 178.743 220.064 179.159 220.064C179.503 220.064 179.823 219.992 180.119 219.848C180.423 219.696 180.679 219.464 180.887 219.152L181.763 219.704C181.515 220.144 181.163 220.484 180.707 220.724C180.259 220.956 179.747 221.072 179.171 221.072ZM185.884 221.072C185.244 221.072 184.676 220.932 184.18 220.652C183.684 220.372 183.292 219.988 183.004 219.5C182.716 219.004 182.572 218.444 182.572 217.82C182.572 217.188 182.716 216.628 183.004 216.14C183.292 215.652 183.684 215.272 184.18 215C184.676 214.72 185.244 214.58 185.884 214.58C186.516 214.58 187.08 214.72 187.576 215C188.08 215.272 188.472 215.652 188.752 216.14C189.04 216.62 189.184 217.18 189.184 217.82C189.184 218.452 189.04 219.012 188.752 219.5C188.472 219.988 188.08 220.372 187.576 220.652C187.08 220.932 186.516 221.072 185.884 221.072ZM185.884 220.064C186.292 220.064 186.656 219.972 186.976 219.788C187.304 219.604 187.56 219.344 187.744 219.008C187.928 218.664 188.02 218.268 188.02 217.82C188.02 217.364 187.928 216.972 187.744 216.644C187.56 216.308 187.304 216.048 186.976 215.864C186.656 215.68 186.292 215.588 185.884 215.588C185.476 215.588 185.112 215.68 184.792 215.864C184.472 216.048 184.216 216.308 184.024 216.644C183.832 216.972 183.736 217.364 183.736 217.82C183.736 218.268 183.832 218.664 184.024 219.008C184.216 219.344 184.472 219.604 184.792 219.788C185.112 219.972 185.476 220.064 185.884 220.064ZM194.174 214.58C194.694 214.58 195.15 214.68 195.542 214.88C195.942 215.08 196.254 215.384 196.478 215.792C196.702 216.2 196.814 216.716 196.814 217.34V221H195.662V217.472C195.662 216.856 195.51 216.392 195.206 216.08C194.91 215.768 194.49 215.612 193.946 215.612C193.538 215.612 193.182 215.692 192.878 215.852C192.574 216.012 192.338 216.248 192.17 216.56C192.01 216.872 191.93 217.26 191.93 217.724V221H190.778V214.64H191.882V216.356L191.702 215.9C191.91 215.484 192.23 215.16 192.662 214.928C193.094 214.696 193.598 214.58 194.174 214.58ZM201.622 221.072C201.078 221.072 200.598 220.972 200.182 220.772C199.774 220.572 199.454 220.268 199.222 219.86C198.998 219.444 198.886 218.924 198.886 218.3V214.64H200.038V218.168C200.038 218.792 200.186 219.26 200.482 219.572C200.786 219.884 201.21 220.04 201.754 220.04C202.154 220.04 202.502 219.96 202.798 219.8C203.094 219.632 203.322 219.392 203.482 219.08C203.642 218.76 203.722 218.376 203.722 217.928V214.64H204.874V221H203.782V219.284L203.962 219.74C203.754 220.164 203.442 220.492 203.026 220.724C202.61 220.956 202.142 221.072 201.622 221.072ZM209.251 221.072C208.611 221.072 208.115 220.9 207.763 220.556C207.411 220.212 207.235 219.72 207.235 219.08V213.248H208.387V219.032C208.387 219.376 208.471 219.64 208.639 219.824C208.815 220.008 209.063 220.1 209.383 220.1C209.743 220.1 210.043 220 210.283 219.8L210.643 220.628C210.467 220.78 210.255 220.892 210.007 220.964C209.767 221.036 209.515 221.072 209.251 221.072ZM206.155 215.588V214.64H210.211V215.588H206.155ZM162.491 246L158.795 237.6H160.091L163.487 245.352H162.743L166.163 237.6H167.363L163.679 246H162.491ZM171.733 246V244.656L171.673 244.404V242.112C171.673 241.624 171.529 241.248 171.241 240.984C170.961 240.712 170.537 240.576 169.969 240.576C169.593 240.576 169.225 240.64 168.865 240.768C168.505 240.888 168.201 241.052 167.953 241.26L167.473 240.396C167.801 240.132 168.193 239.932 168.649 239.796C169.113 239.652 169.597 239.58 170.101 239.58C170.973 239.58 171.645 239.792 172.117 240.216C172.589 240.64 172.825 241.288 172.825 242.16V246H171.733ZM169.645 246.072C169.173 246.072 168.757 245.992 168.397 245.832C168.045 245.672 167.773 245.452 167.581 245.172C167.389 244.884 167.293 244.56 167.293 244.2C167.293 243.856 167.373 243.544 167.533 243.264C167.701 242.984 167.969 242.76 168.337 242.592C168.713 242.424 169.217 242.34 169.849 242.34H171.865V243.168H169.897C169.321 243.168 168.933 243.264 168.733 243.456C168.533 243.648 168.433 243.88 168.433 244.152C168.433 244.464 168.557 244.716 168.805 244.908C169.053 245.092 169.397 245.184 169.837 245.184C170.269 245.184 170.645 245.088 170.965 244.896C171.293 244.704 171.529 244.424 171.673 244.056L171.901 244.848C171.749 245.224 171.481 245.524 171.097 245.748C170.713 245.964 170.229 246.072 169.645 246.072ZM178.353 239.58C178.873 239.58 179.329 239.68 179.721 239.88C180.121 240.08 180.433 240.384 180.657 240.792C180.881 241.2 180.993 241.716 180.993 242.34V246H179.841V242.472C179.841 241.856 179.689 241.392 179.385 241.08C179.089 240.768 178.669 240.612 178.125 240.612C177.717 240.612 177.361 240.692 177.057 240.852C176.753 241.012 176.517 241.248 176.349 241.56C176.189 241.872 176.109 242.26 176.109 242.724V246H174.957V239.64H176.061V241.356L175.881 240.9C176.089 240.484 176.409 240.16 176.841 239.928C177.273 239.696 177.777 239.58 178.353 239.58ZM183.125 246V239.64H184.277V246H183.125ZM183.701 238.416C183.477 238.416 183.289 238.344 183.137 238.2C182.993 238.056 182.921 237.88 182.921 237.672C182.921 237.456 182.993 237.276 183.137 237.132C183.289 236.988 183.477 236.916 183.701 236.916C183.925 236.916 184.109 236.988 184.253 237.132C184.405 237.268 184.481 237.44 184.481 237.648C184.481 237.864 184.409 238.048 184.265 238.2C184.121 238.344 183.933 238.416 183.701 238.416ZM186.477 246V237.096H187.629V246H186.477ZM189.828 246V237.096H190.98V246H189.828ZM197.128 246V244.656L197.068 244.404V242.112C197.068 241.624 196.924 241.248 196.636 240.984C196.356 240.712 195.932 240.576 195.364 240.576C194.988 240.576 194.62 240.64 194.26 240.768C193.9 240.888 193.596 241.052 193.348 241.26L192.868 240.396C193.196 240.132 193.588 239.932 194.044 239.796C194.508 239.652 194.992 239.58 195.496 239.58C196.368 239.58 197.04 239.792 197.512 240.216C197.984 240.64 198.22 241.288 198.22 242.16V246H197.128ZM195.04 246.072C194.568 246.072 194.152 245.992 193.792 245.832C193.44 245.672 193.168 245.452 192.976 245.172C192.784 244.884 192.688 244.56 192.688 244.2C192.688 243.856 192.768 243.544 192.928 243.264C193.096 242.984 193.364 242.76 193.732 242.592C194.108 242.424 194.612 242.34 195.244 242.34H197.26V243.168H195.292C194.716 243.168 194.328 243.264 194.128 243.456C193.928 243.648 193.828 243.88 193.828 244.152C193.828 244.464 193.952 244.716 194.2 244.908C194.448 245.092 194.792 245.184 195.232 245.184C195.664 245.184 196.04 245.088 196.36 244.896C196.688 244.704 196.924 244.424 197.068 244.056L197.296 244.848C197.144 245.224 196.876 245.524 196.492 245.748C196.108 245.964 195.624 246.072 195.04 246.072Z" fill="white"/>
<path d="M160 135V168" stroke="white"/>
</svg>
