<svg width="320" height="320" viewBox="0 0 320 320" fill="none" xmlns="http://www.w3.org/2000/svg">
<path d="M0 0H320V287L303.5 303.5L286.5 320H0V0Z" fill="#F26522"/>
<path d="M105.472 63V49.368H100.096V46.2H114.736V49.368H109.36V63H105.472ZM123.692 49.896C124.716 49.896 125.628 50.104 126.428 50.52C127.244 50.92 127.884 51.544 128.348 52.392C128.812 53.224 129.044 54.296 129.044 55.608V63H125.3V56.184C125.3 55.144 125.068 54.376 124.604 53.88C124.156 53.384 123.516 53.136 122.684 53.136C122.092 53.136 121.556 53.264 121.076 53.52C120.612 53.76 120.244 54.136 119.972 54.648C119.716 55.16 119.588 55.816 119.588 56.616V63H115.844V45.192H119.588V53.664L118.748 52.584C119.212 51.72 119.876 51.056 120.74 50.592C121.604 50.128 122.588 49.896 123.692 49.896ZM138.219 63.192C136.747 63.192 135.451 62.904 134.331 62.328C133.227 61.752 132.371 60.968 131.763 59.976C131.155 58.968 130.851 57.824 130.851 56.544C130.851 55.248 131.147 54.104 131.739 53.112C132.347 52.104 133.171 51.32 134.211 50.76C135.251 50.184 136.427 49.896 137.739 49.896C139.003 49.896 140.139 50.168 141.147 50.712C142.171 51.24 142.979 52.008 143.571 53.016C144.163 54.008 144.459 55.2 144.459 56.592C144.459 56.736 144.451 56.904 144.435 57.096C144.419 57.272 144.403 57.44 144.387 57.6H133.899V55.416H142.419L140.979 56.064C140.979 55.392 140.843 54.808 140.571 54.312C140.299 53.816 139.923 53.432 139.443 53.16C138.963 52.872 138.403 52.728 137.763 52.728C137.123 52.728 136.555 52.872 136.059 53.16C135.579 53.432 135.203 53.824 134.931 54.336C134.659 54.832 134.523 55.424 134.523 56.112V56.688C134.523 57.392 134.675 58.016 134.979 58.56C135.299 59.088 135.739 59.496 136.299 59.784C136.875 60.056 137.547 60.192 138.315 60.192C139.003 60.192 139.603 60.088 140.115 59.88C140.643 59.672 141.123 59.36 141.555 58.944L143.547 61.104C142.955 61.776 142.211 62.296 141.315 62.664C140.419 63.016 139.387 63.192 138.219 63.192ZM152.573 63V46.2H155.789L165.701 58.296H164.141V46.2H167.981V63H164.789L154.853 50.904H156.413V63H152.573ZM177.116 63.192C175.74 63.192 174.516 62.904 173.444 62.328C172.388 61.752 171.548 60.968 170.924 59.976C170.316 58.968 170.012 57.824 170.012 56.544C170.012 55.248 170.316 54.104 170.924 53.112C171.548 52.104 172.388 51.32 173.444 50.76C174.516 50.184 175.74 49.896 177.116 49.896C178.476 49.896 179.692 50.184 180.764 50.76C181.836 51.32 182.676 52.096 183.284 53.088C183.892 54.08 184.196 55.232 184.196 56.544C184.196 57.824 183.892 58.968 183.284 59.976C182.676 60.968 181.836 61.752 180.764 62.328C179.692 62.904 178.476 63.192 177.116 63.192ZM177.116 60.12C177.74 60.12 178.3 59.976 178.796 59.688C179.292 59.4 179.684 58.992 179.972 58.464C180.26 57.92 180.404 57.28 180.404 56.544C180.404 55.792 180.26 55.152 179.972 54.624C179.684 54.096 179.292 53.688 178.796 53.4C178.3 53.112 177.74 52.968 177.116 52.968C176.492 52.968 175.932 53.112 175.436 53.4C174.94 53.688 174.54 54.096 174.236 54.624C173.948 55.152 173.804 55.792 173.804 56.544C173.804 57.28 173.948 57.92 174.236 58.464C174.54 58.992 174.94 59.4 175.436 59.688C175.932 59.976 176.492 60.12 177.116 60.12ZM191.258 63.192C189.738 63.192 188.554 62.808 187.706 62.04C186.858 61.256 186.434 60.096 186.434 58.56V47.232H190.178V58.512C190.178 59.056 190.322 59.48 190.61 59.784C190.898 60.072 191.29 60.216 191.786 60.216C192.378 60.216 192.882 60.056 193.298 59.736L194.306 62.376C193.922 62.648 193.458 62.856 192.914 63C192.386 63.128 191.834 63.192 191.258 63.192ZM184.442 53.256V50.376H193.394V53.256H184.442ZM201.698 63.192C200.226 63.192 198.93 62.904 197.81 62.328C196.706 61.752 195.85 60.968 195.242 59.976C194.634 58.968 194.33 57.824 194.33 56.544C194.33 55.248 194.626 54.104 195.218 53.112C195.826 52.104 196.65 51.32 197.69 50.76C198.73 50.184 199.906 49.896 201.218 49.896C202.482 49.896 203.618 50.168 204.626 50.712C205.65 51.24 206.458 52.008 207.05 53.016C207.642 54.008 207.938 55.2 207.938 56.592C207.938 56.736 207.93 56.904 207.914 57.096C207.898 57.272 207.882 57.44 207.866 57.6H197.378V55.416H205.898L204.458 56.064C204.458 55.392 204.322 54.808 204.05 54.312C203.778 53.816 203.402 53.432 202.922 53.16C202.442 52.872 201.882 52.728 201.242 52.728C200.602 52.728 200.034 52.872 199.538 53.16C199.058 53.432 198.682 53.824 198.41 54.336C198.138 54.832 198.002 55.424 198.002 56.112V56.688C198.002 57.392 198.154 58.016 198.458 58.56C198.778 59.088 199.218 59.496 199.778 59.784C200.354 60.056 201.026 60.192 201.794 60.192C202.482 60.192 203.082 60.088 203.594 59.88C204.122 59.672 204.602 59.36 205.034 58.944L207.026 61.104C206.434 61.776 205.69 62.296 204.794 62.664C203.898 63.016 202.866 63.192 201.698 63.192ZM214.054 63.192C212.95 63.192 211.886 63.064 210.862 62.808C209.854 62.536 209.054 62.2 208.462 61.8L209.71 59.112C210.302 59.48 210.998 59.784 211.798 60.024C212.614 60.248 213.414 60.36 214.198 60.36C215.062 60.36 215.67 60.256 216.022 60.048C216.39 59.84 216.574 59.552 216.574 59.184C216.574 58.88 216.43 58.656 216.142 58.512C215.87 58.352 215.502 58.232 215.038 58.152C214.574 58.072 214.062 57.992 213.502 57.912C212.958 57.832 212.406 57.728 211.846 57.6C211.286 57.456 210.774 57.248 210.31 56.976C209.846 56.704 209.47 56.336 209.182 55.872C208.91 55.408 208.774 54.808 208.774 54.072C208.774 53.256 209.006 52.536 209.47 51.912C209.95 51.288 210.638 50.8 211.534 50.448C212.43 50.08 213.502 49.896 214.75 49.896C215.63 49.896 216.526 49.992 217.438 50.184C218.35 50.376 219.11 50.656 219.718 51.024L218.47 53.688C217.846 53.32 217.214 53.072 216.574 52.944C215.95 52.8 215.342 52.728 214.75 52.728C213.918 52.728 213.31 52.84 212.926 53.064C212.542 53.288 212.35 53.576 212.35 53.928C212.35 54.248 212.486 54.488 212.758 54.648C213.046 54.808 213.422 54.936 213.886 55.032C214.35 55.128 214.854 55.216 215.398 55.296C215.958 55.36 216.518 55.464 217.078 55.608C217.638 55.752 218.142 55.96 218.59 56.232C219.054 56.488 219.43 56.848 219.718 57.312C220.006 57.76 220.15 58.352 220.15 59.088C220.15 59.888 219.91 60.6 219.43 61.224C218.95 61.832 218.254 62.312 217.342 62.664C216.446 63.016 215.35 63.192 214.054 63.192Z" fill="white"/>
<path d="M104.994 176V169.184H102.306V167.6H109.626V169.184H106.938V176H104.994ZM112.956 176.096C112.268 176.096 111.656 175.952 111.12 175.664C110.592 175.376 110.172 174.984 109.86 174.488C109.556 173.984 109.404 173.412 109.404 172.772C109.404 172.124 109.556 171.552 109.86 171.056C110.172 170.552 110.592 170.16 111.12 169.88C111.656 169.592 112.268 169.448 112.956 169.448C113.636 169.448 114.244 169.592 114.78 169.88C115.316 170.16 115.736 170.548 116.04 171.044C116.344 171.54 116.496 172.116 116.496 172.772C116.496 173.412 116.344 173.984 116.04 174.488C115.736 174.984 115.316 175.376 114.78 175.664C114.244 175.952 113.636 176.096 112.956 176.096ZM112.956 174.56C113.268 174.56 113.548 174.488 113.796 174.344C114.044 174.2 114.24 173.996 114.384 173.732C114.528 173.46 114.6 173.14 114.6 172.772C114.6 172.396 114.528 172.076 114.384 171.812C114.24 171.548 114.044 171.344 113.796 171.2C113.548 171.056 113.268 170.984 112.956 170.984C112.644 170.984 112.364 171.056 112.116 171.2C111.868 171.344 111.668 171.548 111.516 171.812C111.372 172.076 111.3 172.396 111.3 172.772C111.3 173.14 111.372 173.46 111.516 173.732C111.668 173.996 111.868 174.2 112.116 174.344C112.364 174.488 112.644 174.56 112.956 174.56ZM121.563 176.096C121.019 176.096 120.543 175.976 120.135 175.736C119.727 175.496 119.407 175.132 119.175 174.644C118.951 174.148 118.839 173.524 118.839 172.772C118.839 172.012 118.947 171.388 119.163 170.9C119.379 170.412 119.691 170.048 120.099 169.808C120.507 169.568 120.995 169.448 121.563 169.448C122.171 169.448 122.715 169.588 123.195 169.868C123.683 170.14 124.067 170.524 124.347 171.02C124.635 171.516 124.779 172.1 124.779 172.772C124.779 173.452 124.635 174.04 124.347 174.536C124.067 175.032 123.683 175.416 123.195 175.688C122.715 175.96 122.171 176.096 121.563 176.096ZM117.747 178.328V169.544H119.535V170.864L119.499 172.784L119.619 174.692V178.328H117.747ZM121.239 174.56C121.551 174.56 121.827 174.488 122.067 174.344C122.315 174.2 122.511 173.996 122.655 173.732C122.807 173.46 122.883 173.14 122.883 172.772C122.883 172.396 122.807 172.076 122.655 171.812C122.511 171.548 122.315 171.344 122.067 171.2C121.827 171.056 121.551 170.984 121.239 170.984C120.927 170.984 120.647 171.056 120.399 171.2C120.151 171.344 119.955 171.548 119.811 171.812C119.667 172.076 119.595 172.396 119.595 172.772C119.595 173.14 119.667 173.46 119.811 173.732C119.955 173.996 120.151 174.2 120.399 174.344C120.647 174.488 120.927 174.56 121.239 174.56ZM126.74 171.788C126.42 171.788 126.144 171.68 125.912 171.464C125.688 171.24 125.576 170.956 125.576 170.612C125.576 170.268 125.688 169.992 125.912 169.784C126.144 169.568 126.42 169.46 126.74 169.46C127.068 169.46 127.344 169.568 127.568 169.784C127.792 169.992 127.904 170.268 127.904 170.612C127.904 170.956 127.792 171.24 127.568 171.464C127.344 171.68 127.068 171.788 126.74 171.788ZM126.74 176.096C126.42 176.096 126.144 175.988 125.912 175.772C125.688 175.548 125.576 175.264 125.576 174.92C125.576 174.576 125.688 174.3 125.912 174.092C126.144 173.876 126.42 173.768 126.74 173.768C127.068 173.768 127.344 173.876 127.568 174.092C127.792 174.3 127.904 174.576 127.904 174.92C127.904 175.264 127.792 175.548 127.568 175.772C127.344 175.988 127.068 176.096 126.74 176.096ZM28.1718 201V192.6H29.7798L33.3558 198.528H32.5038L36.0198 192.6H37.6158L37.6398 201H35.8158L35.8038 195.396H36.1398L33.3318 200.112H32.4558L29.5878 195.396H29.9958V201H28.1718ZM39.5007 201V194.544H41.3727V201H39.5007ZM40.4367 193.644C40.0927 193.644 39.8127 193.544 39.5967 193.344C39.3807 193.144 39.2727 192.896 39.2727 192.6C39.2727 192.304 39.3807 192.056 39.5967 191.856C39.8127 191.656 40.0927 191.556 40.4367 191.556C40.7807 191.556 41.0607 191.652 41.2767 191.844C41.4927 192.028 41.6007 192.268 41.6007 192.564C41.6007 192.876 41.4927 193.136 41.2767 193.344C41.0687 193.544 40.7887 193.644 40.4367 193.644ZM45.8821 201.096C45.2741 201.096 44.7261 200.96 44.2381 200.688C43.7501 200.408 43.3621 200.02 43.0741 199.524C42.7941 199.028 42.6541 198.444 42.6541 197.772C42.6541 197.092 42.7941 196.504 43.0741 196.008C43.3621 195.512 43.7501 195.128 44.2381 194.856C44.7261 194.584 45.2741 194.448 45.8821 194.448C46.4261 194.448 46.9021 194.568 47.3101 194.808C47.7181 195.048 48.0341 195.412 48.2581 195.9C48.4821 196.388 48.5941 197.012 48.5941 197.772C48.5941 198.524 48.4861 199.148 48.2701 199.644C48.0541 200.132 47.7421 200.496 47.3341 200.736C46.9341 200.976 46.4501 201.096 45.8821 201.096ZM46.2061 199.56C46.5101 199.56 46.7861 199.488 47.0341 199.344C47.2821 199.2 47.4781 198.996 47.6221 198.732C47.7741 198.46 47.8501 198.14 47.8501 197.772C47.8501 197.396 47.7741 197.076 47.6221 196.812C47.4781 196.548 47.2821 196.344 47.0341 196.2C46.7861 196.056 46.5101 195.984 46.2061 195.984C45.8941 195.984 45.6141 196.056 45.3661 196.2C45.1181 196.344 44.9181 196.548 44.7661 196.812C44.6221 197.076 44.5501 197.396 44.5501 197.772C44.5501 198.14 44.6221 198.46 44.7661 198.732C44.9181 198.996 45.1181 199.2 45.3661 199.344C45.6141 199.488 45.8941 199.56 46.2061 199.56ZM47.8981 201V199.68L47.9341 197.76L47.8141 195.852V192.096H49.6861V201H47.8981ZM54.1907 201.096C53.5827 201.096 53.0347 200.96 52.5467 200.688C52.0587 200.408 51.6707 200.02 51.3827 199.524C51.1027 199.028 50.9627 198.444 50.9627 197.772C50.9627 197.092 51.1027 196.504 51.3827 196.008C51.6707 195.512 52.0587 195.128 52.5467 194.856C53.0347 194.584 53.5827 194.448 54.1907 194.448C54.7347 194.448 55.2107 194.568 55.6187 194.808C56.0267 195.048 56.3427 195.412 56.5667 195.9C56.7907 196.388 56.9027 197.012 56.9027 197.772C56.9027 198.524 56.7947 199.148 56.5787 199.644C56.3627 200.132 56.0507 200.496 55.6427 200.736C55.2427 200.976 54.7587 201.096 54.1907 201.096ZM54.5147 199.56C54.8187 199.56 55.0947 199.488 55.3427 199.344C55.5907 199.2 55.7867 198.996 55.9307 198.732C56.0827 198.46 56.1587 198.14 56.1587 197.772C56.1587 197.396 56.0827 197.076 55.9307 196.812C55.7867 196.548 55.5907 196.344 55.3427 196.2C55.0947 196.056 54.8187 195.984 54.5147 195.984C54.2027 195.984 53.9227 196.056 53.6747 196.2C53.4267 196.344 53.2267 196.548 53.0747 196.812C52.9307 197.076 52.8587 197.396 52.8587 197.772C52.8587 198.14 52.9307 198.46 53.0747 198.732C53.2267 198.996 53.4267 199.2 53.6747 199.344C53.9227 199.488 54.2027 199.56 54.5147 199.56ZM56.2067 201V199.68L56.2427 197.76L56.1227 195.852V192.096H57.9947V201H56.2067ZM59.7273 201V192.096H61.5993V201H59.7273ZM66.5407 201.096C65.8047 201.096 65.1567 200.952 64.5967 200.664C64.0447 200.376 63.6167 199.984 63.3127 199.488C63.0087 198.984 62.8567 198.412 62.8567 197.772C62.8567 197.124 63.0047 196.552 63.3007 196.056C63.6047 195.552 64.0167 195.16 64.5367 194.88C65.0567 194.592 65.6447 194.448 66.3007 194.448C66.9327 194.448 67.5007 194.584 68.0047 194.856C68.5167 195.12 68.9207 195.504 69.2167 196.008C69.5127 196.504 69.6607 197.1 69.6607 197.796C69.6607 197.868 69.6567 197.952 69.6487 198.048C69.6407 198.136 69.6327 198.22 69.6247 198.3H64.3807V197.208H68.6407L67.9207 197.532C67.9207 197.196 67.8527 196.904 67.7167 196.656C67.5807 196.408 67.3927 196.216 67.1527 196.08C66.9127 195.936 66.6327 195.864 66.3127 195.864C65.9927 195.864 65.7087 195.936 65.4607 196.08C65.2207 196.216 65.0327 196.412 64.8967 196.668C64.7607 196.916 64.6927 197.212 64.6927 197.556V197.844C64.6927 198.196 64.7687 198.508 64.9207 198.78C65.0807 199.044 65.3007 199.248 65.5807 199.392C65.8687 199.528 66.2047 199.596 66.5887 199.596C66.9327 199.596 67.2327 199.544 67.4887 199.44C67.7527 199.336 67.9927 199.18 68.2087 198.972L69.2047 200.052C68.9087 200.388 68.5367 200.648 68.0887 200.832C67.6407 201.008 67.1247 201.096 66.5407 201.096ZM71.615 196.788C71.295 196.788 71.019 196.68 70.787 196.464C70.563 196.24 70.451 195.956 70.451 195.612C70.451 195.268 70.563 194.992 70.787 194.784C71.019 194.568 71.295 194.46 71.615 194.46C71.943 194.46 72.219 194.568 72.443 194.784C72.667 194.992 72.779 195.268 72.779 195.612C72.779 195.956 72.667 196.24 72.443 196.464C72.219 196.68 71.943 196.788 71.615 196.788ZM71.615 201.096C71.295 201.096 71.019 200.988 70.787 200.772C70.563 200.548 70.451 200.264 70.451 199.92C70.451 199.576 70.563 199.3 70.787 199.092C71.019 198.876 71.295 198.768 71.615 198.768C71.943 198.768 72.219 198.876 72.443 199.092C72.667 199.3 72.779 199.576 72.779 199.92C72.779 200.264 72.667 200.548 72.443 200.772C72.219 200.988 71.943 201.096 71.615 201.096ZM79.8105 226V217.6H83.6265C84.5385 217.6 85.3425 217.776 86.0385 218.128C86.7345 218.472 87.2785 218.956 87.6705 219.58C88.0625 220.204 88.2585 220.944 88.2585 221.8C88.2585 222.648 88.0625 223.388 87.6705 224.02C87.2785 224.644 86.7345 225.132 86.0385 225.484C85.3425 225.828 84.5385 226 83.6265 226H79.8105ZM81.7545 224.404H83.5305C84.0905 224.404 84.5745 224.3 84.9825 224.092C85.3985 223.876 85.7185 223.572 85.9425 223.18C86.1745 222.788 86.2905 222.328 86.2905 221.8C86.2905 221.264 86.1745 220.804 85.9425 220.42C85.7185 220.028 85.3985 219.728 84.9825 219.52C84.5745 219.304 84.0905 219.196 83.5305 219.196H81.7545V224.404ZM89.5925 226V219.544H91.3805V221.368L91.1285 220.84C91.3205 220.384 91.6285 220.04 92.0525 219.808C92.4765 219.568 92.9925 219.448 93.6005 219.448V221.176C93.5205 221.168 93.4485 221.164 93.3845 221.164C93.3205 221.156 93.2525 221.152 93.1805 221.152C92.6685 221.152 92.2525 221.3 91.9325 221.596C91.6205 221.884 91.4645 222.336 91.4645 222.952V226H89.5925ZM95.7523 228.424C95.4163 228.424 95.0843 228.372 94.7563 228.268C94.4283 228.164 94.1603 228.02 93.9523 227.836L94.6363 226.504C94.7803 226.632 94.9443 226.732 95.1283 226.804C95.3203 226.876 95.5083 226.912 95.6923 226.912C95.9563 226.912 96.1643 226.848 96.3163 226.72C96.4763 226.6 96.6203 226.396 96.7483 226.108L97.0843 225.316L97.2283 225.112L99.5443 219.544H101.344L98.4283 226.396C98.2203 226.916 97.9803 227.324 97.7083 227.62C97.4443 227.916 97.1483 228.124 96.8203 228.244C96.5003 228.364 96.1443 228.424 95.7523 228.424ZM96.8563 226.252L93.9763 219.544H95.9083L98.1403 224.944L96.8563 226.252ZM102.863 221.788C102.543 221.788 102.267 221.68 102.035 221.464C101.811 221.24 101.699 220.956 101.699 220.612C101.699 220.268 101.811 219.992 102.035 219.784C102.267 219.568 102.543 219.46 102.863 219.46C103.191 219.46 103.467 219.568 103.691 219.784C103.915 219.992 104.027 220.268 104.027 220.612C104.027 220.956 103.915 221.24 103.691 221.464C103.467 221.68 103.191 221.788 102.863 221.788ZM102.863 226.096C102.543 226.096 102.267 225.988 102.035 225.772C101.811 225.548 101.699 225.264 101.699 224.92C101.699 224.576 101.811 224.3 102.035 224.092C102.267 223.876 102.543 223.768 102.863 223.768C103.191 223.768 103.467 223.876 103.691 224.092C103.915 224.3 104.027 224.576 104.027 224.92C104.027 225.264 103.915 225.548 103.691 225.772C103.467 225.988 103.191 226.096 102.863 226.096Z" fill="#F5FF70"/>
<path d="M131.519 176L135.323 167.6H136.511L140.327 176H139.067L135.671 168.272H136.151L132.755 176H131.519ZM133.139 173.9L133.463 172.94H138.191L138.539 173.9H133.139ZM144.784 176.072C144.256 176.072 143.772 175.952 143.332 175.712C142.9 175.464 142.552 175.1 142.288 174.62C142.032 174.14 141.904 173.54 141.904 172.82C141.904 172.1 142.028 171.5 142.276 171.02C142.532 170.54 142.876 170.18 143.308 169.94C143.748 169.7 144.24 169.58 144.784 169.58C145.408 169.58 145.96 169.716 146.44 169.988C146.92 170.26 147.3 170.64 147.58 171.128C147.86 171.608 148 172.172 148 172.82C148 173.468 147.86 174.036 147.58 174.524C147.3 175.012 146.92 175.392 146.44 175.664C145.96 175.936 145.408 176.072 144.784 176.072ZM141.412 178.328V169.64H142.516V171.356L142.444 172.832L142.564 174.308V178.328H141.412ZM144.688 175.064C145.096 175.064 145.46 174.972 145.78 174.788C146.108 174.604 146.364 174.344 146.548 174.008C146.74 173.664 146.836 173.268 146.836 172.82C146.836 172.364 146.74 171.972 146.548 171.644C146.364 171.308 146.108 171.048 145.78 170.864C145.46 170.68 145.096 170.588 144.688 170.588C144.288 170.588 143.924 170.68 143.596 170.864C143.276 171.048 143.02 171.308 142.828 171.644C142.644 171.972 142.552 172.364 142.552 172.82C142.552 173.268 142.644 173.664 142.828 174.008C143.02 174.344 143.276 174.604 143.596 174.788C143.924 174.972 144.288 175.064 144.688 175.064ZM152.964 176.072C152.436 176.072 151.952 175.952 151.512 175.712C151.08 175.464 150.732 175.1 150.468 174.62C150.212 174.14 150.084 173.54 150.084 172.82C150.084 172.1 150.208 171.5 150.456 171.02C150.712 170.54 151.056 170.18 151.488 169.94C151.928 169.7 152.42 169.58 152.964 169.58C153.588 169.58 154.14 169.716 154.62 169.988C155.1 170.26 155.48 170.64 155.76 171.128C156.04 171.608 156.18 172.172 156.18 172.82C156.18 173.468 156.04 174.036 155.76 174.524C155.48 175.012 155.1 175.392 154.62 175.664C154.14 175.936 153.588 176.072 152.964 176.072ZM149.592 178.328V169.64H150.696V171.356L150.624 172.832L150.744 174.308V178.328H149.592ZM152.868 175.064C153.276 175.064 153.64 174.972 153.96 174.788C154.288 174.604 154.544 174.344 154.728 174.008C154.92 173.664 155.016 173.268 155.016 172.82C155.016 172.364 154.92 171.972 154.728 171.644C154.544 171.308 154.288 171.048 153.96 170.864C153.64 170.68 153.276 170.588 152.868 170.588C152.468 170.588 152.104 170.68 151.776 170.864C151.456 171.048 151.2 171.308 151.008 171.644C150.824 171.972 150.732 172.364 150.732 172.82C150.732 173.268 150.824 173.664 151.008 174.008C151.2 174.344 151.456 174.604 151.776 174.788C152.104 174.972 152.468 175.064 152.868 175.064ZM157.772 176V167.096H158.924V176H157.772ZM163.955 176.072C163.275 176.072 162.675 175.932 162.155 175.652C161.643 175.372 161.243 174.988 160.955 174.5C160.675 174.012 160.535 173.452 160.535 172.82C160.535 172.188 160.671 171.628 160.943 171.14C161.223 170.652 161.603 170.272 162.083 170C162.571 169.72 163.119 169.58 163.727 169.58C164.343 169.58 164.887 169.716 165.359 169.988C165.831 170.26 166.199 170.644 166.463 171.14C166.735 171.628 166.871 172.2 166.871 172.856C166.871 172.904 166.867 172.96 166.859 173.024C166.859 173.088 166.855 173.148 166.847 173.204H161.435V172.376H166.247L165.779 172.664C165.787 172.256 165.703 171.892 165.527 171.572C165.351 171.252 165.107 171.004 164.795 170.828C164.491 170.644 164.135 170.552 163.727 170.552C163.327 170.552 162.971 170.644 162.659 170.828C162.347 171.004 162.103 171.256 161.927 171.584C161.751 171.904 161.663 172.272 161.663 172.688V172.88C161.663 173.304 161.759 173.684 161.951 174.02C162.151 174.348 162.427 174.604 162.779 174.788C163.131 174.972 163.535 175.064 163.991 175.064C164.367 175.064 164.707 175 165.011 174.872C165.323 174.744 165.595 174.552 165.827 174.296L166.463 175.04C166.175 175.376 165.815 175.632 165.383 175.808C164.959 175.984 164.483 176.072 163.955 176.072ZM168.015 177.776L168.615 175.352L168.771 176.048C168.539 176.048 168.343 175.976 168.183 175.832C168.031 175.688 167.955 175.492 167.955 175.244C167.955 175.004 168.031 174.808 168.183 174.656C168.343 174.504 168.535 174.428 168.759 174.428C168.991 174.428 169.179 174.508 169.323 174.668C169.467 174.82 169.539 175.012 169.539 175.244C169.539 175.324 169.531 175.404 169.515 175.484C169.507 175.556 169.487 175.644 169.455 175.748C169.431 175.844 169.391 175.964 169.335 176.108L168.771 177.776H168.015ZM178.372 176.096C177.732 176.096 177.136 175.988 176.584 175.772C176.04 175.556 175.568 175.256 175.168 174.872C174.768 174.48 174.456 174.024 174.232 173.504C174.008 172.984 173.896 172.416 173.896 171.8C173.896 171.184 174.008 170.616 174.232 170.096C174.456 169.576 174.768 169.124 175.168 168.74C175.568 168.348 176.04 168.044 176.584 167.828C177.128 167.612 177.724 167.504 178.372 167.504C179.012 167.504 179.6 167.612 180.136 167.828C180.68 168.036 181.152 168.336 181.552 168.728C181.96 169.112 182.272 169.564 182.488 170.084C182.712 170.604 182.824 171.176 182.824 171.8C182.824 172.424 182.712 172.996 182.488 173.516C182.272 174.036 181.96 174.492 181.552 174.884C181.152 175.268 180.68 175.568 180.136 175.784C179.6 175.992 179.012 176.096 178.372 176.096ZM178.372 175.028C178.836 175.028 179.264 174.948 179.656 174.788C180.056 174.628 180.4 174.404 180.688 174.116C180.984 173.82 181.212 173.476 181.372 173.084C181.54 172.692 181.624 172.264 181.624 171.8C181.624 171.336 181.54 170.908 181.372 170.516C181.212 170.124 180.984 169.784 180.688 169.496C180.4 169.2 180.056 168.972 179.656 168.812C179.264 168.652 178.836 168.572 178.372 168.572C177.9 168.572 177.464 168.652 177.064 168.812C176.672 168.972 176.328 169.2 176.032 169.496C175.736 169.784 175.504 170.124 175.336 170.516C175.176 170.908 175.096 171.336 175.096 171.8C175.096 172.264 175.176 172.692 175.336 173.084C175.504 173.476 175.736 173.82 176.032 174.116C176.328 174.404 176.672 174.628 177.064 174.788C177.464 174.948 177.9 175.028 178.372 175.028ZM184.49 176V169.64H185.594V171.368L185.486 170.936C185.662 170.496 185.958 170.16 186.374 169.928C186.79 169.696 187.302 169.58 187.91 169.58V170.696C187.862 170.688 187.814 170.684 187.766 170.684C187.726 170.684 187.686 170.684 187.646 170.684C187.03 170.684 186.542 170.868 186.182 171.236C185.822 171.604 185.642 172.136 185.642 172.832V176H184.49ZM192.81 176V174.656L192.75 174.404V172.112C192.75 171.624 192.606 171.248 192.318 170.984C192.038 170.712 191.614 170.576 191.046 170.576C190.67 170.576 190.302 170.64 189.942 170.768C189.582 170.888 189.278 171.052 189.03 171.26L188.55 170.396C188.878 170.132 189.27 169.932 189.726 169.796C190.19 169.652 190.674 169.58 191.178 169.58C192.05 169.58 192.722 169.792 193.194 170.216C193.666 170.64 193.902 171.288 193.902 172.16V176H192.81ZM190.722 176.072C190.25 176.072 189.834 175.992 189.474 175.832C189.122 175.672 188.85 175.452 188.658 175.172C188.466 174.884 188.37 174.56 188.37 174.2C188.37 173.856 188.45 173.544 188.61 173.264C188.778 172.984 189.046 172.76 189.414 172.592C189.79 172.424 190.294 172.34 190.926 172.34H192.942V173.168H190.974C190.398 173.168 190.01 173.264 189.81 173.456C189.61 173.648 189.51 173.88 189.51 174.152C189.51 174.464 189.634 174.716 189.882 174.908C190.13 175.092 190.474 175.184 190.914 175.184C191.346 175.184 191.722 175.088 192.042 174.896C192.37 174.704 192.606 174.424 192.75 174.056L192.978 174.848C192.826 175.224 192.558 175.524 192.174 175.748C191.79 175.964 191.306 176.072 190.722 176.072ZM199.429 169.58C199.949 169.58 200.405 169.68 200.797 169.88C201.197 170.08 201.509 170.384 201.733 170.792C201.957 171.2 202.069 171.716 202.069 172.34V176H200.917V172.472C200.917 171.856 200.765 171.392 200.461 171.08C200.165 170.768 199.745 170.612 199.201 170.612C198.793 170.612 198.437 170.692 198.133 170.852C197.829 171.012 197.593 171.248 197.425 171.56C197.265 171.872 197.185 172.26 197.185 172.724V176H196.033V169.64H197.137V171.356L196.957 170.9C197.165 170.484 197.485 170.16 197.917 169.928C198.349 169.696 198.853 169.58 199.429 169.58ZM206.985 178.4C206.401 178.4 205.833 178.316 205.281 178.148C204.737 177.988 204.293 177.756 203.949 177.452L204.501 176.564C204.797 176.82 205.161 177.02 205.593 177.164C206.025 177.316 206.477 177.392 206.949 177.392C207.701 177.392 208.253 177.216 208.605 176.864C208.957 176.512 209.133 175.976 209.133 175.256V173.912L209.253 172.652L209.193 171.38V169.64H210.285V175.136C210.285 176.256 210.005 177.08 209.445 177.608C208.885 178.136 208.065 178.4 206.985 178.4ZM206.841 175.736C206.225 175.736 205.673 175.608 205.185 175.352C204.705 175.088 204.321 174.724 204.033 174.26C203.753 173.796 203.613 173.26 203.613 172.652C203.613 172.036 203.753 171.5 204.033 171.044C204.321 170.58 204.705 170.22 205.185 169.964C205.673 169.708 206.225 169.58 206.841 169.58C207.385 169.58 207.881 169.692 208.329 169.916C208.777 170.132 209.133 170.468 209.397 170.924C209.669 171.38 209.805 171.956 209.805 172.652C209.805 173.34 209.669 173.912 209.397 174.368C209.133 174.824 208.777 175.168 208.329 175.4C207.881 175.624 207.385 175.736 206.841 175.736ZM206.973 174.728C207.397 174.728 207.773 174.64 208.101 174.464C208.429 174.288 208.685 174.044 208.869 173.732C209.061 173.42 209.157 173.06 209.157 172.652C209.157 172.244 209.061 171.884 208.869 171.572C208.685 171.26 208.429 171.02 208.101 170.852C207.773 170.676 207.397 170.588 206.973 170.588C206.549 170.588 206.169 170.676 205.833 170.852C205.505 171.02 205.245 171.26 205.053 171.572C204.869 171.884 204.777 172.244 204.777 172.652C204.777 173.06 204.869 173.42 205.053 173.732C205.245 174.044 205.505 174.288 205.833 174.464C206.169 174.64 206.549 174.728 206.973 174.728ZM215.319 176.072C214.639 176.072 214.039 175.932 213.519 175.652C213.007 175.372 212.607 174.988 212.319 174.5C212.039 174.012 211.899 173.452 211.899 172.82C211.899 172.188 212.035 171.628 212.307 171.14C212.587 170.652 212.967 170.272 213.447 170C213.935 169.72 214.483 169.58 215.091 169.58C215.707 169.58 216.251 169.716 216.723 169.988C217.195 170.26 217.563 170.644 217.827 171.14C218.099 171.628 218.235 172.2 218.235 172.856C218.235 172.904 218.231 172.96 218.223 173.024C218.223 173.088 218.219 173.148 218.211 173.204H212.799V172.376H217.611L217.143 172.664C217.151 172.256 217.067 171.892 216.891 171.572C216.715 171.252 216.471 171.004 216.159 170.828C215.855 170.644 215.499 170.552 215.091 170.552C214.691 170.552 214.335 170.644 214.023 170.828C213.711 171.004 213.467 171.256 213.291 171.584C213.115 171.904 213.027 172.272 213.027 172.688V172.88C213.027 173.304 213.123 173.684 213.315 174.02C213.515 174.348 213.791 174.604 214.143 174.788C214.495 174.972 214.899 175.064 215.355 175.064C215.731 175.064 216.071 175 216.375 174.872C216.687 174.744 216.959 174.552 217.191 174.296L217.827 175.04C217.539 175.376 217.179 175.632 216.747 175.808C216.323 175.984 215.847 176.072 215.319 176.072ZM78.7463 201.096C78.2503 201.096 77.7863 200.992 77.3543 200.784C76.9223 200.576 76.5703 200.276 76.2982 199.884L76.9943 199.068C77.2263 199.388 77.4863 199.636 77.7743 199.812C78.0703 199.98 78.3943 200.064 78.7463 200.064C79.7063 200.064 80.1863 199.496 80.1863 198.36V193.644H77.1503V192.6H81.3743V198.3C81.3743 199.236 81.1503 199.936 80.7023 200.4C80.2623 200.864 79.6103 201.096 78.7463 201.096ZM87.5986 201V199.656L87.5386 199.404V197.112C87.5386 196.624 87.3946 196.248 87.1066 195.984C86.8266 195.712 86.4026 195.576 85.8346 195.576C85.4586 195.576 85.0906 195.64 84.7306 195.768C84.3706 195.888 84.0666 196.052 83.8186 196.26L83.3386 195.396C83.6666 195.132 84.0586 194.932 84.5146 194.796C84.9786 194.652 85.4626 194.58 85.9666 194.58C86.8386 194.58 87.5106 194.792 87.9826 195.216C88.4546 195.64 88.6906 196.288 88.6906 197.16V201H87.5986ZM85.5106 201.072C85.0386 201.072 84.6226 200.992 84.2626 200.832C83.9106 200.672 83.6386 200.452 83.4466 200.172C83.2546 199.884 83.1586 199.56 83.1586 199.2C83.1586 198.856 83.2386 198.544 83.3986 198.264C83.5666 197.984 83.8346 197.76 84.2026 197.592C84.5786 197.424 85.0826 197.34 85.7146 197.34H87.7306V198.168H85.7626C85.1866 198.168 84.7986 198.264 84.5986 198.456C84.3986 198.648 84.2986 198.88 84.2986 199.152C84.2986 199.464 84.4226 199.716 84.6706 199.908C84.9186 200.092 85.2626 200.184 85.7026 200.184C86.1346 200.184 86.5106 200.088 86.8306 199.896C87.1586 199.704 87.3946 199.424 87.5386 199.056L87.7666 199.848C87.6146 200.224 87.3466 200.524 86.9626 200.748C86.5786 200.964 86.0946 201.072 85.5106 201.072ZM92.6465 201.072C92.1185 201.072 91.6145 201 91.1345 200.856C90.6625 200.712 90.2905 200.536 90.0185 200.328L90.4985 199.416C90.7705 199.6 91.1065 199.756 91.5065 199.884C91.9065 200.012 92.3145 200.076 92.7305 200.076C93.2665 200.076 93.6505 200 93.8825 199.848C94.1225 199.696 94.2425 199.484 94.2425 199.212C94.2425 199.012 94.1705 198.856 94.0265 198.744C93.8825 198.632 93.6905 198.548 93.4505 198.492C93.2185 198.436 92.9585 198.388 92.6705 198.348C92.3825 198.3 92.0945 198.244 91.8065 198.18C91.5185 198.108 91.2545 198.012 91.0145 197.892C90.7745 197.764 90.5825 197.592 90.4385 197.376C90.2945 197.152 90.2225 196.856 90.2225 196.488C90.2225 196.104 90.3305 195.768 90.5465 195.48C90.7625 195.192 91.0665 194.972 91.4585 194.82C91.8585 194.66 92.3305 194.58 92.8745 194.58C93.2905 194.58 93.7105 194.632 94.1345 194.736C94.5665 194.832 94.9185 194.972 95.1905 195.156L94.6985 196.068C94.4105 195.876 94.1105 195.744 93.7985 195.672C93.4865 195.6 93.1745 195.564 92.8625 195.564C92.3585 195.564 91.9825 195.648 91.7345 195.816C91.4865 195.976 91.3625 196.184 91.3625 196.44C91.3625 196.656 91.4345 196.824 91.5785 196.944C91.7305 197.056 91.9225 197.144 92.1545 197.208C92.3945 197.272 92.6585 197.328 92.9465 197.376C93.2345 197.416 93.5225 197.472 93.8105 197.544C94.0985 197.608 94.3585 197.7 94.5905 197.82C94.8305 197.94 95.0225 198.108 95.1665 198.324C95.3185 198.54 95.3945 198.828 95.3945 199.188C95.3945 199.572 95.2825 199.904 95.0585 200.184C94.8345 200.464 94.5185 200.684 94.1105 200.844C93.7025 200.996 93.2145 201.072 92.6465 201.072ZM104.79 194.58C105.302 194.58 105.754 194.68 106.146 194.88C106.538 195.08 106.842 195.384 107.058 195.792C107.282 196.2 107.394 196.716 107.394 197.34V201H106.242V197.472C106.242 196.856 106.098 196.392 105.81 196.08C105.522 195.768 105.118 195.612 104.598 195.612C104.214 195.612 103.878 195.692 103.59 195.852C103.302 196.012 103.078 196.248 102.918 196.56C102.766 196.872 102.69 197.26 102.69 197.724V201H101.538V197.472C101.538 196.856 101.394 196.392 101.106 196.08C100.826 195.768 100.422 195.612 99.8942 195.612C99.5182 195.612 99.1862 195.692 98.8982 195.852C98.6102 196.012 98.3862 196.248 98.2262 196.56C98.0662 196.872 97.9862 197.26 97.9862 197.724V201H96.8342V194.64H97.9382V196.332L97.7582 195.9C97.9582 195.484 98.2662 195.16 98.6822 194.928C99.0982 194.696 99.5822 194.58 100.134 194.58C100.742 194.58 101.266 194.732 101.706 195.036C102.146 195.332 102.434 195.784 102.57 196.392L102.102 196.2C102.294 195.712 102.63 195.32 103.11 195.024C103.59 194.728 104.15 194.58 104.79 194.58ZM109.514 201V194.64H110.666V201H109.514ZM110.09 193.416C109.866 193.416 109.678 193.344 109.526 193.2C109.382 193.056 109.31 192.88 109.31 192.672C109.31 192.456 109.382 192.276 109.526 192.132C109.678 191.988 109.866 191.916 110.09 191.916C110.314 191.916 110.498 191.988 110.642 192.132C110.794 192.268 110.87 192.44 110.87 192.648C110.87 192.864 110.798 193.048 110.654 193.2C110.51 193.344 110.322 193.416 110.09 193.416ZM116.261 194.58C116.781 194.58 117.237 194.68 117.629 194.88C118.029 195.08 118.341 195.384 118.565 195.792C118.789 196.2 118.901 196.716 118.901 197.34V201H117.749V197.472C117.749 196.856 117.597 196.392 117.293 196.08C116.997 195.768 116.577 195.612 116.033 195.612C115.625 195.612 115.269 195.692 114.965 195.852C114.661 196.012 114.425 196.248 114.257 196.56C114.097 196.872 114.017 197.26 114.017 197.724V201H112.865V194.64H113.969V196.356L113.789 195.9C113.997 195.484 114.317 195.16 114.749 194.928C115.181 194.696 115.685 194.58 116.261 194.58ZM123.865 201.072C123.185 201.072 122.585 200.932 122.065 200.652C121.553 200.372 121.153 199.988 120.865 199.5C120.585 199.012 120.445 198.452 120.445 197.82C120.445 197.188 120.581 196.628 120.853 196.14C121.133 195.652 121.513 195.272 121.993 195C122.481 194.72 123.029 194.58 123.637 194.58C124.253 194.58 124.797 194.716 125.269 194.988C125.741 195.26 126.109 195.644 126.373 196.14C126.645 196.628 126.781 197.2 126.781 197.856C126.781 197.904 126.777 197.96 126.769 198.024C126.769 198.088 126.765 198.148 126.757 198.204H121.345V197.376H126.157L125.689 197.664C125.697 197.256 125.613 196.892 125.437 196.572C125.261 196.252 125.017 196.004 124.705 195.828C124.401 195.644 124.045 195.552 123.637 195.552C123.237 195.552 122.881 195.644 122.569 195.828C122.257 196.004 122.013 196.256 121.837 196.584C121.661 196.904 121.573 197.272 121.573 197.688V197.88C121.573 198.304 121.669 198.684 121.861 199.02C122.061 199.348 122.337 199.604 122.689 199.788C123.041 199.972 123.445 200.064 123.901 200.064C124.277 200.064 124.617 200 124.921 199.872C125.233 199.744 125.505 199.552 125.737 199.296L126.373 200.04C126.085 200.376 125.725 200.632 125.293 200.808C124.869 200.984 124.393 201.072 123.865 201.072ZM127.925 202.776L128.525 200.352L128.681 201.048C128.449 201.048 128.253 200.976 128.093 200.832C127.941 200.688 127.865 200.492 127.865 200.244C127.865 200.004 127.941 199.808 128.093 199.656C128.253 199.504 128.445 199.428 128.669 199.428C128.901 199.428 129.089 199.508 129.233 199.668C129.377 199.82 129.449 200.012 129.449 200.244C129.449 200.324 129.441 200.404 129.425 200.484C129.417 200.556 129.397 200.644 129.365 200.748C129.341 200.844 129.301 200.964 129.245 201.108L128.681 202.776H127.925ZM134.49 201V192.6H135.474L139.242 198.948H138.714L142.434 192.6H143.418L143.43 201H142.278L142.266 194.412H142.542L139.23 199.98H138.678L135.342 194.412H135.642V201H134.49ZM148.615 201.072C147.935 201.072 147.335 200.932 146.815 200.652C146.303 200.372 145.903 199.988 145.615 199.5C145.335 199.012 145.195 198.452 145.195 197.82C145.195 197.188 145.331 196.628 145.603 196.14C145.883 195.652 146.263 195.272 146.743 195C147.231 194.72 147.779 194.58 148.387 194.58C149.003 194.58 149.547 194.716 150.019 194.988C150.491 195.26 150.859 195.644 151.123 196.14C151.395 196.628 151.531 197.2 151.531 197.856C151.531 197.904 151.527 197.96 151.519 198.024C151.519 198.088 151.515 198.148 151.507 198.204H146.095V197.376H150.907L150.439 197.664C150.447 197.256 150.363 196.892 150.187 196.572C150.011 196.252 149.767 196.004 149.455 195.828C149.151 195.644 148.795 195.552 148.387 195.552C147.987 195.552 147.631 195.644 147.319 195.828C147.007 196.004 146.763 196.256 146.587 196.584C146.411 196.904 146.323 197.272 146.323 197.688V197.88C146.323 198.304 146.419 198.684 146.611 199.02C146.811 199.348 147.087 199.604 147.439 199.788C147.791 199.972 148.195 200.064 148.651 200.064C149.027 200.064 149.367 200 149.671 199.872C149.983 199.744 150.255 199.552 150.487 199.296L151.123 200.04C150.835 200.376 150.475 200.632 150.043 200.808C149.619 200.984 149.143 201.072 148.615 201.072ZM153.131 201V192.096H154.283V201H153.131ZM159.207 201.072C158.567 201.072 157.999 200.932 157.503 200.652C157.007 200.372 156.615 199.988 156.327 199.5C156.039 199.004 155.895 198.444 155.895 197.82C155.895 197.188 156.039 196.628 156.327 196.14C156.615 195.652 157.007 195.272 157.503 195C157.999 194.72 158.567 194.58 159.207 194.58C159.839 194.58 160.403 194.72 160.899 195C161.403 195.272 161.795 195.652 162.075 196.14C162.363 196.62 162.507 197.18 162.507 197.82C162.507 198.452 162.363 199.012 162.075 199.5C161.795 199.988 161.403 200.372 160.899 200.652C160.403 200.932 159.839 201.072 159.207 201.072ZM159.207 200.064C159.615 200.064 159.979 199.972 160.299 199.788C160.627 199.604 160.883 199.344 161.067 199.008C161.251 198.664 161.343 198.268 161.343 197.82C161.343 197.364 161.251 196.972 161.067 196.644C160.883 196.308 160.627 196.048 160.299 195.864C159.979 195.68 159.615 195.588 159.207 195.588C158.799 195.588 158.435 195.68 158.115 195.864C157.795 196.048 157.539 196.308 157.347 196.644C157.155 196.972 157.059 197.364 157.059 197.82C157.059 198.268 157.155 198.664 157.347 199.008C157.539 199.344 157.795 199.604 158.115 199.788C158.435 199.972 158.799 200.064 159.207 200.064ZM167.496 194.58C168.016 194.58 168.472 194.68 168.864 194.88C169.264 195.08 169.576 195.384 169.8 195.792C170.024 196.2 170.136 196.716 170.136 197.34V201H168.984V197.472C168.984 196.856 168.832 196.392 168.528 196.08C168.232 195.768 167.812 195.612 167.268 195.612C166.86 195.612 166.504 195.692 166.2 195.852C165.896 196.012 165.66 196.248 165.492 196.56C165.332 196.872 165.252 197.26 165.252 197.724V201H164.1V194.64H165.204V196.356L165.024 195.9C165.232 195.484 165.552 195.16 165.984 194.928C166.416 194.696 166.92 194.58 167.496 194.58ZM171.812 202.776L172.412 200.352L172.568 201.048C172.336 201.048 172.14 200.976 171.98 200.832C171.828 200.688 171.752 200.492 171.752 200.244C171.752 200.004 171.828 199.808 171.98 199.656C172.14 199.504 172.332 199.428 172.556 199.428C172.788 199.428 172.976 199.508 173.12 199.668C173.264 199.82 173.336 200.012 173.336 200.244C173.336 200.324 173.328 200.404 173.312 200.484C173.304 200.556 173.284 200.644 173.252 200.748C173.228 200.844 173.188 200.964 173.132 201.108L172.568 202.776H171.812ZM178.377 201V192.6H179.361L183.129 198.948H182.601L186.321 192.6H187.305L187.317 201H186.165L186.153 194.412H186.429L183.117 199.98H182.565L179.229 194.412H179.529V201H178.377ZM192.346 201.072C191.802 201.072 191.322 200.972 190.906 200.772C190.498 200.572 190.178 200.268 189.946 199.86C189.722 199.444 189.61 198.924 189.61 198.3V194.64H190.762V198.168C190.762 198.792 190.91 199.26 191.206 199.572C191.51 199.884 191.934 200.04 192.478 200.04C192.878 200.04 193.226 199.96 193.522 199.8C193.818 199.632 194.046 199.392 194.206 199.08C194.366 198.76 194.446 198.376 194.446 197.928V194.64H195.598V201H194.506V199.284L194.686 199.74C194.478 200.164 194.166 200.492 193.75 200.724C193.334 200.956 192.866 201.072 192.346 201.072ZM200.575 203.4C199.991 203.4 199.423 203.316 198.871 203.148C198.327 202.988 197.883 202.756 197.539 202.452L198.091 201.564C198.387 201.82 198.751 202.02 199.183 202.164C199.615 202.316 200.067 202.392 200.539 202.392C201.291 202.392 201.843 202.216 202.195 201.864C202.547 201.512 202.723 200.976 202.723 200.256V198.912L202.843 197.652L202.783 196.38V194.64H203.875V200.136C203.875 201.256 203.595 202.08 203.035 202.608C202.475 203.136 201.655 203.4 200.575 203.4ZM200.431 200.736C199.815 200.736 199.263 200.608 198.775 200.352C198.295 200.088 197.911 199.724 197.623 199.26C197.343 198.796 197.203 198.26 197.203 197.652C197.203 197.036 197.343 196.5 197.623 196.044C197.911 195.58 198.295 195.22 198.775 194.964C199.263 194.708 199.815 194.58 200.431 194.58C200.975 194.58 201.471 194.692 201.919 194.916C202.367 195.132 202.723 195.468 202.987 195.924C203.259 196.38 203.395 196.956 203.395 197.652C203.395 198.34 203.259 198.912 202.987 199.368C202.723 199.824 202.367 200.168 201.919 200.4C201.471 200.624 200.975 200.736 200.431 200.736ZM200.563 199.728C200.987 199.728 201.363 199.64 201.691 199.464C202.019 199.288 202.275 199.044 202.459 198.732C202.651 198.42 202.747 198.06 202.747 197.652C202.747 197.244 202.651 196.884 202.459 196.572C202.275 196.26 202.019 196.02 201.691 195.852C201.363 195.676 200.987 195.588 200.563 195.588C200.139 195.588 199.759 195.676 199.423 195.852C199.095 196.02 198.835 196.26 198.643 196.572C198.459 196.884 198.367 197.244 198.367 197.652C198.367 198.06 198.459 198.42 198.643 198.732C198.835 199.044 199.095 199.288 199.423 199.464C199.759 199.64 200.139 199.728 200.563 199.728ZM208.752 201.072C208.208 201.072 207.728 200.972 207.312 200.772C206.904 200.572 206.584 200.268 206.352 199.86C206.128 199.444 206.016 198.924 206.016 198.3V194.64H207.168V198.168C207.168 198.792 207.316 199.26 207.612 199.572C207.916 199.884 208.34 200.04 208.884 200.04C209.284 200.04 209.632 199.96 209.928 199.8C210.224 199.632 210.452 199.392 210.612 199.08C210.772 198.76 210.852 198.376 210.852 197.928V194.64H212.004V201H210.912V199.284L211.092 199.74C210.884 200.164 210.572 200.492 210.156 200.724C209.74 200.956 209.272 201.072 208.752 201.072ZM217.029 201.072C216.349 201.072 215.749 200.932 215.229 200.652C214.717 200.372 214.317 199.988 214.029 199.5C213.749 199.012 213.609 198.452 213.609 197.82C213.609 197.188 213.745 196.628 214.017 196.14C214.297 195.652 214.677 195.272 215.157 195C215.645 194.72 216.193 194.58 216.801 194.58C217.417 194.58 217.961 194.716 218.433 194.988C218.905 195.26 219.273 195.644 219.537 196.14C219.809 196.628 219.945 197.2 219.945 197.856C219.945 197.904 219.941 197.96 219.933 198.024C219.933 198.088 219.929 198.148 219.921 198.204H214.509V197.376H219.321L218.853 197.664C218.861 197.256 218.777 196.892 218.601 196.572C218.425 196.252 218.181 196.004 217.869 195.828C217.565 195.644 217.209 195.552 216.801 195.552C216.401 195.552 216.045 195.644 215.733 195.828C215.421 196.004 215.177 196.256 215.001 196.584C214.825 196.904 214.737 197.272 214.737 197.688V197.88C214.737 198.304 214.833 198.684 215.025 199.02C215.225 199.348 215.501 199.604 215.853 199.788C216.205 199.972 216.609 200.064 217.065 200.064C217.441 200.064 217.781 200 218.085 199.872C218.397 199.744 218.669 199.552 218.901 199.296L219.537 200.04C219.249 200.376 218.889 200.632 218.457 200.808C218.033 200.984 217.557 201.072 217.029 201.072ZM223.729 201.072C223.089 201.072 222.593 200.9 222.241 200.556C221.889 200.212 221.713 199.72 221.713 199.08V193.248H222.865V199.032C222.865 199.376 222.949 199.64 223.117 199.824C223.293 200.008 223.541 200.1 223.861 200.1C224.221 200.1 224.521 200 224.761 199.8L225.121 200.628C224.945 200.78 224.733 200.892 224.485 200.964C224.245 201.036 223.993 201.072 223.729 201.072ZM220.633 195.588V194.64H224.689V195.588H220.633ZM226.175 202.776L226.775 200.352L226.931 201.048C226.699 201.048 226.503 200.976 226.343 200.832C226.191 200.688 226.115 200.492 226.115 200.244C226.115 200.004 226.191 199.808 226.343 199.656C226.503 199.504 226.695 199.428 226.919 199.428C227.151 199.428 227.339 199.508 227.483 199.668C227.627 199.82 227.699 200.012 227.699 200.244C227.699 200.324 227.691 200.404 227.675 200.484C227.667 200.556 227.647 200.644 227.615 200.748C227.591 200.844 227.551 200.964 227.495 201.108L226.931 202.776H226.175ZM232.74 201V192.6H236.016C236.752 192.6 237.38 192.716 237.9 192.948C238.42 193.18 238.82 193.516 239.1 193.956C239.38 194.396 239.52 194.92 239.52 195.528C239.52 196.136 239.38 196.66 239.1 197.1C238.82 197.532 238.42 197.864 237.9 198.096C237.38 198.328 236.752 198.444 236.016 198.444H233.4L233.94 197.892V201H232.74ZM238.356 201L236.22 197.952H237.504L239.664 201H238.356ZM233.94 198.012L233.4 197.424H235.98C236.748 197.424 237.328 197.26 237.72 196.932C238.12 196.596 238.32 196.128 238.32 195.528C238.32 194.928 238.12 194.464 237.72 194.136C237.328 193.808 236.748 193.644 235.98 193.644H233.4L233.94 193.044V198.012ZM244.123 201.072C243.443 201.072 242.843 200.932 242.323 200.652C241.811 200.372 241.411 199.988 241.123 199.5C240.843 199.012 240.703 198.452 240.703 197.82C240.703 197.188 240.839 196.628 241.111 196.14C241.391 195.652 241.771 195.272 242.251 195C242.739 194.72 243.287 194.58 243.895 194.58C244.511 194.58 245.055 194.716 245.527 194.988C245.999 195.26 246.367 195.644 246.631 196.14C246.903 196.628 247.039 197.2 247.039 197.856C247.039 197.904 247.035 197.96 247.027 198.024C247.027 198.088 247.023 198.148 247.015 198.204H241.603V197.376H246.415L245.947 197.664C245.955 197.256 245.871 196.892 245.695 196.572C245.519 196.252 245.275 196.004 244.963 195.828C244.659 195.644 244.303 195.552 243.895 195.552C243.495 195.552 243.139 195.644 242.827 195.828C242.515 196.004 242.271 196.256 242.095 196.584C241.919 196.904 241.831 197.272 241.831 197.688V197.88C241.831 198.304 241.927 198.684 242.119 199.02C242.319 199.348 242.595 199.604 242.947 199.788C243.299 199.972 243.703 200.064 244.159 200.064C244.535 200.064 244.875 200 245.179 199.872C245.491 199.744 245.763 199.552 245.995 199.296L246.631 200.04C246.343 200.376 245.983 200.632 245.551 200.808C245.127 200.984 244.651 201.072 244.123 201.072ZM251.267 201.072C250.651 201.072 250.099 200.936 249.611 200.664C249.131 200.392 248.751 200.012 248.471 199.524C248.191 199.036 248.051 198.468 248.051 197.82C248.051 197.172 248.191 196.608 248.471 196.128C248.751 195.64 249.131 195.26 249.611 194.988C250.099 194.716 250.651 194.58 251.267 194.58C251.803 194.58 252.287 194.7 252.719 194.94C253.151 195.18 253.495 195.54 253.751 196.02C254.015 196.5 254.147 197.1 254.147 197.82C254.147 198.54 254.019 199.14 253.763 199.62C253.515 200.1 253.175 200.464 252.743 200.712C252.311 200.952 251.819 201.072 251.267 201.072ZM251.363 200.064C251.763 200.064 252.123 199.972 252.443 199.788C252.771 199.604 253.027 199.344 253.211 199.008C253.403 198.664 253.499 198.268 253.499 197.82C253.499 197.364 253.403 196.972 253.211 196.644C253.027 196.308 252.771 196.048 252.443 195.864C252.123 195.68 251.763 195.588 251.363 195.588C250.955 195.588 250.591 195.68 250.271 195.864C249.951 196.048 249.695 196.308 249.503 196.644C249.311 196.972 249.215 197.364 249.215 197.82C249.215 198.268 249.311 198.664 249.503 199.008C249.695 199.344 249.951 199.604 250.271 199.788C250.591 199.972 250.955 200.064 251.363 200.064ZM253.535 201V199.284L253.607 197.808L253.487 196.332V192.096H254.639V201H253.535ZM261.289 196.572H265.621V197.604H261.289V196.572ZM261.409 201H260.209V192.6H266.137V193.644H261.409V201ZM267.541 201V194.64H268.645V196.368L268.537 195.936C268.713 195.496 269.009 195.16 269.425 194.928C269.841 194.696 270.353 194.58 270.961 194.58V195.696C270.913 195.688 270.865 195.684 270.817 195.684C270.777 195.684 270.737 195.684 270.697 195.684C270.081 195.684 269.593 195.868 269.233 196.236C268.873 196.604 268.693 197.136 268.693 197.832V201H267.541ZM275.139 201.072C274.595 201.072 274.115 200.972 273.699 200.772C273.291 200.572 272.971 200.268 272.739 199.86C272.515 199.444 272.403 198.924 272.403 198.3V194.64H273.555V198.168C273.555 198.792 273.703 199.26 273.999 199.572C274.303 199.884 274.727 200.04 275.271 200.04C275.671 200.04 276.019 199.96 276.315 199.8C276.611 199.632 276.839 199.392 276.999 199.08C277.159 198.76 277.239 198.376 277.239 197.928V194.64H278.391V201H277.299V199.284L277.479 199.74C277.271 200.164 276.959 200.492 276.543 200.724C276.127 200.956 275.659 201.072 275.139 201.072ZM280.584 201V194.64H281.736V201H280.584ZM281.16 193.416C280.936 193.416 280.748 193.344 280.596 193.2C280.452 193.056 280.38 192.88 280.38 192.672C280.38 192.456 280.452 192.276 280.596 192.132C280.748 191.988 280.936 191.916 281.16 191.916C281.384 191.916 281.568 191.988 281.712 192.132C281.864 192.268 281.94 192.44 281.94 192.648C281.94 192.864 281.868 193.048 281.724 193.2C281.58 193.344 281.392 193.416 281.16 193.416ZM286.12 201.072C285.48 201.072 284.984 200.9 284.632 200.556C284.28 200.212 284.104 199.72 284.104 199.08V193.248H285.256V199.032C285.256 199.376 285.34 199.64 285.508 199.824C285.684 200.008 285.932 200.1 286.252 200.1C286.612 200.1 286.912 200 287.152 199.8L287.512 200.628C287.336 200.78 287.124 200.892 286.876 200.964C286.636 201.036 286.384 201.072 286.12 201.072ZM283.024 195.588V194.64H287.08V195.588H283.024ZM290.729 201.072C290.201 201.072 289.697 201 289.217 200.856C288.745 200.712 288.373 200.536 288.101 200.328L288.581 199.416C288.853 199.6 289.189 199.756 289.589 199.884C289.989 200.012 290.397 200.076 290.812 200.076C291.349 200.076 291.733 200 291.965 199.848C292.205 199.696 292.325 199.484 292.325 199.212C292.325 199.012 292.253 198.856 292.109 198.744C291.965 198.632 291.773 198.548 291.533 198.492C291.301 198.436 291.041 198.388 290.753 198.348C290.465 198.3 290.177 198.244 289.889 198.18C289.601 198.108 289.337 198.012 289.097 197.892C288.857 197.764 288.665 197.592 288.521 197.376C288.377 197.152 288.305 196.856 288.305 196.488C288.305 196.104 288.413 195.768 288.629 195.48C288.845 195.192 289.149 194.972 289.541 194.82C289.941 194.66 290.413 194.58 290.957 194.58C291.373 194.58 291.793 194.632 292.217 194.736C292.649 194.832 293.001 194.972 293.273 195.156L292.781 196.068C292.493 195.876 292.193 195.744 291.881 195.672C291.569 195.6 291.257 195.564 290.945 195.564C290.441 195.564 290.065 195.648 289.817 195.816C289.569 195.976 289.445 196.184 289.445 196.44C289.445 196.656 289.517 196.824 289.661 196.944C289.813 197.056 290.005 197.144 290.237 197.208C290.477 197.272 290.741 197.328 291.029 197.376C291.317 197.416 291.605 197.472 291.893 197.544C292.181 197.608 292.441 197.7 292.673 197.82C292.913 197.94 293.105 198.108 293.249 198.324C293.401 198.54 293.477 198.828 293.477 199.188C293.477 199.572 293.365 199.904 293.141 200.184C292.917 200.464 292.601 200.684 292.193 200.844C291.785 200.996 291.297 201.072 290.729 201.072ZM108.914 226V217.6H109.898L113.666 223.948H113.138L116.858 217.6H117.842L117.854 226H116.702L116.69 219.412H116.966L113.654 224.98H113.102L109.766 219.412H110.066V226H108.914ZM122.931 226.072C122.291 226.072 121.723 225.932 121.227 225.652C120.731 225.372 120.339 224.988 120.051 224.5C119.763 224.004 119.619 223.444 119.619 222.82C119.619 222.188 119.763 221.628 120.051 221.14C120.339 220.652 120.731 220.272 121.227 220C121.723 219.72 122.291 219.58 122.931 219.58C123.563 219.58 124.127 219.72 124.623 220C125.127 220.272 125.519 220.652 125.799 221.14C126.087 221.62 126.231 222.18 126.231 222.82C126.231 223.452 126.087 224.012 125.799 224.5C125.519 224.988 125.127 225.372 124.623 225.652C124.127 225.932 123.563 226.072 122.931 226.072ZM122.931 225.064C123.339 225.064 123.703 224.972 124.023 224.788C124.351 224.604 124.607 224.344 124.791 224.008C124.975 223.664 125.067 223.268 125.067 222.82C125.067 222.364 124.975 221.972 124.791 221.644C124.607 221.308 124.351 221.048 124.023 220.864C123.703 220.68 123.339 220.588 122.931 220.588C122.523 220.588 122.159 220.68 121.839 220.864C121.519 221.048 121.263 221.308 121.071 221.644C120.879 221.972 120.783 222.364 120.783 222.82C120.783 223.268 120.879 223.664 121.071 224.008C121.263 224.344 121.519 224.604 121.839 224.788C122.159 224.972 122.523 225.064 122.931 225.064ZM130.5 226.072C129.956 226.072 129.476 225.972 129.06 225.772C128.652 225.572 128.332 225.268 128.1 224.86C127.876 224.444 127.764 223.924 127.764 223.3V219.64H128.916V223.168C128.916 223.792 129.064 224.26 129.36 224.572C129.664 224.884 130.088 225.04 130.632 225.04C131.032 225.04 131.38 224.96 131.676 224.8C131.972 224.632 132.2 224.392 132.36 224.08C132.52 223.76 132.6 223.376 132.6 222.928V219.64H133.752V226H132.66V224.284L132.84 224.74C132.632 225.164 132.32 225.492 131.904 225.724C131.488 225.956 131.02 226.072 130.5 226.072ZM137.77 226.072C137.242 226.072 136.738 226 136.258 225.856C135.786 225.712 135.414 225.536 135.142 225.328L135.622 224.416C135.894 224.6 136.23 224.756 136.63 224.884C137.03 225.012 137.438 225.076 137.854 225.076C138.39 225.076 138.774 225 139.006 224.848C139.246 224.696 139.366 224.484 139.366 224.212C139.366 224.012 139.294 223.856 139.15 223.744C139.006 223.632 138.814 223.548 138.574 223.492C138.342 223.436 138.082 223.388 137.794 223.348C137.506 223.3 137.218 223.244 136.93 223.18C136.642 223.108 136.378 223.012 136.138 222.892C135.898 222.764 135.706 222.592 135.562 222.376C135.418 222.152 135.346 221.856 135.346 221.488C135.346 221.104 135.454 220.768 135.67 220.48C135.886 220.192 136.19 219.972 136.582 219.82C136.982 219.66 137.454 219.58 137.998 219.58C138.414 219.58 138.834 219.632 139.258 219.736C139.69 219.832 140.042 219.972 140.314 220.156L139.822 221.068C139.534 220.876 139.234 220.744 138.922 220.672C138.61 220.6 138.298 220.564 137.986 220.564C137.482 220.564 137.106 220.648 136.858 220.816C136.61 220.976 136.486 221.184 136.486 221.44C136.486 221.656 136.558 221.824 136.702 221.944C136.854 222.056 137.046 222.144 137.278 222.208C137.518 222.272 137.782 222.328 138.07 222.376C138.358 222.416 138.646 222.472 138.934 222.544C139.222 222.608 139.482 222.7 139.714 222.82C139.954 222.94 140.146 223.108 140.29 223.324C140.442 223.54 140.518 223.828 140.518 224.188C140.518 224.572 140.406 224.904 140.182 225.184C139.958 225.464 139.642 225.684 139.234 225.844C138.826 225.996 138.338 226.072 137.77 226.072ZM143.781 226.072C143.253 226.072 142.749 226 142.269 225.856C141.797 225.712 141.425 225.536 141.153 225.328L141.633 224.416C141.905 224.6 142.241 224.756 142.641 224.884C143.041 225.012 143.449 225.076 143.865 225.076C144.401 225.076 144.785 225 145.017 224.848C145.257 224.696 145.377 224.484 145.377 224.212C145.377 224.012 145.305 223.856 145.161 223.744C145.017 223.632 144.825 223.548 144.585 223.492C144.353 223.436 144.093 223.388 143.805 223.348C143.517 223.3 143.229 223.244 142.941 223.18C142.653 223.108 142.389 223.012 142.149 222.892C141.909 222.764 141.717 222.592 141.573 222.376C141.429 222.152 141.357 221.856 141.357 221.488C141.357 221.104 141.465 220.768 141.681 220.48C141.897 220.192 142.201 219.972 142.593 219.82C142.993 219.66 143.465 219.58 144.009 219.58C144.425 219.58 144.845 219.632 145.269 219.736C145.701 219.832 146.053 219.972 146.325 220.156L145.833 221.068C145.545 220.876 145.245 220.744 144.933 220.672C144.621 220.6 144.309 220.564 143.997 220.564C143.493 220.564 143.117 220.648 142.869 220.816C142.621 220.976 142.497 221.184 142.497 221.44C142.497 221.656 142.569 221.824 142.713 221.944C142.865 222.056 143.057 222.144 143.289 222.208C143.529 222.272 143.793 222.328 144.081 222.376C144.369 222.416 144.657 222.472 144.945 222.544C145.233 222.608 145.493 222.7 145.725 222.82C145.965 222.94 146.157 223.108 146.301 223.324C146.453 223.54 146.529 223.828 146.529 224.188C146.529 224.572 146.417 224.904 146.193 225.184C145.969 225.464 145.653 225.684 145.245 225.844C144.837 225.996 144.349 226.072 143.781 226.072ZM150.801 226.072C150.121 226.072 149.521 225.932 149.001 225.652C148.489 225.372 148.089 224.988 147.801 224.5C147.521 224.012 147.381 223.452 147.381 222.82C147.381 222.188 147.517 221.628 147.789 221.14C148.069 220.652 148.449 220.272 148.929 220C149.417 219.72 149.965 219.58 150.573 219.58C151.189 219.58 151.733 219.716 152.205 219.988C152.677 220.26 153.045 220.644 153.309 221.14C153.581 221.628 153.717 222.2 153.717 222.856C153.717 222.904 153.713 222.96 153.705 223.024C153.705 223.088 153.701 223.148 153.693 223.204H148.281V222.376H153.093L152.625 222.664C152.633 222.256 152.549 221.892 152.373 221.572C152.197 221.252 151.953 221.004 151.641 220.828C151.337 220.644 150.981 220.552 150.573 220.552C150.173 220.552 149.817 220.644 149.505 220.828C149.193 221.004 148.949 221.256 148.773 221.584C148.597 221.904 148.509 222.272 148.509 222.688V222.88C148.509 223.304 148.605 223.684 148.797 224.02C148.997 224.348 149.273 224.604 149.625 224.788C149.977 224.972 150.381 225.064 150.837 225.064C151.213 225.064 151.553 225 151.857 224.872C152.169 224.744 152.441 224.552 152.673 224.296L153.309 225.04C153.021 225.376 152.661 225.632 152.229 225.808C151.805 225.984 151.329 226.072 150.801 226.072ZM154.861 227.776L155.461 225.352L155.617 226.048C155.385 226.048 155.189 225.976 155.029 225.832C154.877 225.688 154.801 225.492 154.801 225.244C154.801 225.004 154.877 224.808 155.029 224.656C155.189 224.504 155.381 224.428 155.605 224.428C155.837 224.428 156.025 224.508 156.169 224.668C156.313 224.82 156.385 225.012 156.385 225.244C156.385 225.324 156.377 225.404 156.361 225.484C156.353 225.556 156.333 225.644 156.301 225.748C156.277 225.844 156.237 225.964 156.181 226.108L155.617 227.776H154.861ZM161.426 226V217.6H162.41L166.178 223.948H165.65L169.37 217.6H170.354L170.366 226H169.214L169.202 219.412H169.478L166.166 224.98H165.614L162.278 219.412H162.578V226H161.426ZM175.395 226.072C174.851 226.072 174.371 225.972 173.955 225.772C173.547 225.572 173.227 225.268 172.995 224.86C172.771 224.444 172.659 223.924 172.659 223.3V219.64H173.811V223.168C173.811 223.792 173.959 224.26 174.255 224.572C174.559 224.884 174.983 225.04 175.527 225.04C175.927 225.04 176.275 224.96 176.571 224.8C176.867 224.632 177.095 224.392 177.255 224.08C177.415 223.76 177.495 223.376 177.495 222.928V219.64H178.647V226H177.555V224.284L177.735 224.74C177.527 225.164 177.215 225.492 176.799 225.724C176.383 225.956 175.915 226.072 175.395 226.072ZM182.664 226.072C182.136 226.072 181.632 226 181.152 225.856C180.68 225.712 180.308 225.536 180.036 225.328L180.516 224.416C180.788 224.6 181.124 224.756 181.524 224.884C181.924 225.012 182.332 225.076 182.748 225.076C183.284 225.076 183.668 225 183.9 224.848C184.14 224.696 184.26 224.484 184.26 224.212C184.26 224.012 184.188 223.856 184.044 223.744C183.9 223.632 183.708 223.548 183.468 223.492C183.236 223.436 182.976 223.388 182.688 223.348C182.4 223.3 182.112 223.244 181.824 223.18C181.536 223.108 181.272 223.012 181.032 222.892C180.792 222.764 180.6 222.592 180.456 222.376C180.312 222.152 180.24 221.856 180.24 221.488C180.24 221.104 180.348 220.768 180.564 220.48C180.78 220.192 181.084 219.972 181.476 219.82C181.876 219.66 182.348 219.58 182.892 219.58C183.308 219.58 183.728 219.632 184.152 219.736C184.584 219.832 184.936 219.972 185.208 220.156L184.716 221.068C184.428 220.876 184.128 220.744 183.816 220.672C183.504 220.6 183.192 220.564 182.88 220.564C182.376 220.564 182 220.648 181.752 220.816C181.504 220.976 181.38 221.184 181.38 221.44C181.38 221.656 181.452 221.824 181.596 221.944C181.748 222.056 181.94 222.144 182.172 222.208C182.412 222.272 182.676 222.328 182.964 222.376C183.252 222.416 183.54 222.472 183.828 222.544C184.116 222.608 184.376 222.7 184.608 222.82C184.848 222.94 185.04 223.108 185.184 223.324C185.336 223.54 185.412 223.828 185.412 224.188C185.412 224.572 185.3 224.904 185.076 225.184C184.852 225.464 184.536 225.684 184.128 225.844C183.72 225.996 183.232 226.072 182.664 226.072ZM187.788 224.464L187.812 222.988L191.472 219.64H192.864L190.056 222.4L189.432 222.928L187.788 224.464ZM186.852 226V217.096H188.004V226H186.852ZM191.712 226L189.216 222.904L189.96 221.98L193.128 226H191.712ZM193.907 227.776L194.507 225.352L194.663 226.048C194.431 226.048 194.235 225.976 194.075 225.832C193.923 225.688 193.847 225.492 193.847 225.244C193.847 225.004 193.923 224.808 194.075 224.656C194.235 224.504 194.427 224.428 194.651 224.428C194.883 224.428 195.071 224.508 195.215 224.668C195.359 224.82 195.431 225.012 195.431 225.244C195.431 225.324 195.423 225.404 195.407 225.484C195.399 225.556 195.379 225.644 195.347 225.748C195.323 225.844 195.283 225.964 195.227 226.108L194.663 227.776H193.907ZM202.405 226L199.597 217.6H200.833L203.413 225.352H202.789L205.465 217.6H206.569L209.185 225.352H208.585L211.201 217.6H212.341L209.533 226H208.273L205.825 218.812H206.149L203.689 226H202.405ZM215.884 226.072C215.244 226.072 214.676 225.932 214.18 225.652C213.684 225.372 213.292 224.988 213.004 224.5C212.716 224.004 212.572 223.444 212.572 222.82C212.572 222.188 212.716 221.628 213.004 221.14C213.292 220.652 213.684 220.272 214.18 220C214.676 219.72 215.244 219.58 215.884 219.58C216.516 219.58 217.08 219.72 217.576 220C218.08 220.272 218.472 220.652 218.752 221.14C219.04 221.62 219.184 222.18 219.184 222.82C219.184 223.452 219.04 224.012 218.752 224.5C218.472 224.988 218.08 225.372 217.576 225.652C217.08 225.932 216.516 226.072 215.884 226.072ZM215.884 225.064C216.292 225.064 216.656 224.972 216.976 224.788C217.304 224.604 217.56 224.344 217.744 224.008C217.928 223.664 218.02 223.268 218.02 222.82C218.02 222.364 217.928 221.972 217.744 221.644C217.56 221.308 217.304 221.048 216.976 220.864C216.656 220.68 216.292 220.588 215.884 220.588C215.476 220.588 215.112 220.68 214.792 220.864C214.472 221.048 214.216 221.308 214.024 221.644C213.832 221.972 213.736 222.364 213.736 222.82C213.736 223.268 213.832 223.664 214.024 224.008C214.216 224.344 214.472 224.604 214.792 224.788C215.112 224.972 215.476 225.064 215.884 225.064ZM223.502 226.072C222.862 226.072 222.294 225.932 221.798 225.652C221.302 225.372 220.91 224.988 220.622 224.5C220.334 224.004 220.19 223.444 220.19 222.82C220.19 222.188 220.334 221.628 220.622 221.14C220.91 220.652 221.302 220.272 221.798 220C222.294 219.72 222.862 219.58 223.502 219.58C224.134 219.58 224.698 219.72 225.194 220C225.698 220.272 226.09 220.652 226.37 221.14C226.658 221.62 226.802 222.18 226.802 222.82C226.802 223.452 226.658 224.012 226.37 224.5C226.09 224.988 225.698 225.372 225.194 225.652C224.698 225.932 224.134 226.072 223.502 226.072ZM223.502 225.064C223.91 225.064 224.274 224.972 224.594 224.788C224.922 224.604 225.178 224.344 225.362 224.008C225.546 223.664 225.638 223.268 225.638 222.82C225.638 222.364 225.546 221.972 225.362 221.644C225.178 221.308 224.922 221.048 224.594 220.864C224.274 220.68 223.91 220.588 223.502 220.588C223.094 220.588 222.73 220.68 222.41 220.864C222.09 221.048 221.834 221.308 221.642 221.644C221.45 221.972 221.354 222.364 221.354 222.82C221.354 223.268 221.45 223.664 221.642 224.008C221.834 224.344 222.09 224.604 222.41 224.788C222.73 224.972 223.094 225.064 223.502 225.064ZM231.023 226.072C230.407 226.072 229.855 225.936 229.367 225.664C228.887 225.392 228.507 225.012 228.227 224.524C227.947 224.036 227.807 223.468 227.807 222.82C227.807 222.172 227.947 221.608 228.227 221.128C228.507 220.64 228.887 220.26 229.367 219.988C229.855 219.716 230.407 219.58 231.023 219.58C231.559 219.58 232.043 219.7 232.475 219.94C232.907 220.18 233.251 220.54 233.507 221.02C233.771 221.5 233.903 222.1 233.903 222.82C233.903 223.54 233.775 224.14 233.519 224.62C233.271 225.1 232.931 225.464 232.499 225.712C232.067 225.952 231.575 226.072 231.023 226.072ZM231.119 225.064C231.519 225.064 231.879 224.972 232.199 224.788C232.527 224.604 232.783 224.344 232.967 224.008C233.159 223.664 233.255 223.268 233.255 222.82C233.255 222.364 233.159 221.972 232.967 221.644C232.783 221.308 232.527 221.048 232.199 220.864C231.879 220.68 231.519 220.588 231.119 220.588C230.711 220.588 230.347 220.68 230.027 220.864C229.707 221.048 229.451 221.308 229.259 221.644C229.067 221.972 228.971 222.364 228.971 222.82C228.971 223.268 229.067 223.664 229.259 224.008C229.451 224.344 229.707 224.604 230.027 224.788C230.347 224.972 230.711 225.064 231.119 225.064ZM233.291 226V224.284L233.363 222.808L233.243 221.332V217.096H234.395V226H233.291ZM236.85 228.4C236.546 228.4 236.25 228.348 235.962 228.244C235.674 228.148 235.426 228.004 235.218 227.812L235.71 226.948C235.87 227.1 236.046 227.216 236.238 227.296C236.43 227.376 236.634 227.416 236.85 227.416C237.13 227.416 237.362 227.344 237.546 227.2C237.73 227.056 237.902 226.8 238.062 226.432L238.458 225.556L238.578 225.412L241.074 219.64H242.202L239.118 226.636C238.934 227.084 238.726 227.436 238.494 227.692C238.27 227.948 238.022 228.128 237.75 228.232C237.478 228.344 237.178 228.4 236.85 228.4ZM238.362 226.204L235.458 219.64H236.658L239.13 225.304L238.362 226.204Z" fill="white"/>
<path d="M58.535 90.203H63.228V91.321H58.535V90.203ZM58.665 95H57.365V85.9H63.787V87.031H58.665V95ZM67.567 95V85.9H68.867V93.869H73.794V95H67.567ZM81.1787 95.104C80.4853 95.104 79.8397 94.987 79.2417 94.753C78.6523 94.519 78.141 94.194 77.7077 93.778C77.2743 93.3533 76.9363 92.8593 76.6937 92.296C76.451 91.7327 76.3297 91.1173 76.3297 90.45C76.3297 89.7827 76.451 89.1673 76.6937 88.604C76.9363 88.0407 77.2743 87.551 77.7077 87.135C78.141 86.7103 78.6523 86.381 79.2417 86.147C79.831 85.913 80.4767 85.796 81.1787 85.796C81.872 85.796 82.509 85.913 83.0897 86.147C83.679 86.3723 84.1903 86.6973 84.6237 87.122C85.0657 87.538 85.4037 88.0277 85.6377 88.591C85.8803 89.1543 86.0017 89.774 86.0017 90.45C86.0017 91.126 85.8803 91.7457 85.6377 92.309C85.4037 92.8723 85.0657 93.3663 84.6237 93.791C84.1903 94.207 83.679 94.532 83.0897 94.766C82.509 94.9913 81.872 95.104 81.1787 95.104ZM81.1787 93.947C81.6813 93.947 82.145 93.8603 82.5697 93.687C83.003 93.5137 83.3757 93.271 83.6877 92.959C84.0083 92.6383 84.2553 92.2657 84.4287 91.841C84.6107 91.4163 84.7017 90.9527 84.7017 90.45C84.7017 89.9473 84.6107 89.4837 84.4287 89.059C84.2553 88.6343 84.0083 88.266 83.6877 87.954C83.3757 87.6333 83.003 87.3863 82.5697 87.213C82.145 87.0397 81.6813 86.953 81.1787 86.953C80.6673 86.953 80.195 87.0397 79.7617 87.213C79.337 87.3863 78.9643 87.6333 78.6437 87.954C78.323 88.266 78.0717 88.6343 77.8897 89.059C77.7163 89.4837 77.6297 89.9473 77.6297 90.45C77.6297 90.9527 77.7163 91.4163 77.8897 91.841C78.0717 92.2657 78.323 92.6383 78.6437 92.959C78.9643 93.271 79.337 93.5137 79.7617 93.687C80.195 93.8603 80.6673 93.947 81.1787 93.947ZM89.9386 95V85.9H93.4876C94.285 85.9 94.9653 86.0257 95.5286 86.277C96.092 86.5283 96.5253 86.8923 96.8286 87.369C97.132 87.8457 97.2836 88.4133 97.2836 89.072C97.2836 89.7307 97.132 90.2983 96.8286 90.775C96.5253 91.243 96.092 91.6027 95.5286 91.854C94.9653 92.1053 94.285 92.231 93.4876 92.231H90.6536L91.2386 91.633V95H89.9386ZM96.0226 95L93.7086 91.698H95.0996L97.4396 95H96.0226ZM91.2386 91.763L90.6536 91.126H93.4486C94.2806 91.126 94.909 90.9483 95.3336 90.593C95.767 90.229 95.9836 89.722 95.9836 89.072C95.9836 88.422 95.767 87.9193 95.3336 87.564C94.909 87.2087 94.2806 87.031 93.4486 87.031H90.6536L91.2386 86.381V91.763ZM99.9559 95L104.077 85.9H105.364L109.498 95H108.133L104.454 86.628H104.974L101.295 95H99.9559ZM101.711 92.725L102.062 91.685H107.184L107.561 92.725H101.711ZM112.805 95V85.9H114.105V93.869H119.032V95H112.805ZM122.192 96.924L122.842 94.298L123.011 95.052C122.759 95.052 122.547 94.974 122.374 94.818C122.209 94.662 122.127 94.4497 122.127 94.181C122.127 93.921 122.209 93.7087 122.374 93.544C122.547 93.3793 122.755 93.297 122.998 93.297C123.249 93.297 123.453 93.3837 123.609 93.557C123.765 93.7217 123.843 93.9297 123.843 94.181C123.843 94.2677 123.834 94.3543 123.817 94.441C123.808 94.519 123.786 94.6143 123.752 94.727C123.726 94.831 123.682 94.961 123.622 95.117L123.011 96.924H122.192ZM134.374 90.203H139.067V91.321H134.374V90.203ZM134.504 95H133.204V85.9H139.626V87.031H134.504V95ZM143.406 95V85.9H146.955C147.753 85.9 148.433 86.0257 148.996 86.277C149.56 86.5283 149.993 86.8923 150.296 87.369C150.6 87.8457 150.751 88.4133 150.751 89.072C150.751 89.7307 150.6 90.2983 150.296 90.775C149.993 91.243 149.56 91.6027 148.996 91.854C148.433 92.1053 147.753 92.231 146.955 92.231H144.121L144.706 91.633V95H143.406ZM149.49 95L147.176 91.698H148.567L150.907 95H149.49ZM144.706 91.763L144.121 91.126H146.916C147.748 91.126 148.377 90.9483 148.801 90.593C149.235 90.229 149.451 89.722 149.451 89.072C149.451 88.422 149.235 87.9193 148.801 87.564C148.377 87.2087 147.748 87.031 146.916 87.031H144.121L144.706 86.381V91.763ZM158.572 95.104C157.376 95.104 156.435 94.7617 155.751 94.077C155.066 93.3923 154.724 92.3913 154.724 91.074V85.9H156.024V91.022C156.024 92.036 156.245 92.777 156.687 93.245C157.137 93.713 157.77 93.947 158.585 93.947C159.408 93.947 160.041 93.713 160.483 93.245C160.933 92.777 161.159 92.036 161.159 91.022V85.9H162.42V91.074C162.42 92.3913 162.077 93.3923 161.393 94.077C160.717 94.7617 159.776 95.104 158.572 95.104ZM167.035 95V85.9H168.335V95H167.035ZM174.816 95V87.031H171.696V85.9H179.223V87.031H176.103V95H174.816ZM184.684 95V91.516L184.983 92.322L181.07 85.9H182.461L185.75 91.321H184.996L188.298 85.9H189.585L185.685 92.322L185.971 91.516V95H184.684ZM191.696 96.924L192.346 94.298L192.515 95.052C192.264 95.052 192.051 94.974 191.878 94.818C191.713 94.662 191.631 94.4497 191.631 94.181C191.631 93.921 191.713 93.7087 191.878 93.544C192.051 93.3793 192.259 93.297 192.502 93.297C192.753 93.297 192.957 93.3837 193.113 93.557C193.269 93.7217 193.347 93.9297 193.347 94.181C193.347 94.2677 193.338 94.3543 193.321 94.441C193.312 94.519 193.291 94.6143 193.256 94.727C193.23 94.831 193.187 94.961 193.126 95.117L192.515 96.924H191.696ZM204.802 95L201.76 85.9H203.099L205.894 94.298H205.218L208.117 85.9H209.313L212.147 94.298H211.497L214.331 85.9H215.566L212.524 95H211.159L208.507 87.213H208.858L206.193 95H204.802ZM223.112 95.104C222.419 95.104 221.773 94.987 221.175 94.753C220.586 94.519 220.075 94.194 219.641 93.778C219.208 93.3533 218.87 92.8593 218.627 92.296C218.385 91.7327 218.263 91.1173 218.263 90.45C218.263 89.7827 218.385 89.1673 218.627 88.604C218.87 88.0407 219.208 87.551 219.641 87.135C220.075 86.7103 220.586 86.381 221.175 86.147C221.765 85.913 222.41 85.796 223.112 85.796C223.806 85.796 224.443 85.913 225.023 86.147C225.613 86.3723 226.124 86.6973 226.557 87.122C226.999 87.538 227.337 88.0277 227.571 88.591C227.814 89.1543 227.935 89.774 227.935 90.45C227.935 91.126 227.814 91.7457 227.571 92.309C227.337 92.8723 226.999 93.3663 226.557 93.791C226.124 94.207 225.613 94.532 225.023 94.766C224.443 94.9913 223.806 95.104 223.112 95.104ZM223.112 93.947C223.615 93.947 224.079 93.8603 224.503 93.687C224.937 93.5137 225.309 93.271 225.621 92.959C225.942 92.6383 226.189 92.2657 226.362 91.841C226.544 91.4163 226.635 90.9527 226.635 90.45C226.635 89.9473 226.544 89.4837 226.362 89.059C226.189 88.6343 225.942 88.266 225.621 87.954C225.309 87.6333 224.937 87.3863 224.503 87.213C224.079 87.0397 223.615 86.953 223.112 86.953C222.601 86.953 222.129 87.0397 221.695 87.213C221.271 87.3863 220.898 87.6333 220.577 87.954C220.257 88.266 220.005 88.6343 219.823 89.059C219.65 89.4837 219.563 89.9473 219.563 90.45C219.563 90.9527 219.65 91.4163 219.823 91.841C220.005 92.2657 220.257 92.6383 220.577 92.959C220.898 93.271 221.271 93.5137 221.695 93.687C222.129 93.8603 222.601 93.947 223.112 93.947ZM235.98 95.104C235.287 95.104 234.641 94.987 234.043 94.753C233.454 94.519 232.943 94.194 232.509 93.778C232.076 93.3533 231.738 92.8593 231.495 92.296C231.253 91.7327 231.131 91.1173 231.131 90.45C231.131 89.7827 231.253 89.1673 231.495 88.604C231.738 88.0407 232.076 87.551 232.509 87.135C232.943 86.7103 233.454 86.381 234.043 86.147C234.633 85.913 235.278 85.796 235.98 85.796C236.674 85.796 237.311 85.913 237.891 86.147C238.481 86.3723 238.992 86.6973 239.425 87.122C239.867 87.538 240.205 88.0277 240.439 88.591C240.682 89.1543 240.803 89.774 240.803 90.45C240.803 91.126 240.682 91.7457 240.439 92.309C240.205 92.8723 239.867 93.3663 239.425 93.791C238.992 94.207 238.481 94.532 237.891 94.766C237.311 94.9913 236.674 95.104 235.98 95.104ZM235.98 93.947C236.483 93.947 236.947 93.8603 237.371 93.687C237.805 93.5137 238.177 93.271 238.489 92.959C238.81 92.6383 239.057 92.2657 239.23 91.841C239.412 91.4163 239.503 90.9527 239.503 90.45C239.503 89.9473 239.412 89.4837 239.23 89.059C239.057 88.6343 238.81 88.266 238.489 87.954C238.177 87.6333 237.805 87.3863 237.371 87.213C236.947 87.0397 236.483 86.953 235.98 86.953C235.469 86.953 234.997 87.0397 234.563 87.213C234.139 87.3863 233.766 87.6333 233.445 87.954C233.125 88.266 232.873 88.6343 232.691 89.059C232.518 89.4837 232.431 89.9473 232.431 90.45C232.431 90.9527 232.518 91.4163 232.691 91.841C232.873 92.2657 233.125 92.6383 233.445 92.959C233.766 93.271 234.139 93.5137 234.563 93.687C234.997 93.8603 235.469 93.947 235.98 93.947ZM244.74 95V85.9H248.575C249.546 85.9 250.4 86.0907 251.136 86.472C251.882 86.8533 252.458 87.3863 252.865 88.071C253.281 88.7557 253.489 89.5487 253.489 90.45C253.489 91.3513 253.281 92.1443 252.865 92.829C252.458 93.5137 251.882 94.0467 251.136 94.428C250.4 94.8093 249.546 95 248.575 95H244.74ZM246.04 93.869H248.497C249.251 93.869 249.901 93.726 250.447 93.44C251.002 93.154 251.431 92.7553 251.734 92.244C252.038 91.724 252.189 91.126 252.189 90.45C252.189 89.7653 252.038 89.1673 251.734 88.656C251.431 88.1447 251.002 87.746 250.447 87.46C249.901 87.174 249.251 87.031 248.497 87.031H246.04V93.869ZM259.234 95V91.516L259.533 92.322L255.62 85.9H257.011L260.3 91.321H259.546L262.848 85.9H264.135L260.235 92.322L260.521 91.516V95H259.234Z" fill="#F5FF70"/>
<path fill-rule="evenodd" clip-rule="evenodd" d="M317 286H286V317H287V287H317V286Z" fill="white"/>
<path d="M160 114.5V147.5" stroke="white"/>
</svg>
