<svg width="320" height="320" viewBox="0 0 320 320" fill="none" xmlns="http://www.w3.org/2000/svg">
<path d="M0 0H320V287L303.5 303.5L286.5 320H0V0Z" fill="#F26522"/>
<path d="M105.472 63V49.368H100.096V46.2H114.736V49.368H109.36V63H105.472ZM123.692 49.896C124.716 49.896 125.628 50.104 126.428 50.52C127.244 50.92 127.884 51.544 128.348 52.392C128.812 53.224 129.044 54.296 129.044 55.608V63H125.3V56.184C125.3 55.144 125.068 54.376 124.604 53.88C124.156 53.384 123.516 53.136 122.684 53.136C122.092 53.136 121.556 53.264 121.076 53.52C120.612 53.76 120.244 54.136 119.972 54.648C119.716 55.16 119.588 55.816 119.588 56.616V63H115.844V45.192H119.588V53.664L118.748 52.584C119.212 51.72 119.876 51.056 120.74 50.592C121.604 50.128 122.588 49.896 123.692 49.896ZM138.219 63.192C136.747 63.192 135.451 62.904 134.331 62.328C133.227 61.752 132.371 60.968 131.763 59.976C131.155 58.968 130.851 57.824 130.851 56.544C130.851 55.248 131.147 54.104 131.739 53.112C132.347 52.104 133.171 51.32 134.211 50.76C135.251 50.184 136.427 49.896 137.739 49.896C139.003 49.896 140.139 50.168 141.147 50.712C142.171 51.24 142.979 52.008 143.571 53.016C144.163 54.008 144.459 55.2 144.459 56.592C144.459 56.736 144.451 56.904 144.435 57.096C144.419 57.272 144.403 57.44 144.387 57.6H133.899V55.416H142.419L140.979 56.064C140.979 55.392 140.843 54.808 140.571 54.312C140.299 53.816 139.923 53.432 139.443 53.16C138.963 52.872 138.403 52.728 137.763 52.728C137.123 52.728 136.555 52.872 136.059 53.16C135.579 53.432 135.203 53.824 134.931 54.336C134.659 54.832 134.523 55.424 134.523 56.112V56.688C134.523 57.392 134.675 58.016 134.979 58.56C135.299 59.088 135.739 59.496 136.299 59.784C136.875 60.056 137.547 60.192 138.315 60.192C139.003 60.192 139.603 60.088 140.115 59.88C140.643 59.672 141.123 59.36 141.555 58.944L143.547 61.104C142.955 61.776 142.211 62.296 141.315 62.664C140.419 63.016 139.387 63.192 138.219 63.192ZM152.573 63V46.2H155.789L165.701 58.296H164.141V46.2H167.981V63H164.789L154.853 50.904H156.413V63H152.573ZM177.116 63.192C175.74 63.192 174.516 62.904 173.444 62.328C172.388 61.752 171.548 60.968 170.924 59.976C170.316 58.968 170.012 57.824 170.012 56.544C170.012 55.248 170.316 54.104 170.924 53.112C171.548 52.104 172.388 51.32 173.444 50.76C174.516 50.184 175.74 49.896 177.116 49.896C178.476 49.896 179.692 50.184 180.764 50.76C181.836 51.32 182.676 52.096 183.284 53.088C183.892 54.08 184.196 55.232 184.196 56.544C184.196 57.824 183.892 58.968 183.284 59.976C182.676 60.968 181.836 61.752 180.764 62.328C179.692 62.904 178.476 63.192 177.116 63.192ZM177.116 60.12C177.74 60.12 178.3 59.976 178.796 59.688C179.292 59.4 179.684 58.992 179.972 58.464C180.26 57.92 180.404 57.28 180.404 56.544C180.404 55.792 180.26 55.152 179.972 54.624C179.684 54.096 179.292 53.688 178.796 53.4C178.3 53.112 177.74 52.968 177.116 52.968C176.492 52.968 175.932 53.112 175.436 53.4C174.94 53.688 174.54 54.096 174.236 54.624C173.948 55.152 173.804 55.792 173.804 56.544C173.804 57.28 173.948 57.92 174.236 58.464C174.54 58.992 174.94 59.4 175.436 59.688C175.932 59.976 176.492 60.12 177.116 60.12ZM191.258 63.192C189.738 63.192 188.554 62.808 187.706 62.04C186.858 61.256 186.434 60.096 186.434 58.56V47.232H190.178V58.512C190.178 59.056 190.322 59.48 190.61 59.784C190.898 60.072 191.29 60.216 191.786 60.216C192.378 60.216 192.882 60.056 193.298 59.736L194.306 62.376C193.922 62.648 193.458 62.856 192.914 63C192.386 63.128 191.834 63.192 191.258 63.192ZM184.442 53.256V50.376H193.394V53.256H184.442ZM201.698 63.192C200.226 63.192 198.93 62.904 197.81 62.328C196.706 61.752 195.85 60.968 195.242 59.976C194.634 58.968 194.33 57.824 194.33 56.544C194.33 55.248 194.626 54.104 195.218 53.112C195.826 52.104 196.65 51.32 197.69 50.76C198.73 50.184 199.906 49.896 201.218 49.896C202.482 49.896 203.618 50.168 204.626 50.712C205.65 51.24 206.458 52.008 207.05 53.016C207.642 54.008 207.938 55.2 207.938 56.592C207.938 56.736 207.93 56.904 207.914 57.096C207.898 57.272 207.882 57.44 207.866 57.6H197.378V55.416H205.898L204.458 56.064C204.458 55.392 204.322 54.808 204.05 54.312C203.778 53.816 203.402 53.432 202.922 53.16C202.442 52.872 201.882 52.728 201.242 52.728C200.602 52.728 200.034 52.872 199.538 53.16C199.058 53.432 198.682 53.824 198.41 54.336C198.138 54.832 198.002 55.424 198.002 56.112V56.688C198.002 57.392 198.154 58.016 198.458 58.56C198.778 59.088 199.218 59.496 199.778 59.784C200.354 60.056 201.026 60.192 201.794 60.192C202.482 60.192 203.082 60.088 203.594 59.88C204.122 59.672 204.602 59.36 205.034 58.944L207.026 61.104C206.434 61.776 205.69 62.296 204.794 62.664C203.898 63.016 202.866 63.192 201.698 63.192ZM214.054 63.192C212.95 63.192 211.886 63.064 210.862 62.808C209.854 62.536 209.054 62.2 208.462 61.8L209.71 59.112C210.302 59.48 210.998 59.784 211.798 60.024C212.614 60.248 213.414 60.36 214.198 60.36C215.062 60.36 215.67 60.256 216.022 60.048C216.39 59.84 216.574 59.552 216.574 59.184C216.574 58.88 216.43 58.656 216.142 58.512C215.87 58.352 215.502 58.232 215.038 58.152C214.574 58.072 214.062 57.992 213.502 57.912C212.958 57.832 212.406 57.728 211.846 57.6C211.286 57.456 210.774 57.248 210.31 56.976C209.846 56.704 209.47 56.336 209.182 55.872C208.91 55.408 208.774 54.808 208.774 54.072C208.774 53.256 209.006 52.536 209.47 51.912C209.95 51.288 210.638 50.8 211.534 50.448C212.43 50.08 213.502 49.896 214.75 49.896C215.63 49.896 216.526 49.992 217.438 50.184C218.35 50.376 219.11 50.656 219.718 51.024L218.47 53.688C217.846 53.32 217.214 53.072 216.574 52.944C215.95 52.8 215.342 52.728 214.75 52.728C213.918 52.728 213.31 52.84 212.926 53.064C212.542 53.288 212.35 53.576 212.35 53.928C212.35 54.248 212.486 54.488 212.758 54.648C213.046 54.808 213.422 54.936 213.886 55.032C214.35 55.128 214.854 55.216 215.398 55.296C215.958 55.36 216.518 55.464 217.078 55.608C217.638 55.752 218.142 55.96 218.59 56.232C219.054 56.488 219.43 56.848 219.718 57.312C220.006 57.76 220.15 58.352 220.15 59.088C220.15 59.888 219.91 60.6 219.43 61.224C218.95 61.832 218.254 62.312 217.342 62.664C216.446 63.016 215.35 63.192 214.054 63.192Z" fill="white"/>
<path d="M57.1618 176V169.184H54.4738V167.6H61.7938V169.184H59.1058V176H57.1618ZM65.1235 176.096C64.4355 176.096 63.8235 175.952 63.2875 175.664C62.7595 175.376 62.3395 174.984 62.0275 174.488C61.7235 173.984 61.5715 173.412 61.5715 172.772C61.5715 172.124 61.7235 171.552 62.0275 171.056C62.3395 170.552 62.7595 170.16 63.2875 169.88C63.8235 169.592 64.4355 169.448 65.1235 169.448C65.8035 169.448 66.4115 169.592 66.9475 169.88C67.4835 170.16 67.9035 170.548 68.2075 171.044C68.5115 171.54 68.6635 172.116 68.6635 172.772C68.6635 173.412 68.5115 173.984 68.2075 174.488C67.9035 174.984 67.4835 175.376 66.9475 175.664C66.4115 175.952 65.8035 176.096 65.1235 176.096ZM65.1235 174.56C65.4355 174.56 65.7155 174.488 65.9635 174.344C66.2115 174.2 66.4075 173.996 66.5515 173.732C66.6955 173.46 66.7675 173.14 66.7675 172.772C66.7675 172.396 66.6955 172.076 66.5515 171.812C66.4075 171.548 66.2115 171.344 65.9635 171.2C65.7155 171.056 65.4355 170.984 65.1235 170.984C64.8115 170.984 64.5315 171.056 64.2835 171.2C64.0355 171.344 63.8355 171.548 63.6835 171.812C63.5395 172.076 63.4675 172.396 63.4675 172.772C63.4675 173.14 63.5395 173.46 63.6835 173.732C63.8355 173.996 64.0355 174.2 64.2835 174.344C64.5315 174.488 64.8115 174.56 65.1235 174.56ZM73.7308 176.096C73.1868 176.096 72.7108 175.976 72.3028 175.736C71.8948 175.496 71.5748 175.132 71.3428 174.644C71.1188 174.148 71.0068 173.524 71.0068 172.772C71.0068 172.012 71.1148 171.388 71.3308 170.9C71.5468 170.412 71.8588 170.048 72.2668 169.808C72.6748 169.568 73.1628 169.448 73.7308 169.448C74.3388 169.448 74.8828 169.588 75.3628 169.868C75.8508 170.14 76.2348 170.524 76.5148 171.02C76.8028 171.516 76.9468 172.1 76.9468 172.772C76.9468 173.452 76.8028 174.04 76.5148 174.536C76.2348 175.032 75.8508 175.416 75.3628 175.688C74.8828 175.96 74.3388 176.096 73.7308 176.096ZM69.9148 178.328V169.544H71.7028V170.864L71.6668 172.784L71.7868 174.692V178.328H69.9148ZM73.4068 174.56C73.7188 174.56 73.9948 174.488 74.2348 174.344C74.4828 174.2 74.6788 173.996 74.8228 173.732C74.9748 173.46 75.0508 173.14 75.0508 172.772C75.0508 172.396 74.9748 172.076 74.8228 171.812C74.6788 171.548 74.4828 171.344 74.2348 171.2C73.9948 171.056 73.7188 170.984 73.4068 170.984C73.0948 170.984 72.8148 171.056 72.5668 171.2C72.3188 171.344 72.1228 171.548 71.9788 171.812C71.8348 172.076 71.7628 172.396 71.7628 172.772C71.7628 173.14 71.8348 173.46 71.9788 173.732C72.1228 173.996 72.3188 174.2 72.5668 174.344C72.8148 174.488 73.0948 174.56 73.4068 174.56ZM78.9079 171.788C78.5879 171.788 78.3119 171.68 78.0799 171.464C77.8559 171.24 77.7439 170.956 77.7439 170.612C77.7439 170.268 77.8559 169.992 78.0799 169.784C78.3119 169.568 78.5879 169.46 78.9079 169.46C79.2359 169.46 79.5119 169.568 79.7359 169.784C79.9599 169.992 80.0719 170.268 80.0719 170.612C80.0719 170.956 79.9599 171.24 79.7359 171.464C79.5119 171.68 79.2359 171.788 78.9079 171.788ZM78.9079 176.096C78.5879 176.096 78.3119 175.988 78.0799 175.772C77.8559 175.548 77.7439 175.264 77.7439 174.92C77.7439 174.576 77.8559 174.3 78.0799 174.092C78.3119 173.876 78.5879 173.768 78.9079 173.768C79.2359 173.768 79.5119 173.876 79.7359 174.092C79.9599 174.3 80.0719 174.576 80.0719 174.92C80.0719 175.264 79.9599 175.548 79.7359 175.772C79.5119 175.988 79.2359 176.096 78.9079 176.096ZM91.9374 201V192.6H93.5454L97.1214 198.528H96.2694L99.7854 192.6H101.381L101.405 201H99.5814L99.5694 195.396H99.9054L97.0974 200.112H96.2214L93.3534 195.396H93.7614V201H91.9374ZM103.266 201V194.544H105.138V201H103.266ZM104.202 193.644C103.858 193.644 103.578 193.544 103.362 193.344C103.146 193.144 103.038 192.896 103.038 192.6C103.038 192.304 103.146 192.056 103.362 191.856C103.578 191.656 103.858 191.556 104.202 191.556C104.546 191.556 104.826 191.652 105.042 191.844C105.258 192.028 105.366 192.268 105.366 192.564C105.366 192.876 105.258 193.136 105.042 193.344C104.834 193.544 104.554 193.644 104.202 193.644ZM109.648 201.096C109.04 201.096 108.492 200.96 108.004 200.688C107.516 200.408 107.128 200.02 106.84 199.524C106.56 199.028 106.42 198.444 106.42 197.772C106.42 197.092 106.56 196.504 106.84 196.008C107.128 195.512 107.516 195.128 108.004 194.856C108.492 194.584 109.04 194.448 109.648 194.448C110.192 194.448 110.668 194.568 111.076 194.808C111.484 195.048 111.8 195.412 112.024 195.9C112.248 196.388 112.36 197.012 112.36 197.772C112.36 198.524 112.252 199.148 112.036 199.644C111.82 200.132 111.508 200.496 111.1 200.736C110.7 200.976 110.216 201.096 109.648 201.096ZM109.972 199.56C110.276 199.56 110.552 199.488 110.8 199.344C111.048 199.2 111.244 198.996 111.388 198.732C111.54 198.46 111.616 198.14 111.616 197.772C111.616 197.396 111.54 197.076 111.388 196.812C111.244 196.548 111.048 196.344 110.8 196.2C110.552 196.056 110.276 195.984 109.972 195.984C109.66 195.984 109.38 196.056 109.132 196.2C108.884 196.344 108.684 196.548 108.532 196.812C108.388 197.076 108.316 197.396 108.316 197.772C108.316 198.14 108.388 198.46 108.532 198.732C108.684 198.996 108.884 199.2 109.132 199.344C109.38 199.488 109.66 199.56 109.972 199.56ZM111.664 201V199.68L111.7 197.76L111.58 195.852V192.096H113.452V201H111.664ZM117.956 201.096C117.348 201.096 116.8 200.96 116.312 200.688C115.824 200.408 115.436 200.02 115.148 199.524C114.868 199.028 114.728 198.444 114.728 197.772C114.728 197.092 114.868 196.504 115.148 196.008C115.436 195.512 115.824 195.128 116.312 194.856C116.8 194.584 117.348 194.448 117.956 194.448C118.5 194.448 118.976 194.568 119.384 194.808C119.792 195.048 120.108 195.412 120.332 195.9C120.556 196.388 120.668 197.012 120.668 197.772C120.668 198.524 120.56 199.148 120.344 199.644C120.128 200.132 119.816 200.496 119.408 200.736C119.008 200.976 118.524 201.096 117.956 201.096ZM118.28 199.56C118.584 199.56 118.86 199.488 119.108 199.344C119.356 199.2 119.552 198.996 119.696 198.732C119.848 198.46 119.924 198.14 119.924 197.772C119.924 197.396 119.848 197.076 119.696 196.812C119.552 196.548 119.356 196.344 119.108 196.2C118.86 196.056 118.584 195.984 118.28 195.984C117.968 195.984 117.688 196.056 117.44 196.2C117.192 196.344 116.992 196.548 116.84 196.812C116.696 197.076 116.624 197.396 116.624 197.772C116.624 198.14 116.696 198.46 116.84 198.732C116.992 198.996 117.192 199.2 117.44 199.344C117.688 199.488 117.968 199.56 118.28 199.56ZM119.972 201V199.68L120.008 197.76L119.888 195.852V192.096H121.76V201H119.972ZM123.493 201V192.096H125.365V201H123.493ZM130.306 201.096C129.57 201.096 128.922 200.952 128.362 200.664C127.81 200.376 127.382 199.984 127.078 199.488C126.774 198.984 126.622 198.412 126.622 197.772C126.622 197.124 126.77 196.552 127.066 196.056C127.37 195.552 127.782 195.16 128.302 194.88C128.822 194.592 129.41 194.448 130.066 194.448C130.698 194.448 131.266 194.584 131.77 194.856C132.282 195.12 132.686 195.504 132.982 196.008C133.278 196.504 133.426 197.1 133.426 197.796C133.426 197.868 133.422 197.952 133.414 198.048C133.406 198.136 133.398 198.22 133.39 198.3H128.146V197.208H132.406L131.686 197.532C131.686 197.196 131.618 196.904 131.482 196.656C131.346 196.408 131.158 196.216 130.918 196.08C130.678 195.936 130.398 195.864 130.078 195.864C129.758 195.864 129.474 195.936 129.226 196.08C128.986 196.216 128.798 196.412 128.662 196.668C128.526 196.916 128.458 197.212 128.458 197.556V197.844C128.458 198.196 128.534 198.508 128.686 198.78C128.846 199.044 129.066 199.248 129.346 199.392C129.634 199.528 129.97 199.596 130.354 199.596C130.698 199.596 130.998 199.544 131.254 199.44C131.518 199.336 131.758 199.18 131.974 198.972L132.97 200.052C132.674 200.388 132.302 200.648 131.854 200.832C131.406 201.008 130.89 201.096 130.306 201.096ZM135.381 196.788C135.061 196.788 134.785 196.68 134.553 196.464C134.329 196.24 134.217 195.956 134.217 195.612C134.217 195.268 134.329 194.992 134.553 194.784C134.785 194.568 135.061 194.46 135.381 194.46C135.709 194.46 135.985 194.568 136.209 194.784C136.433 194.992 136.545 195.268 136.545 195.612C136.545 195.956 136.433 196.24 136.209 196.464C135.985 196.68 135.709 196.788 135.381 196.788ZM135.381 201.096C135.061 201.096 134.785 200.988 134.553 200.772C134.329 200.548 134.217 200.264 134.217 199.92C134.217 199.576 134.329 199.3 134.553 199.092C134.785 198.876 135.061 198.768 135.381 198.768C135.709 198.768 135.985 198.876 136.209 199.092C136.433 199.3 136.545 199.576 136.545 199.92C136.545 200.264 136.433 200.548 136.209 200.772C135.985 200.988 135.709 201.096 135.381 201.096ZM105.027 251V242.6H108.843C109.755 242.6 110.559 242.776 111.255 243.128C111.951 243.472 112.495 243.956 112.887 244.58C113.279 245.204 113.475 245.944 113.475 246.8C113.475 247.648 113.279 248.388 112.887 249.02C112.495 249.644 111.951 250.132 111.255 250.484C110.559 250.828 109.755 251 108.843 251H105.027ZM106.971 249.404H108.747C109.307 249.404 109.791 249.3 110.199 249.092C110.615 248.876 110.935 248.572 111.159 248.18C111.391 247.788 111.507 247.328 111.507 246.8C111.507 246.264 111.391 245.804 111.159 245.42C110.935 245.028 110.615 244.728 110.199 244.52C109.791 244.304 109.307 244.196 108.747 244.196H106.971V249.404ZM114.809 251V244.544H116.597V246.368L116.345 245.84C116.537 245.384 116.845 245.04 117.269 244.808C117.693 244.568 118.209 244.448 118.817 244.448V246.176C118.737 246.168 118.665 246.164 118.601 246.164C118.537 246.156 118.469 246.152 118.397 246.152C117.885 246.152 117.469 246.3 117.149 246.596C116.837 246.884 116.681 247.336 116.681 247.952V251H114.809ZM120.969 253.424C120.633 253.424 120.301 253.372 119.973 253.268C119.645 253.164 119.377 253.02 119.169 252.836L119.853 251.504C119.997 251.632 120.161 251.732 120.345 251.804C120.537 251.876 120.725 251.912 120.909 251.912C121.173 251.912 121.381 251.848 121.533 251.72C121.693 251.6 121.837 251.396 121.965 251.108L122.301 250.316L122.445 250.112L124.761 244.544H126.561L123.645 251.396C123.437 251.916 123.197 252.324 122.925 252.62C122.661 252.916 122.365 253.124 122.037 253.244C121.717 253.364 121.361 253.424 120.969 253.424ZM122.073 251.252L119.193 244.544H121.125L123.357 249.944L122.073 251.252ZM128.08 246.788C127.76 246.788 127.484 246.68 127.252 246.464C127.028 246.24 126.916 245.956 126.916 245.612C126.916 245.268 127.028 244.992 127.252 244.784C127.484 244.568 127.76 244.46 128.08 244.46C128.408 244.46 128.684 244.568 128.908 244.784C129.132 244.992 129.244 245.268 129.244 245.612C129.244 245.956 129.132 246.24 128.908 246.464C128.684 246.68 128.408 246.788 128.08 246.788ZM128.08 251.096C127.76 251.096 127.484 250.988 127.252 250.772C127.028 250.548 126.916 250.264 126.916 249.92C126.916 249.576 127.028 249.3 127.252 249.092C127.484 248.876 127.76 248.768 128.08 248.768C128.408 248.768 128.684 248.876 128.908 249.092C129.132 249.3 129.244 249.576 129.244 249.92C129.244 250.264 129.132 250.548 128.908 250.772C128.684 250.988 128.408 251.096 128.08 251.096Z" fill="#F5FF70"/>
<path d="M84.9592 176V167.6H88.2352C88.9712 167.6 89.5992 167.716 90.1192 167.948C90.6392 168.18 91.0392 168.516 91.3192 168.956C91.5992 169.396 91.7392 169.92 91.7392 170.528C91.7392 171.136 91.5992 171.66 91.3192 172.1C91.0392 172.532 90.6392 172.868 90.1192 173.108C89.5992 173.34 88.9712 173.456 88.2352 173.456H85.6192L86.1592 172.892V176H84.9592ZM86.1592 173.012L85.6192 172.412H88.1992C88.9672 172.412 89.5472 172.248 89.9392 171.92C90.3392 171.592 90.5392 171.128 90.5392 170.528C90.5392 169.928 90.3392 169.464 89.9392 169.136C89.5472 168.808 88.9672 168.644 88.1992 168.644H85.6192L86.1592 168.044V173.012ZM96.1428 176.072C95.4628 176.072 94.8628 175.932 94.3428 175.652C93.8308 175.372 93.4308 174.988 93.1428 174.5C92.8628 174.012 92.7228 173.452 92.7228 172.82C92.7228 172.188 92.8588 171.628 93.1308 171.14C93.4108 170.652 93.7908 170.272 94.2708 170C94.7588 169.72 95.3068 169.58 95.9148 169.58C96.5308 169.58 97.0748 169.716 97.5468 169.988C98.0188 170.26 98.3868 170.644 98.6508 171.14C98.9228 171.628 99.0588 172.2 99.0588 172.856C99.0588 172.904 99.0548 172.96 99.0468 173.024C99.0468 173.088 99.0428 173.148 99.0348 173.204H93.6228V172.376H98.4348L97.9668 172.664C97.9748 172.256 97.8908 171.892 97.7148 171.572C97.5388 171.252 97.2948 171.004 96.9828 170.828C96.6788 170.644 96.3228 170.552 95.9148 170.552C95.5148 170.552 95.1588 170.644 94.8468 170.828C94.5348 171.004 94.2908 171.256 94.1148 171.584C93.9388 171.904 93.8508 172.272 93.8508 172.688V172.88C93.8508 173.304 93.9468 173.684 94.1388 174.02C94.3388 174.348 94.6148 174.604 94.9668 174.788C95.3188 174.972 95.7228 175.064 96.1788 175.064C96.5548 175.064 96.8948 175 97.1988 174.872C97.5108 174.744 97.7828 174.552 98.0148 174.296L98.6508 175.04C98.3628 175.376 98.0028 175.632 97.5708 175.808C97.1468 175.984 96.6708 176.072 96.1428 176.072ZM104.431 176V174.656L104.371 174.404V172.112C104.371 171.624 104.227 171.248 103.939 170.984C103.659 170.712 103.235 170.576 102.667 170.576C102.291 170.576 101.923 170.64 101.563 170.768C101.203 170.888 100.899 171.052 100.651 171.26L100.171 170.396C100.499 170.132 100.891 169.932 101.347 169.796C101.811 169.652 102.295 169.58 102.799 169.58C103.671 169.58 104.343 169.792 104.815 170.216C105.287 170.64 105.523 171.288 105.523 172.16V176H104.431ZM102.343 176.072C101.871 176.072 101.455 175.992 101.095 175.832C100.743 175.672 100.471 175.452 100.279 175.172C100.087 174.884 99.9906 174.56 99.9906 174.2C99.9906 173.856 100.071 173.544 100.231 173.264C100.399 172.984 100.667 172.76 101.035 172.592C101.411 172.424 101.915 172.34 102.547 172.34H104.563V173.168H102.595C102.019 173.168 101.631 173.264 101.431 173.456C101.231 173.648 101.131 173.88 101.131 174.152C101.131 174.464 101.255 174.716 101.503 174.908C101.751 175.092 102.095 175.184 102.535 175.184C102.967 175.184 103.343 175.088 103.663 174.896C103.991 174.704 104.227 174.424 104.371 174.056L104.599 174.848C104.447 175.224 104.179 175.524 103.795 175.748C103.411 175.964 102.927 176.072 102.343 176.072ZM110.427 176.072C109.779 176.072 109.199 175.932 108.687 175.652C108.183 175.372 107.787 174.988 107.499 174.5C107.211 174.012 107.067 173.452 107.067 172.82C107.067 172.188 107.211 171.628 107.499 171.14C107.787 170.652 108.183 170.272 108.687 170C109.199 169.72 109.779 169.58 110.427 169.58C111.003 169.58 111.515 169.696 111.963 169.928C112.419 170.152 112.771 170.488 113.019 170.936L112.143 171.5C111.935 171.188 111.679 170.96 111.375 170.816C111.079 170.664 110.759 170.588 110.415 170.588C109.999 170.588 109.627 170.68 109.299 170.864C108.971 171.048 108.711 171.308 108.519 171.644C108.327 171.972 108.231 172.364 108.231 172.82C108.231 173.276 108.327 173.672 108.519 174.008C108.711 174.344 108.971 174.604 109.299 174.788C109.627 174.972 109.999 175.064 110.415 175.064C110.759 175.064 111.079 174.992 111.375 174.848C111.679 174.696 111.935 174.464 112.143 174.152L113.019 174.704C112.771 175.144 112.419 175.484 111.963 175.724C111.515 175.956 111.003 176.072 110.427 176.072ZM117.824 169.58C118.344 169.58 118.8 169.68 119.192 169.88C119.592 170.08 119.904 170.384 120.128 170.792C120.352 171.2 120.464 171.716 120.464 172.34V176H119.312V172.472C119.312 171.856 119.16 171.392 118.856 171.08C118.56 170.768 118.14 170.612 117.596 170.612C117.188 170.612 116.832 170.692 116.528 170.852C116.224 171.012 115.988 171.248 115.82 171.56C115.66 171.872 115.58 172.26 115.58 172.724V176H114.428V167.096H115.58V171.356L115.352 170.9C115.56 170.484 115.88 170.16 116.312 169.928C116.744 169.696 117.248 169.58 117.824 169.58ZM122.14 177.776L122.74 175.352L122.896 176.048C122.664 176.048 122.468 175.976 122.308 175.832C122.156 175.688 122.08 175.492 122.08 175.244C122.08 175.004 122.156 174.808 122.308 174.656C122.468 174.504 122.66 174.428 122.884 174.428C123.116 174.428 123.304 174.508 123.448 174.668C123.592 174.82 123.664 175.012 123.664 175.244C123.664 175.324 123.656 175.404 123.64 175.484C123.632 175.556 123.612 175.644 123.58 175.748C123.556 175.844 123.516 175.964 123.46 176.108L122.896 177.776H122.14ZM132.497 176.096C131.857 176.096 131.261 175.988 130.709 175.772C130.165 175.556 129.693 175.256 129.293 174.872C128.893 174.48 128.581 174.024 128.357 173.504C128.133 172.984 128.021 172.416 128.021 171.8C128.021 171.184 128.133 170.616 128.357 170.096C128.581 169.576 128.893 169.124 129.293 168.74C129.693 168.348 130.165 168.044 130.709 167.828C131.253 167.612 131.849 167.504 132.497 167.504C133.137 167.504 133.725 167.612 134.261 167.828C134.805 168.036 135.277 168.336 135.677 168.728C136.085 169.112 136.397 169.564 136.613 170.084C136.837 170.604 136.949 171.176 136.949 171.8C136.949 172.424 136.837 172.996 136.613 173.516C136.397 174.036 136.085 174.492 135.677 174.884C135.277 175.268 134.805 175.568 134.261 175.784C133.725 175.992 133.137 176.096 132.497 176.096ZM132.497 175.028C132.961 175.028 133.389 174.948 133.781 174.788C134.181 174.628 134.525 174.404 134.813 174.116C135.109 173.82 135.337 173.476 135.497 173.084C135.665 172.692 135.749 172.264 135.749 171.8C135.749 171.336 135.665 170.908 135.497 170.516C135.337 170.124 135.109 169.784 134.813 169.496C134.525 169.2 134.181 168.972 133.781 168.812C133.389 168.652 132.961 168.572 132.497 168.572C132.025 168.572 131.589 168.652 131.189 168.812C130.797 168.972 130.453 169.2 130.157 169.496C129.861 169.784 129.629 170.124 129.461 170.516C129.301 170.908 129.221 171.336 129.221 171.8C129.221 172.264 129.301 172.692 129.461 173.084C129.629 173.476 129.861 173.82 130.157 174.116C130.453 174.404 130.797 174.628 131.189 174.788C131.589 174.948 132.025 175.028 132.497 175.028ZM138.615 176V169.64H139.719V171.368L139.611 170.936C139.787 170.496 140.083 170.16 140.499 169.928C140.915 169.696 141.427 169.58 142.035 169.58V170.696C141.987 170.688 141.939 170.684 141.891 170.684C141.851 170.684 141.811 170.684 141.771 170.684C141.155 170.684 140.667 170.868 140.307 171.236C139.947 171.604 139.767 172.136 139.767 172.832V176H138.615ZM146.935 176V174.656L146.875 174.404V172.112C146.875 171.624 146.731 171.248 146.443 170.984C146.163 170.712 145.739 170.576 145.171 170.576C144.795 170.576 144.427 170.64 144.067 170.768C143.707 170.888 143.403 171.052 143.155 171.26L142.675 170.396C143.003 170.132 143.395 169.932 143.851 169.796C144.315 169.652 144.799 169.58 145.303 169.58C146.175 169.58 146.847 169.792 147.319 170.216C147.791 170.64 148.027 171.288 148.027 172.16V176H146.935ZM144.847 176.072C144.375 176.072 143.959 175.992 143.599 175.832C143.247 175.672 142.975 175.452 142.783 175.172C142.591 174.884 142.495 174.56 142.495 174.2C142.495 173.856 142.575 173.544 142.735 173.264C142.903 172.984 143.171 172.76 143.539 172.592C143.915 172.424 144.419 172.34 145.051 172.34H147.067V173.168H145.099C144.523 173.168 144.135 173.264 143.935 173.456C143.735 173.648 143.635 173.88 143.635 174.152C143.635 174.464 143.759 174.716 144.007 174.908C144.255 175.092 144.599 175.184 145.039 175.184C145.471 175.184 145.847 175.088 146.167 174.896C146.495 174.704 146.731 174.424 146.875 174.056L147.103 174.848C146.951 175.224 146.683 175.524 146.299 175.748C145.915 175.964 145.431 176.072 144.847 176.072ZM153.554 169.58C154.074 169.58 154.53 169.68 154.922 169.88C155.322 170.08 155.634 170.384 155.858 170.792C156.082 171.2 156.194 171.716 156.194 172.34V176H155.042V172.472C155.042 171.856 154.89 171.392 154.586 171.08C154.29 170.768 153.87 170.612 153.326 170.612C152.918 170.612 152.562 170.692 152.258 170.852C151.954 171.012 151.718 171.248 151.55 171.56C151.39 171.872 151.31 172.26 151.31 172.724V176H150.158V169.64H151.262V171.356L151.082 170.9C151.29 170.484 151.61 170.16 152.042 169.928C152.474 169.696 152.978 169.58 153.554 169.58ZM161.11 178.4C160.526 178.4 159.958 178.316 159.406 178.148C158.862 177.988 158.418 177.756 158.074 177.452L158.626 176.564C158.922 176.82 159.286 177.02 159.718 177.164C160.15 177.316 160.602 177.392 161.074 177.392C161.826 177.392 162.378 177.216 162.73 176.864C163.082 176.512 163.258 175.976 163.258 175.256V173.912L163.378 172.652L163.318 171.38V169.64H164.41V175.136C164.41 176.256 164.13 177.08 163.57 177.608C163.01 178.136 162.19 178.4 161.11 178.4ZM160.966 175.736C160.35 175.736 159.798 175.608 159.31 175.352C158.83 175.088 158.446 174.724 158.158 174.26C157.878 173.796 157.738 173.26 157.738 172.652C157.738 172.036 157.878 171.5 158.158 171.044C158.446 170.58 158.83 170.22 159.31 169.964C159.798 169.708 160.35 169.58 160.966 169.58C161.51 169.58 162.006 169.692 162.454 169.916C162.902 170.132 163.258 170.468 163.522 170.924C163.794 171.38 163.93 171.956 163.93 172.652C163.93 173.34 163.794 173.912 163.522 174.368C163.258 174.824 162.902 175.168 162.454 175.4C162.006 175.624 161.51 175.736 160.966 175.736ZM161.098 174.728C161.522 174.728 161.898 174.64 162.226 174.464C162.554 174.288 162.81 174.044 162.994 173.732C163.186 173.42 163.282 173.06 163.282 172.652C163.282 172.244 163.186 171.884 162.994 171.572C162.81 171.26 162.554 171.02 162.226 170.852C161.898 170.676 161.522 170.588 161.098 170.588C160.674 170.588 160.294 170.676 159.958 170.852C159.63 171.02 159.37 171.26 159.178 171.572C158.994 171.884 158.902 172.244 158.902 172.652C158.902 173.06 158.994 173.42 159.178 173.732C159.37 174.044 159.63 174.288 159.958 174.464C160.294 174.64 160.674 174.728 161.098 174.728ZM169.444 176.072C168.764 176.072 168.164 175.932 167.644 175.652C167.132 175.372 166.732 174.988 166.444 174.5C166.164 174.012 166.024 173.452 166.024 172.82C166.024 172.188 166.16 171.628 166.432 171.14C166.712 170.652 167.092 170.272 167.572 170C168.06 169.72 168.608 169.58 169.216 169.58C169.832 169.58 170.376 169.716 170.848 169.988C171.32 170.26 171.688 170.644 171.952 171.14C172.224 171.628 172.36 172.2 172.36 172.856C172.36 172.904 172.356 172.96 172.348 173.024C172.348 173.088 172.344 173.148 172.336 173.204H166.924V172.376H171.736L171.268 172.664C171.276 172.256 171.192 171.892 171.016 171.572C170.84 171.252 170.596 171.004 170.284 170.828C169.98 170.644 169.624 170.552 169.216 170.552C168.816 170.552 168.46 170.644 168.148 170.828C167.836 171.004 167.592 171.256 167.416 171.584C167.24 171.904 167.152 172.272 167.152 172.688V172.88C167.152 173.304 167.248 173.684 167.44 174.02C167.64 174.348 167.916 174.604 168.268 174.788C168.62 174.972 169.024 175.064 169.48 175.064C169.856 175.064 170.196 175 170.5 174.872C170.812 174.744 171.084 174.552 171.316 174.296L171.952 175.04C171.664 175.376 171.304 175.632 170.872 175.808C170.448 175.984 169.972 176.072 169.444 176.072ZM173.503 177.776L174.103 175.352L174.259 176.048C174.027 176.048 173.831 175.976 173.671 175.832C173.519 175.688 173.443 175.492 173.443 175.244C173.443 175.004 173.519 174.808 173.671 174.656C173.831 174.504 174.023 174.428 174.247 174.428C174.479 174.428 174.667 174.508 174.811 174.668C174.955 174.82 175.027 175.012 175.027 175.244C175.027 175.324 175.019 175.404 175.003 175.484C174.995 175.556 174.975 175.644 174.943 175.748C174.919 175.844 174.879 175.964 174.823 176.108L174.259 177.776H173.503ZM180.069 176V167.6H181.269V174.956H185.817V176H180.069ZM187.026 176V169.64H188.178V176H187.026ZM187.602 168.416C187.378 168.416 187.19 168.344 187.038 168.2C186.894 168.056 186.822 167.88 186.822 167.672C186.822 167.456 186.894 167.276 187.038 167.132C187.19 166.988 187.378 166.916 187.602 166.916C187.826 166.916 188.01 166.988 188.154 167.132C188.306 167.268 188.382 167.44 188.382 167.648C188.382 167.864 188.31 168.048 188.166 168.2C188.022 168.344 187.834 168.416 187.602 168.416ZM198.333 169.58C198.845 169.58 199.297 169.68 199.689 169.88C200.081 170.08 200.385 170.384 200.601 170.792C200.825 171.2 200.937 171.716 200.937 172.34V176H199.785V172.472C199.785 171.856 199.641 171.392 199.353 171.08C199.065 170.768 198.661 170.612 198.141 170.612C197.757 170.612 197.421 170.692 197.133 170.852C196.845 171.012 196.621 171.248 196.461 171.56C196.309 171.872 196.233 172.26 196.233 172.724V176H195.081V172.472C195.081 171.856 194.937 171.392 194.649 171.08C194.369 170.768 193.965 170.612 193.437 170.612C193.061 170.612 192.729 170.692 192.441 170.852C192.153 171.012 191.929 171.248 191.769 171.56C191.609 171.872 191.529 172.26 191.529 172.724V176H190.377V169.64H191.481V171.332L191.301 170.9C191.501 170.484 191.809 170.16 192.225 169.928C192.641 169.696 193.125 169.58 193.677 169.58C194.285 169.58 194.809 169.732 195.249 170.036C195.689 170.332 195.977 170.784 196.113 171.392L195.645 171.2C195.837 170.712 196.173 170.32 196.653 170.024C197.133 169.728 197.693 169.58 198.333 169.58ZM205.889 176.072C205.209 176.072 204.609 175.932 204.089 175.652C203.577 175.372 203.177 174.988 202.889 174.5C202.609 174.012 202.469 173.452 202.469 172.82C202.469 172.188 202.605 171.628 202.877 171.14C203.157 170.652 203.537 170.272 204.017 170C204.505 169.72 205.053 169.58 205.661 169.58C206.277 169.58 206.821 169.716 207.293 169.988C207.765 170.26 208.133 170.644 208.397 171.14C208.669 171.628 208.805 172.2 208.805 172.856C208.805 172.904 208.801 172.96 208.793 173.024C208.793 173.088 208.789 173.148 208.781 173.204H203.369V172.376H208.181L207.713 172.664C207.721 172.256 207.637 171.892 207.461 171.572C207.285 171.252 207.041 171.004 206.729 170.828C206.425 170.644 206.069 170.552 205.661 170.552C205.261 170.552 204.905 170.644 204.593 170.828C204.281 171.004 204.037 171.256 203.861 171.584C203.685 171.904 203.597 172.272 203.597 172.688V172.88C203.597 173.304 203.693 173.684 203.885 174.02C204.085 174.348 204.361 174.604 204.713 174.788C205.065 174.972 205.469 175.064 205.925 175.064C206.301 175.064 206.641 175 206.945 174.872C207.257 174.744 207.529 174.552 207.761 174.296L208.397 175.04C208.109 175.376 207.749 175.632 207.317 175.808C206.893 175.984 206.417 176.072 205.889 176.072ZM209.949 177.776L210.549 175.352L210.705 176.048C210.473 176.048 210.277 175.976 210.117 175.832C209.965 175.688 209.889 175.492 209.889 175.244C209.889 175.004 209.965 174.808 210.117 174.656C210.277 174.504 210.469 174.428 210.693 174.428C210.925 174.428 211.113 174.508 211.257 174.668C211.401 174.82 211.473 175.012 211.473 175.244C211.473 175.324 211.465 175.404 211.449 175.484C211.441 175.556 211.421 175.644 211.389 175.748C211.365 175.844 211.325 175.964 211.269 176.108L210.705 177.776H209.949ZM218.182 176V168.644H215.302V167.6H222.25V168.644H219.37V176H218.182ZM225.565 176.072C224.885 176.072 224.285 175.932 223.765 175.652C223.253 175.372 222.853 174.988 222.565 174.5C222.285 174.012 222.145 173.452 222.145 172.82C222.145 172.188 222.281 171.628 222.553 171.14C222.833 170.652 223.213 170.272 223.693 170C224.181 169.72 224.729 169.58 225.337 169.58C225.953 169.58 226.497 169.716 226.969 169.988C227.441 170.26 227.809 170.644 228.073 171.14C228.345 171.628 228.481 172.2 228.481 172.856C228.481 172.904 228.477 172.96 228.469 173.024C228.469 173.088 228.465 173.148 228.457 173.204H223.045V172.376H227.857L227.389 172.664C227.397 172.256 227.313 171.892 227.137 171.572C226.961 171.252 226.717 171.004 226.405 170.828C226.101 170.644 225.745 170.552 225.337 170.552C224.937 170.552 224.581 170.644 224.269 170.828C223.957 171.004 223.713 171.256 223.537 171.584C223.361 171.904 223.273 172.272 223.273 172.688V172.88C223.273 173.304 223.369 173.684 223.561 174.02C223.761 174.348 224.037 174.604 224.389 174.788C224.741 174.972 225.145 175.064 225.601 175.064C225.977 175.064 226.317 175 226.621 174.872C226.933 174.744 227.205 174.552 227.437 174.296L228.073 175.04C227.785 175.376 227.425 175.632 226.993 175.808C226.569 175.984 226.093 176.072 225.565 176.072ZM233.853 176V174.656L233.793 174.404V172.112C233.793 171.624 233.649 171.248 233.361 170.984C233.081 170.712 232.657 170.576 232.089 170.576C231.713 170.576 231.345 170.64 230.985 170.768C230.625 170.888 230.321 171.052 230.073 171.26L229.593 170.396C229.921 170.132 230.313 169.932 230.769 169.796C231.233 169.652 231.717 169.58 232.221 169.58C233.093 169.58 233.765 169.792 234.237 170.216C234.709 170.64 234.945 171.288 234.945 172.16V176H233.853ZM231.765 176.072C231.293 176.072 230.877 175.992 230.517 175.832C230.165 175.672 229.893 175.452 229.701 175.172C229.509 174.884 229.413 174.56 229.413 174.2C229.413 173.856 229.493 173.544 229.653 173.264C229.821 172.984 230.089 172.76 230.457 172.592C230.833 172.424 231.337 172.34 231.969 172.34H233.985V173.168H232.017C231.441 173.168 231.053 173.264 230.853 173.456C230.653 173.648 230.553 173.88 230.553 174.152C230.553 174.464 230.677 174.716 230.925 174.908C231.173 175.092 231.517 175.184 231.957 175.184C232.389 175.184 232.765 175.088 233.085 174.896C233.413 174.704 233.649 174.424 233.793 174.056L234.021 174.848C233.869 175.224 233.601 175.524 233.217 175.748C232.833 175.964 232.349 176.072 231.765 176.072ZM242.135 176V168.644H239.255V167.6H246.203V168.644H243.323V176H242.135ZM247.19 176V169.64H248.294V171.368L248.186 170.936C248.362 170.496 248.658 170.16 249.074 169.928C249.49 169.696 250.002 169.58 250.61 169.58V170.696C250.562 170.688 250.514 170.684 250.466 170.684C250.426 170.684 250.386 170.684 250.346 170.684C249.73 170.684 249.242 170.868 248.882 171.236C248.522 171.604 248.342 172.136 248.342 172.832V176H247.19ZM254.803 176.072C254.123 176.072 253.523 175.932 253.003 175.652C252.491 175.372 252.091 174.988 251.803 174.5C251.523 174.012 251.383 173.452 251.383 172.82C251.383 172.188 251.519 171.628 251.791 171.14C252.071 170.652 252.451 170.272 252.931 170C253.419 169.72 253.967 169.58 254.575 169.58C255.191 169.58 255.735 169.716 256.207 169.988C256.679 170.26 257.047 170.644 257.311 171.14C257.583 171.628 257.719 172.2 257.719 172.856C257.719 172.904 257.715 172.96 257.707 173.024C257.707 173.088 257.703 173.148 257.695 173.204H252.283V172.376H257.095L256.627 172.664C256.635 172.256 256.551 171.892 256.375 171.572C256.199 171.252 255.955 171.004 255.643 170.828C255.339 170.644 254.983 170.552 254.575 170.552C254.175 170.552 253.819 170.644 253.507 170.828C253.195 171.004 252.951 171.256 252.775 171.584C252.599 171.904 252.511 172.272 252.511 172.688V172.88C252.511 173.304 252.607 173.684 252.799 174.02C252.999 174.348 253.275 174.604 253.627 174.788C253.979 174.972 254.383 175.064 254.839 175.064C255.215 175.064 255.555 175 255.859 174.872C256.171 174.744 256.443 174.552 256.675 174.296L257.311 175.04C257.023 175.376 256.663 175.632 256.231 175.808C255.807 175.984 255.331 176.072 254.803 176.072ZM262.151 176.072C261.471 176.072 260.871 175.932 260.351 175.652C259.839 175.372 259.439 174.988 259.151 174.5C258.871 174.012 258.731 173.452 258.731 172.82C258.731 172.188 258.867 171.628 259.139 171.14C259.419 170.652 259.799 170.272 260.279 170C260.767 169.72 261.315 169.58 261.923 169.58C262.539 169.58 263.083 169.716 263.555 169.988C264.027 170.26 264.395 170.644 264.659 171.14C264.931 171.628 265.067 172.2 265.067 172.856C265.067 172.904 265.063 172.96 265.055 173.024C265.055 173.088 265.051 173.148 265.043 173.204H259.631V172.376H264.443L263.975 172.664C263.983 172.256 263.899 171.892 263.723 171.572C263.547 171.252 263.303 171.004 262.991 170.828C262.687 170.644 262.331 170.552 261.923 170.552C261.523 170.552 261.167 170.644 260.855 170.828C260.543 171.004 260.299 171.256 260.123 171.584C259.947 171.904 259.859 172.272 259.859 172.688V172.88C259.859 173.304 259.955 173.684 260.147 174.02C260.347 174.348 260.623 174.604 260.975 174.788C261.327 174.972 261.731 175.064 262.187 175.064C262.563 175.064 262.903 175 263.207 174.872C263.519 174.744 263.791 174.552 264.023 174.296L264.659 175.04C264.371 175.376 264.011 175.632 263.579 175.808C263.155 175.984 262.679 176.072 262.151 176.072ZM141.432 201V192.6H144.708C145.444 192.6 146.072 192.716 146.592 192.948C147.112 193.18 147.512 193.516 147.792 193.956C148.072 194.396 148.212 194.92 148.212 195.528C148.212 196.136 148.072 196.66 147.792 197.1C147.512 197.532 147.112 197.868 146.592 198.108C146.072 198.34 145.444 198.456 144.708 198.456H142.092L142.632 197.892V201H141.432ZM142.632 198.012L142.092 197.412H144.672C145.44 197.412 146.02 197.248 146.412 196.92C146.812 196.592 147.012 196.128 147.012 195.528C147.012 194.928 146.812 194.464 146.412 194.136C146.02 193.808 145.44 193.644 144.672 193.644H142.092L142.632 193.044V198.012ZM152.615 201.072C151.935 201.072 151.335 200.932 150.815 200.652C150.303 200.372 149.903 199.988 149.615 199.5C149.335 199.012 149.195 198.452 149.195 197.82C149.195 197.188 149.331 196.628 149.603 196.14C149.883 195.652 150.263 195.272 150.743 195C151.231 194.72 151.779 194.58 152.387 194.58C153.003 194.58 153.547 194.716 154.019 194.988C154.491 195.26 154.859 195.644 155.123 196.14C155.395 196.628 155.531 197.2 155.531 197.856C155.531 197.904 155.527 197.96 155.519 198.024C155.519 198.088 155.515 198.148 155.507 198.204H150.095V197.376H154.907L154.439 197.664C154.447 197.256 154.363 196.892 154.187 196.572C154.011 196.252 153.767 196.004 153.455 195.828C153.151 195.644 152.795 195.552 152.387 195.552C151.987 195.552 151.631 195.644 151.319 195.828C151.007 196.004 150.763 196.256 150.587 196.584C150.411 196.904 150.323 197.272 150.323 197.688V197.88C150.323 198.304 150.419 198.684 150.611 199.02C150.811 199.348 151.087 199.604 151.439 199.788C151.791 199.972 152.195 200.064 152.651 200.064C153.027 200.064 153.367 200 153.671 199.872C153.983 199.744 154.255 199.552 154.487 199.296L155.123 200.04C154.835 200.376 154.475 200.632 154.043 200.808C153.619 200.984 153.143 201.072 152.615 201.072ZM160.903 201V199.656L160.843 199.404V197.112C160.843 196.624 160.699 196.248 160.411 195.984C160.131 195.712 159.707 195.576 159.139 195.576C158.763 195.576 158.395 195.64 158.035 195.768C157.675 195.888 157.371 196.052 157.123 196.26L156.643 195.396C156.971 195.132 157.363 194.932 157.819 194.796C158.283 194.652 158.767 194.58 159.271 194.58C160.143 194.58 160.815 194.792 161.287 195.216C161.759 195.64 161.995 196.288 161.995 197.16V201H160.903ZM158.815 201.072C158.343 201.072 157.927 200.992 157.567 200.832C157.215 200.672 156.943 200.452 156.751 200.172C156.559 199.884 156.463 199.56 156.463 199.2C156.463 198.856 156.543 198.544 156.703 198.264C156.871 197.984 157.139 197.76 157.507 197.592C157.883 197.424 158.387 197.34 159.019 197.34H161.035V198.168H159.067C158.491 198.168 158.103 198.264 157.903 198.456C157.703 198.648 157.603 198.88 157.603 199.152C157.603 199.464 157.727 199.716 157.975 199.908C158.223 200.092 158.567 200.184 159.007 200.184C159.439 200.184 159.815 200.088 160.135 199.896C160.463 199.704 160.699 199.424 160.843 199.056L161.071 199.848C160.919 200.224 160.651 200.524 160.267 200.748C159.883 200.964 159.399 201.072 158.815 201.072ZM166.899 201.072C166.251 201.072 165.671 200.932 165.159 200.652C164.655 200.372 164.259 199.988 163.971 199.5C163.683 199.012 163.539 198.452 163.539 197.82C163.539 197.188 163.683 196.628 163.971 196.14C164.259 195.652 164.655 195.272 165.159 195C165.671 194.72 166.251 194.58 166.899 194.58C167.475 194.58 167.987 194.696 168.435 194.928C168.891 195.152 169.243 195.488 169.491 195.936L168.615 196.5C168.407 196.188 168.151 195.96 167.847 195.816C167.551 195.664 167.231 195.588 166.887 195.588C166.471 195.588 166.099 195.68 165.771 195.864C165.443 196.048 165.183 196.308 164.991 196.644C164.799 196.972 164.703 197.364 164.703 197.82C164.703 198.276 164.799 198.672 164.991 199.008C165.183 199.344 165.443 199.604 165.771 199.788C166.099 199.972 166.471 200.064 166.887 200.064C167.231 200.064 167.551 199.992 167.847 199.848C168.151 199.696 168.407 199.464 168.615 199.152L169.491 199.704C169.243 200.144 168.891 200.484 168.435 200.724C167.987 200.956 167.475 201.072 166.899 201.072ZM174.297 194.58C174.817 194.58 175.273 194.68 175.665 194.88C176.065 195.08 176.377 195.384 176.601 195.792C176.825 196.2 176.937 196.716 176.937 197.34V201H175.785V197.472C175.785 196.856 175.633 196.392 175.329 196.08C175.033 195.768 174.613 195.612 174.069 195.612C173.661 195.612 173.305 195.692 173.001 195.852C172.697 196.012 172.461 196.248 172.293 196.56C172.133 196.872 172.053 197.26 172.053 197.724V201H170.901V192.096H172.053V196.356L171.825 195.9C172.033 195.484 172.353 195.16 172.785 194.928C173.217 194.696 173.721 194.58 174.297 194.58ZM177.641 202.2L181.601 190.896H182.645L178.685 202.2H177.641ZM181.703 201L185.507 192.6H186.695L190.511 201H189.251L185.855 193.272H186.335L182.939 201H181.703ZM183.323 198.9L183.647 197.94H188.375L188.723 198.9H183.323ZM194.968 201.072C194.44 201.072 193.956 200.952 193.516 200.712C193.084 200.464 192.736 200.1 192.472 199.62C192.216 199.14 192.088 198.54 192.088 197.82C192.088 197.1 192.212 196.5 192.46 196.02C192.716 195.54 193.06 195.18 193.492 194.94C193.932 194.7 194.424 194.58 194.968 194.58C195.592 194.58 196.144 194.716 196.624 194.988C197.104 195.26 197.484 195.64 197.764 196.128C198.044 196.608 198.184 197.172 198.184 197.82C198.184 198.468 198.044 199.036 197.764 199.524C197.484 200.012 197.104 200.392 196.624 200.664C196.144 200.936 195.592 201.072 194.968 201.072ZM191.596 203.328V194.64H192.7V196.356L192.628 197.832L192.748 199.308V203.328H191.596ZM194.872 200.064C195.28 200.064 195.644 199.972 195.964 199.788C196.292 199.604 196.548 199.344 196.732 199.008C196.924 198.664 197.02 198.268 197.02 197.82C197.02 197.364 196.924 196.972 196.732 196.644C196.548 196.308 196.292 196.048 195.964 195.864C195.644 195.68 195.28 195.588 194.872 195.588C194.472 195.588 194.108 195.68 193.78 195.864C193.46 196.048 193.204 196.308 193.012 196.644C192.828 196.972 192.736 197.364 192.736 197.82C192.736 198.268 192.828 198.664 193.012 199.008C193.204 199.344 193.46 199.604 193.78 199.788C194.108 199.972 194.472 200.064 194.872 200.064ZM199.776 201V194.64H200.88V196.368L200.772 195.936C200.948 195.496 201.244 195.16 201.66 194.928C202.076 194.696 202.588 194.58 203.196 194.58V195.696C203.148 195.688 203.1 195.684 203.052 195.684C203.012 195.684 202.972 195.684 202.932 195.684C202.316 195.684 201.828 195.868 201.468 196.236C201.108 196.604 200.928 197.136 200.928 197.832V201H199.776ZM204.615 201V194.64H205.767V201H204.615ZM205.191 193.416C204.967 193.416 204.779 193.344 204.627 193.2C204.483 193.056 204.411 192.88 204.411 192.672C204.411 192.456 204.483 192.276 204.627 192.132C204.779 191.988 204.967 191.916 205.191 191.916C205.415 191.916 205.599 191.988 205.743 192.132C205.895 192.268 205.971 192.44 205.971 192.648C205.971 192.864 205.899 193.048 205.755 193.2C205.611 193.344 205.423 193.416 205.191 193.416ZM210.739 201.072C210.091 201.072 209.511 200.932 208.999 200.652C208.495 200.372 208.099 199.988 207.811 199.5C207.523 199.012 207.379 198.452 207.379 197.82C207.379 197.188 207.523 196.628 207.811 196.14C208.099 195.652 208.495 195.272 208.999 195C209.511 194.72 210.091 194.58 210.739 194.58C211.315 194.58 211.827 194.696 212.275 194.928C212.731 195.152 213.083 195.488 213.331 195.936L212.455 196.5C212.247 196.188 211.991 195.96 211.687 195.816C211.391 195.664 211.071 195.588 210.727 195.588C210.311 195.588 209.939 195.68 209.611 195.864C209.283 196.048 209.023 196.308 208.831 196.644C208.639 196.972 208.543 197.364 208.543 197.82C208.543 198.276 208.639 198.672 208.831 199.008C209.023 199.344 209.283 199.604 209.611 199.788C209.939 199.972 210.311 200.064 210.727 200.064C211.071 200.064 211.391 199.992 211.687 199.848C211.991 199.696 212.247 199.464 212.455 199.152L213.331 199.704C213.083 200.144 212.731 200.484 212.275 200.724C211.827 200.956 211.315 201.072 210.739 201.072ZM217.453 201.072C216.813 201.072 216.245 200.932 215.749 200.652C215.253 200.372 214.861 199.988 214.573 199.5C214.285 199.004 214.141 198.444 214.141 197.82C214.141 197.188 214.285 196.628 214.573 196.14C214.861 195.652 215.253 195.272 215.749 195C216.245 194.72 216.813 194.58 217.453 194.58C218.085 194.58 218.649 194.72 219.145 195C219.649 195.272 220.041 195.652 220.321 196.14C220.609 196.62 220.753 197.18 220.753 197.82C220.753 198.452 220.609 199.012 220.321 199.5C220.041 199.988 219.649 200.372 219.145 200.652C218.649 200.932 218.085 201.072 217.453 201.072ZM217.453 200.064C217.861 200.064 218.225 199.972 218.545 199.788C218.873 199.604 219.129 199.344 219.313 199.008C219.497 198.664 219.589 198.268 219.589 197.82C219.589 197.364 219.497 196.972 219.313 196.644C219.129 196.308 218.873 196.048 218.545 195.864C218.225 195.68 217.861 195.588 217.453 195.588C217.045 195.588 216.681 195.68 216.361 195.864C216.041 196.048 215.785 196.308 215.593 196.644C215.401 196.972 215.305 197.364 215.305 197.82C215.305 198.268 215.401 198.664 215.593 199.008C215.785 199.344 216.041 199.604 216.361 199.788C216.681 199.972 217.045 200.064 217.453 200.064ZM224.53 201.072C223.89 201.072 223.394 200.9 223.042 200.556C222.69 200.212 222.514 199.72 222.514 199.08V193.248H223.666V199.032C223.666 199.376 223.75 199.64 223.918 199.824C224.094 200.008 224.342 200.1 224.662 200.1C225.022 200.1 225.322 200 225.562 199.8L225.922 200.628C225.746 200.78 225.534 200.892 225.286 200.964C225.046 201.036 224.794 201.072 224.53 201.072ZM221.434 195.588V194.64H225.49V195.588H221.434ZM226.976 202.776L227.576 200.352L227.732 201.048C227.5 201.048 227.304 200.976 227.144 200.832C226.992 200.688 226.916 200.492 226.916 200.244C226.916 200.004 226.992 199.808 227.144 199.656C227.304 199.504 227.496 199.428 227.72 199.428C227.952 199.428 228.14 199.508 228.284 199.668C228.428 199.82 228.5 200.012 228.5 200.244C228.5 200.324 228.492 200.404 228.476 200.484C228.468 200.556 228.448 200.644 228.416 200.748C228.392 200.844 228.352 200.964 228.296 201.108L227.732 202.776H226.976ZM100.323 226V217.6H103.599C104.335 217.6 104.963 217.716 105.483 217.948C106.003 218.18 106.403 218.516 106.683 218.956C106.963 219.396 107.103 219.92 107.103 220.528C107.103 221.136 106.963 221.66 106.683 222.1C106.403 222.532 106.003 222.868 105.483 223.108C104.963 223.34 104.335 223.456 103.599 223.456H100.983L101.523 222.892V226H100.323ZM101.523 223.012L100.983 222.412H103.563C104.331 222.412 104.911 222.248 105.303 221.92C105.703 221.592 105.903 221.128 105.903 220.528C105.903 219.928 105.703 219.464 105.303 219.136C104.911 218.808 104.331 218.644 103.563 218.644H100.983L101.523 218.044V223.012ZM112.587 226V224.656L112.527 224.404V222.112C112.527 221.624 112.383 221.248 112.095 220.984C111.815 220.712 111.391 220.576 110.823 220.576C110.447 220.576 110.079 220.64 109.719 220.768C109.359 220.888 109.055 221.052 108.807 221.26L108.327 220.396C108.655 220.132 109.047 219.932 109.503 219.796C109.967 219.652 110.451 219.58 110.955 219.58C111.827 219.58 112.499 219.792 112.971 220.216C113.443 220.64 113.679 221.288 113.679 222.16V226H112.587ZM110.499 226.072C110.027 226.072 109.611 225.992 109.251 225.832C108.899 225.672 108.627 225.452 108.435 225.172C108.243 224.884 108.147 224.56 108.147 224.2C108.147 223.856 108.227 223.544 108.387 223.264C108.555 222.984 108.823 222.76 109.191 222.592C109.567 222.424 110.071 222.34 110.703 222.34H112.719V223.168H110.751C110.175 223.168 109.787 223.264 109.587 223.456C109.387 223.648 109.287 223.88 109.287 224.152C109.287 224.464 109.411 224.716 109.659 224.908C109.907 225.092 110.251 225.184 110.691 225.184C111.123 225.184 111.499 225.088 111.819 224.896C112.147 224.704 112.383 224.424 112.527 224.056L112.755 224.848C112.603 225.224 112.335 225.524 111.951 225.748C111.567 225.964 111.083 226.072 110.499 226.072ZM117.635 226.072C117.107 226.072 116.603 226 116.123 225.856C115.651 225.712 115.279 225.536 115.007 225.328L115.487 224.416C115.759 224.6 116.095 224.756 116.495 224.884C116.895 225.012 117.303 225.076 117.719 225.076C118.255 225.076 118.639 225 118.871 224.848C119.111 224.696 119.231 224.484 119.231 224.212C119.231 224.012 119.159 223.856 119.015 223.744C118.871 223.632 118.679 223.548 118.439 223.492C118.207 223.436 117.947 223.388 117.659 223.348C117.371 223.3 117.083 223.244 116.795 223.18C116.507 223.108 116.243 223.012 116.003 222.892C115.763 222.764 115.571 222.592 115.427 222.376C115.283 222.152 115.211 221.856 115.211 221.488C115.211 221.104 115.319 220.768 115.535 220.48C115.751 220.192 116.055 219.972 116.447 219.82C116.847 219.66 117.319 219.58 117.863 219.58C118.279 219.58 118.699 219.632 119.123 219.736C119.555 219.832 119.907 219.972 120.179 220.156L119.687 221.068C119.399 220.876 119.099 220.744 118.787 220.672C118.475 220.6 118.163 220.564 117.851 220.564C117.347 220.564 116.971 220.648 116.723 220.816C116.475 220.976 116.351 221.184 116.351 221.44C116.351 221.656 116.423 221.824 116.567 221.944C116.719 222.056 116.911 222.144 117.143 222.208C117.383 222.272 117.647 222.328 117.935 222.376C118.223 222.416 118.511 222.472 118.799 222.544C119.087 222.608 119.347 222.7 119.579 222.82C119.819 222.94 120.011 223.108 120.155 223.324C120.307 223.54 120.383 223.828 120.383 224.188C120.383 224.572 120.271 224.904 120.047 225.184C119.823 225.464 119.507 225.684 119.099 225.844C118.691 225.996 118.203 226.072 117.635 226.072ZM123.646 226.072C123.118 226.072 122.614 226 122.134 225.856C121.662 225.712 121.29 225.536 121.018 225.328L121.498 224.416C121.77 224.6 122.106 224.756 122.506 224.884C122.906 225.012 123.314 225.076 123.73 225.076C124.266 225.076 124.65 225 124.882 224.848C125.122 224.696 125.242 224.484 125.242 224.212C125.242 224.012 125.17 223.856 125.026 223.744C124.882 223.632 124.69 223.548 124.45 223.492C124.218 223.436 123.958 223.388 123.67 223.348C123.382 223.3 123.094 223.244 122.806 223.18C122.518 223.108 122.254 223.012 122.014 222.892C121.774 222.764 121.582 222.592 121.438 222.376C121.294 222.152 121.222 221.856 121.222 221.488C121.222 221.104 121.33 220.768 121.546 220.48C121.762 220.192 122.066 219.972 122.458 219.82C122.858 219.66 123.33 219.58 123.874 219.58C124.29 219.58 124.71 219.632 125.134 219.736C125.566 219.832 125.918 219.972 126.19 220.156L125.698 221.068C125.41 220.876 125.11 220.744 124.798 220.672C124.486 220.6 124.174 220.564 123.862 220.564C123.358 220.564 122.982 220.648 122.734 220.816C122.486 220.976 122.362 221.184 122.362 221.44C122.362 221.656 122.434 221.824 122.578 221.944C122.73 222.056 122.922 222.144 123.154 222.208C123.394 222.272 123.658 222.328 123.946 222.376C124.234 222.416 124.522 222.472 124.81 222.544C125.098 222.608 125.358 222.7 125.59 222.82C125.83 222.94 126.022 223.108 126.166 223.324C126.318 223.54 126.394 223.828 126.394 224.188C126.394 224.572 126.282 224.904 126.058 225.184C125.834 225.464 125.518 225.684 125.11 225.844C124.702 225.996 124.214 226.072 123.646 226.072ZM127.834 226V219.64H128.986V226H127.834ZM128.41 218.416C128.186 218.416 127.998 218.344 127.846 218.2C127.702 218.056 127.63 217.88 127.63 217.672C127.63 217.456 127.702 217.276 127.846 217.132C127.998 216.988 128.186 216.916 128.41 216.916C128.634 216.916 128.818 216.988 128.962 217.132C129.114 217.268 129.19 217.44 129.19 217.648C129.19 217.864 129.118 218.048 128.974 218.2C128.83 218.344 128.642 218.416 128.41 218.416ZM133.91 226.072C133.27 226.072 132.702 225.932 132.206 225.652C131.71 225.372 131.318 224.988 131.03 224.5C130.742 224.004 130.598 223.444 130.598 222.82C130.598 222.188 130.742 221.628 131.03 221.14C131.318 220.652 131.71 220.272 132.206 220C132.702 219.72 133.27 219.58 133.91 219.58C134.542 219.58 135.106 219.72 135.602 220C136.106 220.272 136.498 220.652 136.778 221.14C137.066 221.62 137.21 222.18 137.21 222.82C137.21 223.452 137.066 224.012 136.778 224.5C136.498 224.988 136.106 225.372 135.602 225.652C135.106 225.932 134.542 226.072 133.91 226.072ZM133.91 225.064C134.318 225.064 134.682 224.972 135.002 224.788C135.33 224.604 135.586 224.344 135.77 224.008C135.954 223.664 136.046 223.268 136.046 222.82C136.046 222.364 135.954 221.972 135.77 221.644C135.586 221.308 135.33 221.048 135.002 220.864C134.682 220.68 134.318 220.588 133.91 220.588C133.502 220.588 133.138 220.68 132.818 220.864C132.498 221.048 132.242 221.308 132.05 221.644C131.858 221.972 131.762 222.364 131.762 222.82C131.762 223.268 131.858 223.664 132.05 224.008C132.242 224.344 132.498 224.604 132.818 224.788C133.138 224.972 133.502 225.064 133.91 225.064ZM142.199 219.58C142.719 219.58 143.175 219.68 143.567 219.88C143.967 220.08 144.279 220.384 144.503 220.792C144.727 221.2 144.839 221.716 144.839 222.34V226H143.687V222.472C143.687 221.856 143.535 221.392 143.231 221.08C142.935 220.768 142.515 220.612 141.971 220.612C141.563 220.612 141.207 220.692 140.903 220.852C140.599 221.012 140.363 221.248 140.195 221.56C140.035 221.872 139.955 222.26 139.955 222.724V226H138.803V219.64H139.907V221.356L139.727 220.9C139.935 220.484 140.255 220.16 140.687 219.928C141.119 219.696 141.623 219.58 142.199 219.58ZM151.442 221.572H155.774V222.604H151.442V221.572ZM151.562 226H150.362V217.6H156.29V218.644H151.562V226ZM157.694 226V219.64H158.798V221.368L158.69 220.936C158.866 220.496 159.162 220.16 159.578 219.928C159.994 219.696 160.506 219.58 161.114 219.58V220.696C161.066 220.688 161.018 220.684 160.97 220.684C160.93 220.684 160.89 220.684 160.85 220.684C160.234 220.684 159.746 220.868 159.386 221.236C159.026 221.604 158.846 222.136 158.846 222.832V226H157.694ZM165.291 226.072C164.747 226.072 164.267 225.972 163.851 225.772C163.443 225.572 163.123 225.268 162.891 224.86C162.667 224.444 162.555 223.924 162.555 223.3V219.64H163.707V223.168C163.707 223.792 163.855 224.26 164.151 224.572C164.455 224.884 164.879 225.04 165.423 225.04C165.823 225.04 166.171 224.96 166.467 224.8C166.763 224.632 166.991 224.392 167.151 224.08C167.311 223.76 167.391 223.376 167.391 222.928V219.64H168.543V226H167.451V224.284L167.631 224.74C167.423 225.164 167.111 225.492 166.695 225.724C166.279 225.956 165.811 226.072 165.291 226.072ZM170.737 226V219.64H171.889V226H170.737ZM171.313 218.416C171.089 218.416 170.901 218.344 170.749 218.2C170.605 218.056 170.533 217.88 170.533 217.672C170.533 217.456 170.605 217.276 170.749 217.132C170.901 216.988 171.089 216.916 171.313 216.916C171.537 216.916 171.721 216.988 171.865 217.132C172.017 217.268 172.093 217.44 172.093 217.648C172.093 217.864 172.021 218.048 171.877 218.2C171.733 218.344 171.545 218.416 171.313 218.416ZM176.272 226.072C175.632 226.072 175.136 225.9 174.784 225.556C174.432 225.212 174.256 224.72 174.256 224.08V218.248H175.408V224.032C175.408 224.376 175.492 224.64 175.66 224.824C175.836 225.008 176.084 225.1 176.404 225.1C176.764 225.1 177.064 225 177.304 224.8L177.664 225.628C177.488 225.78 177.276 225.892 177.028 225.964C176.788 226.036 176.536 226.072 176.272 226.072ZM173.176 220.588V219.64H177.232V220.588H173.176ZM178.718 227.776L179.318 225.352L179.474 226.048C179.242 226.048 179.046 225.976 178.886 225.832C178.734 225.688 178.658 225.492 178.658 225.244C178.658 225.004 178.734 224.808 178.886 224.656C179.046 224.504 179.238 224.428 179.462 224.428C179.694 224.428 179.882 224.508 180.026 224.668C180.17 224.82 180.242 225.012 180.242 225.244C180.242 225.324 180.234 225.404 180.218 225.484C180.21 225.556 180.19 225.644 180.158 225.748C180.134 225.844 180.094 225.964 180.038 226.108L179.474 227.776H178.718ZM189.075 226.096C188.427 226.096 187.831 225.992 187.287 225.784C186.743 225.568 186.271 225.268 185.871 224.884C185.471 224.492 185.159 224.036 184.935 223.516C184.711 222.996 184.599 222.424 184.599 221.8C184.599 221.176 184.711 220.604 184.935 220.084C185.159 219.564 185.471 219.112 185.871 218.728C186.279 218.336 186.755 218.036 187.299 217.828C187.843 217.612 188.443 217.504 189.099 217.504C189.763 217.504 190.371 217.612 190.923 217.828C191.475 218.044 191.943 218.368 192.327 218.8L191.583 219.544C191.239 219.208 190.863 218.964 190.455 218.812C190.055 218.652 189.619 218.572 189.147 218.572C188.667 218.572 188.219 218.652 187.803 218.812C187.395 218.972 187.039 219.196 186.735 219.484C186.439 219.772 186.207 220.116 186.039 220.516C185.879 220.908 185.799 221.336 185.799 221.8C185.799 222.256 185.879 222.684 186.039 223.084C186.207 223.476 186.439 223.82 186.735 224.116C187.039 224.404 187.395 224.628 187.803 224.788C188.211 224.948 188.655 225.028 189.135 225.028C189.583 225.028 190.011 224.96 190.419 224.824C190.835 224.68 191.219 224.444 191.571 224.116L192.255 225.028C191.839 225.38 191.351 225.648 190.791 225.832C190.239 226.008 189.667 226.096 189.075 226.096ZM191.103 224.872V221.752H192.255V225.028L191.103 224.872ZM194.385 226V219.64H195.489V221.368L195.381 220.936C195.557 220.496 195.853 220.16 196.269 219.928C196.685 219.696 197.197 219.58 197.805 219.58V220.696C197.757 220.688 197.709 220.684 197.661 220.684C197.621 220.684 197.581 220.684 197.541 220.684C196.925 220.684 196.437 220.868 196.077 221.236C195.717 221.604 195.537 222.136 195.537 222.832V226H194.385ZM201.998 226.072C201.318 226.072 200.718 225.932 200.198 225.652C199.686 225.372 199.286 224.988 198.998 224.5C198.718 224.012 198.578 223.452 198.578 222.82C198.578 222.188 198.714 221.628 198.986 221.14C199.266 220.652 199.646 220.272 200.126 220C200.614 219.72 201.162 219.58 201.77 219.58C202.386 219.58 202.93 219.716 203.402 219.988C203.874 220.26 204.242 220.644 204.506 221.14C204.778 221.628 204.914 222.2 204.914 222.856C204.914 222.904 204.91 222.96 204.902 223.024C204.902 223.088 204.898 223.148 204.89 223.204H199.478V222.376H204.29L203.822 222.664C203.83 222.256 203.746 221.892 203.57 221.572C203.394 221.252 203.15 221.004 202.838 220.828C202.534 220.644 202.178 220.552 201.77 220.552C201.37 220.552 201.014 220.644 200.702 220.828C200.39 221.004 200.146 221.256 199.97 221.584C199.794 221.904 199.706 222.272 199.706 222.688V222.88C199.706 223.304 199.802 223.684 199.994 224.02C200.194 224.348 200.47 224.604 200.822 224.788C201.174 224.972 201.578 225.064 202.034 225.064C202.41 225.064 202.75 225 203.054 224.872C203.366 224.744 203.638 224.552 203.87 224.296L204.506 225.04C204.218 225.376 203.858 225.632 203.426 225.808C203.002 225.984 202.526 226.072 201.998 226.072ZM209.346 226.072C208.666 226.072 208.066 225.932 207.546 225.652C207.034 225.372 206.634 224.988 206.346 224.5C206.066 224.012 205.926 223.452 205.926 222.82C205.926 222.188 206.062 221.628 206.334 221.14C206.614 220.652 206.994 220.272 207.474 220C207.962 219.72 208.51 219.58 209.118 219.58C209.734 219.58 210.278 219.716 210.75 219.988C211.222 220.26 211.59 220.644 211.854 221.14C212.126 221.628 212.262 222.2 212.262 222.856C212.262 222.904 212.258 222.96 212.25 223.024C212.25 223.088 212.246 223.148 212.238 223.204H206.826V222.376H211.638L211.17 222.664C211.178 222.256 211.094 221.892 210.918 221.572C210.742 221.252 210.498 221.004 210.186 220.828C209.882 220.644 209.526 220.552 209.118 220.552C208.718 220.552 208.362 220.644 208.05 220.828C207.738 221.004 207.494 221.256 207.318 221.584C207.142 221.904 207.054 222.272 207.054 222.688V222.88C207.054 223.304 207.15 223.684 207.342 224.02C207.542 224.348 207.818 224.604 208.17 224.788C208.522 224.972 208.926 225.064 209.382 225.064C209.758 225.064 210.098 225 210.402 224.872C210.714 224.744 210.986 224.552 211.218 224.296L211.854 225.04C211.566 225.376 211.206 225.632 210.774 225.808C210.35 225.984 209.874 226.072 209.346 226.072ZM217.258 219.58C217.778 219.58 218.234 219.68 218.626 219.88C219.026 220.08 219.338 220.384 219.562 220.792C219.786 221.2 219.898 221.716 219.898 222.34V226H218.746V222.472C218.746 221.856 218.594 221.392 218.29 221.08C217.994 220.768 217.574 220.612 217.03 220.612C216.622 220.612 216.266 220.692 215.962 220.852C215.658 221.012 215.422 221.248 215.254 221.56C215.094 221.872 215.014 222.26 215.014 222.724V226H213.862V219.64H214.966V221.356L214.786 220.9C214.994 220.484 215.314 220.16 215.746 219.928C216.178 219.696 216.682 219.58 217.258 219.58ZM134.131 251V242.6H137.407C138.143 242.6 138.771 242.716 139.291 242.948C139.811 243.18 140.211 243.516 140.491 243.956C140.771 244.396 140.911 244.92 140.911 245.528C140.911 246.136 140.771 246.66 140.491 247.1C140.211 247.532 139.811 247.868 139.291 248.108C138.771 248.34 138.143 248.456 137.407 248.456H134.791L135.331 247.892V251H134.131ZM135.331 248.012L134.791 247.412H137.371C138.139 247.412 138.719 247.248 139.111 246.92C139.511 246.592 139.711 246.128 139.711 245.528C139.711 244.928 139.511 244.464 139.111 244.136C138.719 243.808 138.139 243.644 137.371 243.644H134.791L135.331 243.044V248.012ZM145.315 251.072C144.635 251.072 144.035 250.932 143.515 250.652C143.003 250.372 142.603 249.988 142.315 249.5C142.035 249.012 141.895 248.452 141.895 247.82C141.895 247.188 142.031 246.628 142.303 246.14C142.583 245.652 142.963 245.272 143.443 245C143.931 244.72 144.479 244.58 145.087 244.58C145.703 244.58 146.247 244.716 146.719 244.988C147.191 245.26 147.559 245.644 147.823 246.14C148.095 246.628 148.231 247.2 148.231 247.856C148.231 247.904 148.227 247.96 148.219 248.024C148.219 248.088 148.215 248.148 148.207 248.204H142.795V247.376H147.607L147.139 247.664C147.147 247.256 147.063 246.892 146.887 246.572C146.711 246.252 146.467 246.004 146.155 245.828C145.851 245.644 145.495 245.552 145.087 245.552C144.687 245.552 144.331 245.644 144.019 245.828C143.707 246.004 143.463 246.256 143.287 246.584C143.111 246.904 143.023 247.272 143.023 247.688V247.88C143.023 248.304 143.119 248.684 143.311 249.02C143.511 249.348 143.787 249.604 144.139 249.788C144.491 249.972 144.895 250.064 145.351 250.064C145.727 250.064 146.067 250 146.371 249.872C146.683 249.744 146.955 249.552 147.187 249.296L147.823 250.04C147.535 250.376 147.175 250.632 146.743 250.808C146.319 250.984 145.843 251.072 145.315 251.072ZM153.603 251V249.656L153.543 249.404V247.112C153.543 246.624 153.399 246.248 153.111 245.984C152.831 245.712 152.407 245.576 151.839 245.576C151.463 245.576 151.095 245.64 150.735 245.768C150.375 245.888 150.071 246.052 149.823 246.26L149.343 245.396C149.671 245.132 150.063 244.932 150.519 244.796C150.983 244.652 151.467 244.58 151.971 244.58C152.843 244.58 153.515 244.792 153.987 245.216C154.459 245.64 154.695 246.288 154.695 247.16V251H153.603ZM151.515 251.072C151.043 251.072 150.627 250.992 150.267 250.832C149.915 250.672 149.643 250.452 149.451 250.172C149.259 249.884 149.163 249.56 149.163 249.2C149.163 248.856 149.243 248.544 149.403 248.264C149.571 247.984 149.839 247.76 150.207 247.592C150.583 247.424 151.087 247.34 151.719 247.34H153.735V248.168H151.767C151.191 248.168 150.803 248.264 150.603 248.456C150.403 248.648 150.303 248.88 150.303 249.152C150.303 249.464 150.427 249.716 150.675 249.908C150.923 250.092 151.267 250.184 151.707 250.184C152.139 250.184 152.515 250.088 152.835 249.896C153.163 249.704 153.399 249.424 153.543 249.056L153.771 249.848C153.619 250.224 153.351 250.524 152.967 250.748C152.583 250.964 152.099 251.072 151.515 251.072ZM159.598 251.072C158.95 251.072 158.37 250.932 157.858 250.652C157.354 250.372 156.958 249.988 156.67 249.5C156.382 249.012 156.238 248.452 156.238 247.82C156.238 247.188 156.382 246.628 156.67 246.14C156.958 245.652 157.354 245.272 157.858 245C158.37 244.72 158.95 244.58 159.598 244.58C160.174 244.58 160.686 244.696 161.134 244.928C161.59 245.152 161.942 245.488 162.19 245.936L161.314 246.5C161.106 246.188 160.85 245.96 160.546 245.816C160.25 245.664 159.93 245.588 159.586 245.588C159.17 245.588 158.798 245.68 158.47 245.864C158.142 246.048 157.882 246.308 157.69 246.644C157.498 246.972 157.402 247.364 157.402 247.82C157.402 248.276 157.498 248.672 157.69 249.008C157.882 249.344 158.142 249.604 158.47 249.788C158.798 249.972 159.17 250.064 159.586 250.064C159.93 250.064 160.25 249.992 160.546 249.848C160.85 249.696 161.106 249.464 161.314 249.152L162.19 249.704C161.942 250.144 161.59 250.484 161.134 250.724C160.686 250.956 160.174 251.072 159.598 251.072ZM166.996 244.58C167.516 244.58 167.972 244.68 168.364 244.88C168.764 245.08 169.076 245.384 169.3 245.792C169.524 246.2 169.636 246.716 169.636 247.34V251H168.484V247.472C168.484 246.856 168.332 246.392 168.028 246.08C167.732 245.768 167.312 245.612 166.768 245.612C166.36 245.612 166.004 245.692 165.7 245.852C165.396 246.012 165.16 246.248 164.992 246.56C164.832 246.872 164.752 247.26 164.752 247.724V251H163.6V242.096H164.752V246.356L164.524 245.9C164.732 245.484 165.052 245.16 165.484 244.928C165.916 244.696 166.42 244.58 166.996 244.58ZM171.312 252.776L171.912 250.352L172.068 251.048C171.836 251.048 171.64 250.976 171.48 250.832C171.328 250.688 171.252 250.492 171.252 250.244C171.252 250.004 171.328 249.808 171.48 249.656C171.64 249.504 171.832 249.428 172.056 249.428C172.288 249.428 172.476 249.508 172.62 249.668C172.764 249.82 172.836 250.012 172.836 250.244C172.836 250.324 172.828 250.404 172.812 250.484C172.804 250.556 172.784 250.644 172.752 250.748C172.728 250.844 172.688 250.964 172.632 251.108L172.068 252.776H171.312ZM177.877 251V242.6H178.861L182.629 248.948H182.101L185.821 242.6H186.805L186.817 251H185.665L185.653 244.412H185.929L182.617 249.98H182.065L178.729 244.412H179.029V251H177.877ZM191.846 251.072C191.302 251.072 190.822 250.972 190.406 250.772C189.998 250.572 189.678 250.268 189.446 249.86C189.222 249.444 189.11 248.924 189.11 248.3V244.64H190.262V248.168C190.262 248.792 190.41 249.26 190.706 249.572C191.01 249.884 191.434 250.04 191.978 250.04C192.378 250.04 192.726 249.96 193.022 249.8C193.318 249.632 193.546 249.392 193.706 249.08C193.866 248.76 193.946 248.376 193.946 247.928V244.64H195.098V251H194.006V249.284L194.186 249.74C193.978 250.164 193.666 250.492 193.25 250.724C192.834 250.956 192.366 251.072 191.846 251.072ZM199.115 251.072C198.587 251.072 198.083 251 197.603 250.856C197.131 250.712 196.759 250.536 196.487 250.328L196.967 249.416C197.239 249.6 197.575 249.756 197.975 249.884C198.375 250.012 198.783 250.076 199.199 250.076C199.735 250.076 200.119 250 200.351 249.848C200.591 249.696 200.711 249.484 200.711 249.212C200.711 249.012 200.639 248.856 200.495 248.744C200.351 248.632 200.159 248.548 199.919 248.492C199.687 248.436 199.427 248.388 199.139 248.348C198.851 248.3 198.563 248.244 198.275 248.18C197.987 248.108 197.723 248.012 197.483 247.892C197.243 247.764 197.051 247.592 196.907 247.376C196.763 247.152 196.691 246.856 196.691 246.488C196.691 246.104 196.799 245.768 197.015 245.48C197.231 245.192 197.535 244.972 197.927 244.82C198.327 244.66 198.799 244.58 199.343 244.58C199.759 244.58 200.179 244.632 200.603 244.736C201.035 244.832 201.387 244.972 201.659 245.156L201.167 246.068C200.879 245.876 200.579 245.744 200.267 245.672C199.955 245.6 199.643 245.564 199.331 245.564C198.827 245.564 198.451 245.648 198.203 245.816C197.955 245.976 197.831 246.184 197.831 246.44C197.831 246.656 197.903 246.824 198.047 246.944C198.199 247.056 198.391 247.144 198.623 247.208C198.863 247.272 199.127 247.328 199.415 247.376C199.703 247.416 199.991 247.472 200.279 247.544C200.567 247.608 200.827 247.7 201.059 247.82C201.299 247.94 201.491 248.108 201.635 248.324C201.787 248.54 201.863 248.828 201.863 249.188C201.863 249.572 201.751 249.904 201.527 250.184C201.303 250.464 200.987 250.684 200.579 250.844C200.171 250.996 199.683 251.072 199.115 251.072ZM204.239 249.464L204.263 247.988L207.923 244.64H209.315L206.507 247.4L205.883 247.928L204.239 249.464ZM203.303 251V242.096H204.455V251H203.303ZM208.163 251L205.667 247.904L206.411 246.98L209.579 251H208.163ZM210.634 253.4C210.33 253.4 210.034 253.348 209.746 253.244C209.458 253.148 209.21 253.004 209.002 252.812L209.494 251.948C209.654 252.1 209.83 252.216 210.022 252.296C210.214 252.376 210.418 252.416 210.634 252.416C210.914 252.416 211.146 252.344 211.33 252.2C211.514 252.056 211.686 251.8 211.846 251.432L212.242 250.556L212.362 250.412L214.858 244.64H215.986L212.902 251.636C212.718 252.084 212.51 252.436 212.278 252.692C212.054 252.948 211.806 253.128 211.534 253.232C211.262 253.344 210.962 253.4 210.634 253.4ZM212.146 251.204L209.242 244.64H210.442L212.914 250.304L212.146 251.204Z" fill="white"/>
<path d="M53.8429 95L50.8009 85.9H52.1399L54.9349 94.298H54.2589L57.1579 85.9H58.3539L61.1879 94.298H60.5379L63.3719 85.9H64.6069L61.5649 95H60.1999L57.5479 87.213H57.8989L55.2339 95H53.8429ZM72.1536 95.104C71.4602 95.104 70.8146 94.987 70.2166 94.753C69.6272 94.519 69.1159 94.194 68.6826 93.778C68.2492 93.3533 67.9112 92.8593 67.6686 92.296C67.4259 91.7327 67.3046 91.1173 67.3046 90.45C67.3046 89.7827 67.4259 89.1673 67.6686 88.604C67.9112 88.0407 68.2492 87.551 68.6826 87.135C69.1159 86.7103 69.6272 86.381 70.2166 86.147C70.8059 85.913 71.4516 85.796 72.1536 85.796C72.8469 85.796 73.4839 85.913 74.0646 86.147C74.6539 86.3723 75.1652 86.6973 75.5986 87.122C76.0406 87.538 76.3786 88.0277 76.6126 88.591C76.8552 89.1543 76.9766 89.774 76.9766 90.45C76.9766 91.126 76.8552 91.7457 76.6126 92.309C76.3786 92.8723 76.0406 93.3663 75.5986 93.791C75.1652 94.207 74.6539 94.532 74.0646 94.766C73.4839 94.9913 72.8469 95.104 72.1536 95.104ZM72.1536 93.947C72.6562 93.947 73.1199 93.8603 73.5446 93.687C73.9779 93.5137 74.3506 93.271 74.6626 92.959C74.9832 92.6383 75.2302 92.2657 75.4036 91.841C75.5856 91.4163 75.6766 90.9527 75.6766 90.45C75.6766 89.9473 75.5856 89.4837 75.4036 89.059C75.2302 88.6343 74.9832 88.266 74.6626 87.954C74.3506 87.6333 73.9779 87.3863 73.5446 87.213C73.1199 87.0397 72.6562 86.953 72.1536 86.953C71.6422 86.953 71.1699 87.0397 70.7366 87.213C70.3119 87.3863 69.9392 87.6333 69.6186 87.954C69.2979 88.266 69.0466 88.6343 68.8646 89.059C68.6912 89.4837 68.6046 89.9473 68.6046 90.45C68.6046 90.9527 68.6912 91.4163 68.8646 91.841C69.0466 92.2657 69.2979 92.6383 69.6186 92.959C69.9392 93.271 70.3119 93.5137 70.7366 93.687C71.1699 93.8603 71.6422 93.947 72.1536 93.947ZM85.0215 95.104C84.3282 95.104 83.6825 94.987 83.0845 94.753C82.4952 94.519 81.9839 94.194 81.5505 93.778C81.1172 93.3533 80.7792 92.8593 80.5365 92.296C80.2939 91.7327 80.1725 91.1173 80.1725 90.45C80.1725 89.7827 80.2939 89.1673 80.5365 88.604C80.7792 88.0407 81.1172 87.551 81.5505 87.135C81.9839 86.7103 82.4952 86.381 83.0845 86.147C83.6739 85.913 84.3195 85.796 85.0215 85.796C85.7149 85.796 86.3519 85.913 86.9325 86.147C87.5219 86.3723 88.0332 86.6973 88.4665 87.122C88.9085 87.538 89.2465 88.0277 89.4805 88.591C89.7232 89.1543 89.8445 89.774 89.8445 90.45C89.8445 91.126 89.7232 91.7457 89.4805 92.309C89.2465 92.8723 88.9085 93.3663 88.4665 93.791C88.0332 94.207 87.5219 94.532 86.9325 94.766C86.3519 94.9913 85.7149 95.104 85.0215 95.104ZM85.0215 93.947C85.5242 93.947 85.9879 93.8603 86.4125 93.687C86.8459 93.5137 87.2185 93.271 87.5305 92.959C87.8512 92.6383 88.0982 92.2657 88.2715 91.841C88.4535 91.4163 88.5445 90.9527 88.5445 90.45C88.5445 89.9473 88.4535 89.4837 88.2715 89.059C88.0982 88.6343 87.8512 88.266 87.5305 87.954C87.2185 87.6333 86.8459 87.3863 86.4125 87.213C85.9879 87.0397 85.5242 86.953 85.0215 86.953C84.5102 86.953 84.0379 87.0397 83.6045 87.213C83.1799 87.3863 82.8072 87.6333 82.4865 87.954C82.1659 88.266 81.9145 88.6343 81.7325 89.059C81.5592 89.4837 81.4725 89.9473 81.4725 90.45C81.4725 90.9527 81.5592 91.4163 81.7325 91.841C81.9145 92.2657 82.1659 92.6383 82.4865 92.959C82.8072 93.271 83.1799 93.5137 83.6045 93.687C84.0379 93.8603 84.5102 93.947 85.0215 93.947ZM93.7815 95V85.9H97.6165C98.5872 85.9 99.4408 86.0907 100.178 86.472C100.923 86.8533 101.499 87.3863 101.907 88.071C102.323 88.7557 102.531 89.5487 102.531 90.45C102.531 91.3513 102.323 92.1443 101.907 92.829C101.499 93.5137 100.923 94.0467 100.178 94.428C99.4408 94.8093 98.5872 95 97.6165 95H93.7815ZM95.0815 93.869H97.5385C98.2925 93.869 98.9425 93.726 99.4885 93.44C100.043 93.154 100.472 92.7553 100.776 92.244C101.079 91.724 101.231 91.126 101.231 90.45C101.231 89.7653 101.079 89.1673 100.776 88.656C100.472 88.1447 100.043 87.746 99.4885 87.46C98.9425 87.174 98.2925 87.031 97.5385 87.031H95.0815V93.869ZM108.275 95V91.516L108.574 92.322L104.661 85.9H106.052L109.341 91.321H108.587L111.889 85.9H113.176L109.276 92.322L109.562 91.516V95H108.275ZM115.287 96.924L115.937 94.298L116.106 95.052C115.854 95.052 115.642 94.974 115.469 94.818C115.304 94.662 115.222 94.4497 115.222 94.181C115.222 93.921 115.304 93.7087 115.469 93.544C115.642 93.3793 115.85 93.297 116.093 93.297C116.344 93.297 116.548 93.3837 116.704 93.557C116.86 93.7217 116.938 93.9297 116.938 94.181C116.938 94.2677 116.929 94.3543 116.912 94.441C116.903 94.519 116.881 94.6143 116.847 94.727C116.821 94.831 116.777 94.961 116.717 95.117L116.106 96.924H115.287ZM128.951 95.104C128.258 95.104 127.595 95 126.962 94.792C126.33 94.5753 125.831 94.298 125.467 93.96L125.948 92.946C126.295 93.2493 126.737 93.5007 127.274 93.7C127.812 93.8993 128.371 93.999 128.951 93.999C129.48 93.999 129.909 93.9383 130.238 93.817C130.568 93.6957 130.81 93.531 130.966 93.323C131.122 93.1063 131.2 92.8637 131.2 92.595C131.2 92.283 131.096 92.0317 130.888 91.841C130.689 91.6503 130.425 91.4987 130.095 91.386C129.775 91.2647 129.419 91.1607 129.029 91.074C128.639 90.9873 128.245 90.8877 127.846 90.775C127.456 90.6537 127.097 90.502 126.767 90.32C126.447 90.138 126.187 89.8953 125.987 89.592C125.788 89.28 125.688 88.8813 125.688 88.396C125.688 87.928 125.81 87.499 126.052 87.109C126.304 86.7103 126.685 86.394 127.196 86.16C127.716 85.9173 128.375 85.796 129.172 85.796C129.701 85.796 130.225 85.8653 130.745 86.004C131.265 86.1427 131.716 86.342 132.097 86.602L131.668 87.642C131.278 87.382 130.867 87.1957 130.433 87.083C130 86.9617 129.58 86.901 129.172 86.901C128.661 86.901 128.241 86.966 127.911 87.096C127.582 87.226 127.339 87.3993 127.183 87.616C127.036 87.8327 126.962 88.0753 126.962 88.344C126.962 88.6647 127.062 88.9203 127.261 89.111C127.469 89.3017 127.734 89.4533 128.054 89.566C128.384 89.6787 128.743 89.7827 129.133 89.878C129.523 89.9647 129.913 90.0643 130.303 90.177C130.702 90.2897 131.062 90.437 131.382 90.619C131.712 90.801 131.976 91.0437 132.175 91.347C132.375 91.6503 132.474 92.0403 132.474 92.517C132.474 92.9763 132.349 93.4053 132.097 93.804C131.846 94.194 131.456 94.5103 130.927 94.753C130.407 94.987 129.749 95.104 128.951 95.104ZM136.323 95V85.9H139.872C140.67 85.9 141.35 86.0257 141.913 86.277C142.477 86.5283 142.91 86.8923 143.213 87.369C143.517 87.8457 143.668 88.4133 143.668 89.072C143.668 89.7307 143.517 90.2983 143.213 90.775C142.91 91.243 142.477 91.607 141.913 91.867C141.35 92.1183 140.67 92.244 139.872 92.244H137.038L137.623 91.633V95H136.323ZM137.623 91.763L137.038 91.113H139.833C140.665 91.113 141.294 90.9353 141.718 90.58C142.152 90.2247 142.368 89.722 142.368 89.072C142.368 88.422 142.152 87.9193 141.718 87.564C141.294 87.2087 140.665 87.031 139.833 87.031H137.038L137.623 86.381V91.763ZM147.528 95V85.9H148.828V95H147.528ZM157.572 95.104C156.878 95.104 156.237 94.9913 155.648 94.766C155.067 94.532 154.56 94.207 154.127 93.791C153.702 93.3663 153.368 92.8723 153.126 92.309C152.883 91.7457 152.762 91.126 152.762 90.45C152.762 89.774 152.883 89.1543 153.126 88.591C153.368 88.0277 153.706 87.538 154.14 87.122C154.573 86.6973 155.08 86.3723 155.661 86.147C156.25 85.913 156.891 85.796 157.585 85.796C158.287 85.796 158.932 85.9173 159.522 86.16C160.12 86.394 160.627 86.745 161.043 87.213L160.198 88.032C159.851 87.668 159.461 87.3993 159.028 87.226C158.594 87.044 158.131 86.953 157.637 86.953C157.125 86.953 156.649 87.0397 156.207 87.213C155.773 87.3863 155.396 87.629 155.076 87.941C154.755 88.253 154.504 88.6257 154.322 89.059C154.148 89.4837 154.062 89.9473 154.062 90.45C154.062 90.9527 154.148 91.4207 154.322 91.854C154.504 92.2787 154.755 92.647 155.076 92.959C155.396 93.271 155.773 93.5137 156.207 93.687C156.649 93.8603 157.125 93.947 157.637 93.947C158.131 93.947 158.594 93.8603 159.028 93.687C159.461 93.505 159.851 93.2277 160.198 92.855L161.043 93.674C160.627 94.142 160.12 94.4973 159.522 94.74C158.932 94.9827 158.282 95.104 157.572 95.104ZM166.892 95V91.516L167.191 92.322L163.278 85.9H164.669L167.958 91.321H167.204L170.506 85.9H171.793L167.893 92.322L168.179 91.516V95H166.892ZM173.904 96.924L174.554 94.298L174.723 95.052C174.471 95.052 174.259 94.974 174.086 94.818C173.921 94.662 173.839 94.4497 173.839 94.181C173.839 93.921 173.921 93.7087 174.086 93.544C174.259 93.3793 174.467 93.297 174.71 93.297C174.961 93.297 175.165 93.3837 175.321 93.557C175.477 93.7217 175.555 93.9297 175.555 94.181C175.555 94.2677 175.546 94.3543 175.529 94.441C175.52 94.519 175.498 94.6143 175.464 94.727C175.438 94.831 175.394 94.961 175.334 95.117L174.723 96.924H173.904ZM183.538 95L187.659 85.9H188.946L193.08 95H191.715L188.036 86.628H188.556L184.877 95H183.538ZM185.293 92.725L185.644 91.685H190.766L191.143 92.725H185.293ZM196.388 95V85.9H199.937C200.734 85.9 201.414 86.0257 201.978 86.277C202.541 86.5283 202.974 86.8923 203.278 87.369C203.581 87.8457 203.733 88.4133 203.733 89.072C203.733 89.7307 203.581 90.2983 203.278 90.775C202.974 91.243 202.541 91.6027 201.978 91.854C201.414 92.1053 200.734 92.231 199.937 92.231H197.103L197.688 91.633V95H196.388ZM202.472 95L200.158 91.698H201.549L203.889 95H202.472ZM197.688 91.763L197.103 91.126H199.898C200.73 91.126 201.358 90.9483 201.783 90.593C202.216 90.229 202.433 89.722 202.433 89.072C202.433 88.422 202.216 87.9193 201.783 87.564C201.358 87.2087 200.73 87.031 199.898 87.031H197.103L197.688 86.381V91.763ZM211.891 95.104C211.198 95.104 210.552 94.987 209.954 94.753C209.365 94.519 208.853 94.194 208.42 93.778C207.987 93.3533 207.649 92.8593 207.406 92.296C207.163 91.7327 207.042 91.1173 207.042 90.45C207.042 89.7827 207.163 89.1673 207.406 88.604C207.649 88.0407 207.987 87.551 208.42 87.135C208.853 86.7103 209.365 86.381 209.954 86.147C210.543 85.913 211.189 85.796 211.891 85.796C212.584 85.796 213.221 85.913 213.802 86.147C214.391 86.3723 214.903 86.6973 215.336 87.122C215.778 87.538 216.116 88.0277 216.35 88.591C216.593 89.1543 216.714 89.774 216.714 90.45C216.714 91.126 216.593 91.7457 216.35 92.309C216.116 92.8723 215.778 93.3663 215.336 93.791C214.903 94.207 214.391 94.532 213.802 94.766C213.221 94.9913 212.584 95.104 211.891 95.104ZM211.891 93.947C212.394 93.947 212.857 93.8603 213.282 93.687C213.715 93.5137 214.088 93.271 214.4 92.959C214.721 92.6383 214.968 92.2657 215.141 91.841C215.323 91.4163 215.414 90.9527 215.414 90.45C215.414 89.9473 215.323 89.4837 215.141 89.059C214.968 88.6343 214.721 88.266 214.4 87.954C214.088 87.6333 213.715 87.3863 213.282 87.213C212.857 87.0397 212.394 86.953 211.891 86.953C211.38 86.953 210.907 87.0397 210.474 87.213C210.049 87.3863 209.677 87.6333 209.356 87.954C209.035 88.266 208.784 88.6343 208.602 89.059C208.429 89.4837 208.342 89.9473 208.342 90.45C208.342 90.9527 208.429 91.4163 208.602 91.841C208.784 92.2657 209.035 92.6383 209.356 92.959C209.677 93.271 210.049 93.5137 210.474 93.687C210.907 93.8603 211.38 93.947 211.891 93.947ZM220.651 95V85.9H221.717L225.799 92.777H225.227L229.257 85.9H230.323L230.336 95H229.088L229.075 87.863H229.374L225.786 93.895H225.188L221.574 87.863H221.899V95H220.651ZM233.639 95L237.76 85.9H239.047L243.181 95H241.816L238.137 86.628H238.657L234.978 95H233.639ZM235.394 92.725L235.745 91.685H240.867L241.244 92.725H235.394ZM247.838 95V87.031H244.718V85.9H252.245V87.031H249.125V95H247.838ZM255.611 95V85.9H256.911V95H255.611ZM265.655 95.104C264.961 95.104 264.32 94.9913 263.731 94.766C263.15 94.532 262.643 94.207 262.21 93.791C261.785 93.3663 261.451 92.8723 261.209 92.309C260.966 91.7457 260.845 91.126 260.845 90.45C260.845 89.774 260.966 89.1543 261.209 88.591C261.451 88.0277 261.789 87.538 262.223 87.122C262.656 86.6973 263.163 86.3723 263.744 86.147C264.333 85.913 264.974 85.796 265.668 85.796C266.37 85.796 267.015 85.9173 267.605 86.16C268.203 86.394 268.71 86.745 269.126 87.213L268.281 88.032C267.934 87.668 267.544 87.3993 267.111 87.226C266.677 87.044 266.214 86.953 265.72 86.953C265.208 86.953 264.732 87.0397 264.29 87.213C263.856 87.3863 263.479 87.629 263.159 87.941C262.838 88.253 262.587 88.6257 262.405 89.059C262.231 89.4837 262.145 89.9473 262.145 90.45C262.145 90.9527 262.231 91.4207 262.405 91.854C262.587 92.2787 262.838 92.647 263.159 92.959C263.479 93.271 263.856 93.5137 264.29 93.687C264.732 93.8603 265.208 93.947 265.72 93.947C266.214 93.947 266.677 93.8603 267.111 93.687C267.544 93.505 267.934 93.2277 268.281 92.855L269.126 93.674C268.71 94.142 268.203 94.4973 267.605 94.74C267.015 94.9827 266.365 95.104 265.655 95.104Z" fill="#F5FF70"/>
<path fill-rule="evenodd" clip-rule="evenodd" d="M317 286H286V317H287V287H317V286Z" fill="white"/>
<path d="M160 114.5V147.5" stroke="white"/>
</svg>
