<svg width="25" height="24" viewBox="0 0 25 24" fill="none" xmlns="http://www.w3.org/2000/svg">
<path d="M8.00544 12C8.00544 9.79094 9.79682 7.99968 12.0072 7.99968C14.2176 7.99968 16.0099 9.79094 16.0099 12C16.0099 14.2091 14.2176 16.0003 12.0072 16.0003C9.79682 16.0003 8.00544 14.2091 8.00544 12ZM5.84165 12C5.84165 15.4032 8.60196 18.1619 12.0072 18.1619C15.4124 18.1619 18.1728 15.4032 18.1728 12C18.1728 8.5968 15.4124 5.83814 12.0072 5.83814C8.60196 5.83814 5.84165 8.5968 5.84165 12ZM16.976 5.59382C16.9759 5.87863 17.0603 6.15707 17.2185 6.39394C17.3767 6.63081 17.6017 6.81547 17.8649 6.92457C18.1281 7.03366 18.4178 7.06229 18.6974 7.00684C18.9769 6.95139 19.2337 6.81435 19.4353 6.61304C19.6369 6.41173 19.7742 6.15521 19.8299 5.8759C19.8856 5.59658 19.8572 5.30704 19.7482 5.04387C19.6393 4.7807 19.4547 4.55573 19.2178 4.3974C18.9809 4.23908 18.7024 4.15451 18.4174 4.1544H18.4168C18.0348 4.15458 17.6685 4.30627 17.3984 4.57616C17.1282 4.84605 16.9763 5.21207 16.976 5.59382ZM7.15629 21.7677C5.98564 21.7144 5.34935 21.5196 4.92651 21.3549C4.36591 21.1368 3.96593 20.877 3.54539 20.4573C3.12485 20.0376 2.86453 19.6382 2.64725 19.078C2.48242 18.6556 2.28742 18.0195 2.2342 16.8495C2.17599 15.5846 2.16437 15.2047 2.16437 12.0001C2.16437 8.79552 2.17695 8.41661 2.2342 7.15066C2.28752 5.9807 2.48395 5.34586 2.64725 4.92221C2.86549 4.36195 3.12543 3.96221 3.54539 3.54192C3.96535 3.12163 4.36495 2.86147 4.92651 2.64432C5.34916 2.47958 5.98564 2.2847 7.15629 2.23152C8.42195 2.17334 8.80214 2.16173 12.0072 2.16173C15.2123 2.16173 15.5928 2.1743 16.8595 2.23152C18.0302 2.2848 18.6654 2.48112 19.0893 2.64432C19.6499 2.86147 20.0499 3.12221 20.4705 3.54192C20.891 3.96163 21.1503 4.36195 21.3686 4.92221C21.5334 5.34461 21.7284 5.9807 21.7816 7.15066C21.8398 8.41661 21.8515 8.79552 21.8515 12.0001C21.8515 15.2047 21.8398 15.5836 21.7816 16.8495C21.7283 18.0195 21.5324 18.6554 21.3686 19.078C21.1503 19.6382 20.8904 20.038 20.4705 20.4573C20.0505 20.8766 19.6499 21.1368 19.0893 21.3549C18.6667 21.5196 18.0302 21.7145 16.8595 21.7677C15.5939 21.8259 15.2137 21.8375 12.0072 21.8375C8.8007 21.8375 8.42156 21.8259 7.15629 21.7677ZM7.05687 0.072672C5.77863 0.130848 4.90518 0.333408 4.14239 0.630048C3.35241 0.936384 2.68366 1.34736 2.01538 2.01418C1.34711 2.68099 0.936946 3.3504 0.630426 4.1399C0.333608 4.90272 0.130927 5.77517 0.0727156 7.05264C0.0135441 8.33213 0 8.74118 0 12C0 15.2588 0.0135441 15.6679 0.0727156 16.9474C0.130927 18.2249 0.333608 19.0973 0.630426 19.8601C0.936946 20.6491 1.34721 21.3193 2.01538 21.9858C2.68356 22.6524 3.35241 23.0628 4.14239 23.37C4.90662 23.6666 5.77863 23.8692 7.05687 23.9273C8.3378 23.9855 8.74643 24 12.0072 24C15.268 24 15.6773 23.9865 16.9575 23.9273C18.2359 23.8692 19.1087 23.6666 19.872 23.37C20.6615 23.0628 21.3307 22.6526 21.999 21.9858C22.6673 21.319 23.0766 20.6491 23.384 19.8601C23.6808 19.0973 23.8844 18.2248 23.9417 16.9474C23.9999 15.6669 24.0134 15.2588 24.0134 12C24.0134 8.74118 23.9999 8.33213 23.9417 7.05264C23.8835 5.77507 23.6808 4.90224 23.384 4.1399C23.0766 3.35088 22.6662 2.68205 21.999 2.01418C21.3318 1.3463 20.6615 0.936384 19.873 0.630048C19.1087 0.333408 18.2358 0.129888 16.9585 0.072672C15.6782 0.014496 15.2689 0 12.0082 0C8.74739 0 8.3378 0.013536 7.05687 0.072672Z" fill="url(#paint0_radial_795_237)"/>
<path d="M8.00544 12C8.00544 9.79094 9.79682 7.99968 12.0072 7.99968C14.2176 7.99968 16.0099 9.79094 16.0099 12C16.0099 14.2091 14.2176 16.0003 12.0072 16.0003C9.79682 16.0003 8.00544 14.2091 8.00544 12ZM5.84165 12C5.84165 15.4032 8.60196 18.1619 12.0072 18.1619C15.4124 18.1619 18.1728 15.4032 18.1728 12C18.1728 8.5968 15.4124 5.83814 12.0072 5.83814C8.60196 5.83814 5.84165 8.5968 5.84165 12ZM16.976 5.59382C16.9759 5.87863 17.0603 6.15707 17.2185 6.39394C17.3767 6.63081 17.6017 6.81547 17.8649 6.92457C18.1281 7.03366 18.4178 7.06229 18.6974 7.00684C18.9769 6.95139 19.2337 6.81435 19.4353 6.61304C19.6369 6.41173 19.7742 6.15521 19.8299 5.8759C19.8856 5.59658 19.8572 5.30704 19.7482 5.04387C19.6393 4.7807 19.4547 4.55573 19.2178 4.3974C18.9809 4.23908 18.7024 4.15451 18.4174 4.1544H18.4168C18.0348 4.15458 17.6685 4.30627 17.3984 4.57616C17.1282 4.84605 16.9763 5.21207 16.976 5.59382ZM7.15629 21.7677C5.98564 21.7144 5.34935 21.5196 4.92651 21.3549C4.36591 21.1368 3.96593 20.877 3.54539 20.4573C3.12485 20.0376 2.86453 19.6382 2.64725 19.078C2.48242 18.6556 2.28742 18.0195 2.2342 16.8495C2.17599 15.5846 2.16437 15.2047 2.16437 12.0001C2.16437 8.79552 2.17695 8.41661 2.2342 7.15066C2.28752 5.9807 2.48395 5.34586 2.64725 4.92221C2.86549 4.36195 3.12543 3.96221 3.54539 3.54192C3.96535 3.12163 4.36495 2.86147 4.92651 2.64432C5.34916 2.47958 5.98564 2.2847 7.15629 2.23152C8.42195 2.17334 8.80214 2.16173 12.0072 2.16173C15.2123 2.16173 15.5928 2.1743 16.8595 2.23152C18.0302 2.2848 18.6654 2.48112 19.0893 2.64432C19.6499 2.86147 20.0499 3.12221 20.4705 3.54192C20.891 3.96163 21.1503 4.36195 21.3686 4.92221C21.5334 5.34461 21.7284 5.9807 21.7816 7.15066C21.8398 8.41661 21.8515 8.79552 21.8515 12.0001C21.8515 15.2047 21.8398 15.5836 21.7816 16.8495C21.7283 18.0195 21.5324 18.6554 21.3686 19.078C21.1503 19.6382 20.8904 20.038 20.4705 20.4573C20.0505 20.8766 19.6499 21.1368 19.0893 21.3549C18.6667 21.5196 18.0302 21.7145 16.8595 21.7677C15.5939 21.8259 15.2137 21.8375 12.0072 21.8375C8.8007 21.8375 8.42156 21.8259 7.15629 21.7677ZM7.05687 0.072672C5.77863 0.130848 4.90518 0.333408 4.14239 0.630048C3.35241 0.936384 2.68366 1.34736 2.01538 2.01418C1.34711 2.68099 0.936946 3.3504 0.630426 4.1399C0.333608 4.90272 0.130927 5.77517 0.0727156 7.05264C0.0135441 8.33213 0 8.74118 0 12C0 15.2588 0.0135441 15.6679 0.0727156 16.9474C0.130927 18.2249 0.333608 19.0973 0.630426 19.8601C0.936946 20.6491 1.34721 21.3193 2.01538 21.9858C2.68356 22.6524 3.35241 23.0628 4.14239 23.37C4.90662 23.6666 5.77863 23.8692 7.05687 23.9273C8.3378 23.9855 8.74643 24 12.0072 24C15.268 24 15.6773 23.9865 16.9575 23.9273C18.2359 23.8692 19.1087 23.6666 19.872 23.37C20.6615 23.0628 21.3307 22.6526 21.999 21.9858C22.6673 21.319 23.0766 20.6491 23.384 19.8601C23.6808 19.0973 23.8844 18.2248 23.9417 16.9474C23.9999 15.6669 24.0134 15.2588 24.0134 12C24.0134 8.74118 23.9999 8.33213 23.9417 7.05264C23.8835 5.77507 23.6808 4.90224 23.384 4.1399C23.0766 3.35088 22.6662 2.68205 21.999 2.01418C21.3318 1.3463 20.6615 0.936384 19.873 0.630048C19.1087 0.333408 18.2358 0.129888 16.9585 0.072672C15.6782 0.014496 15.2689 0 12.0082 0C8.74739 0 8.3378 0.013536 7.05687 0.072672Z" fill="url(#paint1_radial_795_237)"/>
<defs>
<radialGradient id="paint0_radial_795_237" cx="0" cy="0" r="1" gradientUnits="userSpaceOnUse" gradientTransform="translate(3.19046 24.1134) scale(31.3488 31.33)">
<stop offset="0.09" stop-color="#FA8F21"/>
<stop offset="0.78" stop-color="#D82D7E"/>
</radialGradient>
<radialGradient id="paint1_radial_795_237" cx="0" cy="0" r="1" gradientUnits="userSpaceOnUse" gradientTransform="translate(14.5637 25.1886) scale(24.7072 24.6924)">
<stop offset="0.64" stop-color="#8C3AAA" stop-opacity="0"/>
<stop offset="1" stop-color="#8C3AAA"/>
</radialGradient>
</defs>
</svg>
