<svg width="30" height="24" viewBox="0 0 30 24" fill="none" xmlns="http://www.w3.org/2000/svg">
<path d="M14.7867 24C14.5767 24.001 14.3703 23.9475 14.1878 23.844C12.624 22.9391 1.04344 15.6785 0.606499 15.4566C0.273541 15.3011 0.0460693 14.9831 0.0070742 14.6182V4.43344C-0.00142474 4.05299 0.186552 3.69554 0.504512 3.48656L0.588501 3.43907C1.70836 2.74366 5.45889 0.455443 6.05181 0.125984C6.1883 0.0449943 6.34328 0.00149981 6.50126 0C6.64974 0.00149981 6.79522 0.0384952 6.9267 0.107986C6.9267 0.107986 12.1745 3.52856 12.9774 3.83402C13.5409 4.09299 14.1553 4.22197 14.7747 4.21197C15.4771 4.22647 16.171 4.05699 16.788 3.72053C17.5724 3.30708 22.5867 0.125984 22.6407 0.125984C22.7672 0.0494938 22.9127 0.00999874 23.0602 0.0119985C23.2187 0.0129984 23.3741 0.0564929 23.5096 0.137983C24.1925 0.515435 28.8414 3.36108 29.0394 3.48656C29.3664 3.68404 29.5644 4.03949 29.5604 4.42144V14.6062C29.5239 14.9721 29.2959 15.2911 28.9614 15.4446C28.524 15.684 16.9794 22.9456 15.3856 23.832C15.2042 23.9395 14.9977 23.9975 14.7867 24Z" fill="url(#paint0_linear_795_270)"/>
<path d="M14.7267 24H14.7867C14.9966 24.001 15.2031 23.9475 15.3856 23.844C16.9494 22.9391 28.524 15.6786 28.9614 15.4566C29.2959 15.3031 29.5238 14.9841 29.5603 14.6182V4.43347C29.5623 4.26099 29.5233 4.09052 29.4463 3.93604L14.7267 12.018V24Z" fill="url(#paint1_linear_795_270)"/>
<path d="M14.6757 23.8559H14.6162C14.4088 23.8574 14.2043 23.8044 14.0238 23.7019C12.4765 22.807 1.02544 15.6234 0.592999 15.4039C0.26204 15.2519 0.0365686 14.9365 7.3227e-05 14.574V4.4978C-0.00192652 4.32732 0.0370686 4.15884 0.112559 4.00586L14.6757 12.0019V23.8559Z" fill="url(#paint2_linear_795_270)"/>
<defs>
<linearGradient id="paint0_linear_795_270" x1="0.00857401" y1="12.1145" x2="29.3964" y2="11.8865" gradientUnits="userSpaceOnUse">
<stop stop-color="#FFB800"/>
<stop offset="0.329412" stop-color="#F28000"/>
<stop offset="0.560784" stop-color="#F73B72"/>
<stop offset="0.780392" stop-color="#FB1CBD"/>
<stop offset="0.929412" stop-color="#FD08ED"/>
<stop offset="1" stop-color="#FF00FF"/>
</linearGradient>
<linearGradient id="paint1_linear_795_270" x1="8.27649" y1="21.6463" x2="38.2622" y2="5.04339" gradientUnits="userSpaceOnUse">
<stop stop-color="#ED0A3F"/>
<stop offset="1" stop-color="#ED0A3F"/>
</linearGradient>
<linearGradient id="paint2_linear_795_270" x1="12.0936" y1="8.21933" x2="-4.1684" y2="14.2046" gradientUnits="userSpaceOnUse">
<stop stop-color="#ED5B00"/>
<stop offset="0.0862745" stop-color="#F37D00"/>
<stop offset="0.14902" stop-color="#EF6200"/>
<stop offset="0.501961" stop-color="#FB8A00"/>
<stop offset="1" stop-color="#F9A000"/>
</linearGradient>
</defs>
</svg>
