<svg width="22" height="24" viewBox="0 0 22 24" fill="none" xmlns="http://www.w3.org/2000/svg">
<path d="M14.5177 17.9597C14.3841 19.1088 13.6875 20.0392 12.6086 20.4992C12.004 20.754 11.1967 20.8937 10.5491 20.8522C9.5528 20.8106 8.61883 20.5638 7.74711 20.1256C7.44555 19.9595 6.98085 19.6483 6.62633 19.3578C6.53891 19.2747 6.52427 19.2332 6.58767 19.1473C6.61553 19.0969 6.67777 19.0048 6.80538 18.8181C6.99995 18.543 7.02076 18.5067 7.04148 18.4714C7.10372 18.3821 7.19855 18.374 7.29767 18.4445C7.31125 18.4584 7.31125 18.4584 7.31875 18.4651C7.33196 18.4795 7.33196 18.4795 7.3675 18.5066C7.40421 18.5347 7.43082 18.5481 7.43733 18.564C8.37148 19.2953 9.45886 19.7104 10.5566 19.7519C12.0803 19.7314 13.1752 19.0463 13.377 17.9876C13.5847 16.8354 12.6766 15.8295 10.9008 15.2687C10.3414 15.1026 8.93352 14.5403 8.67357 14.3839C7.45653 13.671 6.8853 12.7354 6.96834 11.575C7.09291 9.97143 8.58267 8.77787 10.4655 8.76742C11.3012 8.76742 12.1437 8.94164 12.9429 9.27785C13.2311 9.40046 13.7456 9.67915 13.9167 9.81239C14.0194 9.88847 14.0413 9.97143 13.9779 10.0644C13.9569 10.1211 13.8949 10.2056 13.7879 10.3867C13.6319 10.6245 13.6261 10.6345 13.5978 10.6868C13.5423 10.7741 13.4629 10.7811 13.3571 10.7186C12.5029 10.1376 11.5394 9.84686 10.4867 9.82614C9.17909 9.84686 8.19592 10.6262 8.13261 11.6942C8.11957 12.6535 8.836 13.3523 10.3876 13.8786C13.5432 14.8952 14.747 16.083 14.5177 17.9597ZM10.6264 1.40528C12.6767 1.40528 14.3517 3.35063 14.4346 5.78935H6.82314C6.89637 3.35063 8.57624 1.40528 10.6264 1.40528ZM21.2529 6.25137C21.2529 5.99687 21.0559 5.78935 20.8046 5.78935H20.7881H15.8677C15.7433 2.57177 13.4417 0 10.6264 0C7.80944 0 5.51386 2.57177 5.39108 5.78935H0.45006C0.202259 5.79497 0.00562581 5.99795 0.00562581 6.25137C0.00562581 6.26602 0.00562581 6.27245 0.00562581 6.28709H0L0.70179 21.8068C0.70179 21.8488 0.710006 21.8911 0.710006 21.9416C0.710006 21.9514 0.711345 21.9545 0.711345 21.9729V21.9967L0.716524 22.0049C0.822164 23.0869 1.60388 23.9495 2.67223 23.9918V24H18.3448C18.353 24 18.3578 24 18.3659 24C18.3781 24 18.3781 24 18.387 24H18.4195V23.9918C19.5031 23.9654 20.3902 23.0869 20.4748 21.993L20.4795 21.9729C20.4795 21.9627 20.4795 21.9515 20.4795 21.9416C20.4795 21.91 20.4877 21.8899 20.4877 21.857L21.2529 6.27245C21.2529 6.26673 21.2529 6.25789 21.2529 6.25137Z" fill="#F26522"/>
</svg>
