<svg width="22" height="24" viewBox="0 0 22 24" fill="none" xmlns="http://www.w3.org/2000/svg">
<path fill-rule="evenodd" clip-rule="evenodd" d="M15.7355 8.67234C17.342 9.81439 19.2658 10.4246 21.2369 10.4172V6.51085C20.8494 6.51192 20.4629 6.47044 20.0845 6.38715V9.49918C18.109 9.50268 16.1823 8.88551 14.5766 7.73483V15.7688C14.5717 17.0871 14.2102 18.3796 13.5303 19.5091C12.8505 20.6385 11.8776 21.563 10.7149 22.1844C9.55226 22.8058 8.24308 23.1009 6.92624 23.0386C5.6094 22.9762 4.33398 22.5586 3.23523 21.8301C4.25155 22.8584 5.55016 23.562 6.96661 23.8518C8.38307 24.1416 9.85365 24.0045 11.1922 23.458C12.5307 22.9114 13.6769 21.9799 14.4857 20.7815C15.2944 19.5831 15.7294 18.1717 15.7355 16.7259V8.67234ZM17.1613 4.68789C16.3443 3.8024 15.843 2.67166 15.7355 1.47169V0.963867H14.6417C14.7769 1.72663 15.0711 2.45239 15.5052 3.09399C15.9393 3.73559 16.5035 4.27866 17.1613 4.68789ZM5.76783 18.7376C5.38873 18.2419 5.15641 17.6497 5.09731 17.0284C5.0382 16.4072 5.15469 15.7818 5.43352 15.2235C5.71234 14.6651 6.1423 14.1963 6.67446 13.8703C7.20662 13.5443 7.81961 13.3742 8.44366 13.3795C8.7882 13.3794 9.13072 13.4321 9.4593 13.5357V9.49918C9.0752 9.44831 8.68781 9.42655 8.30043 9.43408V12.5722C7.50036 12.3193 6.63441 12.3768 5.87481 12.7332C5.11522 13.0897 4.51763 13.7191 4.20092 14.4961C3.8842 15.2731 3.87156 16.1409 4.16551 16.9268C4.45947 17.7127 5.03847 18.3592 5.78736 18.7376H5.76783Z" fill="#EE1D52"/>
<path fill-rule="evenodd" clip-rule="evenodd" d="M14.5761 7.70878C16.1818 8.85947 18.1085 9.47664 20.084 9.47314V6.3611C18.9585 6.12313 17.936 5.53789 17.1608 4.68789C16.503 4.27866 15.9388 3.73559 15.5047 3.09399C15.0706 2.45239 14.7764 1.72663 14.6412 0.963867H11.7635V16.7259C11.7609 17.4236 11.5398 18.1029 11.1313 18.6685C10.7228 19.2341 10.1475 19.6576 9.48601 19.8795C8.82456 20.1014 8.11022 20.1106 7.44327 19.9058C6.77632 19.701 6.19025 19.2925 5.76733 18.7376C5.09709 18.3995 4.56033 17.8453 4.24365 17.1647C3.92698 16.484 3.84886 15.7165 4.02189 14.986C4.19493 14.2555 4.60903 13.6046 5.19738 13.1383C5.78574 12.672 6.51403 12.4175 7.26475 12.4159C7.6092 12.417 7.95155 12.4697 8.2804 12.5722V9.43408C6.85953 9.46818 5.47954 9.91642 4.30983 10.7238C3.14012 11.5311 2.23158 12.6624 1.69576 13.9788C1.15993 15.2952 1.02013 16.7394 1.29352 18.1341C1.56691 19.5289 2.24158 20.8134 3.23473 21.8301C4.33371 22.5639 5.61114 22.9857 6.93094 23.0508C8.25074 23.1159 9.56348 22.8218 10.7293 22.1998C11.8952 21.5778 12.8705 20.6512 13.5513 19.5187C14.2322 18.3862 14.5931 17.0902 14.5956 15.7688L14.5761 7.70878Z" fill="black"/>
<path fill-rule="evenodd" clip-rule="evenodd" d="M20.0843 6.3608V5.52094C19.0507 5.52533 18.0371 5.23636 17.1611 4.68759C17.9344 5.54003 18.9577 6.12575 20.0843 6.3608ZM14.6415 0.96356C14.6415 0.813817 14.596 0.657564 14.5764 0.507822V0H10.605V15.7685C10.6016 16.6515 10.2479 17.497 9.62178 18.1195C8.99561 18.742 8.14805 19.0906 7.2651 19.0889C6.74521 19.0915 6.23208 18.971 5.76768 18.7373C6.1906 19.2922 6.77667 19.7007 7.44362 19.9055C8.11057 20.1103 8.82491 20.1011 9.48636 19.8792C10.1478 19.6573 10.7232 19.2338 11.1316 18.6682C11.5401 18.1026 11.7612 17.4233 11.7639 16.7256V0.96356H14.6415ZM8.28074 9.42726V8.53531C6.64653 8.31331 4.9853 8.65136 3.5678 9.49436C2.1503 10.3374 1.06011 11.6356 0.474906 13.1775C-0.110296 14.7194 -0.156005 16.4141 0.345228 17.9853C0.84646 19.5565 1.86508 20.9116 3.23508 21.8298C2.24945 20.8108 1.58196 19.5267 1.31415 18.1345C1.04634 16.7423 1.18982 15.3023 1.72704 13.9903C2.26427 12.6783 3.17199 11.5512 4.3393 10.7466C5.50662 9.94208 6.88299 9.49493 8.30027 9.45981L8.28074 9.42726Z" fill="#69C9D0"/>
</svg>
