<svg width="22" height="24" viewBox="0 0 22 24" fill="none" xmlns="http://www.w3.org/2000/svg">
<path fill-rule="evenodd" clip-rule="evenodd" d="M10.6409 5.54632C11.7693 4.98265 13.138 4.67507 14.3903 4.56666L15.7978 4.44384C17.3397 4.31129 18.8823 4.39269 20.426 4.39269H21.2724V5.2391C21.2724 8.99712 21.2724 12.7562 21.2724 16.515V16.9472C21.2724 20.8273 18.0997 24 14.2185 24H0V4.39269H0.846042C2.39118 4.39269 3.92839 4.29113 5.47316 4.41106L6.88035 4.51731C8.2173 4.6178 9.44117 4.94231 10.6409 5.54632Z" fill="#4D4C4B"/>
<path fill-rule="evenodd" clip-rule="evenodd" d="M0.846069 5.23928V14.8987V16.5152V16.9474V23.1542H7.05182H8.02752H14.2185C17.6329 23.1542 20.4261 20.3603 20.4261 16.9474V16.5152C20.4261 12.7784 20.4261 9.13309 20.4261 5.23928C18.9425 5.23928 17.3758 5.2029 15.8713 5.28791L14.4634 5.40928C13.0858 5.57676 11.6919 5.89839 10.6359 6.5078C9.49594 5.84905 8.25263 5.52166 6.81663 5.36066L5.40908 5.25369C3.87403 5.18238 2.30044 5.23928 0.846069 5.23928Z" fill="#5FB74E"/>
<path fill-rule="evenodd" clip-rule="evenodd" d="M2.60156 23.1541H7.05184H8.02754H14.2185C15.7312 23.1541 17.1208 22.6055 18.1999 21.699C16.9396 18.7693 14.0265 16.7192 10.6355 16.7192C6.70643 16.7192 3.42095 19.4717 2.60156 23.1541Z" fill="#89C45F"/>
<path fill-rule="evenodd" clip-rule="evenodd" d="M10.6359 23.1541L14.2909 23.1001C15.7834 23.1001 17.142 22.5739 18.2002 21.6994C19.5627 20.5735 20.426 18.8684 20.426 16.9473V16.5151C20.426 12.7783 20.426 9.13299 20.426 5.23918C18.9425 5.23918 17.3757 5.20281 15.8713 5.28781L14.4634 5.40918C13.0857 5.57666 11.6919 5.8983 10.6359 6.5077V23.1541Z" fill="#4A9E4B"/>
<path fill-rule="evenodd" clip-rule="evenodd" d="M10.6359 23.1541H14.2412C15.7539 23.1541 17.1211 22.6059 18.2002 21.6993C16.9536 18.8029 13.9786 16.7654 10.6359 16.7207V23.1541Z" fill="#5FB74E"/>
<path fill-rule="evenodd" clip-rule="evenodd" d="M15.8713 4.70131C15.6023 2.05874 13.3692 0 10.6582 0C7.94826 0 5.71628 2.04109 5.40905 4.66818L6.8166 4.77551C7.06548 2.87813 8.68265 1.41115 10.6528 1.41115C12.6218 1.41115 14.2534 2.90334 14.4634 4.82233L15.8713 4.70131Z" fill="#4D4C4B"/>
<path fill-rule="evenodd" clip-rule="evenodd" d="M12.9255 17.5454C12.3121 18.194 11.6994 18.8431 11.0864 19.4924L10.6355 19.9704L10.1853 19.4924C9.5719 18.8441 8.95925 18.194 8.34624 17.5454L8.02893 17.2086L8.26088 16.8081C8.75251 15.9602 9.67239 15.5039 10.6355 15.5039C11.5997 15.5039 12.5188 15.9602 13.0108 16.8081L13.2431 17.2086L12.9255 17.5454Z" fill="#4D4C4B"/>
<path fill-rule="evenodd" clip-rule="evenodd" d="M12.4739 17.1199C11.8623 17.7689 11.2482 18.4172 10.6355 19.067C10.0229 18.4172 9.40989 17.7689 8.79688 17.1199C9.18406 16.4525 9.91088 16.1226 10.6355 16.124C11.3606 16.1226 12.0874 16.4525 12.4739 17.1199Z" fill="#FDF8B4"/>
<path fill-rule="evenodd" clip-rule="evenodd" d="M12.4738 17.1199C11.8622 17.7689 11.2481 18.4172 10.6355 19.067V16.124C11.3605 16.1226 12.0873 16.4525 12.4738 17.1199Z" fill="#FCD066"/>
<path fill-rule="evenodd" clip-rule="evenodd" d="M6.04148 7.68066C8.78778 7.68066 11.0151 9.9094 11.0151 12.6546C11.0151 15.4009 8.78778 17.6286 6.04148 17.6286C3.29481 17.6286 1.06824 15.4009 1.06824 12.6546C1.06824 9.9094 3.29481 7.68066 6.04148 7.68066Z" fill="#4D4C4B"/>
<path fill-rule="evenodd" clip-rule="evenodd" d="M6.0415 8.52734C8.32102 8.52734 10.1694 10.3757 10.1694 12.6549C10.1694 14.9337 8.32102 16.7825 6.0415 16.7825C3.76126 16.7825 1.91394 14.9337 1.91394 12.6549C1.91394 10.3757 3.76126 8.52734 6.0415 8.52734Z" fill="#EEEFEE"/>
<path fill-rule="evenodd" clip-rule="evenodd" d="M6.04153 8.52734C7.92271 8.52734 9.51034 9.7865 10.0077 11.5078C9.51034 13.2283 7.92271 14.4878 6.04153 14.4878C4.15964 14.4878 2.57345 13.2283 2.07605 11.5078C2.57345 9.7865 4.15964 8.52734 6.04153 8.52734Z" fill="#FEFEFE"/>
<path fill-rule="evenodd" clip-rule="evenodd" d="M15.2302 7.68066C17.9772 7.68066 20.2034 9.9094 20.2034 12.6546C20.2034 15.4009 17.9772 17.6286 15.2302 17.6286C12.4835 17.6286 10.2562 15.402 10.2562 12.6546C10.2562 9.9094 12.4835 7.68066 15.2302 7.68066Z" fill="#4D4C4B"/>
<path fill-rule="evenodd" clip-rule="evenodd" d="M15.2302 8.52734C17.5094 8.52734 19.3581 10.3757 19.3581 12.6549C19.3581 14.9337 17.5094 16.7825 15.2302 16.7825C12.9507 16.7825 11.1027 14.9337 11.1027 12.6549C11.1027 10.3757 12.9507 8.52734 15.2302 8.52734Z" fill="#EEEFEE"/>
<path fill-rule="evenodd" clip-rule="evenodd" d="M15.2302 8.52734C17.1111 8.52734 18.6987 9.7865 19.1954 11.5078C18.6991 13.2283 17.1111 14.4878 15.2302 14.4878C13.3483 14.4878 11.7614 13.2283 11.264 11.5078C11.7614 9.7865 13.3483 8.52734 15.2302 8.52734Z" fill="#FEFEFE"/>
<path fill-rule="evenodd" clip-rule="evenodd" d="M6.56015 10.0879C8.03217 10.0879 9.22649 11.2815 9.22649 12.7521C9.22649 14.2252 8.03217 15.4184 6.56015 15.4184C5.08705 15.4184 3.8938 14.2252 3.8938 12.7521C3.8938 12.2615 4.02742 11.8019 4.25937 11.4065C4.44954 11.8772 4.90984 12.2075 5.44974 12.2075C6.15856 12.2075 6.73411 11.6341 6.73411 10.9249C6.73411 10.6055 6.61741 10.3144 6.4258 10.0908C6.4701 10.0879 6.51549 10.0879 6.56015 10.0879Z" fill="#4D4C4B"/>
<path fill-rule="evenodd" clip-rule="evenodd" d="M14.7104 10.0879C16.1839 10.0879 17.3775 11.2815 17.3775 12.7521C17.3775 14.2252 16.1839 15.4184 14.7104 15.4184C13.2388 15.4184 12.0452 14.2252 12.0452 12.7521C12.0452 12.2615 12.1781 11.8019 12.4093 11.4065C12.6005 11.8772 13.0619 12.2075 13.6011 12.2075C14.3099 12.2075 14.8844 11.6341 14.8844 10.9249C14.8844 10.6055 14.7691 10.3144 14.5768 10.0908C14.6218 10.0879 14.6658 10.0879 14.7104 10.0879Z" fill="#4D4C4B"/>
</svg>
