<svg width="44" height="44" viewBox="0 0 44 44" fill="none" xmlns="http://www.w3.org/2000/svg">
<g filter="url(#filter0_d_795_276)">
<rect x="4" y="4" width="36" height="36" rx="18" fill="#ECFFF5"/>
</g>
<path d="M13 31L14.2925 26.2023C13.2501 24.3334 12.919 22.1525 13.3598 20.0598C13.8006 17.9672 14.9838 16.1031 16.6922 14.8097C18.4007 13.5164 20.5199 12.8804 22.6609 13.0186C24.8018 13.1568 26.821 14.0598 28.3479 15.562C29.8747 17.0641 30.8068 19.0647 30.9732 21.1965C31.1395 23.3284 30.5289 25.4485 29.2534 27.1678C27.9779 28.8872 26.123 30.0905 24.0292 30.5568C21.9354 31.0232 19.7431 30.7214 17.8545 29.7068L13 31ZM18.0886 27.9114L18.3888 28.0889C19.7567 28.897 21.3544 29.2314 22.933 29.04C24.5115 28.8486 25.9821 28.1422 27.1157 27.0308C28.2494 25.9194 28.9822 24.4655 29.2002 22.8956C29.4182 21.3257 29.109 19.7281 28.3208 18.3516C27.5325 16.9752 26.3096 15.8973 24.8426 15.2859C23.3755 14.6745 21.7467 14.5639 20.21 14.9714C18.6734 15.3789 17.3151 16.2816 16.3469 17.5388C15.3787 18.796 14.855 20.3371 14.8573 21.9219C14.856 23.236 15.2207 24.5247 15.9107 25.6444L16.099 25.9538L15.3764 28.6316L18.0886 27.9114Z" fill="#00D95F"/>
<path fill-rule="evenodd" clip-rule="evenodd" d="M25.0548 23.298C24.8916 23.1561 24.7006 23.0562 24.4962 23.0059C24.2917 22.9557 24.0794 22.9564 23.8753 23.008C23.5686 23.1454 23.3705 23.6642 23.1723 23.9236C23.1305 23.9858 23.0691 24.0294 22.9996 24.0462C22.9301 24.0631 22.8573 24.052 22.7948 24.0151C21.6721 23.5411 20.731 22.6717 20.1244 21.5482C20.0727 21.4781 20.0482 21.3891 20.0561 21.2999C20.064 21.2108 20.1037 21.1284 20.1669 21.0701C20.3879 20.8343 20.5502 20.5421 20.6387 20.2207C20.6583 19.8662 20.583 19.5131 20.4216 19.2034C20.2969 18.7693 20.0595 18.3828 19.7375 18.0895C19.5714 18.009 19.3873 17.982 19.2073 18.0118C19.0273 18.0416 18.8592 18.1269 18.7231 18.2574C18.487 18.477 18.2995 18.751 18.1746 19.0591C18.0497 19.3672 17.9904 19.7015 18.0013 20.0376C18.002 20.2263 18.0242 20.4142 18.0673 20.5971C18.1769 21.0365 18.3454 21.4563 18.5674 21.8433C18.7277 22.1396 18.9025 22.4266 19.0911 22.7028C19.7043 23.6102 20.475 24.3807 21.3605 24.9714C21.8049 25.2715 22.2798 25.5156 22.776 25.6987C23.2913 25.9506 23.8604 26.0472 24.4226 25.9785C24.7429 25.9262 25.0464 25.7898 25.3064 25.5814C25.5664 25.373 25.7749 25.0989 25.9135 24.7832C25.995 24.5925 26.0197 24.3793 25.9843 24.1728C25.8994 23.7506 25.3756 23.5014 25.0548 23.298Z" fill="#00D95F"/>
<defs>
<filter id="filter0_d_795_276" x="0" y="0" width="44" height="44" filterUnits="userSpaceOnUse" color-interpolation-filters="sRGB">
<feFlood flood-opacity="0" result="BackgroundImageFix"/>
<feColorMatrix in="SourceAlpha" type="matrix" values="0 0 0 0 0 0 0 0 0 0 0 0 0 0 0 0 0 0 127 0" result="hardAlpha"/>
<feOffset/>
<feGaussianBlur stdDeviation="2"/>
<feComposite in2="hardAlpha" operator="out"/>
<feColorMatrix type="matrix" values="0 0 0 0 0 0 0 0 0 0.85098 0 0 0 0 0.372549 0 0 0 0.8 0"/>
<feBlend mode="normal" in2="BackgroundImageFix" result="effect1_dropShadow_795_276"/>
<feBlend mode="normal" in="SourceGraphic" in2="effect1_dropShadow_795_276" result="shape"/>
</filter>
</defs>
</svg>
